ply
format ascii 1.0
element vertex 1329
property float x
property float y
property float z
element face 2662
property list uchar int vertex_indices
end_header
-17.50000 -12.00000 -17.00000
-18.00000 -12.00000 -17.50000
-18.00000 -12.50000 -17.00000
-18.00000 -12.00000 -16.50000
-17.50000 -11.00000 -17.00000
-18.00000 -11.00000 -17.50000
-18.00000 -11.00000 -16.50000
-18.00000 -10.50000 -17.00000
-18.50000 -13.00000 -16.00000
-19.00000 -13.00000 -16.50000
-19.00000 -13.50000 -16.00000
-19.00000 -13.00000 -15.50000
-19.00000 -12.00000 -17.50000
-19.00000 -12.50000 -17.00000
-18.50000 -12.00000 -16.00000
-19.00000 -12.50000 -15.00000
-18.50000 -12.00000 -15.00000
-19.00000 -12.00000 -14.50000
-19.00000 -11.00000 -17.50000
-18.50000 -11.00000 -16.00000
-19.00000 -11.00000 -15.50000
-19.00000 -11.50000 -15.00000
-19.00000 -10.50000 -17.00000
-19.00000 -10.50000 -16.00000
-19.50000 -15.00000 -12.00000
-20.00000 -15.00000 -12.50000
-20.00000 -15.50000 -12.00000
-20.00000 -15.00000 -11.50000
-19.50000 -14.00000 -12.00000
-20.00000 -14.00000 -12.50000
-20.00000 -14.00000 -11.50000
-20.00000 -13.00000 -16.50000
-20.00000 -13.50000 -16.00000
-20.00000 -13.50000 -15.00000
-19.50000 -13.00000 -15.00000
-20.00000 -13.50000 -14.00000
-19.50000 -13.00000 -14.00000
-20.00000 -13.50000 -13.00000
-19.50000 -13.00000 -13.00000
-19.50000 -13.00000 -12.00000
-20.00000 -13.00000 -11.50000
-20.00000 -12.00000 -17.50000
-20.00000 -12.50000 -17.00000
-19.50000 -12.00000 -14.00000
-20.00000 -12.00000 -13.50000
-20.00000 -12.50000 -13.00000
-20.00000 -12.50000 -12.00000
-20.00000 -11.00000 -17.50000
-20.00000 -11.50000 -15.00000
-20.00000 -11.00000 -15.50000
-20.00000 -11.50000 -14.00000
-20.00000 -10.50000 -17.00000
-20.00000 -10.50000 -16.00000
-20.50000 -17.00000 -12.00000
-21.00000 -17.00000 -12.50000
-21.00000 -17.50000 -12.00000
-21.00000 -17.00000 -11.50000
-20.50000 -16.00000 -12.00000
-21.00000 -16.00000 -12.50000
-21.00000 -16.00000 -11.50000
-20.50000 -15.00000 -13.00000
-21.00000 -15.00000 -13.50000
-21.00000 -15.50000 -13.00000
-21.00000 -15.00000 -11.50000
-20.50000 -14.00000 -15.00000
-21.00000 -14.00000 -15.50000
-21.00000 -14.50000 -15.00000
-21.00000 -14.50000 -14.00000
-20.50000 -14.00000 -14.00000
-20.50000 -14.00000 -13.00000
-21.00000 -14.00000 -11.50000
-21.00000 -13.00000 -16.50000
-21.00000 -13.50000 -16.00000
-21.00000 -13.00000 -11.50000
-21.00000 -12.00000 -17.50000
-21.00000 -12.50000 -17.00000
-21.00000 -12.50000 -13.00000
-21.00000 -12.00000 -13.50000
-21.00000 -12.50000 -12.00000
-21.00000 -11.00000 -17.50000
-21.00000 -11.50000 -15.00000
-21.00000 -11.00000 -15.50000
-21.00000 -11.50000 -14.00000
-21.00000 -10.50000 -17.00000
-21.00000 -10.50000 -16.00000
-21.50000 -18.00000 -12.00000
-22.00000 -18.00000 -12.50000
-22.00000 -18.50000 -12.00000
-22.00000 -18.00000 -11.50000
-22.00000 -17.00000 -12.50000
-22.00000 -17.00000 -11.50000
-21.50000 -16.00000 -13.00000
-22.00000 -16.00000 -13.50000
-22.00000 -16.50000 -13.00000
-22.00000 -16.50000 -11.00000
-21.50000 -16.00000 -11.00000
-22.00000 -16.00000 -10.50000
-22.00000 -15.00000 -13.50000
-21.50000 -15.00000 -11.00000
-22.00000 -15.00000 -10.50000
-21.50000 -14.00000 -16.00000
-22.00000 -14.00000 -16.50000
-22.00000 -14.50000 -16.00000
-22.00000 -14.50000 -15.00000
-22.00000 -14.50000 -14.00000
-21.50000 -14.00000 -11.00000
-22.00000 -14.00000 -10.50000
-22.00000 -13.00000 -16.50000
-22.00000 -13.50000 -11.00000
-22.00000 -13.00000 -11.50000
-22.00000 -12.00000 -17.50000
-22.00000 -12.50000 -17.00000
-22.00000 -12.50000 -13.00000
-22.00000 -12.00000 -13.50000
-22.00000 -12.50000 -12.00000
-22.00000 -11.00000 -17.50000
-22.00000 -11.50000 -15.00000
-22.00000 -11.00000 -15.50000
-22.00000 -11.50000 -14.00000
-22.00000 -10.50000 -17.00000
-22.00000 -10.50000 -16.00000
-21.50000 -6.00000 -29.00000
-22.00000 -6.00000 -29.50000
-22.00000 -6.50000 -29.00000
-22.00000 -6.00000 -28.50000
-21.50000 -5.00000 -29.00000
-22.00000 -5.00000 -29.50000
-22.00000 -5.00000 -28.50000
-22.00000 -4.50000 -29.00000
-23.00000 -18.00000 -12.50000
-23.00000 -18.50000 -12.00000
-23.00000 -18.00000 -11.50000
-22.50000 -17.00000 -13.00000
-23.00000 -17.00000 -13.50000
-23.00000 -17.50000 -13.00000
-23.00000 -17.50000 -11.00000
-22.50000 -17.00000 -11.00000
-23.00000 -17.00000 -10.50000
-23.00000 -16.00000 -13.50000
-23.00000 -16.00000 -10.50000
-22.50000 -15.00000 -14.00000
-23.00000 -15.00000 -14.50000
-23.00000 -15.50000 -14.00000
-23.00000 -15.00000 -10.50000
-22.50000 -14.00000 -16.00000
-23.00000 -14.00000 -15.50000
-23.00000 -14.50000 -15.00000
-23.00000 -14.00000 -10.50000
-23.00000 -13.00000 -16.50000
-23.00000 -13.50000 -16.00000
-22.50000 -13.00000 -12.00000
-23.00000 -13.50000 -12.00000
-23.00000 -13.00000 -12.50000
-23.00000 -13.50000 -11.00000
-23.00000 -12.00000 -17.50000
-23.00000 -12.50000 -17.00000
-23.00000 -12.50000 -13.00000
-23.00000 -12.00000 -13.50000
-22.50000 -11.00000 -18.00000
-23.00000 -11.00000 -18.50000
-23.00000 -11.50000 -18.00000
-23.00000 -11.50000 -15.00000
-23.00000 -11.00000 -15.50000
-23.00000 -11.50000 -14.00000
-23.00000 -10.50000 -18.00000
-23.00000 -10.50000 -17.00000
-23.00000 -10.50000 -16.00000
-22.50000 -6.00000 -30.00000
-23.00000 -6.00000 -30.50000
-23.00000 -6.50000 -30.00000
-23.00000 -6.50000 -29.00000
-23.00000 -6.50000 -28.00000
-22.50000 -6.00000 -28.00000
-23.00000 -6.00000 -27.50000
-22.50000 -5.00000 -30.00000
-23.00000 -5.00000 -30.50000
-23.00000 -5.50000 -28.00000
-23.00000 -5.00000 -28.50000
-23.00000 -4.50000 -30.00000
-23.00000 -4.50000 -29.00000
-24.00000 -18.00000 -12.50000
-24.00000 -18.50000 -12.00000
-24.00000 -18.00000 -11.50000
-24.00000 -17.00000 -13.50000
-24.00000 -17.50000 -13.00000
-24.00000 -17.50000 -11.00000
-24.00000 -17.00000 -10.50000
-24.00000 -16.00000 -13.50000
-24.00000 -16.00000 -10.50000
-24.00000 -15.00000 -14.50000
-24.00000 -15.50000 -14.00000
-24.00000 -15.00000 -10.50000
-24.00000 -14.00000 -15.50000
-24.00000 -14.50000 -15.00000
-23.50000 -14.00000 -11.00000
-24.00000 -14.50000 -11.00000
-24.00000 -14.00000 -11.50000
-24.00000 -13.00000 -16.50000
-24.00000 -13.50000 -16.00000
-24.00000 -13.50000 -12.00000
-24.00000 -13.00000 -12.50000
-24.00000 -12.00000 -17.50000
-24.00000 -12.50000 -17.00000
-24.00000 -12.50000 -13.00000
-24.00000 -12.00000 -13.50000
-24.00000 -11.00000 -18.50000
-24.00000 -11.50000 -18.00000
-24.00000 -11.50000 -15.00000
-24.00000 -11.00000 -15.50000
-24.00000 -11.50000 -14.00000
-23.50000 -10.00000 -18.00000
-24.00000 -10.00000 -18.50000
-24.00000 -10.00000 -17.50000
-24.00000 -10.50000 -17.00000
-24.00000 -10.50000 -16.00000
-24.00000 -9.50000 -18.00000
-23.50000 -7.00000 -29.00000
-24.00000 -7.00000 -29.50000
-24.00000 -7.50000 -29.00000
-24.00000 -7.00000 -28.50000
-24.00000 -6.00000 -30.50000
-24.00000 -6.50000 -30.00000
-24.00000 -6.50000 -28.00000
-24.00000 -6.00000 -27.50000
-24.00000 -5.00000 -30.50000
-24.00000 -5.50000 -28.00000
-24.00000 -5.00000 -28.50000
-24.00000 -4.50000 -30.00000
-24.00000 -4.50000 -29.00000
-24.50000 -18.00000 -12.00000
-25.00000 -17.00000 -13.50000
-25.00000 -17.50000 -13.00000
-25.00000 -17.50000 -12.00000
-24.50000 -17.00000 -11.00000
-25.00000 -17.00000 -11.50000
-25.00000 -16.00000 -13.50000
-24.50000 -16.00000 -11.00000
-25.00000 -16.00000 -11.50000
-25.00000 -15.00000 -14.50000
-25.00000 -15.50000 -14.00000
-24.50000 -15.00000 -11.00000
-25.00000 -15.00000 -11.50000
-25.00000 -14.00000 -15.50000
-25.00000 -14.50000 -15.00000
-25.00000 -14.00000 -11.50000
-25.00000 -13.00000 -16.50000
-25.00000 -13.50000 -16.00000
-25.00000 -13.50000 -12.00000
-25.00000 -13.00000 -12.50000
-25.00000 -12.00000 -17.50000
-25.00000 -12.50000 -17.00000
-25.00000 -12.50000 -13.00000
-25.00000 -12.00000 -13.50000
-25.00000 -11.00000 -18.50000
-25.00000 -11.50000 -18.00000
-24.50000 -11.00000 -15.00000
-25.00000 -11.00000 -14.50000
-25.00000 -11.50000 -14.00000
-25.00000 -10.00000 -18.50000
-25.00000 -10.50000 -17.00000
-25.00000 -10.00000 -17.50000
-25.00000 -10.50000 -16.00000
-25.00000 -10.50000 -15.00000
-25.00000 -9.50000 -18.00000
-25.00000 -7.00000 -29.50000
-25.00000 -7.50000 -29.00000
-25.00000 -7.50000 -28.00000
-24.50000 -7.00000 -28.00000
-25.00000 -7.00000 -27.50000
-25.00000 -6.00000 -30.50000
-25.00000 -6.50000 -30.00000
-25.00000 -6.00000 -27.50000
-25.00000 -5.00000 -30.50000
-25.00000 -5.50000 -28.00000
-25.00000 -5.00000 -28.50000
-25.00000 -4.50000 -30.00000
-25.00000 -4.50000 -29.00000
-26.00000 -17.00000 -13.50000
-26.00000 -17.50000 -13.00000
-26.00000 -17.50000 -12.00000
-26.00000 -17.00000 -11.50000
-26.00000 -16.00000 -13.50000
-26.00000 -16.00000 -11.50000
-26.00000 -15.00000 -14.50000
-26.00000 -15.50000 -14.00000
-26.00000 -15.00000 -11.50000
-25.50000 -14.00000 -15.00000
-26.00000 -14.00000 -14.50000
-25.50000 -14.00000 -12.00000
-26.00000 -14.50000 -12.00000
-26.00000 -14.00000 -12.50000
-25.50000 -13.00000 -16.00000
-26.00000 -13.00000 -15.50000
-26.00000 -13.50000 -15.00000
-25.50000 -13.00000 -13.00000
-26.00000 -13.50000 -13.00000
-26.00000 -13.00000 -13.50000
-26.00000 -12.00000 -17.50000
-26.00000 -12.50000 -17.00000
-26.00000 -12.50000 -16.00000
-26.00000 -12.00000 -13.50000
-26.00000 -11.00000 -18.50000
-26.00000 -11.50000 -18.00000
-25.50000 -11.00000 -15.00000
-26.00000 -11.50000 -15.00000
-26.00000 -11.00000 -15.50000
-26.00000 -11.50000 -14.00000
-26.00000 -10.00000 -18.50000
-25.50000 -10.00000 -17.00000
-26.00000 -10.00000 -16.50000
-26.00000 -10.50000 -16.00000
-26.00000 -9.50000 -18.00000
-26.00000 -9.50000 -17.00000
-26.00000 -7.00000 -29.50000
-26.00000 -7.50000 -29.00000
-26.00000 -7.50000 -28.00000
-26.00000 -7.00000 -27.50000
-25.50000 -6.00000 -30.00000
-26.00000 -6.00000 -29.50000
-26.00000 -6.00000 -27.50000
-25.50000 -5.00000 -30.00000
-26.00000 -5.50000 -29.00000
-25.50000 -5.00000 -29.00000
-26.00000 -5.50000 -28.00000
-26.50000 -36.00000 2.00000
-27.00000 -36.00000 1.50000
-27.00000 -36.50000 2.00000
-27.00000 -36.00000 2.50000
-26.50000 -35.00000 2.00000
-27.00000 -35.00000 1.50000
-27.00000 -35.00000 2.50000
-27.00000 -34.50000 2.00000
-26.50000 -18.00000 -12.00000
-27.00000 -18.00000 -12.50000
-27.00000 -18.50000 -12.00000
-27.00000 -18.00000 -11.50000
-27.00000 -17.00000 -13.50000
-27.00000 -17.50000 -13.00000
-27.00000 -17.00000 -11.50000
-27.00000 -16.00000 -13.50000
-27.00000 -16.00000 -11.50000
-27.00000 -15.00000 -14.50000
-27.00000 -15.50000 -14.00000
-27.00000 -15.00000 -11.50000
-27.00000 -14.00000 -14.50000
-27.00000 -14.50000 -12.00000
-27.00000 -14.00000 -12.50000
-27.00000 -13.00000 -15.50000
-27.00000 -13.50000 -15.00000
-27.00000 -13.50000 -13.00000
-27.00000 -13.00000 -13.50000
-26.50000 -12.00000 -17.00000
-27.00000 -12.00000 -16.50000
-27.00000 -12.50000 -16.00000
-26.50000 -12.00000 -14.00000
-27.00000 -12.50000 -14.00000
-27.00000 -12.00000 -14.50000
-27.00000 -11.00000 -18.50000
-27.00000 -11.50000 -18.00000
-27.00000 -11.50000 -17.00000
-27.00000 -11.50000 -15.00000
-27.00000 -11.00000 -15.50000
-27.00000 -10.00000 -18.50000
-27.00000 -10.50000 -16.00000
-27.00000 -10.00000 -16.50000
-27.00000 -9.50000 -18.00000
-27.00000 -9.50000 -17.00000
-26.50000 -7.00000 -29.00000
-27.00000 -7.00000 -28.50000
-27.00000 -7.50000 -28.00000
-27.00000 -7.50000 -27.00000
-26.50000 -7.00000 -27.00000
-27.00000 -7.00000 -26.50000
-26.50000 -6.00000 -29.00000
-27.00000 -6.00000 -28.50000
-26.50000 -6.00000 -27.00000
-27.00000 -6.00000 -26.50000
-27.00000 -5.50000 -28.00000
-27.00000 -5.50000 -27.00000
-27.50000 -36.00000 0.00000
-28.00000 -36.00000 -0.50000
-28.00000 -36.50000 0.00000
-28.00000 -36.50000 1.00000
-27.50000 -36.00000 1.00000
-28.00000 -36.50000 2.00000
-28.00000 -36.00000 2.50000
-27.50000 -35.00000 0.00000
-28.00000 -35.00000 -0.50000
-27.50000 -35.00000 1.00000
-28.00000 -35.00000 2.50000
-28.00000 -34.50000 0.00000
-28.00000 -34.50000 1.00000
-28.00000 -34.50000 2.00000
-28.00000 -18.00000 -12.50000
-28.00000 -18.50000 -12.00000
-28.00000 -18.00000 -11.50000
-28.00000 -17.00000 -13.50000
-28.00000 -17.50000 -13.00000
-28.00000 -17.00000 -11.50000
-28.00000 -16.00000 -13.50000
-28.00000 -16.00000 -11.50000
-27.50000 -15.00000 -14.00000
-28.00000 -15.00000 -13.50000
-27.50000 -15.00000 -12.00000
-28.00000 -15.50000 -12.00000
-28.00000 -15.00000 -12.50000
-28.00000 -14.00000 -14.50000
-28.00000 -14.50000 -14.00000
-28.00000 -14.00000 -12.50000
-27.50000 -13.00000 -15.00000
-28.00000 -13.00000 -14.50000
-28.00000 -13.50000 -13.00000
-28.00000 -13.00000 -13.50000
-28.00000 -12.00000 -16.50000
-28.00000 -12.50000 -16.00000
-28.00000 -12.50000 -15.00000
-27.50000 -12.50000 -14.50000
-28.00000 -12.00000 -14.50000
-28.00000 -12.50000 -14.00000
-28.00000 -11.00000 -18.50000
-28.00000 -11.50000 -18.00000
-28.00000 -11.50000 -17.00000
-28.00000 -11.50000 -15.00000
-28.00000 -11.00000 -15.50000
-27.50000 -10.00000 -19.00000
-28.00000 -10.00000 -19.50000
-28.00000 -10.50000 -19.00000
-28.00000 -10.50000 -16.00000
-28.00000 -10.00000 -16.50000
-27.50000 -9.00000 -19.00000
-28.00000 -9.00000 -19.50000
-27.50000 -9.00000 -18.00000
-28.00000 -9.00000 -17.50000
-28.00000 -9.50000 -17.00000
-28.00000 -8.50000 -19.00000
-28.00000 -8.50000 -18.00000
-28.00000 -7.00000 -28.50000
-28.00000 -7.50000 -28.00000
-28.00000 -7.50000 -27.00000
-28.00000 -7.50000 -26.00000
-27.50000 -7.00000 -26.00000
-28.00000 -7.00000 -25.50000
-28.00000 -6.00000 -28.50000
-28.00000 -6.50000 -26.00000
-28.00000 -6.00000 -26.50000
-28.00000 -5.50000 -28.00000
-28.00000 -5.50000 -27.00000
-28.50000 -36.00000 -1.00000
-29.00000 -36.00000 -1.50000
-29.00000 -36.50000 -1.00000
-29.00000 -36.50000 0.00000
-29.00000 -36.50000 1.00000
-28.50000 -36.00000 2.00000
-29.00000 -36.00000 1.50000
-28.50000 -35.00000 -1.00000
-29.00000 -35.00000 -1.50000
-28.50000 -35.00000 2.00000
-29.00000 -35.00000 1.50000
-28.50000 -34.00000 -2.00000
-29.00000 -34.00000 -2.50000
-29.00000 -34.50000 -2.00000
-28.50000 -34.00000 -1.00000
-28.50000 -34.00000 0.00000
-29.00000 -34.00000 0.50000
-29.00000 -34.50000 1.00000
-29.00000 -33.50000 -2.00000
-29.00000 -33.50000 -1.00000
-29.00000 -33.50000 0.00000
-28.50000 -18.00000 -12.00000
-28.50000 -17.00000 -13.00000
-28.50000 -17.00000 -12.00000
-28.50000 -16.00000 -13.00000
-28.50000 -16.00000 -12.00000
-29.00000 -15.00000 -13.50000
-29.00000 -15.50000 -13.00000
-29.00000 -15.00000 -12.50000
-28.50000 -14.00000 -14.00000
-29.00000 -14.50000 -13.00000
-28.50000 -14.00000 -13.00000
-28.50000 -13.00000 -14.00000
-28.50000 -12.00000 -16.00000
-28.50000 -12.00000 -15.00000
-29.00000 -11.00000 -18.50000
-29.00000 -11.50000 -18.00000
-29.00000 -11.50000 -17.00000
-29.00000 -11.50000 -16.00000
-29.00000 -11.00000 -15.50000
-29.00000 -10.00000 -19.50000
-29.00000 -10.50000 -19.00000
-29.00000 -10.50000 -16.00000
-29.00000 -10.00000 -16.50000
-28.50000 -9.00000 -20.00000
-29.00000 -9.00000 -20.50000
-29.00000 -9.50000 -20.00000
-29.00000 -9.50000 -17.00000
-29.00000 -9.00000 -17.50000
-28.50000 -8.00000 -27.00000
-29.00000 -8.00000 -27.50000
-29.00000 -8.50000 -27.00000
-29.00000 -8.50000 -26.00000
-28.50000 -8.00000 -26.00000
-29.00000 -8.50000 -25.00000
-28.50000 -8.00000 -25.00000
-29.00000 -8.00000 -24.50000
-29.00000 -8.50000 -20.00000
-29.00000 -8.50000 -19.00000
-29.00000 -8.50000 -18.00000
-28.50000 -7.00000 -28.00000
-29.00000 -7.00000 -27.50000
-28.50000 -7.00000 -25.00000
-29.00000 -7.00000 -24.50000
-28.50000 -6.00000 -28.00000
-29.00000 -6.00000 -27.50000
-29.00000 -6.50000 -26.00000
-29.00000 -6.00000 -26.50000
-29.00000 -6.50000 -25.00000
-29.00000 -5.50000 -27.00000
-30.00000 -36.00000 -1.50000
-30.00000 -36.50000 -1.00000
-30.00000 -36.50000 0.00000
-29.50000 -36.00000 1.00000
-30.00000 -36.00000 0.50000
-29.50000 -35.00000 -2.00000
-30.00000 -35.00000 -2.50000
-30.00000 -35.50000 -2.00000
-29.50000 -35.00000 1.00000
-30.00000 -35.00000 0.50000
-30.00000 -34.00000 -2.50000
-29.50000 -34.00000 0.00000
-30.00000 -34.50000 0.00000
-30.00000 -34.00000 -0.50000
-29.50000 -33.00000 -3.00000
-30.00000 -33.00000 -3.50000
-30.00000 -33.50000 -3.00000
-29.50000 -33.00000 -2.00000
-30.00000 -33.00000 -1.50000
-30.00000 -33.50000 -1.00000
-30.00000 -32.50000 -3.00000
-30.00000 -32.50000 -2.00000
-29.50000 -15.00000 -13.00000
-30.00000 -11.00000 -18.50000
-30.00000 -11.50000 -18.00000
-30.00000 -11.50000 -17.00000
-29.50000 -11.00000 -16.00000
-30.00000 -11.00000 -16.50000
-29.50000 -10.00000 -20.00000
-30.00000 -10.00000 -20.50000
-30.00000 -10.50000 -20.00000
-30.00000 -10.50000 -19.00000
-30.00000 -10.00000 -16.50000
-29.50000 -9.00000 -26.00000
-30.00000 -9.00000 -26.50000
-30.00000 -9.50000 -26.00000
-30.00000 -9.50000 -25.00000
-29.50000 -9.00000 -25.00000
-30.00000 -9.00000 -24.50000
-29.50000 -9.00000 -21.00000
-30.00000 -9.00000 -21.50000
-30.00000 -9.50000 -21.00000
-30.00000 -9.50000 -17.00000
-30.00000 -9.00000 -17.50000
-29.50000 -8.00000 -27.00000
-30.00000 -8.00000 -26.50000
-30.00000 -8.50000 -24.00000
-29.50000 -8.00000 -24.00000
-30.00000 -8.50000 -23.00000
-29.50000 -8.00000 -23.00000
-30.00000 -8.00000 -22.50000
-29.50000 -8.00000 -21.00000
-30.00000 -8.00000 -21.50000
-30.00000 -8.50000 -20.00000
-30.00000 -8.00000 -20.50000
-30.00000 -8.50000 -19.00000
-30.00000 -8.50000 -18.00000
-30.00000 -7.00000 -27.50000
-30.00000 -7.50000 -27.00000
-30.00000 -7.50000 -24.00000
-30.00000 -7.00000 -24.50000
-30.00000 -7.50000 -23.00000
-30.00000 -7.50000 -21.00000
-30.00000 -6.50000 -27.00000
-29.50000 -6.00000 -27.00000
-30.00000 -6.50000 -26.00000
-30.00000 -6.50000 -25.00000
-30.50000 -36.00000 -2.00000
-31.00000 -36.00000 -2.50000
-31.00000 -36.50000 -2.00000
-31.00000 -36.50000 -1.00000
-30.50000 -36.00000 0.00000
-31.00000 -36.00000 -0.50000
-30.50000 -35.00000 -3.00000
-31.00000 -35.00000 -3.50000
-31.00000 -35.50000 -3.00000
-30.50000 -35.00000 0.00000
-31.00000 -35.00000 -0.50000
-30.50000 -34.00000 -3.00000
-31.00000 -34.00000 -3.50000
-31.00000 -34.00000 -0.50000
-31.00000 -33.00000 -3.50000
-31.00000 -33.50000 -1.00000
-31.00000 -33.00000 -1.50000
-30.50000 -32.00000 -4.00000
-31.00000 -32.00000 -4.50000
-31.00000 -32.50000 -4.00000
-30.50000 -32.00000 -3.00000
-31.00000 -32.00000 -2.50000
-31.00000 -32.50000 -2.00000
-30.50000 -31.00000 -4.00000
-31.00000 -31.00000 -4.50000
-31.00000 -31.00000 -3.50000
-31.00000 -31.50000 -3.00000
-31.00000 -30.50000 -4.00000
-30.50000 -11.00000 -19.00000
-31.00000 -11.00000 -19.50000
-31.00000 -11.50000 -19.00000
-31.00000 -11.50000 -18.00000
-30.50000 -11.00000 -17.00000
-31.00000 -11.00000 -17.50000
-30.50000 -10.00000 -25.00000
-31.00000 -10.00000 -25.50000
-31.00000 -10.50000 -25.00000
-31.00000 -10.00000 -24.50000
-30.50000 -10.00000 -21.00000
-31.00000 -10.00000 -21.50000
-31.00000 -10.50000 -21.00000
-31.00000 -10.50000 -20.00000
-30.50000 -10.00000 -17.00000
-31.00000 -10.00000 -17.50000
-31.00000 -9.00000 -26.50000
-31.00000 -9.50000 -26.00000
-31.00000 -9.50000 -24.00000
-30.50000 -9.00000 -24.00000
-31.00000 -9.50000 -23.00000
-30.50000 -9.00000 -23.00000
-31.00000 -9.50000 -22.00000
-30.50000 -9.00000 -22.00000
-30.50000 -9.00000 -18.00000
-31.00000 -9.50000 -18.00000
-31.00000 -9.00000 -18.50000
-31.00000 -8.00000 -26.50000
-30.50000 -8.00000 -22.00000
-31.00000 -8.50000 -20.00000
-31.00000 -8.00000 -20.50000
-31.00000 -8.50000 -19.00000
-30.50000 -7.00000 -27.00000
-31.00000 -7.00000 -26.50000
-30.50000 -7.00000 -24.00000
-31.00000 -7.00000 -23.50000
-31.00000 -7.50000 -23.00000
-31.00000 -7.50000 -22.00000
-31.00000 -7.50000 -21.00000
-31.00000 -6.50000 -26.00000
-31.00000 -6.50000 -25.00000
-31.00000 -6.50000 -24.00000
-31.50000 -37.00000 -3.00000
-32.00000 -37.00000 -3.50000
-32.00000 -37.50000 -3.00000
-32.00000 -37.50000 -2.00000
-31.50000 -37.00000 -2.00000
-32.00000 -37.00000 -1.50000
-31.50000 -36.00000 -3.00000
-32.00000 -36.00000 -3.50000
-32.00000 -36.00000 -1.50000
-31.50000 -36.00000 -1.00000
-31.50000 -35.00000 -4.00000
-32.00000 -35.00000 -4.50000
-32.00000 -35.50000 -4.00000
-31.50000 -35.00000 -1.00000
-32.00000 -35.00000 -1.50000
-31.50000 -34.00000 -4.00000
-32.00000 -34.00000 -4.50000
-31.50000 -34.00000 -1.00000
-32.00000 -34.00000 -1.50000
-31.50000 -33.00000 -4.00000
-32.00000 -33.00000 -4.50000
-31.50000 -33.00000 -2.00000
-32.00000 -33.50000 -2.00000
-32.00000 -33.00000 -2.50000
-31.50000 -32.00000 -5.00000
-32.00000 -32.00000 -5.50000
-32.00000 -32.50000 -5.00000
-32.00000 -32.00000 -2.50000
-31.50000 -31.00000 -5.00000
-32.00000 -31.00000 -5.50000
-32.00000 -31.50000 -3.00000
-32.00000 -31.00000 -3.50000
-31.50000 -30.00000 -5.00000
-32.00000 -30.00000 -5.50000
-32.00000 -30.50000 -4.00000
-32.00000 -30.00000 -4.50000
-32.00000 -29.50000 -5.00000
-31.50000 -11.00000 -21.00000
-32.00000 -11.00000 -21.50000
-32.00000 -11.50000 -21.00000
-32.00000 -11.50000 -20.00000
-31.50000 -11.00000 -20.00000
-32.00000 -11.50000 -19.00000
-32.00000 -11.50000 -18.00000
-32.00000 -11.00000 -17.50000
-32.00000 -10.00000 -25.50000
-32.00000 -10.50000 -25.00000
-32.00000 -10.50000 -24.00000
-31.50000 -10.00000 -24.00000
-32.00000 -10.50000 -23.00000
-31.50000 -10.00000 -23.00000
-32.00000 -10.50000 -22.00000
-31.50000 -10.00000 -22.00000
-31.50000 -10.00000 -18.00000
-32.00000 -10.50000 -18.00000
-32.00000 -10.00000 -18.50000
-32.00000 -9.00000 -26.50000
-32.00000 -9.50000 -26.00000
-31.50000 -9.00000 -19.00000
-32.00000 -9.50000 -19.00000
-32.00000 -9.00000 -19.50000
-32.00000 -8.00000 -26.50000
-32.00000 -8.50000 -20.00000
-32.00000 -8.00000 -20.50000
-32.00000 -7.00000 -26.50000
-31.50000 -7.00000 -23.00000
-32.00000 -7.00000 -22.50000
-32.00000 -7.50000 -22.00000
-32.00000 -7.50000 -21.00000
-31.50000 -6.00000 -26.00000
-32.00000 -6.00000 -26.50000
-32.00000 -6.00000 -25.50000
-32.00000 -6.50000 -25.00000
-32.00000 -6.50000 -24.00000
-32.00000 -6.50000 -23.00000
-32.00000 -5.50000 -26.00000
-32.50000 -37.00000 -6.00000
-33.00000 -37.00000 -6.50000
-33.00000 -37.50000 -6.00000
-33.00000 -37.50000 -5.00000
-32.50000 -37.00000 -5.00000
-33.00000 -37.50000 -4.00000
-32.50000 -37.00000 -4.00000
-33.00000 -37.50000 -3.00000
-32.50000 -37.00000 -2.00000
-33.00000 -37.00000 -2.50000
-32.50000 -36.00000 -7.00000
-33.00000 -36.00000 -7.50000
-33.00000 -36.50000 -7.00000
-32.50000 -36.00000 -6.00000
-32.50000 -36.00000 -5.00000
-32.50000 -36.00000 -4.00000
-32.50000 -36.00000 -2.00000
-33.00000 -36.00000 -2.50000
-33.00000 -35.50000 -7.00000
-32.50000 -35.00000 -6.00000
-33.00000 -35.00000 -6.50000
-32.50000 -35.00000 -5.00000
-32.50000 -35.00000 -2.00000
-33.00000 -35.00000 -2.50000
-33.00000 -34.50000 -6.00000
-32.50000 -34.00000 -5.00000
-33.00000 -34.00000 -5.50000
-32.50000 -34.00000 -2.00000
-33.00000 -34.00000 -2.50000
-32.50000 -33.00000 -5.00000
-33.00000 -33.00000 -5.50000
-32.50000 -33.00000 -3.00000
-33.00000 -33.50000 -3.00000
-33.00000 -33.00000 -3.50000
-33.00000 -32.00000 -5.50000
-32.50000 -32.00000 -3.00000
-33.00000 -32.00000 -3.50000
-32.50000 -31.00000 -6.00000
-33.00000 -31.00000 -6.50000
-33.00000 -31.50000 -6.00000
-32.50000 -31.00000 -4.00000
-33.00000 -31.50000 -4.00000
-33.00000 -31.00000 -4.50000
-32.50000 -30.00000 -6.00000
-33.00000 -30.00000 -6.50000
-33.00000 -30.00000 -4.50000
-32.50000 -29.00000 -6.00000
-33.00000 -29.00000 -6.50000
-33.00000 -29.50000 -5.00000
-33.00000 -29.00000 -5.50000
-33.00000 -28.50000 -6.00000
-32.50000 -13.00000 -19.00000
-33.00000 -13.00000 -19.50000
-33.00000 -13.50000 -19.00000
-33.00000 -13.50000 -18.00000
-32.50000 -13.00000 -18.00000
-33.00000 -13.00000 -17.50000
-32.50000 -12.00000 -21.00000
-33.00000 -12.00000 -21.50000
-33.00000 -12.50000 -21.00000
-33.00000 -12.50000 -20.00000
-32.50000 -12.00000 -20.00000
-32.50000 -12.00000 -19.00000
-32.50000 -12.00000 -18.00000
-33.00000 -12.00000 -17.50000
-32.50000 -11.00000 -24.00000
-33.00000 -11.00000 -24.50000
-33.00000 -11.50000 -24.00000
-33.00000 -11.50000 -23.00000
-32.50000 -11.00000 -23.00000
-33.00000 -11.50000 -22.00000
-32.50000 -11.00000 -22.00000
-32.50000 -11.50000 -18.50000
-32.50000 -11.00000 -18.00000
-33.00000 -11.00000 -18.50000
-33.00000 -11.50000 -18.00000
-33.00000 -10.00000 -25.50000
-33.00000 -10.50000 -25.00000
-32.50000 -10.00000 -19.00000
-33.00000 -10.50000 -19.00000
-33.00000 -10.00000 -19.50000
-32.50000 -9.00000 -26.00000
-33.00000 -9.00000 -25.50000
-32.50000 -9.00000 -20.00000
-33.00000 -9.50000 -20.00000
-33.00000 -9.00000 -20.50000
-32.50000 -8.00000 -26.00000
-33.00000 -8.00000 -25.50000
-32.50000 -8.00000 -21.00000
-33.00000 -8.50000 -21.00000
-33.00000 -8.00000 -21.50000
-32.50000 -7.00000 -26.00000
-33.00000 -7.00000 -25.50000
-32.50000 -7.00000 -23.00000
-33.00000 -7.50000 -23.00000
-33.00000 -7.00000 -23.50000
-33.00000 -7.50000 -22.00000
-32.50000 -6.00000 -26.00000
-33.00000 -6.50000 -25.00000
-33.00000 -6.50000 -24.00000
-33.50000 -37.00000 -7.00000
-34.00000 -37.00000 -7.50000
-34.00000 -37.50000 -7.00000
-34.00000 -37.50000 -6.00000
-34.00000 -37.50000 -5.00000
-34.00000 -37.50000 -4.00000
-33.50000 -37.00000 -3.00000
-34.00000 -37.00000 -3.50000
-33.50000 -36.00000 -8.00000
-34.00000 -36.00000 -8.50000
-34.00000 -36.50000 -8.00000
-33.50000 -36.00000 -3.00000
-34.00000 -36.00000 -3.50000
-33.50000 -35.00000 -8.00000
-34.00000 -35.00000 -8.50000
-33.50000 -35.00000 -7.00000
-33.50000 -35.00000 -3.00000
-34.00000 -35.00000 -3.50000
-33.50000 -34.00000 -9.00000
-34.00000 -34.00000 -9.50000
-34.00000 -34.50000 -9.00000
-33.50000 -34.00000 -8.00000
-33.50000 -34.00000 -7.00000
-33.50000 -34.00000 -6.00000
-33.50000 -34.00000 -4.00000
-34.00000 -34.50000 -4.00000
-34.00000 -34.00000 -4.50000
-33.50000 -34.00000 -3.00000
-34.00000 -33.50000 -9.00000
-33.50000 -33.00000 -8.00000
-34.00000 -33.00000 -8.50000
-33.50000 -33.00000 -7.00000
-33.50000 -33.00000 -6.00000
-33.50000 -33.00000 -4.00000
-34.00000 -33.00000 -4.50000
-34.00000 -32.50000 -8.00000
-33.50000 -32.00000 -7.00000
-34.00000 -32.00000 -7.50000
-33.50000 -32.00000 -6.00000
-33.50000 -32.00000 -4.00000
-34.00000 -32.00000 -4.50000
-33.50000 -31.00000 -7.00000
-34.00000 -31.00000 -7.50000
-34.00000 -31.00000 -4.50000
-33.50000 -30.00000 -7.00000
-34.00000 -30.00000 -7.50000
-33.50000 -30.00000 -5.00000
-34.00000 -30.50000 -5.00000
-34.00000 -30.00000 -5.50000
-33.50000 -29.00000 -7.00000
-34.00000 -29.00000 -7.50000
-33.50000 -29.50000 -6.50000
-33.50000 -29.00000 -6.00000
-34.00000 -29.50000 -6.00000
-34.00000 -29.00000 -6.50000
-34.00000 -28.50000 -7.00000
-33.50000 -15.00000 -18.00000
-34.00000 -15.00000 -18.50000
-34.00000 -15.50000 -18.00000
-34.00000 -15.50000 -17.00000
-33.50000 -15.00000 -17.00000
-34.00000 -15.00000 -16.50000
-33.50000 -14.00000 -20.00000
-34.00000 -14.00000 -20.50000
-34.00000 -14.50000 -20.00000
-34.00000 -14.50000 -19.00000
-33.50000 -14.00000 -19.00000
-33.50000 -14.00000 -18.00000
-33.50000 -14.00000 -17.00000
-34.00000 -14.00000 -16.50000
-33.50000 -13.00000 -21.00000
-34.00000 -13.00000 -21.50000
-34.00000 -13.50000 -21.00000
-33.50000 -13.00000 -20.00000
-34.00000 -13.50000 -17.00000
-34.00000 -13.00000 -17.50000
-33.50000 -12.00000 -23.00000
-34.00000 -12.00000 -23.50000
-34.00000 -12.50000 -23.00000
-34.00000 -12.50000 -22.00000
-33.50000 -12.00000 -22.00000
-33.50000 -12.00000 -18.00000
-34.00000 -12.50000 -18.00000
-34.00000 -12.00000 -18.50000
-33.50000 -11.00000 -24.00000
-34.00000 -11.00000 -23.50000
-34.00000 -11.00000 -18.50000
-33.50000 -10.00000 -25.00000
-34.00000 -10.00000 -24.50000
-34.00000 -10.50000 -24.00000
-34.00000 -10.50000 -19.00000
-34.00000 -10.00000 -19.50000
-33.50000 -9.00000 -25.00000
-34.00000 -9.00000 -24.50000
-33.50000 -9.00000 -21.00000
-34.00000 -9.50000 -21.00000
-34.00000 -9.00000 -21.50000
-34.00000 -9.50000 -20.00000
-33.50000 -8.00000 -25.00000
-34.00000 -8.00000 -24.50000
-33.50000 -8.00000 -22.00000
-34.00000 -8.50000 -22.00000
-34.00000 -8.00000 -22.50000
-33.50000 -7.00000 -25.00000
-34.00000 -7.50000 -24.00000
-33.50000 -7.00000 -24.00000
-34.00000 -7.50000 -23.00000
-34.50000 -37.00000 -8.00000
-35.00000 -37.00000 -8.50000
-35.00000 -37.50000 -8.00000
-35.00000 -37.50000 -7.00000
-35.00000 -37.50000 -6.00000
-35.00000 -37.50000 -5.00000
-34.50000 -37.00000 -4.00000
-35.00000 -37.00000 -4.50000
-35.00000 -36.00000 -8.50000
-34.50000 -36.00000 -4.00000
-35.00000 -36.00000 -4.50000
-34.50000 -35.00000 -9.00000
-35.00000 -35.00000 -9.50000
-35.00000 -35.50000 -9.00000
-34.50000 -35.00000 -5.00000
-35.00000 -35.50000 -5.00000
-35.00000 -35.00000 -5.50000
-34.50000 -35.00000 -4.00000
-34.50000 -34.00000 -10.00000
-35.00000 -34.00000 -10.50000
-35.00000 -34.50000 -10.00000
-34.50000 -34.00000 -5.00000
-35.00000 -34.00000 -5.50000
-34.50000 -33.00000 -10.00000
-35.00000 -33.00000 -10.50000
-34.50000 -33.00000 -9.00000
-34.50000 -33.00000 -5.00000
-35.00000 -33.00000 -5.50000
-34.50000 -32.00000 -10.00000
-35.00000 -32.00000 -10.50000
-34.50000 -32.00000 -9.00000
-34.50000 -32.00000 -8.00000
-34.50000 -32.00000 -5.00000
-35.00000 -32.00000 -5.50000
-35.00000 -31.50000 -10.00000
-34.50000 -31.00000 -9.00000
-35.00000 -31.00000 -9.50000
-34.50000 -31.00000 -8.00000
-34.50000 -31.00000 -6.00000
-35.00000 -31.50000 -6.00000
-35.00000 -31.00000 -6.50000
-34.50000 -31.00000 -5.00000
-35.00000 -30.50000 -9.00000
-34.50000 -30.00000 -8.00000
-35.00000 -30.00000 -8.50000
-34.50000 -30.00000 -6.00000
-35.00000 -30.00000 -6.50000
-35.00000 -29.50000 -8.00000
-35.00000 -29.50000 -7.00000
-34.50000 -29.00000 -7.00000
-34.50000 -17.00000 -17.00000
-35.00000 -17.00000 -17.50000
-35.00000 -17.50000 -17.00000
-35.00000 -17.50000 -16.00000
-34.50000 -17.00000 -16.00000
-35.00000 -17.00000 -15.50000
-34.50000 -16.00000 -18.00000
-35.00000 -16.00000 -18.50000
-35.00000 -16.50000 -18.00000
-34.50000 -16.00000 -17.00000
-34.50000 -16.00000 -16.00000
-35.00000 -16.00000 -15.50000
-34.50000 -15.00000 -19.00000
-35.00000 -15.00000 -19.50000
-35.00000 -15.50000 -19.00000
-35.00000 -15.50000 -16.00000
-35.00000 -15.00000 -16.50000
-34.50000 -14.00000 -21.00000
-35.00000 -14.00000 -21.50000
-35.00000 -14.50000 -21.00000
-35.00000 -14.50000 -20.00000
-35.00000 -14.00000 -16.50000
-35.00000 -13.00000 -21.50000
-35.00000 -13.50000 -17.00000
-35.00000 -13.00000 -17.50000
-34.50000 -12.00000 -23.00000
-35.00000 -12.00000 -22.50000
-35.00000 -12.50000 -22.00000
-35.00000 -12.50000 -18.00000
-35.00000 -12.00000 -18.50000
-34.50000 -11.00000 -23.00000
-35.00000 -11.00000 -22.50000
-34.50000 -11.00000 -19.00000
-35.00000 -11.50000 -19.00000
-35.00000 -11.00000 -19.50000
-34.50000 -10.00000 -24.00000
-35.00000 -10.00000 -23.50000
-35.00000 -10.50000 -23.00000
-34.50000 -10.00000 -20.00000
-35.00000 -10.50000 -20.00000
-35.00000 -10.00000 -20.50000
-34.50000 -9.00000 -24.00000
-35.00000 -9.00000 -23.50000
-34.50000 -9.00000 -22.00000
-35.00000 -9.50000 -22.00000
-35.00000 -9.00000 -22.50000
-35.00000 -9.50000 -21.00000
-34.50000 -8.00000 -24.00000
-35.00000 -8.50000 -23.00000
-34.50000 -8.00000 -23.00000
-36.00000 -37.00000 -8.50000
-36.00000 -37.50000 -8.00000
-36.00000 -37.50000 -7.00000
-36.00000 -37.50000 -6.00000
-35.50000 -37.00000 -5.00000
-36.00000 -37.00000 -5.50000
-36.00000 -36.00000 -8.50000
-35.50000 -36.00000 -5.00000
-36.00000 -36.00000 -5.50000
-36.00000 -35.00000 -9.50000
-36.00000 -35.50000 -9.00000
-35.50000 -35.00000 -6.00000
-36.00000 -35.50000 -6.00000
-36.00000 -35.00000 -6.50000
-36.00000 -34.00000 -10.50000
-36.00000 -34.50000 -10.00000
-35.50000 -34.00000 -6.00000
-36.00000 -34.00000 -6.50000
-35.50000 -33.00000 -11.00000
-36.00000 -33.00000 -11.50000
-36.00000 -33.50000 -11.00000
-35.50000 -33.00000 -6.00000
-36.00000 -33.00000 -6.50000
-35.50000 -32.00000 -11.00000
-36.00000 -32.00000 -11.50000
-35.50000 -32.00000 -7.00000
-36.00000 -32.50000 -7.00000
-36.00000 -32.00000 -7.50000
-35.50000 -32.00000 -6.00000
-35.50000 -31.00000 -11.00000
-36.00000 -31.00000 -11.50000
-35.50000 -31.00000 -10.00000
-35.50000 -31.00000 -7.00000
-36.00000 -31.00000 -7.50000
-35.50000 -30.00000 -12.00000
-36.00000 -30.00000 -12.50000
-36.00000 -30.50000 -12.00000
-35.50000 -30.00000 -11.00000
-35.50000 -30.00000 -10.00000
-35.50000 -30.00000 -9.00000
-35.50000 -30.00000 -7.00000
-36.00000 -30.00000 -7.50000
-35.50000 -29.00000 -12.00000
-36.00000 -29.00000 -12.50000
-35.50000 -29.00000 -11.00000
-35.50000 -29.00000 -10.00000
-35.50000 -29.00000 -9.00000
-36.00000 -29.50000 -8.00000
-36.00000 -29.00000 -8.50000
-36.00000 -28.50000 -12.00000
-36.00000 -28.50000 -11.00000
-36.00000 -28.50000 -10.00000
-36.00000 -28.50000 -9.00000
-35.50000 -20.00000 -16.00000
-36.00000 -20.00000 -16.50000
-36.00000 -20.50000 -16.00000
-36.00000 -20.50000 -15.00000
-35.50000 -20.00000 -15.00000
-36.00000 -20.00000 -14.50000
-35.50000 -19.00000 -17.00000
-36.00000 -19.00000 -17.50000
-36.00000 -19.50000 -17.00000
-35.50000 -19.00000 -16.00000
-35.50000 -19.00000 -15.00000
-36.00000 -19.00000 -14.50000
-35.50000 -18.00000 -17.00000
-36.00000 -18.00000 -17.50000
-35.50000 -18.00000 -16.00000
-36.00000 -18.00000 -15.50000
-36.00000 -18.50000 -15.00000
-35.50000 -17.00000 -18.00000
-36.00000 -17.00000 -18.50000
-36.00000 -17.50000 -18.00000
-36.00000 -17.00000 -15.50000
-35.50000 -16.00000 -19.00000
-36.00000 -16.00000 -19.50000
-36.00000 -16.50000 -19.00000
-35.50000 -16.00000 -16.00000
-36.00000 -16.50000 -16.00000
-36.00000 -16.00000 -16.50000
-36.00000 -15.00000 -19.50000
-36.00000 -15.00000 -16.50000
-35.50000 -14.00000 -21.00000
-36.00000 -14.00000 -20.50000
-36.00000 -14.50000 -20.00000
-35.50000 -14.00000 -17.00000
-36.00000 -14.50000 -17.00000
-36.00000 -14.00000 -17.50000
-35.50000 -13.00000 -21.00000
-36.00000 -13.00000 -20.50000
-35.50000 -13.00000 -18.00000
-36.00000 -13.50000 -18.00000
-36.00000 -13.00000 -18.50000
-35.50000 -12.00000 -22.00000
-36.00000 -12.00000 -21.50000
-36.00000 -12.50000 -21.00000
-35.50000 -12.00000 -19.00000
-36.00000 -12.50000 -19.00000
-36.00000 -12.00000 -19.50000
-35.50000 -11.00000 -22.00000
-36.00000 -11.50000 -21.00000
-35.50000 -11.00000 -21.00000
-35.50000 -11.00000 -20.00000
-36.00000 -11.50000 -20.00000
-35.50000 -10.00000 -23.00000
-35.50000 -10.00000 -22.00000
-35.50000 -10.00000 -21.00000
-35.50000 -9.00000 -23.00000
-36.50000 -37.00000 -8.00000
-36.50000 -37.00000 -7.00000
-36.50000 -37.00000 -6.00000
-37.00000 -36.00000 -8.50000
-37.00000 -36.50000 -8.00000
-37.00000 -36.00000 -7.50000
-36.50000 -36.00000 -7.00000
-36.50000 -36.00000 -6.00000
-37.00000 -35.00000 -9.50000
-37.00000 -35.50000 -9.00000
-36.50000 -35.00000 -7.00000
-37.00000 -35.00000 -7.50000
-37.00000 -34.00000 -10.50000
-37.00000 -34.50000 -10.00000
-36.50000 -34.00000 -7.00000
-37.00000 -34.00000 -7.50000
-36.50000 -33.00000 -11.00000
-37.00000 -33.00000 -10.50000
-36.50000 -33.00000 -7.00000
-37.00000 -33.00000 -7.50000
-37.00000 -32.00000 -11.50000
-37.00000 -32.50000 -11.00000
-36.50000 -32.00000 -8.00000
-37.00000 -32.50000 -8.00000
-37.00000 -32.00000 -8.50000
-36.50000 -31.00000 -12.00000
-37.00000 -31.00000 -12.50000
-37.00000 -31.50000 -12.00000
-36.50000 -31.00000 -8.00000
-37.00000 -31.00000 -8.50000
-37.00000 -30.00000 -12.50000
-36.50000 -30.00000 -9.00000
-37.00000 -30.50000 -9.00000
-37.00000 -30.00000 -9.50000
-36.50000 -30.00000 -8.00000
-36.50000 -29.00000 -13.00000
-37.00000 -29.00000 -13.50000
-37.00000 -29.50000 -13.00000
-36.50000 -29.00000 -9.00000
-37.00000 -29.00000 -9.50000
-36.50000 -28.00000 -13.00000
-37.00000 -28.00000 -13.50000
-36.50000 -28.00000 -12.00000
-36.50000 -28.00000 -11.00000
-37.00000 -28.00000 -10.50000
-37.00000 -28.50000 -10.00000
-36.50000 -27.00000 -13.00000
-37.00000 -27.00000 -13.50000
-36.50000 -27.00000 -12.00000
-37.00000 -27.00000 -11.50000
-37.00000 -27.50000 -11.00000
-36.50000 -26.00000 -13.00000
-37.00000 -26.00000 -13.50000
-37.00000 -26.00000 -12.50000
-37.00000 -26.50000 -12.00000
-37.00000 -25.50000 -13.00000
-36.50000 -23.00000 -15.00000
-37.00000 -23.00000 -15.50000
-37.00000 -23.50000 -15.00000
-37.00000 -23.50000 -14.00000
-36.50000 -23.00000 -14.00000
-37.00000 -23.00000 -13.50000
-36.50000 -22.00000 -15.00000
-37.00000 -22.00000 -15.50000
-37.00000 -22.00000 -14.50000
-37.00000 -22.50000 -14.00000
-36.50000 -21.00000 -16.00000
-37.00000 -21.00000 -16.50000
-37.00000 -21.50000 -16.00000
-36.50000 -21.00000 -15.00000
-37.00000 -21.00000 -14.50000
-36.50000 -20.00000 -17.00000
-37.00000 -20.00000 -17.50000
-37.00000 -20.50000 -17.00000
-37.00000 -20.00000 -14.50000
-37.00000 -19.00000 -17.50000
-37.00000 -19.00000 -14.50000
-36.50000 -18.00000 -18.00000
-37.00000 -18.00000 -18.50000
-37.00000 -18.50000 -18.00000
-37.00000 -18.50000 -15.00000
-37.00000 -18.00000 -15.50000
-37.00000 -17.00000 -18.50000
-36.50000 -17.00000 -16.00000
-37.00000 -17.50000 -16.00000
-37.00000 -17.00000 -16.50000
-36.50000 -16.00000 -19.00000
-37.00000 -16.00000 -18.50000
-37.00000 -16.00000 -16.50000
-36.50000 -15.00000 -19.00000
-37.00000 -15.00000 -18.50000
-36.50000 -15.00000 -17.00000
-37.00000 -15.50000 -17.00000
-37.00000 -15.00000 -17.50000
-36.50000 -14.00000 -20.00000
-36.50000 -14.00000 -19.00000
-37.00000 -14.50000 -18.00000
-36.50000 -14.00000 -18.00000
-36.50000 -13.00000 -20.00000
-36.50000 -13.00000 -19.00000
-36.50000 -12.00000 -21.00000
-36.50000 -12.00000 -20.00000
-37.50000 -36.00000 -8.00000
-37.50000 -35.00000 -9.00000
-37.50000 -35.00000 -8.00000
-37.50000 -34.00000 -10.00000
-37.50000 -34.00000 -9.00000
-37.50000 -34.00000 -8.00000
-37.50000 -33.00000 -10.00000
-37.50000 -33.00000 -9.00000
-37.50000 -33.00000 -8.00000
-37.50000 -32.00000 -11.00000
-38.00000 -32.00000 -10.50000
-38.00000 -32.50000 -10.00000
-38.00000 -32.00000 -9.50000
-37.50000 -32.00000 -9.00000
-37.50000 -31.00000 -12.00000
-38.00000 -31.00000 -11.50000
-38.00000 -31.50000 -11.00000
-37.50000 -31.00000 -9.00000
-38.00000 -31.00000 -9.50000
-38.00000 -30.00000 -12.50000
-38.00000 -30.50000 -12.00000
-37.50000 -30.00000 -10.00000
-38.00000 -30.50000 -10.00000
-38.00000 -30.00000 -10.50000
-37.50000 -29.00000 -13.00000
-38.00000 -29.00000 -12.50000
-37.50000 -29.00000 -10.00000
-38.00000 -29.00000 -10.50000
-38.00000 -28.00000 -13.50000
-38.00000 -28.50000 -13.00000
-38.00000 -28.00000 -10.50000
-38.00000 -27.00000 -13.50000
-38.00000 -27.50000 -11.00000
-38.00000 -27.00000 -11.50000
-38.00000 -26.00000 -13.50000
-38.00000 -26.50000 -12.00000
-38.00000 -26.00000 -12.50000
-38.00000 -25.50000 -13.00000
-38.00000 -23.00000 -15.50000
-38.00000 -23.50000 -15.00000
-38.00000 -23.50000 -14.00000
-38.00000 -23.00000 -13.50000
-38.00000 -22.00000 -15.50000
-37.50000 -22.00000 -14.00000
-38.00000 -22.00000 -13.50000
-37.50000 -21.00000 -16.00000
-38.00000 -21.00000 -15.50000
-38.00000 -21.50000 -14.00000
-38.00000 -21.00000 -14.50000
-37.50000 -20.00000 -17.00000
-37.50000 -20.00000 -16.00000
-38.00000 -20.50000 -15.00000
-37.50000 -20.00000 -15.00000
-37.50000 -19.00000 -17.00000
-37.50000 -19.00000 -16.00000
-37.50000 -19.00000 -15.00000
-37.50000 -18.00000 -18.00000
-37.50000 -18.00000 -17.00000
-37.50000 -18.00000 -16.00000
-37.50000 -17.00000 -18.00000
-37.50000 -17.00000 -17.00000
-37.50000 -16.00000 -18.00000
-37.50000 -16.00000 -17.00000
-37.50000 -15.00000 -18.00000
-38.50000 -32.00000 -10.00000
-38.50000 -31.00000 -11.00000
-38.50000 -31.00000 -10.00000
-38.50000 -30.00000 -12.00000
-38.50000 -30.00000 -11.00000
-38.50000 -29.00000 -12.00000
-38.50000 -29.00000 -11.00000
-38.50000 -28.00000 -13.00000
-38.50000 -28.00000 -12.00000
-38.50000 -28.00000 -11.00000
-38.50000 -27.00000 -13.00000
-38.50000 -27.00000 -12.00000
-38.50000 -26.00000 -13.00000
-38.50000 -23.00000 -15.00000
-38.50000 -23.00000 -14.00000
-38.50000 -22.00000 -15.00000
-38.50000 -22.00000 -14.00000
-38.50000 -21.00000 -15.00000
3 2 1 0
3 0 3 2
3 0 1 4
3 4 1 5
3 3 0 6
3 6 0 4
3 5 7 4
3 4 7 6
3 10 9 8
3 8 11 10
3 13 12 2
3 2 12 1
3 14 8 3
3 8 13 3
3 13 2 3
3 8 9 13
3 11 8 15
3 8 16 15
3 8 14 16
3 16 17 15
3 12 5 1
3 18 5 12
3 6 19 14
3 6 14 3
3 21 16 20
3 16 19 20
3 16 14 19
3 16 21 17
3 18 22 5
3 5 22 7
3 6 7 19
3 7 23 19
3 7 22 23
3 19 23 20
3 26 25 24
3 24 27 26
3 24 25 28
3 28 25 29
3 27 24 30
3 30 24 28
3 32 31 10
3 10 31 9
3 34 33 11
3 33 10 11
3 33 32 10
3 36 35 34
3 34 35 33
3 38 37 36
3 36 37 35
3 37 38 29
3 38 28 29
3 38 39 28
3 30 28 40
3 40 28 39
3 42 41 13
3 13 41 12
3 13 9 31
3 13 31 42
3 15 34 11
3 34 15 17
3 43 34 17
3 36 34 43
3 45 38 44
3 38 43 44
3 38 36 43
3 38 45 39
3 39 45 46
3 39 46 40
3 41 18 12
3 47 18 41
3 49 48 21
3 49 21 20
3 17 21 43
3 21 50 43
3 21 48 50
3 43 50 44
3 47 51 18
3 18 51 22
3 22 52 23
3 51 52 22
3 20 23 49
3 49 23 52
3 55 54 53
3 53 56 55
3 53 54 57
3 57 54 58
3 56 53 59
3 59 53 57
3 62 61 60
3 62 60 58
3 58 60 57
3 60 25 57
3 25 26 57
3 26 27 57
3 27 59 57
3 27 63 59
3 66 65 64
3 68 67 64
3 64 67 66
3 67 68 61
3 68 60 61
3 68 69 60
3 69 29 25
3 69 25 60
3 30 63 27
3 30 70 63
3 72 71 32
3 32 71 31
3 33 64 65
3 72 33 65
3 32 33 72
3 64 33 35
3 64 35 68
3 68 35 37
3 68 37 69
3 69 37 29
3 40 70 30
3 40 73 70
3 75 74 42
3 42 74 41
3 42 31 71
3 42 71 75
3 77 76 45
3 77 45 44
3 45 78 46
3 76 78 45
3 40 46 73
3 73 46 78
3 74 47 41
3 79 47 74
3 81 80 48
3 81 48 49
3 48 82 50
3 80 82 48
3 44 50 77
3 77 50 82
3 79 83 47
3 47 83 51
3 51 84 52
3 83 84 51
3 49 52 81
3 81 52 84
3 87 86 85
3 85 88 87
3 85 86 55
3 86 54 55
3 86 89 54
3 55 56 85
3 56 88 85
3 56 90 88
3 93 92 91
3 89 93 91
3 58 89 91
3 54 89 58
3 59 95 94
3 90 59 94
3 56 59 90
3 95 96 94
3 91 92 62
3 92 61 62
3 92 97 61
3 91 62 58
3 63 98 95
3 63 95 59
3 96 95 99
3 99 95 98
3 102 101 100
3 65 66 100
3 66 102 100
3 66 103 102
3 104 66 67
3 104 103 66
3 67 61 97
3 67 97 104
3 70 105 98
3 70 98 63
3 99 98 106
3 106 98 105
3 100 101 72
3 101 71 72
3 101 107 71
3 100 72 65
3 109 108 105
3 70 109 105
3 73 109 70
3 105 108 106
3 111 110 75
3 75 110 74
3 75 71 107
3 75 107 111
3 113 112 76
3 113 76 77
3 76 114 78
3 112 114 76
3 73 78 109
3 109 78 114
3 110 79 74
3 115 79 110
3 117 116 80
3 117 80 81
3 80 118 82
3 116 118 80
3 77 82 113
3 113 82 118
3 115 119 79
3 79 119 83
3 83 120 84
3 119 120 83
3 81 84 117
3 117 84 120
3 123 122 121
3 121 124 123
3 121 122 125
3 125 122 126
3 124 121 127
3 127 121 125
3 126 128 125
3 125 128 127
3 130 129 87
3 87 129 86
3 87 88 130
3 130 88 131
3 134 133 132
3 129 134 132
3 89 129 132
3 86 129 89
3 90 136 135
3 131 90 135
3 88 90 131
3 136 137 135
3 132 133 93
3 133 92 93
3 133 138 92
3 132 93 89
3 94 136 90
3 94 96 136
3 96 137 136
3 96 139 137
3 142 141 140
3 138 142 140
3 97 138 140
3 92 138 97
3 99 139 96
3 99 143 139
3 144 101 102
3 144 102 145
3 102 146 145
3 102 103 146
3 104 140 141
3 146 104 141
3 103 104 146
3 140 104 97
3 106 143 99
3 106 147 143
3 149 148 144
3 148 101 144
3 148 107 101
3 149 144 145
3 152 151 150
3 108 109 150
3 151 108 150
3 153 108 151
3 106 108 147
3 147 108 153
3 155 154 111
3 111 154 110
3 111 107 148
3 111 148 155
3 157 156 112
3 157 112 113
3 150 114 152
3 114 156 152
3 114 112 156
3 114 150 109
3 160 159 158
3 154 160 158
3 115 154 158
3 110 154 115
3 162 161 116
3 162 116 117
3 116 163 118
3 161 163 116
3 113 118 157
3 157 118 163
3 159 164 158
3 158 164 115
3 164 119 115
3 164 165 119
3 119 166 120
3 165 166 119
3 117 120 162
3 162 120 166
3 169 168 167
3 122 123 167
3 123 169 167
3 123 170 169
3 172 171 124
3 171 123 124
3 171 170 123
3 172 173 171
3 167 168 174
3 174 168 175
3 174 126 122
3 174 122 167
3 177 176 172
3 124 177 172
3 127 177 124
3 172 176 173
3 175 178 174
3 174 178 126
3 178 128 126
3 178 179 128
3 127 128 177
3 177 128 179
3 181 180 130
3 130 180 129
3 130 131 181
3 181 131 182
3 184 183 134
3 134 183 133
3 134 129 180
3 134 180 184
3 185 182 131
3 185 131 135
3 135 137 185
3 185 137 186
3 183 138 133
3 187 138 183
3 139 186 137
3 139 188 186
3 190 189 142
3 142 189 141
3 142 138 187
3 142 187 190
3 143 188 139
3 143 191 188
3 193 192 146
3 146 192 145
3 146 141 189
3 146 189 193
3 196 195 194
3 195 191 194
3 191 147 194
3 191 143 147
3 198 197 149
3 149 197 148
3 149 145 192
3 149 192 198
3 200 199 151
3 200 151 152
3 194 153 196
3 153 199 196
3 153 151 199
3 153 194 147
3 202 201 155
3 155 201 154
3 155 148 197
3 155 197 202
3 204 203 156
3 204 156 157
3 152 156 200
3 200 156 203
3 206 205 160
3 160 205 159
3 160 154 201
3 160 201 206
3 208 207 161
3 208 161 162
3 161 209 163
3 207 209 161
3 157 163 204
3 204 163 209
3 164 159 210
3 159 211 210
3 159 205 211
3 164 210 212
3 213 164 212
3 165 164 213
3 165 214 166
3 213 214 165
3 162 166 208
3 208 166 214
3 211 215 210
3 210 215 212
3 218 217 216
3 216 219 218
3 221 220 169
3 169 220 168
3 170 216 217
3 221 170 217
3 169 170 221
3 222 219 216
3 170 222 216
3 171 222 170
3 171 173 222
3 222 173 223
3 220 175 168
3 224 175 220
3 226 225 176
3 226 176 177
3 173 176 223
3 223 176 225
3 224 227 175
3 175 227 178
3 178 228 179
3 227 228 178
3 177 179 226
3 226 179 228
3 229 180 181
3 182 229 181
3 231 230 184
3 184 230 183
3 184 180 229
3 232 184 229
3 231 184 232
3 234 232 233
3 233 232 185
3 232 229 185
3 229 182 185
3 186 233 185
3 230 187 183
3 235 187 230
3 234 233 236
3 234 236 237
3 188 236 186
3 186 236 233
3 239 238 190
3 190 238 189
3 190 187 235
3 190 235 239
3 237 236 240
3 237 240 241
3 191 240 188
3 188 240 236
3 243 242 193
3 193 242 192
3 193 189 238
3 193 238 243
3 241 240 195
3 196 241 195
3 244 241 196
3 195 240 191
3 246 245 198
3 198 245 197
3 198 192 242
3 198 242 246
3 248 247 199
3 248 199 200
3 196 199 244
3 244 199 247
3 250 249 202
3 202 249 201
3 202 197 245
3 202 245 250
3 252 251 203
3 252 203 204
3 200 203 248
3 248 203 251
3 254 253 206
3 206 253 205
3 206 201 249
3 206 249 254
3 208 255 207
3 207 255 256
3 257 207 256
3 209 207 257
3 204 209 252
3 252 209 257
3 253 211 205
3 258 211 253
3 260 259 213
3 260 213 212
3 213 261 214
3 259 261 213
3 208 214 255
3 214 262 255
3 214 261 262
3 255 262 256
3 258 263 211
3 211 263 215
3 212 215 260
3 260 215 263
3 265 264 218
3 218 264 217
3 267 266 219
3 266 218 219
3 266 265 218
3 267 268 266
3 270 269 221
3 221 269 220
3 221 217 264
3 221 264 270
3 222 267 219
3 222 223 267
3 223 268 267
3 223 271 268
3 269 224 220
3 272 224 269
3 274 273 225
3 274 225 226
3 223 225 271
3 271 225 273
3 272 275 224
3 224 275 227
3 227 276 228
3 275 276 227
3 226 228 274
3 274 228 276
3 278 277 231
3 231 277 230
3 279 231 232
3 279 278 231
3 232 234 279
3 279 234 280
3 277 235 230
3 281 235 277
3 237 280 234
3 237 282 280
3 284 283 239
3 239 283 238
3 239 235 281
3 239 281 284
3 241 282 237
3 241 285 282
3 286 242 243
3 287 286 243
3 238 287 243
3 283 287 238
3 290 289 288
3 289 285 288
3 285 244 288
3 285 241 244
3 291 245 246
3 292 291 246
3 292 246 242
3 293 292 242
3 286 293 242
3 293 286 287
3 296 295 294
3 294 295 290
3 294 290 288
3 248 294 288
3 247 248 288
3 247 288 244
3 298 297 250
3 250 297 249
3 250 245 291
3 299 250 291
3 298 250 299
3 299 291 292
3 296 294 251
3 252 296 251
3 300 296 252
3 251 294 248
3 302 301 254
3 254 301 253
3 254 249 297
3 254 297 302
3 305 304 303
3 257 256 303
3 304 257 303
3 306 257 304
3 252 257 300
3 300 257 306
3 301 258 253
3 307 258 301
3 260 308 259
3 259 308 309
3 310 259 309
3 261 259 310
3 303 262 305
3 262 310 305
3 262 261 310
3 262 303 256
3 307 311 258
3 258 311 263
3 260 263 308
3 263 312 308
3 263 311 312
3 308 312 309
3 314 313 265
3 265 313 264
3 315 265 266
3 315 314 265
3 266 268 315
3 315 268 316
3 317 269 270
3 318 317 270
3 264 318 270
3 313 318 264
3 271 316 268
3 271 319 316
3 320 272 317
3 317 272 269
3 317 318 321
3 322 317 321
3 320 317 322
3 273 274 322
3 321 273 322
3 323 273 321
3 271 273 319
3 319 273 323
3 320 275 272
3 275 320 276
3 276 320 322
3 276 322 274
3 326 325 324
3 324 327 326
3 324 325 328
3 328 325 329
3 327 324 330
3 330 324 328
3 329 331 328
3 328 331 330
3 334 333 332
3 332 335 334
3 337 336 278
3 278 336 277
3 279 332 333
3 337 279 333
3 278 279 337
3 279 280 332
3 280 335 332
3 280 338 335
3 336 281 277
3 339 281 336
3 282 338 280
3 282 340 338
3 342 341 284
3 284 341 283
3 284 281 339
3 284 339 342
3 285 340 282
3 285 343 340
3 341 287 283
3 344 287 341
3 346 345 289
3 346 289 290
3 285 289 343
3 343 289 345
3 348 347 293
3 293 347 292
3 293 287 344
3 293 344 348
3 350 349 295
3 350 295 296
3 290 295 346
3 346 295 349
3 351 297 298
3 351 298 352
3 298 353 352
3 298 299 353
3 299 292 347
3 299 347 353
3 356 355 354
3 355 350 354
3 350 300 354
3 350 296 300
3 358 357 302
3 302 357 301
3 302 297 351
3 359 302 351
3 358 302 359
3 359 351 352
3 361 360 304
3 361 304 305
3 354 306 356
3 306 360 356
3 306 304 360
3 306 354 300
3 357 307 301
3 362 307 357
3 364 363 310
3 364 310 309
3 305 310 361
3 361 310 363
3 362 365 307
3 307 365 311
3 311 366 312
3 365 366 311
3 309 312 364
3 364 312 366
3 367 313 314
3 367 314 368
3 314 369 368
3 314 315 369
3 371 370 316
3 370 315 316
3 370 369 315
3 371 372 370
3 373 318 367
3 367 318 313
3 367 368 374
3 367 374 373
3 319 375 371
3 319 371 316
3 372 371 376
3 376 371 375
3 373 321 318
3 374 377 373
3 377 321 373
3 377 323 321
3 319 323 375
3 323 378 375
3 323 377 378
3 375 378 376
3 381 380 379
3 383 382 379
3 379 382 381
3 325 326 383
3 326 382 383
3 326 384 382
3 326 327 384
3 384 327 385
3 379 380 386
3 386 380 387
3 379 388 383
3 379 386 388
3 388 329 325
3 388 325 383
3 330 385 327
3 330 389 385
3 387 390 386
3 386 390 388
3 388 390 391
3 388 391 329
3 391 331 329
3 391 392 331
3 330 331 389
3 389 331 392
3 394 393 334
3 334 393 333
3 334 335 394
3 394 335 395
3 397 396 337
3 337 396 336
3 337 333 393
3 337 393 397
3 338 395 335
3 338 398 395
3 396 339 336
3 399 339 396
3 340 398 338
3 340 400 398
3 401 341 342
3 402 401 342
3 339 402 342
3 399 402 339
3 405 404 403
3 404 400 403
3 400 343 403
3 400 340 343
3 407 406 401
3 406 341 401
3 406 344 341
3 407 401 402
3 405 403 345
3 346 405 345
3 408 405 346
3 345 403 343
3 409 347 348
3 410 409 348
3 344 410 348
3 406 410 344
3 412 411 349
3 412 349 350
3 346 349 408
3 408 349 411
3 414 413 353
3 353 413 352
3 353 347 409
3 415 353 409
3 414 353 415
3 417 416 356
3 416 415 356
3 409 356 415
3 356 409 355
3 410 355 409
3 355 410 416
3 416 418 355
3 417 418 416
3 416 410 415
3 350 355 412
3 412 355 418
3 420 419 358
3 358 419 357
3 421 358 359
3 421 420 358
3 359 352 413
3 359 413 421
3 423 422 360
3 423 360 361
3 356 360 417
3 417 360 422
3 426 425 424
3 419 426 424
3 362 419 424
3 357 419 362
3 428 427 363
3 428 363 364
3 361 363 423
3 423 363 427
3 424 425 429
3 429 425 430
3 431 365 362
3 424 431 362
3 429 431 424
3 365 431 432
3 433 365 432
3 366 365 433
3 364 366 428
3 428 366 433
3 430 434 429
3 429 434 431
3 431 434 435
3 431 435 432
3 437 436 369
3 369 436 368
3 438 369 370
3 438 437 369
3 440 439 372
3 439 370 372
3 439 438 370
3 440 441 439
3 436 374 368
3 442 374 436
3 444 443 440
3 372 444 440
3 376 444 372
3 440 443 441
3 442 445 374
3 374 445 377
3 377 446 378
3 445 446 377
3 376 378 444
3 444 378 446
3 449 448 447
3 380 381 447
3 381 449 447
3 381 450 449
3 451 381 382
3 451 450 381
3 453 451 452
3 451 384 452
3 451 382 384
3 385 452 384
3 447 448 454
3 454 448 455
3 454 387 380
3 454 380 447
3 453 452 456
3 453 456 457
3 389 456 385
3 385 456 452
3 460 459 458
3 460 458 455
3 458 454 455
3 458 461 454
3 462 390 387
3 454 462 387
3 461 462 454
3 390 462 463
3 464 390 463
3 391 390 464
3 456 392 457
3 392 464 457
3 392 391 464
3 392 456 389
3 459 465 458
3 458 465 461
3 461 465 466
3 461 466 462
3 462 466 467
3 462 467 463
3 468 393 394
3 395 468 394
3 469 396 397
3 393 468 397
3 468 469 397
3 468 470 469
3 398 470 395
3 395 470 468
3 471 399 469
3 469 399 396
3 472 469 470
3 471 469 472
3 400 472 398
3 398 472 470
3 474 473 471
3 473 399 471
3 473 402 399
3 405 475 404
3 475 471 404
3 471 472 404
3 475 474 471
3 404 472 400
3 476 406 407
3 402 473 477
3 476 402 477
3 478 476 477
3 407 402 476
3 477 475 478
3 475 408 478
3 475 405 408
3 479 410 476
3 476 410 406
3 412 479 411
3 479 478 411
3 479 476 478
3 411 478 408
3 480 413 414
3 415 481 414
3 414 481 480
3 415 410 481
3 410 479 481
3 418 417 481
3 418 481 479
3 418 479 412
3 483 482 420
3 420 482 419
3 484 420 421
3 484 483 420
3 421 413 480
3 485 421 480
3 484 421 485
3 423 486 422
3 486 480 422
3 480 481 422
3 486 485 480
3 422 481 417
3 488 487 426
3 426 487 425
3 426 419 482
3 426 482 488
3 490 489 427
3 490 427 428
3 423 427 486
3 486 427 489
3 493 492 491
3 487 493 491
3 430 487 491
3 425 487 430
3 495 494 433
3 495 433 432
3 428 433 490
3 490 433 494
3 498 497 496
3 500 499 496
3 496 499 498
3 502 501 500
3 500 501 499
3 502 503 501
3 492 504 491
3 491 504 430
3 504 434 430
3 504 505 434
3 434 506 435
3 505 506 434
3 432 435 495
3 495 435 506
3 507 436 437
3 497 508 496
3 508 437 496
3 437 438 496
3 437 508 507
3 496 438 439
3 496 439 500
3 500 439 441
3 509 500 441
3 502 500 509
3 503 502 510
3 510 502 509
3 511 442 507
3 507 442 436
3 507 508 512
3 507 512 511
3 514 513 443
3 514 443 444
3 441 443 509
3 443 515 509
3 443 513 515
3 509 515 510
3 511 445 442
3 512 516 511
3 516 445 511
3 516 446 445
3 444 446 514
3 514 446 516
3 518 517 449
3 449 517 448
3 519 449 450
3 519 518 449
3 521 519 520
3 519 451 520
3 519 450 451
3 453 520 451
3 524 523 522
3 517 524 522
3 455 517 522
3 448 517 455
3 521 520 525
3 521 525 526
3 457 525 453
3 453 525 520
3 522 523 460
3 523 459 460
3 523 527 459
3 522 460 455
3 530 529 528
3 528 529 526
3 528 526 525
3 463 528 525
3 464 463 525
3 464 525 457
3 533 532 531
3 531 534 465
3 527 531 465
3 459 527 465
3 531 527 533
3 465 534 535
3 536 465 535
3 466 465 536
3 528 467 530
3 467 536 530
3 467 466 536
3 467 528 463
3 532 537 531
3 531 537 534
3 534 537 538
3 534 538 535
3 539 473 474
3 475 539 474
3 539 477 473
3 477 539 475
3 541 540 483
3 483 540 482
3 542 483 484
3 542 541 483
3 544 542 543
3 542 485 543
3 542 484 485
3 486 543 485
3 547 546 545
3 487 488 545
3 488 547 545
3 488 548 547
3 488 482 540
3 488 540 548
3 544 543 489
3 490 544 489
3 549 544 490
3 489 543 486
3 552 551 550
3 554 553 550
3 550 553 552
3 554 555 553
3 558 557 556
3 558 556 546
3 546 556 545
3 556 492 545
3 492 493 545
3 545 493 487
3 560 559 494
3 560 494 495
3 490 494 549
3 549 494 559
3 561 497 498
3 551 562 550
3 562 498 550
3 498 499 550
3 498 562 561
3 550 499 501
3 550 501 554
3 564 563 503
3 503 563 501
3 563 555 501
3 555 554 501
3 566 565 564
3 564 565 563
3 566 567 565
3 556 557 568
3 568 557 569
3 556 568 492
3 568 570 492
3 570 504 492
3 568 571 570
3 504 572 505
3 570 572 504
3 505 573 506
3 572 573 505
3 495 506 560
3 560 506 573
3 575 574 561
3 574 497 561
3 574 508 497
3 575 561 562
3 577 576 564
3 503 577 564
3 510 577 503
3 564 576 566
3 566 576 578
3 566 578 567
3 569 579 568
3 568 579 571
3 581 512 580
3 512 574 580
3 512 508 574
3 513 514 581
3 580 513 581
3 582 513 580
3 513 583 515
3 582 583 513
3 510 515 577
3 577 515 583
3 581 516 512
3 516 581 514
3 586 585 584
3 517 518 584
3 518 586 584
3 518 587 586
3 589 587 588
3 587 519 588
3 587 518 519
3 521 588 519
3 592 591 590
3 592 590 585
3 585 590 584
3 590 523 584
3 523 524 584
3 584 524 517
3 589 588 593
3 589 593 594
3 526 593 521
3 521 593 588
3 590 591 595
3 595 591 596
3 595 527 523
3 595 523 590
3 594 593 529
3 530 594 529
3 597 594 530
3 529 593 526
3 595 596 533
3 596 532 533
3 596 598 532
3 595 533 527
3 600 599 536
3 600 536 535
3 530 536 597
3 597 536 599
3 603 602 601
3 601 604 537
3 598 601 537
3 532 598 537
3 601 598 603
3 537 604 605
3 606 537 605
3 538 537 606
3 535 538 600
3 600 538 606
3 601 602 607
3 607 602 608
3 610 604 609
3 604 607 609
3 604 601 607
3 604 610 605
3 608 611 607
3 607 611 609
3 614 613 612
3 540 541 612
3 541 614 612
3 541 615 614
3 617 615 616
3 615 542 616
3 615 541 542
3 544 616 542
3 620 619 618
3 618 621 620
3 624 623 622
3 546 547 622
3 547 624 622
3 547 625 624
3 548 612 613
3 625 548 613
3 547 548 625
3 612 548 540
3 617 616 626
3 617 626 627
3 549 626 544
3 544 626 616
3 629 628 552
3 552 628 551
3 553 618 619
3 629 553 619
3 552 553 629
3 631 630 555
3 555 630 553
3 630 621 553
3 621 618 553
3 633 632 631
3 631 632 630
3 635 634 633
3 633 634 632
3 634 635 623
3 623 635 622
3 635 557 622
3 557 558 622
3 622 558 546
3 638 637 636
3 636 637 627
3 636 627 626
3 560 636 626
3 559 560 626
3 559 626 549
3 628 562 551
3 639 562 628
3 563 631 555
3 631 563 565
3 631 565 633
3 633 565 567
3 640 633 567
3 635 633 640
3 640 569 557
3 640 557 635
3 642 641 570
3 642 570 571
3 570 643 572
3 641 643 570
3 636 573 638
3 573 643 638
3 573 572 643
3 573 636 560
3 644 574 575
3 645 644 575
3 562 645 575
3 639 645 562
3 577 646 576
3 576 646 647
3 648 576 647
3 578 576 648
3 567 578 640
3 578 649 640
3 578 648 649
3 640 649 569
3 649 579 569
3 649 650 579
3 571 579 642
3 642 579 650
3 644 580 574
3 645 651 644
3 651 580 644
3 651 582 580
3 582 652 583
3 651 652 582
3 577 583 646
3 583 653 646
3 583 652 653
3 646 653 647
3 656 655 654
3 658 657 654
3 654 657 656
3 658 659 657
3 654 655 660
3 660 655 661
3 660 585 586
3 658 660 586
3 654 660 658
3 586 587 658
3 587 662 658
3 662 659 658
3 587 663 662
3 589 663 587
3 666 665 664
3 666 664 661
3 661 664 660
3 664 591 660
3 591 592 660
3 660 592 585
3 662 663 667
3 662 667 668
3 594 667 589
3 589 667 663
3 664 665 669
3 669 665 670
3 669 596 591
3 669 591 664
3 668 667 671
3 668 671 672
3 597 671 594
3 594 671 667
3 669 670 673
3 673 670 674
3 673 598 596
3 673 596 669
3 677 676 675
3 675 676 672
3 675 672 671
3 600 675 671
3 599 600 671
3 599 671 597
3 680 679 678
3 680 678 674
3 674 678 673
3 678 602 673
3 602 603 673
3 673 603 598
3 677 675 606
3 605 677 606
3 681 677 605
3 606 675 600
3 678 679 682
3 682 679 683
3 682 608 602
3 682 602 678
3 685 684 610
3 685 610 609
3 605 610 681
3 681 610 684
3 682 683 686
3 686 683 687
3 682 686 608
3 686 688 608
3 688 611 608
3 686 689 688
3 609 611 685
3 685 611 688
3 687 690 686
3 686 690 689
3 693 692 691
3 695 694 691
3 691 694 693
3 613 614 695
3 614 694 695
3 614 696 694
3 697 614 615
3 697 696 614
3 615 617 697
3 697 617 698
3 700 699 620
3 620 699 619
3 702 701 621
3 701 620 621
3 701 700 620
3 704 703 702
3 702 703 701
3 706 705 704
3 704 705 703
3 705 706 692
3 692 706 691
3 706 623 691
3 623 624 691
3 691 624 625
3 691 625 695
3 695 625 613
3 709 708 707
3 708 698 707
3 698 627 707
3 698 617 627
3 711 710 629
3 629 710 628
3 629 619 699
3 629 699 711
3 630 702 621
3 702 630 632
3 702 632 704
3 704 632 634
3 704 634 706
3 706 634 623
3 714 713 712
3 712 713 709
3 712 709 707
3 638 712 707
3 637 638 707
3 637 707 627
3 710 639 628
3 715 639 710
3 717 716 641
3 717 641 642
3 712 643 714
3 643 716 714
3 643 641 716
3 643 712 638
3 715 645 639
3 718 645 715
3 647 719 648
3 648 719 720
3 721 648 720
3 649 648 721
3 649 722 650
3 721 722 649
3 642 650 717
3 717 650 722
3 651 645 723
3 645 724 723
3 645 718 724
3 651 723 725
3 726 651 725
3 652 651 726
3 652 727 653
3 726 727 652
3 647 653 719
3 653 728 719
3 653 727 728
3 719 728 720
3 724 729 723
3 723 729 725
3 732 731 730
3 734 733 730
3 730 733 732
3 736 735 734
3 734 735 733
3 655 656 736
3 656 735 736
3 656 737 735
3 739 737 738
3 737 657 738
3 737 656 657
3 659 738 657
3 742 741 740
3 742 740 731
3 740 730 731
3 740 743 730
3 730 744 734
3 730 743 744
3 734 745 736
3 734 744 745
3 745 661 655
3 745 655 736
3 739 738 746
3 739 746 747
3 662 746 659
3 659 746 738
3 741 748 740
3 750 749 748
3 749 740 748
3 749 743 740
3 743 751 744
3 743 749 751
3 751 665 666
3 745 751 666
3 744 751 745
3 745 666 661
3 747 746 752
3 747 752 753
3 668 752 662
3 662 752 746
3 750 754 749
3 756 755 754
3 755 749 754
3 755 751 749
3 755 670 665
3 755 665 751
3 753 752 757
3 753 757 758
3 672 757 668
3 668 757 752
3 755 756 759
3 759 756 760
3 759 674 670
3 759 670 755
3 763 762 761
3 761 762 758
3 761 758 757
3 677 761 757
3 676 677 757
3 676 757 672
3 759 760 680
3 760 679 680
3 760 764 679
3 759 680 674
3 763 761 765
3 763 765 766
3 681 765 677
3 677 765 761
3 769 768 767
3 764 769 767
3 683 764 767
3 679 764 683
3 772 771 770
3 770 771 766
3 770 766 765
3 685 770 765
3 684 685 765
3 684 765 681
3 767 768 773
3 773 768 774
3 773 687 683
3 773 683 767
3 772 770 688
3 689 772 688
3 775 772 689
3 688 770 685
3 773 774 776
3 776 774 777
3 773 776 687
3 776 778 687
3 778 690 687
3 776 779 778
3 689 690 775
3 775 690 778
3 777 780 776
3 776 780 779
3 783 782 781
3 785 784 781
3 781 784 783
3 785 786 784
3 789 788 787
3 791 790 787
3 787 790 789
3 790 791 782
3 791 781 782
3 791 792 781
3 781 793 785
3 781 792 793
3 786 785 794
3 794 785 793
3 797 796 795
3 799 798 795
3 795 798 797
3 801 800 799
3 799 800 798
3 800 801 788
3 788 801 787
3 801 692 787
3 692 693 787
3 787 693 694
3 787 694 791
3 791 694 696
3 791 696 792
3 697 802 696
3 802 803 696
3 804 696 803
3 696 804 792
3 805 792 804
3 792 805 802
3 802 793 792
3 697 793 802
3 802 805 803
3 803 805 698
3 805 794 698
3 793 697 698
3 793 698 794
3 807 806 700
3 700 806 699
3 701 795 796
3 807 701 796
3 700 701 807
3 795 701 703
3 795 703 799
3 799 703 705
3 799 705 801
3 801 705 692
3 810 809 808
3 808 809 804
3 808 804 803
3 709 808 803
3 708 709 803
3 708 803 698
3 811 710 711
3 812 811 711
3 699 812 711
3 806 812 699
3 815 814 813
3 813 814 810
3 813 810 808
3 714 813 808
3 713 714 808
3 713 808 709
3 816 715 811
3 811 715 710
3 811 812 817
3 811 817 816
3 820 819 818
3 818 819 815
3 818 815 813
3 717 818 813
3 716 717 813
3 716 813 714
3 821 718 816
3 816 718 715
3 816 817 822
3 816 822 821
3 825 824 823
3 721 720 823
3 824 721 823
3 826 721 824
3 818 722 820
3 722 826 820
3 722 721 826
3 722 818 717
3 827 724 821
3 821 724 718
3 828 726 725
3 821 828 725
3 827 821 725
3 828 821 822
3 726 829 727
3 828 829 726
3 823 728 825
3 728 829 825
3 728 727 829
3 728 823 720
3 827 729 724
3 729 827 725
3 832 831 830
3 731 732 830
3 732 832 830
3 732 833 832
3 834 732 733
3 834 833 732
3 835 733 735
3 835 834 733
3 837 835 836
3 835 737 836
3 835 735 737
3 739 836 737
3 840 839 838
3 840 838 831
3 831 838 830
3 838 741 830
3 741 742 830
3 830 742 731
3 837 836 841
3 837 841 842
3 747 841 739
3 739 841 836
3 838 839 843
3 843 839 844
3 845 748 741
3 838 845 741
3 843 845 838
3 845 750 748
3 842 841 846
3 842 846 847
3 753 846 747
3 747 846 841
3 850 849 848
3 850 848 844
3 848 843 844
3 848 851 843
3 843 852 845
3 843 851 852
3 853 754 750
3 845 853 750
3 852 853 845
3 853 756 754
3 856 855 854
3 854 855 847
3 846 854 847
3 857 854 846
3 758 857 753
3 753 857 846
3 849 858 848
3 860 859 858
3 859 848 858
3 859 851 848
3 851 861 852
3 851 859 861
3 852 862 853
3 852 861 862
3 862 760 756
3 862 756 853
3 856 854 863
3 856 863 864
3 763 863 762
3 863 857 762
3 863 854 857
3 762 857 758
3 860 865 859
3 867 866 865
3 866 859 865
3 866 861 859
3 861 868 862
3 861 866 868
3 868 764 760
3 868 760 862
3 864 863 869
3 864 869 870
3 766 869 763
3 763 869 863
3 866 867 871
3 871 867 872
3 871 768 769
3 868 871 769
3 866 871 868
3 868 769 764
3 870 869 771
3 772 870 771
3 873 870 772
3 771 869 766
3 871 872 874
3 874 872 875
3 874 774 768
3 874 768 871
3 878 877 876
3 877 873 876
3 873 775 876
3 873 772 775
3 874 875 879
3 879 875 880
3 774 881 777
3 774 882 881
3 882 774 883
3 874 883 774
3 883 874 884
3 881 884 874
3 874 879 881
3 881 879 777
3 882 884 881
3 882 883 878
3 882 878 876
3 779 882 876
3 778 779 876
3 778 876 775
3 880 885 879
3 884 882 885
3 882 780 885
3 777 879 885
3 777 885 780
3 780 882 779
3 888 887 886
3 890 889 886
3 886 889 888
3 890 891 889
3 894 893 892
3 896 895 892
3 892 895 894
3 895 896 887
3 896 886 887
3 896 897 886
3 886 898 890
3 886 897 898
3 891 890 899
3 899 890 898
3 902 901 900
3 902 900 893
3 900 892 893
3 900 903 892
3 903 782 783
3 896 903 783
3 892 903 896
3 896 783 784
3 896 784 897
3 898 897 904
3 897 786 904
3 786 905 904
3 786 897 784
3 898 904 899
3 908 907 906
3 910 909 906
3 906 909 908
3 909 910 901
3 901 910 900
3 910 788 900
3 788 789 900
3 900 789 790
3 900 790 903
3 903 790 782
3 913 912 911
3 912 905 911
3 905 794 911
3 905 786 794
3 914 796 797
3 907 915 906
3 915 797 906
3 797 798 906
3 797 915 914
3 906 798 800
3 906 800 910
3 910 800 788
3 913 911 805
3 804 913 805
3 916 913 804
3 805 911 794
3 917 806 807
3 918 917 807
3 918 807 796
3 919 918 796
3 914 919 796
3 919 914 915
3 921 920 809
3 921 809 810
3 804 809 916
3 916 809 920
3 922 812 917
3 917 812 806
3 917 918 923
3 917 923 922
3 926 925 924
3 814 815 924
3 925 814 924
3 927 814 925
3 810 814 921
3 921 814 927
3 928 817 922
3 922 817 812
3 922 923 929
3 922 929 928
3 932 931 930
3 930 931 926
3 930 926 924
3 820 930 924
3 819 820 924
3 819 924 815
3 933 822 928
3 928 822 817
3 928 929 934
3 935 928 934
3 933 928 935
3 824 825 935
3 934 824 935
3 936 824 934
3 930 826 932
3 826 936 932
3 826 824 936
3 826 930 820
3 933 828 822
3 828 933 829
3 829 933 935
3 829 935 825
3 939 938 937
3 831 832 937
3 832 939 937
3 832 940 939
3 941 832 833
3 941 940 832
3 942 833 834
3 942 941 833
3 944 942 943
3 942 835 943
3 942 834 835
3 837 943 835
3 937 938 840
3 938 839 840
3 938 945 839
3 937 840 831
3 944 943 946
3 944 946 947
3 842 946 837
3 837 946 943
3 950 949 948
3 945 950 948
3 844 945 948
3 839 945 844
3 953 952 951
3 951 952 947
3 946 951 947
3 954 951 946
3 847 954 842
3 842 954 946
3 957 956 955
3 957 955 949
3 949 955 948
3 955 849 948
3 849 850 948
3 948 850 844
3 953 951 958
3 953 958 959
3 856 958 855
3 958 954 855
3 958 951 954
3 855 954 847
3 955 956 960
3 960 956 961
3 962 858 849
3 955 962 849
3 960 962 955
3 962 860 858
3 959 958 963
3 959 963 964
3 864 963 856
3 856 963 958
3 960 961 965
3 965 961 966
3 960 967 962
3 960 965 967
3 968 865 860
3 962 968 860
3 967 968 962
3 968 867 865
3 964 963 969
3 964 969 970
3 870 969 864
3 864 969 963
3 966 971 965
3 973 972 971
3 972 965 971
3 972 967 965
3 967 974 968
3 967 972 974
3 974 872 867
3 974 867 968
3 977 976 975
3 975 976 970
3 969 975 970
3 978 975 969
3 873 978 870
3 870 978 969
3 973 979 972
3 981 980 979
3 980 972 979
3 980 974 972
3 980 875 872
3 980 872 974
3 977 975 982
3 977 982 983
3 878 982 877
3 982 978 877
3 982 975 978
3 877 978 873
3 981 984 980
3 880 875 980
3 985 880 980
3 984 985 980
3 880 985 986
3 986 985 983
3 986 983 982
3 884 986 982
3 883 884 982
3 883 982 878
3 986 885 880
3 885 986 884
3 989 988 987
3 991 990 987
3 987 990 989
3 991 992 990
3 995 994 993
3 995 993 988
3 993 987 988
3 993 996 987
3 987 997 991
3 987 996 997
3 992 991 998
3 998 991 997
3 1001 1000 999
3 1001 999 994
3 994 999 993
3 999 887 993
3 887 888 993
3 993 888 889
3 993 889 996
3 997 996 1002
3 996 891 1002
3 891 1003 1002
3 891 996 889
3 997 1002 998
3 1006 1005 1004
3 893 894 1004
3 894 1006 1004
3 894 1007 1006
3 895 999 1000
3 1007 895 1000
3 894 895 1007
3 999 895 887
3 899 1003 891
3 899 1008 1003
3 1004 1005 902
3 1005 901 902
3 1005 1009 901
3 1004 902 893
3 1011 1010 904
3 1011 904 905
3 899 904 1008
3 1008 904 1010
3 1012 907 908
3 1012 908 1013
3 908 1014 1013
3 908 909 1014
3 909 901 1009
3 909 1009 1014
3 1016 1015 912
3 1016 912 913
3 905 912 1011
3 1011 912 1015
3 1017 915 1012
3 1012 915 907
3 1012 1013 1018
3 1012 1018 1017
3 1021 1020 1019
3 1020 1016 1019
3 1016 916 1019
3 1016 913 916
3 1022 918 919
3 1023 1022 919
3 1023 919 915
3 1024 1023 915
3 1017 1024 915
3 1024 1017 1018
3 1027 1026 1025
3 1025 1026 1021
3 1025 1021 1019
3 921 1025 1019
3 920 921 1019
3 920 1019 916
3 1028 923 1022
3 1022 923 918
3 1022 1023 1029
3 1022 1029 1028
3 1032 1031 1030
3 925 926 1030
3 1031 925 1030
3 1033 925 1031
3 1025 927 1027
3 927 1033 1027
3 927 925 1033
3 927 1025 921
3 1034 929 1028
3 1028 929 923
3 1028 1029 1035
3 1036 1028 1035
3 1034 1028 1036
3 1036 1035 1032
3 1036 1032 1030
3 932 1036 1030
3 931 932 1030
3 931 1030 926
3 1034 934 929
3 934 1034 936
3 936 1034 1036
3 936 1036 932
3 1038 1037 939
3 939 1037 938
3 1039 939 940
3 1039 1038 939
3 1040 940 941
3 1040 1039 940
3 1042 1040 1041
3 1040 942 1041
3 1040 941 942
3 944 1041 942
3 1037 945 938
3 1043 945 1037
3 1042 1041 1044
3 1042 1044 1045
3 947 1044 944
3 944 1044 1041
3 1047 1046 950
3 950 1046 949
3 950 945 1043
3 950 1043 1047
3 1050 1049 1048
3 1048 1049 1045
3 1048 1045 1044
3 953 1048 1044
3 952 953 1044
3 952 1044 947
3 1052 1051 957
3 957 1051 956
3 957 949 1046
3 957 1046 1052
3 1050 1048 1053
3 1050 1053 1054
3 959 1053 953
3 953 1053 1048
3 1057 1056 1055
3 1051 1057 1055
3 961 1051 1055
3 956 1051 961
3 1054 1053 1058
3 1054 1058 1059
3 964 1058 959
3 959 1058 1053
3 1055 1056 1060
3 1060 1056 1061
3 1060 966 961
3 1060 961 1055
3 1064 1063 1062
3 1062 1063 1059
3 1058 1062 1059
3 1065 1062 1058
3 970 1065 964
3 964 1065 1058
3 1060 1061 1066
3 1066 1061 1067
3 1068 971 966
3 1060 1068 966
3 1066 1068 1060
3 1068 973 971
3 1064 1062 1069
3 1064 1069 1070
3 977 1069 976
3 1069 1065 976
3 1069 1062 1065
3 976 1065 970
3 1073 1072 1071
3 1073 1071 1067
3 1071 1066 1067
3 1071 1074 1066
3 1066 1075 1068
3 1066 1074 1075
3 1076 979 973
3 1068 1076 973
3 1075 1076 1068
3 1076 981 979
3 1070 1069 1077
3 1070 1077 1078
3 983 1077 977
3 977 1077 1069
3 1071 1072 1079
3 1079 1072 1080
3 1071 1081 1074
3 1071 1079 1081
3 1074 1082 1075
3 1074 1081 1082
3 1075 1083 1076
3 1075 1082 1083
3 1076 1083 981
3 1083 1084 981
3 1084 984 981
3 1083 1085 1084
3 1077 985 1078
3 985 1084 1078
3 985 984 1084
3 985 1077 983
3 1080 1086 1079
3 1079 1086 1081
3 1081 1086 1087
3 1081 1087 1082
3 1082 1087 1088
3 1082 1088 1083
3 1083 1088 1089
3 1083 1089 1085
3 1092 1091 1090
3 1094 1093 1090
3 1090 1093 1092
3 1094 1095 1093
3 1098 1097 1096
3 1098 1096 1091
3 1096 1090 1091
3 1096 1099 1090
3 1090 1100 1094
3 1090 1099 1100
3 1095 1094 1101
3 1101 1094 1100
3 1096 1097 1102
3 1102 1097 1103
3 1096 1104 1099
3 1096 1102 1104
3 1106 1100 1105
3 1100 1104 1105
3 1100 1099 1104
3 1100 1106 1101
3 1109 1108 1107
3 1109 1107 1103
3 1103 1107 1102
3 1107 988 1102
3 988 989 1102
3 1102 989 990
3 1102 990 1104
3 990 992 1104
3 992 1105 1104
3 992 1110 1105
3 1113 1112 1111
3 1113 1111 1108
3 1108 1111 1107
3 1111 994 1107
3 994 995 1107
3 1107 995 988
3 1116 1115 1114
3 1115 1110 1114
3 1110 998 1114
3 1110 992 998
3 1111 1112 1001
3 1112 1000 1001
3 1112 1117 1000
3 1111 1001 994
3 1116 1114 1002
3 1003 1116 1002
3 1118 1116 1003
3 1002 1114 998
3 1119 1005 1006
3 1119 1006 1120
3 1006 1121 1120
3 1006 1007 1121
3 1007 1000 1117
3 1007 1117 1121
3 1124 1123 1122
3 1123 1118 1122
3 1118 1008 1122
3 1118 1003 1008
3 1125 1009 1119
3 1119 1009 1005
3 1119 1120 1126
3 1119 1126 1125
3 1129 1128 1127
3 1127 1128 1124
3 1127 1124 1122
3 1011 1127 1122
3 1010 1011 1122
3 1010 1122 1008
3 1130 1013 1014
3 1131 1130 1014
3 1131 1014 1009
3 1132 1131 1009
3 1125 1132 1009
3 1132 1125 1126
3 1135 1134 1133
3 1133 1134 1129
3 1133 1129 1127
3 1016 1133 1127
3 1015 1016 1127
3 1015 1127 1011
3 1136 1018 1130
3 1130 1018 1013
3 1130 1131 1137
3 1138 1130 1137
3 1136 1130 1138
3 1140 1139 1138
3 1140 1138 1137
3 1139 1140 1135
3 1139 1135 1133
3 1021 1139 1133
3 1020 1021 1133
3 1020 1133 1016
3 1141 1023 1024
3 1018 1136 1024
3 1136 1141 1024
3 1136 1142 1141
3 1143 1136 1138
3 1142 1136 1143
3 1027 1143 1026
3 1143 1139 1026
3 1143 1138 1139
3 1026 1139 1021
3 1144 1029 1141
3 1141 1029 1023
3 1032 1144 1031
3 1144 1142 1031
3 1144 1141 1142
3 1031 1142 1033
3 1033 1142 1143
3 1033 1143 1027
3 1144 1035 1029
3 1035 1144 1032
3 1145 1037 1038
3 1039 1146 1038
3 1038 1146 1145
3 1040 1147 1039
3 1039 1147 1146
3 1042 1147 1040
3 1149 1148 1145
3 1148 1037 1145
3 1148 1043 1037
3 1151 1150 1149
3 1145 1151 1149
3 1146 1151 1145
3 1152 1146 1147
3 1151 1146 1152
3 1045 1152 1042
3 1042 1152 1147
3 1154 1153 1047
3 1047 1153 1046
3 1047 1043 1148
3 1047 1148 1154
3 1150 1151 1155
3 1150 1155 1156
3 1050 1155 1049
3 1155 1152 1049
3 1155 1151 1152
3 1049 1152 1045
3 1158 1157 1052
3 1052 1157 1051
3 1052 1046 1153
3 1052 1153 1158
3 1156 1155 1159
3 1156 1159 1160
3 1054 1159 1050
3 1050 1159 1155
3 1161 1056 1057
3 1162 1161 1057
3 1051 1162 1057
3 1157 1162 1051
3 1160 1159 1163
3 1160 1163 1164
3 1059 1163 1054
3 1054 1163 1159
3 1166 1165 1161
3 1165 1056 1161
3 1165 1061 1056
3 1166 1161 1162
3 1169 1168 1167
3 1167 1168 1164
3 1167 1164 1163
3 1064 1167 1163
3 1063 1064 1163
3 1063 1163 1059
3 1172 1171 1170
3 1165 1172 1170
3 1067 1165 1170
3 1061 1165 1067
3 1169 1167 1173
3 1169 1173 1174
3 1070 1173 1064
3 1064 1173 1167
3 1170 1171 1073
3 1171 1072 1073
3 1171 1175 1072
3 1170 1073 1067
3 1178 1177 1176
3 1176 1177 1174
3 1173 1176 1174
3 1179 1176 1173
3 1078 1179 1070
3 1070 1179 1173
3 1182 1181 1180
3 1175 1182 1180
3 1080 1175 1180
3 1072 1175 1080
3 1178 1176 1183
3 1178 1183 1184
3 1085 1183 1084
3 1183 1179 1084
3 1183 1176 1179
3 1084 1179 1078
3 1180 1181 1185
3 1185 1181 1186
3 1187 1086 1080
3 1180 1187 1080
3 1185 1187 1180
3 1188 1087 1086
3 1188 1086 1187
3 1087 1188 1189
3 1190 1087 1189
3 1088 1087 1190
3 1183 1089 1184
3 1089 1190 1184
3 1089 1088 1190
3 1089 1183 1085
3 1185 1186 1191
3 1191 1186 1192
3 1185 1193 1187
3 1185 1191 1193
3 1195 1188 1194
3 1188 1193 1194
3 1188 1187 1193
3 1188 1195 1189
3 1191 1192 1196
3 1196 1192 1197
3 1199 1193 1198
3 1193 1196 1198
3 1193 1191 1196
3 1193 1199 1194
3 1197 1200 1196
3 1196 1200 1198
3 1203 1202 1201
3 1205 1204 1201
3 1201 1204 1203
3 1205 1206 1204
3 1201 1202 1207
3 1207 1202 1208
3 1210 1205 1209
3 1205 1207 1209
3 1205 1201 1207
3 1205 1210 1206
3 1213 1212 1211
3 1213 1211 1208
3 1211 1207 1208
3 1211 1214 1207
3 1209 1207 1215
3 1215 1207 1214
3 1218 1217 1216
3 1218 1216 1212
3 1212 1216 1211
3 1216 1091 1211
3 1091 1092 1211
3 1211 1092 1093
3 1211 1093 1214
3 1093 1095 1214
3 1095 1215 1214
3 1095 1219 1215
3 1216 1217 1098
3 1217 1097 1098
3 1217 1220 1097
3 1216 1098 1091
3 1101 1219 1095
3 1101 1221 1219
3 1224 1223 1222
3 1220 1224 1222
3 1103 1220 1222
3 1097 1220 1103
3 1226 1225 1106
3 1226 1106 1105
3 1101 1106 1221
3 1221 1106 1225
3 1222 1223 1109
3 1223 1108 1109
3 1223 1227 1108
3 1222 1109 1103
3 1230 1229 1228
3 1229 1226 1228
3 1226 1110 1228
3 1226 1105 1110
3 1231 1112 1113
3 1232 1231 1113
3 1108 1232 1113
3 1227 1232 1108
3 1230 1228 1115
3 1116 1230 1115
3 1233 1230 1116
3 1115 1228 1110
3 1234 1117 1231
3 1231 1117 1112
3 1231 1232 1235
3 1231 1235 1234
3 1238 1237 1236
3 1237 1233 1236
3 1233 1118 1236
3 1233 1116 1118
3 1239 1120 1121
3 1117 1234 1121
3 1234 1239 1121
3 1234 1240 1239
3 1234 1235 1241
3 1242 1234 1241
3 1240 1234 1242
3 1242 1241 1238
3 1242 1238 1236
3 1124 1242 1236
3 1123 1124 1236
3 1123 1236 1118
3 1243 1126 1239
3 1239 1126 1120
3 1244 1239 1240
3 1243 1239 1244
3 1129 1244 1128
3 1244 1242 1128
3 1244 1240 1242
3 1128 1242 1124
3 1245 1131 1132
3 1126 1243 1132
3 1243 1245 1132
3 1243 1246 1245
3 1135 1246 1134
3 1246 1244 1134
3 1246 1243 1244
3 1134 1244 1129
3 1245 1137 1131
3 1137 1245 1140
3 1140 1245 1246
3 1140 1246 1135
3 1247 1148 1149
3 1150 1247 1149
3 1248 1153 1154
3 1148 1247 1154
3 1247 1248 1154
3 1247 1249 1248
3 1156 1249 1150
3 1150 1249 1247
3 1250 1157 1158
3 1153 1248 1158
3 1248 1250 1158
3 1248 1251 1250
3 1252 1248 1249
3 1251 1248 1252
3 1160 1252 1156
3 1156 1252 1249
3 1253 1162 1250
3 1250 1162 1157
3 1254 1250 1251
3 1253 1250 1254
3 1255 1251 1252
3 1254 1251 1255
3 1164 1255 1160
3 1160 1255 1252
3 1256 1165 1166
3 1257 1256 1166
3 1257 1166 1162
3 1258 1257 1162
3 1253 1258 1162
3 1260 1259 1258
3 1253 1260 1258
3 1254 1260 1253
3 1169 1260 1168
3 1260 1255 1168
3 1260 1254 1255
3 1168 1255 1164
3 1261 1171 1172
3 1262 1261 1172
3 1262 1172 1165
3 1263 1262 1165
3 1256 1263 1165
3 1263 1256 1257
3 1259 1260 1264
3 1259 1264 1265
3 1174 1264 1169
3 1169 1264 1260
3 1267 1266 1261
3 1266 1171 1261
3 1266 1175 1171
3 1267 1261 1262
3 1270 1269 1268
3 1268 1269 1265
3 1268 1265 1264
3 1178 1268 1264
3 1177 1178 1264
3 1177 1264 1174
3 1271 1181 1182
3 1272 1271 1182
3 1175 1272 1182
3 1266 1272 1175
3 1270 1268 1273
3 1270 1273 1274
3 1184 1273 1178
3 1178 1273 1268
3 1276 1275 1271
3 1275 1181 1271
3 1275 1186 1181
3 1276 1271 1272
3 1274 1273 1190
3 1189 1274 1190
3 1277 1274 1189
3 1190 1273 1184
3 1275 1192 1186
3 1278 1192 1275
3 1280 1279 1195
3 1280 1195 1194
3 1189 1195 1277
3 1277 1195 1279
3 1278 1197 1192
3 1281 1197 1278
3 1283 1282 1199
3 1283 1199 1198
3 1194 1199 1280
3 1280 1199 1282
3 1281 1284 1197
3 1197 1284 1200
3 1198 1200 1283
3 1283 1200 1284
3 1286 1285 1203
3 1203 1285 1202
3 1287 1203 1204
3 1287 1286 1203
3 1204 1206 1287
3 1287 1206 1288
3 1285 1208 1202
3 1289 1208 1285
3 1209 1290 1210
3 1290 1291 1210
3 1291 1206 1210
3 1291 1288 1206
3 1292 1212 1213
3 1293 1292 1213
3 1208 1293 1213
3 1289 1293 1208
3 1295 1294 1290
3 1209 1295 1290
3 1215 1295 1209
3 1290 1294 1291
3 1296 1217 1218
3 1212 1292 1218
3 1292 1296 1218
3 1292 1297 1296
3 1292 1293 1298
3 1299 1292 1298
3 1297 1292 1299
3 1298 1295 1299
3 1295 1219 1299
3 1295 1215 1219
3 1300 1220 1296
3 1296 1220 1217
3 1301 1296 1297
3 1300 1296 1301
3 1302 1297 1299
3 1301 1297 1302
3 1221 1302 1219
3 1219 1302 1299
3 1303 1223 1224
3 1220 1300 1224
3 1300 1303 1224
3 1300 1304 1303
3 1305 1300 1301
3 1304 1300 1305
3 1226 1305 1225
3 1305 1302 1225
3 1305 1301 1302
3 1225 1302 1221
3 1306 1227 1303
3 1303 1227 1223
3 1307 1303 1304
3 1306 1303 1307
3 1230 1307 1229
3 1307 1305 1229
3 1307 1304 1305
3 1229 1305 1226
3 1308 1232 1306
3 1306 1232 1227
3 1309 1306 1307
3 1308 1306 1309
3 1233 1309 1230
3 1230 1309 1307
3 1310 1235 1308
3 1308 1235 1232
3 1238 1310 1237
3 1310 1309 1237
3 1310 1308 1309
3 1237 1309 1233
3 1310 1241 1235
3 1241 1310 1238
3 1311 1257 1258
3 1259 1311 1258
3 1312 1262 1263
3 1257 1311 1263
3 1311 1312 1263
3 1311 1313 1312
3 1265 1313 1259
3 1259 1313 1311
3 1314 1266 1267
3 1262 1312 1267
3 1312 1314 1267
3 1312 1315 1314
3 1270 1315 1269
3 1315 1313 1269
3 1315 1312 1313
3 1269 1313 1265
3 1316 1272 1314
3 1314 1272 1266
3 1317 1314 1315
3 1316 1314 1317
3 1274 1317 1270
3 1270 1317 1315
3 1318 1275 1276
3 1272 1316 1276
3 1316 1318 1276
3 1316 1319 1318
3 1320 1316 1317
3 1319 1316 1320
3 1277 1320 1274
3 1274 1320 1317
3 1321 1278 1318
3 1318 1278 1275
3 1322 1318 1319
3 1321 1318 1322
3 1280 1322 1279
3 1322 1320 1279
3 1322 1319 1320
3 1279 1320 1277
3 1323 1281 1321
3 1321 1281 1278
3 1283 1323 1282
3 1323 1322 1282
3 1323 1321 1322
3 1282 1322 1280
3 1323 1284 1281
3 1284 1323 1283
3 1324 1285 1286
3 1287 1325 1286
3 1286 1325 1324
3 1288 1325 1287
3 1326 1289 1324
3 1324 1289 1285
3 1327 1324 1325
3 1326 1324 1327
3 1291 1327 1288
3 1288 1327 1325
3 1328 1293 1326
3 1326 1293 1289
3 1295 1328 1294
3 1328 1327 1294
3 1328 1326 1327
3 1294 1327 1291
3 1328 1298 1293
3 1298 1328 1295
