ply
format ascii 1.0
element vertex 1594
property float x
property float y
property float z
element face 3184
property list uchar int vertex_indices
end_header
-9.50000 -2.00000 -7.00000
-10.00000 -2.00000 -7.50000
-10.00000 -2.50000 -7.00000
-10.00000 -2.50000 -6.00000
-9.50000 -2.00000 -6.00000
-10.00000 -2.00000 -5.50000
-9.50000 -1.00000 -7.00000
-10.00000 -1.00000 -7.50000
-9.50000 -1.00000 -6.00000
-10.00000 -1.50000 -5.00000
-9.50000 -1.00000 -5.00000
-10.00000 -1.00000 -4.50000
-10.00000 -0.50000 -7.00000
-9.50000 0.00000 -6.00000
-10.00000 0.00000 -6.50000
-9.50000 0.00000 -5.00000
-10.00000 0.00000 -4.50000
-9.50000 1.00000 -6.00000
-10.00000 1.00000 -6.50000
-9.50000 1.00000 -5.00000
-10.00000 1.00000 -4.50000
-10.00000 1.50000 -6.00000
-9.50000 2.00000 -5.00000
-10.00000 2.00000 -5.50000
-10.00000 1.50000 -4.00000
-9.50000 2.00000 -4.00000
-10.00000 2.00000 -3.50000
-10.00000 2.50000 -5.00000
-9.50000 3.00000 -4.00000
-10.00000 3.00000 -4.50000
-10.00000 3.00000 -3.50000
-10.00000 3.50000 -4.00000
-10.50000 -4.00000 -7.00000
-11.00000 -4.00000 -7.50000
-11.00000 -4.50000 -7.00000
-11.00000 -4.00000 -6.50000
-10.50000 -3.00000 -8.00000
-11.00000 -3.00000 -8.50000
-11.00000 -3.50000 -8.00000
-10.50000 -3.00000 -7.00000
-11.00000 -3.50000 -6.00000
-10.50000 -3.00000 -6.00000
-11.00000 -3.50000 -5.00000
-10.50000 -3.00000 -5.00000
-11.00000 -3.00000 -4.50000
-10.50000 -2.00000 -8.00000
-11.00000 -2.00000 -8.50000
-10.50000 -2.00000 -5.00000
-11.00000 -2.50000 -4.00000
-10.50000 -2.00000 -4.00000
-11.00000 -2.00000 -3.50000
-10.50000 -1.00000 -8.00000
-11.00000 -1.00000 -8.50000
-10.50000 -1.00000 -4.00000
-11.00000 -1.00000 -3.50000
-11.00000 -0.50000 -8.00000
-10.50000 0.00000 -7.00000
-11.00000 0.00000 -7.50000
-10.50000 0.00000 -4.00000
-11.00000 0.00000 -3.50000
-10.50000 1.00000 -7.00000
-11.00000 1.00000 -7.50000
-10.50000 1.00000 -4.00000
-11.00000 0.50000 -3.00000
-10.50000 1.00000 -3.00000
-11.00000 1.00000 -2.50000
-11.00000 1.50000 -7.00000
-10.50000 2.00000 -6.00000
-11.00000 2.00000 -6.50000
-10.50000 2.00000 -3.00000
-11.00000 1.50000 -2.00000
-10.50000 2.00000 -2.00000
-11.00000 1.50000 -1.00000
-10.50000 2.00000 -1.00000
-11.00000 2.00000 -0.50000
-10.50000 3.00000 -6.00000
-11.00000 3.00000 -6.50000
-10.50000 3.00000 -5.00000
-10.50000 3.00000 -3.00000
-10.50000 3.00000 -2.00000
-10.50000 3.00000 -1.00000
-11.00000 3.00000 -0.50000
-11.00000 3.50000 -6.00000
-10.50000 4.00000 -5.00000
-11.00000 4.00000 -5.50000
-10.50000 4.00000 -4.00000
-10.50000 4.00000 -3.00000
-10.50000 4.00000 -2.00000
-11.00000 4.00000 -1.50000
-11.00000 3.50000 -1.00000
-10.50000 5.00000 -5.00000
-11.00000 5.00000 -5.50000
-10.50000 5.00000 -4.00000
-10.50000 5.00000 -3.00000
-10.50000 5.00000 -2.00000
-11.00000 5.00000 -1.50000
-11.00000 5.50000 -5.00000
-11.00000 5.50000 -4.00000
-11.00000 5.50000 -3.00000
-11.00000 5.50000 -2.00000
-11.50000 -4.00000 -8.00000
-12.00000 -4.00000 -8.50000
-12.00000 -4.50000 -8.00000
-12.00000 -4.50000 -7.00000
-12.00000 -4.50000 -6.00000
-11.50000 -4.00000 -6.00000
-12.00000 -4.50000 -5.00000
-11.50000 -4.00000 -5.00000
-12.00000 -4.00000 -4.50000
-11.50000 -3.00000 -9.00000
-12.00000 -3.00000 -9.50000
-12.00000 -3.50000 -9.00000
-12.00000 -3.50000 -4.00000
-11.50000 -3.00000 -4.00000
-12.00000 -3.50000 -3.00000
-11.50000 -3.00000 -3.00000
-12.00000 -3.00000 -2.50000
-11.50000 -2.00000 -9.00000
-12.00000 -2.00000 -9.50000
-11.50000 -2.00000 -3.00000
-12.00000 -2.00000 -2.50000
-12.00000 -1.50000 -9.00000
-12.00000 -1.00000 -8.50000
-11.50000 -1.00000 -3.00000
-12.00000 -1.00000 -2.50000
-11.50000 0.00000 -8.00000
-12.00000 0.00000 -8.50000
-11.50000 0.00000 -3.00000
-12.00000 -0.50000 -2.00000
-11.50000 0.00000 -2.00000
-12.00000 0.00000 -1.50000
-12.00000 0.50000 -8.00000
-12.00000 1.00000 -7.50000
-11.50000 1.00000 -2.00000
-12.00000 0.50000 -1.00000
-11.50000 1.00000 -1.00000
-12.00000 0.50000 0.00000
-11.50000 1.00000 0.00000
-12.00000 0.50000 1.00000
-11.50000 1.00000 1.00000
-12.00000 1.00000 1.50000
-11.50000 2.00000 -7.00000
-12.00000 2.00000 -7.50000
-11.50000 2.00000 0.00000
-11.50000 2.00000 1.00000
-12.00000 2.00000 1.50000
-12.00000 2.50000 -7.00000
-12.00000 3.00000 -6.50000
-11.50000 3.00000 0.00000
-12.00000 3.00000 0.50000
-12.00000 2.50000 1.00000
-11.50000 4.00000 -6.00000
-12.00000 4.00000 -6.50000
-11.50000 4.00000 -1.00000
-11.50000 4.00000 0.00000
-12.00000 4.00000 0.50000
-11.50000 5.00000 -6.00000
-12.00000 5.00000 -6.50000
-11.50000 5.00000 -1.00000
-12.00000 5.00000 -0.50000
-12.00000 4.50000 0.00000
-12.00000 5.50000 -6.00000
-11.50000 6.00000 -5.00000
-12.00000 6.00000 -5.50000
-11.50000 6.00000 -4.00000
-11.50000 6.00000 -3.00000
-11.50000 6.00000 -2.00000
-12.00000 6.00000 -1.50000
-12.00000 5.50000 -1.00000
-12.00000 6.50000 -5.00000
-12.00000 6.50000 -4.00000
-12.00000 6.50000 -3.00000
-12.00000 6.50000 -2.00000
-12.50000 -5.00000 -8.00000
-13.00000 -5.00000 -8.50000
-13.00000 -5.50000 -8.00000
-13.00000 -5.50000 -7.00000
-12.50000 -5.00000 -7.00000
-13.00000 -5.50000 -6.00000
-12.50000 -5.00000 -6.00000
-13.00000 -5.00000 -5.50000
-12.50000 -4.00000 -9.00000
-13.00000 -4.00000 -9.50000
-13.00000 -4.50000 -9.00000
-13.00000 -4.50000 -5.00000
-13.00000 -4.50000 -4.00000
-12.50000 -4.00000 -4.00000
-13.00000 -4.50000 -3.00000
-12.50000 -4.00000 -3.00000
-13.00000 -4.00000 -2.50000
-13.00000 -3.00000 -9.50000
-13.00000 -3.50000 -2.00000
-12.50000 -3.00000 -2.00000
-13.00000 -3.00000 -1.50000
-13.00000 -2.00000 -9.50000
-12.50000 -2.00000 -2.00000
-13.00000 -2.00000 -1.50000
-12.50000 -1.00000 -9.00000
-13.00000 -1.00000 -9.50000
-12.50000 -1.00000 -2.00000
-13.00000 -1.50000 -1.00000
-12.50000 -1.00000 -1.00000
-13.00000 -1.00000 -0.50000
-13.00000 -0.50000 -9.00000
-13.00000 0.00000 -8.50000
-12.50000 0.00000 -1.00000
-13.00000 -0.50000 0.00000
-12.50000 0.00000 0.00000
-13.00000 -0.50000 1.00000
-12.50000 0.00000 1.00000
-13.00000 -0.50000 2.00000
-12.50000 0.00000 2.00000
-13.00000 0.00000 2.50000
-13.00000 0.50000 -8.00000
-13.00000 1.00000 -7.50000
-12.50000 1.00000 2.00000
-13.00000 1.00000 2.50000
-13.00000 2.00000 -7.50000
-12.50000 2.00000 2.00000
-13.00000 2.00000 2.50000
-13.00000 2.50000 -7.00000
-13.00000 3.00000 -6.50000
-12.50000 3.00000 1.00000
-13.00000 3.00000 1.50000
-13.00000 2.50000 2.00000
-13.00000 4.00000 -6.50000
-12.50000 4.00000 1.00000
-13.00000 4.00000 1.50000
-13.00000 5.00000 -6.50000
-12.50000 5.00000 0.00000
-13.00000 5.00000 0.50000
-13.00000 4.50000 1.00000
-12.50000 6.00000 -6.00000
-13.00000 6.00000 -6.50000
-12.50000 6.00000 -1.00000
-13.00000 6.00000 -0.50000
-13.00000 5.50000 0.00000
-13.00000 6.50000 -6.00000
-13.00000 6.50000 -5.00000
-12.50000 7.00000 -4.00000
-13.00000 7.00000 -4.50000
-12.50000 7.00000 -3.00000
-13.00000 7.00000 -2.50000
-13.00000 6.50000 -2.00000
-13.00000 6.50000 -1.00000
-13.00000 7.50000 -4.00000
-13.00000 7.50000 -3.00000
-13.50000 -6.00000 -8.00000
-14.00000 -6.00000 -8.50000
-14.00000 -6.50000 -8.00000
-14.00000 -6.50000 -7.00000
-13.50000 -6.00000 -7.00000
-14.00000 -6.00000 -6.50000
-13.50000 -5.00000 -9.00000
-14.00000 -5.00000 -9.50000
-14.00000 -5.50000 -9.00000
-14.00000 -5.50000 -6.00000
-14.00000 -5.50000 -5.00000
-13.50000 -5.00000 -5.00000
-14.00000 -5.50000 -4.00000
-13.50000 -5.00000 -4.00000
-14.00000 -5.50000 -3.00000
-13.50000 -5.00000 -3.00000
-14.00000 -5.50000 -2.00000
-13.50000 -5.00000 -2.00000
-14.00000 -5.00000 -1.50000
-14.00000 -4.00000 -9.50000
-13.50000 -4.00000 -2.00000
-14.00000 -4.50000 -1.00000
-13.50000 -4.00000 -1.00000
-14.00000 -4.00000 -0.50000
-14.00000 -3.00000 -9.50000
-13.50000 -3.00000 -1.00000
-14.00000 -3.00000 -0.50000
-14.00000 -2.00000 -9.50000
-13.50000 -2.00000 -1.00000
-14.00000 -2.50000 0.00000
-13.50000 -2.00000 0.00000
-14.00000 -2.50000 1.00000
-13.50000 -2.00000 1.00000
-14.00000 -2.00000 1.50000
-14.00000 -1.50000 -9.00000
-13.50000 -1.00000 -9.00000
-14.00000 -1.00000 -8.50000
-13.50000 -1.00000 0.00000
-13.50000 -1.00000 1.00000
-14.00000 -1.50000 2.00000
-13.50000 -1.00000 2.00000
-14.00000 -1.50000 3.00000
-13.50000 -1.00000 3.00000
-14.00000 -1.00000 3.50000
-14.00000 0.00000 -8.50000
-13.50000 0.00000 3.00000
-14.00000 0.00000 3.50000
-14.00000 0.50000 -8.00000
-14.00000 1.00000 -7.50000
-13.50000 1.00000 3.00000
-14.00000 1.00000 3.50000
-14.00000 2.00000 -7.50000
-13.50000 2.00000 3.00000
-14.00000 2.00000 3.50000
-14.00000 2.50000 -7.00000
-14.00000 3.00000 -6.50000
-13.50000 3.00000 2.00000
-14.00000 3.00000 2.50000
-14.00000 2.50000 3.00000
-14.00000 4.00000 -6.50000
-14.00000 3.50000 2.00000
-14.00000 4.00000 1.50000
-13.50000 5.00000 -7.00000
-14.00000 5.00000 -7.50000
-14.00000 4.50000 -7.00000
-14.00000 4.50000 1.00000
-14.00000 5.00000 0.50000
-14.00000 5.50000 -7.00000
-14.00000 6.00000 -6.50000
-14.00000 5.50000 0.00000
-14.00000 6.00000 -0.50000
-14.00000 6.50000 -6.00000
-13.50000 7.00000 -5.00000
-14.00000 7.00000 -5.50000
-13.50000 7.00000 -2.00000
-14.00000 7.00000 -1.50000
-14.00000 6.50000 -1.00000
-14.00000 7.50000 -5.00000
-14.00000 7.50000 -4.00000
-14.00000 7.50000 -3.00000
-14.00000 7.50000 -2.00000
-14.50000 -7.00000 -8.00000
-15.00000 -7.00000 -8.50000
-15.00000 -7.50000 -8.00000
-15.00000 -7.00000 -7.50000
-14.50000 -6.00000 -9.00000
-15.00000 -6.00000 -9.50000
-15.00000 -6.50000 -9.00000
-15.00000 -6.50000 -7.00000
-15.00000 -6.50000 -6.00000
-14.50000 -6.00000 -6.00000
-15.00000 -6.50000 -5.00000
-14.50000 -6.00000 -5.00000
-15.00000 -6.00000 -4.50000
-15.00000 -5.00000 -9.50000
-15.00000 -5.50000 -4.00000
-15.00000 -5.50000 -3.00000
-15.00000 -5.50000 -2.00000
-15.00000 -5.50000 -1.00000
-14.50000 -5.00000 -1.00000
-15.00000 -5.00000 -0.50000
-15.00000 -4.00000 -9.50000
-15.00000 -4.50000 0.00000
-14.50000 -4.00000 0.00000
-15.00000 -4.00000 0.50000
-15.00000 -3.00000 -9.50000
-14.50000 -3.00000 0.00000
-15.00000 -3.50000 1.00000
-14.50000 -3.00000 1.00000
-15.00000 -3.50000 2.00000
-14.50000 -3.00000 2.00000
-15.00000 -3.00000 2.50000
-15.00000 -2.00000 -9.50000
-14.50000 -2.00000 2.00000
-15.00000 -2.50000 3.00000
-14.50000 -2.00000 3.00000
-15.00000 -2.50000 4.00000
-14.50000 -2.00000 4.00000
-15.00000 -2.00000 4.50000
-15.00000 -1.50000 -9.00000
-15.00000 -1.00000 -8.50000
-14.50000 -1.00000 4.00000
-15.00000 -1.00000 4.50000
-15.00000 0.00000 -8.50000
-14.50000 0.00000 4.00000
-15.00000 0.00000 4.50000
-15.00000 0.50000 -8.00000
-15.00000 1.00000 -7.50000
-14.50000 1.00000 4.00000
-15.00000 1.00000 4.50000
-15.00000 2.00000 -7.50000
-15.00000 1.50000 4.00000
-15.00000 2.00000 3.50000
-15.00000 2.50000 -7.00000
-15.00000 3.00000 -6.50000
-14.50000 3.00000 3.00000
-15.00000 3.00000 3.50000
-14.50000 4.00000 -7.00000
-15.00000 4.00000 -7.50000
-15.00000 3.50000 -7.00000
-14.50000 4.00000 2.00000
-15.00000 4.00000 2.50000
-15.00000 3.50000 3.00000
-14.50000 5.00000 -7.00000
-15.00000 4.50000 -7.00000
-15.00000 5.00000 -6.50000
-14.50000 5.00000 1.00000
-15.00000 5.00000 1.50000
-15.00000 4.50000 2.00000
-14.50000 6.00000 -6.00000
-15.00000 5.50000 -6.00000
-15.00000 6.00000 -5.50000
-14.50000 6.00000 0.00000
-15.00000 6.00000 0.50000
-15.00000 5.50000 1.00000
-14.50000 7.00000 -5.00000
-15.00000 6.50000 -5.00000
-15.00000 7.00000 -4.50000
-14.50000 7.00000 -1.00000
-15.00000 7.00000 -0.50000
-15.00000 6.50000 0.00000
-15.00000 7.50000 -4.00000
-15.00000 7.50000 -3.00000
-15.00000 7.50000 -2.00000
-15.00000 7.50000 -1.00000
-15.50000 -8.00000 -8.00000
-16.00000 -8.00000 -8.50000
-16.00000 -8.50000 -8.00000
-16.00000 -8.00000 -7.50000
-15.50000 -7.00000 -9.00000
-16.00000 -7.00000 -9.50000
-16.00000 -7.50000 -9.00000
-16.00000 -7.50000 -7.00000
-15.50000 -7.00000 -7.00000
-16.00000 -7.50000 -6.00000
-15.50000 -7.00000 -6.00000
-16.00000 -7.00000 -5.50000
-16.00000 -6.00000 -9.50000
-16.00000 -6.50000 -5.00000
-16.00000 -6.50000 -4.00000
-15.50000 -6.00000 -4.00000
-16.00000 -6.50000 -3.00000
-15.50000 -6.00000 -3.00000
-16.00000 -6.50000 -2.00000
-15.50000 -6.00000 -2.00000
-16.00000 -6.50000 -1.00000
-15.50000 -6.00000 -1.00000
-16.00000 -6.50000 0.00000
-15.50000 -6.00000 0.00000
-16.00000 -6.00000 0.50000
-16.00000 -5.00000 -9.50000
-15.50000 -5.00000 0.00000
-16.00000 -5.50000 1.00000
-15.50000 -5.00000 1.00000
-16.00000 -5.00000 1.50000
-16.00000 -4.00000 -9.50000
-15.50000 -4.00000 1.00000
-16.00000 -4.50000 2.00000
-15.50000 -4.00000 2.00000
-16.00000 -4.50000 3.00000
-15.50000 -4.00000 3.00000
-16.00000 -4.00000 3.50000
-16.00000 -3.00000 -9.50000
-15.50000 -3.00000 3.00000
-16.00000 -3.50000 4.00000
-15.50000 -3.00000 4.00000
-16.00000 -3.00000 4.50000
-16.00000 -2.00000 -9.50000
-16.00000 -2.50000 5.00000
-15.50000 -2.00000 5.00000
-16.00000 -2.00000 5.50000
-16.00000 -1.50000 -9.00000
-16.00000 -1.00000 -8.50000
-15.50000 -1.00000 5.00000
-16.00000 -1.00000 5.50000
-16.00000 0.00000 -8.50000
-16.00000 -0.50000 5.00000
-16.00000 0.00000 4.50000
-15.50000 1.00000 -8.00000
-16.00000 1.00000 -8.50000
-16.00000 1.00000 4.50000
-16.00000 1.50000 -8.00000
-16.00000 2.00000 -7.50000
-15.50000 2.00000 4.00000
-16.00000 2.00000 4.50000
-15.50000 3.00000 -7.00000
-16.00000 3.00000 -7.50000
-16.00000 2.50000 4.00000
-16.00000 3.00000 3.50000
-16.00000 4.00000 -7.50000
-16.00000 3.50000 3.00000
-16.00000 4.00000 2.50000
-16.00000 4.50000 -7.00000
-16.00000 5.00000 -6.50000
-16.00000 4.50000 2.00000
-16.00000 5.00000 1.50000
-16.00000 5.50000 -6.00000
-16.00000 6.00000 -5.50000
-15.50000 6.00000 1.00000
-16.00000 6.00000 1.50000
-16.00000 6.50000 -5.00000
-15.50000 7.00000 -4.00000
-16.00000 6.50000 -4.00000
-16.00000 7.00000 -3.50000
-15.50000 7.00000 0.00000
-16.00000 7.00000 0.50000
-16.00000 6.50000 1.00000
-16.00000 7.50000 -3.00000
-16.00000 7.50000 -2.00000
-16.00000 7.50000 -1.00000
-16.00000 7.50000 0.00000
-17.00000 -8.00000 -8.50000
-17.00000 -8.50000 -8.00000
-17.00000 -8.50000 -7.00000
-16.50000 -8.00000 -7.00000
-17.00000 -8.50000 -6.00000
-16.50000 -8.00000 -6.00000
-17.00000 -8.00000 -5.50000
-16.50000 -8.00000 -1.00000
-17.00000 -8.00000 -1.50000
-17.00000 -8.50000 -1.00000
-17.00000 -8.00000 -0.50000
-17.00000 -7.00000 -9.50000
-17.00000 -7.50000 -9.00000
-17.00000 -7.50000 -5.00000
-16.50000 -7.00000 -5.00000
-17.00000 -7.50000 -4.00000
-16.50000 -7.00000 -4.00000
-17.00000 -7.50000 -3.00000
-16.50000 -7.00000 -3.00000
-17.00000 -7.50000 -2.00000
-16.50000 -7.00000 -2.00000
-16.50000 -7.00000 -1.00000
-17.00000 -7.50000 0.00000
-16.50000 -7.00000 0.00000
-17.00000 -7.00000 0.50000
-17.00000 -6.00000 -9.50000
-17.00000 -6.50000 1.00000
-16.50000 -6.00000 1.00000
-17.00000 -6.50000 2.00000
-16.50000 -6.00000 2.00000
-17.00000 -6.00000 2.50000
-17.00000 -5.00000 -9.50000
-16.50000 -5.00000 2.00000
-17.00000 -5.50000 3.00000
-16.50000 -5.00000 3.00000
-17.00000 -5.50000 4.00000
-16.50000 -5.00000 4.00000
-17.00000 -5.00000 4.50000
-17.00000 -4.00000 -9.50000
-16.50000 -4.00000 4.00000
-17.00000 -4.50000 5.00000
-16.50000 -4.00000 5.00000
-17.00000 -4.00000 5.50000
-17.00000 -3.00000 -9.50000
-16.50000 -3.00000 5.00000
-17.00000 -3.00000 5.50000
-17.00000 -2.50000 -9.00000
-16.50000 -2.00000 -9.00000
-17.00000 -2.00000 -8.50000
-17.00000 -2.00000 5.50000
-17.00000 -1.00000 -8.50000
-17.00000 -1.00000 5.50000
-17.00000 0.00000 -8.50000
-16.50000 0.00000 5.00000
-17.00000 0.00000 5.50000
-17.00000 1.00000 -8.50000
-17.00000 0.50000 5.00000
-17.00000 1.00000 4.50000
-16.50000 2.00000 -8.00000
-17.00000 2.00000 -8.50000
-17.00000 2.00000 4.50000
-16.50000 3.00000 -8.00000
-17.00000 3.00000 -8.50000
-16.50000 3.00000 4.00000
-17.00000 3.00000 4.50000
-17.00000 3.50000 -8.00000
-17.00000 3.50000 -7.00000
-16.50000 4.00000 -7.00000
-17.00000 4.00000 -6.50000
-16.50000 4.00000 3.00000
-17.00000 4.00000 3.50000
-17.00000 3.50000 4.00000
-16.50000 5.00000 -6.00000
-17.00000 4.50000 -6.00000
-17.00000 5.00000 -5.50000
-16.50000 5.00000 2.00000
-17.00000 5.00000 2.50000
-17.00000 4.50000 3.00000
-16.50000 6.00000 -5.00000
-17.00000 5.50000 -5.00000
-16.50000 6.00000 -4.00000
-17.00000 5.50000 -4.00000
-17.00000 6.00000 -3.50000
-17.00000 5.50000 2.00000
-17.00000 6.00000 1.50000
-16.50000 7.00000 -3.00000
-17.00000 6.50000 -3.00000
-16.50000 7.00000 -2.00000
-17.00000 6.50000 -2.00000
-17.00000 7.00000 -1.50000
-17.00000 6.50000 1.00000
-17.00000 7.00000 0.50000
-17.00000 7.50000 -1.00000
-17.00000 7.50000 0.00000
-17.50000 -9.00000 -8.00000
-18.00000 -9.00000 -8.50000
-18.00000 -9.50000 -8.00000
-18.00000 -9.50000 -7.00000
-17.50000 -9.00000 -7.00000
-18.00000 -9.50000 -6.00000
-17.50000 -9.00000 -6.00000
-18.00000 -9.50000 -5.00000
-17.50000 -9.00000 -5.00000
-18.00000 -9.50000 -4.00000
-17.50000 -9.00000 -4.00000
-18.00000 -9.50000 -3.00000
-17.50000 -9.00000 -3.00000
-18.00000 -9.50000 -2.00000
-17.50000 -9.00000 -2.00000
-18.00000 -9.00000 -1.50000
-18.00000 -8.00000 -8.50000
-17.50000 -8.00000 -5.00000
-17.50000 -8.00000 -4.00000
-17.50000 -8.00000 -3.00000
-17.50000 -8.00000 -2.00000
-18.00000 -8.50000 -1.00000
-18.00000 -8.50000 0.00000
-17.50000 -8.00000 0.00000
-18.00000 -8.50000 1.00000
-17.50000 -8.00000 1.00000
-18.00000 -8.00000 1.50000
-18.00000 -7.00000 -9.50000
-18.00000 -7.50000 -9.00000
-17.50000 -7.00000 1.00000
-18.00000 -7.50000 2.00000
-17.50000 -7.00000 2.00000
-18.00000 -7.50000 3.00000
-17.50000 -7.00000 3.00000
-18.00000 -7.00000 3.50000
-18.00000 -6.00000 -9.50000
-17.50000 -6.00000 3.00000
-18.00000 -6.50000 4.00000
-17.50000 -6.00000 4.00000
-18.00000 -6.00000 4.50000
-18.00000 -5.00000 -9.50000
-18.00000 -5.50000 5.00000
-17.50000 -5.00000 5.00000
-18.00000 -5.00000 5.50000
-18.00000 -4.00000 -9.50000
-18.00000 -4.00000 5.50000
-18.00000 -3.50000 -9.00000
-17.50000 -3.00000 -9.00000
-18.00000 -3.00000 -8.50000
-18.00000 -3.00000 5.50000
-18.00000 -2.00000 -8.50000
-18.00000 -2.00000 5.50000
-18.00000 -1.00000 -8.50000
-18.00000 -1.00000 5.50000
-18.00000 0.00000 -8.50000
-18.00000 0.00000 5.50000
-18.00000 1.00000 -8.50000
-17.50000 1.00000 5.00000
-18.00000 1.00000 5.50000
-18.00000 2.00000 -8.50000
-18.00000 1.50000 5.00000
-18.00000 2.00000 4.50000
-18.00000 2.50000 -8.00000
-17.50000 3.00000 -8.00000
-18.00000 3.00000 -7.50000
-18.00000 3.00000 4.50000
-18.00000 3.50000 -7.00000
-18.00000 4.00000 -6.50000
-17.50000 4.00000 4.00000
-18.00000 4.00000 4.50000
-18.00000 4.50000 -6.00000
-17.50000 5.00000 -5.00000
-18.00000 4.50000 -5.00000
-18.00000 5.00000 -4.50000
-17.50000 5.00000 3.00000
-18.00000 5.00000 3.50000
-18.00000 4.50000 4.00000
-18.00000 5.50000 -4.00000
-17.50000 6.00000 -3.00000
-18.00000 5.50000 -3.00000
-17.50000 6.00000 -2.00000
-18.00000 5.50000 -2.00000
-18.00000 6.00000 -1.50000
-17.50000 6.00000 1.00000
-18.00000 5.50000 1.00000
-18.00000 6.00000 0.50000
-18.00000 5.50000 2.00000
-18.00000 5.50000 3.00000
-17.50000 7.00000 -1.00000
-18.00000 6.50000 -1.00000
-17.50000 7.00000 0.00000
-18.00000 6.50000 0.00000
-18.50000 -10.00000 -7.00000
-19.00000 -10.00000 -7.50000
-19.00000 -10.50000 -7.00000
-19.00000 -10.50000 -6.00000
-18.50000 -10.00000 -6.00000
-19.00000 -10.50000 -5.00000
-18.50000 -10.00000 -5.00000
-19.00000 -10.50000 -4.00000
-18.50000 -10.00000 -4.00000
-19.00000 -10.50000 -3.00000
-18.50000 -10.00000 -3.00000
-19.00000 -10.50000 -2.00000
-18.50000 -10.00000 -2.00000
-19.00000 -10.00000 -1.50000
-19.00000 -9.00000 -8.50000
-19.00000 -9.50000 -8.00000
-19.00000 -9.50000 -1.00000
-18.50000 -9.00000 -1.00000
-19.00000 -9.50000 0.00000
-18.50000 -9.00000 0.00000
-19.00000 -9.50000 1.00000
-18.50000 -9.00000 1.00000
-19.00000 -9.00000 1.50000
-19.00000 -8.00000 -8.50000
-19.00000 -8.50000 2.00000
-18.50000 -8.00000 2.00000
-19.00000 -8.50000 3.00000
-18.50000 -8.00000 3.00000
-19.00000 -8.00000 3.50000
-19.00000 -7.00000 -9.50000
-19.00000 -7.50000 -9.00000
-19.00000 -7.50000 4.00000
-18.50000 -7.00000 4.00000
-19.00000 -7.00000 4.50000
-19.00000 -6.00000 -9.50000
-19.00000 -6.50000 5.00000
-18.50000 -6.00000 5.00000
-19.00000 -6.00000 5.50000
-19.00000 -5.00000 -9.50000
-19.00000 -5.00000 5.50000
-19.00000 -4.50000 -9.00000
-18.50000 -4.00000 -9.00000
-19.00000 -4.00000 -8.50000
-19.00000 -4.50000 6.00000
-18.50000 -4.00000 6.00000
-19.00000 -4.00000 6.50000
-19.00000 -3.00000 -8.50000
-18.50000 -3.00000 6.00000
-19.00000 -3.00000 6.50000
-19.00000 -2.00000 -8.50000
-18.50000 -2.00000 6.00000
-19.00000 -2.00000 6.50000
-19.00000 -1.00000 -8.50000
-18.50000 -1.00000 6.00000
-19.00000 -1.00000 6.50000
-19.00000 0.00000 -8.50000
-18.50000 0.00000 6.00000
-19.00000 0.00000 6.50000
-19.00000 1.00000 -8.50000
-19.00000 0.50000 6.00000
-19.00000 1.00000 5.50000
-19.00000 2.00000 -8.50000
-18.50000 2.00000 5.00000
-19.00000 2.00000 5.50000
-19.00000 2.50000 -8.00000
-18.50000 3.00000 -7.00000
-19.00000 2.50000 -7.00000
-19.00000 3.00000 -6.50000
-19.00000 2.50000 5.00000
-19.00000 3.00000 4.50000
-18.50000 4.00000 -6.00000
-19.00000 3.50000 -6.00000
-18.50000 4.00000 -5.00000
-19.00000 3.50000 -5.00000
-19.00000 4.00000 -4.50000
-18.50000 4.00000 3.00000
-19.00000 3.50000 3.00000
-19.00000 4.00000 2.50000
-18.50000 4.00000 4.00000
-19.00000 3.50000 4.00000
-18.50000 5.00000 -4.00000
-19.00000 4.50000 -4.00000
-18.50000 5.00000 -3.00000
-19.00000 4.50000 -3.00000
-19.00000 5.00000 -2.50000
-18.50000 5.00000 0.00000
-19.00000 4.50000 0.00000
-19.00000 5.00000 -0.50000
-18.50000 5.00000 1.00000
-19.00000 4.50000 1.00000
-18.50000 5.00000 2.00000
-19.00000 4.50000 2.00000
-18.50000 5.00000 3.00000
-19.00000 5.50000 -2.00000
-18.50000 6.00000 -1.00000
-19.00000 5.50000 -1.00000
-18.50000 6.00000 0.00000
-19.50000 -12.00000 -4.00000
-20.00000 -12.00000 -4.50000
-20.00000 -12.50000 -4.00000
-20.00000 -12.50000 -3.00000
-19.50000 -12.00000 -3.00000
-20.00000 -12.00000 -2.50000
-19.50000 -11.00000 -5.00000
-20.00000 -11.00000 -5.50000
-20.00000 -11.50000 -5.00000
-19.50000 -11.00000 -4.00000
-19.50000 -11.00000 -3.00000
-20.00000 -11.50000 -2.00000
-19.50000 -11.00000 -2.00000
-20.00000 -11.00000 -1.50000
-20.00000 -10.00000 -7.50000
-20.00000 -10.50000 -7.00000
-20.00000 -10.50000 -6.00000
-20.00000 -10.50000 -1.00000
-19.50000 -10.00000 -1.00000
-20.00000 -10.50000 0.00000
-19.50000 -10.00000 0.00000
-20.00000 -10.50000 1.00000
-19.50000 -10.00000 1.00000
-20.00000 -10.00000 1.50000
-20.00000 -9.00000 -8.50000
-20.00000 -9.50000 -8.00000
-20.00000 -9.50000 2.00000
-19.50000 -9.00000 2.00000
-20.00000 -9.50000 3.00000
-19.50000 -9.00000 3.00000
-20.00000 -9.50000 4.00000
-19.50000 -9.00000 4.00000
-20.00000 -9.00000 4.50000
-20.00000 -8.00000 -8.50000
-19.50000 -8.00000 4.00000
-20.00000 -8.50000 5.00000
-19.50000 -8.00000 5.00000
-20.00000 -8.00000 5.50000
-19.50000 -7.00000 -9.00000
-20.00000 -7.00000 -8.50000
-19.50000 -7.00000 5.00000
-20.00000 -7.00000 5.50000
-19.50000 -6.00000 -9.00000
-20.00000 -6.00000 -8.50000
-20.00000 -6.50000 6.00000
-19.50000 -6.00000 6.00000
-20.00000 -6.00000 6.50000
-19.50000 -5.00000 -9.00000
-20.00000 -5.00000 -8.50000
-19.50000 -5.00000 6.00000
-20.00000 -5.00000 6.50000
-20.00000 -4.00000 -8.50000
-20.00000 -4.00000 6.50000
-20.00000 -3.50000 -8.00000
-19.50000 -3.00000 -8.00000
-20.00000 -3.00000 -7.50000
-20.00000 -3.00000 6.50000
-20.00000 -2.00000 -8.50000
-20.00000 -2.50000 -8.00000
-20.00000 -2.00000 6.50000
-20.00000 -1.00000 -8.50000
-20.00000 -1.00000 6.50000
-20.00000 0.00000 -8.50000
-19.50000 0.00000 6.00000
-20.00000 -0.50000 6.00000
-20.00000 0.00000 5.50000
-20.00000 1.00000 -8.50000
-19.50000 1.00000 5.00000
-20.00000 0.50000 5.00000
-20.00000 1.00000 4.50000
-20.00000 1.50000 -8.00000
-19.50000 2.00000 -8.00000
-19.50000 2.00000 -7.00000
-20.00000 1.50000 -7.00000
-20.00000 2.00000 -6.50000
-19.50000 2.00000 4.00000
-20.00000 1.50000 4.00000
-20.00000 2.00000 3.50000
-19.50000 2.00000 5.00000
-19.50000 3.00000 -6.00000
-20.00000 2.50000 -6.00000
-19.50000 3.00000 -5.00000
-20.00000 2.50000 -5.00000
-20.00000 3.00000 -4.50000
-19.50000 3.00000 3.00000
-20.00000 2.50000 3.00000
-20.00000 3.00000 2.50000
-19.50000 3.00000 4.00000
-19.50000 4.00000 -4.00000
-20.00000 3.50000 -4.00000
-20.00000 4.00000 -3.50000
-19.50000 4.00000 0.00000
-20.00000 3.50000 0.00000
-20.00000 4.00000 -0.50000
-19.50000 4.00000 1.00000
-20.00000 3.50000 1.00000
-19.50000 4.00000 2.00000
-20.00000 3.50000 2.00000
-20.00000 4.50000 -3.00000
-19.50000 5.00000 -2.00000
-20.00000 4.50000 -2.00000
-19.50000 5.00000 -1.00000
-20.00000 4.50000 -1.00000
-20.50000 -13.00000 -5.00000
-21.00000 -13.00000 -5.50000
-21.00000 -13.50000 -5.00000
-21.00000 -13.50000 -4.00000
-20.50000 -13.00000 -4.00000
-21.00000 -13.50000 -3.00000
-20.50000 -13.00000 -3.00000
-21.00000 -13.50000 -2.00000
-20.50000 -13.00000 -2.00000
-21.00000 -13.50000 -1.00000
-20.50000 -13.00000 -1.00000
-21.00000 -13.00000 -0.50000
-20.50000 -12.00000 -5.00000
-21.00000 -12.00000 -5.50000
-20.50000 -12.00000 -2.00000
-20.50000 -12.00000 -1.00000
-21.00000 -12.50000 0.00000
-20.50000 -12.00000 0.00000
-21.00000 -12.00000 0.50000
-20.50000 -11.00000 -7.00000
-21.00000 -11.00000 -7.50000
-21.00000 -11.50000 -7.00000
-21.00000 -11.50000 -6.00000
-20.50000 -11.00000 -6.00000
-20.50000 -11.00000 -1.00000
-20.50000 -11.00000 0.00000
-21.00000 -11.50000 1.00000
-20.50000 -11.00000 1.00000
-21.00000 -11.00000 1.50000
-21.00000 -10.00000 -7.50000
-21.00000 -10.50000 2.00000
-20.50000 -10.00000 2.00000
-21.00000 -10.50000 3.00000
-20.50000 -10.00000 3.00000
-21.00000 -10.00000 3.50000
-21.00000 -9.00000 -8.50000
-21.00000 -9.50000 -8.00000
-21.00000 -9.50000 4.00000
-21.00000 -9.50000 5.00000
-20.50000 -9.00000 5.00000
-21.00000 -9.00000 5.50000
-21.00000 -8.00000 -8.50000
-21.00000 -8.00000 5.50000
-21.00000 -7.00000 -8.50000
-21.00000 -7.50000 6.00000
-20.50000 -7.00000 6.00000
-21.00000 -7.00000 6.50000
-21.00000 -6.00000 -8.50000
-21.00000 -6.00000 6.50000
-21.00000 -5.50000 -8.00000
-20.50000 -5.00000 -8.00000
-21.00000 -5.00000 -7.50000
-21.00000 -5.00000 6.50000
-20.50000 -4.00000 -8.00000
-21.00000 -4.00000 -7.50000
-21.00000 -4.50000 7.00000
-20.50000 -4.00000 7.00000
-21.00000 -4.00000 7.50000
-21.00000 -3.00000 -7.50000
-21.00000 -3.50000 7.00000
-21.00000 -3.00000 6.50000
-21.00000 -2.00000 -8.50000
-21.00000 -2.50000 -8.00000
-20.50000 -2.00000 6.00000
-21.00000 -2.50000 6.00000
-21.00000 -2.00000 5.50000
-21.00000 -1.00000 -8.50000
-20.50000 -1.00000 5.00000
-21.00000 -1.50000 5.00000
-21.00000 -1.00000 4.50000
-20.50000 -1.00000 6.00000
-21.00000 0.00000 -8.50000
-20.50000 0.00000 4.00000
-21.00000 -0.50000 4.00000
-21.00000 0.00000 3.50000
-20.50000 0.00000 5.00000
-21.00000 0.50000 -8.00000
-20.50000 1.00000 -8.00000
-20.50000 1.00000 -7.00000
-21.00000 0.50000 -7.00000
-21.00000 1.00000 -6.50000
-20.50000 1.00000 3.00000
-21.00000 0.50000 3.00000
-21.00000 1.00000 2.50000
-20.50000 1.00000 4.00000
-20.50000 2.00000 -6.00000
-21.00000 1.50000 -6.00000
-20.50000 2.00000 -5.00000
-21.00000 1.50000 -5.00000
-21.00000 2.00000 -4.50000
-20.50000 2.00000 2.00000
-21.00000 1.50000 2.00000
-21.00000 2.00000 1.50000
-20.50000 2.00000 3.00000
-20.50000 3.00000 -4.00000
-21.00000 2.50000 -4.00000
-21.00000 3.00000 -3.50000
-20.50000 3.00000 0.00000
-21.00000 2.50000 0.00000
-21.00000 3.00000 -0.50000
-20.50000 3.00000 1.00000
-21.00000 2.50000 1.00000
-20.50000 3.00000 2.00000
-20.50000 4.00000 -3.00000
-21.00000 3.50000 -3.00000
-20.50000 4.00000 -2.00000
-21.00000 3.50000 -2.00000
-20.50000 4.00000 -1.00000
-21.00000 3.50000 -1.00000
-21.50000 -14.00000 -5.00000
-22.00000 -14.00000 -5.50000
-22.00000 -14.50000 -5.00000
-22.00000 -14.50000 -4.00000
-21.50000 -14.00000 -4.00000
-22.00000 -14.50000 -3.00000
-21.50000 -14.00000 -3.00000
-22.00000 -14.50000 -2.00000
-21.50000 -14.00000 -2.00000
-22.00000 -14.50000 -1.00000
-21.50000 -14.00000 -1.00000
-22.00000 -14.00000 -0.50000
-22.00000 -13.00000 -5.50000
-22.00000 -13.50000 0.00000
-21.50000 -13.00000 0.00000
-22.00000 -13.50000 1.00000
-21.50000 -13.00000 1.00000
-22.00000 -13.00000 1.50000
-21.50000 -12.00000 -6.00000
-22.00000 -12.00000 -6.50000
-22.00000 -12.50000 -6.00000
-21.50000 -12.00000 1.00000
-22.00000 -12.50000 2.00000
-21.50000 -12.00000 2.00000
-22.00000 -12.00000 2.50000
-22.00000 -11.00000 -7.50000
-22.00000 -11.50000 -7.00000
-21.50000 -11.00000 2.00000
-22.00000 -11.50000 3.00000
-21.50000 -11.00000 3.00000
-22.00000 -11.00000 3.50000
-21.50000 -10.00000 -8.00000
-22.00000 -10.00000 -8.50000
-22.00000 -10.50000 -8.00000
-22.00000 -10.50000 4.00000
-21.50000 -10.00000 4.00000
-22.00000 -10.00000 4.50000
-22.00000 -9.00000 -8.50000
-22.00000 -9.50000 5.00000
-22.00000 -9.00000 5.50000
-22.00000 -8.00000 -8.50000
-22.00000 -8.50000 6.00000
-21.50000 -8.00000 6.00000
-22.00000 -8.00000 6.50000
-22.00000 -7.50000 -8.00000
-21.50000 -7.00000 -8.00000
-22.00000 -7.00000 -7.50000
-22.00000 -7.50000 7.00000
-21.50000 -7.00000 7.00000
-22.00000 -7.00000 7.50000
-21.50000 -6.00000 -8.00000
-22.00000 -6.50000 -7.00000
-21.50000 -6.00000 -7.00000
-22.00000 -6.00000 -6.50000
-21.50000 -6.00000 7.00000
-22.00000 -6.00000 7.50000
-21.50000 -5.00000 -7.00000
-22.00000 -5.00000 -6.50000
-22.00000 -5.50000 7.00000
-22.00000 -5.00000 6.50000
-22.00000 -4.00000 -7.50000
-22.00000 -4.50000 -7.00000
-21.50000 -4.00000 6.00000
-22.00000 -4.50000 6.00000
-22.00000 -4.00000 5.50000
-21.50000 -4.00000 7.00000
-22.00000 -3.00000 -7.50000
-21.50000 -3.00000 5.00000
-22.00000 -3.50000 5.00000
-22.00000 -3.00000 4.50000
-21.50000 -3.00000 6.00000
-21.50000 -2.00000 -8.00000
-22.00000 -2.00000 -7.50000
-21.50000 -2.00000 5.00000
-22.00000 -2.00000 4.50000
-21.50000 -1.00000 -8.00000
-22.00000 -1.00000 -7.50000
-21.50000 -1.00000 4.00000
-22.00000 -1.50000 4.00000
-22.00000 -1.00000 3.50000
-21.50000 0.00000 -8.00000
-22.00000 -0.50000 -7.00000
-21.50000 0.00000 -7.00000
-21.50000 0.00000 -6.00000
-22.00000 -0.50000 -6.00000
-22.00000 0.00000 -5.50000
-21.50000 0.00000 2.00000
-22.00000 -0.50000 2.00000
-22.00000 0.00000 1.50000
-21.50000 0.00000 3.00000
-22.00000 -0.50000 3.00000
-21.50000 1.00000 -6.00000
-22.00000 0.50000 -5.00000
-21.50000 1.00000 -5.00000
-22.00000 1.00000 -4.50000
-21.50000 1.00000 1.00000
-22.00000 0.50000 1.00000
-22.00000 1.00000 0.50000
-21.50000 1.00000 2.00000
-21.50000 2.00000 -4.00000
-22.00000 1.50000 -4.00000
-21.50000 2.00000 -3.00000
-22.00000 1.50000 -3.00000
-21.50000 2.00000 -2.00000
-22.00000 1.50000 -2.00000
-21.50000 2.00000 -1.00000
-22.00000 1.50000 -1.00000
-21.50000 2.00000 0.00000
-22.00000 1.50000 0.00000
-21.50000 2.00000 1.00000
-21.50000 3.00000 -3.00000
-21.50000 3.00000 -2.00000
-21.50000 3.00000 -1.00000
-22.50000 -16.00000 -2.00000
-23.00000 -16.00000 -2.50000
-23.00000 -16.50000 -2.00000
-23.00000 -16.00000 -1.50000
-22.50000 -15.00000 -4.00000
-23.00000 -15.00000 -4.50000
-23.00000 -15.50000 -4.00000
-23.00000 -15.50000 -3.00000
-22.50000 -15.00000 -3.00000
-22.50000 -15.00000 -2.00000
-23.00000 -15.50000 -1.00000
-22.50000 -15.00000 -1.00000
-23.00000 -15.00000 -0.50000
-23.00000 -14.00000 -5.50000
-23.00000 -14.50000 -5.00000
-23.00000 -14.50000 0.00000
-22.50000 -14.00000 0.00000
-23.00000 -14.50000 1.00000
-22.50000 -14.00000 1.00000
-23.00000 -14.00000 1.50000
-22.50000 -13.00000 -6.00000
-23.00000 -13.00000 -6.50000
-23.00000 -13.50000 -6.00000
-23.00000 -13.50000 2.00000
-22.50000 -13.00000 2.00000
-23.00000 -13.00000 2.50000
-23.00000 -12.00000 -6.50000
-23.00000 -12.50000 3.00000
-22.50000 -12.00000 3.00000
-23.00000 -12.00000 3.50000
-23.00000 -11.00000 -7.50000
-23.00000 -11.50000 -7.00000
-23.00000 -11.50000 4.00000
-22.50000 -11.00000 4.00000
-23.00000 -11.00000 4.50000
-22.50000 -10.00000 -8.00000
-23.00000 -10.00000 -7.50000
-23.00000 -10.50000 5.00000
-22.50000 -10.00000 5.00000
-23.00000 -10.00000 5.50000
-22.50000 -9.00000 -8.00000
-23.00000 -9.00000 -7.50000
-23.00000 -9.50000 6.00000
-22.50000 -9.00000 6.00000
-23.00000 -9.00000 6.50000
-22.50000 -8.00000 -8.00000
-23.00000 -8.00000 -7.50000
-23.00000 -8.00000 6.50000
-22.50000 -7.00000 -7.00000
-23.00000 -7.50000 -7.00000
-23.00000 -7.00000 -6.50000
-22.50000 -7.00000 7.00000
-23.00000 -7.00000 6.50000
-23.00000 -6.00000 -6.50000
-22.50000 -6.00000 6.00000
-23.00000 -6.50000 6.00000
-23.00000 -6.00000 5.50000
-22.50000 -6.00000 7.00000
-23.00000 -5.00000 -6.50000
-22.50000 -5.00000 5.00000
-23.00000 -5.50000 5.00000
-23.00000 -5.00000 4.50000
-22.50000 -5.00000 6.00000
-22.50000 -4.00000 -7.00000
-23.00000 -4.00000 -6.50000
-22.50000 -4.00000 5.00000
-23.00000 -4.00000 4.50000
-22.50000 -3.00000 -7.00000
-23.00000 -3.00000 -6.50000
-22.50000 -3.00000 4.00000
-23.00000 -3.50000 4.00000
-23.00000 -3.00000 3.50000
-22.50000 -2.00000 -7.00000
-23.00000 -2.50000 -6.00000
-22.50000 -2.00000 -6.00000
-23.00000 -2.00000 -5.50000
-22.50000 -2.00000 3.00000
-23.00000 -2.50000 3.00000
-23.00000 -2.00000 2.50000
-22.50000 -2.00000 4.00000
-22.50000 -1.00000 -7.00000
-22.50000 -1.00000 -6.00000
-23.00000 -1.50000 -5.00000
-22.50000 -1.00000 -5.00000
-23.00000 -1.00000 -4.50000
-22.50000 -1.00000 1.00000
-23.00000 -1.50000 1.00000
-23.00000 -1.00000 0.50000
-22.50000 -1.00000 2.00000
-23.00000 -1.50000 2.00000
-22.50000 -1.00000 3.00000
-22.50000 0.00000 -5.00000
-23.00000 -0.50000 -4.00000
-22.50000 0.00000 -4.00000
-22.50000 0.00000 -3.00000
-23.00000 -0.50000 -3.00000
-23.00000 0.00000 -2.50000
-22.50000 0.00000 0.00000
-23.00000 -0.50000 0.00000
-23.00000 0.00000 -0.50000
-22.50000 0.00000 1.00000
-22.50000 1.00000 -4.00000
-22.50000 1.00000 -3.00000
-23.00000 0.50000 -2.00000
-22.50000 1.00000 -2.00000
-22.50000 1.00000 -1.00000
-23.00000 0.50000 -1.00000
-22.50000 1.00000 0.00000
-23.50000 -16.00000 -3.00000
-24.00000 -16.00000 -3.50000
-24.00000 -16.50000 -3.00000
-24.00000 -16.50000 -2.00000
-24.00000 -16.50000 -1.00000
-23.50000 -16.00000 -1.00000
-24.00000 -16.50000 0.00000
-23.50000 -16.00000 0.00000
-24.00000 -16.00000 0.50000
-23.50000 -15.00000 -5.00000
-24.00000 -15.00000 -5.50000
-24.00000 -15.50000 -5.00000
-24.00000 -15.50000 -4.00000
-23.50000 -15.00000 0.00000
-24.00000 -15.50000 1.00000
-23.50000 -15.00000 1.00000
-24.00000 -15.00000 1.50000
-24.00000 -14.00000 -5.50000
-24.00000 -14.50000 2.00000
-23.50000 -14.00000 2.00000
-24.00000 -14.00000 2.50000
-24.00000 -13.00000 -6.50000
-24.00000 -13.50000 -6.00000
-24.00000 -13.50000 3.00000
-23.50000 -13.00000 3.00000
-24.00000 -13.00000 3.50000
-24.00000 -12.00000 -6.50000
-24.00000 -12.50000 4.00000
-23.50000 -12.00000 4.00000
-24.00000 -12.00000 4.50000
-24.00000 -11.00000 -7.50000
-24.00000 -11.50000 -7.00000
-24.00000 -11.50000 5.00000
-23.50000 -11.00000 5.00000
-24.00000 -11.00000 5.50000
-24.00000 -10.00000 -7.50000
-24.00000 -10.50000 6.00000
-23.50000 -10.00000 6.00000
-24.00000 -10.00000 6.50000
-24.00000 -9.00000 -7.50000
-24.00000 -9.00000 5.50000
-23.50000 -9.00000 6.00000
-24.00000 -9.50000 6.00000
-24.00000 -8.50000 -7.00000
-23.50000 -8.00000 -7.00000
-24.00000 -8.00000 -6.50000
-23.50000 -8.00000 6.00000
-24.00000 -8.00000 5.50000
-24.00000 -7.00000 -6.50000
-23.50000 -7.00000 5.00000
-24.00000 -7.50000 5.00000
-24.00000 -7.00000 4.50000
-23.50000 -7.00000 6.00000
-24.00000 -6.50000 -6.00000
-23.50000 -6.00000 -6.00000
-24.00000 -6.00000 -5.50000
-23.50000 -6.00000 4.00000
-24.00000 -6.50000 4.00000
-24.00000 -6.00000 3.50000
-23.50000 -6.00000 5.00000
-23.50000 -5.00000 -6.00000
-24.00000 -5.00000 -5.50000
-23.50000 -5.00000 4.00000
-24.00000 -5.00000 3.50000
-23.50000 -4.00000 -6.00000
-24.00000 -4.00000 -5.50000
-23.50000 -4.00000 3.00000
-24.00000 -4.50000 3.00000
-24.00000 -4.00000 2.50000
-23.50000 -4.00000 4.00000
-23.50000 -3.00000 -6.00000
-24.00000 -3.50000 -5.00000
-23.50000 -3.00000 -5.00000
-24.00000 -3.00000 -4.50000
-23.50000 -3.00000 2.00000
-24.00000 -3.50000 2.00000
-24.00000 -3.00000 1.50000
-23.50000 -3.00000 3.00000
-23.50000 -2.00000 -5.00000
-24.00000 -2.50000 -4.00000
-23.50000 -2.00000 -4.00000
-24.00000 -2.00000 -3.50000
-23.50000 -2.00000 0.00000
-24.00000 -2.50000 0.00000
-24.00000 -2.00000 -0.50000
-23.50000 -2.00000 1.00000
-24.00000 -2.50000 1.00000
-23.50000 -2.00000 2.00000
-23.50000 -1.00000 -4.00000
-24.00000 -1.50000 -3.00000
-23.50000 -1.00000 -3.00000
-23.50000 -1.00000 -2.00000
-24.00000 -1.50000 -2.00000
-23.50000 -1.00000 -1.00000
-24.00000 -1.50000 -1.00000
-23.50000 -1.00000 0.00000
-23.50000 0.00000 -2.00000
-23.50000 0.00000 -1.00000
-24.50000 -17.00000 -2.00000
-25.00000 -17.00000 -2.50000
-25.00000 -17.50000 -2.00000
-25.00000 -17.50000 -1.00000
-24.50000 -17.00000 -1.00000
-25.00000 -17.00000 -0.50000
-24.50000 -16.00000 -4.00000
-25.00000 -16.00000 -4.50000
-25.00000 -16.50000 -4.00000
-25.00000 -16.50000 -3.00000
-25.00000 -16.50000 0.00000
-25.00000 -16.50000 1.00000
-24.50000 -16.00000 1.00000
-25.00000 -16.00000 1.50000
-25.00000 -15.00000 -5.50000
-25.00000 -15.50000 -5.00000
-25.00000 -15.50000 2.00000
-24.50000 -15.00000 2.00000
-25.00000 -15.00000 2.50000
-25.00000 -14.00000 -5.50000
-25.00000 -14.50000 3.00000
-24.50000 -14.00000 3.00000
-25.00000 -14.00000 3.50000
-25.00000 -13.00000 -6.50000
-25.00000 -13.50000 -6.00000
-25.00000 -13.50000 4.00000
-24.50000 -13.00000 4.00000
-25.00000 -13.00000 4.50000
-25.00000 -12.00000 -6.50000
-25.00000 -12.00000 4.50000
-24.50000 -11.00000 -7.00000
-25.00000 -11.00000 -6.50000
-24.50000 -11.00000 5.00000
-25.00000 -11.00000 4.50000
-25.00000 -10.00000 -7.50000
-25.00000 -10.50000 -7.00000
-24.50000 -10.00000 5.00000
-25.00000 -10.00000 4.50000
-24.50000 -10.00000 6.00000
-25.00000 -9.50000 -7.00000
-24.50000 -9.00000 -7.00000
-25.00000 -9.00000 -6.50000
-24.50000 -9.00000 4.00000
-25.00000 -9.50000 4.00000
-25.00000 -9.00000 3.50000
-24.50000 -9.00000 5.00000
-25.00000 -8.00000 -6.50000
-24.50000 -8.00000 4.00000
-25.00000 -8.00000 3.50000
-24.50000 -8.00000 5.00000
-25.00000 -7.50000 -6.00000
-24.50000 -7.00000 -6.00000
-25.00000 -7.00000 -5.50000
-24.50000 -7.00000 3.00000
-25.00000 -7.50000 3.00000
-25.00000 -7.00000 2.50000
-24.50000 -7.00000 4.00000
-25.00000 -6.00000 -5.50000
-24.50000 -6.00000 3.00000
-25.00000 -6.00000 2.50000
-25.00000 -5.50000 -5.00000
-24.50000 -5.00000 -5.00000
-25.00000 -5.00000 -4.50000
-24.50000 -5.00000 2.00000
-25.00000 -5.50000 2.00000
-25.00000 -5.00000 1.50000
-24.50000 -5.00000 3.00000
-24.50000 -4.00000 -5.00000
-25.00000 -4.00000 -4.50000
-24.50000 -4.00000 0.00000
-25.00000 -4.50000 0.00000
-25.00000 -4.00000 -0.50000
-24.50000 -4.00000 1.00000
-25.00000 -4.50000 1.00000
-24.50000 -4.00000 2.00000
-24.50000 -3.00000 -4.00000
-25.00000 -3.50000 -4.00000
-24.50000 -3.00000 -3.00000
-25.00000 -3.50000 -3.00000
-24.50000 -3.00000 -2.00000
-25.00000 -3.50000 -2.00000
-24.50000 -3.00000 -1.00000
-25.00000 -3.50000 -1.00000
-24.50000 -3.00000 0.00000
-24.50000 -3.00000 1.00000
-24.50000 -2.00000 -3.00000
-24.50000 -2.00000 -2.00000
-24.50000 -2.00000 -1.00000
-26.00000 -17.00000 -2.50000
-26.00000 -17.50000 -2.00000
-26.00000 -17.50000 -1.00000
-26.00000 -17.50000 0.00000
-25.50000 -17.00000 0.00000
-26.00000 -17.00000 0.50000
-26.00000 -16.00000 -4.50000
-26.00000 -16.50000 -4.00000
-26.00000 -16.50000 -3.00000
-26.00000 -16.50000 1.00000
-26.00000 -16.00000 1.50000
-26.00000 -15.00000 -5.50000
-26.00000 -15.50000 -5.00000
-25.50000 -15.00000 2.00000
-26.00000 -15.00000 1.50000
-26.00000 -14.00000 -5.50000
-26.00000 -14.50000 2.00000
-25.50000 -14.00000 3.00000
-26.00000 -14.00000 2.50000
-25.50000 -13.00000 -6.00000
-26.00000 -13.00000 -5.50000
-25.50000 -13.00000 3.00000
-26.00000 -13.00000 2.50000
-25.50000 -13.00000 4.00000
-25.50000 -12.00000 -6.00000
-26.00000 -12.00000 -5.50000
-25.50000 -12.00000 3.00000
-26.00000 -12.00000 2.50000
-25.50000 -12.00000 4.00000
-26.00000 -11.00000 -6.50000
-26.00000 -11.50000 -6.00000
-25.50000 -11.00000 3.00000
-26.00000 -11.00000 2.50000
-25.50000 -11.00000 4.00000
-25.50000 -10.00000 -7.00000
-26.00000 -10.00000 -6.50000
-25.50000 -10.00000 3.00000
-26.00000 -10.00000 2.50000
-25.50000 -10.00000 4.00000
-25.50000 -9.00000 -6.00000
-26.00000 -9.50000 -6.00000
-26.00000 -9.00000 -5.50000
-25.50000 -9.00000 2.00000
-26.00000 -9.50000 2.00000
-26.00000 -9.00000 1.50000
-25.50000 -9.00000 3.00000
-25.50000 -8.00000 -6.00000
-26.00000 -8.00000 -5.50000
-25.50000 -8.00000 2.00000
-26.00000 -8.00000 1.50000
-25.50000 -8.00000 3.00000
-25.50000 -7.00000 -5.00000
-26.00000 -7.50000 -5.00000
-26.00000 -7.00000 -4.50000
-25.50000 -7.00000 1.00000
-26.00000 -7.50000 1.00000
-26.00000 -7.00000 0.50000
-25.50000 -7.00000 2.00000
-25.50000 -6.00000 -5.00000
-26.00000 -6.00000 -4.50000
-25.50000 -6.00000 0.00000
-26.00000 -6.50000 0.00000
-26.00000 -6.00000 -0.50000
-25.50000 -6.00000 1.00000
-25.50000 -6.00000 2.00000
-25.50000 -5.00000 -4.00000
-26.00000 -5.50000 -4.00000
-25.50000 -5.00000 -3.00000
-26.00000 -5.50000 -3.00000
-25.50000 -5.00000 -2.00000
-26.00000 -5.50000 -2.00000
-25.50000 -5.00000 -1.00000
-26.00000 -5.50000 -1.00000
-25.50000 -5.00000 0.00000
-25.50000 -5.00000 1.00000
-25.50000 -4.00000 -4.00000
-25.50000 -4.00000 -3.00000
-25.50000 -4.00000 -2.00000
-25.50000 -4.00000 -1.00000
-26.50000 -17.00000 -3.00000
-27.00000 -17.00000 -3.50000
-27.00000 -17.50000 -3.00000
-27.00000 -17.00000 -2.50000
-26.50000 -17.00000 -2.00000
-26.50000 -17.00000 -1.00000
-26.50000 -17.00000 0.00000
-27.00000 -16.00000 -4.50000
-27.00000 -16.50000 -4.00000
-27.00000 -16.50000 -2.00000
-27.00000 -16.00000 -1.50000
-26.50000 -16.00000 -1.00000
-26.50000 -16.00000 0.00000
-26.50000 -16.00000 1.00000
-27.00000 -15.00000 -5.50000
-27.00000 -15.50000 -5.00000
-27.00000 -15.50000 -1.00000
-27.00000 -15.00000 -0.50000
-26.50000 -15.00000 0.00000
-26.50000 -15.00000 1.00000
-27.00000 -14.50000 -5.00000
-26.50000 -14.00000 -5.00000
-27.00000 -14.00000 -4.50000
-26.50000 -14.00000 0.00000
-27.00000 -14.00000 -0.50000
-26.50000 -14.00000 1.00000
-26.50000 -14.00000 2.00000
-26.50000 -13.00000 -5.00000
-27.00000 -13.00000 -4.50000
-27.00000 -13.50000 0.00000
-27.00000 -13.00000 0.50000
-26.50000 -13.00000 1.00000
-26.50000 -13.00000 2.00000
-26.50000 -12.00000 -5.00000
-27.00000 -12.00000 -4.50000
-26.50000 -12.00000 1.00000
-27.00000 -12.00000 0.50000
-26.50000 -12.00000 2.00000
-26.50000 -11.00000 -6.00000
-26.50000 -11.00000 -5.00000
-27.00000 -11.00000 -4.50000
-26.50000 -11.00000 1.00000
-27.00000 -11.00000 0.50000
-26.50000 -11.00000 2.00000
-26.50000 -10.00000 -6.00000
-26.50000 -10.00000 -5.00000
-27.00000 -10.00000 -4.50000
-26.50000 -10.00000 0.00000
-27.00000 -10.50000 0.00000
-27.00000 -10.00000 -0.50000
-26.50000 -10.00000 1.00000
-26.50000 -10.00000 2.00000
-26.50000 -9.00000 -5.00000
-27.00000 -9.00000 -4.50000
-26.50000 -9.00000 0.00000
-27.00000 -9.00000 -0.50000
-26.50000 -9.00000 1.00000
-26.50000 -8.00000 -5.00000
-27.00000 -8.50000 -4.00000
-26.50000 -8.00000 -4.00000
-27.00000 -8.00000 -3.50000
-26.50000 -8.00000 -1.00000
-27.00000 -8.50000 -1.00000
-27.00000 -8.00000 -1.50000
-26.50000 -8.00000 0.00000
-26.50000 -8.00000 1.00000
-26.50000 -7.00000 -4.00000
-27.00000 -7.50000 -3.00000
-26.50000 -7.00000 -3.00000
-26.50000 -7.00000 -2.00000
-27.00000 -7.50000 -2.00000
-26.50000 -7.00000 -1.00000
-26.50000 -7.00000 0.00000
-26.50000 -6.00000 -4.00000
-26.50000 -6.00000 -3.00000
-26.50000 -6.00000 -2.00000
-26.50000 -6.00000 -1.00000
-27.50000 -17.00000 -3.00000
-27.50000 -16.00000 -4.00000
-27.50000 -16.00000 -3.00000
-27.50000 -16.00000 -2.00000
-27.50000 -15.00000 -5.00000
-27.50000 -15.00000 -4.00000
-27.50000 -15.00000 -3.00000
-27.50000 -15.00000 -2.00000
-27.50000 -15.00000 -1.00000
-27.50000 -14.00000 -4.00000
-27.50000 -14.00000 -3.00000
-27.50000 -14.00000 -2.00000
-27.50000 -14.00000 -1.00000
-27.50000 -13.00000 -4.00000
-27.50000 -13.00000 -3.00000
-27.50000 -13.00000 -2.00000
-27.50000 -13.00000 -1.00000
-27.50000 -13.00000 0.00000
-27.50000 -12.00000 -4.00000
-27.50000 -12.00000 -3.00000
-27.50000 -12.00000 -2.00000
-27.50000 -12.00000 -1.00000
-27.50000 -12.00000 0.00000
-27.50000 -11.00000 -4.00000
-27.50000 -11.00000 -3.00000
-27.50000 -11.00000 -2.00000
-27.50000 -11.00000 -1.00000
-27.50000 -11.00000 0.00000
-27.50000 -10.00000 -4.00000
-27.50000 -10.00000 -3.00000
-27.50000 -10.00000 -2.00000
-27.50000 -10.00000 -1.00000
-27.50000 -9.00000 -4.00000
-27.50000 -9.00000 -3.00000
-27.50000 -9.00000 -2.00000
-27.50000 -9.00000 -1.00000
-27.50000 -8.00000 -3.00000
-27.50000 -8.00000 -2.00000
3 2 1 0
3 4 3 0
3 0 3 2
3 4 5 3
3 0 1 6
3 6 1 7
3 0 8 4
3 0 6 8
3 5 4 9
3 4 10 9
3 4 8 10
3 10 11 9
3 7 12 6
3 14 13 12
3 13 6 12
3 13 8 6
3 8 15 10
3 8 13 15
3 11 10 16
3 16 10 15
3 13 14 17
3 17 14 18
3 13 19 15
3 13 17 19
3 16 15 20
3 20 15 19
3 18 21 17
3 23 22 21
3 22 17 21
3 22 19 17
3 20 19 24
3 19 25 24
3 19 22 25
3 25 26 24
3 23 27 22
3 29 28 27
3 28 22 27
3 28 25 22
3 26 25 30
3 30 25 28
3 29 31 28
3 28 31 30
3 34 33 32
3 32 35 34
3 38 37 36
3 38 36 33
3 36 32 33
3 36 39 32
3 35 32 40
3 32 41 40
3 32 39 41
3 43 42 41
3 41 42 40
3 43 44 42
3 36 37 45
3 45 37 46
3 45 1 2
3 39 45 2
3 36 45 39
3 39 2 3
3 39 3 41
3 41 3 5
3 47 41 5
3 43 41 47
3 44 43 48
3 43 49 48
3 43 47 49
3 49 50 48
3 45 46 51
3 51 46 52
3 51 7 1
3 51 1 45
3 9 47 5
3 47 9 11
3 53 47 11
3 49 47 53
3 50 49 54
3 54 49 53
3 52 55 51
3 55 57 56
3 55 56 12
3 51 55 12
3 7 51 12
3 56 14 12
3 16 58 53
3 16 53 11
3 54 53 59
3 59 53 58
3 56 57 60
3 60 57 61
3 60 18 14
3 60 14 56
3 20 62 58
3 20 58 16
3 59 58 63
3 58 64 63
3 58 62 64
3 64 65 63
3 61 66 60
3 66 68 67
3 66 67 21
3 60 66 21
3 18 60 21
3 67 23 21
3 24 62 20
3 62 24 26
3 69 62 26
3 64 62 69
3 65 64 70
3 64 71 70
3 64 69 71
3 73 72 71
3 71 72 70
3 73 74 72
3 67 68 75
3 75 68 76
3 77 27 23
3 67 77 23
3 75 77 67
3 77 29 27
3 30 78 69
3 30 69 26
3 69 79 71
3 69 78 79
3 71 80 73
3 71 79 80
3 74 73 81
3 81 73 80
3 76 82 75
3 84 83 82
3 83 75 82
3 83 77 75
3 85 31 29
3 77 85 29
3 83 85 77
3 78 30 31
3 85 78 31
3 86 78 85
3 78 87 79
3 78 86 87
3 89 80 88
3 80 87 88
3 80 79 87
3 80 89 81
3 83 84 90
3 90 84 91
3 83 92 85
3 83 90 92
3 85 93 86
3 85 92 93
3 86 94 87
3 86 93 94
3 88 87 95
3 95 87 94
3 91 96 90
3 90 96 92
3 92 96 97
3 92 97 93
3 93 97 98
3 93 98 94
3 94 98 99
3 94 99 95
3 102 101 100
3 33 34 100
3 34 102 100
3 34 103 102
3 105 104 35
3 104 34 35
3 104 103 34
3 107 106 105
3 105 106 104
3 107 108 106
3 111 110 109
3 111 109 101
3 101 109 100
3 109 37 100
3 37 38 100
3 100 38 33
3 40 105 35
3 105 40 42
3 105 42 107
3 113 112 44
3 44 112 42
3 112 108 42
3 108 107 42
3 115 114 113
3 113 114 112
3 115 116 114
3 109 110 117
3 117 110 118
3 117 46 37
3 117 37 109
3 48 113 44
3 113 48 50
3 119 113 50
3 115 113 119
3 116 115 120
3 120 115 119
3 118 121 117
3 46 117 121
3 122 46 121
3 52 46 122
3 54 123 119
3 54 119 50
3 120 119 124
3 124 119 123
3 55 52 125
3 52 126 125
3 52 122 126
3 125 57 55
3 59 127 123
3 59 123 54
3 124 123 128
3 123 129 128
3 123 127 129
3 129 130 128
3 126 131 125
3 57 125 131
3 132 57 131
3 61 57 132
3 63 127 59
3 127 63 65
3 133 127 65
3 129 127 133
3 130 129 134
3 129 135 134
3 129 133 135
3 137 136 135
3 135 136 134
3 139 138 137
3 137 138 136
3 139 140 138
3 66 61 141
3 61 142 141
3 61 132 142
3 141 68 66
3 70 133 65
3 133 70 72
3 133 72 135
3 135 72 74
3 143 135 74
3 137 135 143
3 137 144 139
3 137 143 144
3 140 139 145
3 145 139 144
3 142 146 141
3 68 141 146
3 147 68 146
3 76 68 147
3 81 148 143
3 81 143 74
3 150 144 149
3 144 148 149
3 144 143 148
3 144 150 145
3 82 76 151
3 76 152 151
3 76 147 152
3 151 84 82
3 88 153 89
3 148 81 89
3 153 148 89
3 154 148 153
3 149 148 155
3 155 148 154
3 151 152 156
3 156 152 157
3 156 91 84
3 156 84 151
3 95 158 153
3 95 153 88
3 160 154 159
3 154 158 159
3 154 153 158
3 154 160 155
3 157 161 156
3 161 163 162
3 161 162 96
3 156 161 96
3 91 156 96
3 164 97 96
3 164 96 162
3 165 98 97
3 165 97 164
3 166 99 98
3 166 98 165
3 166 167 99
3 99 167 95
3 167 168 95
3 168 158 95
3 158 168 159
3 163 169 162
3 162 169 164
3 164 169 170
3 164 170 165
3 165 170 171
3 165 171 166
3 166 171 172
3 166 172 167
3 175 174 173
3 177 176 173
3 173 176 175
3 179 178 177
3 177 178 176
3 179 180 178
3 183 182 181
3 183 181 174
3 174 181 173
3 181 101 173
3 101 102 173
3 173 102 103
3 173 103 177
3 177 103 104
3 177 104 179
3 184 180 179
3 104 184 179
3 106 184 104
3 186 185 108
3 185 106 108
3 185 184 106
3 188 187 186
3 186 187 185
3 188 189 187
3 181 182 111
3 182 110 111
3 182 190 110
3 181 111 101
3 112 186 108
3 186 112 114
3 186 114 188
3 192 191 116
3 116 191 114
3 191 189 114
3 189 188 114
3 192 193 191
3 190 118 110
3 194 118 190
3 120 195 192
3 120 192 116
3 193 192 196
3 196 192 195
3 121 118 197
3 118 198 197
3 118 194 198
3 197 122 121
3 124 199 195
3 124 195 120
3 196 195 200
3 195 201 200
3 195 199 201
3 201 202 200
3 198 203 197
3 122 197 203
3 204 122 203
3 126 122 204
3 128 199 124
3 199 128 130
3 205 199 130
3 201 199 205
3 202 201 206
3 201 207 206
3 201 205 207
3 209 208 207
3 207 208 206
3 211 210 209
3 209 210 208
3 211 212 210
3 204 213 126
3 126 213 131
3 132 131 213
3 132 213 214
3 134 205 130
3 205 134 136
3 205 136 207
3 207 136 138
3 207 138 209
3 209 138 140
3 215 209 140
3 211 209 215
3 212 211 216
3 216 211 215
3 214 142 132
3 217 142 214
3 145 218 215
3 145 215 140
3 216 215 219
3 219 215 218
3 217 220 142
3 142 220 146
3 147 146 220
3 147 220 221
3 149 222 150
3 222 223 150
3 150 223 145
3 223 224 145
3 224 218 145
3 218 224 219
3 221 152 147
3 225 152 221
3 155 226 222
3 155 222 149
3 223 222 227
3 227 222 226
3 225 157 152
3 228 157 225
3 159 229 160
3 229 230 160
3 160 230 155
3 230 231 155
3 231 226 155
3 226 231 227
3 161 157 232
3 157 233 232
3 157 228 233
3 232 163 161
3 167 234 168
3 234 235 168
3 168 235 159
3 235 236 159
3 236 229 159
3 229 236 230
3 233 237 232
3 232 237 163
3 237 169 163
3 237 238 169
3 238 240 239
3 170 238 239
3 169 238 170
3 241 171 170
3 241 170 239
3 171 241 242
3 243 171 242
3 172 171 243
3 167 172 234
3 172 244 234
3 172 243 244
3 234 244 235
3 240 245 239
3 239 245 241
3 241 245 246
3 241 246 242
3 249 248 247
3 251 250 247
3 247 250 249
3 251 252 250
3 255 254 253
3 255 253 248
3 248 253 247
3 253 174 247
3 174 175 247
3 247 175 176
3 247 176 251
3 256 252 251
3 176 256 251
3 178 256 176
3 258 257 180
3 257 178 180
3 257 256 178
3 260 259 258
3 258 259 257
3 262 261 260
3 260 261 259
3 264 263 262
3 262 263 261
3 264 265 263
3 253 254 183
3 254 182 183
3 254 266 182
3 253 183 174
3 184 258 180
3 258 184 185
3 258 185 260
3 260 185 187
3 260 187 262
3 262 187 189
3 267 262 189
3 264 262 267
3 265 264 268
3 264 269 268
3 264 267 269
3 269 270 268
3 266 190 182
3 271 190 266
3 191 267 189
3 267 191 193
3 272 267 193
3 269 267 272
3 270 269 273
3 273 269 272
3 271 194 190
3 274 194 271
3 196 275 272
3 196 272 193
3 273 272 276
3 272 277 276
3 272 275 277
3 279 278 277
3 277 278 276
3 279 280 278
3 282 198 281
3 198 274 281
3 198 194 274
3 283 282 281
3 200 275 196
3 275 200 202
3 284 275 202
3 277 275 284
3 277 285 279
3 277 284 285
3 280 279 286
3 279 287 286
3 279 285 287
3 289 288 287
3 287 288 286
3 289 290 288
3 282 203 198
3 204 203 282
3 283 204 282
3 291 204 283
3 206 284 202
3 284 206 208
3 284 208 285
3 285 208 210
3 285 210 287
3 287 210 212
3 292 287 212
3 289 287 292
3 290 289 293
3 293 289 292
3 291 294 204
3 204 294 213
3 214 213 294
3 214 294 295
3 216 296 292
3 216 292 212
3 293 292 297
3 297 292 296
3 295 217 214
3 298 217 295
3 219 299 296
3 219 296 216
3 297 296 300
3 300 296 299
3 298 301 217
3 217 301 220
3 221 220 301
3 221 301 302
3 223 303 224
3 303 304 224
3 224 304 219
3 304 305 219
3 305 299 219
3 299 305 300
3 302 225 221
3 306 225 302
3 308 307 303
3 223 308 303
3 227 308 223
3 303 307 304
3 311 310 309
3 306 311 309
3 228 306 309
3 225 306 228
3 313 312 231
3 313 231 230
3 227 231 308
3 308 231 312
3 310 314 309
3 228 309 314
3 315 228 314
3 233 228 315
3 317 316 236
3 317 236 235
3 230 236 313
3 313 236 316
3 315 318 233
3 233 318 237
3 318 320 319
3 238 318 319
3 237 318 238
3 319 240 238
3 242 321 243
3 243 321 322
3 323 243 322
3 244 243 323
3 235 244 317
3 317 244 323
3 320 324 319
3 319 324 240
3 324 245 240
3 324 325 245
3 245 326 246
3 325 326 245
3 242 246 321
3 246 327 321
3 246 326 327
3 321 327 322
3 330 329 328
3 328 331 330
3 334 333 332
3 334 332 329
3 329 332 328
3 332 248 328
3 248 249 328
3 335 331 328
3 249 335 328
3 250 335 249
3 337 336 252
3 336 250 252
3 336 335 250
3 339 338 337
3 337 338 336
3 339 340 338
3 332 333 255
3 333 254 255
3 333 341 254
3 332 255 248
3 256 337 252
3 337 256 257
3 337 257 339
3 342 340 339
3 257 342 339
3 259 342 257
3 343 259 261
3 343 342 259
3 344 261 263
3 344 343 261
3 346 345 265
3 345 263 265
3 345 344 263
3 346 347 345
3 341 266 254
3 348 266 341
3 268 346 265
3 350 349 270
3 270 349 268
3 349 347 268
3 347 346 268
3 350 351 349
3 348 271 266
3 352 271 348
3 273 353 350
3 273 350 270
3 351 350 354
3 350 355 354
3 350 353 355
3 357 356 355
3 355 356 354
3 357 358 356
3 352 274 271
3 359 274 352
3 276 353 273
3 353 276 278
3 353 278 355
3 355 278 280
3 360 355 280
3 357 355 360
3 358 357 361
3 357 362 361
3 357 360 362
3 364 363 362
3 362 363 361
3 364 365 363
3 359 366 274
3 274 366 281
3 283 281 366
3 283 366 367
3 286 360 280
3 360 286 288
3 360 288 362
3 362 288 290
3 368 362 290
3 364 362 368
3 365 364 369
3 369 364 368
3 367 291 283
3 370 291 367
3 293 371 368
3 293 368 290
3 369 368 372
3 372 368 371
3 370 373 291
3 291 373 294
3 295 294 373
3 295 373 374
3 297 375 371
3 297 371 293
3 372 371 376
3 376 371 375
3 374 298 295
3 377 298 374
3 379 378 375
3 297 379 375
3 300 379 297
3 375 378 376
3 377 380 298
3 298 380 301
3 302 301 380
3 302 380 381
3 304 382 305
3 382 383 305
3 383 300 305
3 383 379 300
3 386 385 384
3 381 386 384
3 306 381 384
3 302 381 306
3 308 387 307
3 387 388 307
3 307 388 304
3 388 389 304
3 389 382 304
3 382 389 383
3 391 390 385
3 390 310 385
3 311 384 385
3 311 385 310
3 311 306 384
3 390 391 392
3 313 393 312
3 393 394 312
3 312 394 308
3 394 395 308
3 395 387 308
3 387 395 388
3 390 314 310
3 397 396 315
3 397 315 314
3 392 397 314
3 390 392 314
3 398 396 397
3 317 399 316
3 399 400 316
3 316 400 313
3 400 401 313
3 401 393 313
3 393 401 394
3 396 318 315
3 403 402 320
3 403 320 318
3 398 403 318
3 396 398 318
3 404 402 403
3 322 405 323
3 405 406 323
3 323 406 317
3 406 407 317
3 407 399 317
3 399 407 400
3 402 324 320
3 404 408 402
3 408 324 402
3 408 325 324
3 325 409 326
3 408 409 325
3 326 410 327
3 409 410 326
3 322 327 405
3 327 411 405
3 327 410 411
3 405 411 406
3 414 413 412
3 412 415 414
3 418 417 416
3 418 416 413
3 413 416 412
3 416 329 412
3 329 330 412
3 420 419 331
3 331 419 330
3 419 415 330
3 415 412 330
3 422 421 420
3 420 421 419
3 422 423 421
3 416 417 334
3 417 333 334
3 417 424 333
3 416 334 329
3 335 420 331
3 420 335 336
3 420 336 422
3 425 423 422
3 336 425 422
3 338 425 336
3 427 426 340
3 426 338 340
3 426 425 338
3 429 428 427
3 427 428 426
3 431 430 429
3 429 430 428
3 433 432 431
3 431 432 430
3 435 434 433
3 433 434 432
3 435 436 434
3 424 341 333
3 437 341 424
3 342 427 340
3 427 342 343
3 427 343 429
3 429 343 344
3 429 344 431
3 431 344 345
3 431 345 433
3 433 345 347
3 438 433 347
3 435 433 438
3 436 435 439
3 435 440 439
3 435 438 440
3 440 441 439
3 437 348 341
3 442 348 437
3 349 438 347
3 438 349 351
3 443 438 351
3 440 438 443
3 441 440 444
3 440 445 444
3 440 443 445
3 447 446 445
3 445 446 444
3 447 448 446
3 442 352 348
3 449 352 442
3 354 443 351
3 443 354 356
3 443 356 445
3 445 356 358
3 450 445 358
3 447 445 450
3 448 447 451
3 447 452 451
3 447 450 452
3 452 453 451
3 449 359 352
3 454 359 449
3 361 450 358
3 450 361 363
3 450 363 452
3 456 455 365
3 365 455 363
3 455 453 363
3 453 452 363
3 456 457 455
3 454 458 359
3 359 458 366
3 367 366 458
3 367 458 459
3 369 460 456
3 369 456 365
3 457 456 461
3 461 456 460
3 459 370 367
3 462 370 459
3 464 463 460
3 369 464 460
3 372 464 369
3 460 463 461
3 373 370 465
3 370 466 465
3 370 462 466
3 465 374 373
3 376 464 372
3 376 467 464
3 466 468 465
3 374 465 468
3 469 374 468
3 377 374 469
3 379 470 378
3 470 471 378
3 471 376 378
3 471 467 376
3 380 377 472
3 377 473 472
3 377 469 473
3 472 381 380
3 475 474 470
3 379 475 470
3 383 475 379
3 470 474 471
3 472 473 386
3 473 385 386
3 473 476 385
3 472 386 381
3 478 477 389
3 478 389 388
3 383 389 475
3 475 389 477
3 476 479 385
3 385 479 391
3 392 391 479
3 392 479 480
3 482 481 395
3 482 395 394
3 388 395 478
3 478 395 481
3 480 483 392
3 392 483 397
3 398 397 483
3 398 483 484
3 400 485 401
3 485 486 401
3 486 394 401
3 486 482 394
3 484 487 398
3 398 487 403
3 489 488 404
3 403 489 404
3 487 489 403
3 490 488 489
3 406 491 407
3 491 492 407
3 407 492 400
3 492 493 400
3 493 485 400
3 485 493 486
3 488 408 404
3 490 494 488
3 494 408 488
3 494 409 408
3 409 495 410
3 494 495 409
3 410 496 411
3 495 496 410
3 406 411 491
3 411 497 491
3 411 496 497
3 491 497 492
3 499 498 414
3 414 498 413
3 501 500 415
3 500 414 415
3 500 499 414
3 503 502 501
3 501 502 500
3 503 504 502
3 507 506 505
3 505 508 507
3 510 509 418
3 418 509 417
3 418 413 498
3 418 498 510
3 419 501 415
3 501 419 421
3 501 421 503
3 512 511 423
3 423 511 421
3 511 504 421
3 504 503 421
3 514 513 512
3 512 513 511
3 516 515 514
3 514 515 513
3 518 517 516
3 516 517 515
3 517 518 506
3 518 505 506
3 518 519 505
3 508 505 520
3 505 521 520
3 505 519 521
3 521 522 520
3 509 424 417
3 523 424 509
3 425 512 423
3 512 425 426
3 512 426 514
3 514 426 428
3 514 428 516
3 516 428 430
3 516 430 518
3 518 430 432
3 518 432 519
3 519 432 434
3 519 434 521
3 525 524 436
3 436 524 434
3 524 522 434
3 522 521 434
3 527 526 525
3 525 526 524
3 527 528 526
3 523 437 424
3 529 437 523
3 439 525 436
3 525 439 441
3 530 525 441
3 527 525 530
3 528 527 531
3 527 532 531
3 527 530 532
3 534 533 532
3 532 533 531
3 534 535 533
3 529 442 437
3 536 442 529
3 444 530 441
3 530 444 446
3 530 446 532
3 532 446 448
3 537 532 448
3 534 532 537
3 535 534 538
3 534 539 538
3 534 537 539
3 539 540 538
3 536 449 442
3 541 449 536
3 451 537 448
3 537 451 453
3 542 537 453
3 539 537 542
3 540 539 543
3 543 539 542
3 545 454 544
3 454 541 544
3 454 449 541
3 546 545 544
3 455 542 453
3 455 457 542
3 457 543 542
3 457 547 543
3 545 458 454
3 459 458 545
3 546 459 545
3 548 459 546
3 461 547 457
3 461 549 547
3 548 462 459
3 550 462 548
3 464 551 463
3 551 552 463
3 552 461 463
3 552 549 461
3 550 466 462
3 553 466 550
3 555 554 551
3 464 555 551
3 467 555 464
3 551 554 552
3 468 466 556
3 466 557 556
3 466 553 557
3 556 469 468
3 471 555 467
3 471 558 555
3 556 557 559
3 559 557 560
3 559 473 469
3 559 469 556
3 475 561 474
3 561 562 474
3 562 471 474
3 562 558 471
3 560 563 559
3 476 473 559
3 564 476 559
3 563 564 559
3 476 564 565
3 566 565 564
3 478 567 477
3 567 568 477
3 477 568 475
3 568 569 475
3 569 561 475
3 561 569 562
3 565 479 476
3 571 570 480
3 571 480 479
3 566 571 479
3 565 566 479
3 572 570 571
3 482 573 481
3 573 574 481
3 481 574 478
3 574 575 478
3 575 567 478
3 567 575 568
3 570 483 480
3 577 576 484
3 577 484 483
3 572 577 483
3 570 572 483
3 579 578 576
3 579 576 577
3 580 578 579
3 582 581 573
3 482 582 573
3 486 582 482
3 573 581 574
3 576 487 484
3 487 576 489
3 489 576 578
3 584 583 490
3 584 490 489
3 580 584 489
3 578 580 489
3 586 585 583
3 586 583 584
3 587 585 586
3 589 588 493
3 589 493 492
3 486 493 582
3 582 493 588
3 583 494 490
3 494 583 495
3 495 583 585
3 587 590 585
3 590 495 585
3 590 496 495
3 496 591 497
3 590 591 496
3 492 497 589
3 589 497 591
3 594 593 592
3 596 595 592
3 592 595 594
3 598 597 596
3 596 597 595
3 600 599 598
3 598 599 597
3 602 601 600
3 600 601 599
3 604 603 602
3 602 603 601
3 606 605 604
3 604 605 603
3 606 607 605
3 592 593 499
3 593 498 499
3 593 608 498
3 592 499 500
3 592 500 596
3 596 500 502
3 596 502 598
3 598 502 504
3 609 598 504
3 600 598 609
3 600 610 602
3 600 609 610
3 602 611 604
3 602 610 611
3 604 612 606
3 604 611 612
3 507 613 506
3 613 606 506
3 606 612 506
3 606 613 607
3 615 614 508
3 614 507 508
3 614 613 507
3 617 616 615
3 615 616 614
3 617 618 616
3 620 619 510
3 510 619 509
3 510 498 608
3 510 608 620
3 511 609 504
3 609 511 513
3 609 513 610
3 610 513 515
3 610 515 611
3 611 515 517
3 611 517 612
3 612 517 506
3 520 615 508
3 615 520 522
3 621 615 522
3 617 615 621
3 618 617 622
3 617 623 622
3 617 621 623
3 625 624 623
3 623 624 622
3 625 626 624
3 619 523 509
3 627 523 619
3 524 621 522
3 621 524 526
3 621 526 623
3 623 526 528
3 628 623 528
3 625 623 628
3 626 625 629
3 625 630 629
3 625 628 630
3 630 631 629
3 627 529 523
3 632 529 627
3 531 628 528
3 628 531 533
3 628 533 630
3 634 633 535
3 535 633 533
3 633 631 533
3 631 630 533
3 634 635 633
3 632 536 529
3 636 536 632
3 538 634 535
3 538 540 634
3 540 635 634
3 540 637 635
3 639 541 638
3 541 636 638
3 541 536 636
3 640 639 638
3 543 637 540
3 543 641 637
3 639 544 541
3 546 544 639
3 640 546 639
3 642 546 640
3 547 641 543
3 547 643 641
3 642 548 546
3 644 548 642
3 549 643 547
3 549 645 643
3 644 550 548
3 646 550 644
3 552 645 549
3 552 647 645
3 646 553 550
3 648 553 646
3 555 649 554
3 649 650 554
3 650 552 554
3 650 647 552
3 648 557 553
3 651 557 648
3 653 652 649
3 555 653 649
3 558 653 555
3 649 652 650
3 655 560 654
3 560 651 654
3 560 557 651
3 656 655 654
3 562 653 558
3 562 657 653
3 655 563 560
3 656 658 655
3 658 563 655
3 658 564 563
3 566 564 658
3 566 658 659
3 568 660 569
3 660 661 569
3 661 562 569
3 661 657 562
3 659 662 566
3 566 662 571
3 664 663 572
3 571 664 572
3 662 664 571
3 665 663 664
3 574 666 575
3 666 667 575
3 575 667 568
3 667 668 568
3 668 660 568
3 660 668 661
3 663 577 572
3 665 669 663
3 669 577 663
3 669 579 577
3 671 670 580
3 579 671 580
3 669 671 579
3 673 672 670
3 673 670 671
3 674 672 673
3 677 676 675
3 581 582 675
3 676 581 675
3 678 581 676
3 574 581 666
3 581 679 666
3 581 678 679
3 666 679 667
3 670 584 580
3 584 670 586
3 586 670 672
3 681 680 587
3 681 587 586
3 674 681 586
3 672 674 586
3 683 682 680
3 683 680 681
3 682 683 677
3 682 677 675
3 589 682 675
3 588 589 675
3 588 675 582
3 680 590 587
3 590 680 591
3 591 680 682
3 591 682 589
3 686 685 684
3 688 687 684
3 684 687 686
3 690 689 688
3 688 689 687
3 692 691 690
3 690 691 689
3 694 693 692
3 692 693 691
3 696 695 694
3 694 695 693
3 696 697 695
3 699 698 594
3 594 698 593
3 595 684 685
3 699 595 685
3 594 595 699
3 684 595 597
3 684 597 688
3 688 597 599
3 688 599 690
3 690 599 601
3 690 601 692
3 692 601 603
3 692 603 694
3 694 603 605
3 694 605 696
3 701 700 607
3 607 700 605
3 700 697 605
3 697 696 605
3 703 702 701
3 701 702 700
3 705 704 703
3 703 704 702
3 705 706 704
3 698 608 593
3 707 608 698
3 613 701 607
3 701 613 614
3 701 614 703
3 703 614 616
3 703 616 705
3 709 708 618
3 618 708 616
3 708 706 616
3 706 705 616
3 711 710 709
3 709 710 708
3 711 712 710
3 714 713 620
3 620 713 619
3 620 608 707
3 620 707 714
3 622 709 618
3 709 622 624
3 709 624 711
3 716 715 626
3 626 715 624
3 715 712 624
3 712 711 624
3 716 717 715
3 713 627 619
3 718 627 713
3 629 716 626
3 720 719 631
3 631 719 629
3 719 717 629
3 717 716 629
3 720 721 719
3 718 632 627
3 722 632 718
3 633 720 631
3 633 635 720
3 635 721 720
3 635 723 721
3 725 636 724
3 636 722 724
3 636 632 722
3 726 725 724
3 637 728 727
3 723 637 727
3 635 637 723
3 728 729 727
3 725 638 636
3 640 638 725
3 726 640 725
3 730 640 726
3 641 731 728
3 641 728 637
3 729 728 732
3 732 728 731
3 730 642 640
3 733 642 730
3 643 734 731
3 643 731 641
3 732 731 735
3 735 731 734
3 733 644 642
3 736 644 733
3 645 737 734
3 645 734 643
3 735 734 738
3 738 734 737
3 736 646 644
3 739 646 736
3 647 740 737
3 647 737 645
3 738 737 741
3 741 737 740
3 739 648 646
3 742 648 739
3 744 743 740
3 647 744 740
3 650 744 647
3 740 743 741
3 742 651 648
3 745 651 742
3 653 746 652
3 746 747 652
3 747 650 652
3 747 744 650
3 745 748 651
3 651 748 654
3 750 749 656
3 654 750 656
3 748 750 654
3 751 749 750
3 753 752 746
3 653 753 746
3 657 753 653
3 746 752 747
3 749 658 656
3 755 754 659
3 755 659 658
3 751 755 658
3 749 751 658
3 757 756 754
3 757 754 755
3 758 756 757
3 761 760 759
3 763 762 759
3 763 759 760
3 763 753 762
3 753 661 762
3 753 657 661
3 754 662 659
3 662 754 664
3 664 754 756
3 765 764 665
3 765 665 664
3 758 765 664
3 756 758 664
3 767 766 764
3 767 764 765
3 768 766 767
3 771 770 769
3 773 772 769
3 773 769 770
3 775 774 772
3 775 772 773
3 774 775 761
3 759 774 761
3 776 774 759
3 667 776 668
3 776 762 668
3 776 759 762
3 668 762 661
3 764 669 665
3 669 764 671
3 671 764 766
3 768 777 766
3 777 671 766
3 777 673 671
3 779 778 674
3 673 779 674
3 777 779 673
3 778 779 771
3 769 778 771
3 780 778 769
3 677 780 676
3 780 772 676
3 780 769 772
3 676 772 678
3 678 772 774
3 678 774 679
3 679 774 776
3 679 776 667
3 778 681 674
3 681 778 683
3 683 778 780
3 683 780 677
3 783 782 781
3 785 784 781
3 781 784 783
3 785 786 784
3 789 788 787
3 789 787 782
3 787 781 782
3 787 790 781
3 781 791 785
3 781 790 791
3 786 785 792
3 785 793 792
3 785 791 793
3 793 794 792
3 796 795 686
3 686 795 685
3 797 686 687
3 797 796 686
3 689 787 788
3 797 689 788
3 687 689 797
3 787 689 691
3 787 691 790
3 790 691 693
3 790 693 791
3 791 693 695
3 791 695 793
3 799 798 697
3 697 798 695
3 798 794 695
3 794 793 695
3 801 800 799
3 799 800 798
3 803 802 801
3 801 802 800
3 803 804 802
3 806 805 699
3 699 805 698
3 699 685 795
3 699 795 806
3 700 799 697
3 799 700 702
3 799 702 801
3 801 702 704
3 801 704 803
3 808 807 706
3 706 807 704
3 807 804 704
3 804 803 704
3 810 809 808
3 808 809 807
3 812 811 810
3 810 811 809
3 812 813 811
3 805 707 698
3 814 707 805
3 708 808 706
3 808 708 710
3 808 710 810
3 810 710 712
3 815 810 712
3 812 810 815
3 813 812 816
3 812 817 816
3 812 815 817
3 817 818 816
3 819 713 714
3 820 819 714
3 707 820 714
3 814 820 707
3 715 815 712
3 815 715 717
3 821 815 717
3 817 815 821
3 818 817 822
3 822 817 821
3 823 718 819
3 819 718 713
3 819 820 824
3 819 824 823
3 719 821 717
3 826 825 721
3 721 825 719
3 825 822 719
3 822 821 719
3 826 827 825
3 828 722 823
3 823 722 718
3 823 824 829
3 823 829 828
3 723 830 826
3 723 826 721
3 827 826 831
3 831 826 830
3 828 724 722
3 726 724 828
3 829 726 828
3 832 726 829
3 727 830 723
3 727 729 830
3 729 831 830
3 729 833 831
3 835 730 834
3 730 832 834
3 730 726 832
3 836 835 834
3 732 833 729
3 732 837 833
3 839 838 835
3 838 730 835
3 838 733 730
3 839 835 836
3 735 837 732
3 735 840 837
3 838 736 733
3 841 736 838
3 738 840 735
3 738 842 840
3 841 739 736
3 843 739 841
3 846 845 844
3 845 842 844
3 842 741 844
3 842 738 741
3 843 742 739
3 847 742 843
3 850 849 848
3 848 849 846
3 848 846 844
3 744 848 844
3 743 744 844
3 743 844 741
3 852 745 851
3 745 847 851
3 745 742 847
3 854 853 852
3 854 852 851
3 855 853 854
3 858 857 856
3 856 857 850
3 848 856 850
3 859 856 848
3 747 859 744
3 744 859 848
3 852 748 745
3 748 852 750
3 750 852 853
3 861 860 751
3 861 751 750
3 855 861 750
3 853 855 750
3 863 862 860
3 863 860 861
3 864 862 863
3 867 866 865
3 865 866 858
3 856 865 858
3 868 865 856
3 753 868 752
3 868 859 752
3 868 856 859
3 752 859 747
3 860 755 751
3 755 860 757
3 757 860 862
3 870 869 758
3 870 758 757
3 864 870 757
3 862 864 757
3 871 869 870
3 874 873 872
3 876 875 872
3 876 872 873
3 878 877 875
3 878 875 876
3 877 878 867
3 877 867 865
3 761 877 865
3 760 761 865
3 760 865 763
3 763 865 868
3 763 868 753
3 869 765 758
3 871 879 869
3 879 765 869
3 879 767 765
3 881 880 768
3 767 881 768
3 879 881 767
3 883 882 880
3 883 880 881
3 882 883 874
3 882 874 872
3 771 882 872
3 770 771 872
3 770 872 773
3 773 872 875
3 773 875 775
3 775 875 877
3 775 877 761
3 880 777 768
3 777 880 779
3 779 880 882
3 779 882 771
3 886 885 884
3 888 887 884
3 884 887 886
3 890 889 888
3 888 889 887
3 892 891 890
3 890 891 889
3 894 893 892
3 892 893 891
3 894 895 893
3 884 885 896
3 896 885 897
3 896 782 783
3 888 896 783
3 884 896 888
3 888 783 784
3 888 784 890
3 890 784 786
3 898 890 786
3 892 890 898
3 892 899 894
3 892 898 899
3 895 894 900
3 894 901 900
3 894 899 901
3 901 902 900
3 905 904 903
3 907 906 903
3 903 906 905
3 906 907 897
3 897 907 896
3 907 788 896
3 788 789 896
3 896 789 782
3 792 898 786
3 898 792 794
3 908 898 794
3 899 898 908
3 899 909 901
3 899 908 909
3 902 901 910
3 901 911 910
3 901 909 911
3 911 912 910
3 903 904 796
3 904 795 796
3 904 913 795
3 903 796 797
3 903 797 907
3 907 797 788
3 798 908 794
3 908 798 800
3 908 800 909
3 909 800 802
3 909 802 911
3 915 914 804
3 804 914 802
3 914 912 802
3 912 911 802
3 917 916 915
3 915 916 914
3 917 918 916
3 920 919 806
3 806 919 805
3 806 795 913
3 806 913 920
3 807 915 804
3 915 807 809
3 915 809 917
3 921 918 917
3 809 921 917
3 811 921 809
3 923 922 813
3 922 811 813
3 922 921 811
3 923 924 922
3 919 814 805
3 925 814 919
3 816 923 813
3 816 818 923
3 818 924 923
3 818 926 924
3 925 820 814
3 927 820 925
3 822 929 928
3 926 822 928
3 818 822 926
3 929 930 928
3 927 824 820
3 931 824 927
3 825 929 822
3 825 827 929
3 827 930 929
3 827 932 930
3 934 829 933
3 829 931 933
3 829 824 931
3 935 934 933
3 831 932 827
3 831 936 932
3 937 832 934
3 934 832 829
3 934 935 938
3 934 938 937
3 833 940 939
3 936 833 939
3 831 833 936
3 940 941 939
3 937 834 832
3 836 834 937
3 938 836 937
3 942 836 938
3 944 943 940
3 833 944 940
3 837 944 833
3 940 943 941
3 946 945 839
3 839 945 838
3 839 836 942
3 839 942 946
3 949 948 947
3 948 944 947
3 944 840 947
3 944 837 840
3 945 841 838
3 950 841 945
3 953 952 951
3 951 952 949
3 947 951 949
3 954 951 947
3 842 954 840
3 840 954 947
3 950 843 841
3 955 843 950
3 958 957 956
3 956 957 953
3 951 956 953
3 959 956 951
3 846 959 845
3 959 954 845
3 959 951 954
3 845 954 842
3 961 847 960
3 847 955 960
3 847 843 955
3 963 962 961
3 963 961 960
3 964 962 963
3 967 966 965
3 965 966 958
3 956 965 958
3 968 965 956
3 850 968 849
3 968 959 849
3 968 956 959
3 849 959 846
3 961 851 847
3 851 961 854
3 854 961 962
3 970 969 855
3 970 855 854
3 964 970 854
3 962 964 854
3 972 971 969
3 972 969 970
3 973 971 972
3 976 975 974
3 974 975 967
3 965 974 967
3 977 974 965
3 858 977 857
3 977 968 857
3 977 965 968
3 857 968 850
3 969 861 855
3 861 969 863
3 863 969 971
3 979 978 864
3 979 864 863
3 973 979 863
3 971 973 863
3 980 978 979
3 983 982 981
3 985 984 981
3 985 981 982
3 984 985 976
3 974 984 976
3 986 984 974
3 867 986 866
3 986 977 866
3 986 974 977
3 866 977 858
3 978 870 864
3 988 987 871
3 988 871 870
3 980 988 870
3 978 980 870
3 990 989 987
3 990 987 988
3 992 991 989
3 992 989 990
3 991 992 983
3 991 983 981
3 874 991 981
3 873 874 981
3 873 981 876
3 876 981 984
3 876 984 878
3 878 984 986
3 878 986 867
3 987 879 871
3 879 987 881
3 881 987 989
3 881 989 883
3 883 989 991
3 883 991 874
3 995 994 993
3 997 996 993
3 993 996 995
3 999 998 997
3 997 998 996
3 1001 1000 999
3 999 1000 998
3 1003 1002 1001
3 1001 1002 1000
3 1003 1004 1002
3 993 994 886
3 994 885 886
3 994 1005 885
3 993 886 887
3 993 887 997
3 997 887 889
3 997 889 999
3 999 889 891
3 999 891 1001
3 1001 891 893
3 1001 893 1003
3 1007 1006 895
3 895 1006 893
3 1006 1004 893
3 1004 1003 893
3 1009 1008 1007
3 1007 1008 1006
3 1009 1010 1008
3 1013 1012 1011
3 1005 1013 1011
3 897 1005 1011
3 885 1005 897
3 900 1007 895
3 1007 900 902
3 1014 1007 902
3 1009 1007 1014
3 1010 1009 1015
3 1009 1016 1015
3 1009 1014 1016
3 1016 1017 1015
3 1019 1018 905
3 905 1018 904
3 906 1011 1012
3 1019 906 1012
3 905 906 1019
3 1011 906 897
3 910 1014 902
3 1014 910 912
3 1020 1014 912
3 1016 1014 1020
3 1017 1016 1021
3 1016 1022 1021
3 1016 1020 1022
3 1022 1023 1021
3 1026 1025 1024
3 1018 1026 1024
3 913 1018 1024
3 904 1018 913
3 914 1020 912
3 1020 914 916
3 1020 916 1022
3 1028 1027 918
3 918 1027 916
3 1027 1023 916
3 1023 1022 916
3 1028 1029 1027
3 1024 1025 920
3 1025 919 920
3 1025 1030 919
3 1024 920 913
3 921 1028 918
3 1031 1029 1028
3 921 1031 1028
3 922 1031 921
3 922 924 1031
3 1031 924 1032
3 1030 925 919
3 1033 925 1030
3 926 1035 1034
3 1032 926 1034
3 924 926 1032
3 1035 1036 1034
3 1038 927 1037
3 927 1033 1037
3 927 925 1033
3 1039 1038 1037
3 928 1035 926
3 1041 1040 930
3 930 1040 928
3 1040 1036 928
3 1036 1035 928
3 1041 1042 1040
3 1043 931 1038
3 1038 931 927
3 1038 1039 1044
3 1045 1038 1044
3 1043 1038 1045
3 1046 1045 1044
3 932 1047 1041
3 932 1041 930
3 1042 1041 1048
3 1048 1041 1047
3 1043 933 931
3 933 1043 935
3 1043 1049 935
3 1043 1045 1049
3 1045 1046 1050
3 1045 1050 1049
3 1052 1051 1047
3 932 1052 1047
3 936 1052 932
3 1047 1051 1048
3 1054 1053 1049
3 1053 935 1049
3 1053 938 935
3 1054 1049 1050
3 1057 1056 1055
3 1058 1055 939
3 1055 1052 939
3 1052 936 939
3 1052 1055 1056
3 941 1058 939
3 1053 942 938
3 1059 942 1053
3 1062 1061 1060
3 1060 1061 1057
3 1055 1060 1057
3 1063 1060 1055
3 944 1063 943
3 1063 1058 943
3 1063 1055 1058
3 943 1058 941
3 1064 945 946
3 1065 1064 946
3 942 1065 946
3 1059 1065 942
3 1062 1060 1066
3 1062 1066 1067
3 949 1066 948
3 1066 1063 948
3 1066 1060 1063
3 948 1063 944
3 1068 950 1064
3 1064 950 945
3 1064 1065 1069
3 1064 1069 1068
3 1072 1071 1070
3 1070 1071 1067
3 1070 1067 1066
3 953 1070 1066
3 952 953 1066
3 952 1066 949
3 1073 955 1068
3 1068 955 950
3 1068 1069 1074
3 1075 1068 1074
3 1073 1068 1075
3 1077 1076 1075
3 1077 1075 1074
3 1078 1076 1077
3 1081 1080 1079
3 1083 1082 1079
3 1083 1079 1080
3 1082 1083 1072
3 1082 1072 1070
3 958 1082 1070
3 957 958 1070
3 957 1070 953
3 1073 960 955
3 960 1073 963
3 963 1073 1075
3 963 1075 964
3 1075 1084 964
3 1075 1076 1084
3 1076 1078 1085
3 1086 1076 1085
3 1084 1076 1086
3 1087 1086 1085
3 1090 1089 1088
3 1088 1089 1081
3 1079 1088 1081
3 1091 1088 1079
3 967 1091 966
3 1091 1082 966
3 1091 1079 1082
3 966 1082 958
3 1084 970 964
3 970 1084 972
3 972 1084 1086
3 1093 1092 973
3 1093 973 972
3 1087 1093 972
3 1086 1087 972
3 1095 1094 1092
3 1095 1092 1093
3 1097 1096 1094
3 1097 1094 1095
3 1099 1098 1096
3 1099 1096 1097
3 1101 1100 1098
3 1101 1098 1099
3 1100 1101 1090
3 1088 1100 1090
3 1102 1100 1088
3 976 1102 975
3 1102 1091 975
3 1102 1088 1091
3 975 1091 967
3 1092 979 973
3 979 1092 980
3 1092 1103 980
3 1092 1094 1103
3 1104 1094 1096
3 1103 1094 1104
3 1105 1096 1098
3 1104 1096 1105
3 983 1105 982
3 1105 1100 982
3 1105 1098 1100
3 982 1100 985
3 985 1100 1102
3 985 1102 976
3 1103 988 980
3 988 1103 990
3 990 1103 1104
3 990 1104 992
3 992 1104 1105
3 992 1105 983
3 1108 1107 1106
3 1106 1109 1108
3 1112 1111 1110
3 1114 1113 1110
3 1110 1113 1112
3 1113 1114 1107
3 1114 1106 1107
3 1114 1115 1106
3 1109 1106 1116
3 1106 1117 1116
3 1106 1115 1117
3 1117 1118 1116
3 1120 1119 995
3 995 1119 994
3 996 1110 1111
3 1120 996 1111
3 995 996 1120
3 1110 996 998
3 1110 998 1114
3 1114 998 1000
3 1114 1000 1115
3 1115 1000 1002
3 1115 1002 1117
3 1122 1121 1004
3 1004 1121 1002
3 1121 1118 1002
3 1118 1117 1002
3 1124 1123 1122
3 1122 1123 1121
3 1124 1125 1123
3 1128 1127 1126
3 1119 1128 1126
3 1005 1119 1126
3 994 1119 1005
3 1006 1122 1004
3 1122 1006 1008
3 1122 1008 1124
3 1130 1129 1010
3 1010 1129 1008
3 1129 1125 1008
3 1125 1124 1008
3 1130 1131 1129
3 1126 1127 1013
3 1127 1012 1013
3 1127 1132 1012
3 1126 1013 1005
3 1015 1130 1010
3 1134 1133 1017
3 1017 1133 1015
3 1133 1131 1015
3 1131 1130 1015
3 1134 1135 1133
3 1137 1136 1019
3 1019 1136 1018
3 1019 1012 1132
3 1019 1132 1137
3 1021 1134 1017
3 1139 1138 1023
3 1023 1138 1021
3 1138 1135 1021
3 1135 1134 1021
3 1139 1140 1138
3 1141 1025 1026
3 1142 1141 1026
3 1018 1142 1026
3 1136 1142 1018
3 1027 1139 1023
3 1144 1143 1029
3 1029 1143 1027
3 1143 1140 1027
3 1140 1139 1027
3 1144 1145 1143
3 1146 1030 1141
3 1141 1030 1025
3 1141 1142 1147
3 1141 1147 1146
3 1031 1144 1029
3 1149 1148 1032
3 1032 1148 1031
3 1148 1145 1031
3 1145 1144 1031
3 1149 1150 1148
3 1151 1033 1146
3 1146 1033 1030
3 1146 1147 1152
3 1146 1152 1151
3 1034 1149 1032
3 1034 1036 1149
3 1036 1150 1149
3 1036 1153 1150
3 1151 1037 1033
3 1155 1154 1039
3 1155 1039 1037
3 1152 1155 1037
3 1151 1152 1037
3 1156 1154 1155
3 1036 1040 1157
3 1158 1036 1157
3 1153 1036 1158
3 1042 1157 1040
3 1154 1044 1039
3 1046 1044 1154
3 1156 1046 1154
3 1159 1046 1156
3 1162 1161 1160
3 1160 1161 1158
3 1157 1160 1158
3 1163 1160 1157
3 1048 1163 1042
3 1042 1163 1157
3 1159 1050 1046
3 1164 1050 1159
3 1167 1166 1165
3 1165 1166 1162
3 1160 1165 1162
3 1168 1165 1160
3 1052 1168 1051
3 1168 1163 1051
3 1168 1160 1163
3 1051 1163 1048
3 1169 1053 1054
3 1170 1169 1054
3 1050 1170 1054
3 1164 1170 1050
3 1167 1165 1171
3 1167 1171 1172
3 1057 1171 1056
3 1171 1168 1056
3 1171 1165 1168
3 1056 1168 1052
3 1173 1059 1169
3 1169 1059 1053
3 1169 1170 1174
3 1169 1174 1173
3 1177 1176 1175
3 1175 1176 1172
3 1175 1172 1171
3 1062 1175 1171
3 1061 1062 1171
3 1061 1171 1057
3 1178 1065 1173
3 1173 1065 1059
3 1173 1174 1179
3 1180 1173 1179
3 1178 1173 1180
3 1181 1180 1179
3 1184 1183 1182
3 1182 1183 1177
3 1175 1182 1177
3 1185 1182 1175
3 1067 1185 1062
3 1062 1185 1175
3 1186 1069 1178
3 1178 1069 1065
3 1187 1178 1180
3 1186 1178 1187
3 1180 1181 1188
3 1189 1180 1188
3 1187 1180 1189
3 1190 1189 1188
3 1193 1192 1191
3 1195 1194 1191
3 1195 1191 1192
3 1194 1195 1184
3 1182 1194 1184
3 1196 1194 1182
3 1072 1196 1071
3 1196 1185 1071
3 1196 1182 1185
3 1071 1185 1067
3 1186 1074 1069
3 1074 1186 1077
3 1077 1186 1187
3 1077 1187 1078
3 1187 1197 1078
3 1187 1189 1197
3 1189 1190 1198
3 1199 1189 1198
3 1197 1189 1199
3 1201 1200 1199
3 1201 1199 1198
3 1202 1200 1201
3 1205 1204 1203
3 1203 1204 1193
3 1191 1203 1193
3 1206 1203 1191
3 1081 1206 1080
3 1206 1194 1080
3 1206 1191 1194
3 1080 1194 1083
3 1083 1194 1196
3 1083 1196 1072
3 1197 1085 1078
3 1085 1197 1087
3 1197 1207 1087
3 1197 1199 1207
3 1208 1199 1200
3 1207 1199 1208
3 1200 1202 1209
3 1210 1200 1209
3 1208 1200 1210
3 1212 1211 1210
3 1212 1210 1209
3 1211 1212 1205
3 1203 1211 1205
3 1213 1211 1203
3 1090 1213 1089
3 1213 1206 1089
3 1213 1203 1206
3 1089 1206 1081
3 1207 1093 1087
3 1093 1207 1095
3 1095 1207 1208
3 1095 1208 1097
3 1097 1208 1210
3 1097 1210 1099
3 1099 1210 1211
3 1099 1211 1101
3 1101 1211 1213
3 1101 1213 1090
3 1216 1215 1214
3 1107 1108 1214
3 1108 1216 1214
3 1108 1217 1216
3 1219 1218 1109
3 1218 1108 1109
3 1218 1217 1108
3 1221 1220 1219
3 1219 1220 1218
3 1221 1222 1220
3 1225 1224 1223
3 1111 1112 1223
3 1112 1225 1223
3 1112 1226 1225
3 1113 1214 1215
3 1226 1113 1215
3 1112 1113 1226
3 1214 1113 1107
3 1116 1219 1109
3 1219 1116 1118
3 1227 1219 1118
3 1221 1219 1227
3 1222 1221 1228
3 1221 1229 1228
3 1221 1227 1229
3 1229 1230 1228
3 1223 1224 1120
3 1224 1119 1120
3 1224 1231 1119
3 1223 1120 1111
3 1121 1227 1118
3 1227 1121 1123
3 1227 1123 1229
3 1233 1232 1125
3 1125 1232 1123
3 1232 1230 1123
3 1230 1229 1123
3 1233 1234 1232
3 1236 1235 1128
3 1128 1235 1127
3 1128 1119 1231
3 1128 1231 1236
3 1129 1233 1125
3 1238 1237 1131
3 1131 1237 1129
3 1237 1234 1129
3 1234 1233 1129
3 1238 1239 1237
3 1235 1132 1127
3 1240 1132 1235
3 1133 1238 1131
3 1242 1241 1135
3 1135 1241 1133
3 1241 1239 1133
3 1239 1238 1133
3 1242 1243 1241
3 1245 1244 1137
3 1137 1244 1136
3 1137 1132 1240
3 1137 1240 1245
3 1138 1242 1135
3 1247 1246 1140
3 1140 1246 1138
3 1246 1243 1138
3 1243 1242 1138
3 1247 1248 1246
3 1244 1142 1136
3 1249 1142 1244
3 1143 1247 1140
3 1251 1250 1145
3 1145 1250 1143
3 1250 1248 1143
3 1248 1247 1143
3 1251 1252 1250
3 1249 1147 1142
3 1253 1147 1249
3 1251 1145 1148
3 1256 1255 1254
3 1255 1256 1150
3 1256 1252 1150
3 1251 1148 1150
3 1251 1150 1252
3 1258 1152 1257
3 1152 1253 1257
3 1152 1147 1253
3 1259 1258 1257
3 1254 1255 1260
3 1254 1260 1261
3 1153 1260 1150
3 1150 1260 1255
3 1258 1155 1152
3 1156 1155 1258
3 1259 1156 1258
3 1262 1156 1259
3 1265 1264 1263
3 1263 1264 1261
3 1260 1263 1261
3 1266 1263 1260
3 1158 1266 1153
3 1153 1266 1260
3 1268 1159 1267
3 1159 1262 1267
3 1159 1156 1262
3 1269 1268 1267
3 1272 1271 1270
3 1270 1271 1265
3 1263 1270 1265
3 1273 1270 1263
3 1162 1273 1161
3 1273 1266 1161
3 1273 1263 1266
3 1161 1266 1158
3 1274 1164 1268
3 1268 1164 1159
3 1268 1269 1275
3 1268 1275 1274
3 1272 1270 1276
3 1272 1276 1277
3 1167 1276 1166
3 1276 1273 1166
3 1276 1270 1273
3 1166 1273 1162
3 1278 1170 1274
3 1274 1170 1164
3 1274 1275 1279
3 1274 1279 1278
3 1282 1281 1280
3 1280 1281 1277
3 1276 1280 1277
3 1283 1280 1276
3 1172 1283 1167
3 1167 1283 1276
3 1284 1174 1278
3 1278 1174 1170
3 1278 1279 1285
3 1286 1278 1285
3 1284 1278 1286
3 1287 1286 1285
3 1290 1289 1288
3 1288 1289 1282
3 1280 1288 1282
3 1291 1288 1280
3 1177 1291 1176
3 1291 1283 1176
3 1291 1280 1283
3 1176 1283 1172
3 1284 1179 1174
3 1179 1284 1181
3 1284 1292 1181
3 1284 1286 1292
3 1286 1287 1293
3 1294 1286 1293
3 1292 1286 1294
3 1295 1294 1293
3 1298 1297 1296
3 1300 1299 1296
3 1300 1296 1297
3 1299 1300 1290
3 1288 1299 1290
3 1301 1299 1288
3 1184 1301 1183
3 1301 1291 1183
3 1301 1288 1291
3 1183 1291 1177
3 1292 1188 1181
3 1188 1292 1190
3 1292 1302 1190
3 1292 1294 1302
3 1294 1295 1303
3 1304 1294 1303
3 1302 1294 1304
3 1306 1305 1304
3 1306 1304 1303
3 1308 1307 1305
3 1308 1305 1306
3 1307 1308 1298
3 1296 1307 1298
3 1309 1307 1296
3 1193 1309 1192
3 1309 1299 1192
3 1309 1296 1299
3 1192 1299 1195
3 1195 1299 1301
3 1195 1301 1184
3 1302 1198 1190
3 1198 1302 1201
3 1201 1302 1304
3 1201 1304 1202
3 1304 1310 1202
3 1304 1305 1310
3 1311 1305 1307
3 1310 1305 1311
3 1205 1311 1204
3 1311 1309 1204
3 1311 1307 1309
3 1204 1309 1193
3 1310 1209 1202
3 1209 1310 1212
3 1212 1310 1311
3 1212 1311 1205
3 1314 1313 1312
3 1316 1315 1312
3 1312 1315 1314
3 1316 1317 1315
3 1320 1319 1318
3 1215 1216 1318
3 1216 1320 1318
3 1216 1321 1320
3 1217 1312 1313
3 1321 1217 1313
3 1216 1217 1321
3 1312 1217 1218
3 1312 1218 1316
3 1322 1317 1316
3 1218 1322 1316
3 1220 1322 1218
3 1324 1323 1222
3 1323 1220 1222
3 1323 1322 1220
3 1324 1325 1323
3 1327 1326 1225
3 1225 1326 1224
3 1226 1318 1319
3 1327 1226 1319
3 1225 1226 1327
3 1318 1226 1215
3 1228 1324 1222
3 1329 1328 1230
3 1230 1328 1228
3 1328 1325 1228
3 1325 1324 1228
3 1329 1330 1328
3 1326 1231 1224
3 1331 1231 1326
3 1232 1329 1230
3 1333 1332 1234
3 1234 1332 1232
3 1332 1330 1232
3 1330 1329 1232
3 1333 1334 1332
3 1336 1335 1236
3 1236 1335 1235
3 1236 1231 1331
3 1236 1331 1336
3 1237 1333 1234
3 1338 1337 1239
3 1239 1337 1237
3 1337 1334 1237
3 1334 1333 1237
3 1338 1339 1337
3 1335 1240 1235
3 1340 1240 1335
3 1241 1338 1239
3 1241 1243 1338
3 1243 1339 1338
3 1243 1341 1339
3 1342 1244 1245
3 1343 1342 1245
3 1240 1343 1245
3 1340 1343 1240
3 1243 1246 1344
3 1345 1243 1344
3 1341 1243 1345
3 1248 1344 1246
3 1347 1346 1342
3 1346 1244 1342
3 1346 1249 1244
3 1347 1342 1343
3 1345 1344 1348
3 1345 1348 1349
3 1250 1350 1248
3 1350 1344 1248
3 1350 1348 1344
3 1252 1350 1250
3 1352 1253 1351
3 1253 1346 1351
3 1253 1249 1346
3 1353 1352 1351
3 1356 1355 1354
3 1354 1355 1349
3 1348 1354 1349
3 1357 1354 1348
3 1254 1357 1256
3 1357 1350 1256
3 1357 1348 1350
3 1256 1350 1252
3 1352 1257 1253
3 1259 1257 1352
3 1353 1259 1352
3 1358 1259 1353
3 1356 1354 1359
3 1356 1359 1360
3 1361 1354 1357
3 1359 1354 1361
3 1261 1361 1254
3 1254 1361 1357
3 1363 1262 1362
3 1262 1358 1362
3 1262 1259 1358
3 1364 1363 1362
3 1367 1366 1365
3 1365 1366 1360
3 1359 1365 1360
3 1368 1365 1359
3 1265 1368 1264
3 1368 1361 1264
3 1368 1359 1361
3 1264 1361 1261
3 1363 1267 1262
3 1269 1267 1363
3 1364 1269 1363
3 1369 1269 1364
3 1367 1365 1370
3 1367 1370 1371
3 1272 1370 1271
3 1370 1368 1271
3 1370 1365 1368
3 1271 1368 1265
3 1373 1275 1372
3 1275 1369 1372
3 1275 1269 1369
3 1374 1373 1372
3 1377 1376 1375
3 1375 1376 1371
3 1370 1375 1371
3 1378 1375 1370
3 1277 1378 1272
3 1272 1378 1370
3 1379 1279 1373
3 1373 1279 1275
3 1373 1374 1380
3 1373 1380 1379
3 1383 1382 1381
3 1385 1384 1381
3 1385 1381 1382
3 1384 1385 1377
3 1375 1384 1377
3 1386 1384 1375
3 1282 1386 1281
3 1386 1378 1281
3 1386 1375 1378
3 1281 1378 1277
3 1379 1285 1279
3 1388 1387 1287
3 1388 1287 1285
3 1380 1388 1285
3 1379 1380 1285
3 1390 1389 1387
3 1390 1387 1388
3 1392 1391 1389
3 1392 1389 1390
3 1394 1393 1391
3 1394 1391 1392
3 1393 1394 1383
3 1381 1393 1383
3 1395 1393 1381
3 1396 1381 1384
3 1395 1381 1396
3 1290 1396 1289
3 1396 1386 1289
3 1396 1384 1386
3 1289 1386 1282
3 1387 1293 1287
3 1293 1387 1295
3 1387 1397 1295
3 1387 1389 1397
3 1398 1389 1391
3 1397 1389 1398
3 1399 1391 1393
3 1398 1391 1399
3 1298 1399 1297
3 1399 1395 1297
3 1399 1393 1395
3 1297 1395 1300
3 1300 1395 1396
3 1300 1396 1290
3 1397 1303 1295
3 1303 1397 1306
3 1306 1397 1398
3 1306 1398 1308
3 1308 1398 1399
3 1308 1399 1298
3 1401 1400 1314
3 1314 1400 1313
3 1402 1314 1315
3 1402 1401 1314
3 1404 1403 1317
3 1403 1315 1317
3 1403 1402 1315
3 1404 1405 1403
3 1407 1406 1320
3 1320 1406 1319
3 1408 1320 1321
3 1408 1407 1320
3 1321 1313 1400
3 1321 1400 1408
3 1322 1404 1317
3 1409 1405 1404
3 1322 1409 1404
3 1323 1409 1322
3 1323 1325 1409
3 1409 1325 1410
3 1412 1411 1327
3 1327 1411 1326
3 1327 1319 1406
3 1327 1406 1412
3 1325 1328 1413
3 1414 1325 1413
3 1410 1325 1414
3 1330 1413 1328
3 1411 1331 1326
3 1415 1331 1411
3 1416 1414 1413
3 1418 1416 1417
3 1417 1416 1332
3 1416 1413 1332
3 1413 1330 1332
3 1334 1417 1332
3 1419 1335 1336
3 1420 1419 1336
3 1331 1420 1336
3 1415 1420 1331
3 1418 1417 1421
3 1418 1421 1422
3 1337 1423 1334
3 1423 1417 1334
3 1423 1421 1417
3 1339 1423 1337
3 1424 1340 1419
3 1419 1340 1335
3 1419 1420 1425
3 1419 1425 1424
3 1422 1421 1426
3 1422 1426 1427
3 1428 1421 1423
3 1426 1421 1428
3 1341 1428 1339
3 1339 1428 1423
3 1430 1429 1424
3 1429 1340 1424
3 1429 1343 1340
3 1430 1424 1425
3 1427 1426 1431
3 1427 1431 1432
3 1433 1426 1428
3 1431 1426 1433
3 1345 1433 1341
3 1341 1433 1428
3 1434 1346 1347
3 1435 1434 1347
3 1343 1435 1347
3 1429 1435 1343
3 1432 1431 1436
3 1432 1436 1437
3 1438 1431 1433
3 1436 1431 1438
3 1349 1438 1345
3 1345 1438 1433
3 1434 1351 1346
3 1440 1439 1353
3 1440 1353 1351
3 1435 1440 1351
3 1434 1435 1351
3 1441 1439 1440
3 1444 1443 1442
3 1442 1443 1437
3 1436 1442 1437
3 1445 1442 1436
3 1356 1445 1355
3 1445 1438 1355
3 1445 1436 1438
3 1355 1438 1349
3 1446 1358 1439
3 1439 1358 1353
3 1439 1441 1447
3 1439 1447 1446
3 1444 1442 1448
3 1444 1448 1449
3 1450 1442 1445
3 1448 1442 1450
3 1360 1450 1356
3 1356 1450 1445
3 1446 1362 1358
3 1452 1451 1364
3 1452 1364 1362
3 1447 1452 1362
3 1446 1447 1362
3 1453 1451 1452
3 1456 1455 1454
3 1454 1455 1449
3 1448 1454 1449
3 1457 1454 1448
3 1367 1457 1366
3 1457 1450 1366
3 1457 1448 1450
3 1366 1450 1360
3 1458 1369 1451
3 1451 1369 1364
3 1451 1453 1459
3 1451 1459 1458
3 1462 1461 1460
3 1460 1461 1456
3 1454 1460 1456
3 1463 1460 1454
3 1464 1454 1457
3 1463 1454 1464
3 1371 1464 1367
3 1367 1464 1457
3 1458 1372 1369
3 1466 1465 1374
3 1466 1374 1372
3 1459 1466 1372
3 1458 1459 1372
3 1468 1467 1465
3 1468 1465 1466
3 1470 1469 1467
3 1470 1467 1468
3 1472 1471 1469
3 1472 1469 1470
3 1471 1472 1462
3 1460 1471 1462
3 1473 1471 1460
3 1474 1460 1463
3 1473 1460 1474
3 1377 1474 1376
3 1474 1464 1376
3 1474 1463 1464
3 1376 1464 1371
3 1475 1380 1465
3 1465 1380 1374
3 1476 1465 1467
3 1475 1465 1476
3 1477 1467 1469
3 1476 1467 1477
3 1478 1469 1471
3 1477 1469 1478
3 1383 1478 1382
3 1478 1473 1382
3 1478 1471 1473
3 1382 1473 1385
3 1385 1473 1474
3 1385 1474 1377
3 1475 1388 1380
3 1388 1475 1390
3 1390 1475 1476
3 1390 1476 1392
3 1392 1476 1477
3 1392 1477 1394
3 1394 1477 1478
3 1394 1478 1383
3 1481 1480 1479
3 1479 1400 1481
3 1400 1401 1481
3 1483 1482 1481
3 1483 1481 1401
3 1402 1484 1401
3 1401 1484 1483
3 1403 1485 1402
3 1402 1485 1484
3 1405 1485 1403
3 1487 1486 1407
3 1407 1486 1406
3 1408 1479 1480
3 1487 1408 1480
3 1407 1408 1487
3 1483 1488 1482
3 1400 1479 1408
3 1490 1489 1488
3 1483 1490 1488
3 1484 1490 1483
3 1491 1484 1485
3 1490 1484 1491
3 1409 1492 1405
3 1492 1485 1405
3 1492 1491 1485
3 1410 1492 1409
3 1494 1493 1412
3 1412 1493 1411
3 1412 1406 1486
3 1412 1486 1494
3 1495 1489 1490
3 1497 1496 1495
3 1490 1497 1495
3 1491 1497 1490
3 1498 1491 1492
3 1497 1491 1498
3 1414 1498 1410
3 1410 1498 1492
3 1500 1415 1499
3 1415 1493 1499
3 1415 1411 1493
3 1501 1500 1499
3 1496 1497 1502
3 1496 1502 1503
3 1504 1497 1498
3 1502 1497 1504
3 1416 1505 1414
3 1505 1498 1414
3 1505 1504 1498
3 1418 1505 1416
3 1506 1420 1500
3 1500 1420 1415
3 1500 1501 1507
3 1500 1507 1506
3 1508 1503 1502
3 1510 1509 1508
3 1502 1510 1508
3 1504 1510 1502
3 1511 1504 1505
3 1510 1504 1511
3 1422 1511 1418
3 1418 1511 1505
3 1512 1425 1506
3 1506 1425 1420
3 1506 1507 1513
3 1506 1513 1512
3 1509 1510 1514
3 1509 1514 1515
3 1516 1510 1511
3 1514 1510 1516
3 1427 1516 1422
3 1422 1516 1511
3 1517 1429 1430
3 1425 1512 1430
3 1512 1517 1430
3 1512 1518 1517
3 1512 1513 1519
3 1512 1519 1518
3 1515 1514 1520
3 1515 1520 1521
3 1522 1514 1516
3 1520 1514 1522
3 1432 1522 1427
3 1427 1522 1516
3 1523 1435 1517
3 1517 1435 1429
3 1524 1517 1518
3 1523 1517 1524
3 1518 1519 1525
3 1518 1525 1524
3 1528 1527 1526
3 1526 1527 1521
3 1520 1526 1521
3 1529 1526 1520
3 1530 1520 1522
3 1529 1520 1530
3 1437 1530 1432
3 1432 1530 1522
3 1523 1440 1435
3 1440 1523 1441
3 1523 1531 1441
3 1523 1524 1531
3 1524 1525 1532
3 1524 1532 1531
3 1528 1526 1533
3 1528 1533 1534
3 1535 1526 1529
3 1533 1526 1535
3 1444 1535 1443
3 1535 1530 1443
3 1535 1529 1530
3 1443 1530 1437
3 1536 1447 1531
3 1531 1447 1441
3 1531 1532 1537
3 1538 1531 1537
3 1536 1531 1538
3 1539 1538 1537
3 1542 1541 1540
3 1540 1541 1534
3 1533 1540 1534
3 1543 1540 1533
3 1544 1533 1535
3 1543 1533 1544
3 1449 1544 1444
3 1444 1544 1535
3 1536 1452 1447
3 1452 1536 1453
3 1536 1545 1453
3 1536 1538 1545
3 1538 1539 1546
3 1547 1538 1546
3 1545 1538 1547
3 1549 1548 1547
3 1549 1547 1546
3 1548 1549 1542
3 1540 1548 1542
3 1550 1548 1540
3 1551 1540 1543
3 1550 1540 1551
3 1456 1551 1455
3 1551 1544 1455
3 1551 1543 1544
3 1455 1544 1449
3 1552 1459 1545
3 1545 1459 1453
3 1553 1545 1547
3 1552 1545 1553
3 1554 1547 1548
3 1553 1547 1554
3 1555 1548 1550
3 1554 1548 1555
3 1462 1555 1461
3 1555 1551 1461
3 1555 1550 1551
3 1461 1551 1456
3 1552 1466 1459
3 1466 1552 1468
3 1468 1552 1553
3 1468 1553 1470
3 1470 1553 1554
3 1470 1554 1472
3 1472 1554 1555
3 1472 1555 1462
3 1556 1480 1481
3 1482 1556 1481
3 1557 1486 1487
3 1480 1556 1487
3 1556 1557 1487
3 1556 1558 1557
3 1488 1559 1482
3 1559 1556 1482
3 1559 1558 1556
3 1489 1559 1488
3 1560 1493 1494
3 1486 1557 1494
3 1557 1560 1494
3 1557 1561 1560
3 1562 1557 1558
3 1561 1557 1562
3 1563 1558 1559
3 1562 1558 1563
3 1495 1564 1489
3 1564 1559 1489
3 1564 1563 1559
3 1496 1564 1495
3 1560 1499 1493
3 1499 1560 1501
3 1560 1565 1501
3 1560 1561 1565
3 1566 1561 1562
3 1565 1561 1566
3 1567 1562 1563
3 1566 1562 1567
3 1568 1563 1564
3 1567 1563 1568
3 1503 1568 1496
3 1496 1568 1564
3 1569 1507 1565
3 1565 1507 1501
3 1570 1565 1566
3 1569 1565 1570
3 1571 1566 1567
3 1570 1566 1571
3 1572 1567 1568
3 1571 1567 1572
3 1508 1573 1503
3 1573 1568 1503
3 1573 1572 1568
3 1509 1573 1508
3 1574 1513 1569
3 1569 1513 1507
3 1575 1569 1570
3 1574 1569 1575
3 1576 1570 1571
3 1575 1570 1576
3 1577 1571 1572
3 1576 1571 1577
3 1578 1572 1573
3 1577 1572 1578
3 1515 1578 1509
3 1509 1578 1573
3 1579 1519 1574
3 1574 1519 1513
3 1580 1574 1575
3 1579 1574 1580
3 1581 1575 1576
3 1580 1575 1581
3 1582 1576 1577
3 1581 1576 1582
3 1583 1577 1578
3 1582 1577 1583
3 1521 1583 1515
3 1515 1583 1578
3 1584 1525 1579
3 1579 1525 1519
3 1585 1579 1580
3 1584 1579 1585
3 1586 1580 1581
3 1585 1580 1586
3 1587 1581 1582
3 1586 1581 1587
3 1528 1587 1527
3 1587 1583 1527
3 1587 1582 1583
3 1527 1583 1521
3 1588 1532 1584
3 1584 1532 1525
3 1589 1584 1585
3 1588 1584 1589
3 1590 1585 1586
3 1589 1585 1590
3 1591 1586 1587
3 1590 1586 1591
3 1534 1591 1528
3 1528 1591 1587
3 1588 1537 1532
3 1537 1588 1539
3 1588 1592 1539
3 1588 1589 1592
3 1593 1589 1590
3 1592 1589 1593
3 1542 1593 1541
3 1593 1591 1541
3 1593 1590 1591
3 1541 1591 1534
3 1592 1546 1539
3 1546 1592 1549
3 1549 1592 1593
3 1549 1593 1542
