ply
format ascii 1.0
element vertex 1272
property float x
property float y
property float z
element face 2540
property list uchar int vertex_indices
end_header
3.50000 -24.00000 -1.00000
3.00000 -24.00000 -1.50000
3.00000 -24.50000 -1.00000
3.00000 -24.50000 0.00000
3.50000 -24.00000 0.00000
3.00000 -24.00000 0.50000
3.50000 -23.00000 -2.00000
3.00000 -23.00000 -2.50000
3.00000 -23.50000 -2.00000
3.50000 -23.00000 -1.00000
3.50000 -23.00000 0.00000
3.00000 -23.50000 1.00000
3.50000 -23.00000 1.00000
3.00000 -23.00000 1.50000
3.50000 -22.00000 -2.00000
3.00000 -22.00000 -2.50000
3.50000 -22.00000 -1.00000
3.50000 -22.00000 0.00000
3.50000 -22.00000 1.00000
3.00000 -22.00000 1.50000
3.00000 -21.50000 -2.00000
3.50000 -21.00000 -1.00000
3.00000 -21.00000 -1.50000
3.50000 -21.00000 0.00000
3.00000 -21.00000 0.50000
3.00000 -21.50000 1.00000
3.00000 -20.50000 -1.00000
3.00000 -20.50000 0.00000
3.50000 -1.00000 1.00000
3.00000 -1.00000 0.50000
3.00000 -1.50000 1.00000
3.00000 -1.00000 1.50000
3.00000 -0.50000 1.00000
2.50000 -27.00000 3.00000
2.00000 -27.00000 2.50000
2.00000 -27.50000 3.00000
2.00000 -27.50000 4.00000
2.50000 -27.00000 4.00000
2.00000 -27.50000 5.00000
2.50000 -27.00000 5.00000
2.00000 -27.50000 6.00000
2.50000 -27.00000 6.00000
2.00000 -27.00000 6.50000
2.50000 -26.00000 2.00000
2.00000 -26.00000 1.50000
2.00000 -26.50000 2.00000
2.50000 -26.00000 3.00000
2.50000 -26.00000 4.00000
2.50000 -26.00000 5.00000
2.50000 -26.00000 6.00000
2.00000 -26.50000 7.00000
2.50000 -26.00000 7.00000
2.00000 -26.00000 7.50000
2.50000 -25.00000 1.00000
2.00000 -25.00000 0.50000
2.00000 -25.50000 1.00000
2.50000 -25.00000 2.00000
2.50000 -25.00000 3.00000
2.50000 -25.00000 4.00000
2.50000 -25.00000 5.00000
2.50000 -25.00000 6.00000
2.50000 -25.00000 7.00000
2.00000 -25.50000 8.00000
2.50000 -25.00000 8.00000
2.00000 -25.00000 8.50000
2.50000 -24.00000 -3.00000
2.00000 -24.00000 -3.50000
2.00000 -24.50000 -3.00000
2.00000 -24.50000 -2.00000
2.50000 -24.00000 -2.00000
2.00000 -24.50000 -1.00000
2.00000 -24.50000 0.00000
2.50000 -24.00000 1.00000
2.50000 -24.00000 2.00000
2.50000 -24.00000 3.00000
2.50000 -24.00000 4.00000
2.50000 -24.00000 5.00000
2.50000 -24.00000 6.00000
2.50000 -24.00000 7.00000
2.50000 -24.00000 8.00000
2.00000 -24.00000 8.50000
2.50000 -23.00000 -3.00000
2.00000 -23.00000 -3.50000
2.50000 -23.00000 2.00000
2.50000 -23.00000 3.00000
2.50000 -23.00000 4.00000
2.50000 -23.00000 5.00000
2.50000 -23.00000 6.00000
2.50000 -23.00000 7.00000
2.00000 -23.00000 7.50000
2.00000 -23.50000 8.00000
2.50000 -22.00000 -3.00000
2.00000 -22.00000 -3.50000
2.50000 -22.00000 2.00000
2.50000 -22.00000 3.00000
2.00000 -22.00000 3.50000
2.00000 -22.50000 4.00000
2.00000 -22.50000 5.00000
2.00000 -22.50000 6.00000
2.00000 -22.50000 7.00000
2.50000 -21.00000 -3.00000
2.00000 -21.00000 -3.50000
2.50000 -21.00000 -2.00000
2.50000 -21.00000 1.00000
2.50000 -21.00000 2.00000
2.50000 -21.00000 3.00000
2.00000 -21.00000 3.50000
2.50000 -20.00000 -3.00000
2.00000 -20.00000 -3.50000
2.50000 -20.00000 -2.00000
2.50000 -20.00000 -1.00000
2.50000 -20.00000 0.00000
2.50000 -20.00000 1.00000
2.50000 -20.00000 2.00000
2.00000 -20.00000 2.50000
2.00000 -20.50000 3.00000
2.50000 -19.00000 -3.00000
2.00000 -19.00000 -3.50000
2.50000 -19.00000 -2.00000
2.50000 -19.00000 -1.00000
2.50000 -19.00000 0.00000
2.50000 -19.00000 1.00000
2.00000 -19.00000 1.50000
2.00000 -19.50000 2.00000
2.50000 -18.00000 -3.00000
2.00000 -18.00000 -3.50000
2.50000 -18.00000 -2.00000
2.50000 -18.00000 -1.00000
2.00000 -18.00000 -0.50000
2.00000 -18.50000 0.00000
2.00000 -18.50000 1.00000
2.50000 -17.00000 -3.00000
2.00000 -17.00000 -3.50000
2.50000 -17.00000 -2.00000
2.50000 -17.00000 -1.00000
2.00000 -17.00000 -0.50000
2.50000 -16.00000 -4.00000
2.00000 -16.00000 -4.50000
2.00000 -16.50000 -4.00000
2.50000 -16.00000 -3.00000
2.50000 -16.00000 -2.00000
2.00000 -16.00000 -1.50000
2.00000 -16.50000 -1.00000
2.50000 -15.00000 -4.00000
2.00000 -15.00000 -4.50000
2.50000 -15.00000 -3.00000
2.50000 -15.00000 -2.00000
2.00000 -15.00000 -1.50000
2.50000 -14.00000 -5.00000
2.00000 -14.00000 -5.50000
2.00000 -14.50000 -5.00000
2.50000 -14.00000 -4.00000
2.50000 -14.00000 -3.00000
2.00000 -14.00000 -2.50000
2.00000 -14.50000 -2.00000
2.50000 -13.00000 -5.00000
2.00000 -13.00000 -5.50000
2.50000 -13.00000 -4.00000
2.50000 -13.00000 -3.00000
2.00000 -13.00000 -2.50000
2.50000 -12.00000 -6.00000
2.00000 -12.00000 -6.50000
2.00000 -12.50000 -6.00000
2.50000 -12.00000 -5.00000
2.50000 -12.00000 -4.00000
2.00000 -12.00000 -3.50000
2.00000 -12.50000 -3.00000
2.00000 -11.50000 -6.00000
2.50000 -11.00000 -5.00000
2.00000 -11.00000 -5.50000
2.50000 -11.00000 -4.00000
2.00000 -11.00000 -3.50000
2.50000 -10.00000 -5.00000
2.00000 -10.00000 -5.50000
2.50000 -10.00000 -4.00000
2.00000 -10.00000 -3.50000
2.50000 -9.00000 -5.00000
2.00000 -9.00000 -5.50000
2.50000 -9.00000 -4.00000
2.00000 -9.00000 -3.50000
2.50000 -8.00000 -6.00000
2.00000 -8.00000 -6.50000
2.00000 -8.50000 -6.00000
2.50000 -8.00000 -5.00000
2.50000 -8.00000 -4.00000
2.00000 -8.00000 -3.50000
2.50000 -7.00000 -6.00000
2.00000 -7.00000 -6.50000
2.50000 -7.00000 -5.00000
2.50000 -7.00000 -4.00000
2.00000 -7.50000 -3.00000
2.50000 -7.00000 -3.00000
2.00000 -7.00000 -2.50000
2.50000 -6.00000 -7.00000
2.00000 -6.00000 -7.50000
2.00000 -6.50000 -7.00000
2.50000 -6.00000 -6.00000
2.50000 -6.00000 -5.00000
2.50000 -6.00000 -4.00000
2.50000 -6.00000 -3.00000
2.00000 -6.00000 -2.50000
2.50000 -5.00000 -10.00000
2.00000 -5.00000 -10.50000
2.00000 -5.50000 -10.00000
2.00000 -5.50000 -9.00000
2.50000 -5.00000 -9.00000
2.00000 -5.50000 -8.00000
2.50000 -5.00000 -8.00000
2.50000 -5.00000 -7.00000
2.50000 -5.00000 -6.00000
2.50000 -5.00000 -5.00000
2.50000 -5.00000 -4.00000
2.50000 -5.00000 -3.00000
2.00000 -5.50000 -2.00000
2.50000 -5.00000 -2.00000
2.00000 -5.00000 -1.50000
2.50000 -4.00000 -12.00000
2.00000 -4.00000 -12.50000
2.00000 -4.50000 -12.00000
2.00000 -4.50000 -11.00000
2.50000 -4.00000 -11.00000
2.50000 -4.00000 -10.00000
2.50000 -4.00000 -9.00000
2.50000 -4.00000 -8.00000
2.50000 -4.00000 -7.00000
2.50000 -4.00000 -6.00000
2.50000 -4.00000 -5.00000
2.50000 -4.00000 -4.00000
2.50000 -4.00000 -3.00000
2.50000 -4.00000 -2.00000
2.00000 -4.50000 -1.00000
2.50000 -4.00000 -1.00000
2.00000 -4.00000 -0.50000
2.50000 -3.00000 -12.00000
2.00000 -3.00000 -12.50000
2.50000 -3.00000 -11.00000
2.50000 -3.00000 -10.00000
2.50000 -3.00000 -9.00000
2.50000 -3.00000 -8.00000
2.50000 -3.00000 -7.00000
2.50000 -3.00000 -6.00000
2.50000 -3.00000 -5.00000
2.50000 -3.00000 -4.00000
2.50000 -3.00000 -3.00000
2.50000 -3.00000 -2.00000
2.50000 -3.00000 -1.00000
2.00000 -3.50000 0.00000
2.50000 -3.00000 0.00000
2.00000 -3.00000 0.50000
2.00000 -2.50000 -12.00000
2.50000 -2.00000 -11.00000
2.00000 -2.00000 -11.50000
2.50000 -2.00000 -10.00000
2.50000 -2.00000 -9.00000
2.50000 -2.00000 -8.00000
2.00000 -2.00000 -7.50000
2.00000 -2.50000 -7.00000
2.50000 -2.00000 -6.00000
2.00000 -2.00000 -6.50000
2.50000 -2.00000 -5.00000
2.50000 -2.00000 -4.00000
2.50000 -2.00000 -3.00000
2.50000 -2.00000 -2.00000
2.50000 -2.00000 -1.00000
2.50000 -2.00000 0.00000
2.00000 -2.50000 1.00000
2.50000 -2.00000 1.00000
2.00000 -2.50000 2.00000
2.50000 -2.00000 2.00000
2.00000 -2.00000 2.50000
2.00000 -1.50000 -11.00000
2.00000 -1.50000 -10.00000
2.00000 -1.50000 -9.00000
2.00000 -1.50000 -8.00000
2.00000 -1.50000 -6.00000
2.00000 -1.50000 -5.00000
2.00000 -1.50000 -4.00000
2.00000 -1.50000 -3.00000
2.50000 -1.00000 -2.00000
2.00000 -1.00000 -2.50000
2.50000 -1.00000 -1.00000
2.50000 -1.00000 0.00000
2.50000 -1.00000 2.00000
2.00000 -1.50000 3.00000
2.50000 -1.00000 3.00000
2.00000 -1.00000 3.50000
2.00000 -0.50000 -2.00000
2.00000 -0.50000 -1.00000
2.50000 0.00000 0.00000
2.00000 0.00000 -0.50000
2.50000 0.00000 1.00000
2.50000 0.00000 2.00000
2.50000 0.00000 3.00000
2.00000 0.00000 3.50000
2.50000 1.00000 -17.00000
2.00000 1.00000 -17.50000
2.00000 0.50000 -17.00000
2.00000 0.50000 -16.00000
2.50000 1.00000 -16.00000
2.00000 0.50000 -15.00000
2.50000 1.00000 -15.00000
2.00000 0.50000 -14.00000
2.50000 1.00000 -14.00000
2.00000 1.00000 -13.50000
2.00000 0.50000 0.00000
2.00000 0.50000 1.00000
2.00000 0.50000 2.00000
2.00000 0.50000 3.00000
2.00000 1.50000 -17.00000
2.50000 2.00000 -16.00000
2.00000 2.00000 -16.50000
2.50000 2.00000 -15.00000
2.50000 2.00000 -14.00000
2.00000 1.50000 -13.00000
2.50000 2.00000 -13.00000
2.00000 1.50000 -12.00000
2.50000 2.00000 -12.00000
2.00000 2.00000 -11.50000
2.00000 2.50000 -16.00000
2.00000 2.50000 -15.00000
2.00000 2.50000 -14.00000
2.00000 2.50000 -13.00000
2.00000 2.50000 -12.00000
1.50000 -28.00000 3.00000
1.00000 -28.00000 2.50000
1.00000 -28.50000 3.00000
1.00000 -28.50000 4.00000
1.50000 -28.00000 4.00000
1.00000 -28.50000 5.00000
1.50000 -28.00000 5.00000
1.00000 -28.50000 6.00000
1.50000 -28.00000 6.00000
1.00000 -28.00000 6.50000
1.50000 -27.00000 2.00000
1.00000 -27.00000 1.50000
1.00000 -27.50000 2.00000
1.00000 -27.50000 7.00000
1.50000 -27.00000 7.00000
1.00000 -27.00000 7.50000
1.50000 -26.00000 1.00000
1.00000 -26.00000 0.50000
1.00000 -26.50000 1.00000
1.00000 -26.50000 8.00000
1.50000 -26.00000 8.00000
1.00000 -26.00000 8.50000
1.50000 -25.00000 -5.00000
1.00000 -25.00000 -5.50000
1.00000 -25.50000 -5.00000
1.00000 -25.00000 -4.50000
1.50000 -25.00000 0.00000
1.00000 -25.00000 -0.50000
1.00000 -25.50000 0.00000
1.00000 -25.50000 9.00000
1.50000 -25.00000 9.00000
1.00000 -25.00000 9.50000
1.50000 -24.00000 -5.00000
1.00000 -24.00000 -5.50000
1.00000 -24.50000 -4.00000
1.50000 -24.00000 -4.00000
1.00000 -24.50000 -3.00000
1.00000 -24.50000 -2.00000
1.00000 -24.50000 -1.00000
1.50000 -24.00000 9.00000
1.00000 -24.00000 9.50000
1.50000 -23.00000 -5.00000
1.00000 -23.00000 -5.50000
1.50000 -23.00000 -4.00000
1.00000 -23.50000 8.00000
1.00000 -23.00000 7.50000
1.00000 -23.50000 9.00000
1.00000 -22.50000 -5.00000
1.50000 -22.00000 -4.00000
1.00000 -22.00000 -4.50000
1.50000 -22.00000 4.00000
1.50000 -22.00000 5.00000
1.50000 -22.00000 6.00000
1.00000 -22.00000 6.50000
1.00000 -22.50000 7.00000
1.50000 -21.00000 -4.00000
1.00000 -21.00000 -4.50000
1.50000 -21.00000 4.00000
1.50000 -21.00000 5.00000
1.50000 -21.00000 6.00000
1.00000 -21.00000 6.50000
1.50000 -20.00000 -4.00000
1.00000 -20.00000 -4.50000
1.50000 -20.00000 3.00000
1.50000 -20.00000 4.00000
1.50000 -20.00000 5.00000
1.00000 -20.00000 5.50000
1.00000 -20.50000 6.00000
1.50000 -19.00000 -4.00000
1.00000 -19.00000 -4.50000
1.50000 -19.00000 2.00000
1.50000 -19.00000 3.00000
1.50000 -19.00000 4.00000
1.00000 -19.00000 4.50000
1.00000 -19.50000 5.00000
1.50000 -18.00000 -4.00000
1.00000 -18.00000 -4.50000
1.50000 -18.00000 0.00000
1.50000 -18.00000 1.00000
1.50000 -18.00000 2.00000
1.00000 -18.00000 2.50000
1.00000 -18.50000 3.00000
1.00000 -18.50000 4.00000
1.50000 -17.00000 -5.00000
1.00000 -17.00000 -5.50000
1.00000 -17.50000 -5.00000
1.50000 -17.00000 -4.00000
1.50000 -17.00000 0.00000
1.50000 -17.00000 1.00000
1.50000 -17.00000 2.00000
1.00000 -17.00000 2.50000
1.50000 -16.00000 -5.00000
1.00000 -16.00000 -5.50000
1.50000 -16.00000 -1.00000
1.50000 -16.00000 0.00000
1.50000 -16.00000 1.00000
1.00000 -16.00000 1.50000
1.00000 -16.50000 2.00000
1.50000 -15.00000 -6.00000
1.00000 -15.00000 -6.50000
1.00000 -15.50000 -6.00000
1.50000 -15.00000 -5.00000
1.50000 -15.00000 -1.00000
1.50000 -15.00000 0.00000
1.00000 -15.00000 0.50000
1.00000 -15.50000 1.00000
1.50000 -14.00000 -6.00000
1.00000 -14.00000 -6.50000
1.50000 -14.00000 -2.00000
1.50000 -14.00000 -1.00000
1.00000 -14.00000 -0.50000
1.00000 -14.50000 0.00000
1.50000 -13.00000 -7.00000
1.00000 -13.00000 -7.50000
1.00000 -13.50000 -7.00000
1.50000 -13.00000 -6.00000
1.50000 -13.00000 -2.00000
1.50000 -13.00000 -1.00000
1.00000 -13.00000 -0.50000
1.50000 -12.00000 -7.00000
1.00000 -12.00000 -7.50000
1.50000 -12.00000 -3.00000
1.50000 -12.00000 -2.00000
1.00000 -12.00000 -1.50000
1.00000 -12.50000 -1.00000
1.50000 -11.00000 -8.00000
1.00000 -11.00000 -8.50000
1.00000 -11.50000 -8.00000
1.50000 -11.00000 -7.00000
1.50000 -11.00000 -6.00000
1.50000 -11.00000 -3.00000
1.50000 -11.00000 -2.00000
1.00000 -11.00000 -1.50000
1.50000 -10.00000 -8.00000
1.00000 -10.00000 -8.50000
1.50000 -10.00000 -7.00000
1.50000 -10.00000 -6.00000
1.50000 -10.00000 -3.00000
1.50000 -10.00000 -2.00000
1.00000 -10.00000 -1.50000
1.50000 -9.00000 -9.00000
1.00000 -9.00000 -9.50000
1.00000 -9.50000 -9.00000
1.50000 -9.00000 -8.00000
1.50000 -9.00000 -7.00000
1.50000 -9.00000 -6.00000
1.50000 -9.00000 -3.00000
1.50000 -9.00000 -2.00000
1.00000 -9.00000 -1.50000
1.50000 -8.00000 -10.00000
1.00000 -8.00000 -10.50000
1.00000 -8.50000 -10.00000
1.50000 -8.00000 -9.00000
1.50000 -8.00000 -8.00000
1.50000 -8.00000 -7.00000
1.50000 -8.00000 -3.00000
1.50000 -8.00000 -2.00000
1.00000 -8.00000 -1.50000
1.50000 -7.00000 -11.00000
1.00000 -7.00000 -11.50000
1.00000 -7.50000 -11.00000
1.50000 -7.00000 -10.00000
1.50000 -7.00000 -9.00000
1.50000 -7.00000 -8.00000
1.50000 -7.00000 -7.00000
1.50000 -7.00000 -2.00000
1.00000 -7.00000 -1.50000
1.50000 -6.00000 -15.00000
1.00000 -6.00000 -15.50000
1.00000 -6.50000 -15.00000
1.00000 -6.50000 -14.00000
1.50000 -6.00000 -14.00000
1.00000 -6.50000 -13.00000
1.50000 -6.00000 -13.00000
1.00000 -6.50000 -12.00000
1.50000 -6.00000 -12.00000
1.50000 -6.00000 -11.00000
1.50000 -6.00000 -10.00000
1.50000 -6.00000 -9.00000
1.50000 -6.00000 -8.00000
1.50000 -6.00000 -2.00000
1.00000 -6.50000 -1.00000
1.50000 -6.00000 -1.00000
1.00000 -6.00000 -0.50000
1.50000 -5.00000 -16.00000
1.00000 -5.00000 -16.50000
1.00000 -5.50000 -16.00000
1.50000 -5.00000 -15.00000
1.50000 -5.00000 -14.00000
1.50000 -5.00000 -13.00000
1.50000 -5.00000 -12.00000
1.50000 -5.00000 -11.00000
1.50000 -5.00000 -1.00000
1.00000 -5.50000 0.00000
1.50000 -5.00000 0.00000
1.00000 -5.00000 0.50000
1.50000 -4.00000 -17.00000
1.00000 -4.00000 -17.50000
1.00000 -4.50000 -17.00000
1.50000 -4.00000 -16.00000
1.50000 -4.00000 -15.00000
1.50000 -4.00000 -14.00000
1.50000 -4.00000 -13.00000
1.50000 -4.00000 0.00000
1.00000 -4.50000 1.00000
1.50000 -4.00000 1.00000
1.00000 -4.00000 1.50000
1.50000 -3.00000 -17.00000
1.00000 -3.00000 -17.50000
1.50000 -3.00000 -16.00000
1.50000 -3.00000 -15.00000
1.50000 -3.00000 -14.00000
1.50000 -3.00000 -13.00000
1.50000 -3.00000 1.00000
1.00000 -3.50000 2.00000
1.50000 -3.00000 2.00000
1.00000 -3.00000 2.50000
1.50000 -2.00000 -17.00000
1.00000 -2.00000 -17.50000
1.50000 -2.00000 -16.00000
1.50000 -2.00000 -15.00000
1.50000 -2.00000 -14.00000
1.50000 -2.00000 -13.00000
1.50000 -2.00000 -12.00000
1.50000 -2.00000 -7.00000
1.00000 -2.50000 3.00000
1.50000 -2.00000 3.00000
1.00000 -2.00000 3.50000
1.50000 -1.00000 -18.00000
1.00000 -1.00000 -18.50000
1.00000 -1.50000 -18.00000
1.50000 -1.00000 -17.00000
1.50000 -1.00000 -16.00000
1.50000 -1.00000 -15.00000
1.50000 -1.00000 -14.00000
1.50000 -1.00000 -13.00000
1.50000 -1.00000 -12.00000
1.50000 -1.00000 -11.00000
1.50000 -1.00000 -10.00000
1.50000 -1.00000 -9.00000
1.50000 -1.00000 -8.00000
1.50000 -1.00000 -7.00000
1.50000 -1.00000 -6.00000
1.50000 -1.00000 -5.00000
1.50000 -1.00000 -4.00000
1.50000 -1.00000 -3.00000
1.00000 -1.00000 3.50000
1.50000 0.00000 -18.00000
1.00000 0.00000 -18.50000
1.50000 0.00000 -17.00000
1.50000 0.00000 -16.00000
1.50000 0.00000 -15.00000
1.50000 0.00000 -14.00000
1.50000 0.00000 -13.00000
1.50000 0.00000 -12.00000
1.50000 0.00000 -11.00000
1.50000 0.00000 -10.00000
1.50000 0.00000 -9.00000
1.50000 0.00000 -8.00000
1.50000 0.00000 -7.00000
1.50000 0.00000 -6.00000
1.50000 0.00000 -5.00000
1.50000 0.00000 -4.00000
1.50000 0.00000 -3.00000
1.50000 0.00000 -2.00000
1.50000 0.00000 -1.00000
1.00000 0.00000 3.50000
1.00000 0.50000 -18.00000
1.00000 1.00000 -17.50000
1.50000 1.00000 -13.00000
1.50000 1.00000 -12.00000
1.50000 1.00000 -11.00000
1.50000 1.00000 -10.00000
1.50000 1.00000 -9.00000
1.50000 1.00000 -8.00000
1.50000 1.00000 -7.00000
1.50000 1.00000 -6.00000
1.00000 1.00000 -5.50000
1.00000 0.50000 -5.00000
1.00000 0.50000 -4.00000
1.00000 0.50000 -3.00000
1.00000 0.50000 -2.00000
1.00000 0.50000 -1.00000
1.00000 0.50000 0.00000
1.00000 0.50000 1.00000
1.00000 0.50000 2.00000
1.00000 0.50000 3.00000
1.50000 2.00000 -17.00000
1.00000 2.00000 -17.50000
1.50000 2.00000 -11.00000
1.50000 2.00000 -10.00000
1.50000 2.00000 -9.00000
1.50000 2.00000 -8.00000
1.00000 2.00000 -7.50000
1.00000 1.50000 -7.00000
1.00000 1.50000 -6.00000
1.00000 2.50000 -17.00000
1.00000 2.50000 -16.00000
1.50000 3.00000 -15.00000
1.00000 3.00000 -15.50000
1.50000 3.00000 -14.00000
1.50000 3.00000 -13.00000
1.50000 3.00000 -12.00000
1.50000 3.00000 -11.00000
1.00000 3.00000 -10.50000
1.00000 2.50000 -10.00000
1.00000 2.50000 -9.00000
1.00000 2.50000 -8.00000
1.00000 3.50000 -15.00000
1.00000 3.50000 -14.00000
1.00000 3.50000 -13.00000
1.00000 3.50000 -12.00000
1.00000 3.50000 -11.00000
0.50000 -28.00000 3.00000
0.00000 -28.00000 3.50000
0.00000 -28.50000 4.00000
0.00000 -28.50000 5.00000
0.50000 -28.00000 6.00000
0.00000 -28.00000 5.50000
0.50000 -27.00000 2.00000
0.00000 -27.00000 2.50000
0.00000 -27.50000 3.00000
0.00000 -27.50000 6.00000
0.50000 -27.00000 7.00000
0.00000 -27.00000 6.50000
0.50000 -26.00000 1.00000
0.00000 -26.00000 1.50000
0.00000 -26.50000 2.00000
0.00000 -26.50000 7.00000
0.50000 -26.00000 8.00000
0.00000 -26.00000 7.50000
0.00000 -25.00000 -5.50000
0.00000 -25.50000 -5.00000
0.00000 -25.00000 -4.50000
0.00000 -25.00000 -0.50000
0.00000 -25.50000 0.00000
0.00000 -25.50000 1.00000
0.00000 -25.50000 8.00000
0.50000 -25.00000 9.00000
0.00000 -25.00000 8.50000
0.00000 -24.00000 -5.50000
0.00000 -24.50000 -4.00000
0.00000 -24.50000 -3.00000
0.00000 -24.50000 -2.00000
0.00000 -24.50000 -1.00000
0.50000 -24.00000 8.00000
0.00000 -24.50000 8.00000
0.00000 -24.00000 7.50000
0.50000 -24.00000 9.00000
0.00000 -23.00000 -5.50000
0.50000 -23.00000 7.00000
0.00000 -23.50000 7.00000
0.00000 -23.00000 6.50000
0.00000 -22.50000 -5.00000
0.00000 -22.00000 -4.50000
0.00000 -22.00000 6.50000
0.00000 -21.00000 -4.50000
0.50000 -21.00000 6.00000
0.00000 -21.50000 6.00000
0.00000 -21.00000 5.50000
0.00000 -20.00000 -4.50000
0.50000 -20.00000 5.00000
0.00000 -20.50000 5.00000
0.00000 -20.00000 4.50000
0.50000 -19.00000 -5.00000
0.00000 -19.00000 -5.50000
0.00000 -19.50000 -5.00000
0.50000 -19.00000 3.00000
0.00000 -19.50000 3.00000
0.00000 -19.00000 2.50000
0.50000 -19.00000 4.00000
0.00000 -19.50000 4.00000
0.50000 -18.00000 -5.00000
0.00000 -18.00000 -5.50000
0.50000 -18.00000 2.00000
0.00000 -18.50000 2.00000
0.00000 -18.00000 1.50000
0.00000 -17.00000 -5.50000
0.50000 -17.00000 2.00000
0.00000 -17.00000 1.50000
0.50000 -16.00000 -6.00000
0.00000 -16.00000 -6.50000
0.00000 -16.50000 -6.00000
0.00000 -16.00000 1.50000
0.00000 -15.00000 -6.50000
0.00000 -15.50000 1.00000
0.00000 -15.00000 0.50000
0.00000 -14.00000 -6.50000
0.00000 -14.50000 0.00000
0.00000 -14.00000 -0.50000
0.00000 -13.00000 -7.50000
0.00000 -13.50000 -7.00000
0.00000 -13.00000 -0.50000
0.00000 -12.00000 -7.50000
0.00000 -12.50000 -1.00000
0.00000 -12.00000 -1.50000
0.00000 -11.00000 -8.50000
0.00000 -11.50000 -8.00000
0.00000 -11.00000 -1.50000
0.00000 -10.00000 -8.50000
0.50000 -10.00000 -2.00000
0.00000 -10.50000 -2.00000
0.00000 -10.00000 -2.50000
0.00000 -9.00000 -9.50000
0.00000 -9.50000 -9.00000
0.00000 -9.50000 -2.00000
0.00000 -9.00000 -1.50000
0.00000 -8.00000 -10.50000
0.00000 -8.50000 -10.00000
0.00000 -8.00000 -1.50000
0.50000 -7.00000 -12.00000
0.00000 -7.00000 -12.50000
0.00000 -7.50000 -12.00000
0.00000 -7.50000 -11.00000
0.00000 -7.50000 -1.00000
0.50000 -7.00000 -1.00000
0.00000 -7.00000 -0.50000
0.00000 -6.00000 -15.50000
0.00000 -6.50000 -15.00000
0.00000 -6.50000 -14.00000
0.00000 -6.50000 -13.00000
0.00000 -6.00000 -0.50000
0.00000 -5.00000 -16.50000
0.00000 -5.50000 -16.00000
0.00000 -5.50000 0.00000
0.00000 -5.00000 0.50000
0.50000 -4.00000 -17.00000
0.00000 -4.00000 -16.50000
0.00000 -4.50000 1.00000
0.00000 -4.00000 1.50000
0.00000 -3.00000 -17.50000
0.00000 -3.50000 -17.00000
0.00000 -3.50000 2.00000
0.00000 -3.00000 2.50000
0.00000 -2.00000 -17.50000
0.00000 -2.50000 3.00000
0.00000 -2.00000 3.50000
0.50000 -1.00000 -18.00000
0.00000 -1.00000 -17.50000
0.00000 -1.00000 3.50000
0.00000 0.00000 -18.50000
0.00000 -0.50000 -18.00000
0.00000 0.00000 3.50000
0.00000 0.50000 -18.00000
0.00000 1.00000 -17.50000
0.00000 0.50000 -5.00000
0.00000 1.00000 -5.50000
0.00000 0.50000 -4.00000
0.00000 0.50000 -3.00000
0.00000 0.50000 -2.00000
0.00000 0.50000 -1.00000
0.00000 0.50000 0.00000
0.00000 0.50000 1.00000
0.00000 0.50000 2.00000
0.00000 0.50000 3.00000
0.00000 2.00000 -17.50000
0.00000 1.50000 -7.00000
0.00000 2.00000 -7.50000
0.00000 1.50000 -6.00000
0.00000 2.50000 -17.00000
0.00000 2.50000 -16.00000
0.00000 3.00000 -15.50000
0.00000 2.50000 -10.00000
0.00000 3.00000 -10.50000
0.00000 2.50000 -9.00000
0.00000 2.50000 -8.00000
0.00000 3.50000 -15.00000
0.00000 3.50000 -14.00000
0.00000 3.50000 -13.00000
0.00000 3.50000 -12.00000
0.00000 3.50000 -11.00000
-0.50000 -28.00000 4.00000
-0.50000 -28.00000 5.00000
-0.50000 -27.00000 3.00000
-0.50000 -27.00000 4.00000
-0.50000 -27.00000 5.00000
-0.50000 -27.00000 6.00000
-0.50000 -26.00000 2.00000
-0.50000 -26.00000 3.00000
-0.50000 -26.00000 4.00000
-0.50000 -26.00000 5.00000
-0.50000 -26.00000 6.00000
-0.50000 -26.00000 7.00000
-0.50000 -25.00000 -5.00000
-0.50000 -25.00000 0.00000
-0.50000 -25.00000 1.00000
-0.50000 -25.00000 2.00000
-0.50000 -25.00000 3.00000
-0.50000 -25.00000 4.00000
-0.50000 -25.00000 5.00000
-0.50000 -25.00000 6.00000
-0.50000 -25.00000 7.00000
-0.50000 -25.00000 8.00000
-0.50000 -24.00000 -5.00000
-0.50000 -24.00000 -4.00000
-1.00000 -24.00000 -3.50000
-1.00000 -24.50000 -3.00000
-1.00000 -24.50000 -2.00000
-1.00000 -24.50000 -1.00000
-1.00000 -24.50000 0.00000
-1.00000 -24.50000 1.00000
-1.00000 -24.50000 2.00000
-1.00000 -24.00000 2.50000
-0.50000 -24.00000 3.00000
-0.50000 -24.00000 4.00000
-0.50000 -24.00000 5.00000
-0.50000 -24.00000 6.00000
-0.50000 -24.00000 7.00000
-0.50000 -23.00000 -5.00000
-0.50000 -23.00000 -4.00000
-1.00000 -23.00000 -3.50000
-0.50000 -23.00000 3.00000
-1.00000 -23.00000 2.50000
-0.50000 -23.00000 4.00000
-0.50000 -23.00000 5.00000
-0.50000 -23.00000 6.00000
-0.50000 -22.00000 -4.00000
-1.00000 -22.00000 -3.50000
-0.50000 -22.00000 3.00000
-1.00000 -22.00000 2.50000
-0.50000 -22.00000 4.00000
-0.50000 -22.00000 5.00000
-0.50000 -22.00000 6.00000
-0.50000 -21.00000 -4.00000
-1.00000 -21.00000 -3.50000
-0.50000 -21.00000 3.00000
-1.00000 -21.00000 2.50000
-0.50000 -21.00000 4.00000
-0.50000 -21.00000 5.00000
-0.50000 -20.00000 -4.00000
-1.00000 -20.00000 -3.50000
-0.50000 -20.00000 1.00000
-1.00000 -20.50000 1.00000
-1.00000 -20.00000 0.50000
-0.50000 -20.00000 2.00000
-1.00000 -20.50000 2.00000
-0.50000 -20.00000 3.00000
-0.50000 -20.00000 4.00000
-0.50000 -19.00000 -5.00000
-0.50000 -19.00000 -4.00000
-1.00000 -19.00000 -3.50000
-0.50000 -19.00000 1.00000
-1.00000 -19.00000 0.50000
-0.50000 -19.00000 2.00000
-0.50000 -18.00000 -5.00000
-0.50000 -18.00000 -4.00000
-1.00000 -18.00000 -3.50000
-0.50000 -18.00000 0.00000
-1.00000 -18.50000 0.00000
-1.00000 -18.00000 -0.50000
-0.50000 -18.00000 1.00000
-0.50000 -17.00000 -5.00000
-1.00000 -17.00000 -4.50000
-1.00000 -17.50000 -4.00000
-0.50000 -17.00000 -1.00000
-1.00000 -17.50000 -1.00000
-1.00000 -17.00000 -1.50000
-0.50000 -17.00000 0.00000
-0.50000 -17.00000 1.00000
-0.50000 -16.00000 -6.00000
-0.50000 -16.00000 -5.00000
-1.00000 -16.00000 -4.50000
-0.50000 -16.00000 -1.00000
-1.00000 -16.00000 -1.50000
-0.50000 -16.00000 0.00000
-0.50000 -16.00000 1.00000
-0.50000 -15.00000 -6.00000
-0.50000 -15.00000 -5.00000
-1.00000 -15.00000 -4.50000
-0.50000 -15.00000 -1.00000
-1.00000 -15.00000 -1.50000
-0.50000 -15.00000 0.00000
-0.50000 -14.00000 -6.00000
-1.00000 -14.00000 -5.50000
-1.00000 -14.50000 -5.00000
-0.50000 -14.00000 -2.00000
-1.00000 -14.50000 -2.00000
-1.00000 -14.00000 -2.50000
-0.50000 -14.00000 -1.00000
-0.50000 -13.00000 -7.00000
-0.50000 -13.00000 -6.00000
-1.00000 -13.00000 -5.50000
-0.50000 -13.00000 -3.00000
-1.00000 -13.50000 -3.00000
-1.00000 -13.00000 -3.50000
-0.50000 -13.00000 -2.00000
-0.50000 -13.00000 -1.00000
-0.50000 -12.00000 -7.00000
-0.50000 -12.00000 -6.00000
-1.00000 -12.00000 -5.50000
-0.50000 -12.00000 -3.00000
-1.00000 -12.00000 -3.50000
-0.50000 -12.00000 -2.00000
-0.50000 -11.00000 -8.00000
-0.50000 -11.00000 -7.00000
-0.50000 -11.00000 -6.00000
-1.00000 -11.00000 -5.50000
-0.50000 -11.00000 -3.00000
-1.00000 -11.00000 -3.50000
-0.50000 -11.00000 -2.00000
-0.50000 -10.00000 -8.00000
-0.50000 -10.00000 -7.00000
-1.00000 -10.00000 -6.50000
-1.00000 -10.50000 -6.00000
-0.50000 -10.00000 -3.00000
-1.00000 -10.00000 -3.50000
-0.50000 -9.00000 -9.00000
-0.50000 -9.00000 -8.00000
-0.50000 -9.00000 -7.00000
-1.00000 -9.00000 -6.50000
-0.50000 -9.00000 -3.00000
-1.00000 -9.00000 -3.50000
-0.50000 -9.00000 -2.00000
-0.50000 -8.00000 -10.00000
-0.50000 -8.00000 -9.00000
-0.50000 -8.00000 -8.00000
-1.00000 -8.00000 -7.50000
-1.00000 -8.50000 -7.00000
-1.00000 -8.50000 -3.00000
-1.00000 -8.00000 -2.50000
-0.50000 -8.00000 -2.00000
-0.50000 -7.00000 -12.00000
-0.50000 -7.00000 -11.00000
-0.50000 -7.00000 -10.00000
-0.50000 -7.00000 -9.00000
-0.50000 -7.00000 -8.00000
-1.00000 -7.00000 -7.50000
-0.50000 -7.00000 -2.00000
-1.00000 -7.00000 -2.50000
-0.50000 -7.00000 -1.00000
-0.50000 -6.00000 -15.00000
-0.50000 -6.00000 -14.00000
-0.50000 -6.00000 -13.00000
-0.50000 -6.00000 -12.00000
-0.50000 -6.00000 -11.00000
-0.50000 -6.00000 -10.00000
-0.50000 -6.00000 -9.00000
-1.00000 -6.00000 -8.50000
-1.00000 -6.50000 -8.00000
-1.00000 -6.50000 -2.00000
-1.00000 -6.00000 -1.50000
-0.50000 -6.00000 -1.00000
-0.50000 -5.00000 -16.00000
-0.50000 -5.00000 -15.00000
-0.50000 -5.00000 -14.00000
-0.50000 -5.00000 -13.00000
-0.50000 -5.00000 -12.00000
-0.50000 -5.00000 -11.00000
-0.50000 -5.00000 -10.00000
-0.50000 -5.00000 -9.00000
-1.00000 -5.00000 -8.50000
-1.00000 -5.50000 -1.00000
-0.50000 -5.00000 0.00000
-1.00000 -5.00000 -0.50000
-0.50000 -4.00000 -16.00000
-0.50000 -4.00000 -15.00000
-0.50000 -4.00000 -14.00000
-0.50000 -4.00000 -13.00000
-0.50000 -4.00000 -12.00000
-0.50000 -4.00000 -11.00000
-0.50000 -4.00000 -10.00000
-0.50000 -4.00000 -9.00000
-1.00000 -4.50000 -8.00000
-0.50000 -4.00000 -8.00000
-1.00000 -4.00000 -7.50000
-1.00000 -4.50000 0.00000
-0.50000 -4.00000 1.00000
-1.00000 -4.00000 0.50000
-0.50000 -3.00000 -17.00000
-0.50000 -3.00000 -16.00000
-0.50000 -3.00000 -15.00000
-0.50000 -3.00000 -14.00000
-0.50000 -3.00000 -13.00000
-0.50000 -3.00000 -12.00000
-0.50000 -3.00000 -11.00000
-0.50000 -3.00000 -10.00000
-0.50000 -3.00000 -9.00000
-0.50000 -3.00000 -8.00000
-1.00000 -3.00000 -7.50000
-1.00000 -3.50000 1.00000
-1.00000 -3.50000 2.00000
-1.00000 -3.00000 2.50000
-0.50000 -2.00000 -17.00000
-0.50000 -2.00000 -16.00000
-0.50000 -2.00000 -15.00000
-0.50000 -2.00000 -14.00000
-0.50000 -2.00000 -13.00000
-0.50000 -2.00000 -12.00000
-0.50000 -2.00000 -11.00000
-0.50000 -2.00000 -10.00000
-0.50000 -2.00000 -9.00000
-0.50000 -2.00000 -8.00000
-1.00000 -2.50000 -7.00000
-0.50000 -2.00000 -7.00000
-1.00000 -2.00000 -6.50000
-1.00000 -2.50000 3.00000
-1.00000 -2.00000 3.50000
-0.50000 -1.00000 -17.00000
-0.50000 -1.00000 -16.00000
-0.50000 -1.00000 -15.00000
-0.50000 -1.00000 -14.00000
-0.50000 -1.00000 -13.00000
-0.50000 -1.00000 -12.00000
-0.50000 -1.00000 -11.00000
-0.50000 -1.00000 -10.00000
-0.50000 -1.00000 -9.00000
-0.50000 -1.00000 -8.00000
-0.50000 -1.00000 -7.00000
-1.00000 -1.00000 -6.50000
-0.50000 -1.00000 -4.00000
-1.00000 -1.50000 -4.00000
-1.00000 -1.00000 -4.50000
-0.50000 -1.00000 -3.00000
-1.00000 -1.50000 -3.00000
-1.00000 -1.00000 -2.50000
-1.00000 -1.00000 3.50000
-0.50000 0.00000 -18.00000
-0.50000 0.00000 -17.00000
-0.50000 0.00000 -16.00000
-0.50000 0.00000 -15.00000
-0.50000 0.00000 -14.00000
-0.50000 0.00000 -13.00000
-0.50000 0.00000 -12.00000
-0.50000 0.00000 -11.00000
-0.50000 0.00000 -10.00000
-0.50000 0.00000 -9.00000
-0.50000 0.00000 -8.00000
-0.50000 0.00000 -7.00000
-1.00000 -0.50000 -6.00000
-0.50000 0.00000 -6.00000
-0.50000 0.00000 -5.00000
-1.00000 -0.50000 -5.00000
-0.50000 0.00000 -4.00000
-0.50000 0.00000 -3.00000
-1.00000 -0.50000 -2.00000
-0.50000 0.00000 -2.00000
-0.50000 0.00000 -1.00000
-1.00000 -0.50000 -1.00000
-0.50000 0.00000 0.00000
-1.00000 -0.50000 0.00000
-0.50000 0.00000 1.00000
-1.00000 -0.50000 1.00000
-1.00000 0.00000 1.50000
-1.00000 0.00000 3.50000
-0.50000 1.00000 -17.00000
-1.00000 1.00000 -16.50000
-1.00000 0.50000 -16.00000
-1.00000 0.50000 -15.00000
-1.00000 0.50000 -14.00000
-1.00000 1.00000 -13.50000
-0.50000 1.00000 -13.00000
-0.50000 1.00000 -12.00000
-0.50000 1.00000 -11.00000
-0.50000 1.00000 -10.00000
-0.50000 1.00000 -9.00000
-0.50000 1.00000 -8.00000
-0.50000 1.00000 -7.00000
-0.50000 1.00000 -6.00000
-1.00000 0.50000 2.00000
-1.00000 0.50000 3.00000
-0.50000 2.00000 -17.00000
-1.00000 1.50000 -16.00000
-0.50000 2.00000 -16.00000
-1.00000 2.00000 -15.50000
-1.00000 1.50000 -13.00000
-1.00000 2.00000 -12.50000
-0.50000 2.00000 -12.00000
-0.50000 2.00000 -11.00000
-0.50000 2.00000 -10.00000
-0.50000 2.00000 -9.00000
-0.50000 2.00000 -8.00000
-0.50000 3.00000 -15.00000
-1.00000 2.50000 -15.00000
-0.50000 3.00000 -14.00000
-1.00000 2.50000 -14.00000
-0.50000 3.00000 -13.00000
-1.00000 2.50000 -13.00000
-0.50000 3.00000 -12.00000
-0.50000 3.00000 -11.00000
-1.50000 -24.00000 -3.00000
-1.50000 -24.00000 -2.00000
-2.00000 -24.00000 -1.50000
-2.00000 -24.50000 -1.00000
-1.50000 -24.00000 0.00000
-2.00000 -24.00000 -0.50000
-1.50000 -24.00000 1.00000
-1.50000 -24.00000 2.00000
-1.50000 -23.00000 -3.00000
-2.00000 -23.00000 -2.50000
-2.00000 -23.50000 -2.00000
-2.00000 -23.50000 0.00000
-2.00000 -23.00000 0.50000
-1.50000 -23.00000 1.00000
-1.50000 -23.00000 2.00000
-1.50000 -22.00000 -3.00000
-2.00000 -22.50000 -2.00000
-1.50000 -22.00000 -2.00000
-2.00000 -22.00000 -1.50000
-1.50000 -22.00000 0.00000
-2.00000 -22.50000 0.00000
-2.00000 -22.00000 -0.50000
-1.50000 -22.00000 1.00000
-1.50000 -22.00000 2.00000
-1.50000 -21.00000 -3.00000
-1.50000 -21.00000 -2.00000
-2.00000 -21.50000 -1.00000
-1.50000 -21.00000 -1.00000
-1.50000 -21.00000 0.00000
-1.50000 -21.00000 1.00000
-1.50000 -21.00000 2.00000
-1.50000 -20.00000 -3.00000
-1.50000 -20.00000 -2.00000
-1.50000 -20.00000 -1.00000
-1.50000 -20.00000 0.00000
-1.50000 -19.00000 -3.00000
-1.50000 -19.00000 -2.00000
-1.50000 -19.00000 -1.00000
-1.50000 -19.00000 0.00000
-1.50000 -18.00000 -3.00000
-1.50000 -18.00000 -2.00000
-1.50000 -18.00000 -1.00000
-1.50000 -17.00000 -4.00000
-1.50000 -17.00000 -3.00000
-1.50000 -17.00000 -2.00000
-1.50000 -16.00000 -4.00000
-1.50000 -16.00000 -3.00000
-1.50000 -16.00000 -2.00000
-1.50000 -15.00000 -4.00000
-1.50000 -15.00000 -3.00000
-1.50000 -15.00000 -2.00000
-1.50000 -14.00000 -5.00000
-1.50000 -14.00000 -4.00000
-1.50000 -14.00000 -3.00000
-1.50000 -13.00000 -5.00000
-1.50000 -13.00000 -4.00000
-1.50000 -12.00000 -5.00000
-1.50000 -12.00000 -4.00000
-1.50000 -11.00000 -5.00000
-1.50000 -11.00000 -4.00000
-1.50000 -10.00000 -6.00000
-1.50000 -10.00000 -5.00000
-1.50000 -10.00000 -4.00000
-1.50000 -9.00000 -6.00000
-1.50000 -9.00000 -5.00000
-1.50000 -9.00000 -4.00000
-1.50000 -8.00000 -7.00000
-1.50000 -8.00000 -6.00000
-1.50000 -8.00000 -5.00000
-1.50000 -8.00000 -4.00000
-1.50000 -8.00000 -3.00000
-1.50000 -7.00000 -7.00000
-1.50000 -7.00000 -6.00000
-1.50000 -7.00000 -5.00000
-1.50000 -7.00000 -4.00000
-1.50000 -7.00000 -3.00000
-1.50000 -6.00000 -8.00000
-1.50000 -6.00000 -7.00000
-1.50000 -6.00000 -6.00000
-1.50000 -6.00000 -5.00000
-2.00000 -6.00000 -4.50000
-2.00000 -6.50000 -4.00000
-2.00000 -6.00000 -3.50000
-1.50000 -6.00000 -3.00000
-1.50000 -6.00000 -2.00000
-1.50000 -5.00000 -8.00000
-1.50000 -5.00000 -7.00000
-1.50000 -5.00000 -6.00000
-2.00000 -5.00000 -5.50000
-2.00000 -5.50000 -5.00000
-2.00000 -5.50000 -3.00000
-2.00000 -5.00000 -2.50000
-1.50000 -5.00000 -2.00000
-1.50000 -5.00000 -1.00000
-1.50000 -4.00000 -7.00000
-1.50000 -4.00000 -6.00000
-2.00000 -4.00000 -5.50000
-2.00000 -4.50000 -2.00000
-2.00000 -4.00000 -1.50000
-1.50000 -4.00000 -1.00000
-1.50000 -4.00000 0.00000
-1.50000 -3.00000 -7.00000
-1.50000 -3.00000 -6.00000
-2.00000 -3.50000 -5.00000
-1.50000 -3.00000 -5.00000
-2.00000 -3.00000 -4.50000
-2.00000 -3.50000 -1.00000
-2.00000 -3.50000 0.00000
-1.50000 -3.00000 1.00000
-2.00000 -3.00000 0.50000
-1.50000 -3.00000 2.00000
-1.50000 -2.00000 -6.00000
-1.50000 -2.00000 -5.00000
-2.00000 -2.50000 -4.00000
-1.50000 -2.00000 -4.00000
-1.50000 -2.00000 -3.00000
-2.00000 -2.50000 -3.00000
-1.50000 -2.00000 -2.00000
-2.00000 -2.50000 -2.00000
-2.00000 -2.00000 -1.50000
-2.00000 -2.50000 1.00000
-2.00000 -2.50000 2.00000
-2.00000 -2.50000 3.00000
-2.00000 -2.00000 3.50000
-1.50000 -1.00000 -6.00000
-1.50000 -1.00000 -5.00000
-1.50000 -1.00000 -2.00000
-2.00000 -1.50000 -1.00000
-1.50000 -1.00000 -1.00000
-2.00000 -1.00000 -0.50000
-1.50000 -1.00000 3.00000
-2.00000 -1.50000 3.00000
-2.00000 -1.00000 2.50000
-2.00000 -0.50000 0.00000
-2.00000 -0.50000 1.00000
-1.50000 0.00000 2.00000
-2.00000 -0.50000 2.00000
-1.50000 0.00000 3.00000
-1.50000 1.00000 -16.00000
-1.50000 1.00000 -15.00000
-1.50000 1.00000 -14.00000
-1.50000 2.00000 -15.00000
-1.50000 2.00000 -14.00000
-1.50000 2.00000 -13.00000
-2.50000 -24.00000 -1.00000
-2.50000 -23.00000 -2.00000
-2.50000 -23.00000 -1.00000
-2.50000 -23.00000 0.00000
-2.50000 -22.00000 -1.00000
-2.50000 -6.00000 -4.00000
-2.50000 -5.00000 -5.00000
-2.50000 -5.00000 -4.00000
-2.50000 -5.00000 -3.00000
-2.50000 -4.00000 -5.00000
-2.50000 -4.00000 -4.00000
-2.50000 -4.00000 -3.00000
-2.50000 -4.00000 -2.00000
-2.50000 -3.00000 -4.00000
-2.50000 -3.00000 -3.00000
-2.50000 -3.00000 -2.00000
-2.50000 -3.00000 -1.00000
-2.50000 -3.00000 0.00000
-2.50000 -2.00000 -1.00000
-2.50000 -2.00000 0.00000
-2.50000 -2.00000 1.00000
-2.50000 -2.00000 2.00000
-2.50000 -2.00000 3.00000
-2.50000 -1.00000 0.00000
-2.50000 -1.00000 1.00000
-2.50000 -1.00000 2.00000
3 2 1 0
3 4 3 0
3 0 3 2
3 4 5 3
3 8 7 6
3 8 6 1
3 6 0 1
3 6 9 0
3 0 10 4
3 0 9 10
3 5 4 11
3 4 12 11
3 4 10 12
3 12 13 11
3 6 7 14
3 14 7 15
3 6 16 9
3 6 14 16
3 9 17 10
3 9 16 17
3 10 18 12
3 10 17 18
3 13 12 19
3 19 12 18
3 15 20 14
3 22 21 20
3 21 14 20
3 21 16 14
3 16 23 17
3 16 21 23
3 25 18 24
3 18 23 24
3 18 17 23
3 18 25 19
3 22 26 21
3 21 26 23
3 23 26 27
3 23 27 24
3 30 29 28
3 28 31 30
3 29 32 28
3 28 32 31
3 35 34 33
3 37 36 33
3 33 36 35
3 39 38 37
3 37 38 36
3 41 40 39
3 39 40 38
3 41 42 40
3 45 44 43
3 45 43 34
3 43 33 34
3 43 46 33
3 33 47 37
3 33 46 47
3 37 48 39
3 37 47 48
3 39 49 41
3 39 48 49
3 42 41 50
3 41 51 50
3 41 49 51
3 51 52 50
3 55 54 53
3 55 53 44
3 53 43 44
3 53 56 43
3 43 57 46
3 43 56 57
3 46 58 47
3 46 57 58
3 47 59 48
3 47 58 59
3 48 60 49
3 48 59 60
3 49 61 51
3 49 60 61
3 52 51 62
3 51 63 62
3 51 61 63
3 63 64 62
3 67 66 65
3 69 68 65
3 65 68 67
3 1 2 69
3 2 68 69
3 2 70 68
3 71 2 3
3 71 70 2
3 72 53 5
3 53 71 5
3 71 3 5
3 53 54 71
3 53 73 56
3 53 72 73
3 56 74 57
3 56 73 74
3 57 75 58
3 57 74 75
3 58 76 59
3 58 75 76
3 59 77 60
3 59 76 77
3 60 78 61
3 60 77 78
3 61 79 63
3 61 78 79
3 64 63 80
3 80 63 79
3 65 66 81
3 81 66 82
3 81 7 8
3 69 81 8
3 65 81 69
3 69 8 1
3 11 72 5
3 72 11 13
3 83 72 13
3 73 72 83
3 73 84 74
3 73 83 84
3 74 85 75
3 74 84 85
3 75 86 76
3 75 85 86
3 76 87 77
3 76 86 87
3 77 88 78
3 77 87 88
3 90 79 89
3 79 88 89
3 79 78 88
3 79 90 80
3 81 82 91
3 91 82 92
3 91 15 7
3 91 7 81
3 19 93 83
3 19 83 13
3 83 94 84
3 83 93 94
3 96 85 95
3 85 94 95
3 85 84 94
3 85 96 86
3 86 96 97
3 86 97 87
3 87 97 98
3 87 98 88
3 88 98 99
3 88 99 89
3 91 92 100
3 100 92 101
3 102 20 15
3 91 102 15
3 100 102 91
3 102 22 20
3 24 103 25
3 93 19 25
3 103 93 25
3 104 93 103
3 93 105 94
3 93 104 105
3 95 94 106
3 106 94 105
3 100 101 107
3 107 101 108
3 100 109 102
3 100 107 109
3 110 26 22
3 102 110 22
3 109 110 102
3 111 27 26
3 111 26 110
3 103 24 27
3 111 103 27
3 112 103 111
3 103 113 104
3 103 112 113
3 115 105 114
3 105 113 114
3 105 104 113
3 105 115 106
3 107 108 116
3 116 108 117
3 107 118 109
3 107 116 118
3 109 119 110
3 109 118 119
3 110 120 111
3 110 119 120
3 111 121 112
3 111 120 121
3 123 113 122
3 113 121 122
3 113 112 121
3 113 123 114
3 116 117 124
3 124 117 125
3 116 126 118
3 116 124 126
3 118 127 119
3 118 126 127
3 129 120 128
3 120 127 128
3 120 119 127
3 120 129 121
3 121 129 130
3 121 130 122
3 124 125 131
3 131 125 132
3 124 133 126
3 124 131 133
3 126 134 127
3 126 133 134
3 128 127 135
3 135 127 134
3 138 137 136
3 138 136 132
3 136 131 132
3 136 139 131
3 131 140 133
3 131 139 140
3 142 134 141
3 134 140 141
3 134 133 140
3 134 142 135
3 136 137 143
3 143 137 144
3 136 145 139
3 136 143 145
3 139 146 140
3 139 145 146
3 141 140 147
3 147 140 146
3 150 149 148
3 150 148 144
3 148 143 144
3 148 151 143
3 143 152 145
3 143 151 152
3 154 146 153
3 146 152 153
3 146 145 152
3 146 154 147
3 148 149 155
3 155 149 156
3 148 157 151
3 148 155 157
3 151 158 152
3 151 157 158
3 153 152 159
3 159 152 158
3 162 161 160
3 162 160 156
3 160 155 156
3 160 163 155
3 155 164 157
3 155 163 164
3 166 158 165
3 158 164 165
3 158 157 164
3 158 166 159
3 161 167 160
3 169 168 167
3 168 160 167
3 168 163 160
3 163 170 164
3 163 168 170
3 165 164 171
3 171 164 170
3 168 169 172
3 172 169 173
3 168 174 170
3 168 172 174
3 171 170 175
3 175 170 174
3 172 173 176
3 176 173 177
3 172 178 174
3 172 176 178
3 175 174 179
3 179 174 178
3 182 181 180
3 182 180 177
3 180 176 177
3 180 183 176
3 176 184 178
3 176 183 184
3 179 178 185
3 185 178 184
3 180 181 186
3 186 181 187
3 180 188 183
3 180 186 188
3 183 189 184
3 183 188 189
3 185 184 190
3 184 191 190
3 184 189 191
3 191 192 190
3 195 194 193
3 195 193 187
3 193 186 187
3 193 196 186
3 186 197 188
3 186 196 197
3 188 198 189
3 188 197 198
3 189 199 191
3 189 198 199
3 192 191 200
3 200 191 199
3 203 202 201
3 205 204 201
3 201 204 203
3 207 206 205
3 205 206 204
3 206 207 194
3 207 193 194
3 207 208 193
3 193 209 196
3 193 208 209
3 196 210 197
3 196 209 210
3 197 211 198
3 197 210 211
3 198 212 199
3 198 211 212
3 200 199 213
3 199 214 213
3 199 212 214
3 214 215 213
3 218 217 216
3 220 219 216
3 216 219 218
3 219 220 202
3 220 201 202
3 220 221 201
3 201 222 205
3 201 221 222
3 205 223 207
3 205 222 223
3 207 224 208
3 207 223 224
3 208 225 209
3 208 224 225
3 209 226 210
3 209 225 226
3 210 227 211
3 210 226 227
3 211 228 212
3 211 227 228
3 212 229 214
3 212 228 229
3 215 214 230
3 214 231 230
3 214 229 231
3 231 232 230
3 216 217 233
3 233 217 234
3 216 235 220
3 216 233 235
3 220 236 221
3 220 235 236
3 221 237 222
3 221 236 237
3 222 238 223
3 222 237 238
3 223 239 224
3 223 238 239
3 224 240 225
3 224 239 240
3 225 241 226
3 225 240 241
3 226 242 227
3 226 241 242
3 227 243 228
3 227 242 243
3 228 244 229
3 228 243 244
3 229 245 231
3 229 244 245
3 232 231 246
3 231 247 246
3 231 245 247
3 247 248 246
3 234 249 233
3 251 250 249
3 250 233 249
3 250 235 233
3 235 252 236
3 235 250 252
3 236 253 237
3 236 252 253
3 237 254 238
3 237 253 254
3 256 239 255
3 239 254 255
3 239 238 254
3 258 257 256
3 257 239 256
3 257 240 239
3 240 259 241
3 240 257 259
3 241 260 242
3 241 259 260
3 242 261 243
3 242 260 261
3 243 262 244
3 243 261 262
3 244 263 245
3 244 262 263
3 245 264 247
3 245 263 264
3 248 247 265
3 247 266 265
3 247 264 266
3 268 267 266
3 266 267 265
3 268 269 267
3 251 270 250
3 250 270 252
3 252 270 271
3 252 271 253
3 253 271 272
3 253 272 254
3 254 272 273
3 254 273 255
3 258 274 257
3 257 274 259
3 259 274 275
3 259 275 260
3 260 275 276
3 260 276 261
3 261 276 277
3 279 278 277
3 278 261 277
3 278 262 261
3 262 280 263
3 262 278 280
3 263 281 264
3 263 280 281
3 281 29 30
3 266 281 30
3 264 281 266
3 266 30 31
3 282 266 31
3 268 266 282
3 269 268 283
3 268 284 283
3 268 282 284
3 284 285 283
3 279 286 278
3 278 286 280
3 280 286 287
3 289 288 287
3 288 280 287
3 288 281 280
3 290 32 29
3 281 290 29
3 288 290 281
3 282 31 32
3 290 282 32
3 291 282 290
3 282 292 284
3 282 291 292
3 285 284 293
3 293 284 292
3 296 295 294
3 298 297 294
3 294 297 296
3 300 299 298
3 298 299 297
3 302 301 300
3 300 301 299
3 302 303 301
3 289 304 288
3 288 304 290
3 290 304 305
3 290 305 291
3 291 305 306
3 291 306 292
3 292 306 307
3 292 307 293
3 295 308 294
3 310 309 308
3 309 294 308
3 309 298 294
3 298 311 300
3 298 309 311
3 300 312 302
3 300 311 312
3 303 302 313
3 302 314 313
3 302 312 314
3 316 315 314
3 314 315 313
3 316 317 315
3 310 318 309
3 309 318 311
3 311 318 319
3 311 319 312
3 312 319 320
3 312 320 314
3 314 320 321
3 314 321 316
3 316 321 322
3 316 322 317
3 325 324 323
3 327 326 323
3 323 326 325
3 329 328 327
3 327 328 326
3 331 330 329
3 329 330 328
3 331 332 330
3 335 334 333
3 335 333 324
3 324 333 323
3 333 34 323
3 34 35 323
3 323 35 36
3 323 36 327
3 327 36 38
3 327 38 329
3 329 38 40
3 329 40 331
3 337 336 42
3 42 336 40
3 336 332 40
3 332 331 40
3 337 338 336
3 341 340 339
3 341 339 334
3 334 339 333
3 339 44 333
3 44 45 333
3 333 45 34
3 50 337 42
3 343 342 52
3 52 342 50
3 342 338 50
3 338 337 50
3 343 344 342
3 347 346 345
3 345 348 347
3 351 350 349
3 351 349 340
3 340 349 339
3 349 54 339
3 54 55 339
3 339 55 44
3 62 343 52
3 353 352 64
3 64 352 62
3 352 344 62
3 344 343 62
3 353 354 352
3 345 346 355
3 355 346 356
3 348 345 357
3 345 358 357
3 345 355 358
3 66 67 358
3 67 357 358
3 67 359 357
3 360 67 68
3 360 359 67
3 361 68 70
3 361 360 68
3 71 349 350
3 361 71 350
3 70 71 361
3 349 71 54
3 80 362 353
3 80 353 64
3 354 353 363
3 363 353 362
3 355 356 364
3 364 356 365
3 355 366 358
3 355 364 366
3 366 82 66
3 366 66 358
3 368 367 90
3 368 90 89
3 80 90 362
3 90 369 362
3 90 367 369
3 362 369 363
3 365 370 364
3 372 371 370
3 371 364 370
3 371 366 364
3 371 92 82
3 371 82 366
3 95 373 96
3 374 97 96
3 374 96 373
3 375 98 97
3 375 97 374
3 98 375 376
3 377 98 376
3 99 98 377
3 89 99 368
3 368 99 377
3 371 372 378
3 378 372 379
3 378 101 92
3 378 92 371
3 106 380 373
3 106 373 95
3 373 381 374
3 373 380 381
3 374 382 375
3 374 381 382
3 376 375 383
3 383 375 382
3 378 379 384
3 384 379 385
3 384 108 101
3 384 101 378
3 114 386 115
3 380 106 115
3 386 380 115
3 387 380 386
3 380 388 381
3 380 387 388
3 390 382 389
3 382 388 389
3 382 381 388
3 382 390 383
3 384 385 391
3 391 385 392
3 391 117 108
3 391 108 384
3 122 393 123
3 386 114 123
3 393 386 123
3 394 386 393
3 386 395 387
3 386 394 395
3 397 388 396
3 388 395 396
3 388 387 395
3 388 397 389
3 391 392 398
3 398 392 399
3 398 125 117
3 398 117 391
3 128 400 129
3 401 130 129
3 401 129 400
3 393 122 130
3 401 393 130
3 402 393 401
3 404 394 403
3 394 402 403
3 394 393 402
3 394 404 395
3 395 404 405
3 395 405 396
3 408 407 406
3 408 406 399
3 406 398 399
3 406 409 398
3 409 132 125
3 409 125 398
3 135 410 400
3 135 400 128
3 400 411 401
3 400 410 411
3 401 412 402
3 401 411 412
3 403 402 413
3 413 402 412
3 406 407 414
3 414 407 415
3 414 137 138
3 409 414 138
3 406 414 409
3 409 138 132
3 141 416 142
3 410 135 142
3 416 410 142
3 417 410 416
3 410 418 411
3 410 417 418
3 420 412 419
3 412 418 419
3 412 411 418
3 412 420 413
3 423 422 421
3 423 421 415
3 421 414 415
3 421 424 414
3 424 144 137
3 424 137 414
3 147 425 416
3 147 416 141
3 416 426 417
3 416 425 426
3 428 418 427
3 418 426 427
3 418 417 426
3 418 428 419
3 421 422 429
3 429 422 430
3 429 149 150
3 424 429 150
3 421 429 424
3 424 150 144
3 153 431 154
3 425 147 154
3 431 425 154
3 432 425 431
3 434 426 433
3 426 432 433
3 426 425 432
3 426 434 427
3 437 436 435
3 437 435 430
3 435 429 430
3 435 438 429
3 438 156 149
3 438 149 429
3 159 439 431
3 159 431 153
3 431 440 432
3 431 439 440
3 433 432 441
3 441 432 440
3 435 436 442
3 442 436 443
3 442 161 162
3 438 442 162
3 435 442 438
3 438 162 156
3 165 444 166
3 439 159 166
3 444 439 166
3 445 439 444
3 447 440 446
3 440 445 446
3 440 439 445
3 440 447 441
3 450 449 448
3 450 448 443
3 448 442 443
3 448 451 442
3 452 167 161
3 442 452 161
3 451 452 442
3 452 169 167
3 171 453 444
3 171 444 165
3 444 454 445
3 444 453 454
3 446 445 455
3 455 445 454
3 448 449 456
3 456 449 457
3 448 458 451
3 448 456 458
3 451 459 452
3 451 458 459
3 459 173 169
3 459 169 452
3 175 460 453
3 175 453 171
3 453 461 454
3 453 460 461
3 455 454 462
3 462 454 461
3 465 464 463
3 465 463 457
3 463 456 457
3 463 466 456
3 456 467 458
3 456 466 467
3 458 468 459
3 458 467 468
3 468 177 173
3 468 173 459
3 179 469 460
3 179 460 175
3 460 470 461
3 460 469 470
3 462 461 471
3 471 461 470
3 474 473 472
3 474 472 464
3 472 463 464
3 472 475 463
3 463 476 466
3 463 475 476
3 466 477 467
3 466 476 477
3 477 181 182
3 468 477 182
3 467 477 468
3 468 182 177
3 185 478 469
3 185 469 179
3 469 479 470
3 469 478 479
3 471 470 480
3 480 470 479
3 483 482 481
3 483 481 473
3 481 472 473
3 481 484 472
3 472 485 475
3 472 484 485
3 475 486 476
3 475 485 486
3 476 487 477
3 476 486 487
3 487 187 181
3 487 181 477
3 190 478 185
3 478 190 192
3 488 478 192
3 479 478 488
3 480 479 489
3 489 479 488
3 492 491 490
3 494 493 490
3 490 493 492
3 496 495 494
3 494 495 493
3 498 497 496
3 496 497 495
3 497 498 482
3 498 481 482
3 498 499 481
3 481 500 484
3 481 499 500
3 484 501 485
3 484 500 501
3 485 502 486
3 485 501 502
3 502 194 195
3 487 502 195
3 486 502 487
3 487 195 187
3 200 503 488
3 200 488 192
3 489 488 504
3 488 505 504
3 488 503 505
3 505 506 504
3 509 508 507
3 509 507 491
3 507 490 491
3 507 510 490
3 490 511 494
3 490 510 511
3 494 512 496
3 494 511 512
3 496 513 498
3 496 512 513
3 498 514 499
3 498 513 514
3 514 202 203
3 500 514 203
3 499 514 500
3 500 203 204
3 500 204 501
3 501 204 206
3 501 206 502
3 502 206 194
3 213 503 200
3 503 213 215
3 515 503 215
3 505 503 515
3 506 505 516
3 505 517 516
3 505 515 517
3 517 518 516
3 521 520 519
3 521 519 508
3 519 507 508
3 519 522 507
3 507 523 510
3 507 522 523
3 510 524 511
3 510 523 524
3 511 525 512
3 511 524 525
3 525 217 218
3 513 525 218
3 512 525 513
3 513 218 219
3 513 219 514
3 514 219 202
3 230 515 215
3 515 230 232
3 526 515 232
3 517 515 526
3 518 517 527
3 517 528 527
3 517 526 528
3 528 529 527
3 519 520 530
3 530 520 531
3 519 532 522
3 519 530 532
3 522 533 523
3 522 532 533
3 523 534 524
3 523 533 534
3 524 535 525
3 524 534 535
3 535 234 217
3 535 217 525
3 246 526 232
3 526 246 248
3 536 526 248
3 528 526 536
3 529 528 537
3 528 538 537
3 528 536 538
3 538 539 537
3 530 531 540
3 540 531 541
3 530 542 532
3 530 540 542
3 532 543 533
3 532 542 543
3 533 544 534
3 533 543 544
3 534 545 535
3 534 544 545
3 546 249 234
3 535 546 234
3 545 546 535
3 546 251 249
3 255 547 256
3 547 258 256
3 265 536 248
3 536 265 267
3 536 267 538
3 549 548 269
3 269 548 267
3 548 539 267
3 539 538 267
3 549 550 548
3 553 552 551
3 553 551 541
3 551 540 541
3 551 554 540
3 540 555 542
3 540 554 555
3 542 556 543
3 542 555 556
3 543 557 544
3 543 556 557
3 544 558 545
3 544 557 558
3 545 559 546
3 545 558 559
3 560 270 251
3 546 560 251
3 559 560 546
3 561 271 270
3 561 270 560
3 562 272 271
3 562 271 561
3 563 273 272
3 563 272 562
3 547 255 273
3 563 547 273
3 564 547 563
3 565 274 258
3 547 565 258
3 564 565 547
3 566 275 274
3 566 274 565
3 567 276 275
3 567 275 566
3 568 277 276
3 568 276 567
3 568 279 277
3 283 549 269
3 283 285 549
3 285 550 549
3 285 569 550
3 551 552 570
3 570 552 571
3 551 572 554
3 551 570 572
3 554 573 555
3 554 572 573
3 555 574 556
3 555 573 574
3 556 575 557
3 556 574 575
3 557 576 558
3 557 575 576
3 558 577 559
3 558 576 577
3 559 578 560
3 559 577 578
3 560 579 561
3 560 578 579
3 561 580 562
3 561 579 580
3 562 581 563
3 562 580 581
3 563 582 564
3 563 581 582
3 564 583 565
3 564 582 583
3 565 584 566
3 565 583 584
3 566 585 567
3 566 584 585
3 567 586 568
3 567 585 586
3 587 286 279
3 568 587 279
3 586 587 568
3 588 287 286
3 588 286 587
3 588 289 287
3 293 569 285
3 293 589 569
3 571 590 570
3 591 295 296
3 570 591 296
3 572 570 296
3 590 591 570
3 572 296 297
3 572 297 573
3 573 297 299
3 573 299 574
3 574 299 301
3 574 301 575
3 575 301 303
3 592 575 303
3 576 575 592
3 576 593 577
3 576 592 593
3 577 594 578
3 577 593 594
3 578 595 579
3 578 594 595
3 579 596 580
3 579 595 596
3 580 597 581
3 580 596 597
3 581 598 582
3 581 597 598
3 582 599 583
3 582 598 599
3 601 584 600
3 584 599 600
3 584 583 599
3 584 601 585
3 585 601 602
3 585 602 586
3 586 602 603
3 586 603 587
3 587 603 604
3 587 604 588
3 588 604 605
3 588 605 289
3 605 304 289
3 605 606 304
3 304 607 305
3 606 607 304
3 305 608 306
3 607 608 305
3 306 609 307
3 608 609 306
3 293 307 589
3 589 307 609
3 308 295 610
3 295 611 610
3 295 591 611
3 610 310 308
3 313 592 303
3 592 313 315
3 592 315 593
3 593 315 317
3 612 593 317
3 594 593 612
3 594 613 595
3 594 612 613
3 595 614 596
3 595 613 614
3 596 615 597
3 596 614 615
3 617 598 616
3 598 615 616
3 598 597 615
3 598 617 599
3 599 617 618
3 599 618 600
3 611 619 610
3 610 619 310
3 619 318 310
3 619 620 318
3 620 622 621
3 319 620 621
3 318 620 319
3 623 320 319
3 623 319 621
3 624 321 320
3 624 320 623
3 625 322 321
3 625 321 624
3 612 317 322
3 625 612 322
3 626 612 625
3 628 613 627
3 613 626 627
3 613 612 626
3 613 628 614
3 614 628 629
3 614 629 615
3 615 629 630
3 615 630 616
3 622 631 621
3 621 631 623
3 623 631 632
3 623 632 624
3 624 632 633
3 624 633 625
3 625 633 634
3 625 634 626
3 626 634 635
3 626 635 627
3 636 324 325
3 636 325 637
3 325 638 637
3 325 326 638
3 639 326 328
3 639 638 326
3 641 639 640
3 639 330 640
3 639 328 330
3 332 640 330
3 642 334 335
3 643 642 335
3 643 335 324
3 644 643 324
3 636 644 324
3 644 636 637
3 645 641 640
3 647 645 646
3 646 645 336
3 645 640 336
3 640 332 336
3 338 646 336
3 648 340 341
3 649 648 341
3 649 341 334
3 650 649 334
3 642 650 334
3 650 642 643
3 651 647 646
3 653 651 652
3 652 651 342
3 651 646 342
3 646 338 342
3 344 652 342
3 655 654 347
3 347 654 346
3 347 348 655
3 655 348 656
3 658 657 351
3 351 657 350
3 351 340 648
3 659 351 648
3 658 351 659
3 659 648 649
3 660 653 652
3 662 660 661
3 661 660 352
3 660 652 352
3 652 344 352
3 354 661 352
3 654 356 346
3 663 356 654
3 664 656 348
3 664 348 357
3 665 357 359
3 665 664 357
3 666 359 360
3 666 665 359
3 667 360 361
3 667 666 360
3 361 350 657
3 361 657 667
3 670 669 668
3 668 669 662
3 661 668 662
3 671 668 661
3 363 671 354
3 354 671 661
3 663 365 356
3 672 365 663
3 675 674 673
3 673 674 670
3 673 670 668
3 368 673 668
3 367 368 668
3 367 668 369
3 369 668 671
3 369 671 363
3 672 676 365
3 365 676 370
3 372 370 676
3 372 676 677
3 675 673 377
3 376 675 377
3 678 675 376
3 377 673 368
3 677 379 372
3 679 379 677
3 682 681 680
3 681 678 680
3 678 383 680
3 678 376 383
3 679 385 379
3 683 385 679
3 686 685 684
3 684 685 682
3 684 682 680
3 389 684 680
3 390 389 680
3 390 680 383
3 689 688 687
3 683 689 687
3 392 683 687
3 385 683 392
3 692 691 690
3 694 693 690
3 694 690 691
3 693 694 686
3 693 686 684
3 396 693 684
3 397 396 684
3 397 684 389
3 687 688 695
3 695 688 696
3 695 399 392
3 695 392 687
3 699 698 697
3 697 698 692
3 697 692 690
3 403 697 690
3 404 403 690
3 404 690 405
3 405 690 693
3 405 693 396
3 695 696 408
3 696 407 408
3 696 700 407
3 695 408 399
3 699 697 701
3 699 701 702
3 413 701 403
3 403 701 697
3 705 704 703
3 700 705 703
3 415 700 703
3 407 700 415
3 702 701 420
3 419 702 420
3 706 702 419
3 420 701 413
3 703 704 423
3 704 422 423
3 704 707 422
3 703 423 415
3 709 708 428
3 709 428 427
3 419 428 706
3 706 428 708
3 707 430 422
3 710 430 707
3 712 711 434
3 712 434 433
3 427 434 709
3 709 434 711
3 714 713 437
3 437 713 436
3 437 430 710
3 437 710 714
3 441 712 433
3 441 715 712
3 713 443 436
3 716 443 713
3 718 717 447
3 718 447 446
3 441 447 715
3 715 447 717
3 720 719 450
3 450 719 449
3 450 443 716
3 450 716 720
3 455 718 446
3 455 721 718
3 719 457 449
3 722 457 719
3 725 724 723
3 724 721 723
3 721 462 723
3 721 455 462
3 727 726 465
3 465 726 464
3 465 457 722
3 465 722 727
3 728 725 723
3 723 462 728
3 462 729 728
3 462 471 729
3 731 730 474
3 474 730 473
3 474 464 726
3 474 726 731
3 480 729 471
3 480 732 729
3 735 734 733
3 482 483 733
3 483 735 733
3 483 736 735
3 483 473 730
3 483 730 736
3 489 738 737
3 732 489 737
3 480 489 732
3 738 739 737
3 741 740 492
3 492 740 491
3 742 492 493
3 742 741 492
3 743 493 495
3 743 742 493
3 497 733 734
3 743 497 734
3 495 497 743
3 733 497 482
3 504 738 489
3 504 506 738
3 506 739 738
3 506 744 739
3 746 745 509
3 509 745 508
3 509 491 740
3 509 740 746
3 747 744 506
3 747 506 516
3 516 518 747
3 747 518 748
3 749 520 521
3 750 749 521
3 508 750 521
3 745 750 508
3 751 748 518
3 751 518 527
3 527 529 751
3 751 529 752
3 754 753 749
3 753 520 749
3 753 531 520
3 754 749 750
3 755 752 529
3 755 529 537
3 537 539 755
3 755 539 756
3 753 541 531
3 757 541 753
3 758 756 539
3 758 539 548
3 548 550 758
3 758 550 759
3 760 552 553
3 761 760 553
3 541 761 553
3 757 761 541
3 569 759 550
3 569 762 759
3 764 763 760
3 763 552 760
3 763 571 552
3 764 760 761
3 589 762 569
3 589 765 762
3 763 766 571
3 571 766 590
3 591 590 766
3 591 766 767
3 769 768 601
3 769 601 600
3 601 770 602
3 768 770 601
3 602 771 603
3 770 771 602
3 603 772 604
3 771 772 603
3 604 773 605
3 772 773 604
3 605 774 606
3 773 774 605
3 606 775 607
3 774 775 606
3 607 776 608
3 775 776 607
3 608 777 609
3 776 777 608
3 589 609 765
3 765 609 777
3 767 611 591
3 778 611 767
3 780 779 617
3 780 617 616
3 617 781 618
3 779 781 617
3 600 618 769
3 769 618 781
3 778 782 611
3 611 782 619
3 619 783 620
3 782 783 619
3 622 620 783
3 622 783 784
3 786 785 628
3 786 628 627
3 628 787 629
3 785 787 628
3 629 788 630
3 787 788 629
3 616 630 780
3 780 630 788
3 784 789 622
3 622 789 631
3 631 790 632
3 789 790 631
3 632 791 633
3 790 791 632
3 633 792 634
3 791 792 633
3 634 793 635
3 792 793 634
3 627 635 786
3 786 635 793
3 794 637 638
3 639 795 638
3 638 795 794
3 641 795 639
3 796 643 644
3 637 794 644
3 794 796 644
3 794 797 796
3 798 794 795
3 797 794 798
3 645 799 641
3 799 795 641
3 799 798 795
3 647 799 645
3 800 649 650
3 643 796 650
3 796 800 650
3 796 801 800
3 802 796 797
3 801 796 802
3 803 797 798
3 802 797 803
3 804 798 799
3 803 798 804
3 651 805 647
3 805 799 647
3 805 804 799
3 653 805 651
3 806 654 655
3 656 806 655
3 807 657 658
3 659 808 658
3 658 808 807
3 649 800 659
3 800 808 659
3 800 809 808
3 810 800 801
3 809 800 810
3 811 801 802
3 810 801 811
3 812 802 803
3 811 802 812
3 813 803 804
3 812 803 813
3 814 804 805
3 813 804 814
3 660 815 653
3 815 805 653
3 815 814 805
3 662 815 660
3 816 663 806
3 806 663 654
3 664 817 656
3 817 806 656
3 817 816 806
3 817 664 818
3 664 819 818
3 664 665 819
3 820 665 666
3 820 819 665
3 821 666 667
3 821 820 666
3 667 657 807
3 822 667 807
3 821 667 822
3 822 807 808
3 822 808 823
3 823 808 809
3 823 809 824
3 826 825 824
3 809 826 824
3 810 826 809
3 827 810 811
3 826 810 827
3 828 811 812
3 827 811 828
3 829 812 813
3 828 812 829
3 830 813 814
3 829 813 830
3 670 830 669
3 830 815 669
3 830 814 815
3 669 815 662
3 831 672 816
3 816 672 663
3 832 816 817
3 831 816 832
3 817 818 833
3 817 833 832
3 825 826 834
3 825 834 835
3 836 826 827
3 834 826 836
3 837 827 828
3 836 827 837
3 838 828 829
3 837 828 838
3 675 838 674
3 838 830 674
3 838 829 830
3 674 830 670
3 831 676 672
3 676 831 677
3 831 839 677
3 831 832 839
3 832 833 840
3 832 840 839
3 835 834 841
3 835 841 842
3 843 834 836
3 841 834 843
3 844 836 837
3 843 836 844
3 845 837 838
3 844 837 845
3 678 845 675
3 675 845 838
3 846 679 839
3 839 679 677
3 839 840 847
3 839 847 846
3 842 841 848
3 842 848 849
3 850 841 843
3 848 841 850
3 851 843 844
3 850 843 851
3 682 851 681
3 851 845 681
3 851 844 845
3 681 845 678
3 852 683 846
3 846 683 679
3 846 847 853
3 846 853 852
3 856 855 854
3 858 857 854
3 858 854 855
3 857 858 849
3 848 857 849
3 859 857 848
3 860 848 850
3 859 848 860
3 686 860 685
3 860 851 685
3 860 850 851
3 685 851 682
3 861 688 689
3 683 852 689
3 852 861 689
3 852 862 861
3 852 853 863
3 852 863 862
3 856 854 864
3 856 864 865
3 866 854 857
3 864 854 866
3 692 866 691
3 866 859 691
3 866 857 859
3 691 859 694
3 694 859 860
3 694 860 686
3 867 696 861
3 861 696 688
3 868 861 862
3 867 861 868
3 862 863 869
3 862 869 868
3 872 871 870
3 870 871 865
3 864 870 865
3 873 870 864
3 699 873 698
3 873 866 698
3 873 864 866
3 698 866 692
3 874 700 867
3 867 700 696
3 868 876 875
3 874 868 875
3 867 868 874
3 876 868 869
3 879 878 877
3 877 878 872
3 870 877 872
3 880 877 870
3 881 870 873
3 880 870 881
3 702 881 699
3 699 881 873
3 882 704 705
3 700 874 705
3 874 882 705
3 874 883 882
3 874 875 884
3 874 884 883
3 879 877 885
3 879 885 886
3 887 877 880
3 885 877 887
3 888 880 881
3 887 880 888
3 706 888 702
3 702 888 881
3 889 707 882
3 882 707 704
3 890 882 883
3 889 882 890
3 883 884 891
3 883 891 890
3 886 885 892
3 886 892 893
3 894 885 887
3 892 885 894
3 709 894 708
3 894 888 708
3 894 887 888
3 708 888 706
3 895 710 889
3 889 710 707
3 890 897 896
3 895 890 896
3 889 890 895
3 897 890 891
3 900 899 898
3 898 899 893
3 892 898 893
3 901 898 892
3 712 901 711
3 901 894 711
3 901 892 894
3 711 894 709
3 902 713 714
3 710 895 714
3 895 902 714
3 895 903 902
3 895 896 904
3 895 904 903
3 907 906 905
3 905 906 900
3 898 905 900
3 908 905 898
3 909 898 901
3 908 898 909
3 715 909 712
3 712 909 901
3 910 716 902
3 902 716 713
3 911 902 903
3 910 902 911
3 903 904 912
3 903 912 911
3 907 905 913
3 907 913 914
3 915 905 908
3 913 905 915
3 718 915 717
3 915 909 717
3 915 908 909
3 717 909 715
3 916 719 720
3 716 910 720
3 910 916 720
3 910 917 916
3 918 910 911
3 917 910 918
3 911 912 919
3 911 919 918
3 914 913 920
3 914 920 921
3 922 913 915
3 920 913 922
3 721 922 718
3 718 922 915
3 923 722 916
3 916 722 719
3 924 916 917
3 923 916 924
3 918 926 925
3 924 918 925
3 917 918 924
3 926 918 919
3 921 920 927
3 921 927 928
3 725 927 724
3 927 922 724
3 927 920 922
3 724 922 721
3 929 726 727
3 722 923 727
3 923 929 727
3 923 930 929
3 931 923 924
3 930 923 931
3 924 925 932
3 924 932 931
3 928 927 933
3 928 933 934
3 728 935 725
3 935 927 725
3 935 933 927
3 729 935 728
3 936 730 731
3 726 929 731
3 929 936 731
3 929 937 936
3 938 929 930
3 937 929 938
3 931 940 939
3 938 931 939
3 930 931 938
3 940 931 932
3 941 934 933
3 943 942 941
3 933 943 941
3 935 943 933
3 732 943 729
3 729 943 935
3 944 734 735
3 736 945 735
3 735 945 944
3 730 936 736
3 936 945 736
3 936 946 945
3 947 936 937
3 946 936 947
3 948 937 938
3 947 937 948
3 938 939 949
3 938 949 948
3 942 943 950
3 942 950 951
3 737 952 732
3 952 943 732
3 952 950 943
3 739 952 737
3 953 740 741
3 742 954 741
3 741 954 953
3 743 955 742
3 742 955 954
3 734 944 743
3 944 955 743
3 944 956 955
3 957 944 945
3 956 944 957
3 958 945 946
3 957 945 958
3 959 946 947
3 958 946 959
3 948 961 960
3 959 948 960
3 947 948 959
3 961 948 949
3 962 951 950
3 964 963 962
3 950 964 962
3 952 964 950
3 744 964 739
3 739 964 952
3 965 745 746
3 740 953 746
3 953 965 746
3 953 966 965
3 967 953 954
3 966 953 967
3 968 954 955
3 967 954 968
3 969 955 956
3 968 955 969
3 970 956 957
3 969 956 970
3 971 957 958
3 970 957 971
3 972 958 959
3 971 958 972
3 959 960 973
3 959 973 972
3 974 963 964
3 976 974 975
3 975 974 747
3 974 964 747
3 964 744 747
3 748 975 747
3 977 750 965
3 965 750 745
3 978 965 966
3 977 965 978
3 979 966 967
3 978 966 979
3 980 967 968
3 979 967 980
3 981 968 969
3 980 968 981
3 982 969 970
3 981 969 982
3 983 970 971
3 982 970 983
3 984 971 972
3 983 971 984
3 972 973 985
3 986 972 985
3 984 972 986
3 987 986 985
3 988 976 975
3 990 988 989
3 989 988 751
3 988 975 751
3 975 748 751
3 752 989 751
3 991 753 754
3 750 977 754
3 977 991 754
3 977 992 991
3 993 977 978
3 992 977 993
3 994 978 979
3 993 978 994
3 995 979 980
3 994 979 995
3 996 980 981
3 995 980 996
3 997 981 982
3 996 981 997
3 998 982 983
3 997 982 998
3 999 983 984
3 998 983 999
3 1000 984 986
3 999 984 1000
3 986 987 1001
3 986 1001 1000
3 1002 990 989
3 1002 989 752
3 755 1002 752
3 1003 1002 755
3 755 756 1003
3 1003 756 1004
3 1005 757 991
3 991 757 753
3 1006 991 992
3 1005 991 1006
3 1007 992 993
3 1006 992 1007
3 1008 993 994
3 1007 993 1008
3 1009 994 995
3 1008 994 1009
3 1010 995 996
3 1009 995 1010
3 1011 996 997
3 1010 996 1011
3 1012 997 998
3 1011 997 1012
3 1013 998 999
3 1012 998 1013
3 1014 999 1000
3 1013 999 1014
3 1000 1001 1015
3 1016 1000 1015
3 1014 1000 1016
3 1017 1016 1015
3 1018 1004 756
3 1018 756 758
3 758 759 1018
3 1018 759 1019
3 1020 761 1005
3 1005 761 757
3 1021 1005 1006
3 1020 1005 1021
3 1022 1006 1007
3 1021 1006 1022
3 1023 1007 1008
3 1022 1007 1023
3 1024 1008 1009
3 1023 1008 1024
3 1025 1009 1010
3 1024 1009 1025
3 1026 1010 1011
3 1025 1010 1026
3 1027 1011 1012
3 1026 1011 1027
3 1028 1012 1013
3 1027 1012 1028
3 1029 1013 1014
3 1028 1013 1029
3 1030 1014 1016
3 1029 1014 1030
3 1016 1017 1031
3 1016 1031 1030
3 1034 1033 1032
3 1036 1035 1032
3 1036 1032 1033
3 1037 1035 1036
3 762 1019 759
3 762 1038 1019
3 1039 763 764
3 761 1020 764
3 1020 1039 764
3 1020 1040 1039
3 1041 1020 1021
3 1040 1020 1041
3 1042 1021 1022
3 1041 1021 1042
3 1043 1022 1023
3 1042 1022 1043
3 1044 1023 1024
3 1043 1023 1044
3 1045 1024 1025
3 1044 1024 1045
3 1046 1025 1026
3 1045 1025 1046
3 1047 1026 1027
3 1046 1026 1047
3 1048 1027 1028
3 1047 1027 1048
3 1049 1028 1029
3 1048 1028 1049
3 1050 1029 1030
3 1049 1029 1050
3 1030 1031 1051
3 1052 1030 1051
3 1050 1030 1052
3 1054 1053 1052
3 1054 1052 1051
3 1053 1054 1034
3 1032 1053 1034
3 1055 1053 1032
3 1056 1032 1035
3 1055 1032 1056
3 1035 1037 1057
3 1058 1035 1057
3 1056 1035 1058
3 1060 1059 1058
3 1060 1058 1057
3 1062 1061 1059
3 1062 1059 1060
3 1064 1063 1061
3 1064 1061 1062
3 1065 1063 1064
3 765 1038 762
3 765 1066 1038
3 1039 766 763
3 766 1039 767
3 1039 1067 767
3 1039 1040 1067
3 1041 1069 1068
3 1067 1041 1068
3 1040 1041 1067
3 1069 1041 1042
3 1069 1042 1070
3 1070 1042 1043
3 1070 1043 1071
3 1073 1072 1071
3 1043 1073 1071
3 1044 1073 1043
3 1074 1044 1045
3 1073 1044 1074
3 1075 1045 1046
3 1074 1045 1075
3 1076 1046 1047
3 1075 1046 1076
3 1077 1047 1048
3 1076 1047 1077
3 1078 1048 1049
3 1077 1048 1078
3 1079 1049 1050
3 1078 1049 1079
3 1080 1050 1052
3 1079 1050 1080
3 769 1080 768
3 1080 1053 768
3 1080 1052 1053
3 768 1053 770
3 770 1053 1055
3 770 1055 771
3 771 1055 1056
3 771 1056 772
3 772 1056 1058
3 772 1058 773
3 773 1058 1059
3 773 1059 774
3 774 1059 1061
3 774 1061 775
3 775 1061 1063
3 1065 1081 1063
3 1081 775 1063
3 1081 776 775
3 776 1082 777
3 1081 1082 776
3 765 777 1066
3 1066 777 1082
3 1083 778 1067
3 1067 778 767
3 1067 1068 1084
3 1085 1067 1084
3 1083 1067 1085
3 1086 1085 1084
3 1087 1072 1073
3 1089 1088 1087
3 1073 1089 1087
3 1074 1089 1073
3 1090 1074 1075
3 1089 1074 1090
3 1091 1075 1076
3 1090 1075 1091
3 1092 1076 1077
3 1091 1076 1092
3 1093 1077 1078
3 1092 1077 1093
3 780 1093 779
3 1093 1079 779
3 1093 1078 1079
3 779 1079 781
3 781 1079 1080
3 781 1080 769
3 1083 782 778
3 782 1083 783
3 783 1083 1085
3 1095 1094 784
3 1095 784 783
3 1086 1095 783
3 1085 1086 783
3 1097 1096 1094
3 1097 1094 1095
3 1099 1098 1096
3 1099 1096 1097
3 1098 1099 1088
3 1089 1098 1088
3 1100 1098 1089
3 1101 1089 1090
3 1100 1089 1101
3 786 1101 785
3 1101 1091 785
3 1101 1090 1091
3 785 1091 787
3 787 1091 1092
3 787 1092 788
3 788 1092 1093
3 788 1093 780
3 1094 789 784
3 789 1094 790
3 790 1094 1096
3 790 1096 791
3 791 1096 1098
3 791 1098 792
3 792 1098 1100
3 792 1100 793
3 793 1100 1101
3 793 1101 786
3 1102 818 819
3 820 1103 819
3 819 1103 1102
3 1103 820 1104
3 820 1105 1104
3 820 821 1105
3 1107 1105 1106
3 1105 822 1106
3 1105 821 822
3 823 1108 822
3 822 1108 1106
3 824 1109 823
3 823 1109 1108
3 825 1109 824
3 1110 833 1102
3 1102 833 818
3 1103 1112 1111
3 1110 1103 1111
3 1102 1103 1110
3 1112 1103 1104
3 1113 1107 1106
3 1115 1114 1113
3 1106 1115 1113
3 1108 1115 1106
3 1116 1108 1109
3 1115 1108 1116
3 835 1116 825
3 825 1116 1109
3 1117 840 1110
3 1110 840 833
3 1110 1111 1118
3 1119 1110 1118
3 1117 1110 1119
3 1120 1119 1118
3 1123 1122 1121
3 1121 1122 1114
3 1115 1121 1114
3 1124 1121 1115
3 1125 1115 1116
3 1124 1115 1125
3 842 1125 835
3 835 1125 1116
3 1126 847 1117
3 1117 847 840
3 1127 1117 1119
3 1126 1117 1127
3 1119 1120 1128
3 1129 1119 1128
3 1127 1119 1129
3 1129 1128 1123
3 1121 1129 1123
3 1130 1129 1121
3 1131 1121 1124
3 1130 1121 1131
3 1132 1124 1125
3 1131 1124 1132
3 849 1132 842
3 842 1132 1125
3 1133 853 1126
3 1126 853 847
3 1134 1126 1127
3 1133 1126 1134
3 1135 1127 1129
3 1134 1127 1135
3 1136 1129 1130
3 1135 1129 1136
3 856 1136 855
3 1136 1131 855
3 1136 1130 1131
3 855 1131 858
3 858 1131 1132
3 858 1132 849
3 1137 863 1133
3 1133 863 853
3 1138 1133 1134
3 1137 1133 1138
3 1139 1134 1135
3 1138 1134 1139
3 1140 1135 1136
3 1139 1135 1140
3 865 1140 856
3 856 1140 1136
3 1141 869 1137
3 1137 869 863
3 1142 1137 1138
3 1141 1137 1142
3 1143 1138 1139
3 1142 1138 1143
3 872 1143 871
3 1143 1140 871
3 1143 1139 1140
3 871 1140 865
3 1144 875 876
3 869 1141 876
3 1141 1144 876
3 1141 1145 1144
3 1146 1141 1142
3 1145 1141 1146
3 879 1146 878
3 1146 1143 878
3 1146 1142 1143
3 878 1143 872
3 1147 884 1144
3 1144 884 875
3 1148 1144 1145
3 1147 1144 1148
3 1149 1145 1146
3 1148 1145 1149
3 886 1149 879
3 879 1149 1146
3 1150 891 1147
3 1147 891 884
3 1151 1147 1148
3 1150 1147 1151
3 1152 1148 1149
3 1151 1148 1152
3 893 1152 886
3 886 1152 1149
3 1153 896 897
3 891 1150 897
3 1150 1153 897
3 1150 1154 1153
3 1155 1150 1151
3 1154 1150 1155
3 900 1155 899
3 1155 1152 899
3 1155 1151 1152
3 899 1152 893
3 1156 904 1153
3 1153 904 896
3 1157 1153 1154
3 1156 1153 1157
3 907 1157 906
3 1157 1155 906
3 1157 1154 1155
3 906 1155 900
3 1158 912 1156
3 1156 912 904
3 1159 1156 1157
3 1158 1156 1159
3 914 1159 907
3 907 1159 1157
3 1160 919 1158
3 1158 919 912
3 1161 1158 1159
3 1160 1158 1161
3 921 1161 914
3 914 1161 1159
3 1162 925 926
3 919 1160 926
3 1160 1162 926
3 1160 1163 1162
3 1164 1160 1161
3 1163 1160 1164
3 928 1164 921
3 921 1164 1161
3 1165 932 1162
3 1162 932 925
3 1166 1162 1163
3 1165 1162 1166
3 1167 1163 1164
3 1166 1163 1167
3 934 1167 928
3 928 1167 1164
3 1168 939 940
3 932 1165 940
3 1165 1168 940
3 1165 1169 1168
3 1170 1165 1166
3 1169 1165 1170
3 1171 1166 1167
3 1170 1166 1171
3 941 1172 934
3 1172 1167 934
3 1172 1171 1167
3 942 1172 941
3 1173 949 1168
3 1168 949 939
3 1174 1168 1169
3 1173 1168 1174
3 1175 1169 1170
3 1174 1169 1175
3 1176 1170 1171
3 1175 1170 1176
3 1177 1171 1172
3 1176 1171 1177
3 951 1177 942
3 942 1177 1172
3 1178 960 961
3 949 1173 961
3 1173 1178 961
3 1173 1179 1178
3 1180 1173 1174
3 1179 1173 1180
3 1181 1174 1175
3 1180 1174 1181
3 1176 1183 1182
3 1181 1176 1182
3 1175 1176 1181
3 1185 1184 1183
3 1176 1185 1183
3 1177 1185 1176
3 962 1186 951
3 1186 1177 951
3 1186 1185 1177
3 963 1186 962
3 1187 973 1178
3 1178 973 960
3 1188 1178 1179
3 1187 1178 1188
3 1189 1179 1180
3 1188 1179 1189
3 1181 1191 1190
3 1189 1181 1190
3 1180 1181 1189
3 1191 1181 1182
3 1192 1184 1185
3 1194 1193 1192
3 1185 1194 1192
3 1186 1194 1185
3 974 1195 963
3 1195 1186 963
3 1195 1194 1186
3 976 1195 974
3 1187 985 973
3 985 1187 987
3 1187 1196 987
3 1187 1188 1196
3 1197 1188 1189
3 1196 1188 1197
3 1189 1190 1198
3 1189 1198 1197
3 1199 1193 1194
3 1201 1200 1199
3 1194 1201 1199
3 1195 1201 1194
3 988 1202 976
3 1202 1195 976
3 1202 1201 1195
3 990 1202 988
3 1203 1001 1196
3 1196 1001 987
3 1204 1196 1197
3 1203 1196 1204
3 1197 1198 1205
3 1206 1197 1205
3 1204 1197 1206
3 1207 1206 1205
3 1208 1200 1201
3 1208 1201 1202
3 1208 1202 1209
3 1211 1209 1210
3 1210 1209 1002
3 1209 1202 1002
3 1202 990 1002
3 1003 1212 1002
3 1002 1212 1210
3 1004 1212 1003
3 1203 1015 1001
3 1015 1203 1017
3 1203 1213 1017
3 1203 1204 1213
3 1214 1204 1206
3 1213 1204 1214
3 1206 1207 1215
3 1216 1206 1215
3 1214 1206 1216
3 1218 1217 1216
3 1218 1216 1215
3 1220 1219 1217
3 1220 1217 1218
3 1221 1219 1220
3 1222 1211 1210
3 1222 1210 1212
3 1222 1212 1223
3 1223 1212 1004
3 1018 1223 1004
3 1224 1223 1018
3 1018 1019 1224
3 1224 1019 1225
3 1226 1031 1213
3 1213 1031 1017
3 1227 1213 1214
3 1226 1213 1227
3 1034 1227 1033
3 1227 1216 1033
3 1227 1214 1216
3 1033 1216 1036
3 1036 1216 1217
3 1036 1217 1037
3 1217 1228 1037
3 1217 1219 1228
3 1219 1221 1229
3 1230 1219 1229
3 1228 1219 1230
3 1231 1230 1229
3 1234 1233 1232
3 1233 1225 1232
3 1225 1038 1232
3 1225 1019 1038
3 1226 1051 1031
3 1051 1226 1054
3 1054 1226 1227
3 1054 1227 1034
3 1228 1057 1037
3 1057 1228 1060
3 1060 1228 1230
3 1231 1235 1230
3 1235 1060 1230
3 1235 1062 1060
3 1062 1236 1064
3 1235 1236 1062
3 1238 1237 1065
3 1064 1238 1065
3 1236 1238 1064
3 1237 1238 1234
3 1232 1237 1234
3 1239 1237 1232
3 1066 1239 1038
3 1038 1239 1232
3 1240 1068 1069
3 1070 1241 1069
3 1069 1241 1240
3 1071 1242 1070
3 1070 1242 1241
3 1072 1242 1071
3 1237 1081 1065
3 1081 1237 1082
3 1082 1237 1239
3 1082 1239 1066
3 1240 1084 1068
3 1084 1240 1086
3 1240 1243 1086
3 1240 1241 1243
3 1244 1241 1242
3 1243 1241 1244
3 1087 1245 1072
3 1245 1242 1072
3 1245 1244 1242
3 1088 1245 1087
3 1243 1095 1086
3 1095 1243 1097
3 1097 1243 1244
3 1097 1244 1099
3 1099 1244 1245
3 1099 1245 1088
3 1246 1104 1105
3 1107 1246 1105
3 1247 1111 1112
3 1104 1246 1112
3 1246 1247 1112
3 1246 1248 1247
3 1113 1249 1107
3 1249 1246 1107
3 1249 1248 1246
3 1114 1249 1113
3 1247 1118 1111
3 1118 1247 1120
3 1247 1250 1120
3 1247 1248 1250
3 1123 1250 1122
3 1250 1249 1122
3 1250 1248 1249
3 1122 1249 1114
3 1250 1128 1120
3 1128 1250 1123
3 1251 1182 1183
3 1184 1251 1183
3 1252 1190 1191
3 1182 1251 1191
3 1251 1252 1191
3 1251 1253 1252
3 1192 1254 1184
3 1254 1251 1184
3 1254 1253 1251
3 1193 1254 1192
3 1255 1198 1252
3 1252 1198 1190
3 1256 1252 1253
3 1255 1252 1256
3 1257 1253 1254
3 1256 1253 1257
3 1199 1258 1193
3 1258 1254 1193
3 1258 1257 1254
3 1200 1258 1199
3 1255 1205 1198
3 1205 1255 1207
3 1255 1259 1207
3 1255 1256 1259
3 1260 1256 1257
3 1259 1256 1260
3 1261 1257 1258
3 1260 1257 1261
3 1208 1262 1200
3 1262 1258 1200
3 1262 1261 1258
3 1209 1263 1208
3 1208 1263 1262
3 1211 1263 1209
3 1259 1215 1207
3 1215 1259 1218
3 1218 1259 1260
3 1218 1260 1220
3 1220 1260 1261
3 1220 1261 1221
3 1261 1264 1221
3 1261 1262 1264
3 1265 1262 1263
3 1264 1262 1265
3 1222 1266 1211
3 1266 1263 1211
3 1266 1265 1263
3 1223 1267 1222
3 1222 1267 1266
3 1224 1268 1223
3 1223 1268 1267
3 1225 1268 1224
3 1264 1229 1221
3 1229 1264 1231
3 1264 1269 1231
3 1264 1265 1269
3 1270 1265 1266
3 1269 1265 1270
3 1271 1266 1267
3 1270 1266 1271
3 1234 1271 1233
3 1271 1268 1233
3 1271 1267 1268
3 1233 1268 1225
3 1269 1235 1231
3 1235 1269 1236
3 1236 1269 1270
3 1236 1270 1238
3 1238 1270 1271
3 1238 1271 1234
