ply
format ascii 1.0
element vertex 1586
property float x
property float y
property float z
element face 3176
property list uchar int vertex_indices
end_header
-9.50000 -5.00000 -21.00000
-10.00000 -5.00000 -21.50000
-10.00000 -5.50000 -21.00000
-10.00000 -5.00000 -20.50000
-10.00000 -4.50000 -21.00000
-10.50000 -6.00000 -19.00000
-11.00000 -6.00000 -19.50000
-11.00000 -6.50000 -19.00000
-11.00000 -6.00000 -18.50000
-11.00000 -5.00000 -21.50000
-11.00000 -5.50000 -21.00000
-11.00000 -5.50000 -20.00000
-10.50000 -5.00000 -20.00000
-11.00000 -5.50000 -19.00000
-11.00000 -5.00000 -19.50000
-10.50000 -4.00000 -23.00000
-11.00000 -4.00000 -23.50000
-11.00000 -4.50000 -23.00000
-11.00000 -4.50000 -22.00000
-10.50000 -4.00000 -22.00000
-10.50000 -4.00000 -21.00000
-11.00000 -4.00000 -20.50000
-11.00000 -4.50000 -20.00000
-11.00000 -3.50000 -23.00000
-10.50000 -3.00000 -22.00000
-11.00000 -3.00000 -22.50000
-11.00000 -3.00000 -21.50000
-11.00000 -3.50000 -21.00000
-11.00000 -2.50000 -22.00000
-11.50000 -7.00000 -17.00000
-12.00000 -7.00000 -17.50000
-12.00000 -7.50000 -17.00000
-12.00000 -7.00000 -16.50000
-12.00000 -6.00000 -19.50000
-12.00000 -6.50000 -19.00000
-12.00000 -6.50000 -18.00000
-11.50000 -6.00000 -18.00000
-12.00000 -6.50000 -17.00000
-12.00000 -6.00000 -17.50000
-12.00000 -5.00000 -21.50000
-12.00000 -5.50000 -21.00000
-12.00000 -5.50000 -20.00000
-11.50000 -5.50000 -19.50000
-11.50000 -5.00000 -19.00000
-12.00000 -5.00000 -18.50000
-12.00000 -5.50000 -18.00000
-12.00000 -4.00000 -23.50000
-12.00000 -4.50000 -23.00000
-12.00000 -4.50000 -22.00000
-11.50000 -4.00000 -20.00000
-11.50000 -4.00000 -19.00000
-12.00000 -4.00000 -18.50000
-11.50000 -3.00000 -25.00000
-12.00000 -3.00000 -25.50000
-12.00000 -3.50000 -25.00000
-12.00000 -3.50000 -24.00000
-11.50000 -3.00000 -24.00000
-11.50000 -3.00000 -23.00000
-11.50000 -3.00000 -21.00000
-11.50000 -3.00000 -20.00000
-12.00000 -3.00000 -19.50000
-12.00000 -3.50000 -19.00000
-12.00000 -2.50000 -25.00000
-11.50000 -2.00000 -24.00000
-12.00000 -2.00000 -24.50000
-11.50000 -2.00000 -23.00000
-11.50000 -2.00000 -22.00000
-11.50000 -2.00000 -21.00000
-12.00000 -2.00000 -20.50000
-12.00000 -2.50000 -20.00000
-12.00000 -1.50000 -24.00000
-12.00000 -1.50000 -23.00000
-12.00000 -1.50000 -22.00000
-12.00000 -1.50000 -21.00000
-12.50000 -8.00000 -16.00000
-13.00000 -8.00000 -16.50000
-13.00000 -8.50000 -16.00000
-13.00000 -8.00000 -15.50000
-12.50000 -7.00000 -18.00000
-13.00000 -7.00000 -18.50000
-13.00000 -7.50000 -18.00000
-13.00000 -7.50000 -17.00000
-12.50000 -7.00000 -16.00000
-13.00000 -7.00000 -15.50000
-12.50000 -6.00000 -20.00000
-13.00000 -6.00000 -20.50000
-13.00000 -6.50000 -20.00000
-13.00000 -6.50000 -19.00000
-12.50000 -6.00000 -17.00000
-13.00000 -6.00000 -16.50000
-13.00000 -6.50000 -16.00000
-12.50000 -5.00000 -22.00000
-13.00000 -5.00000 -22.50000
-13.00000 -5.50000 -22.00000
-13.00000 -5.50000 -21.00000
-12.50000 -5.00000 -18.00000
-12.50000 -5.00000 -17.00000
-13.00000 -5.00000 -16.50000
-13.00000 -4.00000 -23.50000
-13.00000 -4.50000 -23.00000
-12.50000 -4.00000 -18.00000
-13.00000 -4.00000 -17.50000
-13.00000 -4.50000 -17.00000
-12.50000 -3.00000 -26.00000
-13.00000 -3.00000 -26.50000
-13.00000 -3.50000 -26.00000
-13.00000 -3.50000 -25.00000
-13.00000 -3.50000 -24.00000
-12.50000 -3.00000 -19.00000
-13.00000 -3.00000 -18.50000
-13.00000 -3.50000 -18.00000
-12.50000 -2.00000 -26.00000
-13.00000 -2.00000 -26.50000
-12.50000 -2.00000 -25.00000
-12.50000 -2.00000 -20.00000
-13.00000 -2.00000 -19.50000
-13.00000 -2.50000 -19.00000
-13.00000 -1.50000 -26.00000
-12.50000 -1.00000 -25.00000
-13.00000 -1.00000 -25.50000
-12.50000 -1.00000 -24.00000
-12.50000 -1.00000 -23.00000
-12.50000 -1.00000 -22.00000
-12.50000 -1.00000 -21.00000
-13.00000 -1.00000 -20.50000
-13.00000 -1.50000 -20.00000
-13.00000 -0.50000 -25.00000
-12.50000 0.00000 -24.00000
-13.00000 0.00000 -24.50000
-13.00000 0.00000 -23.50000
-13.00000 -0.50000 -23.00000
-13.00000 -0.50000 -22.00000
-13.00000 -0.50000 -21.00000
-13.00000 0.50000 -24.00000
-13.50000 -8.00000 -17.00000
-14.00000 -8.00000 -17.50000
-14.00000 -8.50000 -17.00000
-14.00000 -8.50000 -16.00000
-14.00000 -8.50000 -15.00000
-13.50000 -8.00000 -15.00000
-14.00000 -8.00000 -14.50000
-13.50000 -7.00000 -19.00000
-14.00000 -7.00000 -19.50000
-14.00000 -7.50000 -19.00000
-14.00000 -7.50000 -18.00000
-13.50000 -7.00000 -15.00000
-14.00000 -7.00000 -14.50000
-14.00000 -6.00000 -20.50000
-14.00000 -6.50000 -20.00000
-13.50000 -6.00000 -16.00000
-13.50000 -6.00000 -15.00000
-14.00000 -6.00000 -14.50000
-14.00000 -5.00000 -22.50000
-14.00000 -5.50000 -22.00000
-14.00000 -5.50000 -21.00000
-13.50000 -5.00000 -16.00000
-13.50000 -5.00000 -15.00000
-14.00000 -5.00000 -14.50000
-13.50000 -4.00000 -24.00000
-14.00000 -4.00000 -24.50000
-14.00000 -4.50000 -24.00000
-14.00000 -4.50000 -23.00000
-13.50000 -4.00000 -17.00000
-13.50000 -4.00000 -16.00000
-14.00000 -4.00000 -15.50000
-14.00000 -4.50000 -15.00000
-14.00000 -3.00000 -26.50000
-14.00000 -3.50000 -26.00000
-14.00000 -3.50000 -25.00000
-13.50000 -3.00000 -18.00000
-13.50000 -3.00000 -17.00000
-14.00000 -3.00000 -16.50000
-14.00000 -3.50000 -16.00000
-14.00000 -2.00000 -26.50000
-13.50000 -2.00000 -19.00000
-13.50000 -2.00000 -18.00000
-14.00000 -2.00000 -17.50000
-14.00000 -2.50000 -17.00000
-13.50000 -1.00000 -26.00000
-14.00000 -1.00000 -26.50000
-13.50000 -1.00000 -20.00000
-13.50000 -1.00000 -19.00000
-14.00000 -1.00000 -18.50000
-14.00000 -1.50000 -18.00000
-14.00000 -0.50000 -26.00000
-13.50000 0.00000 -25.00000
-14.00000 0.00000 -25.50000
-13.50000 0.00000 -23.00000
-13.50000 0.00000 -22.00000
-13.50000 0.00000 -21.00000
-14.00000 0.00000 -20.50000
-14.00000 -0.50000 -20.00000
-14.00000 -0.50000 -19.00000
-14.00000 0.50000 -25.00000
-14.00000 0.50000 -24.00000
-14.00000 0.50000 -23.00000
-14.00000 0.50000 -22.00000
-14.00000 0.50000 -21.00000
-14.50000 -9.00000 -16.00000
-15.00000 -9.00000 -16.50000
-15.00000 -9.50000 -16.00000
-15.00000 -9.50000 -15.00000
-14.50000 -9.00000 -15.00000
-15.00000 -9.50000 -14.00000
-14.50000 -9.00000 -14.00000
-15.00000 -9.00000 -13.50000
-14.50000 -8.00000 -18.00000
-15.00000 -8.00000 -18.50000
-15.00000 -8.50000 -18.00000
-15.00000 -8.50000 -17.00000
-14.50000 -8.00000 -14.00000
-15.00000 -8.00000 -13.50000
-15.00000 -7.00000 -19.50000
-15.00000 -7.50000 -19.00000
-14.50000 -7.00000 -14.00000
-15.00000 -7.00000 -13.50000
-15.00000 -6.00000 -20.50000
-15.00000 -6.50000 -20.00000
-14.50000 -6.00000 -14.00000
-15.00000 -6.00000 -13.50000
-15.00000 -5.00000 -22.50000
-15.00000 -5.50000 -22.00000
-15.00000 -5.50000 -21.00000
-14.50000 -5.00000 -14.00000
-15.00000 -5.00000 -13.50000
-14.50000 -4.00000 -25.00000
-15.00000 -4.00000 -25.50000
-15.00000 -4.50000 -25.00000
-15.00000 -4.50000 -24.00000
-15.00000 -4.50000 -23.00000
-14.50000 -4.00000 -15.00000
-15.00000 -4.00000 -14.50000
-15.00000 -4.50000 -14.00000
-15.00000 -3.00000 -26.50000
-15.00000 -3.50000 -26.00000
-14.50000 -3.00000 -16.00000
-15.00000 -3.00000 -15.50000
-15.00000 -3.50000 -15.00000
-15.00000 -2.00000 -26.50000
-14.50000 -2.00000 -17.00000
-15.00000 -2.00000 -16.50000
-15.00000 -2.50000 -16.00000
-15.00000 -1.00000 -26.50000
-14.50000 -1.00000 -18.00000
-15.00000 -1.00000 -17.50000
-15.00000 -1.50000 -17.00000
-14.50000 0.00000 -26.00000
-15.00000 0.00000 -26.50000
-14.50000 0.00000 -20.00000
-15.00000 0.00000 -19.50000
-15.00000 -0.50000 -19.00000
-15.00000 -0.50000 -18.00000
-15.00000 0.50000 -26.00000
-14.50000 1.00000 -25.00000
-15.00000 1.00000 -25.50000
-14.50000 1.00000 -24.00000
-14.50000 1.00000 -23.00000
-14.50000 1.00000 -22.00000
-15.00000 1.00000 -21.50000
-15.00000 0.50000 -21.00000
-15.00000 0.50000 -20.00000
-15.00000 1.50000 -25.00000
-15.00000 1.50000 -24.00000
-15.00000 1.50000 -23.00000
-15.00000 1.50000 -22.00000
-15.50000 -10.00000 -13.00000
-16.00000 -10.00000 -13.50000
-16.00000 -10.50000 -13.00000
-16.00000 -10.00000 -12.50000
-15.50000 -9.00000 -17.00000
-16.00000 -9.00000 -17.50000
-16.00000 -9.50000 -17.00000
-16.00000 -9.50000 -16.00000
-16.00000 -9.50000 -15.00000
-16.00000 -9.50000 -14.00000
-15.50000 -9.00000 -13.00000
-16.00000 -9.00000 -12.50000
-15.50000 -8.00000 -19.00000
-16.00000 -8.00000 -19.50000
-16.00000 -8.50000 -19.00000
-16.00000 -8.50000 -18.00000
-15.50000 -8.00000 -13.00000
-16.00000 -8.00000 -12.50000
-15.50000 -7.00000 -20.00000
-16.00000 -7.00000 -20.50000
-16.00000 -7.50000 -20.00000
-15.50000 -7.00000 -13.00000
-16.00000 -7.00000 -12.50000
-15.50000 -6.00000 -21.00000
-16.00000 -6.00000 -21.50000
-16.00000 -6.50000 -21.00000
-15.50000 -6.00000 -13.00000
-16.00000 -6.00000 -12.50000
-15.50000 -5.00000 -23.00000
-16.00000 -5.00000 -23.50000
-16.00000 -5.50000 -23.00000
-16.00000 -5.50000 -22.00000
-15.50000 -5.00000 -13.00000
-16.00000 -5.00000 -12.50000
-15.50000 -4.00000 -26.00000
-16.00000 -4.00000 -26.50000
-16.00000 -4.50000 -26.00000
-16.00000 -4.50000 -25.00000
-16.00000 -4.50000 -24.00000
-16.00000 -4.50000 -14.00000
-16.00000 -4.00000 -14.50000
-16.00000 -4.50000 -13.00000
-16.00000 -3.00000 -26.50000
-15.50000 -3.00000 -15.00000
-16.00000 -3.00000 -14.50000
-16.00000 -2.00000 -26.50000
-15.50000 -2.00000 -16.00000
-16.00000 -2.00000 -15.50000
-16.00000 -2.50000 -15.00000
-16.00000 -1.00000 -26.50000
-15.50000 -1.00000 -17.00000
-16.00000 -1.00000 -16.50000
-16.00000 -1.50000 -16.00000
-16.00000 0.00000 -26.50000
-15.50000 0.00000 -19.00000
-16.00000 0.00000 -18.50000
-16.00000 -0.50000 -18.00000
-16.00000 -0.50000 -17.00000
-16.00000 0.50000 -26.00000
-16.00000 1.00000 -25.50000
-15.50000 1.00000 -21.00000
-16.00000 1.00000 -20.50000
-16.00000 0.50000 -20.00000
-16.00000 0.50000 -19.00000
-16.00000 1.50000 -25.00000
-15.50000 2.00000 -24.00000
-16.00000 2.00000 -24.50000
-15.50000 2.00000 -23.00000
-16.00000 2.00000 -22.50000
-16.00000 1.50000 -22.00000
-16.00000 1.50000 -21.00000
-16.00000 2.50000 -24.00000
-16.00000 2.50000 -23.00000
-16.50000 -10.00000 -16.00000
-17.00000 -10.00000 -16.50000
-17.00000 -10.50000 -16.00000
-17.00000 -10.50000 -15.00000
-16.50000 -10.00000 -15.00000
-17.00000 -10.50000 -14.00000
-16.50000 -10.00000 -14.00000
-17.00000 -10.50000 -13.00000
-17.00000 -10.00000 -12.50000
-16.50000 -9.00000 -18.00000
-17.00000 -9.00000 -18.50000
-17.00000 -9.50000 -18.00000
-17.00000 -9.50000 -17.00000
-17.00000 -9.50000 -12.00000
-16.50000 -9.00000 -12.00000
-17.00000 -9.00000 -11.50000
-17.00000 -8.00000 -19.50000
-17.00000 -8.50000 -19.00000
-16.50000 -8.00000 -12.00000
-17.00000 -8.00000 -11.50000
-17.00000 -7.00000 -20.50000
-17.00000 -7.50000 -20.00000
-16.50000 -7.00000 -12.00000
-17.00000 -7.00000 -11.50000
-17.00000 -6.00000 -21.50000
-17.00000 -6.50000 -21.00000
-16.50000 -6.00000 -12.00000
-17.00000 -6.00000 -11.50000
-17.00000 -5.00000 -23.50000
-17.00000 -5.50000 -23.00000
-17.00000 -5.50000 -22.00000
-16.50000 -5.00000 -12.00000
-17.00000 -5.00000 -11.50000
-16.50000 -4.00000 -27.00000
-17.00000 -4.00000 -27.50000
-17.00000 -4.50000 -27.00000
-17.00000 -4.50000 -26.00000
-17.00000 -4.50000 -25.00000
-17.00000 -4.50000 -24.00000
-16.50000 -4.00000 -14.00000
-17.00000 -4.00000 -13.50000
-17.00000 -4.50000 -13.00000
-17.00000 -4.50000 -12.00000
-16.50000 -3.00000 -27.00000
-17.00000 -3.00000 -27.50000
-17.00000 -3.50000 -14.00000
-17.00000 -3.00000 -14.50000
-16.50000 -2.00000 -27.00000
-17.00000 -2.00000 -27.50000
-17.00000 -2.50000 -15.00000
-17.00000 -2.00000 -15.50000
-17.00000 -1.50000 -27.00000
-17.00000 -1.00000 -26.50000
-17.00000 -1.50000 -16.00000
-17.00000 -1.00000 -16.50000
-17.00000 0.00000 -26.50000
-17.00000 -0.50000 -18.00000
-17.00000 0.00000 -18.50000
-17.00000 -0.50000 -17.00000
-17.00000 0.50000 -26.00000
-16.50000 1.00000 -25.00000
-17.00000 0.50000 -25.00000
-17.00000 1.00000 -24.50000
-16.50000 1.00000 -20.00000
-17.00000 1.00000 -19.50000
-17.00000 0.50000 -19.00000
-16.50000 2.00000 -24.00000
-17.00000 1.50000 -24.00000
-17.00000 2.00000 -23.50000
-16.50000 2.00000 -22.00000
-17.00000 2.00000 -21.50000
-17.00000 1.50000 -21.00000
-17.00000 1.50000 -20.00000
-17.00000 2.50000 -23.00000
-17.00000 2.50000 -22.00000
-17.50000 -10.00000 -17.00000
-18.00000 -10.00000 -17.50000
-18.00000 -10.50000 -17.00000
-18.00000 -10.50000 -16.00000
-18.00000 -10.50000 -15.00000
-18.00000 -10.50000 -14.00000
-18.00000 -10.50000 -13.00000
-18.00000 -10.50000 -12.00000
-17.50000 -10.00000 -12.00000
-18.00000 -10.00000 -11.50000
-18.00000 -9.00000 -18.50000
-18.00000 -9.50000 -18.00000
-18.00000 -9.00000 -11.50000
-18.00000 -8.00000 -19.50000
-18.00000 -8.50000 -19.00000
-18.00000 -8.00000 -11.50000
-18.00000 -7.00000 -20.50000
-18.00000 -7.50000 -20.00000
-18.00000 -7.00000 -11.50000
-17.50000 -6.00000 -22.00000
-18.00000 -6.00000 -22.50000
-18.00000 -6.50000 -22.00000
-18.00000 -6.50000 -21.00000
-18.00000 -6.50000 -11.00000
-17.50000 -6.00000 -11.00000
-18.00000 -6.00000 -10.50000
-17.50000 -5.00000 -24.00000
-18.00000 -5.00000 -24.50000
-18.00000 -5.50000 -24.00000
-18.00000 -5.50000 -23.00000
-18.00000 -5.50000 -11.00000
-18.00000 -5.00000 -11.50000
-17.50000 -4.00000 -28.00000
-18.00000 -4.00000 -28.50000
-18.00000 -4.50000 -28.00000
-18.00000 -4.50000 -27.00000
-18.00000 -4.50000 -26.00000
-18.00000 -4.50000 -25.00000
-17.50000 -4.00000 -13.00000
-18.00000 -4.00000 -12.50000
-18.00000 -4.50000 -12.00000
-17.50000 -3.00000 -28.00000
-18.00000 -3.00000 -28.50000
-17.50000 -3.00000 -14.00000
-18.00000 -3.00000 -13.50000
-18.00000 -3.50000 -13.00000
-17.50000 -2.00000 -28.00000
-18.00000 -2.00000 -28.50000
-17.50000 -2.00000 -15.00000
-18.00000 -2.00000 -14.50000
-18.00000 -2.50000 -14.00000
-18.00000 -1.50000 -28.00000
-17.50000 -1.00000 -27.00000
-18.00000 -1.00000 -27.50000
-18.00000 -1.50000 -16.00000
-18.00000 -1.00000 -16.50000
-18.00000 -1.50000 -15.00000
-18.00000 -0.50000 -27.00000
-18.00000 0.00000 -26.50000
-17.50000 0.00000 -18.00000
-18.00000 0.00000 -17.50000
-18.00000 -0.50000 -17.00000
-18.00000 0.50000 -26.00000
-17.50000 1.00000 -25.00000
-18.00000 1.00000 -25.50000
-18.00000 0.50000 -19.00000
-18.00000 1.00000 -19.50000
-18.00000 0.50000 -18.00000
-18.00000 1.50000 -25.00000
-18.00000 1.50000 -24.00000
-18.00000 2.00000 -23.50000
-18.00000 1.50000 -21.00000
-18.00000 2.00000 -21.50000
-18.00000 1.50000 -20.00000
-18.00000 2.50000 -23.00000
-18.00000 2.50000 -22.00000
-18.50000 -11.00000 -15.00000
-19.00000 -11.00000 -15.50000
-19.00000 -11.50000 -15.00000
-19.00000 -11.50000 -14.00000
-18.50000 -11.00000 -14.00000
-19.00000 -11.50000 -13.00000
-18.50000 -11.00000 -13.00000
-19.00000 -11.50000 -12.00000
-18.50000 -11.00000 -12.00000
-19.00000 -11.00000 -11.50000
-19.00000 -10.00000 -17.50000
-19.00000 -10.50000 -17.00000
-19.00000 -10.50000 -16.00000
-19.00000 -10.00000 -11.50000
-19.00000 -9.00000 -18.50000
-19.00000 -9.50000 -18.00000
-19.00000 -9.50000 -11.00000
-18.50000 -9.00000 -11.00000
-19.00000 -9.00000 -10.50000
-18.50000 -8.00000 -20.00000
-19.00000 -8.00000 -20.50000
-19.00000 -8.50000 -20.00000
-19.00000 -8.50000 -19.00000
-18.50000 -8.00000 -11.00000
-19.00000 -8.00000 -10.50000
-18.50000 -7.00000 -21.00000
-19.00000 -7.00000 -21.50000
-19.00000 -7.50000 -21.00000
-18.50000 -7.00000 -11.00000
-19.00000 -7.00000 -10.50000
-19.00000 -6.00000 -22.50000
-19.00000 -6.50000 -22.00000
-19.00000 -6.00000 -10.50000
-19.00000 -5.00000 -24.50000
-19.00000 -5.50000 -24.00000
-19.00000 -5.50000 -23.00000
-19.00000 -5.50000 -11.00000
-19.00000 -5.00000 -11.50000
-19.00000 -4.00000 -28.50000
-19.00000 -4.50000 -28.00000
-19.00000 -4.50000 -27.00000
-19.00000 -4.50000 -26.00000
-19.00000 -4.50000 -25.00000
-18.50000 -4.00000 -12.00000
-19.00000 -4.00000 -11.50000
-18.50000 -3.00000 -29.00000
-19.00000 -3.00000 -29.50000
-19.00000 -3.50000 -29.00000
-19.00000 -3.50000 -13.00000
-19.00000 -3.00000 -13.50000
-19.00000 -3.50000 -12.00000
-19.00000 -2.50000 -29.00000
-19.00000 -2.00000 -28.50000
-19.00000 -2.50000 -14.00000
-19.00000 -2.00000 -14.50000
-18.50000 -1.00000 -28.00000
-19.00000 -1.00000 -28.50000
-18.50000 -1.00000 -16.00000
-19.00000 -1.00000 -15.50000
-19.00000 -1.50000 -15.00000
-19.00000 -0.50000 -28.00000
-18.50000 0.00000 -27.00000
-19.00000 0.00000 -27.50000
-19.00000 -0.50000 -17.00000
-19.00000 0.00000 -17.50000
-19.00000 -0.50000 -16.00000
-19.00000 0.50000 -27.00000
-19.00000 0.50000 -26.00000
-19.00000 1.00000 -25.50000
-18.50000 1.00000 -19.00000
-19.00000 1.00000 -18.50000
-19.00000 0.50000 -18.00000
-19.00000 1.50000 -25.00000
-19.00000 1.50000 -24.00000
-18.50000 2.00000 -23.00000
-19.00000 1.50000 -23.00000
-18.50000 2.00000 -22.00000
-19.00000 1.50000 -22.00000
-19.00000 1.50000 -21.00000
-19.00000 1.50000 -20.00000
-19.00000 1.50000 -19.00000
-20.00000 -11.00000 -15.50000
-20.00000 -11.50000 -15.00000
-20.00000 -11.50000 -14.00000
-20.00000 -11.50000 -13.00000
-20.00000 -11.50000 -12.00000
-20.00000 -11.00000 -11.50000
-20.00000 -10.00000 -17.50000
-20.00000 -10.50000 -17.00000
-20.00000 -10.50000 -16.00000
-20.00000 -10.50000 -11.00000
-19.50000 -10.00000 -11.00000
-20.00000 -10.00000 -10.50000
-19.50000 -9.00000 -19.00000
-20.00000 -9.00000 -19.50000
-20.00000 -9.50000 -19.00000
-20.00000 -9.50000 -18.00000
-20.00000 -9.00000 -10.50000
-20.00000 -8.00000 -20.50000
-20.00000 -8.50000 -20.00000
-20.00000 -8.00000 -10.50000
-20.00000 -7.00000 -21.50000
-20.00000 -7.50000 -21.00000
-20.00000 -7.00000 -10.50000
-20.00000 -6.00000 -22.50000
-20.00000 -6.50000 -22.00000
-20.00000 -6.00000 -10.50000
-19.50000 -5.00000 -29.00000
-20.00000 -5.00000 -29.50000
-20.00000 -5.50000 -29.00000
-20.00000 -5.50000 -28.00000
-19.50000 -5.00000 -28.00000
-20.00000 -5.50000 -27.00000
-19.50000 -5.00000 -27.00000
-20.00000 -5.50000 -26.00000
-19.50000 -5.00000 -26.00000
-20.00000 -5.50000 -25.00000
-19.50000 -5.00000 -25.00000
-20.00000 -5.50000 -24.00000
-20.00000 -5.50000 -23.00000
-20.00000 -5.50000 -11.00000
-20.00000 -5.00000 -11.50000
-19.50000 -4.00000 -29.00000
-20.00000 -4.00000 -29.50000
-19.50000 -4.00000 -12.00000
-20.00000 -4.50000 -12.00000
-20.00000 -4.00000 -12.50000
-20.00000 -3.00000 -29.50000
-19.50000 -3.00000 -13.00000
-20.00000 -3.00000 -12.50000
-19.50000 -2.00000 -29.00000
-20.00000 -2.00000 -29.50000
-20.00000 -2.50000 -14.00000
-20.00000 -2.00000 -14.50000
-20.00000 -2.50000 -13.00000
-20.00000 -1.50000 -29.00000
-20.00000 -1.00000 -28.50000
-20.00000 -1.50000 -15.00000
-20.00000 -1.00000 -15.50000
-19.50000 0.00000 -28.00000
-20.00000 0.00000 -28.50000
-19.50000 0.00000 -17.00000
-20.00000 0.00000 -16.50000
-20.00000 -0.50000 -16.00000
-20.00000 0.50000 -28.00000
-20.00000 0.50000 -27.00000
-19.50000 1.00000 -26.00000
-20.00000 1.00000 -26.50000
-20.00000 0.50000 -18.00000
-20.00000 1.00000 -18.50000
-20.00000 0.50000 -17.00000
-20.00000 1.50000 -26.00000
-20.00000 1.50000 -25.00000
-20.00000 1.50000 -24.00000
-20.00000 1.50000 -23.00000
-20.00000 1.50000 -22.00000
-20.00000 1.50000 -21.00000
-20.00000 1.50000 -20.00000
-20.00000 1.50000 -19.00000
-20.50000 -12.00000 -13.00000
-21.00000 -12.00000 -13.50000
-21.00000 -12.50000 -13.00000
-21.00000 -12.50000 -12.00000
-20.50000 -12.00000 -12.00000
-21.00000 -12.50000 -11.00000
-20.50000 -12.00000 -11.00000
-21.00000 -12.00000 -10.50000
-21.00000 -11.00000 -15.50000
-21.00000 -11.50000 -15.00000
-21.00000 -11.50000 -14.00000
-20.50000 -11.00000 -11.00000
-21.00000 -11.00000 -10.50000
-21.00000 -10.00000 -17.50000
-21.00000 -10.50000 -17.00000
-21.00000 -10.50000 -16.00000
-21.00000 -10.00000 -10.50000
-21.00000 -9.00000 -19.50000
-21.00000 -9.50000 -19.00000
-21.00000 -9.50000 -18.00000
-21.00000 -9.50000 -10.00000
-20.50000 -9.00000 -10.00000
-21.00000 -9.00000 -9.50000
-21.00000 -8.00000 -20.50000
-21.00000 -8.50000 -20.00000
-21.00000 -8.50000 -10.00000
-21.00000 -8.00000 -10.50000
-21.00000 -7.00000 -21.50000
-21.00000 -7.50000 -21.00000
-21.00000 -7.00000 -10.50000
-20.50000 -6.00000 -23.00000
-21.00000 -6.00000 -23.50000
-21.00000 -6.50000 -23.00000
-21.00000 -6.50000 -22.00000
-21.00000 -6.00000 -10.50000
-21.00000 -5.00000 -29.50000
-21.00000 -5.50000 -29.00000
-21.00000 -5.50000 -28.00000
-21.00000 -5.50000 -27.00000
-21.00000 -5.50000 -26.00000
-21.00000 -5.50000 -25.00000
-21.00000 -5.50000 -24.00000
-21.00000 -5.50000 -11.00000
-21.00000 -5.00000 -11.50000
-20.50000 -4.00000 -30.00000
-21.00000 -4.00000 -30.50000
-21.00000 -4.50000 -30.00000
-21.00000 -4.50000 -12.00000
-21.00000 -4.00000 -12.50000
-20.50000 -3.00000 -30.00000
-21.00000 -3.00000 -30.50000
-21.00000 -3.00000 -12.50000
-20.50000 -2.00000 -30.00000
-21.00000 -2.00000 -30.50000
-21.00000 -2.50000 -14.00000
-21.00000 -2.00000 -14.50000
-21.00000 -2.50000 -13.00000
-21.00000 -1.50000 -30.00000
-20.50000 -1.00000 -29.00000
-21.00000 -1.00000 -29.50000
-21.00000 -1.50000 -15.00000
-21.00000 -1.00000 -15.50000
-21.00000 -0.50000 -29.00000
-21.00000 0.00000 -28.50000
-20.50000 0.00000 -17.00000
-21.00000 -0.50000 -17.00000
-21.00000 0.00000 -17.50000
-21.00000 -0.50000 -16.00000
-21.00000 0.50000 -28.00000
-20.50000 1.00000 -27.00000
-21.00000 1.00000 -27.50000
-21.00000 0.50000 -18.00000
-21.00000 1.00000 -18.50000
-21.00000 1.50000 -27.00000
-21.00000 1.50000 -26.00000
-21.00000 1.50000 -25.00000
-21.00000 1.50000 -24.00000
-21.00000 1.50000 -23.00000
-21.00000 1.50000 -22.00000
-21.00000 1.50000 -21.00000
-21.00000 1.50000 -20.00000
-21.00000 1.50000 -19.00000
-21.50000 -13.00000 -11.00000
-22.00000 -13.00000 -11.50000
-22.00000 -13.50000 -11.00000
-22.00000 -13.00000 -10.50000
-22.00000 -12.00000 -13.50000
-22.00000 -12.50000 -13.00000
-22.00000 -12.50000 -12.00000
-22.00000 -12.00000 -10.50000
-22.00000 -11.00000 -15.50000
-22.00000 -11.50000 -15.00000
-22.00000 -11.50000 -14.00000
-22.00000 -11.00000 -10.50000
-21.50000 -10.00000 -18.00000
-22.00000 -10.00000 -18.50000
-22.00000 -10.50000 -18.00000
-22.00000 -10.50000 -17.00000
-22.00000 -10.50000 -16.00000
-22.00000 -10.50000 -10.00000
-21.50000 -10.00000 -10.00000
-22.00000 -10.00000 -9.50000
-22.00000 -9.00000 -19.50000
-22.00000 -9.50000 -19.00000
-22.00000 -9.00000 -9.50000
-22.00000 -8.00000 -20.50000
-22.00000 -8.50000 -20.00000
-22.00000 -8.50000 -10.00000
-22.00000 -8.00000 -10.50000
-21.50000 -7.00000 -22.00000
-22.00000 -7.00000 -22.50000
-22.00000 -7.50000 -22.00000
-22.00000 -7.50000 -21.00000
-22.00000 -7.00000 -10.50000
-21.50000 -6.00000 -24.00000
-22.00000 -6.00000 -24.50000
-22.00000 -6.50000 -24.00000
-22.00000 -6.50000 -23.00000
-22.00000 -6.00000 -10.50000
-21.50000 -5.00000 -30.00000
-22.00000 -5.00000 -30.50000
-22.00000 -5.50000 -30.00000
-22.00000 -5.00000 -29.50000
-21.50000 -5.00000 -29.00000
-22.00000 -5.00000 -28.50000
-22.00000 -5.50000 -28.00000
-22.00000 -5.50000 -27.00000
-22.00000 -5.50000 -26.00000
-22.00000 -5.50000 -25.00000
-22.00000 -5.50000 -11.00000
-22.00000 -5.00000 -11.50000
-22.00000 -4.00000 -30.50000
-22.00000 -4.50000 -29.00000
-22.00000 -4.50000 -12.00000
-22.00000 -4.00000 -12.50000
-21.50000 -3.00000 -31.00000
-22.00000 -3.00000 -31.50000
-22.00000 -3.50000 -31.00000
-22.00000 -3.00000 -12.50000
-22.00000 -2.50000 -31.00000
-22.00000 -2.00000 -30.50000
-22.00000 -2.50000 -14.00000
-22.00000 -2.00000 -14.50000
-22.00000 -2.50000 -13.00000
-21.50000 -1.00000 -30.00000
-22.00000 -1.00000 -30.50000
-22.00000 -1.50000 -15.00000
-22.00000 -1.00000 -15.50000
-22.00000 -0.50000 -30.00000
-21.50000 0.00000 -29.00000
-22.00000 0.00000 -29.50000
-21.50000 0.00000 -17.00000
-22.00000 0.00000 -16.50000
-22.00000 -0.50000 -16.00000
-22.00000 0.50000 -29.00000
-22.00000 0.50000 -28.00000
-22.00000 1.00000 -27.50000
-22.00000 0.50000 -18.00000
-22.00000 1.00000 -18.50000
-22.00000 0.50000 -17.00000
-22.00000 1.50000 -27.00000
-22.00000 1.50000 -26.00000
-22.00000 1.50000 -25.00000
-22.00000 1.50000 -24.00000
-22.00000 1.50000 -23.00000
-22.00000 1.50000 -22.00000
-22.00000 1.50000 -21.00000
-22.00000 1.50000 -20.00000
-22.00000 1.50000 -19.00000
-22.50000 -13.00000 -12.00000
-23.00000 -13.00000 -12.50000
-23.00000 -13.50000 -12.00000
-23.00000 -13.50000 -11.00000
-23.00000 -13.00000 -10.50000
-23.00000 -12.00000 -13.50000
-23.00000 -12.50000 -13.00000
-23.00000 -12.00000 -10.50000
-23.00000 -11.00000 -15.50000
-23.00000 -11.50000 -15.00000
-23.00000 -11.50000 -14.00000
-23.00000 -11.00000 -10.50000
-23.00000 -10.00000 -18.50000
-23.00000 -10.50000 -18.00000
-23.00000 -10.50000 -17.00000
-23.00000 -10.50000 -16.00000
-22.50000 -10.00000 -10.00000
-23.00000 -10.00000 -10.50000
-23.00000 -9.00000 -19.50000
-23.00000 -9.50000 -19.00000
-22.50000 -9.00000 -10.00000
-23.00000 -9.00000 -10.50000
-22.50000 -8.00000 -21.00000
-23.00000 -8.00000 -21.50000
-23.00000 -8.50000 -21.00000
-23.00000 -8.50000 -20.00000
-23.00000 -8.00000 -10.50000
-23.00000 -7.00000 -22.50000
-23.00000 -7.50000 -22.00000
-23.00000 -7.00000 -10.50000
-22.50000 -6.00000 -25.00000
-23.00000 -6.00000 -25.50000
-23.00000 -6.50000 -25.00000
-23.00000 -6.50000 -24.00000
-23.00000 -6.50000 -23.00000
-23.00000 -6.00000 -10.50000
-22.50000 -5.00000 -30.00000
-23.00000 -5.00000 -28.50000
-23.00000 -5.50000 -28.00000
-23.00000 -5.50000 -27.00000
-23.00000 -5.50000 -26.00000
-23.00000 -5.50000 -11.00000
-23.00000 -5.00000 -11.50000
-23.00000 -4.00000 -30.50000
-23.00000 -4.50000 -30.00000
-23.00000 -4.50000 -29.00000
-23.00000 -4.50000 -12.00000
-23.00000 -4.00000 -12.50000
-22.50000 -3.00000 -31.00000
-23.00000 -3.00000 -30.50000
-22.50000 -3.00000 -13.00000
-23.00000 -3.50000 -13.00000
-23.00000 -3.00000 -13.50000
-23.00000 -2.00000 -30.50000
-23.00000 -2.50000 -14.00000
-23.00000 -2.00000 -14.50000
-23.00000 -1.00000 -30.50000
-23.00000 -1.50000 -15.00000
-23.00000 -1.00000 -15.50000
-23.00000 -0.50000 -30.00000
-23.00000 0.00000 -29.50000
-23.00000 -0.50000 -16.00000
-23.00000 0.00000 -16.50000
-23.00000 0.50000 -29.00000
-23.00000 0.50000 -28.00000
-22.50000 1.00000 -27.00000
-23.00000 0.50000 -27.00000
-23.00000 1.00000 -26.50000
-23.00000 0.50000 -18.00000
-23.00000 1.00000 -18.50000
-23.00000 0.50000 -17.00000
-23.00000 1.50000 -26.00000
-23.00000 1.50000 -25.00000
-23.00000 1.50000 -24.00000
-23.00000 1.50000 -23.00000
-23.00000 1.50000 -22.00000
-23.00000 1.50000 -21.00000
-23.00000 1.50000 -20.00000
-23.00000 1.50000 -19.00000
-23.50000 -14.00000 -11.00000
-24.00000 -14.00000 -11.50000
-24.00000 -14.50000 -11.00000
-24.00000 -14.00000 -10.50000
-24.00000 -13.00000 -12.50000
-24.00000 -13.50000 -12.00000
-24.00000 -13.00000 -10.50000
-24.00000 -12.00000 -13.50000
-24.00000 -12.50000 -13.00000
-24.00000 -12.00000 -10.50000
-24.00000 -11.00000 -15.50000
-24.00000 -11.50000 -15.00000
-24.00000 -11.50000 -14.00000
-24.00000 -11.00000 -10.50000
-23.50000 -10.00000 -18.00000
-24.00000 -10.00000 -17.50000
-24.00000 -10.50000 -17.00000
-24.00000 -10.50000 -16.00000
-24.00000 -10.00000 -10.50000
-24.00000 -9.00000 -19.50000
-24.00000 -9.50000 -19.00000
-24.00000 -9.50000 -18.00000
-24.00000 -9.00000 -10.50000
-24.00000 -8.00000 -21.50000
-24.00000 -8.50000 -21.00000
-24.00000 -8.50000 -20.00000
-24.00000 -8.00000 -10.50000
-23.50000 -7.00000 -23.00000
-24.00000 -7.00000 -23.50000
-24.00000 -7.50000 -23.00000
-24.00000 -7.50000 -22.00000
-24.00000 -7.00000 -10.50000
-23.50000 -6.00000 -27.00000
-24.00000 -6.00000 -27.50000
-24.00000 -6.50000 -27.00000
-24.00000 -6.50000 -26.00000
-23.50000 -6.00000 -26.00000
-24.00000 -6.50000 -25.00000
-24.00000 -6.50000 -24.00000
-24.00000 -6.00000 -10.50000
-24.00000 -5.00000 -28.50000
-24.00000 -5.50000 -28.00000
-24.00000 -5.50000 -11.00000
-24.00000 -5.00000 -11.50000
-24.00000 -4.00000 -30.50000
-24.00000 -4.50000 -30.00000
-24.00000 -4.50000 -29.00000
-24.00000 -4.50000 -12.00000
-24.00000 -4.00000 -12.50000
-24.00000 -3.00000 -30.50000
-24.00000 -3.50000 -13.00000
-24.00000 -3.00000 -13.50000
-24.00000 -2.00000 -30.50000
-24.00000 -2.50000 -14.00000
-24.00000 -2.00000 -14.50000
-24.00000 -1.50000 -30.00000
-23.50000 -1.00000 -30.00000
-24.00000 -1.00000 -29.50000
-24.00000 -1.50000 -15.00000
-24.00000 -1.00000 -15.50000
-24.00000 0.00000 -29.50000
-24.00000 -0.50000 -16.00000
-24.00000 0.00000 -16.50000
-24.00000 0.50000 -29.00000
-24.00000 0.50000 -28.00000
-24.00000 0.50000 -27.00000
-23.50000 1.00000 -26.00000
-24.00000 0.50000 -26.00000
-23.50000 1.00000 -25.00000
-24.00000 0.50000 -25.00000
-23.50000 1.00000 -24.00000
-24.00000 0.50000 -24.00000
-23.50000 1.00000 -23.00000
-24.00000 0.50000 -23.00000
-23.50000 1.00000 -22.00000
-24.00000 0.50000 -22.00000
-23.50000 1.00000 -21.00000
-24.00000 0.50000 -21.00000
-23.50000 1.00000 -20.00000
-24.00000 0.50000 -20.00000
-23.50000 1.00000 -19.00000
-24.00000 0.50000 -19.00000
-24.00000 0.50000 -18.00000
-24.00000 0.50000 -17.00000
-24.50000 -14.00000 -11.00000
-25.00000 -13.00000 -12.50000
-25.00000 -13.50000 -12.00000
-24.50000 -13.00000 -11.00000
-25.00000 -13.00000 -11.50000
-25.00000 -12.00000 -13.50000
-25.00000 -12.50000 -13.00000
-24.50000 -12.00000 -11.00000
-25.00000 -12.00000 -11.50000
-24.50000 -11.00000 -15.00000
-25.00000 -11.00000 -14.50000
-25.00000 -11.50000 -14.00000
-25.00000 -11.50000 -11.00000
-25.00000 -11.00000 -10.50000
-25.00000 -10.00000 -17.50000
-25.00000 -10.50000 -17.00000
-25.00000 -10.50000 -16.00000
-25.00000 -10.50000 -15.00000
-25.00000 -10.00000 -10.50000
-25.00000 -9.00000 -19.50000
-25.00000 -9.50000 -19.00000
-25.00000 -9.50000 -18.00000
-25.00000 -9.00000 -10.50000
-25.00000 -8.00000 -21.50000
-25.00000 -8.50000 -21.00000
-25.00000 -8.50000 -20.00000
-25.00000 -8.00000 -10.50000
-25.00000 -7.00000 -23.50000
-25.00000 -7.50000 -23.00000
-25.00000 -7.50000 -22.00000
-25.00000 -7.00000 -10.50000
-25.00000 -6.00000 -27.50000
-25.00000 -6.50000 -27.00000
-25.00000 -6.50000 -26.00000
-25.00000 -6.50000 -25.00000
-25.00000 -6.50000 -24.00000
-24.50000 -6.00000 -11.00000
-25.00000 -6.50000 -11.00000
-25.00000 -6.00000 -11.50000
-25.00000 -5.00000 -28.50000
-25.00000 -5.50000 -28.00000
-25.00000 -5.00000 -11.50000
-25.00000 -4.00000 -30.50000
-25.00000 -4.50000 -30.00000
-25.00000 -4.50000 -29.00000
-25.00000 -4.50000 -12.00000
-25.00000 -4.00000 -12.50000
-25.00000 -3.00000 -30.50000
-25.00000 -3.50000 -13.00000
-25.00000 -3.00000 -13.50000
-25.00000 -2.50000 -30.00000
-24.50000 -2.00000 -30.00000
-25.00000 -2.00000 -29.50000
-25.00000 -2.50000 -14.00000
-25.00000 -2.00000 -14.50000
-24.50000 -1.00000 -29.00000
-25.00000 -1.50000 -29.00000
-25.00000 -1.00000 -28.50000
-25.00000 -1.50000 -15.00000
-25.00000 -1.00000 -15.50000
-24.50000 0.00000 -29.00000
-25.00000 0.00000 -28.50000
-24.50000 0.00000 -17.00000
-25.00000 -0.50000 -17.00000
-25.00000 0.00000 -17.50000
-25.00000 -0.50000 -16.00000
-25.00000 0.50000 -28.00000
-25.00000 0.50000 -27.00000
-25.00000 0.50000 -26.00000
-25.00000 0.50000 -25.00000
-25.00000 0.50000 -24.00000
-25.00000 0.50000 -23.00000
-25.00000 0.50000 -22.00000
-25.00000 0.50000 -21.00000
-25.00000 0.50000 -20.00000
-25.00000 0.50000 -19.00000
-25.00000 0.50000 -18.00000
-25.50000 -14.00000 -12.00000
-26.00000 -14.00000 -12.50000
-26.00000 -14.50000 -12.00000
-26.00000 -14.00000 -11.50000
-25.50000 -13.00000 -13.00000
-26.00000 -13.00000 -13.50000
-26.00000 -13.50000 -13.00000
-26.00000 -13.00000 -11.50000
-26.00000 -12.00000 -13.50000
-26.00000 -12.00000 -11.50000
-25.50000 -11.00000 -15.00000
-26.00000 -11.00000 -15.50000
-26.00000 -11.50000 -15.00000
-26.00000 -11.50000 -14.00000
-25.50000 -11.00000 -11.00000
-26.00000 -11.00000 -11.50000
-25.50000 -10.00000 -17.00000
-26.00000 -10.00000 -16.50000
-26.00000 -10.50000 -16.00000
-25.50000 -10.00000 -11.00000
-26.00000 -10.00000 -11.50000
-26.00000 -9.00000 -19.50000
-26.00000 -9.50000 -19.00000
-26.00000 -9.50000 -18.00000
-26.00000 -9.50000 -17.00000
-25.50000 -9.00000 -11.00000
-26.00000 -9.00000 -11.50000
-26.00000 -8.00000 -21.50000
-26.00000 -8.50000 -21.00000
-26.00000 -8.50000 -20.00000
-25.50000 -8.00000 -11.00000
-26.00000 -8.00000 -11.50000
-25.50000 -7.00000 -24.00000
-26.00000 -7.00000 -24.50000
-26.00000 -7.50000 -24.00000
-26.00000 -7.50000 -23.00000
-26.00000 -7.50000 -22.00000
-26.00000 -7.50000 -11.00000
-26.00000 -7.00000 -10.50000
-26.00000 -6.00000 -27.50000
-26.00000 -6.50000 -27.00000
-26.00000 -6.50000 -26.00000
-26.00000 -6.50000 -25.00000
-26.00000 -6.50000 -11.00000
-26.00000 -6.00000 -11.50000
-25.50000 -5.00000 -29.00000
-26.00000 -5.00000 -29.50000
-26.00000 -5.50000 -29.00000
-26.00000 -5.50000 -28.00000
-25.50000 -5.00000 -12.00000
-26.00000 -5.50000 -12.00000
-26.00000 -5.00000 -12.50000
-25.50000 -4.00000 -30.00000
-26.00000 -4.00000 -29.50000
-26.00000 -4.00000 -12.50000
-25.50000 -3.00000 -30.00000
-26.00000 -3.00000 -29.50000
-26.00000 -3.50000 -13.00000
-26.00000 -3.00000 -13.50000
-26.00000 -2.00000 -29.50000
-26.00000 -2.50000 -14.00000
-26.00000 -2.00000 -14.50000
-26.00000 -1.50000 -29.00000
-26.00000 -1.00000 -28.50000
-25.50000 -1.00000 -16.00000
-26.00000 -1.50000 -16.00000
-26.00000 -1.00000 -16.50000
-26.00000 -1.50000 -15.00000
-26.00000 -0.50000 -28.00000
-25.50000 0.00000 -28.00000
-26.00000 0.00000 -27.50000
-25.50000 0.00000 -22.00000
-26.00000 -0.50000 -22.00000
-26.00000 0.00000 -22.50000
-25.50000 0.00000 -21.00000
-26.00000 -0.50000 -21.00000
-25.50000 0.00000 -20.00000
-26.00000 -0.50000 -20.00000
-25.50000 0.00000 -19.00000
-26.00000 -0.50000 -19.00000
-25.50000 0.00000 -18.00000
-26.00000 -0.50000 -18.00000
-26.00000 -0.50000 -17.00000
-26.00000 0.50000 -27.00000
-26.00000 0.50000 -26.00000
-26.00000 0.50000 -25.00000
-26.00000 0.50000 -24.00000
-26.00000 0.50000 -23.00000
-26.50000 -14.00000 -12.00000
-27.00000 -13.00000 -13.50000
-27.00000 -13.50000 -13.00000
-26.50000 -13.00000 -12.00000
-27.00000 -13.00000 -12.50000
-26.50000 -12.00000 -14.00000
-27.00000 -12.00000 -14.50000
-27.00000 -12.50000 -14.00000
-26.50000 -12.00000 -12.00000
-27.00000 -12.00000 -12.50000
-27.00000 -11.00000 -15.50000
-27.00000 -11.50000 -15.00000
-26.50000 -11.00000 -12.00000
-27.00000 -11.00000 -12.50000
-27.00000 -10.00000 -16.50000
-27.00000 -10.50000 -16.00000
-26.50000 -10.00000 -12.00000
-27.00000 -10.00000 -12.50000
-27.00000 -9.00000 -19.50000
-27.00000 -9.50000 -19.00000
-27.00000 -9.50000 -18.00000
-27.00000 -9.50000 -17.00000
-26.50000 -9.00000 -12.00000
-27.00000 -9.00000 -12.50000
-27.00000 -8.00000 -21.50000
-27.00000 -8.50000 -21.00000
-27.00000 -8.50000 -20.00000
-27.00000 -8.50000 -12.00000
-27.00000 -8.00000 -11.50000
-27.00000 -7.00000 -24.50000
-27.00000 -7.50000 -24.00000
-27.00000 -7.50000 -23.00000
-27.00000 -7.50000 -22.00000
-26.50000 -7.00000 -11.00000
-27.00000 -7.00000 -11.50000
-26.50000 -6.00000 -27.00000
-27.00000 -6.00000 -26.50000
-27.00000 -6.50000 -26.00000
-27.00000 -6.50000 -25.00000
-26.50000 -6.00000 -12.00000
-27.00000 -6.50000 -12.00000
-27.00000 -6.00000 -12.50000
-27.00000 -5.00000 -29.50000
-27.00000 -5.50000 -29.00000
-27.00000 -5.50000 -28.00000
-27.00000 -5.50000 -27.00000
-26.50000 -5.00000 -13.00000
-27.00000 -5.50000 -13.00000
-27.00000 -5.00000 -13.50000
-27.00000 -4.00000 -29.50000
-26.50000 -4.00000 -13.00000
-27.00000 -4.00000 -13.50000
-27.00000 -3.00000 -29.50000
-26.50000 -3.00000 -14.00000
-27.00000 -3.50000 -14.00000
-27.00000 -3.00000 -14.50000
-27.00000 -2.50000 -29.00000
-26.50000 -2.00000 -29.00000
-27.00000 -2.00000 -28.50000
-26.50000 -2.00000 -15.00000
-27.00000 -2.50000 -15.00000
-27.00000 -2.00000 -15.50000
-26.50000 -1.00000 -28.00000
-27.00000 -1.50000 -28.00000
-27.00000 -1.00000 -27.50000
-26.50000 -1.00000 -17.00000
-27.00000 -1.50000 -17.00000
-27.00000 -1.00000 -17.50000
-27.00000 -1.50000 -16.00000
-26.50000 0.00000 -27.00000
-27.00000 -0.50000 -27.00000
-26.50000 0.00000 -26.00000
-27.00000 -0.50000 -26.00000
-26.50000 0.00000 -25.00000
-27.00000 -0.50000 -25.00000
-26.50000 0.00000 -24.00000
-27.00000 -0.50000 -24.00000
-26.50000 0.00000 -23.00000
-27.00000 -0.50000 -23.00000
-27.00000 -0.50000 -22.00000
-27.00000 -0.50000 -21.00000
-27.00000 -0.50000 -20.00000
-27.00000 -0.50000 -19.00000
-27.00000 -0.50000 -18.00000
-27.50000 -13.00000 -13.00000
-28.00000 -12.00000 -14.50000
-28.00000 -12.50000 -14.00000
-27.50000 -12.00000 -13.00000
-28.00000 -12.00000 -13.50000
-28.00000 -11.00000 -15.50000
-28.00000 -11.50000 -15.00000
-28.00000 -11.50000 -13.00000
-28.00000 -11.00000 -12.50000
-28.00000 -10.00000 -16.50000
-28.00000 -10.50000 -16.00000
-28.00000 -10.00000 -12.50000
-27.50000 -9.00000 -19.00000
-27.50000 -9.00000 -18.00000
-28.00000 -9.00000 -17.50000
-28.00000 -9.50000 -17.00000
-28.00000 -9.00000 -12.50000
-28.00000 -8.00000 -21.50000
-28.00000 -8.50000 -21.00000
-28.00000 -8.50000 -20.00000
-28.00000 -8.50000 -19.00000
-28.00000 -8.50000 -18.00000
-27.50000 -8.00000 -12.00000
-28.00000 -8.00000 -12.50000
-27.50000 -7.00000 -25.00000
-28.00000 -7.00000 -25.50000
-28.00000 -7.50000 -25.00000
-28.00000 -7.50000 -24.00000
-28.00000 -7.50000 -23.00000
-28.00000 -7.50000 -22.00000
-27.50000 -7.00000 -12.00000
-28.00000 -7.00000 -12.50000
-28.00000 -6.00000 -26.50000
-28.00000 -6.50000 -26.00000
-27.50000 -6.00000 -13.00000
-28.00000 -6.50000 -13.00000
-28.00000 -6.00000 -13.50000
-27.50000 -5.00000 -29.00000
-28.00000 -5.00000 -28.50000
-28.00000 -5.50000 -28.00000
-28.00000 -5.50000 -27.00000
-27.50000 -5.00000 -14.00000
-28.00000 -5.50000 -14.00000
-28.00000 -5.00000 -14.50000
-27.50000 -4.00000 -29.00000
-28.00000 -4.00000 -28.50000
-27.50000 -4.00000 -14.00000
-28.00000 -4.00000 -14.50000
-27.50000 -3.00000 -29.00000
-28.00000 -3.00000 -28.50000
-28.00000 -3.00000 -14.50000
-28.00000 -2.00000 -28.50000
-28.00000 -2.50000 -15.00000
-28.00000 -2.00000 -15.50000
-28.00000 -1.50000 -28.00000
-27.50000 -1.00000 -27.00000
-28.00000 -1.50000 -27.00000
-28.00000 -1.00000 -26.50000
-27.50000 -1.00000 -18.00000
-28.00000 -1.50000 -18.00000
-28.00000 -1.00000 -18.50000
-28.00000 -1.50000 -17.00000
-28.00000 -1.50000 -16.00000
-28.00000 -0.50000 -26.00000
-28.00000 -0.50000 -25.00000
-28.00000 -0.50000 -24.00000
-28.00000 -0.50000 -23.00000
-28.00000 -0.50000 -22.00000
-28.00000 -0.50000 -21.00000
-28.00000 -0.50000 -20.00000
-28.00000 -0.50000 -19.00000
-28.50000 -12.00000 -14.00000
-29.00000 -11.00000 -15.50000
-29.00000 -11.50000 -15.00000
-29.00000 -11.50000 -14.00000
-28.50000 -11.00000 -13.00000
-29.00000 -11.00000 -13.50000
-29.00000 -10.00000 -16.50000
-29.00000 -10.50000 -16.00000
-28.50000 -10.00000 -13.00000
-29.00000 -10.00000 -13.50000
-29.00000 -9.00000 -17.50000
-29.00000 -9.50000 -17.00000
-28.50000 -9.00000 -13.00000
-29.00000 -9.00000 -13.50000
-28.50000 -8.00000 -22.00000
-29.00000 -8.00000 -22.50000
-29.00000 -8.50000 -22.00000
-29.00000 -8.50000 -21.00000
-29.00000 -8.50000 -20.00000
-29.00000 -8.50000 -19.00000
-29.00000 -8.50000 -18.00000
-28.50000 -8.00000 -13.00000
-29.00000 -8.00000 -13.50000
-28.50000 -7.00000 -25.00000
-29.00000 -7.00000 -24.50000
-29.00000 -7.50000 -24.00000
-29.00000 -7.50000 -23.00000
-28.50000 -7.00000 -14.00000
-29.00000 -7.50000 -14.00000
-29.00000 -7.00000 -14.50000
-28.50000 -7.00000 -13.00000
-29.00000 -6.00000 -26.50000
-29.00000 -6.50000 -26.00000
-29.00000 -6.50000 -25.00000
-28.50000 -6.00000 -14.00000
-29.00000 -6.00000 -14.50000
-29.00000 -5.00000 -28.50000
-29.00000 -5.50000 -28.00000
-29.00000 -5.50000 -27.00000
-29.00000 -5.00000 -14.50000
-29.00000 -4.00000 -28.50000
-29.00000 -4.00000 -14.50000
-29.00000 -3.00000 -28.50000
-28.50000 -3.00000 -15.00000
-29.00000 -3.50000 -15.00000
-29.00000 -3.00000 -15.50000
-29.00000 -2.50000 -28.00000
-28.50000 -2.00000 -28.00000
-29.00000 -2.00000 -27.50000
-28.50000 -2.00000 -16.00000
-29.00000 -2.50000 -16.00000
-29.00000 -2.00000 -16.50000
-29.00000 -1.50000 -27.00000
-28.50000 -1.00000 -26.00000
-29.00000 -1.50000 -26.00000
-29.00000 -1.00000 -25.50000
-28.50000 -1.00000 -21.00000
-29.00000 -1.50000 -21.00000
-29.00000 -1.00000 -21.50000
-28.50000 -1.00000 -20.00000
-29.00000 -1.50000 -20.00000
-28.50000 -1.00000 -19.00000
-29.00000 -1.50000 -19.00000
-29.00000 -1.50000 -18.00000
-29.00000 -1.50000 -17.00000
-29.00000 -0.50000 -25.00000
-29.00000 -0.50000 -24.00000
-29.00000 -0.50000 -23.00000
-29.00000 -0.50000 -22.00000
-29.50000 -11.00000 -16.00000
-30.00000 -11.00000 -16.50000
-30.00000 -11.50000 -16.00000
-30.00000 -11.00000 -15.50000
-29.50000 -11.00000 -15.00000
-29.50000 -11.00000 -14.00000
-29.50000 -10.00000 -16.00000
-30.00000 -10.50000 -16.00000
-29.50000 -10.00000 -15.00000
-29.50000 -10.00000 -14.00000
-30.00000 -9.00000 -17.50000
-30.00000 -9.50000 -17.00000
-30.00000 -9.50000 -16.00000
-30.00000 -9.50000 -15.00000
-30.00000 -9.00000 -14.50000
-29.50000 -9.00000 -14.00000
-30.00000 -8.00000 -22.50000
-30.00000 -8.50000 -22.00000
-29.50000 -8.00000 -21.00000
-30.00000 -8.00000 -21.50000
-30.00000 -8.00000 -20.50000
-30.00000 -8.50000 -20.00000
-30.00000 -8.50000 -19.00000
-30.00000 -8.50000 -18.00000
-29.50000 -8.50000 -17.50000
-30.00000 -8.50000 -17.00000
-29.50000 -8.00000 -17.00000
-30.00000 -8.00000 -17.50000
-30.00000 -8.00000 -16.50000
-29.50000 -8.00000 -14.00000
-30.00000 -8.00000 -14.50000
-30.00000 -7.00000 -24.50000
-30.00000 -7.50000 -24.00000
-30.00000 -7.50000 -23.00000
-30.00000 -7.50000 -21.00000
-29.50000 -7.00000 -17.00000
-30.00000 -7.00000 -17.50000
-30.00000 -7.50000 -16.00000
-29.50000 -7.00000 -16.00000
-29.50000 -7.00000 -15.00000
-30.00000 -7.50000 -15.00000
-29.50000 -6.00000 -27.00000
-30.00000 -6.00000 -27.50000
-30.00000 -6.50000 -27.00000
-30.00000 -6.50000 -26.00000
-30.00000 -6.50000 -25.00000
-30.00000 -6.50000 -17.00000
-30.00000 -6.00000 -16.50000
-29.50000 -6.00000 -16.00000
-29.50000 -6.00000 -15.00000
-29.50000 -5.00000 -28.00000
-30.00000 -5.00000 -27.50000
-30.00000 -5.50000 -16.00000
-30.00000 -5.00000 -15.50000
-29.50000 -5.00000 -15.00000
-29.50000 -4.00000 -28.00000
-30.00000 -4.00000 -27.50000
-29.50000 -4.00000 -15.00000
-30.00000 -4.00000 -15.50000
-29.50000 -3.00000 -28.00000
-30.00000 -3.00000 -27.50000
-30.00000 -3.00000 -15.50000
-29.50000 -2.00000 -27.00000
-30.00000 -2.50000 -27.00000
-29.50000 -2.00000 -26.00000
-30.00000 -2.50000 -26.00000
-30.00000 -2.00000 -25.50000
-29.50000 -2.00000 -17.00000
-30.00000 -2.50000 -17.00000
-30.00000 -2.00000 -17.50000
-30.00000 -2.50000 -16.00000
-29.50000 -1.00000 -25.00000
-30.00000 -1.50000 -25.00000
-29.50000 -1.00000 -24.00000
-30.00000 -1.50000 -24.00000
-30.00000 -1.00000 -23.50000
-29.50000 -1.00000 -22.00000
-30.00000 -1.50000 -22.00000
-30.00000 -1.00000 -22.50000
-30.00000 -1.50000 -21.00000
-30.00000 -1.50000 -20.00000
-30.00000 -1.50000 -19.00000
-30.00000 -1.50000 -18.00000
-30.00000 -0.50000 -23.00000
-30.50000 -11.00000 -16.00000
-30.50000 -9.00000 -17.00000
-30.50000 -9.00000 -16.00000
-30.50000 -9.00000 -15.00000
-30.50000 -8.00000 -22.00000
-31.00000 -8.00000 -20.50000
-31.00000 -8.50000 -20.00000
-30.50000 -8.00000 -19.00000
-31.00000 -8.00000 -19.50000
-30.50000 -8.00000 -18.00000
-30.50000 -8.00000 -16.00000
-30.50000 -8.00000 -15.00000
-30.50000 -7.00000 -24.00000
-31.00000 -7.00000 -23.50000
-31.00000 -7.50000 -23.00000
-31.00000 -7.50000 -22.00000
-31.00000 -7.50000 -21.00000
-30.50000 -7.00000 -19.00000
-31.00000 -7.00000 -19.50000
-30.50000 -7.00000 -18.00000
-30.50000 -6.00000 -27.00000
-31.00000 -6.00000 -26.50000
-31.00000 -6.50000 -26.00000
-31.00000 -6.50000 -25.00000
-31.00000 -6.50000 -24.00000
-30.50000 -6.00000 -19.00000
-31.00000 -6.00000 -19.50000
-30.50000 -6.00000 -18.00000
-30.50000 -6.00000 -17.00000
-30.50000 -5.00000 -27.00000
-31.00000 -5.00000 -26.50000
-31.00000 -5.50000 -19.00000
-31.00000 -5.50000 -18.00000
-31.00000 -5.50000 -17.00000
-30.50000 -5.00000 -16.00000
-31.00000 -5.00000 -16.50000
-30.50000 -4.00000 -27.00000
-31.00000 -4.00000 -26.50000
-30.50000 -4.00000 -16.00000
-31.00000 -4.00000 -16.50000
-30.50000 -3.00000 -27.00000
-31.00000 -3.50000 -26.00000
-30.50000 -3.00000 -26.00000
-30.50000 -3.00000 -25.00000
-31.00000 -3.50000 -25.00000
-31.00000 -3.00000 -24.50000
-30.50000 -3.00000 -16.00000
-31.00000 -3.00000 -16.50000
-30.50000 -2.00000 -25.00000
-31.00000 -2.50000 -24.00000
-30.50000 -2.00000 -24.00000
-31.00000 -2.00000 -23.50000
-30.50000 -2.00000 -19.00000
-31.00000 -2.50000 -19.00000
-31.00000 -2.00000 -19.50000
-30.50000 -2.00000 -18.00000
-31.00000 -2.50000 -18.00000
-31.00000 -2.50000 -17.00000
-30.50000 -1.00000 -23.00000
-31.00000 -1.50000 -23.00000
-31.00000 -1.50000 -22.00000
-31.00000 -1.50000 -21.00000
-31.00000 -1.50000 -20.00000
-31.50000 -8.00000 -20.00000
-31.50000 -7.00000 -23.00000
-31.50000 -7.00000 -22.00000
-31.50000 -7.00000 -21.00000
-31.50000 -7.00000 -20.00000
-31.50000 -6.00000 -26.00000
-32.00000 -6.00000 -25.50000
-32.00000 -6.50000 -25.00000
-32.00000 -6.50000 -24.00000
-32.00000 -6.50000 -23.00000
-32.00000 -6.00000 -22.50000
-31.50000 -6.00000 -22.00000
-31.50000 -6.00000 -21.00000
-31.50000 -6.00000 -20.00000
-31.50000 -5.00000 -26.00000
-32.00000 -5.50000 -25.00000
-31.50000 -5.00000 -25.00000
-31.50000 -5.00000 -24.00000
-32.00000 -5.50000 -24.00000
-31.50000 -5.00000 -23.00000
-32.00000 -5.50000 -23.00000
-32.00000 -5.50000 -22.00000
-32.00000 -5.00000 -22.50000
-32.00000 -5.50000 -21.00000
-32.00000 -5.50000 -20.00000
-32.00000 -5.50000 -19.00000
-31.50000 -5.00000 -18.00000
-32.00000 -5.00000 -18.50000
-31.50000 -5.00000 -17.00000
-31.50000 -4.00000 -26.00000
-31.50000 -4.00000 -25.00000
-31.50000 -4.00000 -24.00000
-31.50000 -4.00000 -23.00000
-32.00000 -4.50000 -22.00000
-31.50000 -4.00000 -22.00000
-32.00000 -4.00000 -21.50000
-32.00000 -4.50000 -18.00000
-32.00000 -4.00000 -17.50000
-31.50000 -4.00000 -17.00000
-31.50000 -3.00000 -24.00000
-31.50000 -3.00000 -23.00000
-32.00000 -3.00000 -22.50000
-32.00000 -3.50000 -22.00000
-31.50000 -3.00000 -18.00000
-32.00000 -3.50000 -18.00000
-32.00000 -3.00000 -18.50000
-31.50000 -3.00000 -17.00000
-31.50000 -2.00000 -23.00000
-32.00000 -2.50000 -22.00000
-31.50000 -2.00000 -22.00000
-31.50000 -2.00000 -21.00000
-32.00000 -2.50000 -21.00000
-31.50000 -2.00000 -20.00000
-32.00000 -2.50000 -20.00000
-32.00000 -2.50000 -19.00000
-32.50000 -6.00000 -25.00000
-32.50000 -6.00000 -24.00000
-32.50000 -6.00000 -23.00000
-32.50000 -5.00000 -22.00000
-32.50000 -5.00000 -21.00000
-32.50000 -5.00000 -20.00000
-32.50000 -5.00000 -19.00000
-32.50000 -4.00000 -21.00000
-32.50000 -4.00000 -20.00000
-32.50000 -4.00000 -19.00000
-32.50000 -4.00000 -18.00000
-32.50000 -3.00000 -22.00000
-32.50000 -3.00000 -21.00000
-32.50000 -3.00000 -20.00000
-32.50000 -3.00000 -19.00000
3 2 1 0
3 0 3 2
3 1 4 0
3 0 4 3
3 7 6 5
3 5 8 7
3 10 9 2
3 2 9 1
3 12 11 3
3 11 2 3
3 11 10 2
3 14 13 12
3 13 5 12
3 6 11 12
3 6 12 5
3 5 13 8
3 17 16 15
3 19 18 15
3 15 18 17
3 19 20 4
3 9 19 4
3 1 9 4
3 19 9 18
3 20 21 4
3 4 21 3
3 21 22 3
3 22 12 3
3 12 22 14
3 16 23 15
3 25 24 23
3 24 15 23
3 24 19 15
3 27 20 26
3 20 24 26
3 20 19 24
3 20 27 21
3 25 28 24
3 24 28 26
3 31 30 29
3 29 32 31
3 34 33 7
3 7 33 6
3 36 35 8
3 35 7 8
3 35 34 7
3 38 37 36
3 37 29 36
3 30 35 36
3 30 36 29
3 29 37 32
3 40 39 10
3 10 39 9
3 41 10 11
3 41 40 10
3 33 42 6
3 33 13 42
3 13 33 43
3 41 43 33
3 43 41 14
3 42 14 41
3 41 11 42
3 42 11 6
3 13 14 42
3 43 44 13
3 13 44 8
3 44 45 8
3 45 36 8
3 36 45 38
3 47 46 17
3 17 46 16
3 48 17 18
3 48 47 17
3 18 9 39
3 18 39 48
3 21 49 22
3 43 14 22
3 49 43 22
3 50 43 49
3 44 43 51
3 51 43 50
3 54 53 52
3 56 55 52
3 52 55 54
3 56 57 23
3 46 56 23
3 16 46 23
3 56 46 55
3 57 25 23
3 26 58 27
3 49 21 27
3 58 49 27
3 59 49 58
3 61 50 60
3 50 59 60
3 50 49 59
3 50 61 51
3 53 62 52
3 64 63 62
3 63 52 62
3 63 56 52
3 56 65 57
3 56 63 65
3 66 28 25
3 57 66 25
3 65 66 57
3 58 26 28
3 66 58 28
3 67 58 66
3 69 59 68
3 59 67 68
3 59 58 67
3 59 69 60
3 64 70 63
3 63 70 65
3 65 70 71
3 65 71 66
3 66 71 72
3 66 72 67
3 67 72 73
3 67 73 68
3 76 75 74
3 74 77 76
3 80 79 78
3 30 31 78
3 31 80 78
3 31 81 80
3 82 74 32
3 74 81 32
3 81 31 32
3 74 75 81
3 77 74 83
3 83 74 82
3 86 85 84
3 33 34 84
3 34 86 84
3 34 87 86
3 35 78 79
3 87 35 79
3 34 35 87
3 30 78 35
3 37 38 88
3 88 89 37
3 37 89 32
3 89 90 32
3 90 82 32
3 82 90 83
3 93 92 91
3 39 40 91
3 40 93 91
3 40 94 93
3 41 84 85
3 94 41 85
3 40 41 94
3 84 41 33
3 44 95 45
3 88 38 45
3 95 88 45
3 96 88 95
3 89 88 97
3 97 88 96
3 99 98 47
3 47 98 46
3 48 91 92
3 99 48 92
3 47 48 99
3 91 48 39
3 51 100 95
3 51 95 44
3 102 96 101
3 96 100 101
3 96 95 100
3 96 102 97
3 105 104 103
3 53 54 103
3 54 105 103
3 54 106 105
3 107 54 55
3 107 106 54
3 55 46 98
3 55 98 107
3 60 108 61
3 108 109 61
3 61 109 51
3 109 110 51
3 110 100 51
3 100 110 101
3 103 104 111
3 111 104 112
3 113 62 53
3 103 113 53
3 111 113 103
3 113 64 62
3 68 114 69
3 114 115 69
3 69 115 60
3 115 116 60
3 116 108 60
3 108 116 109
3 112 117 111
3 119 118 117
3 118 111 117
3 118 113 111
3 120 70 64
3 113 120 64
3 118 120 113
3 121 71 70
3 121 70 120
3 122 72 71
3 122 71 121
3 123 73 72
3 123 72 122
3 123 124 73
3 73 124 68
3 124 125 68
3 125 114 68
3 114 125 115
3 119 126 118
3 128 127 126
3 127 118 126
3 127 120 118
3 130 121 129
3 121 127 129
3 121 120 127
3 121 130 122
3 122 130 131
3 122 131 123
3 123 131 132
3 123 132 124
3 128 133 127
3 127 133 129
3 136 135 134
3 75 76 134
3 76 136 134
3 76 137 136
3 139 138 77
3 138 76 77
3 138 137 76
3 139 140 138
3 143 142 141
3 79 80 141
3 80 143 141
3 80 144 143
3 81 134 135
3 144 81 135
3 80 81 144
3 134 81 75
3 83 145 139
3 83 139 77
3 140 139 146
3 146 139 145
3 148 147 86
3 86 147 85
3 87 141 142
3 148 87 142
3 86 87 148
3 141 87 79
3 89 149 90
3 145 83 90
3 149 145 90
3 150 145 149
3 146 145 151
3 151 145 150
3 153 152 93
3 93 152 92
3 154 93 94
3 154 153 93
3 94 85 147
3 94 147 154
3 97 155 149
3 97 149 89
3 149 156 150
3 149 155 156
3 151 150 157
3 157 150 156
3 160 159 158
3 98 99 158
3 99 160 158
3 99 161 160
3 99 92 152
3 99 152 161
3 101 162 102
3 155 97 102
3 162 155 102
3 163 155 162
3 165 156 164
3 156 163 164
3 156 155 163
3 156 165 157
3 167 166 105
3 105 166 104
3 168 105 106
3 168 167 105
3 107 158 159
3 168 107 159
3 106 107 168
3 158 107 98
3 109 169 110
3 162 101 110
3 169 162 110
3 170 162 169
3 172 163 171
3 163 170 171
3 163 162 170
3 163 172 164
3 166 112 104
3 173 112 166
3 115 174 116
3 169 109 116
3 174 169 116
3 175 169 174
3 177 170 176
3 170 175 176
3 170 169 175
3 170 177 171
3 117 112 178
3 112 179 178
3 112 173 179
3 178 119 117
3 124 180 125
3 174 115 125
3 180 174 125
3 181 174 180
3 183 175 182
3 175 181 182
3 175 174 181
3 175 183 176
3 179 184 178
3 184 186 185
3 184 185 126
3 178 184 126
3 119 178 126
3 185 128 126
3 129 187 130
3 188 131 130
3 188 130 187
3 189 132 131
3 189 131 188
3 189 190 132
3 132 190 124
3 190 191 124
3 191 180 124
3 180 191 181
3 181 191 192
3 181 192 182
3 186 193 185
3 185 193 128
3 193 133 128
3 193 194 133
3 129 133 187
3 133 195 187
3 133 194 195
3 187 195 188
3 188 195 196
3 188 196 189
3 189 196 197
3 189 197 190
3 200 199 198
3 202 201 198
3 198 201 200
3 204 203 202
3 202 203 201
3 204 205 203
3 208 207 206
3 135 136 206
3 136 208 206
3 136 209 208
3 137 198 199
3 209 137 199
3 136 137 209
3 198 137 138
3 198 138 202
3 202 138 140
3 210 202 140
3 204 202 210
3 205 204 211
3 211 204 210
3 213 212 143
3 143 212 142
3 144 206 207
3 213 144 207
3 143 144 213
3 206 144 135
3 146 214 210
3 146 210 140
3 211 210 215
3 215 210 214
3 217 216 148
3 148 216 147
3 148 142 212
3 148 212 217
3 151 218 214
3 151 214 146
3 215 214 219
3 219 214 218
3 221 220 153
3 153 220 152
3 222 153 154
3 222 221 153
3 154 147 216
3 154 216 222
3 157 223 218
3 157 218 151
3 219 218 224
3 224 218 223
3 227 226 225
3 159 160 225
3 160 227 225
3 160 228 227
3 229 160 161
3 229 228 160
3 161 152 220
3 161 220 229
3 164 230 165
3 230 231 165
3 165 231 157
3 231 232 157
3 232 223 157
3 223 232 224
3 234 233 167
3 167 233 166
3 168 225 226
3 234 168 226
3 167 168 234
3 225 168 159
3 171 235 172
3 235 236 172
3 172 236 164
3 236 237 164
3 237 230 164
3 230 237 231
3 233 173 166
3 238 173 233
3 176 239 177
3 239 240 177
3 177 240 171
3 240 241 171
3 241 235 171
3 235 241 236
3 238 179 173
3 242 179 238
3 182 243 183
3 243 244 183
3 183 244 176
3 244 245 176
3 245 239 176
3 239 245 240
3 184 179 246
3 179 247 246
3 179 242 247
3 246 186 184
3 190 248 191
3 191 248 249
3 250 191 249
3 192 191 250
3 182 192 243
3 192 251 243
3 192 250 251
3 243 251 244
3 247 252 246
3 252 254 253
3 252 253 193
3 246 252 193
3 186 246 193
3 255 194 193
3 255 193 253
3 256 195 194
3 256 194 255
3 257 196 195
3 257 195 256
3 196 257 258
3 259 196 258
3 197 196 259
3 190 197 248
3 197 260 248
3 197 259 260
3 248 260 249
3 254 261 253
3 253 261 255
3 255 261 262
3 255 262 256
3 256 262 263
3 256 263 257
3 257 263 264
3 257 264 258
3 267 266 265
3 265 268 267
3 271 270 269
3 199 200 269
3 200 271 269
3 200 272 271
3 273 200 201
3 273 272 200
3 274 201 203
3 274 273 201
3 275 265 205
3 265 274 205
3 274 203 205
3 265 266 274
3 268 265 276
3 276 265 275
3 279 278 277
3 207 208 277
3 208 279 277
3 208 280 279
3 209 269 270
3 280 209 270
3 208 209 280
3 269 209 199
3 211 281 275
3 211 275 205
3 276 275 282
3 282 275 281
3 285 284 283
3 285 283 278
3 278 283 277
3 283 212 277
3 212 213 277
3 277 213 207
3 215 286 281
3 215 281 211
3 282 281 287
3 287 281 286
3 290 289 288
3 290 288 284
3 284 288 283
3 288 216 283
3 216 217 283
3 283 217 212
3 219 291 286
3 219 286 215
3 287 286 292
3 292 286 291
3 295 294 293
3 220 221 293
3 221 295 293
3 221 296 295
3 222 288 289
3 296 222 289
3 221 222 296
3 288 222 216
3 224 297 291
3 224 291 219
3 292 291 298
3 298 291 297
3 301 300 299
3 226 227 299
3 227 301 299
3 227 302 301
3 303 227 228
3 303 302 227
3 229 293 294
3 303 229 294
3 228 229 303
3 293 229 220
3 305 304 232
3 305 232 231
3 224 232 297
3 232 306 297
3 232 304 306
3 297 306 298
3 299 300 234
3 300 233 234
3 300 307 233
3 299 234 226
3 236 308 237
3 308 309 237
3 309 231 237
3 309 305 231
3 307 238 233
3 310 238 307
3 240 311 241
3 311 312 241
3 241 312 236
3 312 313 236
3 313 308 236
3 308 313 309
3 310 242 238
3 314 242 310
3 244 315 245
3 315 316 245
3 245 316 240
3 316 317 240
3 317 311 240
3 311 317 312
3 314 247 242
3 318 247 314
3 249 319 250
3 250 319 320
3 321 250 320
3 251 250 321
3 244 251 315
3 251 322 315
3 251 321 322
3 315 322 316
3 318 323 247
3 247 323 252
3 254 252 323
3 254 323 324
3 258 325 259
3 259 325 326
3 327 259 326
3 260 259 327
3 249 260 319
3 260 328 319
3 260 327 328
3 319 328 320
3 324 329 254
3 254 329 261
3 329 331 330
3 262 329 330
3 261 329 262
3 332 263 262
3 332 262 330
3 263 332 333
3 334 263 333
3 264 263 334
3 258 264 325
3 264 335 325
3 264 334 335
3 325 335 326
3 331 336 330
3 330 336 332
3 332 336 337
3 332 337 333
3 340 339 338
3 342 341 338
3 338 341 340
3 344 343 342
3 342 343 341
3 266 267 344
3 267 343 344
3 267 345 343
3 267 268 345
3 345 268 346
3 349 348 347
3 270 271 347
3 271 349 347
3 271 350 349
3 272 338 339
3 350 272 339
3 271 272 350
3 338 272 273
3 338 273 342
3 342 273 274
3 342 274 344
3 344 274 266
3 276 352 351
3 346 276 351
3 268 276 346
3 352 353 351
3 355 354 279
3 279 354 278
3 280 347 348
3 355 280 348
3 279 280 355
3 347 280 270
3 282 356 352
3 282 352 276
3 353 352 357
3 357 352 356
3 359 358 285
3 285 358 284
3 285 278 354
3 285 354 359
3 287 360 356
3 287 356 282
3 357 356 361
3 361 356 360
3 363 362 290
3 290 362 289
3 290 284 358
3 290 358 363
3 292 364 360
3 292 360 287
3 361 360 365
3 365 360 364
3 367 366 295
3 295 366 294
3 368 295 296
3 368 367 295
3 296 289 362
3 296 362 368
3 298 369 364
3 298 364 292
3 365 364 370
3 370 364 369
3 373 372 371
3 300 301 371
3 301 373 371
3 301 374 373
3 375 301 302
3 375 374 301
3 376 302 303
3 376 375 302
3 303 294 366
3 303 366 376
3 305 377 304
3 304 377 378
3 379 304 378
3 306 304 379
3 298 306 369
3 306 380 369
3 306 379 380
3 369 380 370
3 371 372 381
3 381 372 382
3 381 307 300
3 381 300 371
3 384 383 377
3 305 384 377
3 309 384 305
3 377 383 378
3 381 382 385
3 385 382 386
3 385 310 307
3 385 307 381
3 388 387 313
3 388 313 312
3 309 313 384
3 384 313 387
3 386 389 385
3 310 385 389
3 390 310 389
3 314 310 390
3 392 391 317
3 392 317 316
3 312 317 388
3 388 317 391
3 390 318 314
3 393 318 390
3 395 394 321
3 395 321 320
3 321 396 322
3 394 396 321
3 316 322 392
3 392 322 396
3 393 397 318
3 318 397 323
3 399 398 324
3 323 399 324
3 397 399 323
3 400 398 399
3 326 401 327
3 327 401 402
3 403 327 402
3 328 327 403
3 320 328 395
3 395 328 403
3 398 329 324
3 405 404 331
3 405 331 329
3 400 405 329
3 398 400 329
3 406 404 405
3 333 407 334
3 334 407 408
3 409 334 408
3 335 334 409
3 326 335 401
3 335 410 401
3 335 409 410
3 401 410 402
3 404 336 331
3 406 411 404
3 411 336 404
3 411 337 336
3 333 337 407
3 337 412 407
3 337 411 412
3 407 412 408
3 415 414 413
3 339 340 413
3 340 415 413
3 340 416 415
3 417 340 341
3 417 416 340
3 418 341 343
3 418 417 341
3 419 343 345
3 419 418 343
3 421 420 346
3 420 345 346
3 420 419 345
3 421 422 420
3 424 423 349
3 349 423 348
3 350 413 414
3 424 350 414
3 349 350 424
3 413 350 339
3 351 421 346
3 351 353 421
3 353 422 421
3 353 425 422
3 427 426 355
3 355 426 354
3 355 348 423
3 355 423 427
3 357 425 353
3 357 428 425
3 430 429 359
3 359 429 358
3 359 354 426
3 359 426 430
3 361 428 357
3 361 431 428
3 434 433 432
3 362 363 432
3 363 434 432
3 363 435 434
3 363 358 429
3 363 429 435
3 365 437 436
3 431 365 436
3 361 365 431
3 437 438 436
3 441 440 439
3 366 367 439
3 367 441 439
3 367 442 441
3 368 432 433
3 442 368 433
3 367 368 442
3 432 368 362
3 444 443 437
3 365 444 437
3 370 444 365
3 437 443 438
3 447 446 445
3 372 373 445
3 373 447 445
3 373 448 447
3 449 373 374
3 449 448 373
3 450 374 375
3 450 449 374
3 376 439 440
3 450 376 440
3 375 376 450
3 439 376 366
3 378 451 379
3 379 451 452
3 453 379 452
3 380 379 453
3 370 380 444
3 444 380 453
3 445 446 454
3 454 446 455
3 454 382 372
3 454 372 445
3 384 456 383
3 456 457 383
3 383 457 378
3 457 458 378
3 458 451 378
3 451 458 452
3 454 455 459
3 459 455 460
3 459 386 382
3 459 382 454
3 388 461 387
3 461 462 387
3 387 462 384
3 462 463 384
3 463 456 384
3 456 463 457
3 460 464 459
3 464 466 465
3 464 465 389
3 459 464 389
3 386 459 389
3 465 390 389
3 468 467 391
3 468 391 392
3 388 391 461
3 391 469 461
3 391 467 469
3 461 469 462
3 466 470 465
3 390 465 470
3 471 390 470
3 393 390 471
3 395 472 394
3 394 472 473
3 474 394 473
3 396 394 474
3 392 396 468
3 468 396 474
3 471 475 393
3 393 475 397
3 475 477 476
3 399 475 476
3 397 475 399
3 476 400 399
3 479 478 403
3 479 403 402
3 395 403 472
3 403 480 472
3 403 478 480
3 472 480 473
3 477 481 476
3 476 481 400
3 481 405 400
3 481 482 405
3 406 405 482
3 406 482 483
3 485 484 409
3 485 409 408
3 409 486 410
3 484 486 409
3 402 410 479
3 479 410 486
3 483 487 406
3 406 487 411
3 411 488 412
3 487 488 411
3 408 412 485
3 485 412 488
3 491 490 489
3 493 492 489
3 489 492 491
3 495 494 493
3 493 494 492
3 497 496 495
3 495 496 494
3 497 498 496
3 500 499 415
3 415 499 414
3 501 415 416
3 501 500 415
3 417 489 490
3 501 417 490
3 416 417 501
3 489 417 418
3 489 418 493
3 493 418 419
3 493 419 495
3 495 419 420
3 495 420 497
3 420 422 497
3 422 498 497
3 422 502 498
3 504 503 424
3 424 503 423
3 424 414 499
3 424 499 504
3 425 506 505
3 502 425 505
3 422 425 502
3 506 507 505
3 510 509 508
3 426 427 508
3 427 510 508
3 427 511 510
3 427 423 503
3 427 503 511
3 428 512 506
3 428 506 425
3 507 506 513
3 513 506 512
3 516 515 514
3 516 514 509
3 509 514 508
3 514 429 508
3 429 430 508
3 508 430 426
3 431 517 512
3 431 512 428
3 513 512 518
3 518 512 517
3 520 519 434
3 434 519 433
3 435 514 515
3 520 435 515
3 434 435 520
3 514 435 429
3 436 517 431
3 436 438 517
3 438 518 517
3 438 521 518
3 523 522 441
3 441 522 440
3 524 441 442
3 524 523 441
3 442 433 519
3 442 519 524
3 526 525 443
3 526 443 444
3 438 443 521
3 521 443 525
3 528 527 447
3 447 527 446
3 529 447 448
3 529 528 447
3 530 448 449
3 530 529 448
3 531 449 450
3 531 530 449
3 450 440 522
3 450 522 531
3 452 532 453
3 532 533 453
3 533 444 453
3 533 526 444
3 536 535 534
3 527 536 534
3 455 527 534
3 446 527 455
3 538 537 458
3 538 458 457
3 452 458 532
3 458 539 532
3 458 537 539
3 532 539 533
3 535 540 534
3 455 534 540
3 541 455 540
3 460 455 541
3 543 542 463
3 543 463 462
3 457 463 538
3 538 463 542
3 464 460 544
3 460 545 544
3 460 541 545
3 544 466 464
3 468 546 467
3 467 546 547
3 548 467 547
3 469 467 548
3 462 469 543
3 543 469 548
3 545 549 544
3 549 551 550
3 549 550 470
3 544 549 470
3 466 544 470
3 550 471 470
3 553 552 474
3 553 474 473
3 468 474 546
3 474 554 546
3 474 552 554
3 546 554 547
3 551 555 550
3 550 555 471
3 555 475 471
3 555 556 475
3 477 475 556
3 477 556 557
3 479 558 478
3 478 558 559
3 560 478 559
3 480 478 560
3 473 480 553
3 553 480 560
3 557 561 477
3 477 561 481
3 481 562 482
3 561 562 481
3 564 563 483
3 482 564 483
3 562 564 482
3 566 565 563
3 566 563 564
3 484 485 565
3 566 484 565
3 567 484 566
3 484 568 486
3 567 568 484
3 479 486 558
3 486 569 558
3 486 568 569
3 558 569 559
3 563 487 483
3 487 563 488
3 488 563 565
3 488 565 485
3 571 570 491
3 491 570 490
3 572 491 492
3 572 571 491
3 573 492 494
3 573 572 492
3 574 494 496
3 574 573 494
3 496 498 574
3 574 498 575
3 577 576 500
3 500 576 499
3 578 500 501
3 578 577 500
3 501 490 570
3 501 570 578
3 502 580 579
3 575 502 579
3 498 502 575
3 580 581 579
3 584 583 582
3 503 504 582
3 504 584 582
3 504 585 584
3 504 499 576
3 504 576 585
3 505 580 502
3 505 507 580
3 507 581 580
3 507 586 581
3 588 587 510
3 510 587 509
3 511 582 583
3 588 511 583
3 510 511 588
3 582 511 503
3 513 586 507
3 513 589 586
3 591 590 516
3 516 590 515
3 516 509 587
3 516 587 591
3 518 589 513
3 518 592 589
3 594 593 520
3 520 593 519
3 520 515 590
3 520 590 594
3 521 592 518
3 521 595 592
3 598 597 596
3 600 599 596
3 596 599 598
3 602 601 600
3 600 601 599
3 604 603 602
3 602 603 601
3 606 605 604
3 604 605 603
3 522 523 606
3 523 605 606
3 523 607 605
3 608 523 524
3 608 607 523
3 524 519 593
3 524 593 608
3 610 609 525
3 610 525 526
3 521 525 595
3 595 525 609
3 596 597 611
3 611 597 612
3 611 527 528
3 600 611 528
3 596 611 600
3 600 528 529
3 600 529 602
3 602 529 530
3 602 530 604
3 604 530 531
3 604 531 606
3 606 531 522
3 615 614 613
3 614 610 613
3 610 533 613
3 610 526 533
3 611 612 536
3 612 535 536
3 612 616 535
3 611 536 527
3 538 617 537
3 618 615 613
3 537 618 613
3 539 537 613
3 618 537 617
3 539 613 533
3 540 535 619
3 535 620 619
3 535 616 620
3 619 541 540
3 622 621 542
3 622 542 543
3 538 542 617
3 542 623 617
3 542 621 623
3 617 623 618
3 620 624 619
3 541 619 624
3 625 541 624
3 545 541 625
3 627 626 548
3 627 548 547
3 543 548 622
3 622 548 626
3 549 545 628
3 545 629 628
3 545 625 629
3 628 551 549
3 553 630 552
3 552 630 631
3 632 552 631
3 554 552 632
3 547 554 627
3 627 554 632
3 629 633 628
3 628 633 551
3 633 555 551
3 633 634 555
3 634 636 635
3 556 634 635
3 555 634 556
3 635 557 556
3 638 637 560
3 638 560 559
3 553 560 630
3 560 639 630
3 560 637 639
3 630 639 631
3 636 640 635
3 635 640 557
3 640 561 557
3 640 641 561
3 561 642 562
3 641 642 561
3 562 643 564
3 642 643 562
3 564 644 566
3 643 644 564
3 566 645 567
3 644 645 566
3 567 646 568
3 645 646 567
3 568 647 569
3 646 647 568
3 559 569 638
3 638 569 647
3 650 649 648
3 652 651 648
3 648 651 650
3 654 653 652
3 652 653 651
3 654 655 653
3 657 656 571
3 571 656 570
3 658 571 572
3 658 657 571
3 573 648 649
3 658 573 649
3 572 573 658
3 648 573 574
3 648 574 652
3 652 574 575
3 659 652 575
3 654 652 659
3 655 654 660
3 660 654 659
3 662 661 577
3 577 661 576
3 663 577 578
3 663 662 577
3 578 570 656
3 578 656 663
3 579 659 575
3 579 581 659
3 581 660 659
3 581 664 660
3 666 665 584
3 584 665 583
3 667 584 585
3 667 666 584
3 585 576 661
3 585 661 667
3 586 669 668
3 664 586 668
3 581 586 664
3 669 670 668
3 672 671 588
3 588 671 587
3 588 583 665
3 588 665 672
3 674 673 669
3 586 674 669
3 589 674 586
3 669 673 670
3 676 675 591
3 591 675 590
3 591 587 671
3 591 671 676
3 592 674 589
3 592 677 674
3 680 679 678
3 593 594 678
3 594 680 678
3 594 681 680
3 594 590 675
3 594 675 681
3 595 677 592
3 595 682 677
3 684 683 598
3 598 683 597
3 685 598 599
3 685 684 598
3 686 599 601
3 686 685 599
3 687 601 603
3 687 686 601
3 688 603 605
3 688 687 603
3 689 605 607
3 689 688 605
3 608 678 679
3 689 608 679
3 607 608 689
3 678 608 593
3 691 690 609
3 691 609 610
3 595 609 682
3 682 609 690
3 694 693 692
3 683 694 692
3 612 683 692
3 597 683 612
3 696 695 614
3 696 614 615
3 610 614 691
3 691 614 695
3 692 693 697
3 697 693 698
3 697 616 612
3 697 612 692
3 618 696 615
3 618 699 696
3 697 698 700
3 700 698 701
3 700 620 616
3 700 616 697
3 703 702 621
3 703 621 622
3 621 704 623
3 702 704 621
3 618 623 699
3 699 623 704
3 701 705 700
3 705 707 706
3 705 706 624
3 700 705 624
3 620 700 624
3 706 625 624
3 709 708 626
3 709 626 627
3 622 626 703
3 703 626 708
3 707 710 706
3 625 706 710
3 711 625 710
3 629 625 711
3 714 713 712
3 632 631 712
3 713 632 712
3 715 632 713
3 627 632 709
3 709 632 715
3 711 716 629
3 629 716 633
3 716 718 717
3 634 716 717
3 633 716 634
3 717 636 634
3 720 719 637
3 720 637 638
3 712 639 714
3 639 719 714
3 639 637 719
3 639 712 631
3 718 721 717
3 717 721 636
3 721 640 636
3 721 722 640
3 640 723 641
3 722 723 640
3 641 724 642
3 723 724 641
3 642 725 643
3 724 725 642
3 643 726 644
3 725 726 643
3 644 727 645
3 726 727 644
3 645 728 646
3 727 728 645
3 646 729 647
3 728 729 646
3 638 647 720
3 720 647 729
3 732 731 730
3 730 733 732
3 735 734 650
3 650 734 649
3 736 650 651
3 736 735 650
3 653 730 731
3 736 653 731
3 651 653 736
3 653 655 730
3 655 733 730
3 655 737 733
3 739 738 657
3 657 738 656
3 740 657 658
3 740 739 657
3 658 649 734
3 658 734 740
3 660 737 655
3 660 741 737
3 744 743 742
3 661 662 742
3 662 744 742
3 662 745 744
3 746 662 663
3 746 745 662
3 663 656 738
3 663 738 746
3 664 748 747
3 741 664 747
3 660 664 741
3 748 749 747
3 751 750 666
3 666 750 665
3 667 742 743
3 751 667 743
3 666 667 751
3 742 667 661
3 668 748 664
3 668 670 748
3 670 749 748
3 670 752 749
3 754 753 672
3 672 753 671
3 672 665 750
3 672 750 754
3 756 755 673
3 756 673 674
3 670 673 752
3 752 673 755
3 759 758 757
3 675 676 757
3 676 759 757
3 676 760 759
3 676 671 753
3 676 753 760
3 677 756 674
3 677 761 756
3 764 763 762
3 679 680 762
3 680 764 762
3 680 765 764
3 681 757 758
3 765 681 758
3 680 681 765
3 757 681 675
3 682 761 677
3 682 766 761
3 769 768 767
3 767 683 769
3 683 684 769
3 771 770 769
3 771 769 684
3 771 684 772
3 684 773 772
3 684 685 773
3 774 685 686
3 774 773 685
3 775 686 687
3 775 774 686
3 776 687 688
3 776 775 687
3 689 762 763
3 776 689 763
3 688 689 776
3 762 689 679
3 778 777 690
3 778 690 691
3 682 690 766
3 766 690 777
3 767 768 694
3 768 693 694
3 768 779 693
3 771 780 770
3 683 767 694
3 780 771 772
3 782 781 695
3 782 695 696
3 691 695 778
3 778 695 781
3 785 784 783
3 779 785 783
3 698 779 783
3 693 779 698
3 699 782 696
3 699 786 782
3 784 787 783
3 698 783 787
3 788 698 787
3 701 698 788
3 790 789 702
3 790 702 703
3 702 791 704
3 789 791 702
3 699 704 786
3 786 704 791
3 705 701 792
3 701 793 792
3 701 788 793
3 792 707 705
3 795 794 708
3 795 708 709
3 703 708 790
3 790 708 794
3 793 796 792
3 796 798 797
3 796 797 710
3 792 796 710
3 707 792 710
3 797 711 710
3 714 799 713
3 713 799 800
3 801 713 800
3 715 713 801
3 709 715 795
3 795 715 801
3 798 802 797
3 797 802 711
3 802 716 711
3 802 803 716
3 718 716 803
3 718 803 804
3 806 805 719
3 806 719 720
3 714 719 799
3 719 807 799
3 719 805 807
3 799 807 800
3 804 808 718
3 718 808 721
3 721 809 722
3 808 809 721
3 722 810 723
3 809 810 722
3 723 811 724
3 810 811 723
3 724 812 725
3 811 812 724
3 725 813 726
3 812 813 725
3 726 814 727
3 813 814 726
3 727 815 728
3 814 815 727
3 728 816 729
3 815 816 728
3 720 729 806
3 806 729 816
3 819 818 817
3 731 732 817
3 732 819 817
3 732 820 819
3 732 733 820
3 820 733 821
3 823 822 735
3 735 822 734
3 736 817 818
3 823 736 818
3 735 736 823
3 817 736 731
3 737 821 733
3 737 824 821
3 826 825 739
3 739 825 738
3 827 739 740
3 827 826 739
3 740 734 822
3 740 822 827
3 741 824 737
3 741 828 824
3 830 829 744
3 744 829 743
3 831 744 745
3 831 830 744
3 832 745 746
3 832 831 745
3 746 738 825
3 746 825 832
3 741 747 833
3 834 741 833
3 828 741 834
3 749 833 747
3 836 835 751
3 751 835 750
3 751 743 829
3 751 829 836
3 834 833 837
3 834 837 838
3 752 837 749
3 749 837 833
3 841 840 839
3 753 754 839
3 754 841 839
3 754 842 841
3 754 750 835
3 754 835 842
3 838 837 755
3 756 838 755
3 843 838 756
3 755 837 752
3 845 844 759
3 759 844 758
3 760 839 840
3 845 760 840
3 759 760 845
3 839 760 753
3 761 843 756
3 761 846 843
3 849 848 847
3 763 764 847
3 764 849 847
3 764 850 849
3 851 764 765
3 851 850 764
3 765 758 844
3 765 844 851
3 766 846 761
3 766 852 846
3 853 768 769
3 770 853 769
3 855 854 773
3 773 854 772
3 856 773 774
3 856 855 773
3 857 774 775
3 857 856 774
3 776 847 848
3 857 776 848
3 775 776 857
3 847 776 763
3 859 858 777
3 859 777 778
3 766 777 852
3 852 777 858
3 861 860 853
3 860 768 853
3 860 779 768
3 861 853 770
3 780 861 770
3 862 861 780
3 780 772 854
3 780 854 862
3 864 863 781
3 864 781 782
3 778 781 859
3 859 781 863
3 865 784 785
3 866 865 785
3 779 866 785
3 860 866 779
3 869 868 867
3 868 864 867
3 864 786 867
3 864 782 786
3 865 787 784
3 788 787 865
3 866 788 865
3 870 788 866
3 872 871 789
3 872 789 790
3 867 791 869
3 791 871 869
3 791 789 871
3 791 867 786
3 870 793 788
3 873 793 870
3 875 874 794
3 875 794 795
3 790 794 872
3 872 794 874
3 873 876 793
3 793 876 796
3 798 796 876
3 798 876 877
3 879 878 801
3 879 801 800
3 795 801 875
3 875 801 878
3 877 880 798
3 798 880 802
3 802 881 803
3 880 881 802
3 883 882 804
3 803 883 804
3 881 883 803
3 884 882 883
3 886 885 805
3 886 805 806
3 805 887 807
3 885 887 805
3 800 807 879
3 879 807 887
3 882 808 804
3 884 888 882
3 888 808 882
3 888 809 808
3 809 889 810
3 888 889 809
3 810 890 811
3 889 890 810
3 811 891 812
3 890 891 811
3 812 892 813
3 891 892 812
3 813 893 814
3 892 893 813
3 814 894 815
3 893 894 814
3 815 895 816
3 894 895 815
3 806 816 886
3 886 816 895
3 898 897 896
3 896 899 898
3 901 900 819
3 819 900 818
3 820 896 897
3 901 820 897
3 819 820 901
3 820 821 896
3 821 899 896
3 821 902 899
3 904 903 823
3 823 903 822
3 823 818 900
3 823 900 904
3 824 902 821
3 824 905 902
3 907 906 826
3 826 906 825
3 908 826 827
3 908 907 826
3 827 822 903
3 827 903 908
3 828 905 824
3 828 909 905
3 910 829 830
3 910 830 911
3 830 912 911
3 830 831 912
3 913 831 832
3 913 912 831
3 832 825 906
3 832 906 913
3 834 909 828
3 834 914 909
3 916 915 836
3 836 915 835
3 836 829 910
3 917 836 910
3 916 836 917
3 917 910 911
3 838 914 834
3 838 918 914
3 920 919 841
3 841 919 840
3 921 841 842
3 921 920 841
3 842 835 915
3 842 915 921
3 843 918 838
3 843 922 918
3 925 924 923
3 844 845 923
3 845 925 923
3 845 926 925
3 845 840 919
3 845 919 926
3 846 922 843
3 846 927 922
3 930 929 928
3 932 931 928
3 928 931 930
3 848 849 932
3 849 931 932
3 849 933 931
3 934 849 850
3 934 933 849
3 851 923 924
3 934 851 924
3 850 851 934
3 923 851 844
3 852 927 846
3 852 935 927
3 937 936 855
3 855 936 854
3 856 928 929
3 937 856 929
3 855 856 937
3 928 856 857
3 928 857 932
3 932 857 848
3 939 938 858
3 939 858 859
3 852 858 935
3 935 858 938
3 941 940 861
3 861 940 860
3 942 861 862
3 942 941 861
3 862 854 936
3 862 936 942
3 944 943 863
3 944 863 864
3 859 863 939
3 939 863 943
3 940 866 860
3 945 866 940
3 947 946 868
3 947 868 869
3 864 868 944
3 944 868 946
3 945 870 866
3 948 870 945
3 950 949 871
3 950 871 872
3 869 871 947
3 947 871 949
3 952 873 951
3 873 948 951
3 873 870 948
3 953 952 951
3 955 954 874
3 955 874 875
3 872 874 950
3 950 874 954
3 952 876 873
3 877 876 952
3 953 877 952
3 956 877 953
3 958 957 878
3 958 878 879
3 875 878 955
3 955 878 957
3 956 959 877
3 877 959 880
3 880 960 881
3 959 960 880
3 881 961 883
3 960 961 881
3 963 962 884
3 883 963 884
3 961 963 883
3 965 964 962
3 965 962 963
3 967 966 964
3 967 964 965
3 969 968 966
3 969 966 967
3 971 970 968
3 971 968 969
3 973 972 970
3 973 970 971
3 975 974 972
3 975 972 973
3 977 976 974
3 977 974 975
3 885 886 976
3 977 885 976
3 978 885 977
3 885 979 887
3 978 979 885
3 879 887 958
3 958 887 979
3 962 888 884
3 888 962 889
3 889 962 964
3 889 964 890
3 890 964 966
3 890 966 891
3 891 966 968
3 891 968 892
3 892 968 970
3 892 970 893
3 893 970 972
3 893 972 894
3 894 972 974
3 894 974 895
3 895 974 976
3 895 976 886
3 980 897 898
3 899 980 898
3 982 981 901
3 901 981 900
3 982 901 897
3 983 982 897
3 980 983 897
3 982 983 984
3 902 983 899
3 899 983 980
3 986 985 904
3 904 985 903
3 904 900 981
3 904 981 986
3 984 983 987
3 984 987 988
3 905 987 902
3 902 987 983
3 989 906 907
3 989 907 990
3 907 991 990
3 907 908 991
3 908 903 985
3 908 985 991
3 992 988 987
3 987 905 992
3 905 993 992
3 905 909 993
3 995 994 912
3 912 994 911
3 996 912 913
3 996 995 912
3 913 906 989
3 997 913 989
3 996 913 997
3 997 989 990
3 914 993 909
3 914 998 993
3 1000 999 916
3 916 999 915
3 1001 916 917
3 1001 1000 916
3 917 911 994
3 917 994 1001
3 918 998 914
3 918 1002 998
3 1004 1003 920
3 920 1003 919
3 1005 920 921
3 1005 1004 920
3 921 915 999
3 921 999 1005
3 922 1002 918
3 922 1006 1002
3 1008 1007 925
3 925 1007 924
3 1009 925 926
3 1009 1008 925
3 926 919 1003
3 926 1003 1009
3 927 1006 922
3 927 1010 1006
3 1012 1011 930
3 930 1011 929
3 1013 930 931
3 1013 1012 930
3 1014 931 933
3 1014 1013 931
3 1015 933 934
3 1015 1014 933
3 934 924 1007
3 934 1007 1015
3 1018 1017 1016
3 1017 1010 1016
3 1010 935 1016
3 1010 927 935
3 1020 1019 937
3 937 1019 936
3 937 929 1011
3 937 1011 1020
3 1018 1016 938
3 939 1018 938
3 1021 1018 939
3 938 1016 935
3 1023 1022 941
3 941 1022 940
3 1024 941 942
3 1024 1023 941
3 942 936 1019
3 942 1019 1024
3 1026 1025 943
3 1026 943 944
3 939 943 1021
3 1021 943 1025
3 1022 945 940
3 1027 945 1022
3 1029 1028 946
3 1029 946 947
3 944 946 1026
3 1026 946 1028
3 1031 948 1030
3 948 1027 1030
3 948 945 1027
3 1032 1031 1030
3 1034 1033 949
3 1034 949 950
3 947 949 1029
3 1029 949 1033
3 1031 951 948
3 1036 1035 953
3 1036 953 951
3 1032 1036 951
3 1031 1032 951
3 1037 1035 1036
3 1039 1038 954
3 1039 954 955
3 950 954 1034
3 1034 954 1038
3 1040 956 1035
3 1035 956 953
3 1035 1037 1041
3 1035 1041 1040
3 1044 1043 1042
3 957 958 1042
3 1043 957 1042
3 1045 957 1043
3 955 957 1039
3 1039 957 1045
3 1040 959 956
3 1041 1046 1040
3 1046 959 1040
3 1046 960 959
3 960 1047 961
3 1046 1047 960
3 961 1048 963
3 1047 1048 961
3 963 1049 965
3 1048 1049 963
3 965 1050 967
3 1049 1050 965
3 967 1051 969
3 1050 1051 967
3 969 1052 971
3 1051 1052 969
3 971 1053 973
3 1052 1053 971
3 973 1054 975
3 1053 1054 973
3 975 1055 977
3 1054 1055 975
3 977 1056 978
3 1055 1056 977
3 1042 979 1044
3 979 1056 1044
3 979 978 1056
3 979 1042 958
3 1059 1058 1057
3 1057 1060 1059
3 1063 1062 1061
3 1063 1061 1058
3 1058 1061 1057
3 1061 981 1057
3 981 982 1057
3 982 984 1057
3 984 1060 1057
3 984 1064 1060
3 1061 1062 986
3 1062 985 986
3 1062 1065 985
3 1061 986 981
3 988 1064 984
3 988 1066 1064
3 1069 1068 1067
3 990 991 1067
3 991 1069 1067
3 991 1070 1069
3 991 985 1065
3 991 1065 1070
3 988 992 1071
3 1072 988 1071
3 1066 988 1072
3 993 1071 992
3 1073 994 995
3 1073 995 1074
3 995 1075 1074
3 995 996 1075
3 997 1067 1068
3 1075 997 1068
3 996 997 1075
3 1067 997 990
3 1072 1071 1076
3 1072 1076 1077
3 998 1076 993
3 993 1076 1071
3 1079 1078 1000
3 1000 1078 999
3 1080 1000 1001
3 1080 1079 1000
3 1001 994 1073
3 1081 1001 1073
3 1080 1001 1081
3 1081 1073 1074
3 1077 1076 1082
3 1077 1082 1083
3 1002 1082 998
3 998 1082 1076
3 1085 1084 1004
3 1004 1084 1003
3 1086 1004 1005
3 1086 1085 1004
3 1005 999 1078
3 1005 1078 1086
3 1083 1082 1087
3 1083 1087 1088
3 1006 1087 1002
3 1002 1087 1082
3 1091 1090 1089
3 1007 1008 1089
3 1008 1091 1089
3 1008 1092 1091
3 1093 1008 1009
3 1093 1092 1008
3 1009 1003 1084
3 1009 1084 1093
3 1094 1088 1087
3 1087 1006 1094
3 1006 1095 1094
3 1006 1010 1095
3 1097 1096 1012
3 1012 1096 1011
3 1098 1012 1013
3 1098 1097 1012
3 1099 1013 1014
3 1099 1098 1013
3 1015 1089 1090
3 1099 1015 1090
3 1014 1015 1099
3 1089 1015 1007
3 1101 1100 1017
3 1101 1017 1018
3 1010 1017 1095
3 1095 1017 1100
3 1104 1103 1102
3 1019 1020 1102
3 1020 1104 1102
3 1020 1105 1104
3 1020 1011 1096
3 1020 1096 1105
3 1108 1107 1106
3 1107 1101 1106
3 1101 1021 1106
3 1101 1018 1021
3 1109 1022 1023
3 1103 1110 1102
3 1110 1023 1102
3 1023 1024 1102
3 1023 1110 1109
3 1102 1024 1019
3 1108 1106 1025
3 1026 1108 1025
3 1111 1108 1026
3 1025 1106 1021
3 1112 1027 1109
3 1109 1027 1022
3 1109 1110 1113
3 1109 1113 1112
3 1115 1114 1028
3 1115 1028 1029
3 1026 1028 1111
3 1111 1028 1114
3 1112 1030 1027
3 1032 1030 1112
3 1113 1032 1112
3 1116 1032 1113
3 1118 1117 1033
3 1118 1033 1034
3 1029 1033 1115
3 1115 1033 1117
3 1116 1119 1032
3 1032 1119 1036
3 1037 1036 1119
3 1037 1119 1120
3 1123 1122 1121
3 1038 1039 1121
3 1122 1038 1121
3 1124 1038 1122
3 1034 1038 1118
3 1118 1038 1124
3 1126 1041 1125
3 1041 1120 1125
3 1041 1037 1120
3 1127 1126 1125
3 1130 1129 1128
3 1132 1131 1128
3 1132 1128 1129
3 1134 1133 1131
3 1134 1131 1132
3 1136 1135 1133
3 1136 1133 1134
3 1138 1137 1135
3 1138 1135 1136
3 1043 1044 1137
3 1138 1043 1137
3 1139 1043 1138
3 1121 1045 1123
3 1045 1139 1123
3 1045 1043 1139
3 1045 1121 1039
3 1126 1046 1041
3 1127 1140 1126
3 1140 1046 1126
3 1140 1047 1046
3 1047 1141 1048
3 1140 1141 1047
3 1048 1142 1049
3 1141 1142 1048
3 1049 1143 1050
3 1142 1143 1049
3 1050 1144 1051
3 1143 1144 1050
3 1128 1052 1130
3 1052 1144 1130
3 1052 1051 1144
3 1052 1128 1053
3 1053 1128 1131
3 1053 1131 1054
3 1054 1131 1133
3 1054 1133 1055
3 1055 1133 1135
3 1055 1135 1056
3 1056 1135 1137
3 1056 1137 1044
3 1145 1058 1059
3 1060 1145 1059
3 1147 1146 1063
3 1063 1146 1062
3 1147 1063 1058
3 1148 1147 1058
3 1145 1148 1058
3 1147 1148 1149
3 1064 1148 1060
3 1060 1148 1145
3 1152 1151 1150
3 1146 1152 1150
3 1065 1146 1150
3 1062 1146 1065
3 1149 1148 1153
3 1149 1153 1154
3 1066 1153 1064
3 1064 1153 1148
3 1156 1155 1069
3 1069 1155 1068
3 1070 1150 1151
3 1156 1070 1151
3 1069 1070 1156
3 1150 1070 1065
3 1154 1153 1157
3 1154 1157 1158
3 1072 1157 1066
3 1066 1157 1153
3 1160 1159 1075
3 1075 1159 1074
3 1075 1068 1155
3 1075 1155 1160
3 1158 1157 1161
3 1158 1161 1162
3 1077 1161 1072
3 1072 1161 1157
3 1164 1163 1079
3 1079 1163 1078
3 1165 1079 1080
3 1165 1164 1079
3 1166 1080 1081
3 1166 1165 1080
3 1081 1074 1159
3 1081 1159 1166
3 1162 1161 1167
3 1162 1167 1168
3 1083 1167 1077
3 1077 1167 1161
3 1170 1169 1085
3 1085 1169 1084
3 1171 1085 1086
3 1171 1170 1085
3 1086 1078 1163
3 1086 1163 1171
3 1172 1168 1167
3 1167 1083 1172
3 1083 1173 1172
3 1083 1088 1173
3 1175 1174 1091
3 1091 1174 1090
3 1176 1091 1092
3 1176 1175 1091
3 1177 1092 1093
3 1177 1176 1092
3 1093 1084 1169
3 1093 1169 1177
3 1088 1094 1178
3 1179 1088 1178
3 1173 1088 1179
3 1095 1178 1094
3 1180 1096 1097
3 1180 1097 1181
3 1097 1182 1181
3 1097 1098 1182
3 1183 1098 1099
3 1183 1182 1098
3 1099 1090 1174
3 1099 1174 1183
3 1186 1185 1184
3 1184 1185 1179
3 1184 1179 1178
3 1101 1184 1178
3 1100 1101 1178
3 1100 1178 1095
3 1188 1187 1104
3 1104 1187 1103
3 1189 1104 1105
3 1189 1188 1104
3 1105 1096 1180
3 1190 1105 1180
3 1189 1105 1190
3 1190 1180 1181
3 1193 1192 1191
3 1191 1192 1186
3 1191 1186 1184
3 1108 1191 1184
3 1107 1108 1184
3 1107 1184 1101
3 1187 1110 1103
3 1194 1110 1187
3 1193 1191 1195
3 1193 1195 1196
3 1111 1195 1108
3 1108 1195 1191
3 1194 1113 1110
3 1197 1113 1194
3 1200 1199 1198
3 1198 1199 1196
3 1198 1196 1195
3 1115 1198 1195
3 1114 1115 1195
3 1114 1195 1111
3 1202 1116 1201
3 1116 1197 1201
3 1116 1113 1197
3 1203 1202 1201
3 1206 1205 1204
3 1204 1205 1200
3 1204 1200 1198
3 1118 1204 1198
3 1117 1118 1198
3 1117 1198 1115
3 1202 1119 1116
3 1208 1207 1120
3 1208 1120 1119
3 1203 1208 1119
3 1202 1203 1119
3 1209 1207 1208
3 1212 1211 1210
3 1122 1123 1210
3 1211 1122 1210
3 1213 1122 1211
3 1204 1124 1206
3 1124 1213 1206
3 1124 1122 1213
3 1124 1204 1118
3 1207 1125 1120
3 1215 1214 1127
3 1215 1127 1125
3 1209 1215 1125
3 1207 1209 1125
3 1217 1216 1214
3 1217 1214 1215
3 1219 1218 1216
3 1219 1216 1217
3 1221 1220 1218
3 1221 1218 1219
3 1223 1222 1220
3 1223 1220 1221
3 1129 1130 1222
3 1223 1129 1222
3 1224 1129 1223
3 1129 1225 1132
3 1224 1225 1129
3 1132 1226 1134
3 1225 1226 1132
3 1134 1227 1136
3 1226 1227 1134
3 1136 1228 1138
3 1227 1228 1136
3 1210 1139 1212
3 1139 1228 1212
3 1139 1138 1228
3 1139 1210 1123
3 1214 1140 1127
3 1140 1214 1141
3 1141 1214 1216
3 1141 1216 1142
3 1142 1216 1218
3 1142 1218 1143
3 1143 1218 1220
3 1143 1220 1144
3 1144 1220 1222
3 1144 1222 1130
3 1229 1146 1147
3 1149 1229 1147
3 1231 1230 1152
3 1152 1230 1151
3 1231 1152 1146
3 1232 1231 1146
3 1229 1232 1146
3 1231 1232 1233
3 1154 1232 1149
3 1149 1232 1229
3 1235 1234 1156
3 1156 1234 1155
3 1156 1151 1230
3 1156 1230 1235
3 1236 1233 1232
3 1232 1154 1236
3 1154 1237 1236
3 1154 1158 1237
3 1239 1238 1160
3 1160 1238 1159
3 1160 1155 1234
3 1160 1234 1239
3 1162 1237 1158
3 1162 1240 1237
3 1241 1163 1164
3 1165 1242 1164
3 1164 1242 1241
3 1242 1165 1243
3 1165 1244 1243
3 1165 1166 1244
3 1166 1159 1238
3 1166 1238 1244
3 1168 1240 1162
3 1168 1245 1240
3 1247 1246 1170
3 1170 1246 1169
3 1248 1170 1171
3 1248 1247 1170
3 1171 1163 1241
3 1249 1171 1241
3 1248 1171 1249
3 1249 1241 1242
3 1249 1242 1250
3 1250 1242 1243
3 1168 1172 1251
3 1252 1168 1251
3 1245 1168 1252
3 1173 1251 1172
3 1255 1254 1253
3 1174 1175 1253
3 1175 1255 1253
3 1175 1256 1255
3 1257 1175 1176
3 1257 1256 1175
3 1258 1176 1177
3 1258 1257 1176
3 1177 1169 1246
3 1177 1246 1258
3 1252 1251 1259
3 1252 1259 1260
3 1179 1259 1173
3 1173 1259 1251
3 1262 1261 1182
3 1182 1261 1181
3 1183 1253 1254
3 1262 1183 1254
3 1182 1183 1262
3 1253 1183 1174
3 1265 1264 1263
3 1263 1264 1260
3 1263 1260 1259
3 1186 1263 1259
3 1185 1186 1259
3 1185 1259 1179
3 1266 1187 1188
3 1266 1188 1267
3 1188 1268 1267
3 1188 1189 1268
3 1269 1189 1190
3 1269 1268 1189
3 1190 1181 1261
3 1190 1261 1269
3 1272 1271 1270
3 1270 1271 1265
3 1270 1265 1263
3 1193 1270 1263
3 1192 1193 1263
3 1192 1263 1186
3 1273 1194 1266
3 1266 1194 1187
3 1266 1267 1274
3 1266 1274 1273
3 1272 1270 1275
3 1272 1275 1276
3 1196 1275 1193
3 1193 1275 1270
3 1277 1197 1273
3 1273 1197 1194
3 1273 1274 1278
3 1273 1278 1277
3 1276 1275 1199
3 1200 1276 1199
3 1279 1276 1200
3 1199 1275 1196
3 1277 1201 1197
3 1203 1201 1277
3 1278 1203 1277
3 1280 1203 1278
3 1282 1281 1205
3 1282 1205 1206
3 1200 1205 1279
3 1279 1205 1281
3 1280 1283 1203
3 1203 1283 1208
3 1285 1284 1209
3 1208 1285 1209
3 1283 1285 1208
3 1286 1284 1285
3 1289 1288 1287
3 1211 1212 1287
3 1288 1211 1287
3 1290 1211 1288
3 1211 1291 1213
3 1290 1291 1211
3 1206 1213 1282
3 1282 1213 1291
3 1284 1215 1209
3 1286 1292 1284
3 1292 1215 1284
3 1292 1217 1215
3 1217 1293 1219
3 1292 1293 1217
3 1219 1294 1221
3 1293 1294 1219
3 1221 1295 1223
3 1294 1295 1221
3 1223 1296 1224
3 1295 1296 1223
3 1224 1297 1225
3 1296 1297 1224
3 1225 1298 1226
3 1297 1298 1225
3 1226 1299 1227
3 1298 1299 1226
3 1287 1228 1289
3 1228 1299 1289
3 1228 1227 1299
3 1228 1287 1212
3 1300 1230 1231
3 1233 1300 1231
3 1302 1301 1235
3 1235 1301 1234
3 1235 1230 1300
3 1303 1235 1300
3 1302 1235 1303
3 1305 1303 1304
3 1304 1303 1236
3 1303 1300 1236
3 1300 1233 1236
3 1237 1304 1236
3 1307 1306 1239
3 1239 1306 1238
3 1239 1234 1301
3 1239 1301 1307
3 1305 1304 1308
3 1305 1308 1309
3 1240 1308 1237
3 1237 1308 1304
3 1311 1310 1244
3 1244 1310 1243
3 1244 1238 1306
3 1244 1306 1311
3 1309 1308 1312
3 1309 1312 1313
3 1245 1312 1240
3 1240 1312 1308
3 1316 1315 1314
3 1246 1247 1314
3 1247 1316 1314
3 1247 1317 1316
3 1318 1247 1248
3 1318 1317 1247
3 1319 1248 1249
3 1319 1318 1248
3 1320 1249 1250
3 1320 1319 1249
3 1250 1243 1310
3 1250 1310 1320
3 1313 1312 1321
3 1313 1321 1322
3 1252 1321 1245
3 1245 1321 1312
3 1323 1254 1255
3 1323 1255 1324
3 1255 1325 1324
3 1255 1256 1325
3 1326 1256 1257
3 1326 1325 1256
3 1258 1314 1315
3 1326 1258 1315
3 1257 1258 1326
3 1314 1258 1246
3 1329 1328 1327
3 1327 1328 1322
3 1321 1327 1322
3 1330 1327 1321
3 1260 1330 1252
3 1252 1330 1321
3 1332 1331 1262
3 1262 1331 1261
3 1262 1254 1323
3 1333 1262 1323
3 1332 1262 1333
3 1333 1323 1324
3 1329 1327 1334
3 1329 1334 1335
3 1265 1334 1264
3 1334 1330 1264
3 1334 1327 1330
3 1264 1330 1260
3 1337 1336 1268
3 1268 1336 1267
3 1338 1268 1269
3 1338 1337 1268
3 1269 1261 1331
3 1269 1331 1338
3 1335 1334 1271
3 1272 1335 1271
3 1339 1335 1272
3 1271 1334 1265
3 1336 1274 1267
3 1340 1274 1336
3 1276 1339 1272
3 1276 1341 1339
3 1340 1278 1274
3 1342 1278 1340
3 1345 1344 1343
3 1344 1341 1343
3 1341 1279 1343
3 1341 1276 1279
3 1347 1280 1346
3 1280 1342 1346
3 1280 1278 1342
3 1348 1347 1346
3 1351 1350 1349
3 1349 1350 1345
3 1349 1345 1343
3 1282 1349 1343
3 1281 1282 1343
3 1281 1343 1279
3 1347 1283 1280
3 1348 1352 1347
3 1352 1283 1347
3 1352 1285 1283
3 1354 1353 1286
3 1285 1354 1286
3 1352 1354 1285
3 1355 1353 1354
3 1358 1357 1356
3 1360 1359 1356
3 1360 1356 1357
3 1362 1361 1359
3 1362 1359 1360
3 1288 1289 1361
3 1362 1288 1361
3 1363 1288 1362
3 1288 1364 1290
3 1363 1364 1288
3 1349 1291 1351
3 1291 1364 1351
3 1291 1290 1364
3 1291 1349 1282
3 1353 1292 1286
3 1355 1365 1353
3 1365 1292 1353
3 1365 1293 1292
3 1293 1366 1294
3 1365 1366 1293
3 1294 1367 1295
3 1366 1367 1294
3 1295 1368 1296
3 1367 1368 1295
3 1356 1297 1358
3 1297 1368 1358
3 1297 1296 1368
3 1297 1356 1298
3 1298 1356 1359
3 1298 1359 1299
3 1299 1359 1361
3 1299 1361 1289
3 1371 1370 1369
3 1369 1301 1371
3 1301 1302 1371
3 1373 1372 1371
3 1373 1371 1302
3 1303 1374 1302
3 1302 1374 1373
3 1305 1374 1303
3 1376 1375 1370
3 1375 1306 1370
3 1307 1369 1370
3 1307 1370 1306
3 1369 1307 1301
3 1376 1372 1375
3 1373 1375 1372
3 1375 1373 1377
3 1378 1373 1374
3 1377 1373 1378
3 1309 1378 1305
3 1305 1378 1374
3 1380 1379 1311
3 1311 1379 1310
3 1311 1306 1375
3 1381 1311 1375
3 1380 1311 1381
3 1381 1375 1377
3 1381 1377 1382
3 1384 1383 1382
3 1377 1384 1382
3 1378 1384 1377
3 1313 1384 1309
3 1309 1384 1378
3 1386 1385 1316
3 1316 1385 1315
3 1388 1386 1387
3 1386 1317 1387
3 1386 1316 1317
3 1387 1317 1389
3 1317 1390 1389
3 1317 1318 1390
3 1391 1318 1319
3 1391 1390 1318
3 1392 1319 1320
3 1392 1391 1319
3 1379 1393 1310
3 1393 1394 1310
3 1395 1310 1394
3 1310 1395 1320
3 1396 1320 1395
3 1320 1396 1393
3 1393 1392 1320
3 1379 1392 1393
3 1393 1396 1394
3 1397 1395 1394
3 1383 1384 1398
3 1383 1398 1399
3 1322 1398 1313
3 1313 1398 1384
3 1401 1400 1325
3 1325 1400 1324
3 1402 1325 1326
3 1402 1401 1325
3 1326 1315 1385
3 1326 1385 1402
3 1403 1388 1387
3 1403 1387 1389
3 1396 1395 1404
3 1396 1404 1405
3 1395 1397 1406
3 1407 1395 1406
3 1404 1395 1407
3 1409 1408 1407
3 1409 1407 1406
3 1408 1409 1399
3 1408 1399 1398
3 1329 1408 1398
3 1328 1329 1398
3 1328 1398 1322
3 1412 1411 1410
3 1331 1332 1410
3 1332 1412 1410
3 1332 1413 1412
3 1414 1332 1333
3 1414 1413 1332
3 1333 1324 1400
3 1333 1400 1414
3 1415 1405 1404
3 1417 1416 1415
3 1404 1417 1415
3 1407 1417 1404
3 1418 1407 1408
3 1417 1407 1418
3 1335 1418 1329
3 1329 1418 1408
3 1419 1336 1337
3 1411 1420 1410
3 1420 1337 1410
3 1337 1338 1410
3 1337 1420 1419
3 1410 1338 1331
3 1421 1416 1417
3 1423 1422 1421
3 1417 1423 1421
3 1418 1423 1417
3 1339 1423 1335
3 1335 1423 1418
3 1424 1340 1419
3 1419 1340 1336
3 1419 1420 1425
3 1419 1425 1424
3 1422 1423 1426
3 1422 1426 1427
3 1341 1426 1339
3 1339 1426 1423
3 1428 1342 1424
3 1424 1342 1340
3 1424 1425 1429
3 1424 1429 1428
3 1427 1426 1344
3 1345 1427 1344
3 1430 1427 1345
3 1344 1426 1341
3 1428 1346 1342
3 1432 1431 1348
3 1432 1348 1346
3 1429 1432 1346
3 1428 1429 1346
3 1434 1433 1431
3 1434 1431 1432
3 1435 1433 1434
3 1438 1437 1436
3 1350 1351 1436
3 1437 1350 1436
3 1439 1350 1437
3 1345 1350 1430
3 1430 1350 1439
3 1431 1352 1348
3 1352 1431 1354
3 1354 1431 1433
3 1441 1440 1355
3 1441 1355 1354
3 1435 1441 1354
3 1433 1435 1354
3 1443 1442 1440
3 1443 1440 1441
3 1444 1442 1443
3 1447 1446 1445
3 1357 1358 1445
3 1446 1357 1445
3 1448 1357 1446
3 1357 1449 1360
3 1448 1449 1357
3 1360 1450 1362
3 1449 1450 1360
3 1362 1451 1363
3 1450 1451 1362
3 1436 1364 1438
3 1364 1451 1438
3 1364 1363 1451
3 1364 1436 1351
3 1440 1365 1355
3 1365 1440 1366
3 1366 1440 1442
3 1444 1452 1442
3 1452 1366 1442
3 1452 1367 1366
3 1445 1368 1447
3 1368 1452 1447
3 1368 1367 1452
3 1368 1445 1358
3 1453 1370 1371
3 1372 1453 1371
3 1453 1376 1370
3 1376 1453 1372
3 1454 1379 1380
3 1381 1455 1380
3 1380 1455 1454
3 1382 1456 1381
3 1381 1456 1455
3 1383 1456 1382
3 1457 1385 1386
3 1388 1457 1386
3 1459 1458 1390
3 1390 1458 1389
3 1461 1459 1460
3 1459 1391 1460
3 1459 1390 1391
3 1392 1462 1391
3 1391 1462 1460
3 1392 1379 1462
3 1379 1454 1462
3 1394 1396 1462
3 1394 1462 1454
3 1394 1454 1397
3 1454 1463 1397
3 1454 1455 1463
3 1464 1455 1456
3 1463 1455 1464
3 1399 1464 1383
3 1383 1464 1456
3 1465 1400 1401
3 1465 1401 1466
3 1401 1467 1466
3 1401 1402 1467
3 1402 1385 1457
3 1468 1402 1457
3 1467 1402 1468
3 1468 1457 1388
3 1403 1468 1388
3 1469 1468 1403
3 1403 1389 1458
3 1403 1458 1469
3 1461 1460 1470
3 1461 1470 1471
3 1472 1460 1462
3 1470 1460 1472
3 1405 1472 1396
3 1396 1472 1462
3 1463 1406 1397
3 1406 1463 1409
3 1409 1463 1464
3 1409 1464 1399
3 1473 1411 1412
3 1473 1412 1474
3 1412 1475 1474
3 1412 1413 1475
3 1476 1413 1414
3 1476 1475 1413
3 1414 1400 1465
3 1477 1414 1465
3 1476 1414 1477
3 1477 1465 1466
3 1471 1470 1478
3 1471 1478 1479
3 1480 1470 1472
3 1478 1470 1480
3 1415 1481 1405
3 1481 1472 1405
3 1481 1480 1472
3 1416 1481 1415
3 1482 1420 1473
3 1473 1420 1411
3 1473 1474 1483
3 1473 1483 1482
3 1484 1479 1478
3 1484 1478 1480
3 1484 1480 1485
3 1485 1480 1481
3 1485 1481 1486
3 1488 1486 1487
3 1487 1486 1421
3 1486 1481 1421
3 1481 1416 1421
3 1422 1487 1421
3 1489 1425 1482
3 1482 1425 1420
3 1482 1483 1490
3 1482 1490 1489
3 1488 1487 1491
3 1488 1491 1492
3 1427 1491 1422
3 1422 1491 1487
3 1493 1429 1489
3 1489 1429 1425
3 1489 1490 1494
3 1495 1489 1494
3 1493 1489 1495
3 1497 1496 1495
3 1497 1495 1494
3 1498 1496 1497
3 1492 1491 1499
3 1492 1499 1500
3 1430 1499 1427
3 1427 1499 1491
3 1493 1432 1429
3 1432 1493 1434
3 1434 1493 1495
3 1434 1495 1435
3 1495 1501 1435
3 1495 1496 1501
3 1496 1498 1502
3 1503 1496 1502
3 1501 1496 1503
3 1504 1503 1502
3 1507 1506 1505
3 1509 1508 1505
3 1509 1505 1506
3 1437 1438 1508
3 1509 1437 1508
3 1510 1437 1509
3 1499 1439 1500
3 1439 1510 1500
3 1439 1437 1510
3 1439 1499 1430
3 1501 1441 1435
3 1441 1501 1443
3 1443 1501 1503
3 1512 1511 1444
3 1512 1444 1443
3 1504 1512 1443
3 1503 1504 1443
3 1446 1447 1511
3 1512 1446 1511
3 1513 1446 1512
3 1446 1514 1448
3 1513 1514 1446
3 1448 1515 1449
3 1514 1515 1448
3 1505 1450 1507
3 1450 1515 1507
3 1450 1449 1515
3 1450 1505 1451
3 1451 1505 1508
3 1451 1508 1438
3 1511 1452 1444
3 1452 1511 1447
3 1516 1458 1459
3 1461 1516 1459
3 1517 1466 1467
3 1468 1518 1467
3 1467 1518 1517
3 1469 1519 1468
3 1468 1519 1518
3 1458 1516 1469
3 1516 1519 1469
3 1516 1520 1519
3 1471 1520 1461
3 1461 1520 1516
3 1521 1474 1475
3 1521 1475 1522
3 1475 1523 1522
3 1475 1476 1523
3 1524 1476 1477
3 1524 1523 1476
3 1477 1466 1517
3 1525 1477 1517
3 1524 1477 1525
3 1527 1526 1525
3 1517 1527 1525
3 1518 1527 1517
3 1528 1518 1519
3 1527 1518 1528
3 1529 1519 1520
3 1528 1519 1529
3 1479 1529 1471
3 1471 1529 1520
3 1530 1483 1521
3 1521 1483 1474
3 1521 1522 1531
3 1532 1521 1531
3 1530 1521 1532
3 1534 1533 1532
3 1534 1532 1531
3 1536 1535 1533
3 1536 1533 1534
3 1526 1527 1537
3 1536 1538 1535
3 1537 1527 1528
3 1537 1528 1539
3 1539 1528 1529
3 1539 1529 1540
3 1540 1529 1479
3 1484 1540 1479
3 1541 1540 1484
3 1543 1541 1542
3 1541 1485 1542
3 1541 1484 1485
3 1486 1544 1485
3 1485 1544 1542
3 1488 1544 1486
3 1545 1490 1530
3 1530 1490 1483
3 1546 1530 1532
3 1545 1530 1546
3 1547 1532 1533
3 1546 1532 1547
3 1548 1533 1535
3 1547 1533 1548
3 1535 1538 1549
3 1550 1535 1549
3 1548 1535 1550
3 1551 1550 1549
3 1552 1543 1542
3 1554 1553 1552
3 1542 1554 1552
3 1544 1554 1542
3 1492 1554 1488
3 1488 1554 1544
3 1545 1494 1490
3 1494 1545 1497
3 1497 1545 1546
3 1497 1546 1498
3 1546 1555 1498
3 1546 1547 1555
3 1556 1547 1548
3 1555 1547 1556
3 1550 1558 1557
3 1556 1550 1557
3 1548 1550 1556
3 1558 1550 1551
3 1561 1560 1559
3 1559 1560 1553
3 1554 1559 1553
3 1562 1559 1554
3 1500 1562 1492
3 1492 1562 1554
3 1555 1502 1498
3 1502 1555 1504
3 1555 1563 1504
3 1555 1556 1563
3 1556 1557 1564
3 1565 1556 1564
3 1563 1556 1565
3 1567 1566 1565
3 1567 1565 1564
3 1569 1568 1566
3 1569 1566 1567
3 1506 1507 1568
3 1569 1506 1568
3 1570 1506 1569
3 1559 1509 1561
3 1509 1570 1561
3 1509 1506 1570
3 1509 1559 1510
3 1510 1559 1562
3 1510 1562 1500
3 1563 1512 1504
3 1512 1563 1513
3 1513 1563 1565
3 1513 1565 1514
3 1514 1565 1566
3 1514 1566 1515
3 1515 1566 1568
3 1515 1568 1507
3 1571 1522 1523
3 1524 1572 1523
3 1523 1572 1571
3 1525 1573 1524
3 1524 1573 1572
3 1526 1573 1525
3 1571 1531 1522
3 1531 1571 1534
3 1534 1571 1572
3 1534 1572 1536
3 1536 1572 1573
3 1538 1536 1574
3 1536 1573 1574
3 1526 1537 1574
3 1526 1574 1573
3 1539 1575 1537
3 1537 1575 1574
3 1540 1576 1539
3 1539 1576 1575
3 1541 1577 1540
3 1540 1577 1576
3 1543 1577 1541
3 1574 1549 1538
3 1549 1574 1551
3 1574 1578 1551
3 1574 1575 1578
3 1579 1575 1576
3 1578 1575 1579
3 1580 1576 1577
3 1579 1576 1580
3 1552 1581 1543
3 1581 1577 1543
3 1581 1580 1577
3 1553 1581 1552
3 1582 1557 1558
3 1551 1578 1558
3 1578 1582 1558
3 1578 1583 1582
3 1584 1578 1579
3 1583 1578 1584
3 1585 1579 1580
3 1584 1579 1585
3 1561 1585 1560
3 1585 1581 1560
3 1585 1580 1581
3 1560 1581 1553
3 1582 1564 1557
3 1564 1582 1567
3 1567 1582 1583
3 1567 1583 1569
3 1569 1583 1584
3 1569 1584 1570
3 1570 1584 1585
3 1570 1585 1561
