ply
format ascii 1.0
element vertex 938
property float x
property float y
property float z
element face 1876
property list uchar int vertex_indices
end_header
-2.50000 4.00000 -6.00000
-3.00000 4.00000 -6.50000
-3.00000 3.50000 -6.00000
-3.00000 3.50000 -5.00000
-2.50000 4.00000 -5.00000
-3.00000 4.00000 -4.50000
-2.50000 5.00000 -6.00000
-3.00000 5.00000 -6.50000
-2.50000 5.00000 -5.00000
-3.00000 4.50000 -4.00000
-2.50000 5.00000 -4.00000
-3.00000 4.50000 -3.00000
-2.50000 5.00000 -3.00000
-3.00000 5.00000 -2.50000
-2.50000 6.00000 -6.00000
-3.00000 6.00000 -6.50000
-2.50000 6.00000 -5.00000
-2.50000 6.00000 -4.00000
-2.50000 6.00000 -3.00000
-3.00000 6.00000 -2.50000
-3.00000 6.50000 -6.00000
-3.00000 6.50000 -5.00000
-3.00000 6.50000 -4.00000
-3.00000 6.50000 -3.00000
-3.50000 4.00000 -7.00000
-4.00000 4.00000 -7.50000
-4.00000 3.50000 -7.00000
-4.00000 3.50000 -6.00000
-4.00000 3.50000 -5.00000
-4.00000 4.00000 -4.50000
-3.50000 5.00000 -8.00000
-4.00000 5.00000 -8.50000
-4.00000 4.50000 -8.00000
-3.50000 5.00000 -7.00000
-4.00000 4.50000 -4.00000
-4.00000 4.50000 -3.00000
-4.00000 4.50000 -2.00000
-3.50000 5.00000 -2.00000
-4.00000 5.00000 -1.50000
-3.50000 6.00000 -8.00000
-4.00000 6.00000 -8.50000
-3.50000 6.00000 -7.00000
-3.50000 6.00000 -2.00000
-4.00000 6.00000 -1.50000
-3.50000 7.00000 -8.00000
-4.00000 7.00000 -8.50000
-3.50000 7.00000 -7.00000
-3.50000 7.00000 -6.00000
-3.50000 7.00000 -5.00000
-3.50000 7.00000 -4.00000
-3.50000 7.00000 -3.00000
-3.50000 7.00000 -2.00000
-4.00000 7.00000 -1.50000
-4.00000 7.50000 -8.00000
-3.50000 8.00000 -7.00000
-4.00000 8.00000 -7.50000
-3.50000 8.00000 -6.00000
-3.50000 8.00000 -5.00000
-3.50000 8.00000 -4.00000
-3.50000 8.00000 -3.00000
-4.00000 8.00000 -2.50000
-4.00000 7.50000 -2.00000
-3.50000 9.00000 -7.00000
-4.00000 9.00000 -7.50000
-3.50000 9.00000 -6.00000
-3.50000 9.00000 -5.00000
-3.50000 9.00000 -4.00000
-3.50000 9.00000 -3.00000
-4.00000 9.00000 -2.50000
-3.50000 10.00000 -7.00000
-4.00000 10.00000 -7.50000
-3.50000 10.00000 -6.00000
-3.50000 10.00000 -5.00000
-3.50000 10.00000 -4.00000
-3.50000 10.00000 -3.00000
-4.00000 10.00000 -2.50000
-4.00000 10.50000 -7.00000
-3.50000 11.00000 -6.00000
-4.00000 11.00000 -6.50000
-3.50000 11.00000 -5.00000
-3.50000 11.00000 -4.00000
-3.50000 11.00000 -3.00000
-4.00000 10.50000 -2.00000
-3.50000 11.00000 -2.00000
-4.00000 11.00000 -1.50000
-4.00000 11.50000 -6.00000
-3.50000 12.00000 -5.00000
-4.00000 12.00000 -5.50000
-3.50000 12.00000 -4.00000
-3.50000 12.00000 -3.00000
-3.50000 12.00000 -2.00000
-4.00000 12.00000 -1.50000
-4.00000 12.50000 -5.00000
-3.50000 13.00000 -4.00000
-4.00000 13.00000 -4.50000
-3.50000 13.00000 -3.00000
-3.50000 13.00000 -2.00000
-4.00000 13.00000 -1.50000
-4.00000 13.50000 -4.00000
-3.50000 14.00000 -3.00000
-4.00000 14.00000 -3.50000
-3.50000 14.00000 -2.00000
-4.00000 14.00000 -1.50000
-4.00000 14.50000 -3.00000
-4.00000 14.50000 -2.00000
-4.00000 15.00000 -1.50000
-3.50000 15.00000 -1.00000
-4.00000 14.50000 -1.00000
-4.00000 15.00000 -0.50000
-3.50000 16.00000 -1.00000
-4.00000 16.00000 -1.50000
-4.00000 16.00000 -0.50000
-4.00000 16.50000 -1.00000
-4.50000 3.00000 -10.00000
-5.00000 3.00000 -10.50000
-5.00000 2.50000 -10.00000
-5.00000 2.50000 -9.00000
-4.50000 3.00000 -9.00000
-5.00000 3.00000 -8.50000
-4.50000 4.00000 -10.00000
-5.00000 4.00000 -10.50000
-4.50000 4.00000 -9.00000
-5.00000 3.50000 -8.00000
-4.50000 4.00000 -8.00000
-5.00000 3.50000 -7.00000
-5.00000 3.50000 -6.00000
-5.00000 3.50000 -5.00000
-5.00000 4.00000 -4.50000
-4.50000 5.00000 -10.00000
-5.00000 5.00000 -10.50000
-4.50000 5.00000 -9.00000
-5.00000 4.50000 -4.00000
-5.00000 4.50000 -3.00000
-4.50000 5.00000 -2.00000
-5.00000 5.00000 -2.50000
-4.50000 6.00000 -10.00000
-5.00000 6.00000 -10.50000
-4.50000 6.00000 -9.00000
-4.50000 6.00000 -2.00000
-5.00000 6.00000 -2.50000
-4.50000 7.00000 -11.00000
-5.00000 7.00000 -11.50000
-5.00000 6.50000 -11.00000
-4.50000 7.00000 -10.00000
-4.50000 7.00000 -9.00000
-4.50000 7.00000 -2.00000
-5.00000 7.00000 -2.50000
-5.00000 7.50000 -11.00000
-4.50000 8.00000 -10.00000
-5.00000 8.00000 -10.50000
-4.50000 8.00000 -9.00000
-4.50000 8.00000 -8.00000
-5.00000 8.00000 -2.50000
-4.50000 9.00000 -10.00000
-5.00000 9.00000 -10.50000
-4.50000 9.00000 -9.00000
-4.50000 9.00000 -8.00000
-5.00000 9.00000 -2.50000
-5.00000 9.50000 -10.00000
-4.50000 10.00000 -9.00000
-5.00000 10.00000 -9.50000
-4.50000 10.00000 -8.00000
-5.00000 10.00000 -2.50000
-5.00000 10.50000 -9.00000
-4.50000 11.00000 -8.00000
-5.00000 11.00000 -8.50000
-4.50000 11.00000 -7.00000
-4.50000 11.00000 -2.00000
-5.00000 11.00000 -2.50000
-5.00000 11.50000 -8.00000
-4.50000 12.00000 -7.00000
-5.00000 12.00000 -7.50000
-4.50000 12.00000 -6.00000
-4.50000 12.00000 -2.00000
-5.00000 12.00000 -2.50000
-5.00000 12.50000 -7.00000
-5.00000 12.50000 -6.00000
-4.50000 13.00000 -5.00000
-5.00000 13.00000 -5.50000
-5.00000 12.50000 -2.00000
-5.00000 13.00000 -1.50000
-5.00000 13.50000 -5.00000
-4.50000 14.00000 -4.00000
-5.00000 14.00000 -4.50000
-5.00000 14.00000 -1.50000
-5.00000 14.50000 -4.00000
-4.50000 15.00000 -3.00000
-5.00000 15.00000 -3.50000
-4.50000 15.00000 -2.00000
-4.50000 15.00000 -1.00000
-5.00000 15.00000 -1.50000
-5.00000 15.50000 -3.00000
-4.50000 16.00000 -2.00000
-5.00000 16.00000 -2.50000
-5.00000 16.00000 -1.50000
-4.50000 16.00000 -1.00000
-5.00000 16.50000 -2.00000
-4.50000 17.00000 -1.00000
-5.00000 16.50000 -1.00000
-5.00000 17.00000 -1.50000
-5.00000 17.00000 -0.50000
-5.00000 17.50000 -1.00000
-5.50000 3.00000 -12.00000
-6.00000 3.00000 -12.50000
-6.00000 2.50000 -12.00000
-6.00000 2.50000 -11.00000
-5.50000 3.00000 -11.00000
-6.00000 2.50000 -10.00000
-6.00000 2.50000 -9.00000
-6.00000 2.50000 -8.00000
-5.50000 3.00000 -8.00000
-6.00000 3.00000 -7.50000
-6.00000 3.50000 -12.00000
-5.50000 4.00000 -11.00000
-6.00000 4.00000 -11.50000
-6.00000 3.50000 -7.00000
-6.00000 3.50000 -6.00000
-5.50000 4.00000 -5.00000
-6.00000 4.00000 -5.50000
-5.50000 5.00000 -12.00000
-6.00000 5.00000 -12.50000
-6.00000 4.50000 -12.00000
-5.50000 5.00000 -11.00000
-6.00000 4.50000 -5.00000
-5.50000 5.00000 -4.00000
-6.00000 5.00000 -4.50000
-5.50000 5.00000 -3.00000
-5.50000 6.00000 -13.00000
-6.00000 6.00000 -13.50000
-6.00000 5.50000 -13.00000
-5.50000 6.00000 -12.00000
-5.50000 6.00000 -11.00000
-6.00000 5.50000 -4.00000
-6.00000 6.00000 -3.50000
-5.50000 6.00000 -3.00000
-5.50000 7.00000 -13.00000
-6.00000 7.00000 -13.50000
-5.50000 7.00000 -12.00000
-5.50000 7.00000 -3.00000
-6.00000 7.00000 -3.50000
-5.50000 8.00000 -13.00000
-6.00000 8.00000 -13.50000
-5.50000 8.00000 -12.00000
-5.50000 8.00000 -11.00000
-5.50000 8.00000 -3.00000
-6.00000 8.00000 -3.50000
-6.00000 8.50000 -13.00000
-6.00000 8.50000 -12.00000
-5.50000 9.00000 -11.00000
-6.00000 9.00000 -11.50000
-5.50000 9.00000 -3.00000
-6.00000 9.00000 -3.50000
-6.00000 9.50000 -11.00000
-5.50000 10.00000 -10.00000
-6.00000 10.00000 -10.50000
-5.50000 10.00000 -3.00000
-6.00000 10.00000 -3.50000
-6.00000 10.50000 -10.00000
-5.50000 11.00000 -9.00000
-6.00000 11.00000 -9.50000
-5.50000 11.00000 -3.00000
-6.00000 11.00000 -3.50000
-6.00000 11.50000 -9.00000
-5.50000 12.00000 -8.00000
-6.00000 12.00000 -8.50000
-6.00000 11.50000 -3.00000
-6.00000 12.00000 -2.50000
-6.00000 12.50000 -8.00000
-5.50000 13.00000 -7.00000
-6.00000 13.00000 -7.50000
-5.50000 13.00000 -6.00000
-5.50000 13.00000 -2.00000
-6.00000 13.00000 -2.50000
-6.00000 13.50000 -7.00000
-5.50000 14.00000 -6.00000
-6.00000 14.00000 -6.50000
-5.50000 14.00000 -5.00000
-5.50000 14.00000 -2.00000
-6.00000 14.00000 -2.50000
-6.00000 14.50000 -6.00000
-5.50000 15.00000 -5.00000
-6.00000 15.00000 -5.50000
-5.50000 15.00000 -4.00000
-6.00000 14.50000 -2.00000
-6.00000 15.00000 -1.50000
-6.00000 15.50000 -5.00000
-5.50000 16.00000 -4.00000
-6.00000 16.00000 -4.50000
-5.50000 16.00000 -3.00000
-6.00000 16.00000 -1.50000
-6.00000 16.50000 -4.00000
-5.50000 17.00000 -3.00000
-6.00000 17.00000 -3.50000
-5.50000 17.00000 -2.00000
-5.50000 17.00000 -1.00000
-6.00000 17.00000 -1.50000
-6.00000 17.50000 -3.00000
-5.50000 18.00000 -2.00000
-6.00000 18.00000 -2.50000
-6.00000 18.00000 -1.50000
-6.00000 18.50000 -2.00000
-7.00000 3.00000 -12.50000
-7.00000 2.50000 -12.00000
-7.00000 2.50000 -11.00000
-7.00000 2.50000 -10.00000
-7.00000 2.50000 -9.00000
-7.00000 2.50000 -8.00000
-7.00000 3.00000 -7.50000
-6.50000 4.00000 -13.00000
-7.00000 4.00000 -13.50000
-7.00000 3.50000 -13.00000
-6.50000 4.00000 -12.00000
-7.00000 3.50000 -7.00000
-6.50000 4.00000 -6.00000
-7.00000 4.00000 -6.50000
-6.50000 5.00000 -14.00000
-7.00000 5.00000 -14.50000
-7.00000 4.50000 -14.00000
-6.50000 5.00000 -13.00000
-7.00000 4.50000 -6.00000
-6.50000 5.00000 -5.00000
-7.00000 5.00000 -5.50000
-6.50000 6.00000 -15.00000
-7.00000 6.00000 -15.50000
-7.00000 5.50000 -15.00000
-6.50000 6.00000 -14.00000
-6.50000 6.00000 -5.00000
-7.00000 6.00000 -5.50000
-6.50000 6.00000 -4.00000
-6.50000 7.00000 -15.00000
-7.00000 7.00000 -15.50000
-6.50000 7.00000 -14.00000
-7.00000 6.50000 -5.00000
-7.00000 7.00000 -4.50000
-6.50000 7.00000 -4.00000
-7.00000 7.50000 -15.00000
-6.50000 8.00000 -14.00000
-7.00000 8.00000 -14.50000
-6.50000 8.00000 -4.00000
-7.00000 8.00000 -4.50000
-7.00000 8.50000 -14.00000
-6.50000 9.00000 -13.00000
-7.00000 9.00000 -13.50000
-6.50000 9.00000 -12.00000
-6.50000 9.00000 -4.00000
-7.00000 9.00000 -4.50000
-7.00000 9.50000 -13.00000
-7.00000 9.50000 -12.00000
-6.50000 10.00000 -11.00000
-7.00000 10.00000 -11.50000
-6.50000 10.00000 -4.00000
-7.00000 10.00000 -4.50000
-6.50000 11.00000 -11.00000
-7.00000 11.00000 -11.50000
-6.50000 11.00000 -10.00000
-6.50000 11.00000 -4.00000
-7.00000 11.00000 -4.50000
-7.00000 11.50000 -11.00000
-6.50000 12.00000 -10.00000
-7.00000 12.00000 -10.50000
-6.50000 12.00000 -9.00000
-7.00000 11.50000 -4.00000
-6.50000 12.00000 -3.00000
-7.00000 12.00000 -3.50000
-7.00000 12.50000 -10.00000
-6.50000 13.00000 -9.00000
-7.00000 13.00000 -9.50000
-6.50000 13.00000 -8.00000
-6.50000 13.00000 -3.00000
-7.00000 13.00000 -3.50000
-7.00000 13.50000 -9.00000
-6.50000 14.00000 -8.00000
-7.00000 14.00000 -8.50000
-6.50000 14.00000 -7.00000
-6.50000 14.00000 -3.00000
-7.00000 14.00000 -3.50000
-7.00000 14.50000 -8.00000
-6.50000 15.00000 -7.00000
-7.00000 15.00000 -7.50000
-6.50000 15.00000 -6.00000
-7.00000 14.50000 -3.00000
-6.50000 15.00000 -2.00000
-7.00000 15.00000 -2.50000
-7.00000 15.50000 -7.00000
-6.50000 16.00000 -6.00000
-7.00000 16.00000 -6.50000
-6.50000 16.00000 -5.00000
-6.50000 16.00000 -2.00000
-7.00000 16.00000 -2.50000
-7.00000 16.50000 -6.00000
-6.50000 17.00000 -5.00000
-7.00000 17.00000 -5.50000
-6.50000 17.00000 -4.00000
-7.00000 16.50000 -2.00000
-7.00000 17.00000 -1.50000
-7.00000 17.50000 -5.00000
-7.00000 17.50000 -4.00000
-6.50000 18.00000 -3.00000
-7.00000 18.00000 -3.50000
-7.00000 18.00000 -1.50000
-7.00000 18.50000 -3.00000
-7.00000 18.50000 -2.00000
-7.50000 3.00000 -13.00000
-8.00000 3.00000 -13.50000
-8.00000 2.50000 -13.00000
-8.00000 2.50000 -12.00000
-8.00000 2.50000 -11.00000
-8.00000 2.50000 -10.00000
-8.00000 2.50000 -9.00000
-7.50000 3.00000 -8.00000
-8.00000 3.00000 -8.50000
-7.50000 4.00000 -14.00000
-8.00000 4.00000 -14.50000
-8.00000 3.50000 -14.00000
-8.00000 3.50000 -8.00000
-7.50000 4.00000 -7.00000
-8.00000 4.00000 -7.50000
-7.50000 5.00000 -15.00000
-8.00000 5.00000 -15.50000
-8.00000 4.50000 -15.00000
-8.00000 4.50000 -7.00000
-7.50000 5.00000 -6.00000
-8.00000 5.00000 -6.50000
-8.00000 6.00000 -15.50000
-7.50000 6.00000 -6.00000
-8.00000 6.00000 -6.50000
-7.50000 7.00000 -16.00000
-8.00000 7.00000 -16.50000
-8.00000 6.50000 -16.00000
-8.00000 6.50000 -6.00000
-7.50000 7.00000 -5.00000
-8.00000 7.00000 -5.50000
-8.00000 7.50000 -16.00000
-7.50000 8.00000 -15.00000
-8.00000 8.00000 -15.50000
-7.50000 8.00000 -5.00000
-8.00000 8.00000 -5.50000
-8.00000 8.50000 -15.00000
-7.50000 9.00000 -14.00000
-8.00000 9.00000 -14.50000
-7.50000 9.00000 -6.00000
-8.00000 8.50000 -6.00000
-8.00000 9.00000 -6.50000
-7.50000 9.00000 -5.00000
-8.00000 9.50000 -14.00000
-8.00000 9.50000 -13.00000
-7.50000 10.00000 -12.00000
-8.00000 10.00000 -12.50000
-8.00000 9.50000 -6.00000
-8.00000 10.00000 -5.50000
-7.50000 10.00000 -5.00000
-8.00000 10.50000 -12.00000
-8.00000 11.00000 -11.50000
-7.50000 11.00000 -5.00000
-8.00000 11.00000 -5.50000
-7.50000 12.00000 -11.00000
-8.00000 12.00000 -11.50000
-8.00000 11.50000 -5.00000
-7.50000 12.00000 -4.00000
-8.00000 12.00000 -4.50000
-8.00000 12.50000 -11.00000
-7.50000 13.00000 -10.00000
-8.00000 13.00000 -10.50000
-7.50000 13.00000 -4.00000
-8.00000 13.00000 -4.50000
-8.00000 13.50000 -10.00000
-7.50000 14.00000 -9.00000
-8.00000 14.00000 -9.50000
-7.50000 14.00000 -4.00000
-8.00000 14.00000 -4.50000
-8.00000 14.50000 -9.00000
-7.50000 15.00000 -8.00000
-8.00000 15.00000 -8.50000
-8.00000 14.50000 -4.00000
-7.50000 15.00000 -3.00000
-8.00000 15.00000 -3.50000
-8.00000 15.50000 -8.00000
-7.50000 16.00000 -7.00000
-8.00000 16.00000 -7.50000
-8.00000 15.50000 -3.00000
-8.00000 16.00000 -2.50000
-8.00000 16.50000 -7.00000
-7.50000 17.00000 -6.00000
-8.00000 17.00000 -6.50000
-7.50000 17.00000 -2.00000
-8.00000 17.00000 -2.50000
-8.00000 17.50000 -6.00000
-7.50000 18.00000 -5.00000
-8.00000 18.00000 -5.50000
-7.50000 18.00000 -4.00000
-7.50000 18.00000 -2.00000
-8.00000 18.00000 -2.50000
-8.00000 18.50000 -5.00000
-8.00000 18.50000 -4.00000
-7.50000 19.00000 -3.00000
-8.00000 19.00000 -3.50000
-8.00000 19.00000 -2.50000
-8.00000 19.50000 -3.00000
-8.50000 3.00000 -14.00000
-9.00000 3.00000 -14.50000
-9.00000 2.50000 -14.00000
-9.00000 2.50000 -13.00000
-9.00000 2.50000 -12.00000
-9.00000 2.50000 -11.00000
-9.00000 2.50000 -10.00000
-9.00000 2.50000 -9.00000
-9.00000 3.00000 -8.50000
-9.00000 4.00000 -14.50000
-9.00000 3.50000 -8.00000
-9.00000 4.00000 -7.50000
-9.00000 5.00000 -15.50000
-9.00000 4.50000 -15.00000
-8.50000 5.00000 -7.00000
-9.00000 5.00000 -7.50000
-8.50000 6.00000 -16.00000
-9.00000 6.00000 -16.50000
-9.00000 5.50000 -16.00000
-9.00000 5.50000 -7.00000
-9.00000 6.00000 -6.50000
-9.00000 7.00000 -16.50000
-8.50000 7.00000 -6.00000
-9.00000 7.00000 -6.50000
-8.50000 8.00000 -16.00000
-9.00000 8.00000 -16.50000
-8.50000 8.00000 -6.00000
-9.00000 8.00000 -6.50000
-9.00000 8.50000 -16.00000
-9.00000 8.50000 -15.00000
-9.00000 9.00000 -14.50000
-9.00000 9.00000 -6.50000
-9.00000 9.50000 -14.00000
-8.50000 10.00000 -13.00000
-9.00000 10.00000 -13.50000
-8.50000 10.00000 -6.00000
-9.00000 10.00000 -6.50000
-9.00000 10.50000 -13.00000
-8.50000 11.00000 -12.00000
-9.00000 11.00000 -12.50000
-8.50000 11.00000 -6.00000
-9.00000 11.00000 -6.50000
-9.00000 11.50000 -12.00000
-9.00000 12.00000 -11.50000
-8.50000 12.00000 -6.00000
-9.00000 12.00000 -6.50000
-8.50000 12.00000 -5.00000
-8.50000 13.00000 -11.00000
-9.00000 13.00000 -11.50000
-8.50000 13.00000 -6.00000
-9.00000 13.00000 -6.50000
-8.50000 13.00000 -5.00000
-9.00000 13.50000 -11.00000
-8.50000 14.00000 -10.00000
-9.00000 14.00000 -10.50000
-9.00000 13.50000 -6.00000
-9.00000 14.00000 -5.50000
-8.50000 14.00000 -5.00000
-8.50000 15.00000 -10.00000
-9.00000 15.00000 -10.50000
-8.50000 15.00000 -9.00000
-9.00000 14.50000 -5.00000
-8.50000 15.00000 -4.00000
-9.00000 15.00000 -4.50000
-9.00000 15.50000 -10.00000
-8.50000 16.00000 -9.00000
-9.00000 16.00000 -9.50000
-8.50000 16.00000 -8.00000
-9.00000 15.50000 -4.00000
-8.50000 16.00000 -3.00000
-9.00000 16.00000 -3.50000
-9.00000 16.50000 -9.00000
-8.50000 17.00000 -8.00000
-9.00000 17.00000 -8.50000
-8.50000 17.00000 -7.00000
-8.50000 17.00000 -3.00000
-9.00000 17.00000 -3.50000
-9.00000 17.50000 -8.00000
-8.50000 18.00000 -7.00000
-9.00000 18.00000 -7.50000
-8.50000 18.00000 -6.00000
-9.00000 17.50000 -3.00000
-9.00000 18.00000 -2.50000
-9.00000 18.50000 -7.00000
-9.00000 18.50000 -6.00000
-8.50000 19.00000 -5.00000
-9.00000 19.00000 -5.50000
-8.50000 19.00000 -4.00000
-9.00000 18.50000 -3.00000
-9.00000 19.00000 -3.50000
-8.50000 19.00000 -3.00000
-9.00000 19.50000 -5.00000
-9.00000 19.50000 -4.00000
-10.00000 3.00000 -14.50000
-10.00000 2.50000 -14.00000
-10.00000 2.50000 -13.00000
-10.00000 2.50000 -12.00000
-10.00000 2.50000 -11.00000
-10.00000 2.50000 -10.00000
-9.50000 3.00000 -9.00000
-10.00000 3.00000 -9.50000
-9.50000 4.00000 -15.00000
-10.00000 4.00000 -15.50000
-10.00000 3.50000 -15.00000
-10.00000 3.50000 -9.00000
-9.50000 4.00000 -8.00000
-10.00000 4.00000 -8.50000
-10.00000 5.00000 -15.50000
-10.00000 4.50000 -8.00000
-10.00000 5.00000 -7.50000
-10.00000 6.00000 -16.50000
-10.00000 5.50000 -16.00000
-10.00000 5.50000 -7.00000
-10.00000 6.00000 -6.50000
-10.00000 7.00000 -16.50000
-10.00000 7.00000 -6.50000
-10.00000 8.00000 -16.50000
-10.00000 8.00000 -6.50000
-10.00000 8.50000 -16.00000
-10.00000 8.50000 -15.00000
-10.00000 9.00000 -14.50000
-10.00000 9.00000 -6.50000
-10.00000 9.50000 -14.00000
-10.00000 10.00000 -13.50000
-9.50000 10.00000 -7.00000
-10.00000 9.50000 -7.00000
-10.00000 10.00000 -7.50000
-10.00000 10.50000 -13.00000
-10.00000 11.00000 -12.50000
-9.50000 11.00000 -7.00000
-10.00000 11.00000 -7.50000
-9.50000 12.00000 -12.00000
-10.00000 12.00000 -12.50000
-9.50000 12.00000 -7.00000
-10.00000 12.00000 -7.50000
-10.00000 12.50000 -12.00000
-10.00000 13.00000 -11.50000
-9.50000 13.00000 -7.00000
-10.00000 13.00000 -7.50000
-9.50000 14.00000 -11.00000
-10.00000 14.00000 -11.50000
-10.00000 13.50000 -7.00000
-9.50000 14.00000 -6.00000
-10.00000 14.00000 -6.50000
-10.00000 14.50000 -11.00000
-10.00000 15.00000 -10.50000
-10.00000 14.50000 -6.00000
-9.50000 15.00000 -5.00000
-10.00000 15.00000 -5.50000
-10.00000 15.50000 -10.00000
-10.00000 16.00000 -9.50000
-10.00000 15.50000 -5.00000
-9.50000 16.00000 -4.00000
-10.00000 16.00000 -4.50000
-9.50000 17.00000 -9.00000
-10.00000 17.00000 -9.50000
-9.50000 17.00000 -4.00000
-10.00000 17.00000 -4.50000
-10.00000 17.50000 -9.00000
-9.50000 18.00000 -8.00000
-10.00000 18.00000 -8.50000
-10.00000 17.50000 -4.00000
-9.50000 18.00000 -3.00000
-10.00000 18.00000 -3.50000
-10.00000 18.50000 -8.00000
-10.00000 18.50000 -7.00000
-10.00000 18.50000 -6.00000
-10.00000 19.00000 -5.50000
-9.50000 19.00000 -4.00000
-10.00000 18.50000 -4.00000
-10.00000 19.00000 -4.50000
-10.00000 19.50000 -5.00000
-10.50000 3.00000 -14.00000
-10.50000 3.00000 -13.00000
-10.50000 3.00000 -12.00000
-10.50000 3.00000 -11.00000
-10.50000 3.00000 -10.00000
-10.50000 4.00000 -15.00000
-10.50000 4.00000 -14.00000
-10.50000 4.00000 -13.00000
-10.50000 4.00000 -12.00000
-10.50000 4.00000 -11.00000
-10.50000 4.00000 -10.00000
-10.50000 4.00000 -9.00000
-10.50000 5.00000 -15.00000
-10.50000 5.00000 -14.00000
-10.50000 5.00000 -13.00000
-10.50000 5.00000 -12.00000
-11.00000 5.00000 -11.50000
-11.00000 4.50000 -11.00000
-11.00000 4.50000 -10.00000
-11.00000 4.50000 -9.00000
-10.50000 5.00000 -8.00000
-11.00000 5.00000 -8.50000
-11.00000 6.00000 -16.50000
-11.00000 5.50000 -16.00000
-11.00000 5.50000 -15.00000
-11.00000 5.50000 -14.00000
-11.00000 5.50000 -13.00000
-11.00000 5.50000 -12.00000
-11.00000 5.50000 -8.00000
-10.50000 6.00000 -7.00000
-11.00000 6.00000 -7.50000
-11.00000 7.00000 -16.50000
-10.50000 7.00000 -7.00000
-11.00000 7.00000 -7.50000
-11.00000 7.50000 -16.00000
-10.50000 8.00000 -16.00000
-11.00000 8.00000 -15.50000
-11.00000 7.50000 -7.00000
-11.00000 8.00000 -6.50000
-11.00000 8.50000 -15.00000
-11.00000 9.00000 -14.50000
-11.00000 9.00000 -6.50000
-11.00000 9.50000 -14.00000
-11.00000 10.00000 -13.50000
-11.00000 9.50000 -7.00000
-11.00000 10.00000 -7.50000
-11.00000 10.50000 -13.00000
-11.00000 11.00000 -12.50000
-10.50000 11.00000 -8.00000
-11.00000 10.50000 -8.00000
-11.00000 11.00000 -8.50000
-11.00000 12.00000 -12.50000
-10.50000 12.00000 -8.00000
-11.00000 12.00000 -8.50000
-11.00000 12.50000 -12.00000
-11.00000 13.00000 -11.50000
-11.00000 12.50000 -8.00000
-11.00000 13.00000 -7.50000
-11.00000 14.00000 -11.50000
-10.50000 14.00000 -7.00000
-11.00000 14.00000 -7.50000
-11.00000 14.50000 -11.00000
-11.00000 15.00000 -10.50000
-11.00000 14.50000 -7.00000
-10.50000 15.00000 -6.00000
-11.00000 15.00000 -6.50000
-10.50000 16.00000 -10.00000
-11.00000 16.00000 -10.50000
-10.50000 16.00000 -6.00000
-11.00000 16.00000 -6.50000
-10.50000 16.00000 -5.00000
-11.00000 16.50000 -10.00000
-11.00000 17.00000 -9.50000
-11.00000 16.50000 -6.00000
-11.00000 17.00000 -5.50000
-10.50000 17.00000 -5.00000
-10.50000 18.00000 -9.00000
-11.00000 18.00000 -9.50000
-11.00000 17.50000 -5.00000
-10.50000 18.00000 -4.00000
-11.00000 18.00000 -4.50000
-11.00000 18.50000 -9.00000
-11.00000 18.50000 -8.00000
-11.00000 18.50000 -7.00000
-11.00000 18.50000 -6.00000
-10.50000 19.00000 -5.00000
-11.00000 18.50000 -5.00000
-11.50000 5.00000 -11.00000
-11.50000 5.00000 -10.00000
-11.50000 5.00000 -9.00000
-11.50000 6.00000 -16.00000
-11.50000 6.00000 -15.00000
-11.50000 6.00000 -14.00000
-11.50000 6.00000 -13.00000
-11.50000 6.00000 -12.00000
-11.50000 6.00000 -11.00000
-11.50000 6.00000 -10.00000
-11.50000 6.00000 -9.00000
-11.50000 6.00000 -8.00000
-11.50000 7.00000 -16.00000
-11.50000 7.00000 -15.00000
-11.50000 7.00000 -14.00000
-11.50000 7.00000 -13.00000
-11.50000 7.00000 -12.00000
-11.50000 7.00000 -11.00000
-11.50000 7.00000 -10.00000
-11.50000 7.00000 -9.00000
-11.50000 7.00000 -8.00000
-11.50000 8.00000 -15.00000
-12.00000 8.00000 -14.50000
-12.00000 7.50000 -14.00000
-12.00000 7.50000 -13.00000
-12.00000 7.50000 -12.00000
-12.00000 8.00000 -11.50000
-11.50000 8.00000 -11.00000
-11.50000 8.00000 -10.00000
-12.00000 8.00000 -9.50000
-12.00000 7.50000 -9.00000
-12.00000 7.50000 -8.00000
-11.50000 8.00000 -7.00000
-12.00000 8.00000 -7.50000
-11.50000 9.00000 -14.00000
-12.00000 8.50000 -14.00000
-12.00000 9.00000 -13.50000
-12.00000 8.50000 -11.00000
-12.00000 8.50000 -10.00000
-11.50000 9.00000 -7.00000
-12.00000 9.00000 -7.50000
-12.00000 10.00000 -13.50000
-12.00000 10.00000 -7.50000
-12.00000 10.50000 -13.00000
-12.00000 11.00000 -12.50000
-12.00000 10.50000 -8.00000
-12.00000 11.00000 -8.50000
-12.00000 12.00000 -12.50000
-12.00000 12.00000 -8.50000
-12.00000 12.50000 -12.00000
-12.00000 13.00000 -11.50000
-11.50000 13.00000 -8.00000
-12.00000 13.00000 -8.50000
-12.00000 14.00000 -11.50000
-12.00000 13.50000 -8.00000
-12.00000 14.00000 -7.50000
-12.00000 14.50000 -11.00000
-12.00000 15.00000 -10.50000
-11.50000 15.00000 -7.00000
-12.00000 15.00000 -7.50000
-12.00000 16.00000 -10.50000
-12.00000 15.50000 -7.00000
-12.00000 16.00000 -6.50000
-11.50000 17.00000 -10.00000
-12.00000 17.00000 -10.50000
-11.50000 17.00000 -6.00000
-12.00000 17.00000 -6.50000
-12.00000 17.50000 -10.00000
-12.00000 18.00000 -9.50000
-11.50000 18.00000 -6.00000
-12.00000 18.00000 -6.50000
-11.50000 18.00000 -5.00000
-12.00000 18.50000 -9.00000
-12.00000 18.50000 -8.00000
-12.00000 18.50000 -7.00000
-12.50000 8.00000 -14.00000
-12.50000 8.00000 -13.00000
-12.50000 8.00000 -12.00000
-12.50000 8.00000 -9.00000
-12.50000 8.00000 -8.00000
-12.50000 9.00000 -13.00000
-12.50000 9.00000 -12.00000
-12.50000 9.00000 -11.00000
-12.50000 9.00000 -10.00000
-12.50000 9.00000 -9.00000
-12.50000 9.00000 -8.00000
-12.50000 10.00000 -13.00000
-12.50000 10.00000 -12.00000
-12.50000 10.00000 -11.00000
-12.50000 10.00000 -10.00000
-12.50000 10.00000 -9.00000
-12.50000 10.00000 -8.00000
-13.00000 10.50000 -12.00000
-13.00000 11.00000 -12.50000
-13.00000 10.50000 -11.00000
-13.00000 10.50000 -10.00000
-13.00000 10.50000 -9.00000
-13.00000 11.00000 -8.50000
-13.00000 11.50000 -12.00000
-12.50000 12.00000 -12.00000
-13.00000 12.00000 -11.50000
-13.00000 12.00000 -8.50000
-13.00000 13.00000 -11.50000
-13.00000 13.00000 -8.50000
-13.00000 13.50000 -11.00000
-12.50000 14.00000 -11.00000
-13.00000 14.00000 -10.50000
-12.50000 14.00000 -8.00000
-13.00000 14.00000 -8.50000
-13.00000 15.00000 -10.50000
-13.00000 14.50000 -8.00000
-13.00000 15.00000 -7.50000
-13.00000 16.00000 -10.50000
-12.50000 16.00000 -7.00000
-13.00000 16.00000 -7.50000
-13.00000 17.00000 -10.50000
-13.00000 16.50000 -7.00000
-13.00000 17.00000 -6.50000
-13.00000 17.50000 -10.00000
-13.00000 18.00000 -9.50000
-13.00000 18.00000 -6.50000
-13.00000 18.50000 -9.00000
-13.00000 18.50000 -8.00000
-13.00000 18.50000 -7.00000
-13.50000 11.00000 -12.00000
-13.50000 11.00000 -11.00000
-13.50000 11.00000 -10.00000
-13.50000 11.00000 -9.00000
-14.00000 11.50000 -11.00000
-14.00000 12.00000 -11.50000
-14.00000 12.00000 -10.50000
-13.50000 12.00000 -10.00000
-13.50000 12.00000 -9.00000
-14.00000 13.00000 -11.50000
-14.00000 12.50000 -10.00000
-14.00000 12.50000 -9.00000
-14.00000 13.00000 -8.50000
-14.00000 13.50000 -11.00000
-14.00000 14.00000 -10.50000
-14.00000 14.00000 -8.50000
-14.00000 15.00000 -10.50000
-13.50000 15.00000 -8.00000
-14.00000 15.00000 -8.50000
-14.00000 16.00000 -10.50000
-14.00000 15.50000 -8.00000
-14.00000 16.00000 -7.50000
-14.00000 17.00000 -10.50000
-13.50000 17.00000 -7.00000
-14.00000 17.00000 -7.50000
-14.00000 17.50000 -10.00000
-13.50000 18.00000 -9.00000
-14.00000 17.50000 -9.00000
-14.00000 18.00000 -8.50000
-13.50000 18.00000 -7.00000
-14.00000 18.00000 -7.50000
-14.00000 18.50000 -8.00000
-14.50000 12.00000 -11.00000
-14.50000 13.00000 -11.00000
-14.50000 13.00000 -10.00000
-14.50000 13.00000 -9.00000
-14.50000 14.00000 -10.00000
-14.50000 14.00000 -9.00000
-15.00000 15.00000 -10.50000
-15.00000 14.50000 -10.00000
-15.00000 14.50000 -9.00000
-15.00000 15.00000 -8.50000
-15.00000 16.00000 -10.50000
-14.50000 16.00000 -8.00000
-15.00000 16.00000 -8.50000
-15.00000 16.50000 -10.00000
-14.50000 17.00000 -10.00000
-15.00000 17.00000 -9.50000
-14.50000 17.00000 -8.00000
-15.00000 17.00000 -8.50000
-15.00000 17.50000 -9.00000
-14.50000 18.00000 -8.00000
-15.50000 15.00000 -10.00000
-15.50000 15.00000 -9.00000
-15.50000 16.00000 -10.00000
-15.50000 16.00000 -9.00000
-15.50000 17.00000 -9.00000
3 2 1 0
3 4 3 0
3 0 3 2
3 4 5 3
3 0 1 6
3 6 1 7
3 0 8 4
3 0 6 8
3 5 4 9
3 4 10 9
3 4 8 10
3 12 11 10
3 10 11 9
3 12 13 11
3 6 7 14
3 14 7 15
3 6 16 8
3 6 14 16
3 8 17 10
3 8 16 17
3 10 18 12
3 10 17 18
3 13 12 19
3 19 12 18
3 15 20 14
3 14 20 16
3 16 20 21
3 16 21 17
3 17 21 22
3 17 22 18
3 18 22 23
3 18 23 19
3 26 25 24
3 1 2 24
3 2 26 24
3 2 27 26
3 28 2 3
3 28 27 2
3 3 5 28
3 28 5 29
3 32 31 30
3 32 30 25
3 30 24 25
3 30 33 24
3 33 7 1
3 33 1 24
3 34 29 5
3 34 5 9
3 35 9 11
3 35 34 9
3 37 36 13
3 36 11 13
3 36 35 11
3 37 38 36
3 30 31 39
3 39 31 40
3 30 41 33
3 30 39 41
3 41 15 7
3 41 7 33
3 19 42 37
3 19 37 13
3 38 37 43
3 43 37 42
3 39 40 44
3 44 40 45
3 39 46 41
3 39 44 46
3 47 20 15
3 41 47 15
3 46 47 41
3 48 21 20
3 48 20 47
3 49 22 21
3 49 21 48
3 50 23 22
3 50 22 49
3 42 19 23
3 50 42 23
3 51 42 50
3 43 42 52
3 52 42 51
3 45 53 44
3 55 54 53
3 54 44 53
3 54 46 44
3 46 56 47
3 46 54 56
3 47 57 48
3 47 56 57
3 48 58 49
3 48 57 58
3 49 59 50
3 49 58 59
3 61 51 60
3 51 59 60
3 51 50 59
3 51 61 52
3 54 55 62
3 62 55 63
3 54 64 56
3 54 62 64
3 56 65 57
3 56 64 65
3 57 66 58
3 57 65 66
3 58 67 59
3 58 66 67
3 60 59 68
3 68 59 67
3 62 63 69
3 69 63 70
3 62 71 64
3 62 69 71
3 64 72 65
3 64 71 72
3 65 73 66
3 65 72 73
3 66 74 67
3 66 73 74
3 68 67 75
3 75 67 74
3 70 76 69
3 78 77 76
3 77 69 76
3 77 71 69
3 71 79 72
3 71 77 79
3 72 80 73
3 72 79 80
3 73 81 74
3 73 80 81
3 75 74 82
3 74 83 82
3 74 81 83
3 83 84 82
3 78 85 77
3 87 86 85
3 86 77 85
3 86 79 77
3 79 88 80
3 79 86 88
3 80 89 81
3 80 88 89
3 81 90 83
3 81 89 90
3 84 83 91
3 91 83 90
3 87 92 86
3 94 93 92
3 93 86 92
3 93 88 86
3 88 95 89
3 88 93 95
3 89 96 90
3 89 95 96
3 91 90 97
3 97 90 96
3 94 98 93
3 100 99 98
3 99 93 98
3 99 95 93
3 95 101 96
3 95 99 101
3 97 96 102
3 102 96 101
3 100 103 99
3 99 103 101
3 101 103 104
3 104 105 101
3 105 106 101
3 107 102 101
3 107 101 106
3 106 108 107
3 106 105 109
3 109 105 110
3 108 106 111
3 111 106 109
3 110 112 109
3 109 112 111
3 115 114 113
3 117 116 113
3 113 116 115
3 117 118 116
3 113 114 119
3 119 114 120
3 113 121 117
3 113 119 121
3 118 117 122
3 117 123 122
3 117 121 123
3 25 26 123
3 26 122 123
3 26 124 122
3 125 26 27
3 125 124 26
3 126 27 28
3 126 125 27
3 28 29 126
3 126 29 127
3 119 120 128
3 128 120 129
3 119 130 121
3 119 128 130
3 130 31 32
3 123 130 32
3 121 130 123
3 123 32 25
3 131 127 29
3 131 29 34
3 132 34 35
3 132 131 34
3 134 132 133
3 132 36 133
3 132 35 36
3 38 133 36
3 128 129 135
3 135 129 136
3 128 137 130
3 128 135 137
3 137 40 31
3 137 31 130
3 134 133 138
3 134 138 139
3 43 138 38
3 38 138 133
3 142 141 140
3 142 140 136
3 140 135 136
3 140 143 135
3 135 144 137
3 135 143 144
3 144 45 40
3 144 40 137
3 139 138 145
3 139 145 146
3 52 145 43
3 43 145 138
3 141 147 140
3 149 148 147
3 148 140 147
3 148 143 140
3 143 150 144
3 143 148 150
3 151 53 45
3 144 151 45
3 150 151 144
3 151 55 53
3 146 145 61
3 60 146 61
3 152 146 60
3 61 145 52
3 148 149 153
3 153 149 154
3 148 155 150
3 148 153 155
3 150 156 151
3 150 155 156
3 156 63 55
3 156 55 151
3 68 152 60
3 68 157 152
3 154 158 153
3 160 159 158
3 159 153 158
3 159 155 153
3 155 161 156
3 155 159 161
3 161 70 63
3 161 63 156
3 75 157 68
3 75 162 157
3 160 163 159
3 165 164 163
3 164 159 163
3 164 161 159
3 166 76 70
3 161 166 70
3 164 166 161
3 166 78 76
3 75 82 167
3 168 75 167
3 162 75 168
3 84 167 82
3 165 169 164
3 171 170 169
3 170 164 169
3 170 166 164
3 172 85 78
3 166 172 78
3 170 172 166
3 172 87 85
3 168 167 173
3 168 173 174
3 91 173 84
3 84 173 167
3 171 175 170
3 170 175 172
3 172 175 176
3 176 178 177
3 176 177 92
3 172 176 92
3 87 172 92
3 177 94 92
3 179 174 173
3 173 91 179
3 91 180 179
3 91 97 180
3 178 181 177
3 181 183 182
3 181 182 98
3 177 181 98
3 94 177 98
3 182 100 98
3 102 180 97
3 102 184 180
3 183 185 182
3 185 187 186
3 185 186 103
3 182 185 103
3 100 182 103
3 188 104 103
3 188 103 186
3 105 104 188
3 107 189 102
3 190 102 189
3 102 190 184
3 108 189 107
3 187 191 186
3 193 192 191
3 192 186 191
3 192 188 186
3 192 105 188
3 105 192 110
3 190 189 194
3 195 194 189
3 111 195 108
3 108 195 189
3 193 196 192
3 195 110 192
3 110 195 112
3 197 112 195
3 198 197 195
3 197 198 199
3 194 199 198
3 199 194 196
3 192 196 194
3 195 192 194
3 198 195 200
3 195 111 200
3 112 197 200
3 112 200 111
3 199 201 197
3 197 201 200
3 204 203 202
3 206 205 202
3 202 205 204
3 114 115 206
3 115 205 206
3 115 207 205
3 208 115 116
3 208 207 115
3 210 209 118
3 209 116 118
3 209 208 116
3 210 211 209
3 203 212 202
3 214 213 212
3 213 202 212
3 213 206 202
3 213 120 114
3 213 114 206
3 122 210 118
3 215 211 210
3 122 215 210
3 124 215 122
3 216 124 125
3 216 215 124
3 218 216 217
3 216 126 217
3 216 125 126
3 127 217 126
3 221 220 219
3 221 219 214
3 219 213 214
3 219 222 213
3 222 129 120
3 222 120 213
3 223 218 217
3 225 223 224
3 224 223 131
3 223 217 131
3 217 127 131
3 132 226 131
3 131 226 224
3 134 226 132
3 229 228 227
3 229 227 220
3 227 219 220
3 227 230 219
3 219 231 222
3 219 230 231
3 231 136 129
3 231 129 222
3 232 225 224
3 234 233 232
3 224 234 232
3 226 234 224
3 139 234 134
3 134 234 226
3 227 228 235
3 235 228 236
3 227 237 230
3 227 235 237
3 237 141 142
3 231 237 142
3 230 237 231
3 231 142 136
3 233 234 238
3 233 238 239
3 146 238 139
3 139 238 234
3 235 236 240
3 240 236 241
3 235 242 237
3 235 240 242
3 243 147 141
3 237 243 141
3 242 243 237
3 243 149 147
3 239 238 244
3 239 244 245
3 152 244 146
3 146 244 238
3 241 246 240
3 240 246 242
3 242 246 247
3 249 248 247
3 248 242 247
3 248 243 242
3 248 154 149
3 248 149 243
3 245 244 250
3 245 250 251
3 157 250 152
3 152 250 244
3 249 252 248
3 252 254 253
3 252 253 158
3 248 252 158
3 154 248 158
3 253 160 158
3 251 250 255
3 251 255 256
3 162 255 157
3 157 255 250
3 254 257 253
3 257 259 258
3 257 258 163
3 253 257 163
3 160 253 163
3 258 165 163
3 256 255 260
3 256 260 261
3 168 260 162
3 162 260 255
3 259 262 258
3 262 264 263
3 262 263 169
3 258 262 169
3 165 258 169
3 263 171 169
3 265 261 260
3 260 168 265
3 168 266 265
3 168 174 266
3 264 267 263
3 267 269 268
3 267 268 175
3 263 267 175
3 171 263 175
3 270 176 175
3 270 175 268
3 270 178 176
3 174 179 271
3 272 174 271
3 266 174 272
3 180 271 179
3 269 273 268
3 275 274 273
3 274 268 273
3 274 270 268
3 276 181 178
3 270 276 178
3 274 276 270
3 276 183 181
3 272 271 277
3 272 277 278
3 184 277 180
3 180 277 271
3 275 279 274
3 281 280 279
3 280 274 279
3 280 276 274
3 282 185 183
3 276 282 183
3 280 282 276
3 282 187 185
3 283 278 277
3 277 184 283
3 184 284 283
3 184 190 284
3 281 285 280
3 287 286 285
3 286 280 285
3 286 282 280
3 288 191 187
3 282 288 187
3 286 288 282
3 288 193 191
3 194 284 190
3 194 289 284
3 287 290 286
3 292 291 290
3 291 286 290
3 291 288 286
3 293 196 193
3 288 293 193
3 291 293 288
3 199 196 293
3 198 294 194
3 295 194 294
3 194 295 289
3 200 294 198
3 292 296 291
3 298 297 296
3 297 291 296
3 297 293 291
3 295 294 299
3 201 299 294
3 299 201 297
3 199 297 201
3 297 199 293
3 201 294 200
3 298 300 297
3 297 300 299
3 302 301 204
3 204 301 203
3 303 204 205
3 303 302 204
3 304 205 207
3 304 303 205
3 305 207 208
3 305 304 207
3 306 208 209
3 306 305 208
3 209 211 306
3 306 211 307
3 310 309 308
3 308 311 212
3 301 308 212
3 203 301 212
3 308 301 310
3 311 214 212
3 312 307 211
3 312 211 215
3 314 312 313
3 312 216 313
3 312 215 216
3 218 313 216
3 317 316 315
3 317 315 309
3 315 308 309
3 315 318 308
3 318 220 221
3 311 318 221
3 308 318 311
3 311 221 214
3 319 314 313
3 321 319 320
3 320 319 223
3 319 313 223
3 313 218 223
3 225 320 223
3 324 323 322
3 324 322 316
3 322 315 316
3 322 325 315
3 325 228 229
3 318 325 229
3 315 325 318
3 318 229 220
3 321 320 326
3 321 326 327
3 232 328 225
3 328 320 225
3 328 326 320
3 233 328 232
3 322 323 329
3 329 323 330
3 322 331 325
3 322 329 331
3 331 236 228
3 331 228 325
3 332 327 326
3 334 333 332
3 326 334 332
3 328 334 326
3 239 334 233
3 233 334 328
3 330 335 329
3 337 336 335
3 336 329 335
3 336 331 329
3 336 241 236
3 336 236 331
3 333 334 338
3 333 338 339
3 245 338 239
3 239 338 334
3 337 340 336
3 340 342 341
3 340 341 246
3 336 340 246
3 241 336 246
3 343 247 246
3 343 246 341
3 343 249 247
3 339 338 344
3 339 344 345
3 251 344 245
3 245 344 338
3 342 346 341
3 341 346 343
3 343 346 347
3 347 349 348
3 347 348 252
3 343 347 252
3 249 343 252
3 348 254 252
3 345 344 350
3 345 350 351
3 256 350 251
3 251 350 344
3 348 349 352
3 352 349 353
3 354 257 254
3 348 354 254
3 352 354 348
3 354 259 257
3 351 350 355
3 351 355 356
3 261 355 256
3 256 355 350
3 353 357 352
3 359 358 357
3 358 352 357
3 358 354 352
3 360 262 259
3 354 360 259
3 358 360 354
3 360 264 262
3 361 356 355
3 363 361 362
3 362 361 265
3 361 355 265
3 355 261 265
3 266 362 265
3 359 364 358
3 366 365 364
3 365 358 364
3 365 360 358
3 367 267 264
3 360 367 264
3 365 367 360
3 367 269 267
3 363 362 368
3 363 368 369
3 272 368 266
3 266 368 362
3 366 370 365
3 372 371 370
3 371 365 370
3 371 367 365
3 373 273 269
3 367 373 269
3 371 373 367
3 373 275 273
3 369 368 374
3 369 374 375
3 278 374 272
3 272 374 368
3 372 376 371
3 378 377 376
3 377 371 376
3 377 373 371
3 379 279 275
3 373 379 275
3 377 379 373
3 379 281 279
3 380 375 374
3 382 380 381
3 381 380 283
3 380 374 283
3 374 278 283
3 284 381 283
3 378 383 377
3 385 384 383
3 384 377 383
3 384 379 377
3 386 285 281
3 379 386 281
3 384 386 379
3 386 287 285
3 382 381 387
3 382 387 388
3 289 387 284
3 284 387 381
3 385 389 384
3 391 390 389
3 390 384 389
3 390 386 384
3 392 290 287
3 386 392 287
3 390 392 386
3 392 292 290
3 393 388 387
3 387 289 393
3 289 394 393
3 289 295 394
3 391 395 390
3 390 395 392
3 392 395 396
3 396 398 397
3 396 397 296
3 392 396 296
3 292 392 296
3 397 298 296
3 299 394 295
3 299 399 394
3 398 400 397
3 397 400 298
3 400 300 298
3 400 401 300
3 299 300 399
3 399 300 401
3 404 403 402
3 301 302 402
3 302 404 402
3 302 405 404
3 406 302 303
3 406 405 302
3 407 303 304
3 407 406 303
3 408 304 305
3 408 407 304
3 410 408 409
3 408 306 409
3 408 305 306
3 307 409 306
3 413 412 411
3 413 411 403
3 403 411 402
3 411 309 402
3 309 310 402
3 402 310 301
3 414 410 409
3 416 414 415
3 415 414 312
3 414 409 312
3 409 307 312
3 314 415 312
3 419 418 417
3 419 417 412
3 412 417 411
3 417 316 411
3 316 317 411
3 411 317 309
3 420 416 415
3 422 420 421
3 421 420 319
3 420 415 319
3 415 314 319
3 321 421 319
3 417 418 324
3 418 323 324
3 418 423 323
3 417 324 316
3 422 421 424
3 422 424 425
3 327 424 321
3 321 424 421
3 428 427 426
3 423 428 426
3 330 423 426
3 323 423 330
3 429 425 424
3 431 429 430
3 430 429 332
3 429 424 332
3 424 327 332
3 333 430 332
3 427 432 426
3 432 434 433
3 432 433 335
3 426 432 335
3 330 426 335
3 433 337 335
3 431 430 435
3 431 435 436
3 339 435 333
3 333 435 430
3 434 437 433
3 437 439 438
3 437 438 340
3 433 437 340
3 337 433 340
3 438 342 340
3 442 441 440
3 440 441 436
3 435 440 436
3 443 440 435
3 345 443 339
3 339 443 435
3 439 444 438
3 438 444 342
3 444 346 342
3 444 445 346
3 445 447 446
3 347 445 446
3 346 445 347
3 446 349 347
3 448 442 440
3 450 449 448
3 440 450 448
3 443 450 440
3 351 450 345
3 345 450 443
3 447 451 446
3 349 446 451
3 452 349 451
3 353 349 452
3 449 450 453
3 449 453 454
3 356 453 351
3 351 453 450
3 357 353 455
3 353 456 455
3 353 452 456
3 455 359 357
3 457 454 453
3 459 457 458
3 458 457 361
3 457 453 361
3 453 356 361
3 363 458 361
3 456 460 455
3 460 462 461
3 460 461 364
3 455 460 364
3 359 455 364
3 461 366 364
3 459 458 463
3 459 463 464
3 369 463 363
3 363 463 458
3 462 465 461
3 465 467 466
3 465 466 370
3 461 465 370
3 366 461 370
3 466 372 370
3 464 463 468
3 464 468 469
3 375 468 369
3 369 468 463
3 467 470 466
3 470 472 471
3 470 471 376
3 466 470 376
3 372 466 376
3 471 378 376
3 473 469 468
3 475 473 474
3 474 473 380
3 473 468 380
3 468 375 380
3 382 474 380
3 472 476 471
3 476 478 477
3 476 477 383
3 471 476 383
3 378 471 383
3 477 385 383
3 479 475 474
3 474 382 479
3 382 480 479
3 382 388 480
3 478 481 477
3 481 483 482
3 481 482 389
3 477 481 389
3 385 477 389
3 482 391 389
3 388 393 484
3 485 388 484
3 480 388 485
3 394 484 393
3 483 486 482
3 486 488 487
3 486 487 395
3 482 486 395
3 391 482 395
3 489 396 395
3 489 395 487
3 489 398 396
3 485 484 490
3 485 490 491
3 399 490 394
3 394 490 484
3 488 492 487
3 487 492 489
3 489 492 493
3 493 495 494
3 493 494 400
3 489 493 400
3 398 489 400
3 496 491 490
3 400 496 490
3 401 400 490
3 496 400 494
3 401 490 399
3 495 497 494
3 494 497 496
3 500 499 498
3 403 404 498
3 404 500 498
3 404 501 500
3 502 404 405
3 502 501 404
3 503 405 406
3 503 502 405
3 504 406 407
3 504 503 406
3 505 407 408
3 505 504 407
3 408 410 505
3 505 410 506
3 498 499 413
3 499 412 413
3 499 507 412
3 498 413 403
3 508 506 410
3 508 410 414
3 414 416 508
3 508 416 509
3 511 510 419
3 419 510 418
3 419 412 507
3 419 507 511
3 416 420 512
3 513 416 512
3 509 416 513
3 422 512 420
3 516 515 514
3 510 516 514
3 423 510 514
3 418 510 423
3 517 513 512
3 512 422 517
3 422 518 517
3 422 425 518
3 514 515 428
3 515 427 428
3 515 519 427
3 514 428 423
3 425 429 520
3 521 425 520
3 518 425 521
3 431 520 429
3 432 427 522
3 427 523 522
3 427 519 523
3 522 434 432
3 521 520 524
3 521 524 525
3 436 524 431
3 431 524 520
3 523 526 522
3 522 526 434
3 526 437 434
3 526 527 437
3 439 437 527
3 439 527 528
3 525 524 441
3 442 525 441
3 529 525 442
3 441 524 436
3 528 530 439
3 439 530 444
3 530 532 531
3 445 530 531
3 444 530 445
3 531 447 445
3 442 448 533
3 534 442 533
3 529 442 534
3 449 533 448
3 532 535 531
3 535 537 536
3 535 536 451
3 531 535 451
3 447 531 451
3 536 452 451
3 534 533 538
3 534 538 539
3 454 538 449
3 449 538 533
3 537 540 536
3 452 536 540
3 541 452 540
3 456 452 541
3 539 538 542
3 539 542 543
3 457 544 454
3 544 538 454
3 544 542 538
3 459 544 457
3 460 456 545
3 456 546 545
3 456 541 546
3 545 462 460
3 543 542 547
3 543 547 548
3 549 542 544
3 547 542 549
3 464 549 459
3 459 549 544
3 546 550 545
3 550 552 551
3 550 551 465
3 545 550 465
3 462 545 465
3 551 467 465
3 553 548 547
3 555 554 553
3 547 555 553
3 549 555 547
3 469 555 464
3 464 555 549
3 551 552 556
3 556 552 557
3 558 470 467
3 551 558 467
3 556 558 551
3 558 472 470
3 559 554 555
3 561 559 560
3 560 559 473
3 559 555 473
3 555 469 473
3 475 560 473
3 557 562 556
3 564 563 562
3 563 556 562
3 563 558 556
3 565 476 472
3 558 565 472
3 563 565 558
3 565 478 476
3 566 561 560
3 568 566 567
3 567 566 479
3 566 560 479
3 560 475 479
3 480 567 479
3 564 569 563
3 571 570 569
3 570 563 569
3 570 565 563
3 572 481 478
3 565 572 478
3 570 572 565
3 572 483 481
3 568 567 573
3 568 573 574
3 485 573 480
3 480 573 567
3 571 575 570
3 577 576 575
3 576 570 575
3 576 572 570
3 578 486 483
3 572 578 483
3 576 578 572
3 578 488 486
3 579 574 573
3 573 485 579
3 485 580 579
3 485 491 580
3 577 581 576
3 576 581 578
3 578 581 582
3 582 584 583
3 582 583 492
3 578 582 492
3 488 578 492
3 585 493 492
3 585 492 583
3 495 493 585
3 588 587 586
3 586 580 588
3 580 496 588
3 580 491 496
3 584 589 583
3 583 589 585
3 585 589 590
3 587 588 590
3 588 497 590
3 495 585 590
3 495 590 497
3 497 588 496
3 592 591 500
3 500 591 499
3 593 500 501
3 593 592 500
3 594 501 502
3 594 593 501
3 595 502 503
3 595 594 502
3 596 503 504
3 596 595 503
3 598 596 597
3 596 505 597
3 596 504 505
3 506 597 505
3 601 600 599
3 591 601 599
3 507 591 599
3 499 591 507
3 602 598 597
3 604 602 603
3 603 602 508
3 602 597 508
3 597 506 508
3 509 603 508
3 599 600 511
3 600 510 511
3 600 605 510
3 599 511 507
3 606 604 603
3 603 509 606
3 509 607 606
3 509 513 607
3 609 608 516
3 516 608 515
3 516 510 605
3 516 605 609
3 610 607 513
3 610 513 517
3 517 518 610
3 610 518 611
3 608 519 515
3 612 519 608
3 521 611 518
3 521 613 611
3 612 523 519
3 614 523 612
3 525 613 521
3 525 615 613
3 614 616 523
3 523 616 526
3 526 617 527
3 616 617 526
3 528 527 617
3 528 617 618
3 529 615 525
3 529 619 615
3 618 620 528
3 528 620 530
3 532 530 620
3 532 620 621
3 624 623 622
3 623 619 622
3 619 534 622
3 619 529 534
3 621 625 532
3 532 625 535
3 537 535 625
3 537 625 626
3 624 622 627
3 624 627 628
3 539 627 534
3 534 627 622
3 540 537 629
3 537 630 629
3 537 626 630
3 629 541 540
3 628 627 631
3 628 631 632
3 543 631 539
3 539 631 627
3 630 633 629
3 541 629 633
3 634 541 633
3 546 541 634
3 632 631 635
3 632 635 636
3 548 635 543
3 543 635 631
3 550 546 637
3 546 638 637
3 546 634 638
3 637 552 550
3 639 636 635
3 641 639 640
3 640 639 553
3 639 635 553
3 635 548 553
3 554 640 553
3 638 642 637
3 552 637 642
3 643 552 642
3 557 552 643
3 644 641 640
3 646 644 645
3 645 644 559
3 644 640 559
3 640 554 559
3 561 645 559
3 643 647 557
3 557 647 562
3 564 562 647
3 564 647 648
3 649 646 645
3 651 649 650
3 650 649 566
3 649 645 566
3 645 561 566
3 568 650 566
3 569 564 652
3 564 653 652
3 564 648 653
3 652 571 569
3 651 650 654
3 651 654 655
3 574 654 568
3 568 654 650
3 653 656 652
3 656 658 657
3 656 657 575
3 652 656 575
3 571 652 575
3 657 577 575
3 659 655 654
3 661 659 660
3 660 659 579
3 659 654 579
3 654 574 579
3 580 660 579
3 658 662 657
3 657 662 577
3 662 581 577
3 662 663 581
3 581 664 582
3 663 664 581
3 584 582 664
3 584 664 665
3 668 667 666
3 666 667 661
3 666 661 660
3 587 666 660
3 586 587 660
3 586 660 580
3 665 669 584
3 584 669 589
3 666 590 668
3 590 669 668
3 590 589 669
3 590 666 587
3 670 591 592
3 593 671 592
3 592 671 670
3 594 672 593
3 593 672 671
3 595 673 594
3 594 673 672
3 596 674 595
3 595 674 673
3 598 674 596
3 675 600 601
3 591 670 601
3 670 675 601
3 670 676 675
3 677 670 671
3 676 670 677
3 678 671 672
3 677 671 678
3 679 672 673
3 678 672 679
3 680 673 674
3 679 673 680
3 602 681 598
3 681 674 598
3 681 680 674
3 604 681 602
3 682 605 675
3 675 605 600
3 683 675 676
3 682 675 683
3 684 676 677
3 683 676 684
3 685 677 678
3 684 677 685
3 679 687 686
3 685 679 686
3 678 679 685
3 687 679 680
3 687 680 688
3 688 680 681
3 688 681 689
3 691 689 690
3 690 689 606
3 689 681 606
3 681 604 606
3 607 690 606
3 693 692 609
3 609 692 608
3 609 605 682
3 694 609 682
3 693 609 694
3 694 682 683
3 694 683 695
3 695 683 684
3 695 684 696
3 696 684 685
3 696 685 697
3 697 685 686
3 698 691 690
3 700 698 699
3 699 698 610
3 698 690 610
3 690 607 610
3 611 699 610
3 692 612 608
3 701 612 692
3 700 699 702
3 700 702 703
3 613 702 611
3 611 702 699
3 705 614 704
3 614 701 704
3 614 612 701
3 706 705 704
3 707 703 702
3 702 613 707
3 613 708 707
3 613 615 708
3 705 616 614
3 706 709 705
3 709 616 705
3 709 617 616
3 618 617 709
3 618 709 710
3 619 708 615
3 619 711 708
3 710 712 618
3 618 712 620
3 621 620 712
3 621 712 713
3 715 714 623
3 715 623 624
3 619 623 711
3 711 623 714
3 713 716 621
3 621 716 625
3 626 625 716
3 626 716 717
3 720 719 718
3 719 715 718
3 715 628 718
3 715 624 628
3 717 630 626
3 721 630 717
3 720 718 722
3 720 722 723
3 632 722 628
3 628 722 718
3 721 724 630
3 630 724 633
3 634 633 724
3 634 724 725
3 726 723 722
3 722 632 726
3 632 727 726
3 632 636 727
3 725 638 634
3 728 638 725
3 636 639 729
3 730 636 729
3 727 636 730
3 641 729 639
3 728 731 638
3 638 731 642
3 643 642 731
3 643 731 732
3 733 730 729
3 735 733 734
3 734 733 644
3 733 729 644
3 729 641 644
3 646 734 644
3 647 643 736
3 643 737 736
3 643 732 737
3 736 648 647
3 735 734 738
3 735 738 739
3 649 740 646
3 740 734 646
3 740 738 734
3 651 740 649
3 737 741 736
3 648 736 741
3 742 648 741
3 653 648 742
3 743 739 738
3 745 744 743
3 738 745 743
3 740 745 738
3 655 745 651
3 651 745 740
3 656 653 746
3 653 747 746
3 653 742 747
3 746 658 656
3 748 744 745
3 750 748 749
3 749 748 659
3 748 745 659
3 745 655 659
3 661 749 659
3 747 751 746
3 746 751 658
3 751 662 658
3 751 752 662
3 662 753 663
3 752 753 662
3 663 754 664
3 753 754 663
3 756 755 665
3 664 756 665
3 754 756 664
3 755 756 750
3 755 750 749
3 668 755 749
3 667 668 749
3 667 749 661
3 755 669 665
3 669 755 668
3 757 686 687
3 688 758 687
3 687 758 757
3 689 759 688
3 688 759 758
3 691 759 689
3 760 692 693
3 694 761 693
3 693 761 760
3 695 762 694
3 694 762 761
3 696 763 695
3 695 763 762
3 697 764 696
3 696 764 763
3 686 757 697
3 757 764 697
3 757 765 764
3 766 757 758
3 765 757 766
3 767 758 759
3 766 758 767
3 698 768 691
3 768 759 691
3 768 767 759
3 700 768 698
3 769 701 760
3 760 701 692
3 770 760 761
3 769 760 770
3 771 761 762
3 770 761 771
3 772 762 763
3 771 762 772
3 773 763 764
3 772 763 773
3 774 764 765
3 773 764 774
3 775 765 766
3 774 765 775
3 776 766 767
3 775 766 776
3 777 767 768
3 776 767 777
3 703 777 700
3 700 777 768
3 769 704 701
3 704 769 706
3 769 778 706
3 769 770 778
3 771 780 779
3 778 771 779
3 770 771 778
3 780 771 772
3 780 772 781
3 781 772 773
3 781 773 782
3 784 783 782
3 773 784 782
3 774 784 773
3 785 774 775
3 784 774 785
3 776 787 786
3 785 776 786
3 775 776 785
3 787 776 777
3 787 777 788
3 790 788 789
3 789 788 707
3 788 777 707
3 777 703 707
3 708 789 707
3 778 709 706
3 792 791 710
3 792 710 709
3 779 792 709
3 778 779 709
3 793 791 792
3 794 783 784
3 794 784 785
3 794 785 795
3 795 785 786
3 790 789 796
3 790 796 797
3 711 796 708
3 708 796 789
3 791 712 710
3 713 712 791
3 793 713 791
3 798 713 793
3 797 796 714
3 715 797 714
3 799 797 715
3 714 796 711
3 798 800 713
3 713 800 716
3 717 716 800
3 717 800 801
3 803 802 719
3 803 719 720
3 715 719 799
3 799 719 802
3 801 721 717
3 804 721 801
3 723 803 720
3 723 805 803
3 804 806 721
3 721 806 724
3 725 724 806
3 725 806 807
3 723 726 808
3 809 723 808
3 805 723 809
3 727 808 726
3 807 728 725
3 810 728 807
3 811 809 808
3 808 727 811
3 727 812 811
3 727 730 812
3 810 813 728
3 728 813 731
3 732 731 813
3 732 813 814
3 730 733 815
3 816 730 815
3 812 730 816
3 735 815 733
3 814 737 732
3 817 737 814
3 818 816 815
3 815 735 818
3 735 819 818
3 735 739 819
3 741 737 820
3 737 821 820
3 737 817 821
3 820 742 741
3 739 743 822
3 823 739 822
3 819 739 823
3 744 822 743
3 821 824 820
3 742 820 824
3 825 742 824
3 747 742 825
3 823 822 826
3 823 826 827
3 748 828 744
3 828 822 744
3 828 826 822
3 750 828 748
3 825 829 747
3 747 829 751
3 751 830 752
3 829 830 751
3 752 831 753
3 830 831 752
3 826 754 827
3 754 831 827
3 754 753 831
3 754 826 756
3 756 826 828
3 756 828 750
3 832 779 780
3 781 833 780
3 780 833 832
3 782 834 781
3 781 834 833
3 783 834 782
3 835 786 787
3 788 836 787
3 787 836 835
3 790 836 788
3 832 792 779
3 792 832 793
3 832 837 793
3 832 833 837
3 838 833 834
3 837 833 838
3 794 839 783
3 839 834 783
3 839 838 834
3 795 840 794
3 794 840 839
3 786 835 795
3 835 840 795
3 835 841 840
3 842 835 836
3 841 835 842
3 797 842 790
3 790 842 836
3 843 798 837
3 837 798 793
3 844 837 838
3 843 837 844
3 845 838 839
3 844 838 845
3 846 839 840
3 845 839 846
3 847 840 841
3 846 840 847
3 848 841 842
3 847 841 848
3 799 848 797
3 797 848 842
3 843 800 798
3 843 844 849
3 801 843 849
3 850 801 849
3 843 801 800
3 849 844 845
3 849 845 851
3 851 845 846
3 851 846 852
3 852 846 847
3 852 847 853
3 803 854 802
3 854 847 802
3 847 848 802
3 854 853 847
3 802 848 799
3 856 804 855
3 804 850 855
3 804 801 850
3 857 856 855
3 805 854 803
3 805 858 854
3 856 806 804
3 807 806 856
3 857 807 856
3 859 807 857
3 809 858 805
3 809 860 858
3 862 810 861
3 810 859 861
3 810 807 859
3 863 862 861
3 809 811 864
3 865 809 864
3 860 809 865
3 812 864 811
3 862 813 810
3 814 813 862
3 863 814 862
3 866 814 863
3 867 865 864
3 864 812 867
3 812 868 867
3 812 816 868
3 866 817 814
3 869 817 866
3 816 818 870
3 871 816 870
3 868 816 871
3 819 870 818
3 869 821 817
3 872 821 869
3 873 871 870
3 870 819 873
3 819 874 873
3 819 823 874
3 872 875 821
3 821 875 824
3 825 824 875
3 825 875 876
3 827 874 823
3 827 877 874
3 876 878 825
3 825 878 829
3 829 879 830
3 878 879 829
3 830 880 831
3 879 880 830
3 827 831 877
3 877 831 880
3 881 850 849
3 851 882 849
3 849 882 881
3 852 883 851
3 851 883 882
3 853 884 852
3 852 884 883
3 854 884 853
3 881 855 850
3 881 882 885
3 857 881 885
3 886 857 885
3 881 857 855
3 888 887 885
3 882 888 885
3 883 888 882
3 889 883 884
3 888 883 889
3 858 889 854
3 854 889 884
3 886 859 857
3 890 859 886
3 891 887 888
3 891 888 889
3 891 889 892
3 889 858 892
3 858 893 892
3 858 860 893
3 890 894 859
3 859 894 861
3 863 861 894
3 863 894 895
3 865 893 860
3 865 896 893
3 895 866 863
3 897 866 895
3 865 867 898
3 899 865 898
3 896 865 899
3 868 898 867
3 897 869 866
3 900 869 897
3 901 899 898
3 898 868 901
3 868 902 901
3 868 871 902
3 900 872 869
3 903 872 900
3 871 873 904
3 905 871 904
3 902 871 905
3 874 904 873
3 903 906 872
3 872 906 875
3 908 907 876
3 875 908 876
3 906 908 875
3 909 907 908
3 905 904 910
3 905 910 911
3 877 910 874
3 874 910 904
3 907 878 876
3 909 912 907
3 912 878 907
3 912 879 878
3 910 880 911
3 880 912 911
3 880 879 912
3 880 910 877
3 913 886 885
3 887 913 885
3 914 890 913
3 913 890 886
3 891 915 887
3 915 913 887
3 915 914 913
3 892 916 891
3 891 916 915
3 893 916 892
3 914 894 890
3 894 914 895
3 914 917 895
3 914 915 917
3 918 915 916
3 917 915 918
3 896 918 893
3 893 918 916
3 920 919 917
3 919 895 917
3 919 897 895
3 920 917 918
3 920 918 921
3 918 896 921
3 896 922 921
3 896 899 922
3 919 900 897
3 923 900 919
3 899 901 924
3 925 899 924
3 922 899 925
3 902 924 901
3 927 903 926
3 903 923 926
3 903 900 923
3 928 927 926
3 925 924 929
3 925 929 930
3 905 929 902
3 902 929 924
3 927 906 903
3 928 931 927
3 931 906 927
3 931 908 906
3 929 932 909
3 931 929 909
3 908 931 909
3 930 929 931
3 911 932 905
3 905 932 929
3 932 912 909
3 912 932 911
3 933 919 920
3 921 934 920
3 920 934 933
3 922 934 921
3 935 923 933
3 933 923 919
3 936 933 934
3 935 933 936
3 925 936 922
3 922 936 934
3 935 926 923
3 926 935 928
3 935 937 928
3 935 936 937
3 930 937 925
3 925 937 936
3 937 931 928
3 931 937 930
