ply
format ascii 1.0
element vertex 1371
property float x
property float y
property float z
element face 2750
property list uchar int vertex_indices
end_header
39.50000 -29.00000 -11.00000
39.00000 -29.00000 -11.50000
39.00000 -29.50000 -11.00000
39.00000 -29.00000 -10.50000
39.50000 -28.00000 -12.00000
39.00000 -28.00000 -12.50000
39.00000 -28.50000 -12.00000
39.50000 -28.00000 -11.00000
39.00000 -28.00000 -10.50000
39.50000 -27.00000 -12.00000
39.00000 -27.00000 -12.50000
39.50000 -27.00000 -11.00000
39.00000 -27.00000 -10.50000
39.50000 -26.00000 -12.00000
39.00000 -26.00000 -12.50000
39.00000 -26.00000 -11.50000
39.00000 -26.50000 -11.00000
39.00000 -25.50000 -12.00000
39.50000 -20.00000 -16.00000
39.00000 -20.00000 -16.50000
39.00000 -20.50000 -16.00000
39.00000 -20.00000 -15.50000
39.50000 -19.00000 -17.00000
39.00000 -19.00000 -17.50000
39.00000 -19.50000 -17.00000
39.50000 -19.00000 -16.00000
39.00000 -19.00000 -15.50000
39.50000 -18.00000 -18.00000
39.00000 -18.00000 -18.50000
39.00000 -18.50000 -18.00000
39.50000 -18.00000 -17.00000
39.50000 -18.00000 -16.00000
39.00000 -18.00000 -15.50000
39.50000 -17.00000 -18.00000
39.00000 -17.00000 -18.50000
39.50000 -17.00000 -17.00000
39.00000 -17.00000 -16.50000
39.00000 -17.50000 -16.00000
39.50000 -16.00000 -19.00000
39.00000 -16.00000 -19.50000
39.00000 -16.50000 -19.00000
39.50000 -16.00000 -18.00000
39.50000 -16.00000 -17.00000
39.00000 -16.00000 -16.50000
39.50000 -15.00000 -19.00000
39.00000 -15.00000 -19.50000
39.50000 -15.00000 -18.00000
39.00000 -15.00000 -17.50000
39.00000 -15.50000 -17.00000
39.50000 -14.00000 -20.00000
39.00000 -14.00000 -20.50000
39.00000 -14.50000 -20.00000
39.50000 -14.00000 -19.00000
39.00000 -14.00000 -18.50000
39.00000 -14.50000 -18.00000
39.00000 -13.50000 -20.00000
39.00000 -13.50000 -19.00000
38.50000 -34.00000 -8.00000
38.00000 -34.00000 -8.50000
38.00000 -34.50000 -8.00000
38.00000 -34.00000 -7.50000
38.50000 -33.00000 -10.00000
38.00000 -33.00000 -10.50000
38.00000 -33.50000 -10.00000
38.00000 -33.50000 -9.00000
38.50000 -33.00000 -9.00000
38.50000 -33.00000 -8.00000
38.00000 -33.00000 -7.50000
38.50000 -32.00000 -10.00000
38.00000 -32.00000 -10.50000
38.50000 -32.00000 -9.00000
38.50000 -32.00000 -8.00000
38.00000 -32.00000 -7.50000
38.50000 -31.00000 -11.00000
38.00000 -31.00000 -11.50000
38.00000 -31.50000 -11.00000
38.50000 -31.00000 -10.00000
38.50000 -31.00000 -9.00000
38.00000 -31.00000 -8.50000
38.00000 -31.50000 -8.00000
38.50000 -30.00000 -12.00000
38.00000 -30.00000 -12.50000
38.00000 -30.50000 -12.00000
38.50000 -30.00000 -11.00000
38.50000 -30.00000 -10.00000
38.50000 -30.00000 -9.00000
38.00000 -30.00000 -8.50000
38.50000 -29.00000 -12.00000
38.00000 -29.00000 -12.50000
38.50000 -29.00000 -10.00000
38.50000 -29.00000 -9.00000
38.00000 -29.00000 -8.50000
38.00000 -28.00000 -12.50000
38.50000 -28.00000 -10.00000
38.00000 -28.00000 -9.50000
38.00000 -28.50000 -9.00000
38.00000 -27.00000 -12.50000
38.00000 -27.50000 -10.00000
38.00000 -27.00000 -10.50000
38.00000 -26.50000 -12.00000
38.50000 -26.00000 -12.00000
38.00000 -26.50000 -11.00000
38.50000 -20.00000 -16.00000
38.50000 -19.00000 -17.00000
38.00000 -19.00000 -16.50000
38.00000 -19.50000 -16.00000
38.00000 -19.00000 -15.50000
38.50000 -18.00000 -18.00000
38.00000 -18.00000 -17.50000
38.00000 -18.50000 -17.00000
38.00000 -18.00000 -15.50000
38.00000 -17.00000 -18.50000
38.00000 -17.50000 -18.00000
38.00000 -17.50000 -16.00000
38.00000 -17.00000 -16.50000
38.00000 -16.00000 -19.50000
38.00000 -16.50000 -19.00000
38.00000 -16.00000 -16.50000
38.50000 -15.00000 -20.00000
38.00000 -15.00000 -20.50000
38.00000 -15.50000 -20.00000
38.50000 -15.00000 -17.00000
38.00000 -15.00000 -16.50000
38.50000 -14.00000 -21.00000
38.00000 -14.00000 -21.50000
38.00000 -14.50000 -21.00000
38.50000 -14.00000 -18.00000
38.00000 -14.00000 -17.50000
38.00000 -14.50000 -17.00000
38.50000 -13.00000 -21.00000
38.00000 -13.00000 -21.50000
38.50000 -13.00000 -20.00000
38.50000 -13.00000 -19.00000
38.00000 -13.00000 -18.50000
38.00000 -13.50000 -18.00000
38.50000 -12.00000 -22.00000
38.00000 -12.00000 -22.50000
38.00000 -12.50000 -22.00000
38.50000 -12.00000 -21.00000
38.50000 -12.00000 -20.00000
38.00000 -12.00000 -19.50000
38.00000 -12.50000 -19.00000
38.50000 -11.00000 -22.00000
38.00000 -11.00000 -22.50000
38.50000 -11.00000 -21.00000
38.00000 -11.00000 -20.50000
38.00000 -11.50000 -20.00000
38.50000 -10.00000 -22.00000
38.00000 -10.00000 -22.50000
38.00000 -10.00000 -21.50000
38.00000 -10.50000 -21.00000
38.00000 -9.50000 -22.00000
37.50000 -34.00000 -9.00000
37.00000 -34.00000 -9.50000
37.00000 -34.50000 -9.00000
37.00000 -34.50000 -8.00000
37.00000 -34.50000 -7.00000
37.50000 -34.00000 -7.00000
37.00000 -34.00000 -6.50000
37.00000 -33.00000 -10.50000
37.00000 -33.50000 -10.00000
37.50000 -33.00000 -7.00000
37.00000 -33.00000 -6.50000
37.50000 -32.00000 -11.00000
37.00000 -32.00000 -11.50000
37.00000 -32.50000 -11.00000
37.50000 -32.00000 -7.00000
37.00000 -32.00000 -6.50000
37.00000 -31.00000 -11.50000
37.50000 -31.00000 -8.00000
37.50000 -31.00000 -7.00000
37.00000 -31.00000 -6.50000
37.50000 -30.00000 -12.00000
37.00000 -30.00000 -11.50000
37.50000 -30.00000 -8.00000
37.50000 -30.00000 -7.00000
37.00000 -30.00000 -6.50000
37.00000 -29.00000 -12.50000
37.00000 -29.50000 -12.00000
37.50000 -29.00000 -8.00000
37.00000 -29.00000 -7.50000
37.00000 -29.50000 -7.00000
37.00000 -28.50000 -12.00000
37.50000 -28.00000 -12.00000
37.00000 -28.00000 -11.50000
37.00000 -28.50000 -9.00000
37.00000 -28.00000 -9.50000
37.00000 -28.50000 -8.00000
37.50000 -27.00000 -12.00000
37.00000 -27.50000 -11.00000
37.50000 -27.00000 -11.00000
37.00000 -27.50000 -10.00000
37.50000 -19.00000 -16.00000
37.50000 -18.00000 -17.00000
37.50000 -18.00000 -16.00000
37.50000 -17.00000 -18.00000
37.50000 -17.00000 -17.00000
37.50000 -16.00000 -19.00000
37.00000 -16.00000 -18.50000
37.00000 -16.50000 -18.00000
37.00000 -16.50000 -17.00000
37.00000 -16.00000 -16.50000
37.50000 -15.00000 -20.00000
37.00000 -15.00000 -19.50000
37.00000 -15.50000 -19.00000
37.00000 -15.00000 -16.50000
37.50000 -14.00000 -21.00000
37.00000 -14.00000 -20.50000
37.00000 -14.50000 -20.00000
37.50000 -14.00000 -17.00000
37.00000 -14.00000 -16.50000
37.50000 -13.00000 -22.00000
37.00000 -13.00000 -22.50000
37.00000 -13.50000 -22.00000
37.00000 -13.50000 -21.00000
37.50000 -13.00000 -18.00000
37.00000 -13.00000 -17.50000
37.00000 -13.50000 -17.00000
37.50000 -12.00000 -23.00000
37.00000 -12.00000 -23.50000
37.00000 -12.50000 -23.00000
37.50000 -12.00000 -19.00000
37.00000 -12.00000 -18.50000
37.00000 -12.50000 -18.00000
37.50000 -11.00000 -23.00000
37.00000 -11.00000 -23.50000
37.50000 -11.00000 -20.00000
37.00000 -11.00000 -19.50000
37.00000 -11.50000 -19.00000
37.50000 -10.00000 -24.00000
37.00000 -10.00000 -24.50000
37.00000 -10.50000 -24.00000
37.50000 -10.00000 -23.00000
37.50000 -10.00000 -21.00000
37.00000 -10.00000 -20.50000
37.00000 -10.50000 -20.00000
37.50000 -9.00000 -24.00000
37.00000 -9.00000 -24.50000
37.50000 -9.00000 -23.00000
37.50000 -9.00000 -22.00000
37.00000 -9.00000 -21.50000
37.00000 -9.50000 -21.00000
37.50000 -8.00000 -24.00000
37.00000 -8.00000 -24.50000
37.50000 -8.00000 -23.00000
37.00000 -8.00000 -22.50000
37.00000 -8.50000 -22.00000
37.00000 -7.50000 -24.00000
37.00000 -7.50000 -23.00000
36.00000 -34.00000 -9.50000
36.00000 -34.50000 -9.00000
36.00000 -34.50000 -8.00000
36.00000 -34.50000 -7.00000
36.00000 -34.50000 -6.00000
36.50000 -34.00000 -6.00000
36.00000 -34.50000 -5.00000
36.50000 -34.00000 -5.00000
36.00000 -34.00000 -4.50000
36.00000 -33.00000 -10.50000
36.00000 -33.50000 -10.00000
36.50000 -33.00000 -6.00000
36.50000 -33.00000 -5.00000
36.00000 -33.00000 -4.50000
36.50000 -32.00000 -11.00000
36.00000 -32.00000 -10.50000
36.50000 -32.00000 -6.00000
36.50000 -32.00000 -5.00000
36.00000 -32.00000 -4.50000
36.50000 -31.00000 -11.00000
36.00000 -31.00000 -10.50000
36.50000 -31.00000 -6.00000
36.00000 -31.00000 -5.50000
36.00000 -31.50000 -5.00000
36.50000 -30.00000 -11.00000
36.00000 -30.50000 -10.00000
36.50000 -30.00000 -10.00000
36.00000 -30.00000 -9.50000
36.50000 -30.00000 -8.00000
36.00000 -30.50000 -8.00000
36.00000 -30.00000 -8.50000
36.00000 -30.00000 -7.50000
36.50000 -30.00000 -6.00000
36.00000 -30.00000 -5.50000
36.50000 -29.00000 -12.00000
36.50000 -29.00000 -11.00000
36.50000 -29.00000 -10.00000
36.00000 -29.50000 -9.00000
36.50000 -29.00000 -9.00000
36.50000 -29.00000 -8.00000
36.00000 -29.50000 -7.00000
36.50000 -29.00000 -6.00000
36.00000 -29.00000 -6.50000
36.00000 -29.00000 -5.50000
36.50000 -28.00000 -11.00000
36.50000 -28.00000 -10.00000
36.00000 -28.50000 -6.00000
36.50000 -16.00000 -18.00000
36.50000 -16.00000 -17.00000
36.50000 -15.00000 -19.00000
36.50000 -15.00000 -18.00000
36.50000 -15.00000 -17.00000
36.50000 -14.00000 -20.00000
36.50000 -14.00000 -19.00000
36.00000 -14.00000 -18.50000
36.00000 -14.50000 -18.00000
36.00000 -14.00000 -17.50000
36.50000 -14.00000 -17.00000
36.50000 -13.00000 -22.00000
36.50000 -13.00000 -21.00000
36.00000 -13.00000 -20.50000
36.00000 -13.50000 -20.00000
36.00000 -13.50000 -19.00000
36.00000 -13.00000 -17.50000
36.50000 -12.00000 -23.00000
36.00000 -12.00000 -22.50000
36.00000 -12.50000 -22.00000
36.00000 -12.50000 -21.00000
36.50000 -12.00000 -18.00000
36.00000 -12.00000 -17.50000
36.50000 -11.00000 -24.00000
36.00000 -11.00000 -24.50000
36.00000 -11.50000 -24.00000
36.00000 -11.50000 -23.00000
36.50000 -11.00000 -19.00000
36.00000 -11.00000 -18.50000
36.00000 -11.50000 -18.00000
36.50000 -10.00000 -25.00000
36.00000 -10.00000 -25.50000
36.00000 -10.50000 -25.00000
36.50000 -10.00000 -20.00000
36.00000 -10.00000 -19.50000
36.00000 -10.50000 -19.00000
36.50000 -9.00000 -25.00000
36.00000 -9.00000 -25.50000
36.50000 -9.00000 -21.00000
36.00000 -9.00000 -20.50000
36.00000 -9.50000 -20.00000
36.50000 -8.00000 -25.00000
36.00000 -8.00000 -25.50000
36.50000 -8.00000 -22.00000
36.00000 -8.00000 -21.50000
36.00000 -8.50000 -21.00000
36.50000 -7.00000 -25.00000
36.00000 -7.00000 -25.50000
36.50000 -7.00000 -24.00000
36.50000 -7.00000 -23.00000
36.00000 -7.00000 -22.50000
36.00000 -7.50000 -22.00000
36.00000 -6.50000 -25.00000
36.00000 -6.50000 -24.00000
36.00000 -6.50000 -23.00000
35.50000 -34.00000 -9.00000
35.50000 -34.00000 -8.00000
35.00000 -34.00000 -7.50000
35.00000 -34.50000 -7.00000
35.00000 -34.50000 -6.00000
35.00000 -34.50000 -5.00000
35.00000 -34.00000 -4.50000
35.50000 -33.00000 -10.00000
35.50000 -33.00000 -9.00000
35.50000 -33.00000 -8.00000
35.00000 -33.50000 -7.00000
35.50000 -33.00000 -7.00000
35.00000 -33.00000 -6.50000
35.00000 -33.50000 -4.00000
35.50000 -33.00000 -4.00000
35.00000 -33.50000 -3.00000
35.50000 -33.00000 -3.00000
35.00000 -33.00000 -2.50000
35.50000 -32.00000 -10.00000
35.50000 -32.00000 -9.00000
35.50000 -32.00000 -8.00000
35.50000 -32.00000 -7.00000
35.00000 -32.50000 -6.00000
35.50000 -32.00000 -6.00000
35.00000 -32.00000 -5.50000
35.50000 -32.00000 -4.00000
35.00000 -32.00000 -3.50000
35.00000 -32.50000 -3.00000
35.50000 -31.00000 -10.00000
35.50000 -31.00000 -9.00000
35.50000 -31.00000 -8.00000
35.50000 -31.00000 -7.00000
35.50000 -31.00000 -6.00000
35.50000 -31.50000 -5.50000
35.00000 -31.00000 -5.50000
35.50000 -31.00000 -5.00000
35.50000 -31.00000 -4.00000
35.00000 -31.00000 -3.50000
35.50000 -30.00000 -9.00000
35.50000 -30.00000 -7.00000
35.50000 -30.00000 -6.00000
35.50000 -30.00000 -5.00000
35.00000 -30.00000 -5.50000
35.00000 -30.00000 -4.50000
35.00000 -30.50000 -4.00000
35.50000 -29.00000 -6.00000
35.50000 -29.00000 -5.00000
35.00000 -29.00000 -5.50000
35.00000 -29.00000 -4.50000
35.00000 -28.00000 -6.50000
35.50000 -28.00000 -6.00000
35.00000 -28.50000 -6.00000
35.00000 -28.50000 -5.00000
35.00000 -28.00000 -5.50000
35.00000 -27.50000 -6.00000
35.50000 -14.00000 -18.00000
35.50000 -13.00000 -20.00000
35.50000 -13.00000 -19.00000
35.50000 -13.00000 -18.00000
35.50000 -12.00000 -22.00000
35.50000 -12.00000 -21.00000
35.50000 -12.00000 -20.00000
35.00000 -12.00000 -19.50000
35.00000 -12.50000 -19.00000
35.00000 -12.00000 -18.50000
35.50000 -12.00000 -18.00000
35.00000 -11.00000 -24.50000
35.00000 -11.50000 -24.00000
35.00000 -11.50000 -23.00000
35.00000 -11.50000 -22.00000
35.00000 -11.50000 -21.00000
35.00000 -11.50000 -20.00000
35.00000 -11.00000 -18.50000
35.00000 -10.00000 -25.50000
35.00000 -10.50000 -25.00000
35.50000 -10.00000 -19.00000
35.00000 -10.00000 -18.50000
35.50000 -9.00000 -26.00000
35.00000 -9.00000 -26.50000
35.00000 -9.50000 -26.00000
35.50000 -9.00000 -20.00000
35.00000 -9.00000 -19.50000
35.00000 -9.50000 -19.00000
35.50000 -8.00000 -26.00000
35.00000 -8.00000 -26.50000
35.50000 -8.00000 -21.00000
35.00000 -8.00000 -20.50000
35.00000 -8.50000 -20.00000
35.50000 -7.00000 -26.00000
35.00000 -7.00000 -26.50000
35.50000 -7.00000 -22.00000
35.00000 -7.00000 -21.50000
35.00000 -7.50000 -21.00000
35.50000 -6.00000 -26.00000
35.00000 -6.00000 -26.50000
35.50000 -6.00000 -25.00000
35.50000 -6.00000 -24.00000
35.00000 -6.00000 -23.50000
35.00000 -6.50000 -23.00000
35.00000 -6.50000 -22.00000
35.00000 -5.50000 -26.00000
35.00000 -5.50000 -25.00000
35.00000 -5.50000 -24.00000
34.50000 -34.00000 -7.00000
34.50000 -34.00000 -6.00000
34.50000 -34.00000 -5.00000
34.50000 -33.00000 -6.00000
34.50000 -33.00000 -5.00000
34.00000 -33.50000 -4.00000
34.00000 -33.00000 -4.50000
34.00000 -33.50000 -3.00000
34.00000 -33.50000 -2.00000
34.50000 -33.00000 -2.00000
34.00000 -33.00000 -1.50000
34.50000 -32.00000 -5.00000
34.00000 -32.00000 -4.50000
34.50000 -32.00000 -3.00000
34.00000 -32.00000 -2.50000
34.00000 -32.50000 -2.00000
34.00000 -31.00000 -5.50000
34.00000 -31.50000 -5.00000
34.50000 -31.00000 -3.00000
34.00000 -31.00000 -2.50000
34.00000 -30.00000 -5.50000
34.50000 -30.00000 -4.00000
34.00000 -30.00000 -3.50000
34.00000 -30.50000 -3.00000
34.00000 -29.00000 -5.50000
34.00000 -29.50000 -4.00000
34.00000 -29.00000 -4.50000
34.00000 -28.00000 -6.50000
34.00000 -28.50000 -6.00000
34.50000 -28.50000 -5.50000
34.50000 -28.00000 -5.00000
34.00000 -28.00000 -4.50000
34.50000 -27.00000 -6.00000
34.00000 -27.00000 -6.50000
34.00000 -27.00000 -5.50000
34.00000 -27.50000 -5.00000
34.00000 -26.50000 -6.00000
34.50000 -12.00000 -19.00000
34.50000 -11.00000 -24.00000
34.50000 -11.00000 -23.00000
34.50000 -11.00000 -22.00000
34.50000 -11.00000 -21.00000
34.50000 -11.00000 -20.00000
34.50000 -11.00000 -19.00000
34.00000 -10.00000 -25.50000
34.00000 -10.50000 -25.00000
34.00000 -10.50000 -24.00000
34.00000 -10.50000 -23.00000
34.00000 -10.00000 -22.50000
34.50000 -10.00000 -22.00000
34.00000 -10.00000 -21.50000
34.00000 -10.50000 -21.00000
34.00000 -10.50000 -20.00000
34.00000 -10.50000 -19.00000
34.00000 -10.00000 -18.50000
34.00000 -9.00000 -26.50000
34.00000 -9.50000 -26.00000
34.00000 -9.50000 -22.00000
34.50000 -9.00000 -19.00000
34.00000 -9.00000 -18.50000
34.00000 -8.00000 -26.50000
34.50000 -8.00000 -20.00000
34.00000 -8.00000 -19.50000
34.00000 -8.50000 -19.00000
34.50000 -7.00000 -27.00000
34.00000 -7.00000 -27.50000
34.00000 -7.50000 -27.00000
34.00000 -7.50000 -21.00000
34.00000 -7.00000 -21.50000
34.00000 -7.50000 -20.00000
34.50000 -6.00000 -27.00000
34.00000 -6.00000 -27.50000
34.50000 -6.00000 -23.00000
34.00000 -6.00000 -22.50000
34.00000 -6.50000 -22.00000
34.50000 -5.00000 -27.00000
34.00000 -5.00000 -27.50000
34.50000 -5.00000 -26.00000
34.50000 -5.00000 -25.00000
34.00000 -5.00000 -24.50000
34.00000 -5.50000 -24.00000
34.00000 -5.50000 -23.00000
34.00000 -4.50000 -27.00000
34.00000 -4.50000 -26.00000
34.00000 -4.50000 -25.00000
33.50000 -33.00000 -4.00000
33.00000 -33.00000 -3.50000
33.00000 -33.50000 -3.00000
33.00000 -33.50000 -2.00000
33.00000 -33.50000 -1.00000
33.50000 -33.00000 -1.00000
33.00000 -33.00000 -0.50000
33.00000 -32.00000 -4.50000
33.00000 -32.50000 -4.00000
33.50000 -32.00000 -2.00000
33.00000 -32.00000 -1.50000
33.00000 -32.50000 -1.00000
33.50000 -31.00000 -5.00000
33.00000 -31.00000 -4.50000
33.00000 -31.50000 -2.00000
33.00000 -31.00000 -2.50000
33.00000 -30.00000 -5.50000
33.00000 -30.50000 -5.00000
33.50000 -30.00000 -3.00000
33.00000 -30.00000 -2.50000
33.00000 -29.00000 -5.50000
33.50000 -29.00000 -4.00000
33.00000 -29.00000 -3.50000
33.00000 -29.50000 -3.00000
33.00000 -28.00000 -6.50000
33.00000 -28.50000 -6.00000
33.00000 -28.50000 -4.00000
33.00000 -28.00000 -4.50000
33.00000 -27.00000 -6.50000
33.00000 -27.50000 -5.00000
33.00000 -27.00000 -5.50000
33.00000 -26.50000 -6.00000
33.50000 -10.00000 -25.00000
33.50000 -10.00000 -24.00000
33.50000 -10.00000 -23.00000
33.50000 -10.00000 -21.00000
33.50000 -10.00000 -20.00000
33.50000 -10.00000 -19.00000
33.00000 -9.00000 -26.50000
33.00000 -9.50000 -26.00000
33.00000 -9.50000 -25.00000
33.00000 -9.50000 -24.00000
33.00000 -9.00000 -23.50000
33.50000 -9.00000 -23.00000
33.50000 -9.00000 -22.00000
33.00000 -9.00000 -21.50000
33.00000 -9.50000 -21.00000
33.00000 -9.50000 -20.00000
33.00000 -9.50000 -19.00000
33.00000 -9.00000 -18.50000
33.00000 -8.00000 -26.50000
33.00000 -8.50000 -23.00000
33.00000 -8.50000 -22.00000
33.50000 -8.00000 -19.00000
33.00000 -8.00000 -18.50000
33.00000 -7.00000 -27.50000
33.00000 -7.50000 -27.00000
33.50000 -7.00000 -21.00000
33.00000 -7.00000 -20.50000
33.00000 -7.50000 -20.00000
33.00000 -7.50000 -19.00000
33.00000 -6.00000 -27.50000
33.50000 -6.00000 -22.00000
33.00000 -6.00000 -21.50000
33.00000 -6.50000 -21.00000
33.00000 -5.00000 -27.50000
33.00000 -5.50000 -24.00000
33.00000 -5.00000 -24.50000
33.00000 -5.50000 -23.00000
33.00000 -5.50000 -22.00000
33.50000 -4.00000 -27.00000
33.00000 -4.00000 -27.50000
33.50000 -4.00000 -26.00000
33.00000 -4.00000 -25.50000
33.00000 -4.50000 -25.00000
33.00000 -3.50000 -27.00000
33.00000 -3.50000 -26.00000
32.50000 -33.00000 -3.00000
32.00000 -33.00000 -2.50000
32.00000 -33.50000 -2.00000
32.00000 -33.50000 -1.00000
32.00000 -33.50000 0.00000
32.50000 -33.00000 0.00000
32.00000 -33.00000 0.50000
32.50000 -32.00000 -4.00000
32.00000 -32.00000 -3.50000
32.00000 -32.50000 -3.00000
32.50000 -32.00000 -1.00000
32.00000 -32.00000 -0.50000
32.00000 -32.50000 0.00000
32.00000 -31.00000 -4.50000
32.00000 -31.50000 -4.00000
32.50000 -31.00000 -2.00000
32.00000 -31.00000 -1.50000
32.00000 -31.50000 -1.00000
32.50000 -30.00000 -5.00000
32.00000 -30.00000 -4.50000
32.00000 -30.50000 -2.00000
32.00000 -30.00000 -2.50000
32.00000 -29.00000 -5.50000
32.00000 -29.50000 -5.00000
32.00000 -29.50000 -3.00000
32.00000 -29.00000 -3.50000
32.50000 -28.00000 -6.00000
32.00000 -28.00000 -5.50000
32.00000 -28.50000 -4.00000
32.00000 -28.00000 -4.50000
32.50000 -27.00000 -6.00000
32.00000 -27.50000 -5.00000
32.50000 -9.00000 -26.00000
32.50000 -9.00000 -25.00000
32.50000 -9.00000 -24.00000
32.50000 -9.00000 -21.00000
32.00000 -9.00000 -20.50000
32.00000 -9.50000 -20.00000
32.00000 -9.50000 -19.00000
32.00000 -9.50000 -18.00000
32.50000 -9.00000 -18.00000
32.00000 -9.00000 -17.50000
32.00000 -8.00000 -26.50000
32.00000 -8.50000 -26.00000
32.00000 -8.50000 -25.00000
32.00000 -8.50000 -24.00000
32.00000 -8.50000 -23.00000
32.00000 -8.50000 -22.00000
32.00000 -8.50000 -21.00000
32.50000 -8.00000 -18.00000
32.00000 -8.00000 -17.50000
32.00000 -7.00000 -27.50000
32.00000 -7.50000 -27.00000
32.50000 -7.00000 -20.00000
32.50000 -7.00000 -19.00000
32.00000 -7.00000 -18.50000
32.00000 -7.50000 -18.00000
32.00000 -6.00000 -27.50000
32.00000 -6.50000 -21.00000
32.00000 -6.00000 -21.50000
32.00000 -6.50000 -20.00000
32.00000 -6.50000 -19.00000
32.00000 -5.00000 -27.50000
32.00000 -5.50000 -24.00000
32.00000 -5.00000 -24.50000
32.00000 -5.50000 -23.00000
32.00000 -5.50000 -22.00000
32.00000 -4.00000 -27.50000
32.50000 -4.00000 -26.00000
32.00000 -4.50000 -26.00000
32.00000 -4.00000 -26.50000
32.00000 -4.50000 -25.00000
32.00000 -3.50000 -27.00000
31.00000 -33.00000 -2.50000
31.00000 -33.50000 -2.00000
31.00000 -33.50000 -1.00000
31.00000 -33.50000 0.00000
31.00000 -33.50000 1.00000
31.50000 -33.00000 1.00000
31.00000 -33.00000 1.50000
31.00000 -32.00000 -3.50000
31.00000 -32.50000 -3.00000
31.50000 -32.00000 0.00000
31.00000 -32.00000 0.50000
31.00000 -32.50000 1.00000
31.00000 -31.00000 -4.50000
31.00000 -31.50000 -4.00000
31.50000 -31.00000 -1.00000
31.00000 -31.00000 -0.50000
31.00000 -31.50000 0.00000
31.00000 -30.00000 -4.50000
31.00000 -30.50000 -2.00000
31.00000 -30.00000 -2.50000
31.00000 -30.50000 -1.00000
31.50000 -29.00000 -5.00000
31.00000 -29.50000 -4.00000
31.50000 -29.00000 -4.00000
31.00000 -29.50000 -3.00000
31.50000 -28.00000 -5.00000
31.50000 -16.00000 -12.00000
31.00000 -16.00000 -12.50000
31.00000 -16.50000 -12.00000
31.00000 -16.00000 -11.50000
31.00000 -15.50000 -12.00000
31.50000 -9.00000 -20.00000
31.00000 -9.00000 -19.50000
31.00000 -9.50000 -19.00000
31.00000 -9.50000 -18.00000
31.00000 -9.50000 -17.00000
31.50000 -9.00000 -17.00000
31.00000 -9.00000 -16.50000
31.50000 -8.00000 -26.00000
31.50000 -8.00000 -25.00000
31.50000 -8.00000 -24.00000
31.50000 -8.00000 -23.00000
31.50000 -8.00000 -22.00000
31.00000 -8.00000 -21.50000
31.00000 -8.50000 -21.00000
31.00000 -8.50000 -20.00000
31.00000 -8.50000 -17.00000
31.00000 -8.00000 -17.50000
31.00000 -7.00000 -27.50000
31.00000 -7.50000 -27.00000
31.00000 -7.50000 -26.00000
31.00000 -7.50000 -25.00000
31.00000 -7.50000 -24.00000
31.00000 -7.50000 -23.00000
31.00000 -7.50000 -22.00000
31.00000 -7.50000 -18.00000
31.00000 -7.00000 -18.50000
31.00000 -6.00000 -27.50000
31.50000 -6.00000 -23.00000
31.00000 -6.50000 -23.00000
31.00000 -6.00000 -23.50000
31.50000 -6.00000 -22.00000
31.00000 -6.50000 -22.00000
31.50000 -6.00000 -21.00000
31.00000 -6.00000 -21.50000
31.00000 -6.00000 -20.50000
31.00000 -6.50000 -20.00000
31.00000 -6.50000 -19.00000
31.00000 -5.00000 -27.50000
31.50000 -5.00000 -25.00000
31.00000 -5.50000 -25.00000
31.00000 -5.00000 -25.50000
31.00000 -5.50000 -24.00000
31.00000 -5.50000 -21.00000
31.00000 -4.50000 -27.00000
31.50000 -4.00000 -27.00000
31.00000 -4.50000 -26.00000
30.50000 -33.00000 -2.00000
30.00000 -33.00000 -1.50000
30.00000 -33.50000 -1.00000
30.00000 -33.50000 0.00000
30.00000 -33.50000 1.00000
30.00000 -33.00000 1.50000
30.50000 -32.00000 -3.00000
30.00000 -32.00000 -2.50000
30.00000 -32.50000 -2.00000
30.00000 -32.50000 1.00000
30.00000 -32.00000 0.50000
30.50000 -31.00000 -4.00000
30.50000 -31.00000 -3.00000
30.00000 -31.00000 -2.50000
30.50000 -31.00000 -1.00000
30.00000 -31.50000 -1.00000
30.00000 -31.00000 -1.50000
30.00000 -31.50000 0.00000
30.50000 -30.00000 -4.00000
30.50000 -30.00000 -3.00000
30.00000 -30.50000 -2.00000
30.50000 -17.00000 -12.00000
30.00000 -17.00000 -12.50000
30.00000 -17.50000 -12.00000
30.00000 -17.50000 -11.00000
30.50000 -17.00000 -11.00000
30.00000 -17.00000 -10.50000
30.50000 -16.00000 -13.00000
30.00000 -16.00000 -13.50000
30.00000 -16.50000 -13.00000
30.00000 -16.50000 -11.00000
30.00000 -16.00000 -11.50000
30.50000 -15.00000 -13.00000
30.00000 -15.00000 -13.50000
30.50000 -15.00000 -12.00000
30.00000 -15.00000 -11.50000
30.50000 -14.00000 -13.00000
30.00000 -14.00000 -13.50000
30.00000 -14.00000 -12.50000
30.00000 -14.50000 -12.00000
30.50000 -13.00000 -14.00000
30.00000 -13.00000 -14.50000
30.00000 -13.50000 -14.00000
30.50000 -13.00000 -13.00000
30.00000 -13.00000 -12.50000
30.50000 -12.00000 -14.00000
30.00000 -12.00000 -14.50000
30.00000 -12.00000 -13.50000
30.00000 -12.50000 -13.00000
30.50000 -11.00000 -15.00000
30.00000 -11.00000 -15.50000
30.00000 -11.50000 -15.00000
30.00000 -11.50000 -14.00000
30.00000 -11.00000 -14.50000
30.50000 -10.00000 -17.00000
30.00000 -10.00000 -17.50000
30.00000 -10.50000 -17.00000
30.00000 -10.50000 -16.00000
30.50000 -10.00000 -16.00000
30.00000 -10.50000 -15.00000
30.00000 -10.00000 -15.50000
30.00000 -9.00000 -19.50000
30.00000 -9.50000 -19.00000
30.00000 -9.50000 -18.00000
30.00000 -9.50000 -16.00000
30.00000 -9.00000 -16.50000
30.50000 -8.00000 -21.00000
30.00000 -8.00000 -20.50000
30.00000 -8.50000 -20.00000
30.50000 -8.00000 -17.00000
30.00000 -8.00000 -16.50000
30.00000 -7.00000 -27.50000
30.00000 -7.50000 -27.00000
30.00000 -7.50000 -26.00000
30.50000 -7.00000 -25.00000
30.00000 -7.00000 -25.50000
30.50000 -7.00000 -24.00000
30.50000 -7.00000 -23.00000
30.50000 -7.00000 -22.00000
30.00000 -7.00000 -21.50000
30.00000 -7.50000 -21.00000
30.50000 -7.00000 -18.00000
30.00000 -7.00000 -17.50000
30.00000 -7.50000 -17.00000
30.00000 -6.00000 -27.50000
30.00000 -6.50000 -25.00000
30.00000 -6.00000 -24.50000
30.50000 -6.00000 -24.00000
30.50000 -6.00000 -21.00000
30.00000 -6.50000 -21.00000
30.00000 -6.50000 -20.00000
30.00000 -6.50000 -19.00000
30.00000 -6.50000 -18.00000
30.50000 -5.00000 -28.00000
30.00000 -5.00000 -28.50000
30.00000 -5.50000 -28.00000
30.00000 -5.50000 -25.00000
30.00000 -5.00000 -25.50000
30.00000 -4.50000 -28.00000
30.00000 -4.50000 -27.00000
30.00000 -4.50000 -26.00000
29.50000 -33.00000 -1.00000
29.50000 -33.00000 0.00000
29.00000 -33.00000 0.50000
29.00000 -33.50000 1.00000
29.00000 -33.00000 1.50000
29.50000 -32.00000 -2.00000
29.50000 -32.00000 -1.00000
29.50000 -32.00000 0.00000
29.00000 -32.50000 1.00000
29.50000 -31.00000 -2.00000
29.00000 -17.00000 -12.50000
29.00000 -17.50000 -12.00000
29.00000 -17.50000 -11.00000
29.00000 -17.00000 -10.50000
29.00000 -16.00000 -13.50000
29.00000 -16.50000 -13.00000
29.50000 -16.00000 -11.00000
29.00000 -16.00000 -10.50000
29.00000 -15.00000 -13.50000
29.00000 -15.50000 -11.00000
29.00000 -15.00000 -11.50000
29.50000 -14.00000 -14.00000
29.00000 -14.00000 -14.50000
29.00000 -14.50000 -14.00000
29.50000 -14.00000 -12.00000
29.00000 -14.00000 -11.50000
29.00000 -13.00000 -14.50000
29.00000 -13.50000 -12.00000
29.00000 -13.00000 -12.50000
29.50000 -12.00000 -15.00000
29.00000 -12.00000 -15.50000
29.00000 -12.50000 -15.00000
29.00000 -12.50000 -13.00000
29.00000 -12.00000 -13.50000
29.50000 -11.00000 -16.00000
29.00000 -11.00000 -16.50000
29.00000 -11.50000 -16.00000
29.50000 -11.50000 -14.50000
29.00000 -11.00000 -14.50000
29.00000 -11.50000 -14.00000
29.00000 -10.00000 -17.50000
29.00000 -10.50000 -17.00000
29.50000 -10.00000 -15.00000
29.00000 -10.00000 -14.50000
29.00000 -9.00000 -19.50000
29.00000 -9.50000 -19.00000
29.00000 -9.50000 -18.00000
29.50000 -9.00000 -16.00000
29.00000 -9.00000 -15.50000
29.00000 -9.50000 -15.00000
29.50000 -8.00000 -20.00000
29.00000 -8.00000 -19.50000
29.00000 -8.50000 -16.00000
29.00000 -8.00000 -16.50000
29.50000 -7.00000 -27.00000
29.50000 -7.00000 -26.00000
29.50000 -7.00000 -21.00000
29.00000 -7.00000 -20.50000
29.00000 -7.50000 -20.00000
29.50000 -7.00000 -18.00000
29.00000 -7.50000 -18.00000
29.00000 -7.00000 -18.50000
29.00000 -7.50000 -17.00000
29.50000 -6.00000 -28.00000
29.00000 -6.00000 -28.50000
29.00000 -6.50000 -28.00000
29.00000 -6.50000 -27.00000
29.00000 -6.50000 -26.00000
29.50000 -6.00000 -25.00000
29.00000 -6.00000 -25.50000
29.00000 -6.50000 -20.00000
29.00000 -6.50000 -19.00000
29.00000 -5.00000 -28.50000
29.00000 -5.00000 -25.50000
29.00000 -4.50000 -28.00000
29.00000 -4.50000 -27.00000
29.00000 -4.50000 -26.00000
28.50000 -33.00000 1.00000
28.00000 -17.00000 -12.50000
28.00000 -17.50000 -12.00000
28.00000 -17.50000 -11.00000
28.00000 -17.00000 -10.50000
28.00000 -16.00000 -13.50000
28.00000 -16.50000 -13.00000
28.00000 -16.00000 -10.50000
28.00000 -15.00000 -13.50000
28.50000 -15.00000 -11.00000
28.00000 -15.00000 -10.50000
28.00000 -14.00000 -14.50000
28.00000 -14.50000 -14.00000
28.00000 -14.50000 -11.00000
28.00000 -14.00000 -11.50000
28.00000 -13.00000 -14.50000
28.50000 -13.00000 -12.00000
28.00000 -13.00000 -11.50000
28.00000 -12.00000 -15.50000
28.00000 -12.50000 -15.00000
28.50000 -12.00000 -13.00000
28.00000 -12.00000 -12.50000
28.00000 -12.50000 -12.00000
28.00000 -11.00000 -16.50000
28.00000 -11.50000 -16.00000
28.50000 -11.00000 -14.00000
28.00000 -11.00000 -13.50000
28.00000 -11.50000 -13.00000
28.00000 -10.00000 -17.50000
28.00000 -10.50000 -17.00000
28.00000 -10.50000 -14.00000
28.00000 -10.00000 -14.50000
28.50000 -9.00000 -19.00000
28.00000 -9.00000 -18.50000
28.00000 -9.50000 -18.00000
28.00000 -9.50000 -15.00000
28.00000 -9.00000 -15.50000
28.00000 -8.00000 -19.50000
28.00000 -8.50000 -19.00000
28.00000 -8.50000 -16.00000
28.00000 -8.00000 -16.50000
28.50000 -7.00000 -20.00000
28.00000 -7.50000 -19.00000
28.50000 -7.00000 -19.00000
28.00000 -7.50000 -18.00000
28.00000 -7.50000 -17.00000
28.00000 -6.00000 -28.50000
28.00000 -6.50000 -28.00000
28.00000 -6.50000 -27.00000
28.50000 -6.00000 -26.00000
28.00000 -6.00000 -26.50000
28.00000 -5.00000 -28.50000
28.50000 -5.00000 -26.00000
28.00000 -5.00000 -26.50000
28.00000 -4.50000 -28.00000
28.00000 -4.50000 -27.00000
27.00000 -17.00000 -12.50000
27.00000 -17.50000 -12.00000
27.00000 -17.50000 -11.00000
27.00000 -17.00000 -10.50000
27.00000 -16.00000 -13.50000
27.00000 -16.50000 -13.00000
27.00000 -16.00000 -10.50000
27.00000 -15.00000 -13.50000
27.00000 -15.00000 -10.50000
27.00000 -14.00000 -14.50000
27.00000 -14.50000 -14.00000
27.00000 -14.50000 -11.00000
27.00000 -14.00000 -11.50000
27.00000 -13.00000 -14.50000
27.00000 -13.00000 -11.50000
27.00000 -12.00000 -15.50000
27.00000 -12.50000 -15.00000
27.00000 -12.50000 -12.00000
27.00000 -12.00000 -12.50000
27.00000 -11.00000 -16.50000
27.00000 -11.50000 -16.00000
27.00000 -11.50000 -13.00000
27.00000 -11.00000 -13.50000
27.00000 -10.00000 -17.50000
27.00000 -10.50000 -17.00000
27.00000 -10.50000 -14.00000
27.00000 -10.00000 -14.50000
27.00000 -9.00000 -18.50000
27.00000 -9.50000 -18.00000
27.00000 -9.50000 -15.00000
27.00000 -9.00000 -15.50000
27.50000 -8.00000 -19.00000
27.00000 -8.50000 -18.00000
27.50000 -8.00000 -18.00000
27.50000 -8.00000 -17.00000
27.00000 -8.50000 -17.00000
27.00000 -8.50000 -16.00000
27.00000 -6.00000 -28.50000
27.00000 -6.50000 -28.00000
27.50000 -6.00000 -27.00000
27.00000 -6.00000 -27.50000
27.50000 -5.00000 -29.00000
27.00000 -5.00000 -29.50000
27.00000 -5.50000 -29.00000
27.00000 -5.50000 -27.00000
27.00000 -5.00000 -26.50000
27.50000 -4.00000 -29.00000
27.00000 -4.00000 -29.50000
27.50000 -4.00000 -28.00000
27.00000 -4.00000 -27.50000
27.00000 -4.50000 -27.00000
27.00000 -3.50000 -29.00000
27.00000 -3.50000 -28.00000
26.50000 -17.00000 -13.00000
26.00000 -17.00000 -13.50000
26.00000 -17.50000 -13.00000
26.00000 -17.50000 -12.00000
26.00000 -17.50000 -11.00000
26.00000 -17.00000 -10.50000
26.00000 -16.00000 -13.50000
26.00000 -16.00000 -10.50000
26.00000 -15.00000 -13.50000
26.00000 -15.00000 -10.50000
26.00000 -14.00000 -14.50000
26.00000 -14.50000 -14.00000
26.00000 -14.50000 -11.00000
26.00000 -14.00000 -11.50000
26.00000 -13.00000 -14.50000
26.00000 -13.00000 -11.50000
26.00000 -12.00000 -15.50000
26.00000 -12.50000 -15.00000
26.00000 -12.50000 -12.00000
26.00000 -12.00000 -12.50000
26.50000 -11.00000 -17.00000
26.00000 -11.00000 -17.50000
26.00000 -11.50000 -17.00000
26.00000 -11.50000 -16.00000
26.00000 -11.50000 -13.00000
26.00000 -11.00000 -13.50000
26.50000 -10.00000 -18.00000
26.00000 -10.00000 -18.50000
26.00000 -10.50000 -18.00000
26.00000 -10.50000 -14.00000
26.00000 -10.00000 -14.50000
26.00000 -9.00000 -18.50000
26.50000 -9.00000 -16.00000
26.00000 -9.50000 -16.00000
26.00000 -9.00000 -16.50000
26.00000 -9.50000 -15.00000
26.00000 -8.50000 -18.00000
26.00000 -8.50000 -17.00000
26.50000 -6.00000 -28.00000
26.00000 -5.00000 -29.50000
26.00000 -5.50000 -29.00000
26.00000 -5.50000 -28.00000
26.00000 -5.50000 -27.00000
26.00000 -5.00000 -26.50000
26.50000 -4.00000 -30.00000
26.00000 -4.00000 -30.50000
26.00000 -4.50000 -30.00000
26.00000 -4.50000 -27.00000
26.00000 -4.00000 -27.50000
26.00000 -3.50000 -30.00000
26.00000 -3.50000 -29.00000
26.00000 -3.50000 -28.00000
25.00000 -17.00000 -13.50000
25.00000 -17.50000 -13.00000
25.00000 -17.50000 -12.00000
25.00000 -17.50000 -11.00000
25.00000 -17.00000 -10.50000
25.00000 -16.00000 -13.50000
25.00000 -16.00000 -10.50000
25.50000 -15.00000 -14.00000
25.00000 -15.00000 -14.50000
25.00000 -15.50000 -14.00000
25.00000 -15.00000 -10.50000
25.00000 -14.00000 -14.50000
25.50000 -14.00000 -11.00000
25.00000 -14.00000 -10.50000
25.50000 -13.00000 -15.00000
25.00000 -13.00000 -15.50000
25.00000 -13.50000 -15.00000
25.00000 -13.50000 -11.00000
25.00000 -13.00000 -11.50000
25.50000 -12.00000 -16.00000
25.00000 -12.00000 -16.50000
25.00000 -12.50000 -16.00000
25.00000 -12.50000 -12.00000
25.00000 -12.00000 -12.50000
25.00000 -11.00000 -17.50000
25.00000 -11.50000 -17.00000
25.00000 -11.50000 -13.00000
25.00000 -11.00000 -13.50000
25.00000 -10.00000 -18.50000
25.00000 -10.50000 -18.00000
25.00000 -10.50000 -14.00000
25.00000 -10.00000 -14.50000
25.00000 -9.00000 -18.50000
25.50000 -9.00000 -17.00000
25.00000 -9.50000 -17.00000
25.00000 -9.00000 -17.50000
25.00000 -9.50000 -16.00000
25.00000 -9.50000 -15.00000
25.00000 -8.50000 -18.00000
25.50000 -5.00000 -30.00000
25.00000 -5.00000 -30.50000
25.00000 -5.50000 -30.00000
25.00000 -5.50000 -29.00000
25.00000 -5.50000 -28.00000
25.50000 -5.00000 -27.00000
25.00000 -5.00000 -27.50000
25.00000 -4.00000 -30.50000
25.00000 -4.00000 -27.50000
25.00000 -3.50000 -30.00000
25.00000 -3.50000 -29.00000
25.00000 -3.50000 -28.00000
24.00000 -17.00000 -13.50000
24.00000 -17.50000 -13.00000
24.00000 -17.50000 -12.00000
24.00000 -17.50000 -11.00000
24.00000 -17.00000 -10.50000
24.00000 -16.00000 -13.50000
24.00000 -16.00000 -10.50000
24.00000 -15.00000 -14.50000
24.00000 -15.50000 -14.00000
24.00000 -15.00000 -10.50000
24.00000 -14.00000 -14.50000
24.00000 -14.00000 -10.50000
24.50000 -13.00000 -16.00000
24.00000 -13.00000 -16.50000
24.00000 -13.50000 -16.00000
24.00000 -13.50000 -15.00000
24.00000 -13.50000 -11.00000
24.00000 -13.00000 -11.50000
24.00000 -12.00000 -16.50000
24.00000 -12.50000 -12.00000
24.00000 -12.00000 -12.50000
24.00000 -11.00000 -17.50000
24.00000 -11.50000 -17.00000
24.00000 -11.50000 -13.00000
24.00000 -11.00000 -13.50000
24.00000 -10.00000 -18.50000
24.00000 -10.50000 -18.00000
24.50000 -10.00000 -15.00000
24.00000 -10.50000 -15.00000
24.00000 -10.00000 -15.50000
24.00000 -10.50000 -14.00000
24.00000 -9.50000 -18.00000
24.50000 -9.00000 -18.00000
24.00000 -9.50000 -17.00000
24.00000 -9.50000 -16.00000
24.00000 -5.00000 -30.50000
24.00000 -5.50000 -30.00000
24.00000 -5.50000 -29.00000
24.00000 -5.50000 -28.00000
24.00000 -5.00000 -27.50000
24.00000 -4.00000 -30.50000
24.50000 -4.00000 -28.00000
24.00000 -4.50000 -28.00000
24.00000 -4.00000 -28.50000
24.00000 -3.50000 -30.00000
24.00000 -3.50000 -29.00000
23.50000 -17.00000 -13.00000
23.00000 -17.00000 -12.50000
23.00000 -17.50000 -12.00000
23.00000 -17.50000 -11.00000
23.00000 -17.00000 -10.50000
23.00000 -16.00000 -13.50000
23.00000 -16.50000 -13.00000
23.00000 -16.00000 -10.50000
23.50000 -15.00000 -14.00000
23.00000 -15.00000 -13.50000
23.00000 -15.00000 -10.50000
23.00000 -14.00000 -14.50000
23.00000 -14.50000 -14.00000
23.00000 -14.00000 -10.50000
23.00000 -13.00000 -16.50000
23.00000 -13.50000 -16.00000
23.00000 -13.50000 -15.00000
23.50000 -13.00000 -11.00000
23.00000 -13.00000 -10.50000
23.50000 -12.00000 -17.00000
23.00000 -12.00000 -17.50000
23.00000 -12.50000 -17.00000
23.50000 -12.00000 -12.00000
23.00000 -12.00000 -11.50000
23.00000 -12.50000 -11.00000
23.00000 -11.00000 -17.50000
23.00000 -11.50000 -13.00000
23.00000 -11.00000 -13.50000
23.00000 -11.50000 -12.00000
23.00000 -10.00000 -18.50000
23.00000 -10.50000 -18.00000
23.00000 -10.50000 -15.00000
23.00000 -10.00000 -15.50000
23.00000 -10.50000 -14.00000
23.00000 -9.50000 -18.00000
23.00000 -9.50000 -17.00000
23.00000 -9.50000 -16.00000
23.50000 -5.00000 -30.00000
23.50000 -5.00000 -29.00000
23.50000 -5.00000 -28.00000
23.50000 -4.00000 -30.00000
23.50000 -4.00000 -29.00000
22.00000 -17.00000 -12.50000
22.00000 -17.50000 -12.00000
22.50000 -17.00000 -11.00000
22.00000 -17.00000 -11.50000
22.50000 -16.00000 -13.00000
22.00000 -16.00000 -12.50000
22.00000 -16.50000 -11.00000
22.00000 -16.00000 -10.50000
22.00000 -15.00000 -13.50000
22.00000 -15.50000 -13.00000
22.00000 -15.00000 -10.50000
22.50000 -14.00000 -14.00000
22.00000 -14.00000 -13.50000
22.00000 -14.00000 -10.50000
22.00000 -13.00000 -16.50000
22.00000 -13.50000 -16.00000
22.00000 -13.50000 -15.00000
22.00000 -13.50000 -14.00000
22.00000 -13.00000 -10.50000
22.00000 -12.00000 -17.50000
22.00000 -12.50000 -17.00000
22.00000 -12.50000 -11.00000
22.00000 -12.00000 -11.50000
22.00000 -11.00000 -17.50000
22.00000 -11.50000 -13.00000
22.00000 -11.00000 -13.50000
22.00000 -11.50000 -12.00000
22.50000 -10.00000 -18.00000
22.00000 -10.00000 -17.50000
22.00000 -10.50000 -15.00000
22.00000 -10.00000 -15.50000
22.00000 -10.50000 -14.00000
22.00000 -9.50000 -17.00000
22.00000 -9.50000 -16.00000
21.50000 -17.00000 -12.00000
21.00000 -16.00000 -12.50000
21.00000 -16.50000 -12.00000
21.50000 -16.00000 -11.00000
21.00000 -16.00000 -11.50000
21.50000 -15.00000 -13.00000
21.00000 -15.00000 -12.50000
21.50000 -15.00000 -11.00000
21.00000 -15.00000 -11.50000
21.50000 -14.00000 -13.00000
21.00000 -14.00000 -12.50000
21.00000 -14.50000 -11.00000
21.00000 -14.00000 -10.50000
21.50000 -13.00000 -16.00000
21.50000 -13.00000 -15.00000
21.50000 -13.00000 -14.00000
21.00000 -13.00000 -13.50000
21.00000 -13.50000 -13.00000
21.00000 -13.00000 -10.50000
21.00000 -12.00000 -17.50000
21.00000 -12.50000 -17.00000
21.00000 -12.50000 -16.00000
21.00000 -12.50000 -15.00000
21.00000 -12.50000 -14.00000
21.00000 -12.50000 -11.00000
21.00000 -12.00000 -11.50000
21.00000 -11.00000 -17.50000
21.00000 -11.50000 -13.00000
21.00000 -11.00000 -13.50000
21.00000 -11.50000 -12.00000
21.00000 -10.00000 -17.50000
21.00000 -10.50000 -15.00000
21.00000 -10.00000 -15.50000
21.00000 -10.50000 -14.00000
21.00000 -9.50000 -17.00000
21.00000 -9.50000 -16.00000
20.50000 -16.00000 -12.00000
20.50000 -15.00000 -12.00000
20.00000 -14.00000 -12.50000
20.00000 -14.50000 -12.00000
20.50000 -14.00000 -11.00000
20.00000 -14.00000 -11.50000
20.50000 -13.00000 -13.00000
20.00000 -13.00000 -12.50000
20.50000 -13.00000 -11.00000
20.00000 -13.00000 -11.50000
20.00000 -12.00000 -17.50000
20.00000 -12.50000 -17.00000
20.00000 -12.50000 -16.00000
20.00000 -12.50000 -15.00000
20.50000 -12.00000 -14.00000
20.00000 -12.00000 -14.50000
20.50000 -12.00000 -13.00000
20.00000 -12.00000 -12.50000
20.00000 -12.00000 -11.50000
20.00000 -11.00000 -17.50000
20.00000 -11.50000 -14.00000
20.00000 -11.00000 -13.50000
20.00000 -11.50000 -12.00000
20.00000 -10.00000 -17.50000
20.00000 -10.50000 -15.00000
20.00000 -10.00000 -15.50000
20.00000 -10.50000 -14.00000
20.00000 -9.50000 -17.00000
20.00000 -9.50000 -16.00000
19.50000 -14.00000 -12.00000
19.50000 -13.00000 -12.00000
19.50000 -12.00000 -17.00000
19.50000 -12.00000 -16.00000
19.50000 -12.00000 -15.00000
19.50000 -12.00000 -12.00000
19.00000 -11.00000 -17.50000
19.00000 -11.50000 -17.00000
19.00000 -11.50000 -16.00000
19.00000 -11.00000 -15.50000
19.50000 -11.00000 -15.00000
19.50000 -11.00000 -14.00000
19.50000 -10.00000 -18.00000
19.00000 -10.00000 -18.50000
19.00000 -10.50000 -18.00000
19.00000 -10.00000 -15.50000
19.00000 -9.50000 -18.00000
19.00000 -9.50000 -17.00000
19.00000 -9.50000 -16.00000
18.50000 -11.00000 -17.00000
18.50000 -11.00000 -16.00000
18.50000 -10.00000 -18.00000
18.00000 -10.00000 -17.50000
18.00000 -10.50000 -17.00000
18.00000 -10.00000 -16.50000
18.50000 -10.00000 -16.00000
18.00000 -9.50000 -17.00000
17.50000 -10.00000 -17.00000
3 2 1 0
3 0 3 2
3 6 5 4
3 6 4 1
3 4 0 1
3 4 7 0
3 3 0 8
3 8 0 7
3 4 5 9
3 9 5 10
3 4 11 7
3 4 9 11
3 8 7 12
3 12 7 11
3 9 10 13
3 13 10 14
3 16 11 15
3 11 13 15
3 11 9 13
3 11 16 12
3 14 17 13
3 13 17 15
3 20 19 18
3 18 21 20
3 24 23 22
3 24 22 19
3 22 18 19
3 22 25 18
3 21 18 26
3 26 18 25
3 29 28 27
3 29 27 23
3 27 22 23
3 27 30 22
3 22 31 25
3 22 30 31
3 26 25 32
3 32 25 31
3 27 28 33
3 33 28 34
3 27 35 30
3 27 33 35
3 37 31 36
3 31 35 36
3 31 30 35
3 31 37 32
3 40 39 38
3 40 38 34
3 38 33 34
3 38 41 33
3 33 42 35
3 33 41 42
3 36 35 43
3 43 35 42
3 38 39 44
3 44 39 45
3 38 46 41
3 38 44 46
3 48 42 47
3 42 46 47
3 42 41 46
3 42 48 43
3 51 50 49
3 51 49 45
3 49 44 45
3 49 52 44
3 54 46 53
3 46 52 53
3 46 44 52
3 46 54 47
3 50 55 49
3 49 55 52
3 52 55 56
3 52 56 53
3 59 58 57
3 57 60 59
3 63 62 61
3 65 64 61
3 61 64 63
3 64 65 58
3 65 57 58
3 65 66 57
3 60 57 67
3 67 57 66
3 61 62 68
3 68 62 69
3 61 70 65
3 61 68 70
3 65 71 66
3 65 70 71
3 67 66 72
3 72 66 71
3 75 74 73
3 75 73 69
3 73 68 69
3 73 76 68
3 68 77 70
3 68 76 77
3 79 71 78
3 71 77 78
3 71 70 77
3 71 79 72
3 82 81 80
3 82 80 74
3 80 73 74
3 80 83 73
3 73 84 76
3 73 83 84
3 76 85 77
3 76 84 85
3 78 77 86
3 86 77 85
3 80 81 87
3 87 81 88
3 87 1 2
3 83 87 2
3 80 87 83
3 83 2 3
3 89 83 3
3 84 83 89
3 84 90 85
3 84 89 90
3 86 85 91
3 91 85 90
3 87 88 6
3 88 5 6
3 88 92 5
3 87 6 1
3 8 93 89
3 8 89 3
3 95 90 94
3 90 93 94
3 90 89 93
3 90 95 91
3 92 10 5
3 96 10 92
3 98 97 93
3 8 98 93
3 12 98 8
3 93 97 94
3 100 14 99
3 14 96 99
3 14 10 96
3 16 15 100
3 99 16 100
3 101 16 99
3 12 16 98
3 98 16 101
3 100 17 14
3 17 100 15
3 102 19 20
3 21 102 20
3 103 23 24
3 104 103 24
3 104 24 19
3 105 104 19
3 102 105 19
3 102 21 105
3 21 106 105
3 21 26 106
3 107 28 29
3 108 107 29
3 108 29 23
3 109 108 23
3 103 109 23
3 109 103 104
3 32 106 26
3 32 110 106
3 112 111 107
3 111 28 107
3 111 34 28
3 112 107 108
3 114 113 37
3 114 37 36
3 32 37 110
3 110 37 113
3 116 115 40
3 40 115 39
3 40 34 111
3 40 111 116
3 43 114 36
3 43 117 114
3 120 119 118
3 115 120 118
3 45 115 118
3 39 115 45
3 47 121 48
3 121 122 48
3 122 43 48
3 122 117 43
3 125 124 123
3 125 123 119
3 119 123 118
3 123 50 118
3 50 51 118
3 118 51 45
3 53 126 54
3 126 127 54
3 54 127 47
3 127 128 47
3 128 121 47
3 121 128 122
3 123 124 129
3 129 124 130
3 131 55 50
3 123 131 50
3 129 131 123
3 132 56 55
3 132 55 131
3 132 133 56
3 56 133 53
3 133 134 53
3 134 126 53
3 126 134 127
3 137 136 135
3 137 135 130
3 135 129 130
3 135 138 129
3 129 139 131
3 129 138 139
3 141 132 140
3 132 139 140
3 132 131 139
3 132 141 133
3 135 136 142
3 142 136 143
3 135 144 138
3 135 142 144
3 146 139 145
3 139 144 145
3 139 138 144
3 139 146 140
3 142 143 147
3 147 143 148
3 150 144 149
3 144 147 149
3 144 142 147
3 144 150 145
3 148 151 147
3 147 151 149
3 154 153 152
3 58 59 152
3 59 154 152
3 59 155 154
3 157 156 60
3 156 59 60
3 156 155 59
3 157 158 156
3 160 159 63
3 63 159 62
3 64 152 153
3 160 64 153
3 63 64 160
3 152 64 58
3 67 161 157
3 67 157 60
3 158 157 162
3 162 157 161
3 165 164 163
3 159 165 163
3 69 159 163
3 62 159 69
3 72 166 161
3 72 161 67
3 162 161 167
3 167 161 166
3 163 164 75
3 164 74 75
3 164 168 74
3 163 75 69
3 78 169 79
3 166 72 79
3 169 166 79
3 170 166 169
3 167 166 171
3 171 166 170
3 172 81 82
3 173 172 82
3 74 173 82
3 168 173 74
3 86 174 169
3 86 169 78
3 169 175 170
3 169 174 175
3 171 170 176
3 176 170 175
3 178 177 172
3 177 81 172
3 177 88 81
3 178 172 173
3 91 179 174
3 91 174 86
3 181 175 180
3 175 179 180
3 175 174 179
3 175 181 176
3 183 92 182
3 92 177 182
3 92 88 177
3 184 183 182
3 186 185 95
3 186 95 94
3 91 95 179
3 95 187 179
3 95 185 187
3 179 187 180
3 188 96 183
3 183 96 92
3 183 184 189
3 190 183 189
3 188 183 190
3 97 98 190
3 189 97 190
3 191 97 189
3 94 97 186
3 186 97 191
3 188 99 96
3 99 188 101
3 101 188 190
3 101 190 98
3 192 104 105
3 106 192 105
3 193 108 109
3 104 192 109
3 192 193 109
3 192 194 193
3 110 194 106
3 106 194 192
3 195 111 112
3 108 193 112
3 193 195 112
3 193 196 195
3 114 196 113
3 196 194 113
3 196 193 194
3 113 194 110
3 197 115 116
3 198 197 116
3 198 116 111
3 199 198 111
3 195 199 111
3 199 195 196
3 199 196 200
3 196 114 200
3 114 201 200
3 114 117 201
3 202 119 120
3 203 202 120
3 203 120 115
3 204 203 115
3 197 204 115
3 204 197 198
3 122 201 117
3 122 205 201
3 206 124 125
3 207 206 125
3 207 125 119
3 208 207 119
3 202 208 119
3 208 202 203
3 127 209 128
3 209 210 128
3 210 122 128
3 210 205 122
3 213 212 211
3 214 213 206
3 213 130 206
3 130 124 206
3 213 211 130
3 214 206 207
3 133 215 134
3 215 216 134
3 134 216 127
3 216 217 127
3 217 209 127
3 209 217 210
3 220 219 218
3 220 218 212
3 212 218 211
3 218 136 211
3 136 137 211
3 211 137 130
3 140 221 141
3 221 222 141
3 141 222 133
3 222 223 133
3 223 215 133
3 215 223 216
3 218 219 224
3 224 219 225
3 224 143 136
3 224 136 218
3 145 226 146
3 226 227 146
3 146 227 140
3 227 228 140
3 228 221 140
3 221 228 222
3 231 230 229
3 231 229 225
3 229 224 225
3 229 232 224
3 232 148 143
3 232 143 224
3 149 233 150
3 233 234 150
3 150 234 145
3 234 235 145
3 235 226 145
3 226 235 227
3 229 230 236
3 236 230 237
3 229 238 232
3 229 236 238
3 239 151 148
3 232 239 148
3 238 239 232
3 239 240 151
3 151 240 149
3 240 241 149
3 241 233 149
3 233 241 234
3 236 237 242
3 242 237 243
3 236 244 238
3 236 242 244
3 246 239 245
3 239 244 245
3 239 238 244
3 239 246 240
3 243 247 242
3 242 247 244
3 244 247 248
3 244 248 245
3 250 249 154
3 154 249 153
3 251 154 155
3 251 250 154
3 252 155 156
3 252 251 155
3 254 253 158
3 253 156 158
3 253 252 156
3 256 255 254
3 254 255 253
3 256 257 255
3 259 258 160
3 160 258 159
3 160 153 249
3 160 249 259
3 162 260 254
3 162 254 158
3 254 261 256
3 254 260 261
3 257 256 262
3 262 256 261
3 263 164 165
3 264 263 165
3 159 264 165
3 258 264 159
3 167 265 260
3 167 260 162
3 260 266 261
3 260 265 266
3 262 261 267
3 267 261 266
3 268 168 263
3 263 168 164
3 263 264 269
3 263 269 268
3 171 270 265
3 171 265 167
3 272 266 271
3 266 270 271
3 266 265 270
3 266 272 267
3 273 173 268
3 268 173 168
3 268 269 274
3 275 268 274
3 273 268 275
3 276 275 274
3 279 278 277
3 280 277 278
3 176 281 270
3 176 270 171
3 271 270 282
3 282 270 281
3 283 177 178
3 173 273 178
3 273 283 178
3 273 284 283
3 285 273 275
3 284 273 285
3 275 276 286
3 287 275 286
3 285 275 287
3 287 286 279
3 277 287 279
3 288 287 277
3 289 181 180
3 277 289 180
3 288 277 180
3 289 277 280
3 181 289 176
3 289 290 176
3 290 281 176
3 290 289 291
3 282 281 292
3 292 281 290
3 283 182 177
3 182 283 184
3 283 293 184
3 283 284 293
3 294 284 285
3 293 284 294
3 186 294 185
3 294 287 185
3 294 285 287
3 185 287 187
3 187 287 288
3 187 288 180
3 291 295 290
3 290 295 292
3 293 189 184
3 189 293 191
3 191 293 294
3 191 294 186
3 296 198 199
3 200 297 199
3 199 297 296
3 201 297 200
3 298 203 204
3 198 296 204
3 296 298 204
3 296 299 298
3 300 296 297
3 299 296 300
3 205 300 201
3 201 300 297
3 301 207 208
3 203 298 208
3 298 301 208
3 298 302 301
3 299 304 303
3 302 299 303
3 298 299 302
3 306 305 304
3 299 306 304
3 300 306 299
3 210 306 205
3 205 306 300
3 307 212 213
3 214 308 213
3 213 308 307
3 309 308 214
3 309 214 207
3 310 309 207
3 301 310 207
3 310 301 302
3 310 302 311
3 311 302 303
3 305 306 217
3 216 305 217
3 312 305 216
3 217 306 210
3 313 219 220
3 314 313 220
3 314 220 212
3 315 314 212
3 307 315 212
3 315 307 308
3 315 308 316
3 316 308 309
3 222 317 223
3 317 318 223
3 318 216 223
3 318 312 216
3 321 320 319
3 322 321 313
3 321 225 313
3 225 219 313
3 321 319 225
3 322 313 314
3 227 323 228
3 323 324 228
3 228 324 222
3 324 325 222
3 325 317 222
3 317 325 318
3 328 327 326
3 328 326 320
3 320 326 319
3 326 230 319
3 230 231 319
3 319 231 225
3 234 329 235
3 329 330 235
3 235 330 227
3 330 331 227
3 331 323 227
3 323 331 324
3 326 327 332
3 332 327 333
3 332 237 230
3 332 230 326
3 240 334 241
3 334 335 241
3 241 335 234
3 335 336 234
3 336 329 234
3 329 336 330
3 332 333 337
3 337 333 338
3 337 243 237
3 337 237 332
3 245 339 246
3 339 340 246
3 246 340 240
3 340 341 240
3 341 334 240
3 334 341 335
3 337 338 342
3 342 338 343
3 344 247 243
3 337 344 243
3 342 344 337
3 345 248 247
3 345 247 344
3 345 346 248
3 248 346 245
3 346 347 245
3 347 339 245
3 339 347 340
3 343 348 342
3 342 348 344
3 344 348 349
3 344 349 345
3 345 349 350
3 345 350 346
3 351 249 250
3 251 352 250
3 250 352 351
3 352 251 353
3 251 354 353
3 251 252 354
3 355 252 253
3 355 354 252
3 356 253 255
3 356 355 253
3 255 257 356
3 356 257 357
3 358 258 259
3 249 351 259
3 351 358 259
3 351 359 358
3 360 351 352
3 359 351 360
3 352 353 361
3 362 352 361
3 360 352 362
3 363 362 361
3 262 365 364
3 357 262 364
3 257 262 357
3 367 366 365
3 365 366 364
3 367 368 366
3 369 264 358
3 358 264 258
3 370 358 359
3 369 358 370
3 371 359 360
3 370 359 371
3 372 360 362
3 371 360 372
3 362 363 373
3 374 362 373
3 372 362 374
3 375 374 373
3 267 376 365
3 267 365 262
3 378 367 377
3 367 376 377
3 367 365 376
3 367 378 368
3 379 269 369
3 369 269 264
3 380 369 370
3 379 369 380
3 381 370 371
3 380 370 381
3 382 371 372
3 381 371 382
3 383 372 374
3 382 372 383
3 385 384 375
3 384 386 375
3 272 375 386
3 375 272 374
3 271 374 272
3 374 271 384
3 384 383 374
3 385 383 384
3 384 271 386
3 376 267 272
3 386 376 272
3 387 376 386
3 377 376 388
3 388 376 387
3 379 274 269
3 274 379 276
3 379 389 276
3 379 380 389
3 279 389 278
3 389 381 278
3 389 380 381
3 278 381 280
3 381 390 280
3 381 382 390
3 391 382 383
3 390 382 391
3 386 271 392
3 282 392 271
3 393 383 385
3 383 393 391
3 395 387 394
3 387 392 394
3 387 386 392
3 387 395 388
3 389 286 276
3 286 389 279
3 390 289 280
3 289 390 291
3 390 396 291
3 390 391 396
3 392 282 397
3 292 397 282
3 398 391 393
3 391 398 396
3 394 392 399
3 399 392 397
3 401 295 400
3 295 291 400
3 400 291 396
3 402 400 396
3 396 295 401
3 295 396 292
3 397 292 396
3 398 397 396
3 397 398 403
3 402 403 398
3 403 402 404
3 401 404 402
3 396 401 402
3 397 403 399
3 400 405 401
3 401 405 404
3 406 303 304
3 305 406 304
3 407 309 310
3 311 408 310
3 310 408 407
3 303 406 311
3 406 408 311
3 406 409 408
3 312 409 305
3 305 409 406
3 410 314 315
3 316 411 315
3 315 411 410
3 309 407 316
3 407 411 316
3 407 412 411
3 408 414 413
3 412 408 413
3 407 408 412
3 416 415 414
3 408 416 414
3 409 416 408
3 318 416 312
3 312 416 409
3 418 417 321
3 321 417 320
3 419 321 322
3 419 418 321
3 322 314 410
3 420 322 410
3 419 322 420
3 420 410 411
3 420 411 421
3 421 411 412
3 421 412 422
3 422 412 413
3 415 416 325
3 324 415 325
3 423 415 324
3 325 416 318
3 425 424 328
3 328 424 327
3 328 320 417
3 328 417 425
3 330 426 331
3 426 427 331
3 427 324 331
3 427 423 324
3 430 429 428
3 424 430 428
3 333 424 428
3 327 424 333
3 335 431 336
3 431 432 336
3 336 432 330
3 432 433 330
3 433 426 330
3 426 433 427
3 428 429 434
3 434 429 435
3 434 338 333
3 434 333 428
3 340 436 341
3 436 437 341
3 341 437 335
3 437 438 335
3 438 431 335
3 431 438 432
3 434 435 439
3 439 435 440
3 439 343 338
3 439 338 434
3 346 441 347
3 441 442 347
3 347 442 340
3 442 443 340
3 443 436 340
3 436 443 437
3 439 440 444
3 444 440 445
3 446 348 343
3 439 446 343
3 444 446 439
3 447 349 348
3 447 348 446
3 349 447 448
3 449 349 448
3 350 349 449
3 346 350 441
3 350 450 441
3 350 449 450
3 441 450 442
3 445 451 444
3 444 451 446
3 446 451 452
3 446 452 447
3 447 452 453
3 447 453 448
3 454 353 354
3 355 455 354
3 354 455 454
3 356 456 355
3 355 456 455
3 357 456 356
3 454 361 353
3 361 454 363
3 454 457 363
3 454 455 457
3 458 455 456
3 457 455 458
3 458 456 357
3 459 458 357
3 364 459 357
3 460 458 459
3 461 364 366
3 461 459 364
3 463 462 368
3 462 366 368
3 462 461 366
3 463 464 462
3 457 373 363
3 373 457 375
3 457 465 375
3 457 458 465
3 458 460 466
3 458 466 465
3 377 467 378
3 467 468 378
3 378 468 368
3 468 469 368
3 469 463 368
3 463 469 464
3 471 470 465
3 470 375 465
3 470 385 375
3 471 465 466
3 388 472 467
3 388 467 377
3 468 467 473
3 473 467 472
3 470 393 385
3 474 393 470
3 394 475 395
3 475 476 395
3 395 476 388
3 476 477 388
3 477 472 388
3 472 477 473
3 474 398 393
3 478 398 474
3 480 479 475
3 394 480 475
3 399 480 394
3 475 479 476
3 482 481 402
3 402 481 400
3 478 483 398
3 478 403 483
3 403 478 484
3 482 484 478
3 484 482 404
3 483 404 482
3 482 402 483
3 483 402 398
3 403 404 483
3 484 485 403
3 485 399 403
3 485 480 399
3 405 400 486
3 400 487 486
3 400 481 487
3 486 488 405
3 405 488 404
3 488 489 404
3 489 484 404
3 484 489 485
3 487 490 486
3 486 490 488
3 491 413 414
3 415 491 414
3 492 417 418
3 419 493 418
3 418 493 492
3 420 494 419
3 419 494 493
3 421 495 420
3 420 495 494
3 422 496 421
3 421 496 495
3 413 491 422
3 491 496 422
3 491 497 496
3 423 497 415
3 415 497 491
3 499 498 425
3 425 498 424
3 425 417 492
3 500 425 492
3 499 425 500
3 500 492 493
3 500 493 501
3 503 502 501
3 493 503 501
3 494 503 493
3 495 505 504
3 503 495 504
3 494 495 503
3 505 495 496
3 505 496 506
3 506 496 497
3 506 497 507
3 497 423 507
3 423 508 507
3 423 427 508
3 510 509 430
3 430 509 429
3 430 424 498
3 430 498 510
3 511 502 503
3 511 503 504
3 432 512 433
3 512 513 433
3 513 427 433
3 513 508 427
3 509 435 429
3 514 435 509
3 437 515 438
3 515 516 438
3 438 516 432
3 516 517 432
3 517 512 432
3 512 517 513
3 520 519 518
3 514 520 518
3 440 514 518
3 435 514 440
3 522 521 443
3 522 443 442
3 437 443 515
3 443 523 515
3 443 521 523
3 515 523 516
3 518 519 524
3 524 519 525
3 524 445 440
3 524 440 518
3 448 526 449
3 449 526 527
3 528 449 527
3 450 449 528
3 442 450 522
3 522 450 528
3 524 525 529
3 529 525 530
3 531 451 445
3 524 531 445
3 529 531 524
3 532 452 451
3 532 451 531
3 452 532 533
3 534 452 533
3 453 452 534
3 448 453 526
3 453 535 526
3 453 534 535
3 526 535 527
3 530 536 529
3 529 536 531
3 531 536 537
3 531 537 532
3 532 537 538
3 532 538 533
3 539 460 459
3 539 459 540
3 459 541 540
3 459 461 541
3 542 461 462
3 542 541 461
3 544 543 464
3 543 462 464
3 543 542 462
3 544 545 543
3 547 546 539
3 546 460 539
3 546 466 460
3 547 539 540
3 468 548 469
3 548 549 469
3 469 549 464
3 549 550 464
3 550 544 464
3 544 550 545
3 551 470 471
3 552 551 471
3 466 552 471
3 546 552 466
3 554 553 548
3 468 554 548
3 473 554 468
3 548 553 549
3 556 555 551
3 555 470 551
3 555 474 470
3 556 551 552
3 476 557 477
3 557 558 477
3 558 473 477
3 558 554 473
3 555 478 474
3 559 478 555
3 480 560 479
3 560 561 479
3 479 561 476
3 561 562 476
3 562 557 476
3 557 562 558
3 564 563 482
3 482 563 481
3 482 478 559
3 482 559 564
3 566 565 560
3 480 566 560
3 485 566 480
3 560 565 561
3 563 487 481
3 567 487 563
3 569 568 489
3 569 489 488
3 485 489 566
3 566 489 568
3 567 570 487
3 487 570 490
3 488 490 569
3 569 490 570
3 571 498 499
3 500 572 499
3 499 572 571
3 501 573 500
3 500 573 572
3 502 573 501
3 574 504 505
3 506 575 505
3 505 575 574
3 507 576 506
3 506 576 575
3 508 576 507
3 578 577 510
3 510 577 509
3 510 498 571
3 579 510 571
3 578 510 579
3 579 571 572
3 579 572 580
3 582 581 580
3 572 582 580
3 573 582 572
3 511 583 502
3 583 573 502
3 583 582 573
3 584 583 511
3 584 511 504
3 585 584 504
3 574 585 504
3 585 574 575
3 585 575 586
3 586 575 576
3 586 576 587
3 576 508 587
3 508 588 587
3 508 513 588
3 577 514 509
3 589 514 577
3 590 581 582
3 590 582 583
3 590 583 591
3 591 583 584
3 516 592 517
3 592 593 517
3 593 513 517
3 593 588 513
3 595 594 520
3 520 594 519
3 520 514 589
3 520 589 595
3 522 596 521
3 521 596 597
3 598 521 597
3 523 521 598
3 516 523 592
3 523 599 592
3 523 598 599
3 592 599 593
3 594 525 519
3 600 525 594
3 527 601 528
3 601 602 528
3 528 602 522
3 602 603 522
3 603 596 522
3 596 603 597
3 600 530 525
3 604 530 600
3 606 605 534
3 606 534 533
3 534 607 535
3 605 607 534
3 527 535 601
3 535 608 601
3 535 607 608
3 601 608 602
3 536 530 609
3 530 610 609
3 530 604 610
3 611 537 536
3 611 536 609
3 537 611 612
3 613 537 612
3 538 537 613
3 533 538 606
3 606 538 613
3 610 614 609
3 609 614 611
3 611 614 615
3 611 615 612
3 616 540 541
3 616 541 617
3 541 618 617
3 541 542 618
3 619 542 543
3 619 618 542
3 621 620 545
3 620 543 545
3 620 619 543
3 621 622 620
3 623 546 547
3 624 623 547
3 624 547 540
3 625 624 540
3 616 625 540
3 625 616 617
3 549 626 550
3 626 627 550
3 550 627 545
3 627 628 545
3 628 621 545
3 621 628 622
3 630 629 623
3 629 546 623
3 629 552 546
3 630 623 624
3 554 631 553
3 631 632 553
3 553 632 549
3 632 633 549
3 633 626 549
3 626 633 627
3 634 555 556
3 635 634 556
3 552 635 556
3 629 635 552
3 637 636 631
3 554 637 631
3 558 637 554
3 631 636 632
3 639 638 634
3 638 555 634
3 638 559 555
3 639 634 635
3 641 640 562
3 641 562 561
3 558 562 637
3 637 562 640
3 642 563 564
3 643 642 564
3 559 643 564
3 638 643 559
3 645 644 565
3 645 565 566
3 561 565 641
3 641 565 644
3 646 567 642
3 642 567 563
3 647 568 569
3 642 647 569
3 646 642 569
3 647 642 643
3 566 568 645
3 645 568 647
3 646 570 567
3 570 646 569
3 648 577 578
3 579 649 578
3 578 649 648
3 580 650 579
3 579 650 649
3 581 650 580
3 651 584 585
3 651 585 652
3 585 653 652
3 585 586 653
3 654 586 587
3 654 653 586
3 656 655 588
3 655 587 588
3 655 654 587
3 656 657 655
3 659 658 648
3 658 577 648
3 658 589 577
3 659 648 649
3 659 649 660
3 660 649 650
3 660 650 661
3 661 650 581
3 590 661 581
3 662 661 590
3 663 590 591
3 663 662 590
3 591 584 651
3 664 591 651
3 663 591 664
3 664 651 652
3 593 665 656
3 593 656 588
3 657 656 666
3 666 656 665
3 668 667 595
3 595 667 594
3 595 589 658
3 595 658 668
3 597 669 598
3 670 599 598
3 670 598 669
3 670 671 599
3 599 671 593
3 671 672 593
3 672 665 593
3 665 672 666
3 667 600 594
3 673 600 667
3 675 674 603
3 675 603 602
3 597 603 669
3 603 676 669
3 603 674 676
3 669 676 670
3 670 676 677
3 670 677 671
3 673 604 600
3 678 604 673
3 680 679 605
3 680 605 606
3 605 681 607
3 679 681 605
3 607 682 608
3 681 682 607
3 602 608 675
3 675 608 682
3 678 610 604
3 683 610 678
3 686 685 684
3 613 612 684
3 685 613 684
3 687 613 685
3 606 613 680
3 680 613 687
3 683 688 610
3 610 688 614
3 684 615 686
3 615 688 686
3 615 614 688
3 615 684 612
3 690 689 618
3 618 689 617
3 691 618 619
3 691 690 618
3 692 619 620
3 692 691 619
3 694 693 622
3 693 620 622
3 693 692 620
3 694 695 693
3 697 696 625
3 625 696 624
3 625 617 689
3 625 689 697
3 627 698 628
3 698 699 628
3 628 699 622
3 699 700 622
3 700 694 622
3 694 700 695
3 702 701 630
3 630 701 629
3 630 624 696
3 630 696 702
3 632 703 633
3 703 704 633
3 633 704 627
3 704 705 627
3 705 698 627
3 698 705 699
3 701 635 629
3 706 635 701
3 708 707 636
3 708 636 637
3 632 636 703
3 636 709 703
3 636 707 709
3 703 709 704
3 710 638 639
3 635 706 711
3 710 635 711
3 712 710 711
3 639 635 710
3 640 641 712
3 711 640 712
3 713 640 711
3 637 640 708
3 708 640 713
3 714 643 710
3 710 643 638
3 645 714 644
3 714 712 644
3 714 710 712
3 644 712 641
3 714 647 643
3 647 714 645
3 717 716 715
3 715 718 717
3 716 719 715
3 715 719 718
3 720 652 653
3 720 653 721
3 653 722 721
3 653 654 722
3 723 654 655
3 723 722 654
3 725 724 657
3 724 655 657
3 724 723 655
3 725 726 724
3 727 658 659
3 660 728 659
3 659 728 727
3 661 729 660
3 660 729 728
3 662 730 661
3 661 730 729
3 663 731 662
3 662 731 730
3 731 663 732
3 663 733 732
3 663 664 733
3 664 652 720
3 734 664 720
3 733 664 734
3 734 720 721
3 736 735 725
3 657 736 725
3 666 736 657
3 725 735 726
3 738 737 668
3 668 737 667
3 668 658 727
3 739 668 727
3 738 668 739
3 739 727 728
3 739 728 740
3 740 728 729
3 740 729 741
3 741 729 730
3 741 730 742
3 742 730 731
3 742 731 743
3 743 731 732
3 745 744 672
3 745 672 671
3 666 672 736
3 736 672 744
3 737 673 667
3 746 673 737
3 749 748 747
3 751 750 747
3 751 747 748
3 752 674 675
3 753 750 751
3 674 752 754
3 755 674 754
3 676 674 755
3 676 756 677
3 755 756 676
3 671 677 745
3 745 677 756
3 746 678 673
3 757 678 746
3 760 759 758
3 679 680 758
3 759 679 758
3 761 679 759
3 747 681 749
3 681 761 749
3 681 679 761
3 681 747 682
3 682 747 750
3 750 753 682
3 753 762 682
3 752 675 682
3 752 682 762
3 752 762 754
3 764 683 763
3 683 757 763
3 683 678 757
3 685 686 764
3 763 685 764
3 765 685 763
3 758 687 760
3 687 765 760
3 687 685 765
3 687 758 680
3 764 688 683
3 688 764 686
3 766 689 690
3 766 690 767
3 690 768 767
3 690 691 768
3 769 691 692
3 769 768 691
3 770 692 693
3 770 769 692
3 693 695 770
3 770 695 771
3 772 696 697
3 773 772 697
3 773 697 689
3 774 773 689
3 766 774 689
3 774 766 767
3 776 775 700
3 776 700 699
3 695 700 771
3 771 700 775
3 777 701 702
3 696 772 702
3 772 777 702
3 772 778 777
3 772 773 779
3 772 779 778
3 782 781 780
3 705 704 780
3 781 705 780
3 783 705 781
3 699 705 776
3 776 705 783
3 784 706 777
3 777 706 701
3 785 777 778
3 784 777 785
3 786 707 708
3 778 786 708
3 785 778 708
3 786 778 779
3 780 709 782
3 709 786 782
3 709 707 786
3 709 780 704
3 784 711 706
3 711 784 713
3 713 784 785
3 713 785 708
3 789 788 787
3 791 790 787
3 787 790 789
3 791 792 790
3 795 794 793
3 795 793 788
3 788 793 787
3 793 716 787
3 716 717 787
3 791 787 796
3 787 718 796
3 718 797 796
3 718 787 717
3 791 796 792
3 793 794 798
3 798 794 799
3 800 719 716
3 793 800 716
3 798 800 793
3 800 801 719
3 801 718 719
3 801 797 718
3 798 799 802
3 802 799 803
3 805 800 804
3 800 802 804
3 800 798 802
3 800 805 801
3 808 807 806
3 808 806 803
3 806 802 803
3 806 809 802
3 804 802 810
3 810 802 809
3 806 807 811
3 811 807 812
3 814 809 813
3 809 811 813
3 809 806 811
3 809 814 810
3 817 816 815
3 819 818 815
3 818 811 815
3 812 817 815
3 812 815 811
3 811 818 813
3 822 821 820
3 824 823 820
3 820 823 822
3 826 825 824
3 825 815 824
3 816 823 824
3 816 824 815
3 815 825 819
3 828 827 722
3 722 827 721
3 829 722 723
3 829 828 722
3 724 820 821
3 829 724 821
3 723 724 829
3 824 820 830
3 820 726 830
3 726 831 830
3 726 820 724
3 824 830 826
3 832 732 733
3 832 733 833
3 733 834 833
3 733 734 834
3 734 721 827
3 734 827 834
3 736 835 735
3 835 836 735
3 836 726 735
3 836 831 726
3 838 837 738
3 738 837 737
3 839 738 739
3 839 838 738
3 841 839 840
3 839 740 840
3 839 739 740
3 741 842 740
3 740 842 840
3 742 843 741
3 741 843 842
3 743 844 742
3 742 844 843
3 845 844 743
3 845 743 732
3 846 845 732
3 832 846 732
3 846 832 833
3 745 847 744
3 847 848 744
3 744 848 736
3 848 849 736
3 849 835 736
3 835 849 836
3 837 746 737
3 850 746 837
3 851 841 840
3 853 852 851
3 840 853 851
3 842 853 840
3 749 853 748
3 853 843 748
3 853 842 843
3 748 843 751
3 751 843 844
3 855 854 753
3 855 753 751
3 845 855 751
3 844 845 751
3 755 754 854
3 855 755 854
3 856 755 855
3 755 857 756
3 856 857 755
3 745 756 847
3 756 858 847
3 756 857 858
3 847 858 848
3 861 860 859
3 850 861 859
3 757 850 859
3 746 850 757
3 863 862 759
3 863 759 760
3 853 761 852
3 761 862 852
3 761 759 862
3 761 853 749
3 854 762 753
3 762 854 754
3 860 864 859
3 859 864 757
3 864 763 757
3 864 865 763
3 763 866 765
3 865 866 763
3 760 765 863
3 863 765 866
3 867 767 768
3 769 868 768
3 768 868 867
3 868 769 869
3 769 870 869
3 769 770 870
3 770 771 870
3 870 771 871
3 872 773 774
3 767 867 774
3 867 872 774
3 867 873 872
3 874 867 868
3 873 867 874
3 875 775 776
3 868 875 776
3 874 868 776
3 875 868 869
3 771 775 871
3 871 775 875
3 876 779 872
3 872 779 773
3 782 876 781
3 876 873 781
3 876 872 873
3 781 873 783
3 783 873 874
3 783 874 776
3 876 786 779
3 786 876 782
3 878 877 789
3 789 877 788
3 879 789 790
3 879 878 789
3 790 792 879
3 879 792 880
3 882 881 795
3 795 881 794
3 795 788 877
3 795 877 882
3 797 883 796
3 883 884 796
3 884 792 796
3 884 880 792
3 881 799 794
3 885 799 881
3 887 886 883
3 797 887 883
3 801 887 797
3 883 886 884
3 890 889 888
3 885 890 888
3 803 885 888
3 799 885 803
3 804 891 805
3 891 892 805
3 892 801 805
3 892 887 801
3 888 889 808
3 889 807 808
3 889 893 807
3 888 808 803
3 895 894 891
3 804 895 891
3 810 895 804
3 891 894 892
3 898 897 896
3 893 898 896
3 812 893 896
3 807 893 812
3 900 899 814
3 900 814 813
3 810 814 895
3 895 814 899
3 903 902 901
3 903 901 897
3 897 901 896
3 901 816 896
3 816 817 896
3 905 904 819
3 905 817 904
3 817 905 896
3 906 896 905
3 896 906 812
3 904 812 906
3 906 818 904
3 904 818 819
3 817 812 904
3 813 818 900
3 900 818 906
3 908 907 822
3 822 907 821
3 823 901 902
3 908 823 902
3 822 823 908
3 816 901 823
3 825 826 909
3 909 910 825
3 910 819 825
3 910 905 819
3 912 911 828
3 828 911 827
3 913 828 829
3 913 912 828
3 829 821 907
3 829 907 913
3 831 914 830
3 914 915 830
3 830 915 826
3 915 916 826
3 916 909 826
3 909 916 910
3 917 833 834
3 918 917 834
3 827 918 834
3 911 918 827
3 920 919 914
3 831 920 914
3 836 920 831
3 914 919 915
3 921 837 838
3 839 922 838
3 838 922 921
3 841 922 839
3 923 845 846
3 924 923 846
3 924 846 833
3 925 924 833
3 917 925 833
3 925 917 918
3 928 927 926
3 849 848 926
3 927 849 926
3 929 849 927
3 836 849 920
3 920 849 929
3 932 931 930
3 933 932 921
3 932 850 921
3 850 837 921
3 932 930 850
3 933 921 922
3 933 922 934
3 936 934 935
3 935 934 851
3 934 922 851
3 922 841 851
3 852 935 851
3 923 855 845
3 924 937 923
3 937 855 923
3 937 856 855
3 856 938 857
3 937 938 856
3 926 858 928
3 858 938 928
3 858 857 938
3 858 926 848
3 930 931 861
3 931 860 861
3 931 939 860
3 930 861 850
3 936 935 862
3 863 936 862
3 940 936 863
3 862 935 852
3 939 941 860
3 860 941 864
3 864 942 865
3 941 942 864
3 865 943 866
3 942 943 865
3 863 866 940
3 940 866 943
3 944 869 870
3 871 944 870
3 944 875 869
3 875 944 871
3 946 945 878
3 878 945 877
3 947 878 879
3 947 946 878
3 879 880 947
3 947 880 948
3 950 949 882
3 882 949 881
3 882 877 945
3 882 945 950
3 884 948 880
3 884 951 948
3 949 885 881
3 952 885 949
3 887 953 886
3 953 954 886
3 954 884 886
3 954 951 884
3 956 955 890
3 890 955 889
3 890 885 952
3 890 952 956
3 958 957 953
3 887 958 953
3 892 958 887
3 953 957 954
3 955 893 889
3 959 893 955
3 895 960 894
3 960 961 894
3 961 892 894
3 961 958 892
3 963 962 898
3 898 962 897
3 898 893 959
3 898 959 963
3 900 964 899
3 964 965 899
3 899 965 895
3 965 966 895
3 966 960 895
3 960 966 961
3 968 967 903
3 903 967 902
3 903 897 962
3 903 962 968
3 905 969 906
3 969 970 906
3 906 970 900
3 970 971 900
3 971 964 900
3 964 971 965
3 973 972 908
3 908 972 907
3 908 902 967
3 908 967 973
3 975 974 969
3 905 975 969
3 910 975 905
3 969 974 970
3 976 911 912
3 976 912 977
3 912 978 977
3 912 913 978
3 913 907 972
3 913 972 978
3 980 979 916
3 980 916 915
3 910 916 975
3 975 916 979
3 982 981 976
3 981 911 976
3 981 918 911
3 982 976 977
3 984 983 919
3 984 919 920
3 915 919 980
3 980 919 983
3 985 924 925
3 918 981 986
3 985 918 986
3 987 985 986
3 925 918 985
3 927 928 987
3 986 927 987
3 988 927 986
3 927 989 929
3 988 989 927
3 920 929 984
3 984 929 989
3 991 990 932
3 932 990 931
3 992 932 933
3 992 991 932
3 994 992 993
3 992 934 993
3 992 933 934
3 936 993 934
3 985 937 924
3 937 985 938
3 938 985 987
3 938 987 928
3 990 939 931
3 995 939 990
3 994 993 996
3 994 996 997
3 940 996 936
3 936 996 993
3 995 998 939
3 939 998 941
3 941 999 942
3 998 999 941
3 996 943 997
3 943 999 997
3 943 942 999
3 943 996 940
3 1001 1000 946
3 946 1000 945
3 1002 946 947
3 1002 1001 946
3 947 948 1002
3 1002 948 1003
3 1005 1004 950
3 950 1004 949
3 950 945 1000
3 950 1000 1005
3 951 1003 948
3 951 1006 1003
3 1004 952 949
3 1007 952 1004
3 954 1006 951
3 954 1008 1006
3 1010 1009 956
3 956 1009 955
3 956 952 1007
3 956 1007 1010
3 1012 1011 957
3 1012 957 958
3 954 957 1008
3 1008 957 1011
3 1009 959 955
3 1013 959 1009
3 961 1012 958
3 961 1014 1012
3 1016 1015 963
3 963 1015 962
3 963 959 1013
3 963 1013 1016
3 1018 1017 966
3 1018 966 965
3 961 966 1014
3 1014 966 1017
3 1020 1019 968
3 968 1019 967
3 968 962 1015
3 968 1015 1020
3 1022 1021 971
3 1022 971 970
3 965 971 1018
3 1018 971 1021
3 1024 1023 973
3 973 1023 972
3 973 967 1019
3 973 1019 1024
3 1026 1025 974
3 1026 974 975
3 970 974 1022
3 1022 974 1025
3 1028 1027 978
3 978 1027 977
3 978 972 1023
3 978 1023 1028
3 1030 1029 979
3 1030 979 980
3 975 979 1026
3 1026 979 1029
3 1031 981 982
3 977 1027 1032
3 1031 977 1032
3 1033 1031 1032
3 982 977 1031
3 1035 1034 1033
3 1035 1033 1032
3 983 984 1034
3 1035 983 1034
3 1036 983 1035
3 980 983 1030
3 1030 983 1036
3 1031 986 981
3 986 1031 988
3 988 1031 1033
3 988 1033 989
3 989 1033 1034
3 989 1034 984
3 1038 1037 991
3 991 1037 990
3 1040 1038 1039
3 1038 992 1039
3 1038 991 992
3 994 1039 992
3 1043 1042 1041
3 1037 1043 1041
3 995 1037 1041
3 990 1037 995
3 1044 1040 1039
3 1039 994 1044
3 994 1045 1044
3 994 997 1045
3 1041 1042 1046
3 1046 1042 1047
3 1048 998 995
3 1041 1048 995
3 1046 1048 1041
3 998 1048 1049
3 1050 998 1049
3 999 998 1050
3 997 999 1045
3 1045 999 1050
3 1047 1051 1046
3 1046 1051 1048
3 1048 1051 1052
3 1048 1052 1049
3 1055 1054 1053
3 1000 1001 1053
3 1001 1055 1053
3 1001 1056 1055
3 1057 1001 1002
3 1057 1056 1001
3 1002 1003 1057
3 1057 1003 1058
3 1053 1054 1005
3 1054 1004 1005
3 1054 1059 1004
3 1053 1005 1000
3 1006 1058 1003
3 1006 1060 1058
3 1059 1007 1004
3 1061 1007 1059
3 1008 1060 1006
3 1008 1062 1060
3 1064 1063 1010
3 1010 1063 1009
3 1010 1007 1061
3 1010 1061 1064
3 1066 1065 1011
3 1066 1011 1012
3 1008 1011 1062
3 1062 1011 1065
3 1063 1013 1009
3 1067 1013 1063
3 1014 1066 1012
3 1014 1068 1066
3 1070 1069 1016
3 1016 1069 1015
3 1016 1013 1067
3 1016 1067 1070
3 1072 1071 1017
3 1072 1017 1018
3 1014 1017 1068
3 1068 1017 1071
3 1075 1074 1073
3 1019 1020 1073
3 1020 1075 1073
3 1020 1076 1075
3 1020 1015 1069
3 1020 1069 1076
3 1078 1077 1021
3 1078 1021 1022
3 1018 1021 1072
3 1072 1021 1077
3 1081 1080 1079
3 1081 1079 1074
3 1074 1079 1073
3 1079 1023 1073
3 1023 1024 1073
3 1073 1024 1019
3 1083 1082 1025
3 1083 1025 1026
3 1022 1025 1078
3 1078 1025 1082
3 1079 1080 1028
3 1080 1027 1028
3 1080 1084 1027
3 1079 1028 1023
3 1087 1086 1085
3 1029 1030 1085
3 1086 1029 1085
3 1088 1029 1086
3 1026 1029 1083
3 1083 1029 1088
3 1084 1089 1027
3 1027 1089 1032
3 1032 1090 1035
3 1089 1090 1032
3 1085 1036 1087
3 1036 1090 1087
3 1036 1035 1090
3 1036 1085 1030
3 1091 1037 1038
3 1040 1091 1038
3 1093 1092 1043
3 1043 1092 1042
3 1043 1037 1091
3 1094 1043 1091
3 1093 1043 1094
3 1094 1091 1040
3 1044 1094 1040
3 1095 1094 1044
3 1044 1045 1095
3 1095 1045 1096
3 1099 1098 1097
3 1092 1099 1097
3 1047 1092 1097
3 1042 1092 1047
3 1101 1100 1050
3 1101 1050 1049
3 1045 1050 1096
3 1096 1050 1100
3 1098 1102 1097
3 1097 1102 1047
3 1102 1051 1047
3 1102 1103 1051
3 1051 1104 1052
3 1103 1104 1051
3 1049 1052 1101
3 1101 1052 1104
3 1106 1105 1055
3 1055 1105 1054
3 1107 1055 1056
3 1107 1106 1055
3 1108 1056 1057
3 1108 1107 1056
3 1057 1058 1108
3 1108 1058 1109
3 1105 1059 1054
3 1110 1059 1105
3 1060 1109 1058
3 1060 1111 1109
3 1114 1113 1112
3 1110 1114 1112
3 1061 1110 1112
3 1059 1110 1061
3 1062 1111 1060
3 1062 1115 1111
3 1112 1113 1064
3 1113 1063 1064
3 1113 1116 1063
3 1112 1064 1061
3 1066 1117 1065
3 1117 1118 1065
3 1118 1062 1065
3 1118 1115 1062
3 1121 1120 1119
3 1116 1121 1119
3 1067 1116 1119
3 1063 1116 1067
3 1123 1122 1117
3 1066 1123 1117
3 1068 1123 1066
3 1117 1122 1118
3 1126 1125 1124
3 1126 1124 1120
3 1120 1124 1119
3 1124 1069 1119
3 1069 1070 1119
3 1119 1070 1067
3 1128 1127 1071
3 1128 1071 1072
3 1068 1071 1123
3 1123 1071 1127
3 1130 1129 1075
3 1075 1129 1074
3 1076 1124 1125
3 1130 1076 1125
3 1075 1076 1130
3 1124 1076 1069
3 1132 1131 1077
3 1132 1077 1078
3 1072 1077 1128
3 1128 1077 1131
3 1134 1133 1081
3 1081 1133 1080
3 1081 1074 1129
3 1081 1129 1134
3 1136 1135 1082
3 1136 1082 1083
3 1078 1082 1132
3 1132 1082 1135
3 1133 1084 1080
3 1137 1084 1133
3 1140 1139 1138
3 1086 1087 1138
3 1139 1086 1138
3 1141 1086 1139
3 1086 1142 1088
3 1141 1142 1086
3 1083 1088 1136
3 1136 1088 1142
3 1137 1143 1084
3 1084 1143 1089
3 1138 1090 1140
3 1090 1143 1140
3 1090 1089 1143
3 1090 1138 1087
3 1146 1145 1144
3 1092 1093 1144
3 1093 1146 1144
3 1093 1147 1146
3 1148 1093 1094
3 1148 1147 1093
3 1150 1148 1149
3 1148 1095 1149
3 1148 1094 1095
3 1096 1149 1095
3 1144 1145 1099
3 1145 1098 1099
3 1145 1151 1098
3 1144 1099 1092
3 1150 1149 1100
3 1101 1150 1100
3 1152 1150 1101
3 1100 1149 1096
3 1151 1153 1098
3 1098 1153 1102
3 1102 1154 1103
3 1153 1154 1102
3 1103 1155 1104
3 1154 1155 1103
3 1101 1104 1152
3 1152 1104 1155
3 1157 1156 1106
3 1106 1156 1105
3 1158 1106 1107
3 1158 1157 1106
3 1159 1107 1108
3 1159 1158 1107
3 1108 1109 1159
3 1159 1109 1160
3 1156 1110 1105
3 1161 1110 1156
3 1111 1160 1109
3 1111 1162 1160
3 1164 1163 1114
3 1114 1163 1113
3 1114 1110 1161
3 1114 1161 1164
3 1115 1162 1111
3 1115 1165 1162
3 1163 1116 1113
3 1166 1116 1163
3 1118 1165 1115
3 1118 1167 1165
3 1170 1169 1168
3 1120 1121 1168
3 1121 1170 1168
3 1121 1171 1170
3 1121 1116 1166
3 1121 1166 1171
3 1173 1172 1122
3 1173 1122 1123
3 1118 1122 1167
3 1167 1122 1172
3 1168 1169 1126
3 1169 1125 1126
3 1169 1174 1125
3 1168 1126 1120
3 1176 1175 1127
3 1176 1127 1128
3 1123 1127 1173
3 1173 1127 1175
3 1178 1177 1130
3 1130 1177 1129
3 1130 1125 1174
3 1130 1174 1178
3 1180 1179 1131
3 1180 1131 1132
3 1128 1131 1176
3 1176 1131 1179
3 1182 1181 1134
3 1134 1181 1133
3 1134 1129 1177
3 1134 1177 1182
3 1185 1184 1183
3 1135 1136 1183
3 1184 1135 1183
3 1186 1135 1184
3 1132 1135 1180
3 1180 1135 1186
3 1188 1137 1187
3 1137 1181 1187
3 1137 1133 1181
3 1139 1140 1188
3 1187 1139 1188
3 1189 1139 1187
3 1139 1190 1141
3 1189 1190 1139
3 1183 1142 1185
3 1142 1190 1185
3 1142 1141 1190
3 1142 1183 1136
3 1188 1143 1137
3 1143 1188 1140
3 1192 1191 1146
3 1146 1191 1145
3 1193 1146 1147
3 1193 1192 1146
3 1194 1147 1148
3 1194 1193 1147
3 1148 1150 1194
3 1194 1150 1195
3 1191 1151 1145
3 1196 1151 1191
3 1199 1198 1197
3 1198 1195 1197
3 1195 1152 1197
3 1195 1150 1152
3 1196 1200 1151
3 1151 1200 1153
3 1153 1201 1154
3 1200 1201 1153
3 1197 1155 1199
3 1155 1201 1199
3 1155 1154 1201
3 1155 1197 1152
3 1202 1156 1157
3 1202 1157 1203
3 1157 1204 1203
3 1157 1158 1204
3 1205 1158 1159
3 1205 1204 1158
3 1159 1160 1205
3 1205 1160 1206
3 1208 1207 1202
3 1207 1156 1202
3 1207 1161 1156
3 1208 1202 1203
3 1162 1206 1160
3 1162 1209 1206
3 1210 1163 1164
3 1211 1210 1164
3 1161 1211 1164
3 1207 1211 1161
3 1165 1209 1162
3 1165 1212 1209
3 1214 1213 1210
3 1213 1163 1210
3 1213 1166 1163
3 1214 1210 1211
3 1167 1212 1165
3 1167 1215 1212
3 1217 1216 1170
3 1170 1216 1169
3 1218 1170 1171
3 1218 1217 1170
3 1171 1166 1213
3 1171 1213 1218
3 1173 1219 1172
3 1219 1220 1172
3 1220 1167 1172
3 1220 1215 1167
3 1223 1222 1221
3 1216 1223 1221
3 1174 1216 1221
3 1169 1216 1174
3 1176 1224 1175
3 1224 1225 1175
3 1175 1225 1173
3 1225 1226 1173
3 1226 1219 1173
3 1219 1226 1220
3 1221 1222 1178
3 1222 1177 1178
3 1222 1227 1177
3 1221 1178 1174
3 1229 1228 1179
3 1229 1179 1180
3 1176 1179 1224
3 1179 1230 1224
3 1179 1228 1230
3 1224 1230 1225
3 1232 1231 1182
3 1182 1231 1181
3 1182 1177 1227
3 1182 1227 1232
3 1234 1233 1184
3 1234 1184 1185
3 1184 1235 1186
3 1233 1235 1184
3 1180 1186 1229
3 1229 1186 1235
3 1231 1236 1181
3 1181 1236 1187
3 1187 1237 1189
3 1236 1237 1187
3 1189 1238 1190
3 1237 1238 1189
3 1185 1190 1234
3 1234 1190 1238
3 1239 1191 1192
3 1193 1240 1192
3 1192 1240 1239
3 1194 1241 1193
3 1193 1241 1240
3 1195 1241 1194
3 1242 1196 1239
3 1239 1196 1191
3 1243 1239 1240
3 1242 1239 1243
3 1199 1243 1198
3 1243 1241 1198
3 1243 1240 1241
3 1198 1241 1195
3 1242 1200 1196
3 1200 1242 1201
3 1201 1242 1243
3 1201 1243 1199
3 1245 1244 1204
3 1204 1244 1203
3 1247 1245 1246
3 1245 1205 1246
3 1245 1204 1205
3 1206 1246 1205
3 1248 1207 1208
3 1249 1248 1208
3 1203 1249 1208
3 1244 1249 1203
3 1250 1247 1246
3 1246 1206 1250
3 1206 1251 1250
3 1206 1209 1251
3 1253 1252 1248
3 1252 1207 1248
3 1252 1211 1207
3 1253 1248 1249
3 1212 1251 1209
3 1212 1254 1251
3 1255 1213 1214
3 1256 1255 1214
3 1211 1256 1214
3 1252 1256 1211
3 1215 1254 1212
3 1215 1257 1254
3 1259 1258 1217
3 1217 1258 1216
3 1260 1217 1218
3 1260 1259 1217
3 1218 1213 1255
3 1261 1218 1255
3 1260 1218 1261
3 1261 1255 1256
3 1220 1257 1215
3 1220 1262 1257
3 1264 1263 1223
3 1223 1263 1222
3 1223 1216 1258
3 1223 1258 1264
3 1266 1265 1226
3 1266 1226 1225
3 1220 1226 1262
3 1262 1226 1265
3 1263 1227 1222
3 1267 1227 1263
3 1269 1268 1228
3 1269 1228 1229
3 1228 1270 1230
3 1268 1270 1228
3 1225 1230 1266
3 1266 1230 1270
3 1271 1231 1232
3 1272 1271 1232
3 1227 1272 1232
3 1267 1272 1227
3 1274 1273 1233
3 1274 1233 1234
3 1233 1275 1235
3 1273 1275 1233
3 1229 1235 1269
3 1269 1235 1275
3 1271 1236 1231
3 1272 1276 1271
3 1276 1236 1271
3 1276 1237 1236
3 1237 1277 1238
3 1276 1277 1237
3 1234 1238 1274
3 1274 1238 1277
3 1278 1244 1245
3 1247 1278 1245
3 1280 1279 1278
3 1279 1244 1278
3 1279 1249 1244
3 1282 1280 1281
3 1281 1280 1250
3 1280 1278 1250
3 1278 1247 1250
3 1251 1281 1250
3 1283 1252 1253
3 1284 1283 1253
3 1249 1284 1253
3 1279 1284 1249
3 1282 1281 1285
3 1282 1285 1286
3 1254 1285 1251
3 1251 1285 1281
3 1287 1256 1283
3 1283 1256 1252
3 1283 1284 1288
3 1283 1288 1287
3 1289 1286 1285
3 1285 1254 1289
3 1254 1290 1289
3 1254 1257 1290
3 1291 1258 1259
3 1260 1292 1259
3 1259 1292 1291
3 1261 1293 1260
3 1260 1293 1292
3 1294 1293 1261
3 1294 1261 1256
3 1295 1294 1256
3 1287 1295 1256
3 1295 1287 1288
3 1262 1290 1257
3 1262 1296 1290
3 1298 1297 1264
3 1264 1297 1263
3 1264 1258 1291
3 1299 1264 1291
3 1298 1264 1299
3 1299 1291 1292
3 1299 1292 1300
3 1300 1292 1293
3 1300 1293 1301
3 1301 1293 1294
3 1303 1302 1265
3 1303 1265 1266
3 1262 1265 1296
3 1296 1265 1302
3 1297 1267 1263
3 1304 1267 1297
3 1306 1305 1268
3 1306 1268 1269
3 1268 1307 1270
3 1305 1307 1268
3 1266 1270 1303
3 1303 1270 1307
3 1304 1272 1267
3 1308 1272 1304
3 1310 1309 1273
3 1310 1273 1274
3 1273 1311 1275
3 1309 1311 1273
3 1269 1275 1306
3 1306 1275 1311
3 1308 1312 1272
3 1272 1312 1276
3 1276 1313 1277
3 1312 1313 1276
3 1274 1277 1310
3 1310 1277 1313
3 1314 1279 1280
3 1282 1314 1280
3 1315 1284 1314
3 1314 1284 1279
3 1286 1315 1282
3 1282 1315 1314
3 1317 1316 1315
3 1316 1284 1315
3 1316 1288 1284
3 1319 1317 1318
3 1318 1317 1289
3 1317 1315 1289
3 1315 1286 1289
3 1290 1318 1289
3 1320 1294 1295
3 1321 1320 1295
3 1288 1321 1295
3 1316 1321 1288
3 1319 1318 1322
3 1319 1322 1323
3 1296 1322 1290
3 1290 1322 1318
3 1325 1324 1298
3 1298 1324 1297
3 1326 1298 1299
3 1326 1325 1298
3 1327 1299 1300
3 1327 1326 1299
3 1329 1327 1328
3 1327 1301 1328
3 1327 1300 1301
3 1294 1320 1301
3 1320 1328 1301
3 1320 1330 1328
3 1320 1321 1331
3 1320 1331 1330
3 1323 1322 1302
3 1303 1323 1302
3 1332 1323 1303
3 1302 1322 1296
3 1324 1304 1297
3 1333 1304 1324
3 1334 1329 1328
3 1306 1335 1305
3 1335 1328 1305
3 1328 1330 1305
3 1335 1334 1328
3 1331 1336 1330
3 1336 1305 1330
3 1336 1307 1305
3 1303 1307 1332
3 1332 1307 1336
3 1333 1308 1304
3 1337 1308 1333
3 1339 1338 1309
3 1339 1309 1310
3 1309 1340 1311
3 1338 1340 1309
3 1306 1311 1335
3 1335 1311 1340
3 1337 1341 1308
3 1308 1341 1312
3 1312 1342 1313
3 1341 1342 1312
3 1310 1313 1339
3 1339 1313 1342
3 1343 1316 1317
3 1319 1343 1317
3 1344 1321 1343
3 1343 1321 1316
3 1323 1344 1319
3 1319 1344 1343
3 1345 1324 1325
3 1326 1346 1325
3 1325 1346 1345
3 1327 1347 1326
3 1326 1347 1346
3 1329 1347 1327
3 1348 1331 1344
3 1344 1331 1321
3 1332 1348 1323
3 1323 1348 1344
3 1350 1349 1345
3 1349 1324 1345
3 1349 1333 1324
3 1350 1345 1346
3 1350 1346 1351
3 1353 1352 1351
3 1346 1353 1351
3 1347 1353 1346
3 1334 1354 1329
3 1354 1347 1329
3 1354 1353 1347
3 1335 1354 1334
3 1348 1336 1331
3 1336 1348 1332
3 1357 1356 1355
3 1349 1357 1355
3 1337 1349 1355
3 1333 1349 1337
3 1352 1353 1338
3 1339 1352 1338
3 1358 1352 1339
3 1338 1353 1340
3 1340 1353 1354
3 1340 1354 1335
3 1356 1359 1355
3 1355 1359 1337
3 1359 1341 1337
3 1359 1360 1341
3 1341 1361 1342
3 1360 1361 1341
3 1339 1342 1358
3 1358 1342 1361
3 1362 1349 1350
3 1351 1363 1350
3 1350 1363 1362
3 1352 1363 1351
3 1364 1356 1357
3 1365 1364 1357
3 1365 1357 1349
3 1366 1365 1349
3 1362 1366 1349
3 1368 1367 1366
3 1362 1368 1366
3 1363 1368 1362
3 1358 1368 1352
3 1352 1368 1363
3 1364 1359 1356
3 1365 1369 1364
3 1369 1359 1364
3 1369 1360 1359
3 1368 1361 1367
3 1361 1369 1367
3 1361 1360 1369
3 1361 1368 1358
3 1370 1365 1366
3 1367 1370 1366
3 1370 1369 1365
3 1369 1370 1367
