ply
format ascii 1.0
element vertex 1582
property float x
property float y
property float z
element face 3160
property list uchar int vertex_indices
end_header
28.50000 -16.00000 -3.00000
28.00000 -16.00000 -3.50000
28.00000 -16.50000 -3.00000
28.00000 -16.00000 -2.50000
28.50000 -15.00000 -5.00000
28.00000 -15.00000 -5.50000
28.00000 -15.50000 -5.00000
28.00000 -15.50000 -4.00000
28.50000 -15.00000 -4.00000
28.50000 -15.00000 -3.00000
28.00000 -15.50000 -2.00000
28.50000 -15.00000 -2.00000
28.00000 -15.00000 -1.50000
28.00000 -14.50000 -5.00000
28.50000 -14.00000 -4.00000
28.00000 -14.00000 -4.50000
28.50000 -14.00000 -3.00000
28.50000 -14.00000 -2.00000
28.00000 -14.00000 -1.50000
28.50000 -13.00000 -4.00000
28.00000 -13.00000 -4.50000
28.50000 -13.00000 -3.00000
28.50000 -13.00000 -2.00000
28.00000 -13.00000 -1.50000
28.50000 -12.00000 -4.00000
28.00000 -12.00000 -4.50000
28.50000 -12.00000 -3.00000
28.50000 -12.00000 -2.00000
28.00000 -12.00000 -1.50000
28.50000 -11.00000 -4.00000
28.00000 -11.00000 -4.50000
28.50000 -11.00000 -3.00000
28.50000 -11.00000 -2.00000
28.00000 -11.00000 -1.50000
28.50000 -10.00000 -4.00000
28.00000 -10.00000 -4.50000
28.50000 -10.00000 -3.00000
28.50000 -10.00000 -2.00000
28.00000 -10.00000 -1.50000
28.50000 -9.00000 -4.00000
28.00000 -9.00000 -4.50000
28.50000 -9.00000 -3.00000
28.50000 -9.00000 -2.00000
28.00000 -9.00000 -1.50000
28.50000 -8.00000 -4.00000
28.00000 -8.00000 -4.50000
28.50000 -8.00000 -3.00000
28.50000 -8.00000 -2.00000
28.00000 -8.00000 -1.50000
28.00000 -7.50000 -4.00000
28.00000 -7.50000 -3.00000
28.00000 -7.50000 -2.00000
27.50000 -16.00000 -4.00000
27.00000 -16.00000 -4.50000
27.00000 -16.50000 -4.00000
27.00000 -16.50000 -3.00000
27.00000 -16.50000 -2.00000
27.50000 -16.00000 -2.00000
27.00000 -16.50000 -1.00000
27.50000 -16.00000 -1.00000
27.00000 -16.00000 -0.50000
27.00000 -15.00000 -5.50000
27.00000 -15.50000 -5.00000
27.50000 -15.00000 -1.00000
27.00000 -15.50000 0.00000
27.50000 -15.00000 0.00000
27.00000 -15.00000 0.50000
27.50000 -14.00000 -5.00000
27.00000 -14.00000 -5.50000
27.50000 -14.00000 -1.00000
27.50000 -14.00000 0.00000
27.00000 -14.50000 1.00000
27.50000 -14.00000 1.00000
27.00000 -14.00000 1.50000
27.50000 -13.00000 -5.00000
27.00000 -13.00000 -5.50000
27.50000 -13.00000 -1.00000
27.50000 -13.00000 0.00000
27.50000 -13.00000 1.00000
27.00000 -13.00000 1.50000
27.50000 -12.00000 -5.00000
27.00000 -12.00000 -5.50000
27.50000 -12.00000 -1.00000
27.50000 -12.00000 0.00000
27.50000 -12.00000 1.00000
27.00000 -12.00000 1.50000
27.50000 -11.00000 -6.00000
27.00000 -11.00000 -6.50000
27.00000 -11.50000 -6.00000
27.50000 -11.00000 -5.00000
27.50000 -11.00000 -1.00000
27.50000 -11.00000 0.00000
27.50000 -11.00000 1.00000
27.00000 -11.00000 1.50000
27.50000 -10.00000 -6.00000
27.00000 -10.00000 -6.50000
27.50000 -10.00000 -5.00000
27.50000 -10.00000 -1.00000
27.50000 -10.00000 0.00000
27.50000 -10.00000 1.00000
27.00000 -10.00000 1.50000
27.50000 -9.00000 -6.00000
27.00000 -9.00000 -6.50000
27.50000 -9.00000 -5.00000
27.50000 -9.00000 -1.00000
27.50000 -9.00000 0.00000
27.50000 -9.00000 1.00000
27.00000 -9.00000 1.50000
27.50000 -8.00000 -6.00000
27.00000 -8.00000 -6.50000
27.50000 -8.00000 -5.00000
27.50000 -8.00000 -1.00000
27.50000 -8.00000 0.00000
27.50000 -8.00000 1.00000
27.00000 -8.00000 1.50000
27.00000 -7.50000 -6.00000
27.50000 -7.00000 -5.00000
27.00000 -7.00000 -5.50000
27.50000 -7.00000 -4.00000
27.50000 -7.00000 -3.00000
27.50000 -7.00000 -2.00000
27.50000 -7.00000 -1.00000
27.50000 -7.00000 0.00000
27.50000 -7.00000 1.00000
27.00000 -7.00000 1.50000
27.50000 -6.00000 -5.00000
27.00000 -6.00000 -5.50000
27.50000 -6.00000 -4.00000
27.50000 -6.00000 -3.00000
27.50000 -6.00000 -2.00000
27.50000 -6.00000 -1.00000
27.50000 -6.00000 0.00000
27.00000 -6.00000 0.50000
27.00000 -6.50000 1.00000
27.50000 -5.00000 -5.00000
27.00000 -5.00000 -5.50000
27.50000 -5.00000 -4.00000
27.50000 -5.00000 -3.00000
27.50000 -5.00000 -2.00000
27.50000 -5.00000 -1.00000
27.00000 -5.00000 -0.50000
27.00000 -5.50000 0.00000
27.00000 -4.50000 -5.00000
27.50000 -4.00000 -4.00000
27.00000 -4.00000 -4.50000
27.50000 -4.00000 -3.00000
27.50000 -4.00000 -2.00000
27.00000 -4.00000 -1.50000
27.00000 -4.50000 -1.00000
27.00000 -3.50000 -4.00000
27.00000 -3.50000 -3.00000
27.00000 -3.50000 -2.00000
26.00000 -16.00000 -4.50000
26.00000 -16.50000 -4.00000
26.00000 -16.50000 -3.00000
26.00000 -16.50000 -2.00000
26.00000 -16.50000 -1.00000
26.00000 -16.00000 -0.50000
26.50000 -15.00000 -5.00000
26.00000 -15.00000 -4.50000
26.00000 -15.50000 0.00000
26.00000 -15.50000 1.00000
26.50000 -15.00000 1.00000
26.00000 -15.00000 1.50000
26.00000 -14.00000 -5.50000
26.00000 -14.50000 -5.00000
26.00000 -14.50000 2.00000
26.50000 -14.00000 2.00000
26.00000 -14.00000 2.50000
26.00000 -13.00000 -5.50000
26.50000 -13.00000 2.00000
26.00000 -13.50000 3.00000
26.50000 -13.00000 3.00000
26.00000 -13.00000 3.50000
26.50000 -12.00000 -6.00000
26.00000 -12.00000 -6.50000
26.00000 -12.50000 -6.00000
26.50000 -12.00000 2.00000
26.50000 -12.00000 3.00000
26.00000 -12.00000 3.50000
26.00000 -11.00000 -6.50000
26.50000 -11.00000 2.00000
26.50000 -11.00000 3.00000
26.00000 -11.00000 3.50000
26.50000 -10.00000 -7.00000
26.00000 -10.00000 -7.50000
26.00000 -10.50000 -7.00000
26.50000 -10.00000 2.00000
26.50000 -10.00000 3.00000
26.00000 -10.00000 3.50000
26.50000 -9.00000 -7.00000
26.00000 -9.00000 -7.50000
26.50000 -9.00000 2.00000
26.50000 -9.00000 3.00000
26.00000 -9.00000 3.50000
26.50000 -8.00000 -7.00000
26.00000 -8.00000 -7.50000
26.50000 -8.00000 2.00000
26.50000 -8.00000 3.00000
26.00000 -8.00000 3.50000
26.00000 -7.50000 -7.00000
26.50000 -7.00000 -6.00000
26.00000 -7.00000 -6.50000
26.50000 -7.00000 2.00000
26.00000 -7.00000 2.50000
26.00000 -7.50000 3.00000
26.50000 -6.00000 -6.00000
26.00000 -6.00000 -6.50000
26.50000 -6.00000 1.00000
26.50000 -6.00000 2.00000
26.00000 -6.00000 2.50000
26.50000 -5.00000 -6.00000
26.00000 -5.00000 -6.50000
26.50000 -5.00000 0.00000
26.50000 -5.00000 1.00000
26.00000 -5.00000 1.50000
26.00000 -5.50000 2.00000
26.00000 -4.50000 -6.00000
26.50000 -4.00000 -5.00000
26.00000 -4.00000 -5.50000
26.50000 -4.00000 -1.00000
26.50000 -4.00000 0.00000
26.00000 -4.00000 0.50000
26.00000 -4.50000 1.00000
26.50000 -3.00000 -5.00000
26.00000 -3.00000 -5.50000
26.50000 -3.00000 -4.00000
26.50000 -3.00000 -3.00000
26.50000 -3.00000 -2.00000
26.50000 -3.00000 -1.00000
26.50000 -3.00000 0.00000
26.00000 -3.00000 0.50000
26.00000 -2.50000 -5.00000
26.00000 -2.50000 -4.00000
26.50000 -2.00000 -3.00000
26.00000 -2.00000 -3.50000
26.50000 -2.00000 -2.00000
26.00000 -2.00000 -1.50000
26.00000 -2.50000 -1.00000
26.00000 -2.50000 0.00000
26.00000 -1.50000 -3.00000
26.00000 -1.50000 -2.00000
25.50000 -16.00000 -4.00000
25.00000 -16.00000 -3.50000
25.00000 -16.50000 -3.00000
25.00000 -16.50000 -2.00000
25.00000 -16.50000 -1.00000
25.00000 -16.50000 0.00000
25.50000 -16.00000 0.00000
25.00000 -16.00000 0.50000
25.00000 -15.00000 -4.50000
25.00000 -15.50000 -4.00000
25.00000 -15.50000 1.00000
25.00000 -15.00000 1.50000
25.00000 -14.00000 -5.50000
25.00000 -14.50000 -5.00000
25.00000 -14.50000 2.00000
25.00000 -14.00000 2.50000
25.00000 -13.00000 -5.50000
25.50000 -13.00000 3.00000
25.00000 -13.00000 2.50000
25.00000 -12.00000 -6.50000
25.00000 -12.50000 -6.00000
25.00000 -12.50000 3.00000
25.00000 -12.00000 3.50000
25.00000 -11.00000 -6.50000
25.00000 -11.00000 3.50000
25.00000 -10.00000 -7.50000
25.00000 -10.50000 -7.00000
25.00000 -10.50000 4.00000
25.50000 -10.00000 4.00000
25.00000 -10.00000 4.50000
25.00000 -9.00000 -7.50000
25.50000 -9.00000 4.00000
25.00000 -9.50000 5.00000
25.50000 -9.00000 5.00000
25.00000 -9.00000 5.50000
25.00000 -8.00000 -7.50000
25.50000 -8.00000 4.00000
25.00000 -8.00000 4.50000
25.00000 -8.50000 5.00000
25.50000 -7.00000 -7.00000
25.00000 -7.00000 -7.50000
25.50000 -7.00000 3.00000
25.50000 -7.00000 4.00000
25.00000 -7.00000 4.50000
25.00000 -6.50000 -7.00000
25.00000 -6.00000 -6.50000
25.50000 -6.00000 3.00000
25.00000 -6.00000 3.50000
25.00000 -6.50000 4.00000
25.00000 -5.00000 -6.50000
25.50000 -5.00000 2.00000
25.50000 -5.00000 3.00000
25.00000 -5.00000 3.50000
25.50000 -4.00000 -6.00000
25.00000 -4.00000 -6.50000
25.50000 -4.00000 1.00000
25.50000 -4.00000 2.00000
25.00000 -4.00000 2.50000
25.00000 -4.50000 3.00000
25.50000 -3.00000 -6.00000
25.00000 -3.00000 -6.50000
25.50000 -3.00000 1.00000
25.50000 -3.00000 2.00000
25.00000 -3.00000 2.50000
25.00000 -2.50000 -6.00000
25.50000 -2.00000 -5.00000
25.00000 -2.00000 -5.50000
25.50000 -2.00000 -4.00000
25.50000 -2.00000 -1.00000
25.50000 -2.00000 0.00000
25.50000 -2.00000 1.00000
25.00000 -2.00000 1.50000
25.00000 -2.50000 2.00000
25.00000 -1.50000 -5.00000
25.50000 -1.00000 -4.00000
25.00000 -1.00000 -4.50000
25.50000 -1.00000 -3.00000
25.50000 -1.00000 -2.00000
25.50000 -1.00000 -1.00000
25.50000 -1.00000 0.00000
25.00000 -1.00000 0.50000
25.00000 -1.50000 1.00000
25.00000 -0.50000 -4.00000
25.00000 -0.50000 -3.00000
25.00000 -0.50000 -2.00000
25.00000 -0.50000 -1.00000
25.00000 -0.50000 0.00000
24.50000 -16.00000 -3.00000
24.50000 -16.00000 -2.00000
24.50000 -16.00000 -1.00000
24.50000 -16.00000 0.00000
24.50000 -15.00000 -4.00000
24.50000 -15.00000 -3.00000
24.50000 -15.00000 -2.00000
24.50000 -15.00000 -1.00000
24.50000 -15.00000 0.00000
24.50000 -15.00000 1.00000
24.00000 -14.00000 -5.50000
24.00000 -14.50000 -5.00000
24.00000 -14.50000 -4.00000
24.00000 -14.50000 -3.00000
24.00000 -14.50000 -2.00000
24.00000 -14.50000 -1.00000
24.00000 -14.50000 0.00000
24.00000 -14.00000 0.50000
24.50000 -14.00000 1.00000
24.50000 -14.00000 2.00000
24.50000 -13.00000 -6.00000
24.00000 -13.00000 -6.50000
24.00000 -13.50000 -6.00000
24.00000 -13.50000 1.00000
24.00000 -13.00000 1.50000
24.50000 -13.00000 2.00000
24.00000 -12.00000 -6.50000
24.00000 -12.50000 2.00000
24.50000 -12.00000 3.00000
24.00000 -12.00000 2.50000
24.00000 -11.00000 -6.50000
24.00000 -11.50000 3.00000
24.00000 -11.00000 3.50000
24.00000 -10.00000 -7.50000
24.00000 -10.50000 -7.00000
24.00000 -10.50000 4.00000
24.00000 -10.00000 4.50000
24.00000 -9.00000 -7.50000
24.00000 -9.50000 5.00000
24.00000 -9.00000 5.50000
24.00000 -8.00000 -7.50000
24.50000 -8.00000 5.00000
24.00000 -8.00000 5.50000
24.00000 -7.00000 -7.50000
24.50000 -7.00000 5.00000
24.00000 -7.00000 5.50000
24.50000 -6.00000 -7.00000
24.00000 -6.00000 -7.50000
24.50000 -6.00000 4.00000
24.50000 -6.00000 5.00000
24.00000 -6.00000 5.50000
24.00000 -5.50000 -7.00000
24.00000 -5.00000 -6.50000
24.50000 -5.00000 4.00000
24.00000 -5.00000 4.50000
24.00000 -5.50000 5.00000
24.00000 -4.00000 -6.50000
24.50000 -4.00000 3.00000
24.50000 -4.00000 4.00000
24.00000 -4.00000 4.50000
24.50000 -3.00000 -7.00000
24.00000 -3.00000 -7.50000
24.00000 -3.50000 -7.00000
24.50000 -3.00000 3.00000
24.00000 -3.00000 3.50000
24.00000 -3.50000 4.00000
24.50000 -2.00000 -7.00000
24.00000 -2.00000 -7.50000
24.50000 -2.00000 -6.00000
24.50000 -2.00000 2.00000
24.50000 -2.00000 3.00000
24.00000 -2.00000 3.50000
24.00000 -1.50000 -7.00000
24.50000 -1.00000 -6.00000
24.00000 -1.00000 -6.50000
24.50000 -1.00000 -5.00000
24.50000 -1.00000 1.00000
24.50000 -1.00000 2.00000
24.00000 -1.00000 2.50000
24.00000 -1.50000 3.00000
24.00000 -0.50000 -6.00000
24.50000 0.00000 -5.00000
24.00000 0.00000 -5.50000
24.50000 0.00000 -4.00000
24.50000 0.00000 -3.00000
24.50000 0.00000 -2.00000
24.50000 0.00000 -1.00000
24.50000 0.00000 0.00000
24.50000 0.00000 1.00000
24.00000 0.00000 1.50000
24.00000 -0.50000 2.00000
24.00000 0.50000 -5.00000
24.00000 0.50000 -4.00000
24.50000 1.00000 -3.00000
24.00000 1.00000 -3.50000
24.50000 1.00000 -2.00000
24.50000 1.00000 -1.00000
24.00000 1.00000 -0.50000
24.00000 0.50000 0.00000
24.00000 0.50000 1.00000
24.00000 1.50000 -3.00000
24.00000 1.50000 -2.00000
24.00000 1.50000 -1.00000
23.00000 -14.00000 -5.50000
23.00000 -14.50000 -5.00000
23.00000 -14.50000 -4.00000
23.00000 -14.50000 -3.00000
23.50000 -14.00000 -2.00000
23.00000 -14.00000 -2.50000
23.50000 -14.00000 -1.00000
23.50000 -14.00000 0.00000
23.00000 -13.00000 -6.50000
23.00000 -13.50000 -6.00000
23.00000 -13.50000 -2.00000
23.00000 -13.50000 -1.00000
23.00000 -13.50000 0.00000
23.50000 -13.00000 1.00000
23.00000 -13.00000 0.50000
23.00000 -12.00000 -6.50000
23.00000 -12.50000 1.00000
23.00000 -12.50000 2.00000
23.00000 -12.00000 2.50000
23.00000 -11.00000 -6.50000
23.00000 -11.50000 3.00000
23.00000 -11.00000 3.50000
23.00000 -10.00000 -7.50000
23.00000 -10.50000 -7.00000
23.50000 -10.00000 4.00000
23.00000 -10.00000 3.50000
23.00000 -9.00000 -7.50000
23.00000 -9.50000 4.00000
23.50000 -9.00000 5.00000
23.00000 -9.00000 4.50000
23.00000 -8.00000 -7.50000
23.00000 -8.50000 5.00000
23.00000 -8.00000 5.50000
23.00000 -7.00000 -7.50000
23.00000 -7.00000 5.50000
23.00000 -6.00000 -7.50000
23.00000 -6.50000 6.00000
23.50000 -6.00000 6.00000
23.00000 -6.00000 6.50000
23.50000 -5.00000 -7.00000
23.00000 -5.00000 -7.50000
23.50000 -5.00000 5.00000
23.50000 -5.00000 6.00000
23.00000 -5.00000 6.50000
23.50000 -4.00000 -7.00000
23.00000 -4.00000 -7.50000
23.50000 -4.00000 5.00000
23.00000 -4.00000 5.50000
23.00000 -4.50000 6.00000
23.50000 -3.00000 -7.00000
23.00000 -3.50000 -7.00000
23.00000 -3.00000 -6.50000
23.50000 -3.00000 4.00000
23.50000 -3.00000 5.00000
23.00000 -3.00000 5.50000
23.00000 -2.00000 -7.50000
23.00000 -2.50000 -7.00000
23.50000 -2.00000 4.00000
23.00000 -2.00000 4.50000
23.00000 -2.50000 5.00000
23.00000 -1.50000 -7.00000
23.00000 -1.00000 -6.50000
23.50000 -1.00000 3.00000
23.00000 -1.00000 3.50000
23.00000 -1.50000 4.00000
23.50000 0.00000 -7.00000
23.00000 0.00000 -7.50000
23.00000 -0.50000 -7.00000
23.50000 0.00000 -6.00000
23.50000 0.00000 2.00000
23.50000 0.00000 3.00000
23.00000 0.00000 3.50000
23.00000 0.50000 -7.00000
23.50000 1.00000 -6.00000
23.00000 1.00000 -6.50000
23.50000 1.00000 -5.00000
23.50000 1.00000 -4.00000
23.50000 1.00000 0.00000
23.50000 1.00000 1.00000
23.50000 1.00000 2.00000
23.00000 1.00000 2.50000
23.00000 0.50000 3.00000
23.00000 1.50000 -6.00000
23.00000 1.50000 -5.00000
23.50000 2.00000 -4.00000
23.00000 2.00000 -4.50000
23.50000 2.00000 -3.00000
23.50000 2.00000 -2.00000
23.50000 2.00000 -1.00000
23.50000 2.00000 0.00000
23.50000 2.00000 1.00000
23.00000 2.00000 1.50000
23.00000 1.50000 2.00000
23.00000 2.50000 -4.00000
23.00000 2.50000 -3.00000
23.50000 3.00000 -2.00000
23.00000 3.00000 -2.50000
23.50000 3.00000 -1.00000
23.00000 3.00000 -0.50000
23.00000 2.50000 0.00000
23.00000 2.50000 1.00000
23.00000 3.50000 -2.00000
23.00000 3.50000 -1.00000
22.50000 -14.00000 -5.00000
22.50000 -14.00000 -4.00000
22.50000 -14.00000 -3.00000
22.50000 -13.00000 -6.00000
22.00000 -13.00000 -5.50000
22.00000 -13.50000 -5.00000
22.00000 -13.50000 -4.00000
22.00000 -13.50000 -3.00000
22.00000 -13.50000 -2.00000
22.00000 -13.50000 -1.00000
22.00000 -13.50000 0.00000
22.00000 -13.00000 0.50000
22.00000 -12.00000 -6.50000
22.00000 -12.50000 -6.00000
22.00000 -12.50000 1.00000
22.50000 -12.00000 2.00000
22.00000 -12.00000 1.50000
22.00000 -11.00000 -6.50000
22.50000 -11.00000 2.00000
22.00000 -11.00000 1.50000
22.50000 -11.00000 3.00000
22.00000 -10.00000 -7.50000
22.00000 -10.50000 -7.00000
22.00000 -10.50000 2.00000
22.00000 -10.50000 3.00000
22.00000 -10.00000 3.50000
22.00000 -9.00000 -7.50000
22.00000 -9.50000 4.00000
22.00000 -9.00000 4.50000
22.50000 -8.00000 -8.00000
22.00000 -8.00000 -8.50000
22.00000 -8.50000 -8.00000
22.50000 -8.00000 5.00000
22.00000 -8.00000 4.50000
22.50000 -7.00000 -8.00000
22.00000 -7.00000 -8.50000
22.00000 -7.50000 5.00000
22.00000 -7.00000 5.50000
22.50000 -6.00000 -8.00000
22.00000 -6.00000 -8.50000
22.50000 -6.00000 6.00000
22.00000 -6.00000 5.50000
22.00000 -5.50000 -8.00000
22.00000 -5.00000 -7.50000
22.00000 -5.50000 6.00000
22.00000 -5.00000 6.50000
22.00000 -4.00000 -7.50000
22.50000 -4.00000 6.00000
22.00000 -4.00000 6.50000
22.50000 -3.00000 -7.00000
22.00000 -3.00000 -7.50000
22.50000 -3.00000 6.00000
22.00000 -3.00000 6.50000
22.00000 -2.00000 -7.50000
22.50000 -2.00000 5.00000
22.50000 -2.00000 6.00000
22.00000 -2.00000 6.50000
22.50000 -1.00000 -7.00000
22.00000 -1.00000 -7.50000
22.50000 -1.00000 4.00000
22.50000 -1.00000 5.00000
22.00000 -1.00000 5.50000
22.00000 -1.50000 6.00000
22.00000 0.00000 -7.50000
22.50000 0.00000 4.00000
22.00000 0.00000 4.50000
22.00000 -0.50000 5.00000
22.50000 1.00000 -7.00000
22.00000 1.00000 -7.50000
22.50000 1.00000 3.00000
22.00000 1.00000 3.50000
22.00000 0.50000 4.00000
22.00000 1.50000 -7.00000
22.50000 2.00000 -6.00000
22.00000 2.00000 -6.50000
22.50000 2.00000 -5.00000
22.50000 2.00000 2.00000
22.00000 2.00000 2.50000
22.00000 1.50000 3.00000
22.00000 2.50000 -6.00000
22.00000 2.50000 -5.00000
22.50000 3.00000 -4.00000
22.00000 3.00000 -4.50000
22.50000 3.00000 -3.00000
22.50000 3.00000 0.00000
22.50000 3.00000 1.00000
22.00000 3.00000 1.50000
22.00000 2.50000 2.00000
22.00000 3.50000 -4.00000
22.50000 4.00000 -3.00000
22.00000 4.00000 -3.50000
22.50000 4.00000 -2.00000
22.50000 4.00000 -1.00000
22.00000 4.00000 -0.50000
22.00000 3.50000 0.00000
22.00000 3.50000 1.00000
22.00000 4.50000 -3.00000
22.00000 4.50000 -2.00000
22.00000 4.50000 -1.00000
21.50000 -13.00000 -5.00000
21.50000 -13.00000 -4.00000
21.50000 -13.00000 -3.00000
21.50000 -13.00000 -2.00000
21.50000 -13.00000 -1.00000
21.50000 -13.00000 0.00000
21.50000 -12.00000 -6.00000
21.00000 -12.00000 -5.50000
21.00000 -12.50000 -5.00000
21.00000 -12.50000 -4.00000
21.00000 -12.50000 -3.00000
21.00000 -12.50000 -2.00000
21.00000 -12.50000 -1.00000
21.00000 -12.00000 -0.50000
21.50000 -12.00000 0.00000
21.50000 -12.00000 1.00000
21.00000 -11.00000 -6.50000
21.00000 -11.50000 -6.00000
21.50000 -11.00000 0.00000
21.00000 -11.00000 -0.50000
21.50000 -11.00000 1.00000
21.00000 -10.00000 -7.50000
21.00000 -10.50000 -7.00000
21.00000 -10.50000 0.00000
21.00000 -10.00000 0.50000
21.50000 -10.00000 1.00000
21.50000 -10.00000 2.00000
21.50000 -10.00000 3.00000
21.50000 -9.00000 -8.00000
21.00000 -9.00000 -8.50000
21.00000 -9.50000 -8.00000
21.00000 -9.50000 1.00000
21.00000 -9.50000 2.00000
21.00000 -9.00000 2.50000
21.50000 -9.00000 3.00000
21.50000 -9.00000 4.00000
21.00000 -8.00000 -8.50000
21.00000 -8.50000 3.00000
21.00000 -8.00000 3.50000
21.50000 -8.00000 4.00000
21.00000 -7.00000 -8.50000
21.00000 -7.50000 4.00000
21.00000 -7.50000 5.00000
21.00000 -7.00000 5.50000
21.00000 -6.00000 -8.50000
21.00000 -6.00000 5.50000
21.50000 -5.00000 -8.00000
21.00000 -5.00000 -8.50000
21.00000 -5.50000 6.00000
21.00000 -5.00000 6.50000
21.00000 -4.50000 -8.00000
21.00000 -4.00000 -7.50000
21.00000 -4.00000 6.50000
21.00000 -3.00000 -7.50000
21.00000 -3.00000 6.50000
21.00000 -2.00000 -7.50000
21.00000 -2.00000 6.50000
21.00000 -1.00000 -7.50000
21.50000 -1.00000 6.00000
21.00000 -1.00000 6.50000
21.00000 0.00000 -7.50000
21.50000 0.00000 5.00000
21.50000 0.00000 6.00000
21.00000 0.00000 6.50000
21.00000 1.00000 -7.50000
21.50000 1.00000 4.00000
21.50000 1.00000 5.00000
21.00000 1.00000 5.50000
21.00000 0.50000 6.00000
21.50000 2.00000 -7.00000
21.00000 2.00000 -7.50000
21.50000 2.00000 3.00000
21.50000 2.00000 4.00000
21.00000 2.00000 4.50000
21.00000 1.50000 5.00000
21.00000 2.50000 -7.00000
21.50000 3.00000 -6.00000
21.00000 3.00000 -6.50000
21.50000 3.00000 -5.00000
21.50000 3.00000 2.00000
21.50000 3.00000 3.00000
21.00000 3.00000 3.50000
21.00000 2.50000 4.00000
21.00000 3.50000 -6.00000
21.00000 3.50000 -5.00000
21.50000 4.00000 -4.00000
21.00000 4.00000 -4.50000
21.50000 4.00000 0.00000
21.50000 4.00000 1.00000
21.50000 4.00000 2.00000
21.00000 4.00000 2.50000
21.00000 3.50000 3.00000
21.00000 4.50000 -4.00000
21.00000 4.50000 -3.00000
21.50000 5.00000 -2.00000
21.00000 5.00000 -2.50000
21.50000 5.00000 -1.00000
21.50000 5.00000 0.00000
21.00000 5.00000 0.50000
21.00000 4.50000 1.00000
21.00000 4.50000 2.00000
21.00000 5.50000 -2.00000
21.00000 5.50000 -1.00000
21.00000 5.50000 0.00000
20.50000 -12.00000 -5.00000
20.50000 -12.00000 -4.00000
20.50000 -12.00000 -3.00000
20.50000 -12.00000 -2.00000
20.50000 -12.00000 -1.00000
20.50000 -11.00000 -6.00000
20.50000 -11.00000 -5.00000
20.50000 -11.00000 -4.00000
20.50000 -11.00000 -3.00000
20.50000 -11.00000 -2.00000
20.50000 -11.00000 -1.00000
20.50000 -10.00000 -7.00000
20.50000 -10.00000 -6.00000
20.50000 -10.00000 -5.00000
20.50000 -10.00000 -4.00000
20.50000 -10.00000 -3.00000
20.50000 -10.00000 -2.00000
20.50000 -10.00000 -1.00000
20.50000 -10.00000 0.00000
20.50000 -9.00000 -8.00000
20.00000 -9.00000 -7.50000
20.00000 -9.50000 -7.00000
20.00000 -9.50000 -6.00000
20.00000 -9.50000 -5.00000
20.00000 -9.50000 -4.00000
20.00000 -9.50000 -3.00000
20.00000 -9.50000 -2.00000
20.00000 -9.00000 -1.50000
20.50000 -9.00000 -1.00000
20.50000 -9.00000 0.00000
20.50000 -9.00000 1.00000
20.50000 -9.00000 2.00000
20.00000 -8.00000 -8.50000
20.00000 -8.50000 -8.00000
20.00000 -8.50000 -1.00000
20.00000 -8.50000 0.00000
20.00000 -8.50000 1.00000
20.00000 -8.00000 1.50000
20.50000 -8.00000 2.00000
20.50000 -8.00000 3.00000
20.00000 -7.00000 -8.50000
20.00000 -7.50000 2.00000
20.00000 -7.50000 3.00000
20.50000 -7.00000 4.00000
20.00000 -7.00000 3.50000
20.50000 -7.00000 5.00000
20.00000 -6.00000 -8.50000
20.00000 -6.50000 4.00000
20.00000 -6.00000 4.50000
20.50000 -6.00000 5.00000
20.00000 -5.00000 -8.50000
20.00000 -5.50000 5.00000
20.50000 -5.00000 6.00000
20.00000 -5.00000 5.50000
20.50000 -4.00000 -8.00000
20.00000 -4.00000 -8.50000
20.00000 -4.50000 6.00000
20.00000 -4.00000 6.50000
20.50000 -3.00000 -8.00000
20.00000 -3.00000 -8.50000
20.00000 -3.00000 6.50000
20.50000 -2.00000 -8.00000
20.00000 -2.00000 -8.50000
20.00000 -2.00000 6.50000
20.50000 -1.00000 -8.00000
20.00000 -1.00000 -8.50000
20.00000 -1.00000 6.50000
20.50000 0.00000 -8.00000
20.00000 0.00000 -8.50000
20.00000 0.00000 6.50000
20.00000 0.50000 -8.00000
20.00000 1.00000 -7.50000
20.50000 1.00000 6.00000
20.00000 1.00000 6.50000
20.00000 1.50000 -7.00000
20.50000 2.00000 -7.00000
20.00000 2.00000 -6.50000
20.50000 2.00000 5.00000
20.00000 2.00000 5.50000
20.00000 1.50000 6.00000
20.00000 3.00000 -7.50000
20.50000 3.00000 -7.00000
20.00000 2.50000 -7.00000
20.50000 3.00000 4.00000
20.50000 3.00000 5.00000
20.00000 3.00000 5.50000
20.00000 3.50000 -7.00000
20.00000 3.50000 -6.00000
20.50000 4.00000 -5.00000
20.00000 4.00000 -5.50000
20.50000 4.00000 3.00000
20.00000 4.00000 3.50000
20.00000 3.50000 4.00000
20.00000 3.50000 5.00000
20.00000 4.50000 -5.00000
20.50000 5.00000 -4.00000
20.00000 5.00000 -4.50000
20.50000 5.00000 -3.00000
20.50000 5.00000 1.00000
20.50000 5.00000 2.00000
20.00000 5.00000 2.50000
20.00000 4.50000 3.00000
20.00000 5.50000 -4.00000
20.00000 5.50000 -3.00000
20.50000 6.00000 -2.00000
20.00000 6.00000 -2.50000
20.50000 6.00000 -1.00000
20.50000 6.00000 0.00000
20.00000 6.00000 0.50000
20.00000 5.50000 1.00000
20.00000 5.50000 2.00000
20.00000 6.50000 -2.00000
20.00000 6.50000 -1.00000
20.00000 6.50000 0.00000
19.50000 -9.00000 -7.00000
19.50000 -9.00000 -6.00000
19.50000 -9.00000 -5.00000
19.50000 -9.00000 -4.00000
19.50000 -9.00000 -3.00000
19.50000 -9.00000 -2.00000
19.00000 -8.00000 -8.50000
19.00000 -8.50000 -8.00000
19.00000 -8.50000 -7.00000
19.00000 -8.50000 -6.00000
19.00000 -8.50000 -5.00000
19.00000 -8.50000 -4.00000
19.00000 -8.50000 -3.00000
19.00000 -8.50000 -2.00000
19.50000 -8.00000 -1.00000
19.00000 -8.00000 -1.50000
19.50000 -8.00000 0.00000
19.50000 -8.00000 1.00000
19.00000 -7.00000 -8.50000
19.00000 -7.50000 -1.00000
19.00000 -7.50000 0.00000
19.00000 -7.50000 1.00000
19.50000 -7.00000 2.00000
19.00000 -7.00000 1.50000
19.50000 -7.00000 3.00000
19.50000 -6.00000 -9.00000
19.00000 -6.00000 -9.50000
19.00000 -6.50000 -9.00000
19.00000 -6.50000 2.00000
19.00000 -6.00000 2.50000
19.50000 -6.00000 3.00000
19.50000 -6.00000 4.00000
19.00000 -5.50000 -9.00000
19.00000 -5.00000 -8.50000
19.00000 -5.50000 3.00000
19.00000 -5.50000 4.00000
19.50000 -5.00000 5.00000
19.00000 -5.00000 4.50000
19.00000 -4.00000 -8.50000
19.00000 -4.50000 5.00000
19.50000 -4.00000 6.00000
19.00000 -4.00000 5.50000
19.00000 -3.00000 -8.50000
19.00000 -3.50000 6.00000
19.00000 -3.00000 6.50000
19.00000 -2.00000 -8.50000
19.00000 -2.00000 6.50000
19.00000 -1.00000 -8.50000
19.00000 -1.00000 6.50000
19.00000 0.00000 -8.50000
19.50000 0.00000 6.00000
19.00000 -0.50000 6.00000
19.00000 0.00000 5.50000
19.00000 0.50000 -8.00000
19.00000 1.00000 -7.50000
19.50000 1.00000 6.00000
19.00000 1.00000 5.50000
19.50000 2.00000 -7.00000
19.00000 2.00000 -7.50000
19.00000 2.00000 5.50000
19.50000 3.00000 -7.00000
19.00000 2.50000 -7.00000
19.00000 3.00000 -6.50000
19.50000 3.00000 5.00000
19.00000 2.50000 5.00000
19.00000 3.00000 4.50000
19.00000 4.00000 -6.50000
19.50000 4.00000 -6.00000
19.50000 4.00000 4.00000
19.00000 4.00000 4.50000
19.00000 4.50000 -6.00000
19.50000 5.00000 -5.00000
19.00000 5.00000 -5.50000
19.50000 5.00000 3.00000
19.50000 5.00000 4.00000
19.00000 5.00000 4.50000
19.00000 5.50000 -5.00000
19.00000 5.50000 -4.00000
19.50000 6.00000 -3.00000
19.00000 6.00000 -3.50000
19.50000 6.00000 1.00000
19.50000 6.00000 2.00000
19.50000 6.00000 3.00000
19.00000 6.00000 3.50000
19.00000 5.50000 4.00000
19.00000 6.50000 -3.00000
19.50000 7.00000 -2.00000
19.00000 7.00000 -2.50000
19.50000 7.00000 -1.00000
19.50000 7.00000 0.00000
19.50000 7.00000 1.00000
19.00000 7.00000 1.50000
19.00000 6.50000 2.00000
19.00000 6.50000 3.00000
19.00000 7.50000 -2.00000
19.00000 7.50000 -1.00000
19.00000 7.50000 0.00000
19.00000 7.50000 1.00000
18.50000 -8.00000 -8.00000
18.50000 -8.00000 -7.00000
18.50000 -8.00000 -6.00000
18.50000 -8.00000 -5.00000
18.50000 -8.00000 -4.00000
18.50000 -8.00000 -3.00000
18.50000 -8.00000 -2.00000
18.00000 -7.00000 -8.50000
18.00000 -7.50000 -8.00000
18.00000 -7.50000 -7.00000
18.00000 -7.50000 -6.00000
18.00000 -7.50000 -5.00000
18.00000 -7.50000 -4.00000
18.00000 -7.00000 -3.50000
18.50000 -7.00000 -3.00000
18.50000 -7.00000 -2.00000
18.50000 -7.00000 -1.00000
18.50000 -7.00000 0.00000
18.50000 -7.00000 1.00000
18.00000 -6.00000 -9.50000
18.00000 -6.50000 -9.00000
18.00000 -6.50000 -3.00000
18.00000 -6.50000 -2.00000
18.00000 -6.50000 -1.00000
18.00000 -6.50000 0.00000
18.00000 -6.00000 0.50000
18.50000 -6.00000 1.00000
18.50000 -6.00000 2.00000
18.00000 -5.50000 -9.00000
18.00000 -5.00000 -8.50000
18.00000 -5.50000 1.00000
18.00000 -5.00000 1.50000
18.50000 -5.00000 2.00000
18.50000 -5.00000 3.00000
18.50000 -5.00000 4.00000
18.50000 -4.00000 -9.00000
18.00000 -4.00000 -9.50000
18.00000 -4.50000 -9.00000
18.00000 -4.50000 2.00000
18.00000 -4.50000 3.00000
18.00000 -4.00000 3.50000
18.50000 -4.00000 4.00000
18.50000 -4.00000 5.00000
18.50000 -3.00000 -9.00000
18.00000 -3.00000 -9.50000
18.00000 -3.50000 4.00000
18.00000 -3.50000 5.00000
18.50000 -3.00000 6.00000
18.00000 -3.00000 5.50000
18.00000 -2.50000 -9.00000
18.00000 -2.00000 -8.50000
18.50000 -2.00000 6.00000
18.00000 -2.00000 5.50000
18.00000 -1.00000 -8.50000
18.50000 -1.00000 6.00000
18.00000 -1.00000 5.50000
18.00000 0.00000 -8.50000
18.00000 0.00000 5.50000
18.00000 0.50000 -8.00000
18.00000 1.00000 -7.50000
18.00000 1.00000 5.50000
18.00000 1.50000 -7.00000
18.50000 2.00000 -7.00000
18.00000 2.00000 -6.50000
18.50000 2.00000 5.00000
18.00000 1.50000 5.00000
18.00000 2.00000 4.50000
18.00000 3.00000 -6.50000
18.00000 3.00000 4.50000
18.00000 4.00000 -6.50000
18.00000 4.00000 4.50000
18.00000 4.50000 -6.00000
18.00000 5.00000 -5.50000
18.50000 5.00000 4.00000
18.00000 4.50000 4.00000
18.00000 5.00000 3.50000
18.00000 5.50000 -5.00000
18.50000 6.00000 -4.00000
18.00000 6.00000 -4.50000
18.00000 6.00000 3.50000
18.00000 6.50000 -4.00000
18.50000 7.00000 -3.00000
18.00000 7.00000 -3.50000
18.50000 7.00000 2.00000
18.00000 7.00000 2.50000
18.00000 6.50000 3.00000
18.00000 7.50000 -3.00000
18.00000 7.50000 -2.00000
18.50000 8.00000 -1.00000
18.00000 8.00000 -1.50000
18.50000 8.00000 0.00000
18.50000 8.00000 1.00000
18.00000 8.00000 1.50000
18.00000 7.50000 2.00000
18.00000 8.50000 -1.00000
18.00000 8.50000 0.00000
18.00000 8.50000 1.00000
17.50000 -7.00000 -8.00000
17.50000 -7.00000 -7.00000
17.50000 -7.00000 -6.00000
17.50000 -7.00000 -5.00000
17.50000 -7.00000 -4.00000
17.50000 -6.00000 -9.00000
17.00000 -6.00000 -8.50000
17.00000 -6.50000 -8.00000
17.00000 -6.50000 -7.00000
17.00000 -6.50000 -6.00000
17.00000 -6.50000 -5.00000
17.00000 -6.00000 -4.50000
17.50000 -6.00000 -4.00000
17.50000 -6.00000 -3.00000
17.50000 -6.00000 -2.00000
17.50000 -6.00000 -1.00000
17.50000 -6.00000 0.00000
17.00000 -5.00000 -9.50000
17.50000 -5.00000 -9.00000
17.00000 -5.50000 -9.00000
17.00000 -5.50000 -4.00000
17.00000 -5.50000 -3.00000
17.00000 -5.50000 -2.00000
17.00000 -5.50000 -1.00000
17.00000 -5.50000 0.00000
17.50000 -5.00000 1.00000
17.00000 -5.00000 0.50000
17.00000 -4.00000 -9.50000
17.00000 -4.50000 1.00000
17.50000 -4.00000 2.00000
17.00000 -4.00000 1.50000
17.50000 -4.00000 3.00000
17.00000 -3.00000 -9.50000
17.50000 -3.00000 2.00000
17.00000 -3.00000 1.50000
17.50000 -3.00000 3.00000
17.50000 -3.00000 4.00000
17.50000 -3.00000 5.00000
17.50000 -2.00000 -9.00000
17.00000 -2.00000 -9.50000
17.00000 -2.50000 2.00000
17.00000 -2.50000 3.00000
17.00000 -2.50000 4.00000
17.00000 -2.00000 4.50000
17.50000 -2.00000 5.00000
17.00000 -1.50000 -9.00000
17.00000 -1.00000 -8.50000
17.00000 -1.50000 5.00000
17.00000 -1.00000 5.50000
17.00000 0.00000 -8.50000
17.00000 0.00000 5.50000
17.00000 0.50000 -8.00000
17.00000 1.00000 -7.50000
17.00000 1.00000 5.50000
17.00000 1.50000 -7.00000
17.00000 2.00000 -6.50000
17.00000 1.50000 5.00000
17.00000 2.00000 4.50000
17.00000 3.00000 -6.50000
17.00000 3.00000 4.50000
17.00000 4.00000 -6.50000
17.50000 4.00000 4.00000
17.00000 3.50000 4.00000
17.00000 4.00000 3.50000
17.50000 5.00000 -6.00000
17.00000 5.00000 -6.50000
17.00000 5.00000 3.50000
17.00000 5.50000 -6.00000
17.50000 6.00000 -5.00000
17.00000 6.00000 -5.50000
17.50000 6.00000 3.00000
17.00000 5.50000 3.00000
17.00000 6.00000 2.50000
17.00000 6.50000 -5.00000
17.50000 7.00000 -4.00000
17.00000 7.00000 -4.50000
17.50000 7.00000 2.00000
17.00000 6.50000 2.00000
17.00000 7.00000 1.50000
17.00000 7.50000 -4.00000
17.50000 8.00000 -3.00000
17.00000 8.00000 -3.50000
17.50000 8.00000 -2.00000
17.50000 8.00000 1.00000
17.00000 7.50000 1.00000
17.00000 8.00000 0.50000
17.00000 8.50000 -3.00000
17.00000 8.50000 -2.00000
17.00000 8.50000 -1.00000
17.00000 8.50000 0.00000
16.00000 -6.00000 -8.50000
16.00000 -6.50000 -8.00000
16.50000 -6.00000 -7.00000
16.00000 -6.00000 -7.50000
16.50000 -6.00000 -6.00000
16.50000 -6.00000 -5.00000
16.50000 -5.00000 -9.00000
16.00000 -5.00000 -8.50000
16.00000 -5.50000 -7.00000
16.00000 -5.50000 -6.00000
16.00000 -5.50000 -5.00000
16.00000 -5.50000 -4.00000
16.00000 -5.50000 -3.00000
16.50000 -5.00000 -2.00000
16.00000 -5.00000 -2.50000
16.50000 -5.00000 -1.00000
16.50000 -5.00000 0.00000
16.00000 -4.00000 -9.50000
16.00000 -4.50000 -9.00000
16.00000 -4.50000 -2.00000
16.00000 -4.50000 -1.00000
16.00000 -4.50000 0.00000
16.50000 -4.00000 1.00000
16.00000 -4.00000 0.50000
16.00000 -3.00000 -9.50000
16.50000 -3.00000 1.00000
16.00000 -3.00000 0.50000
16.00000 -2.00000 -9.50000
16.00000 -2.50000 1.00000
16.50000 -2.00000 2.00000
16.00000 -2.00000 1.50000
16.50000 -2.00000 3.00000
16.50000 -2.00000 4.00000
16.00000 -1.50000 -9.00000
16.00000 -1.00000 -8.50000
16.00000 -1.50000 2.00000
16.00000 -1.50000 3.00000
16.00000 -1.50000 4.00000
16.50000 -1.00000 5.00000
16.00000 -1.00000 4.50000
16.00000 0.00000 -8.50000
16.50000 0.00000 5.00000
16.00000 0.00000 4.50000
16.00000 0.50000 -8.00000
16.00000 1.00000 -7.50000
16.50000 1.00000 5.00000
16.00000 1.00000 4.50000
16.00000 1.50000 -7.00000
16.00000 2.00000 -6.50000
16.00000 2.00000 4.50000
16.00000 3.00000 -6.50000
16.00000 3.00000 4.50000
16.00000 3.50000 -6.00000
16.50000 4.00000 -6.00000
16.00000 4.00000 -5.50000
16.00000 3.50000 4.00000
16.00000 4.00000 3.50000
16.00000 5.00000 -6.50000
16.00000 4.50000 -6.00000
16.50000 5.00000 3.00000
16.00000 4.50000 3.00000
16.00000 5.00000 2.50000
16.00000 5.50000 -6.00000
16.00000 6.00000 -5.50000
16.00000 6.00000 2.50000
16.50000 7.00000 -5.00000
16.00000 7.00000 -5.50000
16.00000 6.50000 2.00000
16.00000 7.00000 1.50000
16.00000 7.50000 -5.00000
16.50000 8.00000 -4.00000
16.00000 8.00000 -4.50000
16.00000 7.50000 1.00000
16.00000 8.00000 0.50000
16.00000 8.50000 -4.00000
16.00000 8.50000 -3.00000
16.00000 8.50000 -2.00000
16.00000 8.50000 -1.00000
16.00000 8.50000 0.00000
15.50000 -6.00000 -8.00000
15.00000 -5.00000 -8.50000
15.00000 -5.50000 -8.00000
15.00000 -5.50000 -7.00000
15.00000 -5.50000 -6.00000
15.50000 -5.00000 -5.00000
15.00000 -5.00000 -5.50000
15.50000 -5.00000 -4.00000
15.50000 -5.00000 -3.00000
15.00000 -4.00000 -9.50000
15.00000 -4.50000 -9.00000
15.00000 -4.50000 -5.00000
15.00000 -4.50000 -4.00000
15.00000 -4.50000 -3.00000
15.00000 -4.50000 -2.00000
15.00000 -4.50000 -1.00000
15.50000 -4.00000 0.00000
15.00000 -4.00000 -0.50000
15.00000 -3.00000 -9.50000
15.50000 -3.00000 0.00000
15.00000 -3.00000 -0.50000
15.00000 -2.00000 -9.50000
15.00000 -2.50000 0.00000
15.50000 -2.00000 1.00000
15.00000 -2.00000 0.50000
15.00000 -1.50000 -9.00000
15.00000 -1.00000 -8.50000
15.00000 -1.50000 1.00000
15.50000 -1.00000 2.00000
15.00000 -1.00000 1.50000
15.50000 -1.00000 3.00000
15.50000 -1.00000 4.00000
15.00000 0.00000 -8.50000
15.00000 -0.50000 2.00000
15.00000 -0.50000 3.00000
15.00000 0.00000 3.50000
15.50000 0.00000 4.00000
15.00000 0.50000 -8.00000
15.00000 1.00000 -7.50000
15.00000 0.50000 4.00000
15.00000 1.00000 4.50000
15.00000 1.50000 -7.00000
15.00000 2.00000 -6.50000
15.50000 2.00000 4.00000
15.00000 1.50000 4.00000
15.00000 2.00000 3.50000
15.00000 3.00000 -6.50000
15.50000 3.00000 4.00000
15.00000 3.00000 3.50000
15.00000 3.50000 -6.00000
15.00000 4.00000 -5.50000
15.50000 4.00000 3.00000
15.00000 3.50000 3.00000
15.00000 4.00000 2.50000
15.50000 5.00000 -6.00000
15.00000 5.00000 -5.50000
15.00000 5.00000 2.50000
15.00000 6.00000 -6.50000
15.50000 6.00000 -6.00000
15.00000 5.50000 -6.00000
15.50000 6.00000 2.00000
15.00000 5.50000 2.00000
15.00000 6.00000 1.50000
15.00000 6.50000 -6.00000
15.00000 7.00000 -5.50000
15.50000 7.00000 1.00000
15.00000 6.50000 1.00000
15.00000 7.00000 0.50000
15.50000 8.00000 -5.00000
15.00000 8.00000 -5.50000
15.50000 8.00000 0.00000
15.00000 7.50000 0.00000
15.00000 8.00000 -0.50000
15.00000 8.50000 -5.00000
15.00000 8.50000 -4.00000
15.50000 9.00000 -3.00000
15.00000 9.00000 -3.50000
15.00000 9.00000 -2.50000
15.00000 8.50000 -2.00000
15.00000 8.50000 -1.00000
15.00000 9.50000 -3.00000
14.00000 -5.00000 -8.50000
14.00000 -5.50000 -8.00000
14.50000 -5.00000 -7.00000
14.00000 -5.00000 -7.50000
14.50000 -5.00000 -6.00000
14.50000 -4.00000 -9.00000
14.00000 -4.00000 -8.50000
14.00000 -4.50000 -7.00000
14.00000 -4.50000 -6.00000
14.00000 -4.50000 -5.00000
14.50000 -4.00000 -4.00000
14.00000 -4.00000 -4.50000
14.50000 -4.00000 -3.00000
14.50000 -4.00000 -2.00000
14.50000 -4.00000 -1.00000
14.50000 -3.00000 -9.00000
14.00000 -3.00000 -8.50000
14.00000 -3.50000 -4.00000
14.00000 -3.50000 -3.00000
14.00000 -3.50000 -2.00000
14.00000 -3.00000 -1.50000
14.50000 -3.00000 -1.00000
14.50000 -2.00000 -9.00000
14.00000 -2.00000 -8.50000
14.00000 -2.50000 -1.00000
14.50000 -2.00000 0.00000
14.00000 -2.00000 -0.50000
14.00000 -1.00000 -8.50000
14.50000 -1.00000 0.00000
14.00000 -1.00000 -0.50000
14.50000 -1.00000 1.00000
14.00000 0.00000 -8.50000
14.00000 -0.50000 0.00000
14.00000 -0.50000 1.00000
14.50000 0.00000 2.00000
14.00000 0.00000 1.50000
14.50000 0.00000 3.00000
14.00000 0.50000 -8.00000
14.00000 1.00000 -7.50000
14.00000 0.50000 2.00000
14.00000 1.00000 2.50000
14.50000 1.00000 3.00000
14.50000 1.00000 4.00000
14.00000 1.50000 -7.00000
14.00000 2.00000 -6.50000
14.50000 2.00000 3.00000
14.00000 2.00000 2.50000
14.00000 3.00000 -6.50000
14.50000 3.00000 3.00000
14.00000 3.00000 2.50000
14.00000 3.50000 -6.00000
14.00000 4.00000 -5.50000
14.50000 4.00000 2.00000
14.00000 3.50000 2.00000
14.00000 4.00000 1.50000
14.00000 5.00000 -5.50000
14.50000 5.00000 2.00000
14.00000 5.00000 1.50000
14.50000 6.00000 -6.00000
14.00000 6.00000 -5.50000
14.50000 6.00000 1.00000
14.00000 5.50000 1.00000
14.00000 6.00000 0.50000
14.00000 7.00000 -5.50000
14.00000 7.00000 0.50000
14.00000 8.00000 -5.50000
14.50000 8.00000 -1.00000
14.00000 7.50000 -1.00000
14.00000 8.00000 -1.50000
14.00000 7.50000 0.00000
14.00000 8.50000 -5.00000
14.00000 8.50000 -4.00000
14.50000 9.00000 -3.00000
14.00000 8.50000 -3.00000
14.00000 8.50000 -2.00000
13.50000 -5.00000 -8.00000
13.00000 -4.00000 -8.50000
13.00000 -4.50000 -8.00000
13.00000 -4.50000 -7.00000
13.00000 -4.50000 -6.00000
13.50000 -4.00000 -5.00000
13.00000 -4.00000 -5.50000
13.00000 -3.00000 -8.50000
13.00000 -3.50000 -5.00000
13.00000 -3.50000 -4.00000
13.50000 -3.00000 -3.00000
13.00000 -3.00000 -3.50000
13.50000 -3.00000 -2.00000
13.00000 -2.00000 -8.50000
13.00000 -2.50000 -3.00000
13.00000 -2.00000 -2.50000
13.50000 -2.00000 -2.00000
13.50000 -2.00000 -1.00000
13.00000 -1.00000 -8.50000
13.00000 -1.50000 -2.00000
13.00000 -1.00000 -1.50000
13.50000 -1.00000 -1.00000
13.00000 -0.50000 -8.00000
13.50000 0.00000 -8.00000
13.00000 0.00000 -7.50000
13.50000 0.00000 -1.00000
13.00000 0.00000 -1.50000
13.50000 0.00000 0.00000
13.50000 0.00000 1.00000
13.50000 1.00000 -7.00000
13.00000 0.50000 -7.00000
13.00000 1.00000 -6.50000
13.00000 0.50000 -1.00000
13.00000 1.00000 -0.50000
13.50000 1.00000 0.00000
13.50000 1.00000 1.00000
13.50000 1.00000 2.00000
13.00000 2.00000 -6.50000
13.00000 1.50000 0.00000
13.00000 1.50000 1.00000
13.00000 2.00000 1.50000
13.50000 2.00000 2.00000
13.00000 2.50000 -6.00000
13.50000 3.00000 -6.00000
13.00000 3.00000 -5.50000
13.50000 3.00000 2.00000
13.00000 3.00000 1.50000
13.00000 4.00000 -5.50000
13.00000 4.00000 1.50000
13.00000 5.00000 -5.50000
13.50000 5.00000 1.00000
13.00000 4.50000 1.00000
13.00000 5.00000 0.50000
13.00000 6.00000 -5.50000
13.00000 6.00000 0.50000
13.00000 7.00000 -5.50000
13.50000 7.00000 0.00000
13.00000 6.50000 0.00000
13.00000 7.00000 -0.50000
13.00000 7.50000 -5.00000
13.50000 8.00000 -5.00000
13.50000 8.00000 -4.00000
13.00000 7.50000 -4.00000
13.50000 8.00000 -3.00000
13.00000 7.50000 -3.00000
13.50000 8.00000 -2.00000
13.00000 7.50000 -2.00000
13.00000 7.50000 -1.00000
12.50000 -4.00000 -8.00000
12.00000 -4.00000 -7.50000
12.00000 -4.50000 -7.00000
12.50000 -4.00000 -6.00000
12.00000 -4.00000 -6.50000
12.00000 -3.00000 -8.50000
12.00000 -3.50000 -8.00000
12.00000 -3.50000 -6.00000
12.00000 -3.50000 -5.00000
12.50000 -3.00000 -4.00000
12.00000 -3.00000 -4.50000
12.00000 -2.00000 -8.50000
12.00000 -2.50000 -4.00000
12.50000 -2.00000 -3.00000
12.00000 -2.00000 -3.50000
12.00000 -1.00000 -8.50000
12.50000 -1.00000 -3.00000
12.00000 -1.00000 -3.50000
12.50000 -1.00000 -2.00000
12.00000 -0.50000 -8.00000
12.00000 0.00000 -7.50000
12.00000 -0.50000 -3.00000
12.00000 0.00000 -2.50000
12.50000 0.00000 -2.00000
12.00000 0.50000 -7.00000
12.00000 1.00000 -6.50000
12.50000 1.00000 -2.00000
12.00000 1.00000 -2.50000
12.50000 1.00000 -1.00000
12.00000 1.50000 -6.00000
12.50000 2.00000 -6.00000
12.00000 2.00000 -5.50000
12.00000 1.50000 -2.00000
12.00000 2.00000 -1.50000
12.50000 2.00000 -1.00000
12.50000 2.00000 0.00000
12.50000 2.00000 1.00000
12.00000 3.00000 -5.50000
12.00000 2.50000 -1.00000
12.00000 3.00000 -0.50000
12.50000 3.00000 0.00000
12.50000 3.00000 1.00000
12.00000 4.00000 -5.50000
12.50000 4.00000 0.00000
12.00000 4.00000 -0.50000
12.50000 4.00000 1.00000
12.00000 4.50000 -5.00000
12.50000 5.00000 -5.00000
12.00000 5.00000 -4.50000
12.50000 5.00000 0.00000
12.00000 5.00000 -0.50000
12.50000 6.00000 -5.00000
12.00000 6.00000 -4.50000
12.50000 6.00000 -1.00000
12.00000 5.50000 -1.00000
12.00000 6.00000 -1.50000
12.50000 6.00000 0.00000
12.50000 7.00000 -5.00000
12.00000 6.50000 -4.00000
12.50000 7.00000 -4.00000
12.00000 7.00000 -3.50000
12.50000 7.00000 -2.00000
12.00000 6.50000 -2.00000
12.00000 7.00000 -2.50000
12.50000 7.00000 -1.00000
12.00000 7.50000 -3.00000
11.50000 -4.00000 -7.00000
11.50000 -3.00000 -8.00000
11.00000 -3.00000 -7.50000
11.00000 -3.50000 -7.00000
11.50000 -3.00000 -6.00000
11.00000 -3.00000 -6.50000
11.50000 -3.00000 -5.00000
11.50000 -2.00000 -8.00000
11.00000 -2.00000 -7.50000
11.00000 -2.50000 -6.00000
11.00000 -2.00000 -5.50000
11.50000 -2.00000 -5.00000
11.50000 -2.00000 -4.00000
11.50000 -1.00000 -8.00000
11.00000 -1.00000 -7.50000
11.00000 -1.50000 -5.00000
11.00000 -1.00000 -4.50000
11.50000 -1.00000 -4.00000
11.50000 0.00000 -7.00000
11.00000 -0.50000 -7.00000
11.00000 0.00000 -6.50000
11.50000 0.00000 -4.00000
11.00000 0.00000 -4.50000
11.50000 0.00000 -3.00000
11.50000 1.00000 -6.00000
11.00000 0.50000 -6.00000
11.00000 1.00000 -5.50000
11.00000 0.50000 -4.00000
11.00000 1.00000 -3.50000
11.50000 1.00000 -3.00000
11.50000 2.00000 -5.00000
11.00000 1.50000 -5.00000
11.00000 2.00000 -4.50000
11.50000 2.00000 -3.00000
11.00000 2.00000 -3.50000
11.50000 2.00000 -2.00000
11.50000 3.00000 -5.00000
11.00000 3.00000 -4.50000
11.00000 2.50000 -3.00000
11.00000 3.00000 -2.50000
11.50000 3.00000 -2.00000
11.50000 3.00000 -1.00000
11.50000 4.00000 -5.00000
11.00000 4.00000 -4.50000
11.00000 3.50000 -2.00000
11.00000 4.00000 -1.50000
11.50000 4.00000 -1.00000
11.50000 5.00000 -4.00000
11.00000 4.50000 -4.00000
11.00000 5.00000 -3.50000
11.50000 5.00000 -1.00000
11.00000 5.00000 -1.50000
11.50000 6.00000 -4.00000
11.00000 5.50000 -3.00000
11.50000 6.00000 -3.00000
11.50000 6.00000 -2.00000
11.00000 5.50000 -2.00000
11.50000 7.00000 -3.00000
10.50000 -3.00000 -7.00000
10.50000 -2.00000 -7.00000
10.50000 -2.00000 -6.00000
10.50000 -1.00000 -7.00000
10.50000 -1.00000 -6.00000
10.50000 -1.00000 -5.00000
10.50000 0.00000 -6.00000
10.50000 0.00000 -5.00000
10.50000 1.00000 -5.00000
10.50000 1.00000 -4.00000
10.50000 2.00000 -4.00000
10.50000 3.00000 -4.00000
10.50000 3.00000 -3.00000
10.50000 4.00000 -4.00000
10.50000 4.00000 -3.00000
10.50000 4.00000 -2.00000
10.50000 5.00000 -3.00000
10.50000 5.00000 -2.00000
3 2 1 0
3 0 3 2
3 6 5 4
3 8 7 4
3 4 7 6
3 7 8 1
3 8 0 1
3 8 9 0
3 3 0 10
3 0 11 10
3 0 9 11
3 11 12 10
3 5 13 4
3 15 14 13
3 14 4 13
3 14 8 4
3 8 16 9
3 8 14 16
3 9 17 11
3 9 16 17
3 12 11 18
3 18 11 17
3 14 15 19
3 19 15 20
3 14 21 16
3 14 19 21
3 16 22 17
3 16 21 22
3 18 17 23
3 23 17 22
3 19 20 24
3 24 20 25
3 19 26 21
3 19 24 26
3 21 27 22
3 21 26 27
3 23 22 28
3 28 22 27
3 24 25 29
3 29 25 30
3 24 31 26
3 24 29 31
3 26 32 27
3 26 31 32
3 28 27 33
3 33 27 32
3 29 30 34
3 34 30 35
3 29 36 31
3 29 34 36
3 31 37 32
3 31 36 37
3 33 32 38
3 38 32 37
3 34 35 39
3 39 35 40
3 34 41 36
3 34 39 41
3 36 42 37
3 36 41 42
3 38 37 43
3 43 37 42
3 39 40 44
3 44 40 45
3 39 46 41
3 39 44 46
3 41 47 42
3 41 46 47
3 43 42 48
3 48 42 47
3 45 49 44
3 44 49 46
3 46 49 50
3 46 50 47
3 47 50 51
3 47 51 48
3 54 53 52
3 1 2 52
3 2 54 52
3 2 55 54
3 57 56 3
3 56 2 3
3 56 55 2
3 59 58 57
3 57 58 56
3 59 60 58
3 62 61 6
3 6 61 5
3 7 52 53
3 62 7 53
3 6 7 62
3 52 7 1
3 10 57 3
3 57 10 12
3 63 57 12
3 59 57 63
3 60 59 64
3 59 65 64
3 59 63 65
3 65 66 64
3 13 5 67
3 5 68 67
3 5 61 68
3 67 15 13
3 18 69 63
3 18 63 12
3 63 70 65
3 63 69 70
3 66 65 71
3 65 72 71
3 65 70 72
3 72 73 71
3 67 68 74
3 74 68 75
3 74 20 15
3 74 15 67
3 23 76 69
3 23 69 18
3 69 77 70
3 69 76 77
3 70 78 72
3 70 77 78
3 73 72 79
3 79 72 78
3 74 75 80
3 80 75 81
3 80 25 20
3 80 20 74
3 28 82 76
3 28 76 23
3 76 83 77
3 76 82 83
3 77 84 78
3 77 83 84
3 79 78 85
3 85 78 84
3 88 87 86
3 88 86 81
3 86 80 81
3 86 89 80
3 89 30 25
3 89 25 80
3 33 90 82
3 33 82 28
3 82 91 83
3 82 90 91
3 83 92 84
3 83 91 92
3 85 84 93
3 93 84 92
3 86 87 94
3 94 87 95
3 86 96 89
3 86 94 96
3 96 35 30
3 96 30 89
3 38 97 90
3 38 90 33
3 90 98 91
3 90 97 98
3 91 99 92
3 91 98 99
3 93 92 100
3 100 92 99
3 94 95 101
3 101 95 102
3 94 103 96
3 94 101 103
3 103 40 35
3 103 35 96
3 43 104 97
3 43 97 38
3 97 105 98
3 97 104 105
3 98 106 99
3 98 105 106
3 100 99 107
3 107 99 106
3 101 102 108
3 108 102 109
3 101 110 103
3 101 108 110
3 110 45 40
3 110 40 103
3 48 111 104
3 48 104 43
3 104 112 105
3 104 111 112
3 105 113 106
3 105 112 113
3 107 106 114
3 114 106 113
3 109 115 108
3 117 116 115
3 116 108 115
3 116 110 108
3 118 49 45
3 110 118 45
3 116 118 110
3 119 50 49
3 119 49 118
3 120 51 50
3 120 50 119
3 111 48 51
3 120 111 51
3 121 111 120
3 111 122 112
3 111 121 122
3 112 123 113
3 112 122 123
3 114 113 124
3 124 113 123
3 116 117 125
3 125 117 126
3 116 127 118
3 116 125 127
3 118 128 119
3 118 127 128
3 119 129 120
3 119 128 129
3 120 130 121
3 120 129 130
3 121 131 122
3 121 130 131
3 133 123 132
3 123 131 132
3 123 122 131
3 123 133 124
3 125 126 134
3 134 126 135
3 125 136 127
3 125 134 136
3 127 137 128
3 127 136 137
3 128 138 129
3 128 137 138
3 129 139 130
3 129 138 139
3 141 131 140
3 131 139 140
3 131 130 139
3 131 141 132
3 135 142 134
3 144 143 142
3 143 134 142
3 143 136 134
3 136 145 137
3 136 143 145
3 137 146 138
3 137 145 146
3 148 139 147
3 139 146 147
3 139 138 146
3 139 148 140
3 144 149 143
3 143 149 145
3 145 149 150
3 145 150 146
3 146 150 151
3 146 151 147
3 153 152 54
3 54 152 53
3 154 54 55
3 154 153 54
3 155 55 56
3 155 154 55
3 156 56 58
3 156 155 56
3 58 60 156
3 156 60 157
3 158 61 62
3 159 158 62
3 53 159 62
3 152 159 53
3 160 157 60
3 160 60 64
3 162 161 66
3 161 64 66
3 161 160 64
3 162 163 161
3 165 164 158
3 164 61 158
3 164 68 61
3 165 158 159
3 71 162 66
3 167 166 73
3 73 166 71
3 166 163 71
3 163 162 71
3 167 168 166
3 164 75 68
3 169 75 164
3 79 170 167
3 79 167 73
3 168 167 171
3 167 172 171
3 167 170 172
3 172 173 171
3 176 175 174
3 169 176 174
3 81 169 174
3 75 169 81
3 85 177 170
3 85 170 79
3 170 178 172
3 170 177 178
3 173 172 179
3 179 172 178
3 174 175 88
3 175 87 88
3 175 180 87
3 174 88 81
3 93 181 177
3 93 177 85
3 177 182 178
3 177 181 182
3 179 178 183
3 183 178 182
3 186 185 184
3 180 186 184
3 95 180 184
3 87 180 95
3 100 187 181
3 100 181 93
3 181 188 182
3 181 187 188
3 183 182 189
3 189 182 188
3 184 185 190
3 190 185 191
3 190 102 95
3 190 95 184
3 107 192 187
3 107 187 100
3 187 193 188
3 187 192 193
3 189 188 194
3 194 188 193
3 190 191 195
3 195 191 196
3 195 109 102
3 195 102 190
3 114 197 192
3 114 192 107
3 192 198 193
3 192 197 198
3 194 193 199
3 199 193 198
3 196 200 195
3 200 202 201
3 200 201 115
3 195 200 115
3 109 195 115
3 201 117 115
3 124 203 197
3 124 197 114
3 205 198 204
3 198 203 204
3 198 197 203
3 198 205 199
3 201 202 206
3 206 202 207
3 206 126 117
3 206 117 201
3 132 208 133
3 203 124 133
3 208 203 133
3 209 203 208
3 204 203 210
3 210 203 209
3 206 207 211
3 211 207 212
3 211 135 126
3 211 126 206
3 140 213 141
3 208 132 141
3 213 208 141
3 214 208 213
3 216 209 215
3 209 214 215
3 209 208 214
3 209 216 210
3 212 217 211
3 217 219 218
3 217 218 142
3 211 217 142
3 135 211 142
3 218 144 142
3 147 220 148
3 213 140 148
3 220 213 148
3 221 213 220
3 223 214 222
3 214 221 222
3 214 213 221
3 214 223 215
3 218 219 224
3 224 219 225
3 226 149 144
3 218 226 144
3 224 226 218
3 227 150 149
3 227 149 226
3 228 151 150
3 228 150 227
3 220 147 151
3 228 220 151
3 229 220 228
3 220 230 221
3 220 229 230
3 222 221 231
3 231 221 230
3 225 232 224
3 224 232 226
3 226 232 233
3 235 234 233
3 234 226 233
3 234 227 226
3 227 236 228
3 227 234 236
3 238 229 237
3 229 236 237
3 229 228 236
3 229 238 230
3 230 238 239
3 230 239 231
3 235 240 234
3 234 240 236
3 236 240 241
3 236 241 237
3 242 152 153
3 242 153 243
3 153 244 243
3 153 154 244
3 245 154 155
3 245 244 154
3 246 155 156
3 246 245 155
3 248 247 157
3 247 156 157
3 247 246 156
3 248 249 247
3 251 250 242
3 250 152 242
3 250 159 152
3 251 242 243
3 160 248 157
3 252 249 248
3 160 252 248
3 161 252 160
3 161 163 252
3 252 163 253
3 255 254 165
3 165 254 164
3 165 159 250
3 165 250 255
3 256 253 163
3 256 163 166
3 166 168 256
3 256 168 257
3 254 169 164
3 258 169 254
3 168 171 259
3 260 168 259
3 257 168 260
3 173 259 171
3 262 261 176
3 176 261 175
3 176 169 258
3 176 258 262
3 263 260 259
3 259 173 263
3 173 264 263
3 173 179 264
3 261 180 175
3 265 180 261
3 183 264 179
3 183 266 264
3 268 267 186
3 186 267 185
3 186 180 265
3 186 265 268
3 189 270 269
3 266 189 269
3 183 189 266
3 270 271 269
3 267 191 185
3 272 191 267
3 194 273 270
3 194 270 189
3 271 270 274
3 270 275 274
3 270 273 275
3 275 276 274
3 272 196 191
3 277 196 272
3 199 278 273
3 199 273 194
3 280 275 279
3 275 278 279
3 275 273 278
3 275 280 276
3 200 196 281
3 196 282 281
3 196 277 282
3 281 202 200
3 204 283 205
3 278 199 205
3 283 278 205
3 284 278 283
3 279 278 285
3 285 278 284
3 282 286 281
3 202 281 286
3 287 202 286
3 207 202 287
3 210 288 283
3 210 283 204
3 290 284 289
3 284 288 289
3 284 283 288
3 284 290 285
3 287 212 207
3 291 212 287
3 215 292 216
3 288 210 216
3 292 288 216
3 293 288 292
3 289 288 294
3 294 288 293
3 217 212 295
3 212 296 295
3 212 291 296
3 295 219 217
3 222 297 223
3 292 215 223
3 297 292 223
3 298 292 297
3 300 293 299
3 293 298 299
3 293 292 298
3 293 300 294
3 295 296 301
3 301 296 302
3 301 225 219
3 301 219 295
3 231 303 297
3 231 297 222
3 297 304 298
3 297 303 304
3 299 298 305
3 305 298 304
3 302 306 301
3 306 308 307
3 306 307 232
3 301 306 232
3 225 301 232
3 309 233 232
3 309 232 307
3 309 235 233
3 237 310 238
3 311 239 238
3 311 238 310
3 303 231 239
3 311 303 239
3 312 303 311
3 314 304 313
3 304 312 313
3 304 303 312
3 304 314 305
3 308 315 307
3 317 316 315
3 316 307 315
3 316 309 307
3 318 240 235
3 309 318 235
3 316 318 309
3 319 241 240
3 319 240 318
3 310 237 241
3 319 310 241
3 320 310 319
3 310 321 311
3 310 320 321
3 323 312 322
3 312 321 322
3 312 311 321
3 312 323 313
3 317 324 316
3 316 324 318
3 318 324 325
3 318 325 319
3 319 325 326
3 319 326 320
3 320 326 327
3 320 327 321
3 321 327 328
3 321 328 322
3 329 243 244
3 245 330 244
3 244 330 329
3 246 331 245
3 245 331 330
3 247 332 246
3 246 332 331
3 249 332 247
3 333 250 251
3 243 329 251
3 329 333 251
3 329 334 333
3 335 329 330
3 334 329 335
3 336 330 331
3 335 330 336
3 337 331 332
3 336 331 337
3 252 338 249
3 338 332 249
3 338 337 332
3 253 338 252
3 340 339 255
3 255 339 254
3 255 250 333
3 341 255 333
3 340 255 341
3 341 333 334
3 341 334 342
3 342 334 335
3 342 335 343
3 343 335 336
3 343 336 344
3 344 336 337
3 344 337 345
3 347 346 345
3 337 347 345
3 338 347 337
3 256 348 253
3 348 338 253
3 348 347 338
3 257 348 256
3 351 350 349
3 339 351 349
3 258 339 349
3 254 339 258
3 352 346 347
3 354 353 352
3 347 354 352
3 348 354 347
3 260 354 257
3 257 354 348
3 349 350 262
3 350 261 262
3 350 355 261
3 349 262 258
3 356 353 354
3 358 356 357
3 357 356 263
3 356 354 263
3 354 260 263
3 264 357 263
3 355 265 261
3 359 265 355
3 360 358 357
3 357 264 360
3 264 361 360
3 264 266 361
3 363 362 268
3 268 362 267
3 268 265 359
3 268 359 363
3 364 361 266
3 364 266 269
3 269 271 364
3 364 271 365
3 362 272 267
3 366 272 362
3 367 365 271
3 367 271 274
3 274 276 367
3 367 276 368
3 366 277 272
3 369 277 366
3 279 370 280
3 370 371 280
3 371 276 280
3 371 368 276
3 369 282 277
3 372 282 369
3 285 373 370
3 285 370 279
3 371 370 374
3 374 370 373
3 286 282 375
3 282 376 375
3 282 372 376
3 375 287 286
3 289 377 290
3 373 285 290
3 377 373 290
3 378 373 377
3 374 373 379
3 379 373 378
3 376 380 375
3 287 375 380
3 381 287 380
3 291 287 381
3 294 382 377
3 294 377 289
3 384 378 383
3 378 382 383
3 378 377 382
3 378 384 379
3 381 296 291
3 385 296 381
3 299 386 300
3 382 294 300
3 386 382 300
3 387 382 386
3 383 382 388
3 388 382 387
3 391 390 389
3 385 391 389
3 302 385 389
3 296 385 302
3 305 392 386
3 305 386 299
3 394 387 393
3 387 392 393
3 387 386 392
3 387 394 388
3 389 390 395
3 395 390 396
3 397 306 302
3 389 397 302
3 395 397 389
3 397 308 306
3 313 398 314
3 392 305 314
3 398 392 314
3 399 392 398
3 393 392 400
3 400 392 399
3 396 401 395
3 403 402 401
3 402 395 401
3 402 397 395
3 404 315 308
3 397 404 308
3 402 404 397
3 404 317 315
3 322 405 323
3 398 313 323
3 405 398 323
3 406 398 405
3 408 399 407
3 399 406 407
3 399 398 406
3 399 408 400
3 403 409 402
3 411 410 409
3 410 402 409
3 410 404 402
3 412 324 317
3 404 412 317
3 410 412 404
3 413 325 324
3 413 324 412
3 414 326 325
3 414 325 413
3 415 327 326
3 415 326 414
3 416 328 327
3 416 327 415
3 405 322 328
3 416 405 328
3 417 405 416
3 419 406 418
3 406 417 418
3 406 405 417
3 406 419 407
3 411 420 410
3 410 420 412
3 412 420 421
3 423 422 421
3 422 412 421
3 422 413 412
3 413 424 414
3 413 422 424
3 414 425 415
3 414 424 425
3 427 416 426
3 416 425 426
3 416 415 425
3 416 427 417
3 417 427 428
3 417 428 418
3 423 429 422
3 422 429 424
3 424 429 430
3 424 430 425
3 425 430 431
3 425 431 426
3 433 432 340
3 340 432 339
3 434 340 341
3 434 433 340
3 435 341 342
3 435 434 341
3 437 435 436
3 435 343 436
3 435 342 343
3 344 438 343
3 343 438 436
3 345 439 344
3 344 439 438
3 346 439 345
3 441 440 351
3 351 440 350
3 351 339 432
3 351 432 441
3 442 437 436
3 442 436 438
3 442 438 443
3 443 438 439
3 443 439 444
3 446 444 445
3 445 444 352
3 444 439 352
3 439 346 352
3 353 445 352
3 440 355 350
3 447 355 440
3 448 446 445
3 448 445 353
3 356 448 353
3 449 448 356
3 356 358 449
3 449 358 450
3 447 359 355
3 451 359 447
3 452 450 358
3 452 358 360
3 360 361 452
3 452 361 453
3 455 454 363
3 363 454 362
3 363 359 451
3 363 451 455
3 361 364 456
3 457 361 456
3 453 361 457
3 365 456 364
3 454 366 362
3 458 366 454
3 459 457 456
3 461 459 460
3 460 459 367
3 459 456 367
3 456 365 367
3 368 460 367
3 458 369 366
3 462 369 458
3 463 461 460
3 460 368 463
3 368 464 463
3 368 371 464
3 462 372 369
3 465 372 462
3 374 464 371
3 374 466 464
3 465 376 372
3 467 376 465
3 379 469 468
3 466 379 468
3 374 379 466
3 469 470 468
3 380 376 471
3 376 472 471
3 376 467 472
3 471 381 380
3 383 473 384
3 469 379 384
3 473 469 384
3 474 469 473
3 470 469 475
3 475 469 474
3 471 472 476
3 476 472 477
3 476 385 381
3 476 381 471
3 388 478 473
3 388 473 383
3 480 474 479
3 474 478 479
3 474 473 478
3 474 480 475
3 482 481 477
3 481 390 477
3 391 476 477
3 391 477 390
3 391 385 476
3 481 482 483
3 393 484 394
3 478 388 394
3 484 478 394
3 485 478 484
3 479 478 486
3 486 478 485
3 488 487 481
3 487 390 481
3 487 396 390
3 488 481 483
3 400 489 484
3 400 484 393
3 491 485 490
3 485 489 490
3 485 484 489
3 485 491 486
3 487 492 396
3 396 492 401
3 403 401 492
3 403 492 493
3 407 494 408
3 494 495 408
3 408 495 400
3 495 496 400
3 496 489 400
3 489 496 490
3 499 498 497
3 497 500 409
3 493 497 409
3 403 493 409
3 497 493 499
3 500 411 409
3 418 501 419
3 494 407 419
3 501 494 419
3 502 494 501
3 495 494 503
3 503 494 502
3 498 504 497
3 506 505 504
3 505 497 504
3 505 500 497
3 507 420 411
3 500 507 411
3 505 507 500
3 508 421 420
3 508 420 507
3 508 423 421
3 426 509 427
3 510 428 427
3 510 427 509
3 501 418 428
3 510 501 428
3 511 501 510
3 513 502 512
3 502 511 512
3 502 501 511
3 502 513 503
3 506 514 505
3 505 514 507
3 507 514 515
3 517 516 515
3 516 507 515
3 516 508 507
3 518 429 423
3 508 518 423
3 516 518 508
3 519 430 429
3 519 429 518
3 520 431 430
3 520 430 519
3 509 426 431
3 520 509 431
3 521 509 520
3 509 522 510
3 509 521 522
3 524 511 523
3 511 522 523
3 511 510 522
3 511 524 512
3 517 525 516
3 516 525 518
3 518 525 526
3 528 527 526
3 527 518 526
3 527 519 518
3 519 529 520
3 519 527 529
3 531 521 530
3 521 529 530
3 521 520 529
3 521 531 522
3 522 531 532
3 522 532 523
3 528 533 527
3 527 533 529
3 529 533 534
3 529 534 530
3 535 432 433
3 434 536 433
3 433 536 535
3 435 537 434
3 434 537 536
3 437 537 435
3 538 440 441
3 539 538 441
3 539 441 432
3 540 539 432
3 535 540 432
3 540 535 536
3 540 536 541
3 541 536 537
3 541 537 542
3 542 537 437
3 442 542 437
3 543 542 442
3 544 442 443
3 544 543 442
3 545 443 444
3 545 544 443
3 444 446 545
3 545 446 546
3 548 547 538
3 547 440 538
3 547 447 440
3 548 538 539
3 549 546 446
3 549 446 448
3 551 549 550
3 549 449 550
3 549 448 449
3 450 550 449
3 547 451 447
3 552 451 547
3 551 550 553
3 551 553 554
3 452 555 450
3 555 550 450
3 555 553 550
3 453 555 452
3 557 556 455
3 455 556 454
3 455 451 552
3 455 552 557
3 558 554 553
3 558 553 555
3 558 555 559
3 555 453 559
3 453 560 559
3 453 457 560
3 556 458 454
3 561 458 556
3 562 560 457
3 562 457 459
3 459 461 562
3 562 461 563
3 566 565 564
3 561 566 564
3 462 561 564
3 458 561 462
3 461 463 567
3 568 461 567
3 563 461 568
3 464 567 463
3 564 565 569
3 569 565 570
3 569 465 462
3 569 462 564
3 571 568 567
3 567 464 571
3 464 572 571
3 464 466 572
3 569 570 573
3 573 570 574
3 573 467 465
3 573 465 569
3 466 468 575
3 576 466 575
3 572 466 576
3 470 575 468
3 574 577 573
3 467 573 577
3 578 467 577
3 472 467 578
3 579 576 575
3 575 470 579
3 470 580 579
3 470 475 580
3 578 477 472
3 581 477 578
3 479 582 480
3 582 583 480
3 583 475 480
3 583 580 475
3 482 477 584
3 477 585 584
3 477 581 585
3 584 483 482
3 486 586 582
3 486 582 479
3 583 582 587
3 587 582 586
3 584 585 488
3 585 487 488
3 585 588 487
3 584 488 483
3 490 589 491
3 586 486 491
3 589 586 491
3 590 586 589
3 587 586 591
3 591 586 590
3 492 487 592
3 487 593 592
3 487 588 593
3 592 493 492
3 495 594 496
3 589 490 496
3 594 589 496
3 595 589 594
3 597 590 596
3 590 595 596
3 590 589 595
3 590 597 591
3 592 593 499
3 593 498 499
3 593 598 498
3 592 499 493
3 503 599 594
3 503 594 495
3 601 595 600
3 595 599 600
3 595 594 599
3 595 601 596
3 504 498 602
3 498 603 602
3 498 598 603
3 602 506 504
3 512 604 513
3 604 605 513
3 513 605 503
3 605 606 503
3 606 599 503
3 599 606 600
3 603 607 602
3 607 609 608
3 607 608 514
3 602 607 514
3 506 602 514
3 610 515 514
3 610 514 608
3 610 517 515
3 523 611 524
3 611 612 524
3 524 612 512
3 612 613 512
3 613 604 512
3 604 613 605
3 609 614 608
3 608 614 610
3 610 614 615
3 615 617 616
3 615 616 525
3 610 615 525
3 517 610 525
3 618 526 525
3 618 525 616
3 618 528 526
3 530 619 531
3 620 532 531
3 620 531 619
3 620 621 532
3 532 621 523
3 621 622 523
3 622 611 523
3 611 622 612
3 617 623 616
3 625 624 623
3 624 616 623
3 624 618 616
3 626 533 528
3 618 626 528
3 624 626 618
3 627 534 533
3 627 533 626
3 627 628 534
3 534 628 530
3 628 629 530
3 629 619 530
3 619 629 620
3 620 629 630
3 620 630 621
3 625 631 624
3 624 631 626
3 626 631 632
3 626 632 627
3 627 632 633
3 627 633 628
3 634 539 540
3 541 635 540
3 540 635 634
3 542 636 541
3 541 636 635
3 543 637 542
3 542 637 636
3 544 638 543
3 543 638 637
3 545 639 544
3 544 639 638
3 546 639 545
3 640 547 548
3 641 640 548
3 641 548 539
3 642 641 539
3 634 642 539
3 642 634 635
3 642 635 643
3 643 635 636
3 643 636 644
3 644 636 637
3 644 637 645
3 645 637 638
3 645 638 646
3 648 647 646
3 638 648 646
3 639 648 638
3 549 649 546
3 649 639 546
3 649 648 639
3 551 649 549
3 651 650 640
3 650 547 640
3 650 552 547
3 651 640 641
3 647 648 652
3 647 652 653
3 654 648 649
3 652 648 654
3 554 654 551
3 551 654 649
3 656 655 557
3 557 655 556
3 557 552 650
3 557 650 656
3 657 653 652
3 659 658 657
3 652 659 657
3 654 659 652
3 558 660 554
3 660 654 554
3 660 659 654
3 559 661 558
3 558 661 660
3 560 661 559
3 664 663 662
3 655 664 662
3 561 655 662
3 556 655 561
3 665 658 659
3 665 659 660
3 665 660 666
3 668 667 666
3 660 668 666
3 661 668 660
3 562 669 560
3 669 661 560
3 669 668 661
3 563 669 562
3 662 663 566
3 663 565 566
3 663 670 565
3 662 566 561
3 671 667 668
3 673 672 671
3 668 673 671
3 669 673 668
3 568 673 563
3 563 673 669
3 670 570 565
3 674 570 670
3 675 672 673
3 675 673 568
3 571 675 568
3 676 675 571
3 571 572 676
3 676 572 677
3 674 574 570
3 678 574 674
3 576 677 572
3 576 679 677
3 577 574 680
3 574 681 680
3 574 678 681
3 680 578 577
3 682 679 576
3 682 576 579
3 579 580 682
3 682 580 683
3 681 684 680
3 578 680 684
3 685 578 684
3 581 578 685
3 583 683 580
3 583 686 683
3 685 585 581
3 687 585 685
3 587 686 583
3 587 688 686
3 687 588 585
3 689 588 687
3 591 688 587
3 591 690 688
3 689 593 588
3 691 593 689
3 596 692 597
3 692 693 597
3 693 591 597
3 693 690 591
3 691 598 593
3 694 598 691
3 600 695 601
3 692 596 601
3 695 692 601
3 696 692 695
3 693 692 697
3 697 692 696
3 694 603 598
3 698 603 694
3 605 699 606
3 695 600 606
3 699 695 606
3 700 695 699
3 702 696 701
3 696 700 701
3 696 695 700
3 696 702 697
3 607 603 703
3 603 704 703
3 603 698 704
3 703 609 607
3 612 705 613
3 699 605 613
3 705 699 613
3 706 699 705
3 708 700 707
3 700 706 707
3 700 699 706
3 700 708 701
3 704 709 703
3 709 711 710
3 709 710 614
3 703 709 614
3 609 703 614
3 712 615 614
3 712 614 710
3 712 617 615
3 621 713 622
3 705 612 622
3 713 705 622
3 714 705 713
3 716 706 715
3 706 714 715
3 706 705 714
3 706 716 707
3 711 717 710
3 710 717 712
3 712 717 718
3 718 720 719
3 718 719 623
3 712 718 623
3 617 712 623
3 719 625 623
3 628 721 629
3 722 630 629
3 722 629 721
3 713 621 630
3 722 713 630
3 723 713 722
3 725 714 724
3 714 723 724
3 714 713 723
3 714 725 715
3 720 726 719
3 719 726 625
3 726 631 625
3 726 727 631
3 727 729 728
3 632 727 728
3 631 727 632
3 730 633 632
3 730 632 728
3 721 628 633
3 730 721 633
3 731 721 730
3 733 722 732
3 722 731 732
3 722 721 731
3 722 733 723
3 723 733 734
3 723 734 724
3 729 735 728
3 728 735 730
3 730 735 736
3 730 736 731
3 731 736 737
3 731 737 732
3 738 641 642
3 643 739 642
3 642 739 738
3 644 740 643
3 643 740 739
3 645 741 644
3 644 741 740
3 646 742 645
3 645 742 741
3 647 742 646
3 743 650 651
3 641 738 651
3 738 743 651
3 738 744 743
3 745 738 739
3 744 738 745
3 746 739 740
3 745 739 746
3 747 740 741
3 746 740 747
3 748 741 742
3 747 741 748
3 653 748 647
3 647 748 742
3 749 655 656
3 650 743 656
3 743 749 656
3 743 750 749
3 751 743 744
3 750 743 751
3 752 744 745
3 751 744 752
3 753 745 746
3 752 745 753
3 754 746 747
3 753 746 754
3 755 747 748
3 754 747 755
3 657 756 653
3 756 748 653
3 756 755 748
3 658 756 657
3 757 663 664
3 758 757 664
3 758 664 655
3 759 758 655
3 749 759 655
3 759 749 750
3 759 750 760
3 760 750 751
3 760 751 761
3 761 751 752
3 761 752 762
3 762 752 753
3 762 753 763
3 763 753 754
3 763 754 764
3 766 765 764
3 754 766 764
3 755 766 754
3 767 755 756
3 766 755 767
3 665 768 658
3 768 756 658
3 768 767 756
3 666 769 665
3 665 769 768
3 667 769 666
3 771 770 757
3 770 663 757
3 770 670 663
3 771 757 758
3 772 765 766
3 772 766 767
3 772 767 773
3 773 767 768
3 773 768 774
3 776 775 774
3 768 776 774
3 769 776 768
3 671 777 667
3 777 769 667
3 777 776 769
3 672 777 671
3 770 674 670
3 778 674 770
3 779 775 776
3 779 776 777
3 779 777 780
3 782 780 781
3 781 780 675
3 780 777 675
3 777 672 675
3 676 783 675
3 675 783 781
3 677 783 676
3 778 678 674
3 784 678 778
3 785 782 781
3 787 786 785
3 781 787 785
3 783 787 781
3 679 787 677
3 677 787 783
3 784 681 678
3 788 681 784
3 789 786 787
3 791 789 790
3 790 789 682
3 789 787 682
3 787 679 682
3 683 790 682
3 684 681 792
3 681 793 792
3 681 788 793
3 792 685 684
3 794 791 790
3 790 683 794
3 683 795 794
3 683 686 795
3 792 793 796
3 796 793 797
3 796 687 685
3 796 685 792
3 688 795 686
3 688 798 795
3 796 797 799
3 799 797 800
3 799 689 687
3 799 687 796
3 690 798 688
3 690 801 798
3 799 800 802
3 802 800 803
3 802 691 689
3 802 689 799
3 693 801 690
3 693 804 801
3 802 803 805
3 805 803 806
3 805 694 691
3 805 691 802
3 697 804 693
3 697 807 804
3 806 808 805
3 694 805 808
3 809 694 808
3 698 694 809
3 701 810 702
3 810 811 702
3 811 697 702
3 811 807 697
3 813 704 812
3 704 809 812
3 704 698 809
3 814 813 812
3 707 815 708
3 815 816 708
3 708 816 701
3 816 817 701
3 817 810 701
3 810 817 811
3 819 709 818
3 709 704 818
3 818 704 813
3 820 818 813
3 813 814 820
3 709 819 711
3 715 821 716
3 815 707 716
3 821 815 716
3 822 815 821
3 816 815 823
3 823 815 822
3 818 824 819
3 819 824 711
3 824 717 711
3 824 825 717
3 825 827 826
3 718 825 826
3 717 825 718
3 826 720 718
3 724 828 725
3 828 829 725
3 725 829 715
3 829 830 715
3 830 821 715
3 821 830 822
3 822 830 831
3 822 831 823
3 827 832 826
3 832 834 833
3 832 833 726
3 826 832 726
3 720 826 726
3 835 727 726
3 835 726 833
3 835 729 727
3 732 836 733
3 837 734 733
3 837 733 836
3 837 838 734
3 734 838 724
3 838 839 724
3 839 828 724
3 828 839 829
3 834 840 833
3 833 840 835
3 835 840 841
3 841 843 842
3 841 842 735
3 835 841 735
3 729 835 735
3 844 736 735
3 844 735 842
3 845 737 736
3 845 736 844
3 845 846 737
3 737 846 732
3 846 847 732
3 847 836 732
3 836 847 837
3 837 847 848
3 837 848 838
3 843 849 842
3 842 849 844
3 844 849 850
3 844 850 845
3 845 850 851
3 845 851 846
3 852 758 759
3 760 853 759
3 759 853 852
3 761 854 760
3 760 854 853
3 762 855 761
3 761 855 854
3 763 856 762
3 762 856 855
3 764 857 763
3 763 857 856
3 765 857 764
3 859 858 771
3 771 858 770
3 771 758 852
3 860 771 852
3 859 771 860
3 860 852 853
3 860 853 861
3 861 853 854
3 861 854 862
3 862 854 855
3 862 855 863
3 863 855 856
3 863 856 864
3 864 856 857
3 864 857 865
3 867 865 866
3 866 865 772
3 865 857 772
3 857 765 772
3 773 868 772
3 772 868 866
3 774 869 773
3 773 869 868
3 775 869 774
3 858 778 770
3 870 778 858
3 871 867 866
3 871 866 868
3 871 868 872
3 872 868 869
3 872 869 873
3 875 873 874
3 874 873 779
3 873 869 779
3 869 775 779
3 780 876 779
3 779 876 874
3 782 876 780
3 879 878 877
3 870 879 877
3 784 870 877
3 778 870 784
3 880 875 874
3 882 881 880
3 874 882 880
3 876 882 874
3 785 883 782
3 883 876 782
3 883 882 876
3 786 883 785
3 878 884 877
3 784 877 884
3 885 784 884
3 788 784 885
3 886 881 882
3 886 882 883
3 886 883 887
3 889 887 888
3 888 887 789
3 887 883 789
3 883 786 789
3 791 888 789
3 885 793 788
3 890 793 885
3 891 889 888
3 893 891 892
3 892 891 794
3 891 888 794
3 888 791 794
3 795 892 794
3 890 797 793
3 894 797 890
3 895 893 892
3 892 795 895
3 795 896 895
3 795 798 896
3 894 800 797
3 897 800 894
3 801 896 798
3 801 898 896
3 897 803 800
3 899 803 897
3 804 898 801
3 804 900 898
3 899 806 803
3 901 806 899
3 904 903 902
3 903 900 902
3 900 807 902
3 900 804 807
3 901 905 806
3 806 905 808
3 809 808 905
3 809 905 906
3 904 902 907
3 904 907 908
3 811 907 807
3 807 907 902
3 812 809 909
3 809 910 909
3 809 906 910
3 909 814 812
3 908 907 817
3 816 908 817
3 911 908 816
3 817 907 811
3 913 912 910
3 912 818 910
3 820 909 910
3 820 910 818
3 820 814 909
3 912 913 914
3 917 916 915
3 916 911 915
3 911 823 915
3 911 816 823
3 912 824 818
3 825 824 912
3 918 825 912
3 914 918 912
3 919 825 918
3 919 827 825
3 829 920 830
3 921 917 915
3 830 921 915
3 831 830 915
3 921 830 920
3 831 915 823
3 918 922 919
3 922 924 923
3 922 923 832
3 919 922 832
3 827 919 832
3 923 834 832
3 838 925 839
3 920 829 839
3 925 920 839
3 926 920 925
3 921 920 927
3 927 920 926
3 924 928 923
3 923 928 834
3 928 840 834
3 928 929 840
3 929 931 930
3 841 929 930
3 840 929 841
3 930 843 841
3 846 932 847
3 933 848 847
3 933 847 932
3 925 838 848
3 933 925 848
3 934 925 933
3 936 926 935
3 926 934 935
3 926 925 934
3 926 936 927
3 931 937 930
3 937 939 938
3 937 938 849
3 930 937 849
3 843 930 849
3 940 850 849
3 940 849 938
3 941 851 850
3 941 850 940
3 932 846 851
3 941 932 851
3 942 932 941
3 944 933 943
3 933 942 943
3 933 932 942
3 933 944 934
3 934 944 945
3 934 945 935
3 939 946 938
3 938 946 940
3 940 946 947
3 940 947 941
3 941 947 948
3 941 948 942
3 942 948 949
3 942 949 943
3 950 858 859
3 860 951 859
3 859 951 950
3 861 952 860
3 860 952 951
3 862 953 861
3 861 953 952
3 863 954 862
3 862 954 953
3 864 955 863
3 863 955 954
3 865 956 864
3 864 956 955
3 867 956 865
3 958 957 950
3 957 858 950
3 957 870 858
3 958 950 951
3 958 951 959
3 959 951 952
3 959 952 960
3 960 952 953
3 960 953 961
3 961 953 954
3 961 954 962
3 964 963 962
3 954 964 962
3 955 964 954
3 965 955 956
3 964 955 965
3 871 966 867
3 966 956 867
3 966 965 956
3 872 967 871
3 871 967 966
3 873 968 872
3 872 968 967
3 875 968 873
3 970 969 879
3 879 969 878
3 879 870 957
3 879 957 970
3 971 963 964
3 971 964 965
3 971 965 972
3 972 965 966
3 972 966 973
3 973 966 967
3 973 967 974
3 976 975 974
3 967 976 974
3 968 976 967
3 880 977 875
3 977 968 875
3 977 976 968
3 881 977 880
3 969 978 878
3 878 978 884
3 885 884 978
3 885 978 979
3 980 975 976
3 982 981 980
3 976 982 980
3 977 982 976
3 886 983 881
3 983 977 881
3 983 982 977
3 887 984 886
3 886 984 983
3 889 984 887
3 987 986 985
3 979 987 985
3 890 979 985
3 885 979 890
3 988 981 982
3 988 982 983
3 988 983 989
3 991 990 989
3 983 991 989
3 984 991 983
3 891 992 889
3 992 984 889
3 992 991 984
3 893 992 891
3 985 986 993
3 993 986 994
3 993 894 890
3 993 890 985
3 995 990 991
3 995 991 992
3 995 992 996
3 998 996 997
3 997 996 895
3 996 992 895
3 992 893 895
3 896 997 895
3 994 999 993
3 894 993 999
3 1000 894 999
3 897 894 1000
3 998 997 1001
3 998 1001 1002
3 898 1001 896
3 896 1001 997
3 1000 899 897
3 1003 899 1000
3 1002 1001 1004
3 1002 1004 1005
3 900 1004 898
3 898 1004 1001
3 1003 901 899
3 1006 901 1003
3 1005 1004 903
3 904 1005 903
3 1007 1005 904
3 903 1004 900
3 1006 1008 901
3 901 1008 905
3 906 905 1008
3 906 1008 1009
3 908 1007 904
3 908 1010 1007
3 1012 910 1011
3 910 1009 1011
3 910 906 1009
3 1013 1012 1011
3 1016 1015 1014
3 1015 1010 1014
3 1010 911 1014
3 1010 908 911
3 1012 913 910
3 914 913 1012
3 1013 914 1012
3 1017 914 1013
3 1016 1014 916
3 917 1016 916
3 1018 1016 917
3 916 1014 911
3 1017 918 914
3 1019 918 1017
3 921 1018 917
3 921 1020 1018
3 1019 1021 918
3 918 1021 922
3 924 922 1021
3 924 1021 1022
3 1025 1024 1023
3 1024 1020 1023
3 1020 927 1023
3 1020 921 927
3 1022 1026 924
3 924 1026 928
3 1026 1028 1027
3 929 1026 1027
3 928 1026 929
3 1027 931 929
3 1025 1023 936
3 935 1025 936
3 1029 1025 935
3 936 1023 927
3 1028 1030 1027
3 1030 1032 1031
3 1030 1031 937
3 1027 1030 937
3 931 1027 937
3 1031 939 937
3 943 1033 944
3 944 1033 1034
3 1035 944 1034
3 945 944 1035
3 935 945 1029
3 1029 945 1035
3 1032 1036 1031
3 1031 1036 939
3 1036 946 939
3 1036 1037 946
3 1037 1039 1038
3 947 1037 1038
3 946 1037 947
3 1040 948 947
3 1040 947 1038
3 1041 949 948
3 1041 948 1040
3 1041 1042 949
3 949 1042 943
3 1042 1043 943
3 1043 1033 943
3 1033 1043 1034
3 1039 1044 1038
3 1038 1044 1040
3 1040 1044 1045
3 1040 1045 1041
3 1041 1045 1046
3 1041 1046 1042
3 1047 957 958
3 959 1048 958
3 958 1048 1047
3 960 1049 959
3 959 1049 1048
3 961 1050 960
3 960 1050 1049
3 962 1051 961
3 961 1051 1050
3 963 1051 962
3 1052 969 970
3 1053 1052 970
3 1053 970 957
3 1054 1053 957
3 1047 1054 957
3 1054 1047 1048
3 1054 1048 1055
3 1055 1048 1049
3 1055 1049 1056
3 1056 1049 1050
3 1056 1050 1057
3 1059 1058 1057
3 1050 1059 1057
3 1051 1059 1050
3 971 1060 963
3 1060 1051 963
3 1060 1059 1051
3 972 1061 971
3 971 1061 1060
3 973 1062 972
3 972 1062 1061
3 974 1063 973
3 973 1063 1062
3 975 1063 974
3 1065 978 1064
3 978 969 1064
3 1064 969 1052
3 1066 1064 1052
3 1052 1053 1066
3 978 1065 979
3 1067 1058 1059
3 1067 1059 1060
3 1067 1060 1068
3 1068 1060 1061
3 1068 1061 1069
3 1069 1061 1062
3 1069 1062 1070
3 1070 1062 1063
3 1070 1063 1071
3 1073 1071 1072
3 1072 1071 980
3 1071 1063 980
3 1063 975 980
3 981 1072 980
3 1065 1064 987
3 1064 986 987
3 1064 1074 986
3 1065 987 979
3 1075 1073 1072
3 1077 1075 1076
3 1076 1075 988
3 1075 1072 988
3 1072 981 988
3 989 1078 988
3 988 1078 1076
3 990 1078 989
3 1074 994 986
3 1079 994 1074
3 1077 1076 1080
3 1077 1080 1081
3 1082 1076 1078
3 1080 1076 1082
3 995 1083 990
3 1083 1078 990
3 1083 1082 1078
3 996 1084 995
3 995 1084 1083
3 998 1084 996
3 999 994 1085
3 994 1086 1085
3 994 1079 1086
3 1085 1000 999
3 1087 1081 1080
3 1087 1080 1082
3 1087 1082 1088
3 1088 1082 1083
3 1088 1083 1089
3 1091 1090 1089
3 1083 1091 1089
3 1084 1091 1083
3 1002 1091 998
3 998 1091 1084
3 1086 1092 1085
3 1000 1085 1092
3 1093 1000 1092
3 1003 1000 1093
3 1094 1090 1091
3 1091 1002 1094
3 1002 1095 1094
3 1002 1005 1095
3 1093 1006 1003
3 1096 1006 1093
3 1007 1095 1005
3 1007 1097 1095
3 1096 1098 1006
3 1006 1098 1008
3 1009 1008 1098
3 1009 1098 1099
3 1010 1097 1007
3 1010 1100 1097
3 1099 1101 1009
3 1009 1101 1011
3 1013 1011 1101
3 1013 1101 1102
3 1104 1103 1015
3 1104 1015 1016
3 1010 1015 1100
3 1100 1015 1103
3 1102 1017 1013
3 1105 1017 1102
3 1018 1104 1016
3 1018 1106 1104
3 1105 1019 1017
3 1107 1019 1105
3 1110 1109 1108
3 1109 1106 1108
3 1106 1020 1108
3 1106 1018 1020
3 1021 1019 1111
3 1019 1112 1111
3 1019 1107 1112
3 1111 1022 1021
3 1110 1108 1024
3 1025 1110 1024
3 1113 1110 1025
3 1024 1108 1020
3 1112 1114 1111
3 1114 1116 1115
3 1114 1115 1026
3 1111 1114 1026
3 1022 1111 1026
3 1115 1028 1026
3 1119 1118 1117
3 1118 1113 1117
3 1113 1029 1117
3 1113 1025 1029
3 1116 1120 1115
3 1120 1122 1121
3 1120 1121 1030
3 1115 1120 1030
3 1028 1115 1030
3 1121 1032 1030
3 1125 1124 1123
3 1123 1124 1119
3 1123 1119 1117
3 1034 1123 1117
3 1035 1034 1117
3 1035 1117 1029
3 1122 1126 1121
3 1126 1128 1127
3 1126 1127 1036
3 1121 1126 1036
3 1032 1121 1036
3 1129 1037 1036
3 1129 1036 1127
3 1129 1039 1037
3 1132 1131 1130
3 1130 1131 1125
3 1130 1125 1123
3 1042 1130 1123
3 1043 1042 1123
3 1043 1123 1034
3 1128 1133 1127
3 1127 1133 1129
3 1129 1133 1134
3 1129 1134 1039
3 1134 1044 1039
3 1134 1135 1044
3 1044 1136 1045
3 1135 1136 1044
3 1130 1046 1132
3 1046 1136 1132
3 1046 1045 1136
3 1046 1130 1042
3 1138 1137 1054
3 1054 1137 1053
3 1140 1138 1139
3 1138 1055 1139
3 1138 1054 1055
3 1056 1141 1055
3 1055 1141 1139
3 1057 1142 1056
3 1056 1142 1141
3 1058 1142 1057
3 1143 1064 1066
3 1144 1143 1066
3 1053 1144 1066
3 1137 1144 1053
3 1145 1140 1139
3 1145 1139 1141
3 1145 1141 1146
3 1146 1141 1142
3 1146 1142 1147
3 1147 1142 1058
3 1067 1147 1058
3 1148 1147 1067
3 1149 1067 1068
3 1149 1148 1067
3 1151 1149 1150
3 1149 1069 1150
3 1149 1068 1069
3 1070 1152 1069
3 1069 1152 1150
3 1071 1153 1070
3 1070 1153 1152
3 1073 1153 1071
3 1155 1154 1143
3 1154 1064 1143
3 1154 1074 1064
3 1155 1143 1144
3 1156 1151 1150
3 1156 1150 1152
3 1156 1152 1157
3 1157 1152 1153
3 1157 1153 1158
3 1160 1158 1159
3 1159 1158 1075
3 1158 1153 1075
3 1153 1073 1075
3 1077 1159 1075
3 1154 1079 1074
3 1161 1079 1154
3 1160 1159 1162
3 1160 1162 1163
3 1081 1162 1077
3 1077 1162 1159
3 1161 1086 1079
3 1164 1086 1161
3 1165 1163 1162
3 1167 1165 1166
3 1166 1165 1087
3 1165 1162 1087
3 1162 1081 1087
3 1088 1168 1087
3 1087 1168 1166
3 1089 1169 1088
3 1088 1169 1168
3 1090 1169 1089
3 1164 1170 1086
3 1086 1170 1092
3 1093 1092 1170
3 1093 1170 1171
3 1172 1167 1166
3 1172 1166 1168
3 1172 1168 1173
3 1173 1168 1169
3 1173 1169 1174
3 1176 1174 1175
3 1175 1174 1094
3 1174 1169 1094
3 1169 1090 1094
3 1095 1175 1094
3 1171 1096 1093
3 1177 1096 1171
3 1176 1175 1178
3 1176 1178 1179
3 1097 1178 1095
3 1095 1178 1175
3 1177 1180 1096
3 1096 1180 1098
3 1099 1098 1180
3 1099 1180 1181
3 1179 1178 1182
3 1179 1182 1183
3 1100 1182 1097
3 1097 1182 1178
3 1181 1184 1099
3 1099 1184 1101
3 1102 1101 1184
3 1102 1184 1185
3 1183 1182 1103
3 1104 1183 1103
3 1186 1183 1104
3 1103 1182 1100
3 1185 1105 1102
3 1187 1105 1185
3 1106 1186 1104
3 1106 1188 1186
3 1190 1107 1189
3 1107 1187 1189
3 1107 1105 1187
3 1191 1190 1189
3 1193 1192 1109
3 1193 1109 1110
3 1106 1109 1188
3 1188 1109 1192
3 1195 1194 1190
3 1194 1107 1190
3 1194 1112 1107
3 1195 1190 1191
3 1198 1197 1196
3 1197 1193 1196
3 1193 1113 1196
3 1193 1110 1113
3 1194 1199 1112
3 1112 1199 1114
3 1116 1114 1199
3 1116 1199 1200
3 1198 1196 1118
3 1119 1198 1118
3 1201 1198 1119
3 1118 1196 1113
3 1120 1116 1202
3 1116 1203 1202
3 1116 1200 1203
3 1202 1122 1120
3 1205 1204 1124
3 1205 1124 1125
3 1119 1124 1201
3 1201 1124 1204
3 1203 1206 1202
3 1206 1208 1207
3 1206 1207 1126
3 1202 1206 1126
3 1122 1202 1126
3 1207 1128 1126
3 1210 1209 1131
3 1210 1131 1132
3 1125 1131 1205
3 1205 1131 1209
3 1208 1211 1207
3 1207 1211 1128
3 1211 1133 1128
3 1211 1212 1133
3 1133 1213 1134
3 1212 1213 1133
3 1134 1214 1135
3 1213 1214 1134
3 1135 1215 1136
3 1214 1215 1135
3 1132 1136 1210
3 1210 1136 1215
3 1216 1137 1138
3 1140 1216 1138
3 1218 1217 1216
3 1217 1137 1216
3 1217 1144 1137
3 1218 1216 1140
3 1145 1218 1140
3 1219 1218 1145
3 1220 1145 1146
3 1220 1219 1145
3 1222 1220 1221
3 1220 1147 1221
3 1220 1146 1147
3 1148 1223 1147
3 1147 1223 1221
3 1149 1224 1148
3 1148 1224 1223
3 1151 1224 1149
3 1226 1225 1155
3 1155 1225 1154
3 1155 1144 1217
3 1155 1217 1226
3 1227 1222 1221
3 1227 1221 1223
3 1227 1223 1228
3 1228 1223 1224
3 1228 1224 1229
3 1229 1224 1151
3 1156 1229 1151
3 1230 1229 1156
3 1231 1156 1157
3 1231 1230 1156
3 1233 1231 1232
3 1231 1158 1232
3 1231 1157 1158
3 1160 1232 1158
3 1225 1161 1154
3 1234 1161 1225
3 1233 1232 1235
3 1233 1235 1236
3 1163 1235 1160
3 1160 1235 1232
3 1234 1164 1161
3 1237 1164 1234
3 1238 1236 1235
3 1240 1238 1239
3 1239 1238 1165
3 1238 1235 1165
3 1235 1163 1165
3 1167 1239 1165
3 1237 1241 1164
3 1164 1241 1170
3 1171 1170 1241
3 1171 1241 1242
3 1243 1240 1239
3 1245 1243 1244
3 1244 1243 1172
3 1243 1239 1172
3 1239 1167 1172
3 1173 1246 1172
3 1172 1246 1244
3 1174 1247 1173
3 1173 1247 1246
3 1176 1247 1174
3 1242 1177 1171
3 1248 1177 1242
3 1249 1245 1244
3 1249 1244 1246
3 1249 1246 1250
3 1252 1251 1250
3 1246 1252 1250
3 1247 1252 1246
3 1179 1252 1176
3 1176 1252 1247
3 1248 1253 1177
3 1177 1253 1180
3 1181 1180 1253
3 1181 1253 1254
3 1255 1251 1252
3 1252 1179 1255
3 1179 1256 1255
3 1179 1183 1256
3 1254 1257 1181
3 1181 1257 1184
3 1185 1184 1257
3 1185 1257 1258
3 1261 1260 1259
3 1260 1256 1259
3 1256 1186 1259
3 1256 1183 1186
3 1258 1187 1185
3 1262 1187 1258
3 1261 1259 1263
3 1261 1263 1264
3 1188 1263 1186
3 1186 1263 1259
3 1262 1265 1187
3 1187 1265 1189
3 1191 1189 1265
3 1191 1265 1266
3 1269 1268 1267
3 1267 1268 1264
3 1267 1264 1263
3 1193 1267 1263
3 1192 1193 1263
3 1192 1263 1188
3 1270 1194 1195
3 1271 1270 1195
3 1191 1271 1195
3 1266 1271 1191
3 1269 1267 1197
3 1198 1269 1197
3 1272 1269 1198
3 1197 1267 1193
3 1274 1199 1273
3 1199 1194 1273
3 1273 1194 1270
3 1275 1273 1270
3 1270 1271 1275
3 1199 1274 1200
3 1278 1277 1276
3 1277 1272 1276
3 1272 1201 1276
3 1272 1198 1201
3 1273 1279 1274
3 1200 1274 1279
3 1280 1200 1279
3 1203 1200 1280
3 1283 1282 1281
3 1281 1282 1278
3 1281 1278 1276
3 1205 1281 1276
3 1204 1205 1276
3 1204 1276 1201
3 1206 1203 1284
3 1203 1285 1284
3 1203 1280 1285
3 1284 1208 1206
3 1288 1287 1286
3 1286 1287 1283
3 1286 1283 1281
3 1210 1286 1281
3 1209 1210 1281
3 1209 1281 1205
3 1285 1289 1284
3 1284 1289 1208
3 1289 1211 1208
3 1289 1290 1211
3 1290 1292 1291
3 1212 1290 1291
3 1211 1290 1212
3 1212 1291 1293
3 1294 1212 1293
3 1213 1212 1294
3 1213 1295 1214
3 1294 1295 1213
3 1286 1215 1288
3 1215 1295 1288
3 1215 1214 1295
3 1215 1286 1210
3 1292 1296 1291
3 1291 1296 1293
3 1298 1297 1218
3 1218 1297 1217
3 1300 1298 1299
3 1298 1219 1299
3 1298 1218 1219
3 1220 1301 1219
3 1219 1301 1299
3 1222 1301 1220
3 1302 1225 1226
3 1303 1302 1226
3 1217 1303 1226
3 1297 1303 1217
3 1304 1300 1299
3 1304 1299 1301
3 1304 1301 1305
3 1305 1301 1222
3 1227 1305 1222
3 1306 1305 1227
3 1308 1306 1307
3 1306 1228 1307
3 1306 1227 1228
3 1229 1309 1228
3 1228 1309 1307
3 1230 1310 1229
3 1229 1310 1309
3 1231 1311 1230
3 1230 1311 1310
3 1233 1311 1231
3 1312 1234 1302
3 1302 1234 1225
3 1302 1303 1313
3 1302 1313 1312
3 1314 1308 1307
3 1314 1307 1309
3 1314 1309 1315
3 1315 1309 1310
3 1315 1310 1316
3 1318 1317 1316
3 1310 1318 1316
3 1311 1318 1310
3 1236 1318 1233
3 1233 1318 1311
3 1319 1237 1312
3 1312 1237 1234
3 1312 1313 1320
3 1312 1320 1319
3 1321 1317 1318
3 1323 1321 1322
3 1322 1321 1238
3 1321 1318 1238
3 1318 1236 1238
3 1240 1322 1238
3 1319 1241 1237
3 1242 1241 1319
3 1320 1242 1319
3 1324 1242 1320
3 1323 1322 1325
3 1323 1325 1326
3 1243 1327 1240
3 1327 1322 1240
3 1327 1325 1322
3 1245 1327 1243
3 1324 1248 1242
3 1328 1248 1324
3 1329 1326 1325
3 1329 1325 1327
3 1329 1327 1330
3 1332 1330 1331
3 1331 1330 1249
3 1330 1327 1249
3 1327 1245 1249
3 1250 1333 1249
3 1249 1333 1331
3 1251 1333 1250
3 1328 1334 1248
3 1248 1334 1253
3 1254 1253 1334
3 1254 1334 1335
3 1336 1332 1331
3 1338 1337 1336
3 1331 1338 1336
3 1333 1338 1331
3 1255 1339 1251
3 1339 1333 1251
3 1339 1338 1333
3 1256 1339 1255
3 1335 1340 1254
3 1254 1340 1257
3 1258 1257 1340
3 1258 1340 1341
3 1337 1338 1342
3 1337 1342 1343
3 1261 1342 1260
3 1342 1339 1260
3 1342 1338 1339
3 1260 1339 1256
3 1341 1262 1258
3 1344 1262 1341
3 1343 1342 1345
3 1343 1345 1346
3 1264 1345 1261
3 1261 1345 1342
3 1344 1347 1262
3 1262 1347 1265
3 1266 1265 1347
3 1266 1347 1348
3 1351 1350 1349
3 1349 1350 1346
3 1349 1346 1345
3 1269 1349 1345
3 1268 1269 1345
3 1268 1345 1264
3 1348 1271 1266
3 1352 1271 1348
3 1351 1349 1353
3 1351 1353 1354
3 1272 1353 1269
3 1269 1353 1349
3 1355 1273 1275
3 1356 1355 1275
3 1271 1356 1275
3 1352 1356 1271
3 1359 1358 1357
3 1357 1358 1354
3 1357 1354 1353
3 1278 1357 1353
3 1277 1278 1353
3 1277 1353 1272
3 1355 1279 1273
3 1280 1279 1355
3 1356 1280 1355
3 1360 1280 1356
3 1359 1357 1282
3 1283 1359 1282
3 1361 1359 1283
3 1282 1357 1278
3 1360 1285 1280
3 1362 1285 1360
3 1365 1364 1363
3 1287 1288 1363
3 1364 1287 1363
3 1366 1287 1364
3 1283 1287 1361
3 1361 1287 1366
3 1362 1367 1285
3 1285 1367 1289
3 1289 1368 1290
3 1367 1368 1289
3 1370 1369 1292
3 1290 1370 1292
3 1368 1370 1290
3 1294 1293 1369
3 1370 1294 1369
3 1371 1294 1370
3 1363 1295 1365
3 1295 1371 1365
3 1295 1294 1371
3 1295 1363 1288
3 1369 1296 1292
3 1296 1369 1293
3 1372 1297 1298
3 1300 1372 1298
3 1374 1373 1372
3 1373 1297 1372
3 1373 1303 1297
3 1374 1372 1300
3 1304 1374 1300
3 1375 1374 1304
3 1376 1304 1305
3 1376 1375 1304
3 1378 1376 1377
3 1376 1306 1377
3 1376 1305 1306
3 1308 1377 1306
3 1373 1313 1303
3 1379 1313 1373
3 1380 1378 1377
3 1380 1377 1308
3 1314 1380 1308
3 1381 1380 1314
3 1383 1381 1382
3 1381 1315 1382
3 1381 1314 1315
3 1316 1384 1315
3 1315 1384 1382
3 1317 1384 1316
3 1379 1320 1313
3 1385 1320 1379
3 1386 1383 1382
3 1388 1387 1386
3 1382 1388 1386
3 1384 1388 1382
3 1321 1389 1317
3 1389 1384 1317
3 1389 1388 1384
3 1323 1389 1321
3 1385 1324 1320
3 1390 1324 1385
3 1391 1387 1388
3 1393 1392 1391
3 1388 1393 1391
3 1389 1393 1388
3 1326 1393 1323
3 1323 1393 1389
3 1395 1328 1394
3 1328 1390 1394
3 1328 1324 1390
3 1396 1395 1394
3 1392 1393 1397
3 1392 1397 1398
3 1329 1399 1326
3 1399 1393 1326
3 1399 1397 1393
3 1330 1400 1329
3 1329 1400 1399
3 1332 1400 1330
3 1395 1334 1328
3 1402 1401 1335
3 1402 1335 1334
3 1396 1402 1334
3 1395 1396 1334
3 1403 1401 1402
3 1404 1398 1397
3 1406 1405 1404
3 1397 1406 1404
3 1399 1406 1397
3 1407 1399 1400
3 1406 1399 1407
3 1336 1408 1332
3 1408 1400 1332
3 1408 1407 1400
3 1337 1408 1336
3 1401 1340 1335
3 1341 1340 1401
3 1403 1341 1401
3 1409 1341 1403
3 1410 1405 1406
3 1410 1406 1407
3 1410 1407 1411
3 1413 1412 1411
3 1407 1413 1411
3 1408 1413 1407
3 1343 1413 1337
3 1337 1413 1408
3 1415 1344 1414
3 1344 1409 1414
3 1344 1341 1409
3 1416 1415 1414
3 1412 1413 1417
3 1412 1417 1418
3 1346 1417 1343
3 1343 1417 1413
3 1415 1347 1344
3 1348 1347 1415
3 1416 1348 1415
3 1419 1348 1416
3 1418 1417 1350
3 1351 1418 1350
3 1420 1418 1351
3 1350 1417 1346
3 1419 1352 1348
3 1421 1352 1419
3 1424 1423 1422
3 1423 1420 1422
3 1420 1354 1422
3 1420 1351 1354
3 1421 1356 1352
3 1425 1356 1421
3 1424 1422 1358
3 1359 1424 1358
3 1426 1424 1359
3 1358 1422 1354
3 1425 1360 1356
3 1427 1360 1425
3 1430 1429 1428
3 1429 1426 1428
3 1426 1361 1428
3 1426 1359 1361
3 1432 1362 1431
3 1362 1427 1431
3 1362 1360 1427
3 1434 1433 1432
3 1434 1432 1431
3 1436 1435 1433
3 1436 1433 1434
3 1438 1437 1435
3 1438 1435 1436
3 1364 1365 1437
3 1438 1364 1437
3 1439 1364 1438
3 1428 1366 1430
3 1366 1439 1430
3 1366 1364 1439
3 1366 1428 1361
3 1432 1367 1362
3 1367 1432 1368
3 1368 1432 1433
3 1368 1433 1370
3 1370 1433 1435
3 1370 1435 1371
3 1371 1435 1437
3 1371 1437 1365
3 1440 1373 1374
3 1440 1374 1441
3 1374 1442 1441
3 1374 1375 1442
3 1444 1442 1443
3 1442 1376 1443
3 1442 1375 1376
3 1378 1443 1376
3 1446 1445 1440
3 1445 1373 1440
3 1445 1379 1373
3 1446 1440 1441
3 1447 1444 1443
3 1447 1443 1378
3 1380 1447 1378
3 1448 1447 1380
3 1450 1448 1449
3 1448 1381 1449
3 1448 1380 1381
3 1383 1449 1381
3 1445 1385 1379
3 1451 1385 1445
3 1452 1450 1449
3 1454 1452 1453
3 1453 1452 1386
3 1452 1449 1386
3 1449 1383 1386
3 1387 1453 1386
3 1451 1390 1385
3 1455 1390 1451
3 1454 1453 1456
3 1454 1456 1457
3 1391 1458 1387
3 1458 1453 1387
3 1458 1456 1453
3 1392 1458 1391
3 1455 1459 1390
3 1390 1459 1394
3 1396 1394 1459
3 1396 1459 1460
3 1461 1457 1456
3 1463 1462 1461
3 1456 1463 1461
3 1458 1463 1456
3 1398 1463 1392
3 1392 1463 1458
3 1460 1464 1396
3 1396 1464 1402
3 1403 1402 1464
3 1403 1464 1465
3 1462 1463 1466
3 1462 1466 1467
3 1404 1468 1398
3 1468 1463 1398
3 1468 1466 1463
3 1405 1468 1404
3 1470 1409 1469
3 1409 1465 1469
3 1409 1403 1465
3 1471 1470 1469
3 1472 1467 1466
3 1474 1473 1472
3 1466 1474 1472
3 1468 1474 1466
3 1410 1475 1405
3 1475 1468 1405
3 1475 1474 1468
3 1411 1476 1410
3 1410 1476 1475
3 1412 1476 1411
3 1470 1414 1409
3 1416 1414 1470
3 1471 1416 1470
3 1477 1416 1471
3 1478 1473 1474
3 1480 1479 1478
3 1474 1480 1478
3 1475 1480 1474
3 1481 1475 1476
3 1480 1475 1481
3 1418 1481 1412
3 1412 1481 1476
3 1477 1419 1416
3 1482 1419 1477
3 1479 1480 1483
3 1479 1483 1484
3 1485 1480 1481
3 1483 1480 1485
3 1420 1485 1418
3 1418 1485 1481
3 1487 1421 1486
3 1421 1482 1486
3 1421 1419 1482
3 1488 1487 1486
3 1484 1483 1489
3 1484 1489 1490
3 1424 1489 1423
3 1489 1485 1423
3 1489 1483 1485
3 1423 1485 1420
3 1491 1425 1487
3 1487 1425 1421
3 1487 1488 1492
3 1487 1492 1491
3 1495 1494 1493
3 1493 1494 1490
3 1489 1493 1490
3 1496 1493 1489
3 1426 1496 1424
3 1424 1496 1489
3 1497 1427 1491
3 1491 1427 1425
3 1491 1492 1498
3 1499 1491 1498
3 1497 1491 1499
3 1500 1499 1498
3 1503 1502 1501
3 1501 1502 1495
3 1493 1501 1495
3 1504 1501 1493
3 1430 1504 1429
3 1504 1496 1429
3 1504 1493 1496
3 1429 1496 1426
3 1497 1431 1427
3 1431 1497 1434
3 1434 1497 1499
3 1500 1505 1499
3 1505 1434 1499
3 1505 1436 1434
3 1501 1438 1503
3 1438 1505 1503
3 1438 1436 1505
3 1438 1501 1439
3 1439 1501 1504
3 1439 1504 1430
3 1506 1441 1442
3 1444 1506 1442
3 1507 1445 1446
3 1508 1507 1446
3 1508 1446 1441
3 1509 1508 1441
3 1506 1509 1441
3 1511 1509 1510
3 1510 1509 1447
3 1509 1506 1447
3 1506 1444 1447
3 1448 1512 1447
3 1447 1512 1510
3 1450 1512 1448
3 1513 1451 1507
3 1507 1451 1445
3 1507 1508 1514
3 1507 1514 1513
3 1515 1511 1510
3 1517 1516 1515
3 1510 1517 1515
3 1512 1517 1510
3 1452 1518 1450
3 1518 1512 1450
3 1518 1517 1512
3 1454 1518 1452
3 1519 1455 1513
3 1513 1455 1451
3 1513 1514 1520
3 1513 1520 1519
3 1521 1516 1517
3 1523 1522 1521
3 1517 1523 1521
3 1518 1523 1517
3 1457 1523 1454
3 1454 1523 1518
3 1519 1459 1455
3 1525 1524 1460
3 1525 1460 1459
3 1520 1525 1459
3 1519 1520 1459
3 1526 1524 1525
3 1522 1523 1527
3 1522 1527 1528
3 1461 1529 1457
3 1529 1523 1457
3 1529 1527 1523
3 1462 1529 1461
3 1524 1464 1460
3 1531 1530 1465
3 1531 1465 1464
3 1526 1531 1464
3 1524 1526 1464
3 1532 1530 1531
3 1533 1528 1527
3 1535 1534 1533
3 1527 1535 1533
3 1529 1535 1527
3 1467 1535 1462
3 1462 1535 1529
3 1530 1469 1465
3 1537 1536 1471
3 1537 1471 1469
3 1532 1537 1469
3 1530 1532 1469
3 1538 1536 1537
3 1534 1535 1539
3 1534 1539 1540
3 1472 1541 1467
3 1541 1535 1467
3 1541 1539 1535
3 1473 1541 1472
3 1542 1477 1536
3 1536 1477 1471
3 1536 1538 1543
3 1536 1543 1542
3 1544 1540 1539
3 1546 1545 1544
3 1539 1546 1544
3 1541 1546 1539
3 1478 1547 1473
3 1547 1541 1473
3 1547 1546 1541
3 1479 1547 1478
3 1548 1482 1542
3 1542 1482 1477
3 1542 1543 1549
3 1542 1549 1548
3 1550 1545 1546
3 1552 1551 1550
3 1546 1552 1550
3 1547 1552 1546
3 1484 1552 1479
3 1479 1552 1547
3 1548 1486 1482
3 1554 1553 1488
3 1554 1488 1486
3 1549 1554 1486
3 1548 1549 1486
3 1555 1553 1554
3 1551 1552 1556
3 1551 1556 1557
3 1490 1556 1484
3 1484 1556 1552
3 1558 1492 1553
3 1553 1492 1488
3 1553 1555 1559
3 1560 1553 1559
3 1558 1553 1560
3 1562 1561 1560
3 1562 1560 1559
3 1561 1562 1557
3 1561 1557 1556
3 1495 1561 1556
3 1494 1495 1556
3 1494 1556 1490
3 1558 1498 1492
3 1498 1558 1500
3 1558 1563 1500
3 1558 1560 1563
3 1503 1563 1502
3 1563 1561 1502
3 1563 1560 1561
3 1502 1561 1495
3 1563 1505 1500
3 1505 1563 1503
3 1564 1508 1509
3 1511 1564 1509
3 1565 1514 1564
3 1564 1514 1508
3 1515 1566 1511
3 1566 1564 1511
3 1566 1565 1564
3 1516 1566 1515
3 1567 1520 1565
3 1565 1520 1514
3 1568 1565 1566
3 1567 1565 1568
3 1521 1569 1516
3 1569 1566 1516
3 1569 1568 1566
3 1522 1569 1521
3 1567 1525 1520
3 1525 1567 1526
3 1567 1570 1526
3 1567 1568 1570
3 1571 1568 1569
3 1570 1568 1571
3 1528 1571 1522
3 1522 1571 1569
3 1570 1531 1526
3 1531 1570 1532
3 1570 1572 1532
3 1570 1571 1572
3 1533 1573 1528
3 1573 1571 1528
3 1573 1572 1571
3 1534 1573 1533
3 1572 1537 1532
3 1537 1572 1538
3 1572 1574 1538
3 1572 1573 1574
3 1540 1574 1534
3 1534 1574 1573
3 1575 1543 1574
3 1574 1543 1538
3 1544 1576 1540
3 1576 1574 1540
3 1576 1575 1574
3 1545 1576 1544
3 1577 1549 1575
3 1575 1549 1543
3 1578 1575 1576
3 1577 1575 1578
3 1550 1579 1545
3 1579 1576 1545
3 1579 1578 1576
3 1551 1579 1550
3 1577 1554 1549
3 1554 1577 1555
3 1577 1580 1555
3 1577 1578 1580
3 1581 1578 1579
3 1580 1578 1581
3 1557 1581 1551
3 1551 1581 1579
3 1580 1559 1555
3 1559 1580 1562
3 1562 1580 1581
3 1562 1581 1557
