ply
format ascii 1.0
element vertex 1528
property float x
property float y
property float z
element face 3060
property list uchar int vertex_indices
end_header
33.50000 -5.00000 -24.00000
33.00000 -5.00000 -24.50000
33.00000 -5.50000 -24.00000
33.00000 -5.50000 -23.00000
33.50000 -5.00000 -23.00000
33.00000 -5.50000 -22.00000
33.50000 -5.00000 -22.00000
33.00000 -5.00000 -21.50000
33.50000 -4.00000 -25.00000
33.00000 -4.00000 -25.50000
33.00000 -4.50000 -25.00000
33.50000 -4.00000 -24.00000
33.50000 -4.00000 -23.00000
33.50000 -4.00000 -22.00000
33.00000 -4.50000 -21.00000
33.50000 -4.00000 -21.00000
33.00000 -4.50000 -20.00000
33.50000 -4.00000 -20.00000
33.00000 -4.00000 -19.50000
33.50000 -3.00000 -25.00000
33.00000 -3.00000 -25.50000
33.50000 -3.00000 -24.00000
33.50000 -3.00000 -23.00000
33.50000 -3.00000 -22.00000
33.50000 -3.00000 -21.00000
33.50000 -3.00000 -20.00000
33.00000 -3.00000 -19.50000
33.00000 -2.50000 -25.00000
33.00000 -2.50000 -24.00000
33.50000 -2.00000 -23.00000
33.00000 -2.00000 -23.50000
33.50000 -2.00000 -22.00000
33.50000 -2.00000 -21.00000
33.00000 -2.00000 -20.50000
33.00000 -2.50000 -20.00000
33.00000 -1.50000 -23.00000
33.00000 -1.50000 -22.00000
33.00000 -1.50000 -21.00000
32.50000 -6.00000 -21.00000
32.00000 -6.00000 -21.50000
32.00000 -6.50000 -21.00000
32.00000 -6.50000 -20.00000
32.50000 -6.00000 -20.00000
32.00000 -6.00000 -19.50000
32.00000 -5.00000 -24.50000
32.00000 -5.50000 -24.00000
32.00000 -5.50000 -23.00000
32.00000 -5.50000 -22.00000
32.50000 -5.00000 -21.00000
32.50000 -5.00000 -20.00000
32.00000 -5.50000 -19.00000
32.50000 -5.00000 -19.00000
32.00000 -5.00000 -18.50000
32.50000 -4.00000 -26.00000
32.00000 -4.00000 -26.50000
32.00000 -4.50000 -26.00000
32.00000 -4.50000 -25.00000
32.50000 -4.00000 -19.00000
32.00000 -4.50000 -18.00000
32.50000 -4.00000 -18.00000
32.00000 -4.00000 -17.50000
32.50000 -3.00000 -27.00000
32.00000 -3.00000 -27.50000
32.00000 -3.50000 -27.00000
32.50000 -3.00000 -26.00000
32.50000 -3.00000 -19.00000
32.50000 -3.00000 -18.00000
32.00000 -3.00000 -17.50000
32.00000 -2.50000 -27.00000
32.50000 -2.00000 -26.00000
32.00000 -2.00000 -26.50000
32.50000 -2.00000 -25.00000
32.50000 -2.00000 -24.00000
32.50000 -2.00000 -20.00000
32.50000 -2.00000 -19.00000
32.50000 -2.00000 -18.00000
32.00000 -2.00000 -17.50000
32.00000 -1.50000 -26.00000
32.00000 -1.50000 -25.00000
32.50000 -1.00000 -24.00000
32.00000 -1.00000 -24.50000
32.50000 -1.00000 -23.00000
32.50000 -1.00000 -22.00000
32.00000 -1.00000 -21.50000
32.00000 -1.50000 -21.00000
32.00000 -1.50000 -20.00000
32.00000 -1.50000 -19.00000
32.00000 -1.50000 -18.00000
32.00000 -0.50000 -24.00000
32.00000 -0.50000 -23.00000
32.00000 -0.50000 -22.00000
31.50000 -9.00000 -16.00000
31.00000 -9.00000 -16.50000
31.00000 -9.50000 -16.00000
31.00000 -9.50000 -15.00000
31.50000 -9.00000 -15.00000
31.00000 -9.50000 -14.00000
31.50000 -9.00000 -14.00000
31.00000 -9.00000 -13.50000
31.50000 -8.00000 -17.00000
31.00000 -8.00000 -17.50000
31.00000 -8.50000 -17.00000
31.50000 -8.00000 -16.00000
31.50000 -8.00000 -15.00000
31.50000 -8.00000 -14.00000
31.00000 -8.00000 -13.50000
31.50000 -7.00000 -18.00000
31.00000 -7.00000 -18.50000
31.00000 -7.50000 -18.00000
31.50000 -7.00000 -17.00000
31.50000 -7.00000 -16.00000
31.50000 -7.00000 -15.00000
31.50000 -7.00000 -14.00000
31.00000 -7.00000 -13.50000
31.50000 -6.00000 -23.00000
31.00000 -6.00000 -23.50000
31.00000 -6.50000 -23.00000
31.00000 -6.50000 -22.00000
31.50000 -6.00000 -22.00000
31.00000 -6.00000 -21.50000
31.50000 -6.00000 -21.00000
31.00000 -6.00000 -20.50000
31.00000 -6.50000 -20.00000
31.00000 -6.50000 -19.00000
31.50000 -6.00000 -19.00000
31.50000 -6.00000 -18.00000
31.50000 -6.00000 -17.00000
31.00000 -6.00000 -16.50000
31.00000 -6.50000 -16.00000
31.00000 -6.50000 -15.00000
31.00000 -6.50000 -14.00000
31.50000 -5.00000 -25.00000
31.00000 -5.00000 -25.50000
31.00000 -5.50000 -25.00000
31.00000 -5.50000 -24.00000
31.00000 -5.50000 -21.00000
31.50000 -5.00000 -18.00000
31.50000 -5.00000 -17.00000
31.00000 -5.00000 -16.50000
31.50000 -4.00000 -28.00000
31.00000 -4.00000 -28.50000
31.00000 -4.50000 -28.00000
31.00000 -4.50000 -27.00000
31.50000 -4.00000 -27.00000
31.00000 -4.50000 -26.00000
31.50000 -4.00000 -17.00000
31.00000 -4.00000 -16.50000
31.50000 -3.00000 -28.00000
31.00000 -3.00000 -28.50000
31.50000 -3.00000 -17.00000
31.00000 -3.50000 -16.00000
31.50000 -3.00000 -16.00000
31.00000 -3.00000 -15.50000
31.00000 -2.50000 -28.00000
31.50000 -2.00000 -27.00000
31.00000 -2.00000 -27.50000
31.50000 -2.00000 -17.00000
31.00000 -2.00000 -16.50000
31.00000 -2.50000 -16.00000
31.00000 -1.50000 -27.00000
31.50000 -1.00000 -26.00000
31.00000 -1.00000 -26.50000
31.50000 -1.00000 -25.00000
31.50000 -1.00000 -21.00000
31.50000 -1.00000 -20.00000
31.50000 -1.00000 -19.00000
31.00000 -1.00000 -18.50000
31.00000 -1.50000 -18.00000
31.00000 -1.50000 -17.00000
31.00000 -0.50000 -26.00000
31.00000 -0.50000 -25.00000
31.00000 -0.50000 -24.00000
31.00000 -0.50000 -23.00000
31.00000 -0.50000 -22.00000
31.00000 -0.50000 -21.00000
31.00000 -0.50000 -20.00000
31.00000 -0.50000 -19.00000
30.50000 -10.00000 -15.00000
30.00000 -10.00000 -15.50000
30.00000 -10.50000 -15.00000
30.00000 -10.50000 -14.00000
30.50000 -10.00000 -14.00000
30.00000 -10.00000 -13.50000
30.00000 -9.00000 -16.50000
30.00000 -9.50000 -16.00000
30.00000 -9.50000 -13.00000
30.50000 -9.00000 -13.00000
30.00000 -9.00000 -12.50000
30.50000 -8.00000 -17.00000
30.00000 -8.00000 -16.50000
30.50000 -8.00000 -13.00000
30.00000 -8.00000 -12.50000
30.50000 -7.00000 -18.00000
30.00000 -7.00000 -17.50000
30.00000 -7.50000 -17.00000
30.50000 -7.00000 -13.00000
30.00000 -7.50000 -12.00000
30.50000 -7.00000 -12.00000
30.00000 -7.00000 -11.50000
30.50000 -6.00000 -23.00000
30.00000 -6.00000 -22.50000
30.00000 -6.50000 -22.00000
30.00000 -6.50000 -21.00000
30.50000 -6.00000 -21.00000
30.00000 -6.50000 -20.00000
30.00000 -6.50000 -19.00000
30.00000 -6.50000 -18.00000
30.50000 -6.00000 -16.00000
30.50000 -6.00000 -15.00000
30.50000 -6.00000 -14.00000
30.00000 -6.00000 -13.50000
30.00000 -6.50000 -13.00000
30.00000 -6.50000 -12.00000
30.00000 -5.00000 -25.50000
30.00000 -5.50000 -25.00000
30.00000 -5.50000 -24.00000
30.00000 -5.50000 -23.00000
30.50000 -5.00000 -16.00000
30.00000 -5.00000 -15.50000
30.00000 -5.50000 -15.00000
30.00000 -5.50000 -14.00000
30.00000 -4.00000 -28.50000
30.00000 -4.50000 -28.00000
30.00000 -4.50000 -27.00000
30.00000 -4.50000 -26.00000
30.50000 -4.00000 -16.00000
30.00000 -4.00000 -15.50000
30.00000 -3.00000 -28.50000
30.00000 -3.00000 -15.50000
30.50000 -2.00000 -28.00000
30.00000 -2.00000 -28.50000
30.50000 -2.00000 -16.00000
30.00000 -2.00000 -15.50000
30.00000 -1.50000 -28.00000
30.50000 -1.00000 -27.00000
30.00000 -1.00000 -27.50000
30.50000 -1.00000 -18.00000
30.50000 -1.00000 -17.00000
30.00000 -1.00000 -16.50000
30.00000 -1.50000 -16.00000
30.00000 -0.50000 -27.00000
30.00000 -0.50000 -26.00000
30.50000 0.00000 -25.00000
30.00000 0.00000 -25.50000
30.50000 0.00000 -24.00000
30.00000 0.00000 -23.50000
30.00000 -0.50000 -23.00000
30.00000 -0.50000 -22.00000
30.00000 -0.50000 -21.00000
30.00000 -0.50000 -20.00000
30.00000 -0.50000 -19.00000
30.00000 -0.50000 -18.00000
30.00000 -0.50000 -17.00000
30.00000 0.50000 -25.00000
30.00000 0.50000 -24.00000
29.50000 -12.00000 -13.00000
29.00000 -12.00000 -13.50000
29.00000 -12.50000 -13.00000
29.00000 -12.00000 -12.50000
29.50000 -11.00000 -14.00000
29.00000 -11.00000 -14.50000
29.00000 -11.50000 -14.00000
29.50000 -11.00000 -13.00000
29.00000 -11.00000 -12.50000
29.50000 -10.00000 -15.00000
29.00000 -10.00000 -14.50000
29.50000 -10.00000 -13.00000
29.00000 -10.00000 -12.50000
29.50000 -9.00000 -16.00000
29.00000 -9.00000 -15.50000
29.00000 -9.50000 -15.00000
29.00000 -9.50000 -12.00000
29.50000 -9.00000 -12.00000
29.00000 -9.00000 -11.50000
29.00000 -8.00000 -16.50000
29.00000 -8.50000 -16.00000
29.50000 -8.00000 -12.00000
29.00000 -8.00000 -11.50000
29.50000 -7.00000 -18.00000
29.00000 -7.00000 -18.50000
29.00000 -7.50000 -18.00000
29.00000 -7.50000 -17.00000
29.00000 -7.00000 -11.50000
29.00000 -6.00000 -22.50000
29.00000 -6.50000 -22.00000
29.00000 -6.50000 -21.00000
29.00000 -6.50000 -20.00000
29.00000 -6.50000 -19.00000
29.50000 -6.00000 -13.00000
29.00000 -6.00000 -12.50000
29.00000 -6.50000 -12.00000
29.00000 -5.00000 -25.50000
29.00000 -5.50000 -25.00000
29.00000 -5.50000 -24.00000
29.00000 -5.50000 -23.00000
29.50000 -5.00000 -15.00000
29.00000 -5.00000 -14.50000
29.00000 -5.50000 -14.00000
29.00000 -5.50000 -13.00000
29.00000 -4.00000 -28.50000
29.00000 -4.50000 -28.00000
29.00000 -4.50000 -27.00000
29.00000 -4.50000 -26.00000
29.50000 -4.00000 -15.00000
29.00000 -4.00000 -14.50000
29.50000 -3.00000 -29.00000
29.00000 -3.00000 -29.50000
29.00000 -3.50000 -29.00000
29.50000 -3.00000 -15.00000
29.00000 -3.00000 -14.50000
29.00000 -2.50000 -29.00000
29.00000 -2.00000 -28.50000
29.50000 -2.00000 -15.00000
29.00000 -2.00000 -14.50000
29.50000 -1.00000 -28.00000
29.00000 -1.00000 -28.50000
29.50000 -1.00000 -16.00000
29.00000 -1.00000 -15.50000
29.00000 -1.50000 -15.00000
29.00000 -0.50000 -28.00000
29.50000 0.00000 -27.00000
29.00000 0.00000 -27.50000
29.50000 0.00000 -26.00000
29.50000 0.00000 -23.00000
29.50000 0.00000 -22.00000
29.50000 0.00000 -21.00000
29.50000 0.00000 -20.00000
29.50000 0.00000 -19.00000
29.00000 0.00000 -18.50000
29.00000 -0.50000 -18.00000
29.00000 -0.50000 -17.00000
29.00000 -0.50000 -16.00000
29.00000 0.50000 -27.00000
29.00000 0.50000 -26.00000
29.00000 0.50000 -25.00000
29.00000 0.50000 -24.00000
29.00000 0.50000 -23.00000
29.00000 0.50000 -22.00000
29.00000 0.50000 -21.00000
29.00000 0.50000 -20.00000
29.00000 0.50000 -19.00000
28.50000 -12.00000 -13.00000
28.00000 -12.50000 -12.00000
28.00000 -12.00000 -12.50000
28.50000 -12.00000 -12.00000
28.00000 -12.00000 -11.50000
28.50000 -11.00000 -14.00000
28.00000 -11.00000 -13.50000
28.00000 -11.50000 -13.00000
28.50000 -11.50000 -12.50000
28.50000 -11.00000 -12.00000
28.00000 -11.00000 -11.50000
28.00000 -10.00000 -14.50000
28.00000 -10.50000 -14.00000
28.50000 -10.00000 -12.00000
28.00000 -10.00000 -11.50000
28.00000 -9.00000 -15.50000
28.00000 -9.50000 -15.00000
28.00000 -9.00000 -11.50000
28.00000 -8.00000 -16.50000
28.00000 -8.50000 -16.00000
28.00000 -8.00000 -11.50000
28.50000 -7.00000 -19.00000
28.00000 -7.00000 -19.50000
28.00000 -7.50000 -19.00000
28.00000 -7.50000 -18.00000
28.00000 -7.50000 -17.00000
28.00000 -7.00000 -11.50000
28.50000 -6.00000 -22.00000
28.00000 -6.00000 -21.50000
28.00000 -6.50000 -21.00000
28.00000 -6.50000 -20.00000
28.50000 -6.00000 -12.00000
28.00000 -6.00000 -11.50000
28.50000 -5.00000 -26.00000
28.00000 -5.00000 -26.50000
28.00000 -5.50000 -26.00000
28.00000 -5.50000 -25.00000
28.00000 -5.50000 -24.00000
28.00000 -5.50000 -23.00000
28.00000 -5.50000 -22.00000
28.50000 -5.00000 -14.00000
28.00000 -5.00000 -13.50000
28.00000 -5.50000 -13.00000
28.00000 -5.50000 -12.00000
28.50000 -4.00000 -29.00000
28.00000 -4.00000 -29.50000
28.00000 -4.50000 -29.00000
28.00000 -4.50000 -28.00000
28.00000 -4.50000 -27.00000
28.50000 -4.00000 -14.00000
28.00000 -4.00000 -13.50000
28.00000 -3.00000 -29.50000
28.00000 -3.50000 -14.00000
28.00000 -3.00000 -14.50000
28.50000 -2.00000 -29.00000
28.00000 -2.00000 -29.50000
28.00000 -2.00000 -14.50000
28.00000 -1.50000 -29.00000
28.00000 -1.00000 -28.50000
28.00000 -1.50000 -15.00000
28.00000 -1.00000 -15.50000
28.00000 -0.50000 -28.00000
28.00000 0.00000 -27.50000
28.50000 0.00000 -18.00000
28.00000 0.00000 -17.50000
28.00000 -0.50000 -17.00000
28.00000 -0.50000 -16.00000
28.00000 0.50000 -27.00000
28.00000 0.50000 -26.00000
28.00000 0.50000 -25.00000
28.00000 0.50000 -24.00000
28.00000 0.50000 -23.00000
28.00000 0.50000 -22.00000
28.00000 0.50000 -21.00000
28.00000 0.50000 -20.00000
28.00000 0.50000 -19.00000
28.00000 0.50000 -18.00000
27.00000 -12.00000 -12.50000
27.00000 -12.50000 -12.00000
27.00000 -12.50000 -11.00000
27.50000 -12.00000 -11.00000
27.00000 -12.00000 -10.50000
27.00000 -11.00000 -13.50000
27.00000 -11.50000 -13.00000
27.50000 -11.00000 -11.00000
27.00000 -11.00000 -10.50000
27.00000 -10.00000 -14.50000
27.00000 -10.50000 -14.00000
27.50000 -10.00000 -11.00000
27.00000 -10.00000 -10.50000
27.00000 -9.00000 -15.50000
27.00000 -9.50000 -15.00000
27.50000 -9.00000 -11.00000
27.00000 -9.00000 -10.50000
27.50000 -8.00000 -18.00000
27.00000 -8.00000 -18.50000
27.00000 -8.50000 -18.00000
27.00000 -8.50000 -17.00000
27.50000 -8.00000 -17.00000
27.00000 -8.50000 -16.00000
27.50000 -8.00000 -11.00000
27.00000 -8.00000 -10.50000
27.50000 -7.00000 -20.00000
27.00000 -7.00000 -20.50000
27.00000 -7.50000 -20.00000
27.00000 -7.50000 -19.00000
27.50000 -7.00000 -11.00000
27.00000 -7.00000 -10.50000
27.00000 -6.00000 -21.50000
27.00000 -6.50000 -21.00000
27.00000 -6.50000 -11.00000
27.00000 -6.00000 -11.50000
27.00000 -5.00000 -26.50000
27.00000 -5.50000 -26.00000
27.00000 -5.50000 -25.00000
27.00000 -5.50000 -24.00000
27.00000 -5.50000 -23.00000
27.00000 -5.50000 -22.00000
27.50000 -5.00000 -13.00000
27.00000 -5.00000 -12.50000
27.00000 -5.50000 -12.00000
27.50000 -4.00000 -29.00000
27.50000 -4.00000 -28.00000
27.00000 -4.00000 -27.50000
27.00000 -4.50000 -27.00000
27.00000 -4.50000 -13.00000
27.00000 -4.00000 -13.50000
27.00000 -3.00000 -29.50000
27.00000 -3.50000 -29.00000
27.00000 -3.50000 -28.00000
27.50000 -3.00000 -14.00000
27.00000 -3.00000 -13.50000
27.00000 -2.00000 -29.50000
27.00000 -2.50000 -14.00000
27.00000 -2.00000 -14.50000
27.50000 -1.00000 -29.00000
27.00000 -1.00000 -29.50000
27.00000 -1.50000 -15.00000
27.00000 -1.00000 -15.50000
27.00000 -0.50000 -29.00000
27.50000 0.00000 -28.00000
27.00000 0.00000 -28.50000
27.50000 0.00000 -17.00000
27.00000 0.00000 -16.50000
27.00000 -0.50000 -16.00000
27.00000 0.50000 -28.00000
27.00000 0.50000 -27.00000
27.00000 0.50000 -26.00000
27.00000 0.50000 -25.00000
27.00000 0.50000 -24.00000
27.00000 0.50000 -23.00000
27.00000 0.50000 -22.00000
27.00000 0.50000 -21.00000
27.00000 0.50000 -20.00000
27.00000 0.50000 -19.00000
27.00000 0.50000 -18.00000
27.00000 0.50000 -17.00000
26.50000 -13.00000 -11.00000
26.00000 -13.00000 -11.50000
26.00000 -13.50000 -11.00000
26.00000 -13.00000 -10.50000
26.00000 -12.00000 -12.50000
26.00000 -12.50000 -12.00000
26.00000 -12.00000 -10.50000
26.00000 -11.00000 -13.50000
26.00000 -11.50000 -13.00000
26.00000 -11.00000 -10.50000
26.00000 -10.00000 -14.50000
26.00000 -10.50000 -14.00000
26.00000 -10.00000 -10.50000
26.50000 -9.00000 -16.00000
26.00000 -9.00000 -16.50000
26.00000 -9.50000 -16.00000
26.00000 -9.50000 -15.00000
26.00000 -9.00000 -10.50000
26.50000 -8.00000 -19.00000
26.00000 -8.00000 -19.50000
26.00000 -8.50000 -19.00000
26.00000 -8.50000 -18.00000
26.00000 -8.50000 -17.00000
26.00000 -8.00000 -10.50000
26.00000 -7.00000 -20.50000
26.00000 -7.50000 -20.00000
26.00000 -7.00000 -10.50000
26.50000 -6.00000 -22.00000
26.00000 -6.00000 -22.50000
26.00000 -6.50000 -22.00000
26.00000 -6.50000 -21.00000
26.00000 -6.50000 -11.00000
26.00000 -6.00000 -11.50000
26.00000 -5.00000 -26.50000
26.00000 -5.50000 -26.00000
26.00000 -5.50000 -25.00000
26.00000 -5.50000 -24.00000
26.00000 -5.50000 -23.00000
26.50000 -5.00000 -12.00000
26.00000 -5.00000 -11.50000
26.00000 -4.00000 -27.50000
26.00000 -4.50000 -27.00000
26.50000 -4.00000 -13.00000
26.00000 -4.00000 -12.50000
26.00000 -4.50000 -12.00000
26.50000 -3.00000 -30.00000
26.00000 -3.00000 -30.50000
26.00000 -3.50000 -30.00000
26.00000 -3.50000 -29.00000
26.00000 -3.50000 -28.00000
26.00000 -3.50000 -13.00000
26.00000 -3.00000 -13.50000
26.50000 -2.00000 -30.00000
26.00000 -2.00000 -30.50000
26.50000 -2.00000 -14.00000
26.00000 -2.00000 -13.50000
26.00000 -1.50000 -30.00000
26.00000 -1.00000 -29.50000
26.50000 -1.00000 -15.00000
26.00000 -1.00000 -14.50000
26.00000 -1.50000 -14.00000
26.00000 -0.50000 -29.00000
26.00000 0.00000 -28.50000
26.00000 -0.50000 -16.00000
26.00000 0.00000 -16.50000
26.00000 -0.50000 -15.00000
26.00000 0.50000 -28.00000
26.00000 0.50000 -27.00000
26.00000 0.50000 -26.00000
26.50000 1.00000 -25.00000
26.00000 1.00000 -25.50000
26.50000 1.00000 -24.00000
26.50000 1.00000 -23.00000
26.50000 1.00000 -22.00000
26.50000 1.00000 -21.00000
26.50000 1.00000 -20.00000
26.50000 1.00000 -19.00000
26.00000 1.00000 -18.50000
26.00000 0.50000 -18.00000
26.00000 0.50000 -17.00000
26.00000 1.50000 -25.00000
26.00000 1.50000 -24.00000
26.00000 1.50000 -23.00000
26.00000 1.50000 -22.00000
26.00000 1.50000 -21.00000
26.00000 1.50000 -20.00000
26.00000 1.50000 -19.00000
25.00000 -13.00000 -11.50000
25.00000 -13.50000 -11.00000
25.00000 -13.00000 -10.50000
25.00000 -12.00000 -12.50000
25.00000 -12.50000 -12.00000
25.00000 -12.00000 -10.50000
25.00000 -11.00000 -13.50000
25.00000 -11.50000 -13.00000
25.00000 -11.00000 -10.50000
25.00000 -10.00000 -14.50000
25.00000 -10.50000 -14.00000
25.00000 -10.00000 -10.50000
25.50000 -9.00000 -17.00000
25.00000 -9.00000 -17.50000
25.00000 -9.50000 -17.00000
25.00000 -9.50000 -16.00000
25.00000 -9.50000 -15.00000
25.00000 -9.50000 -10.00000
25.50000 -9.00000 -10.00000
25.00000 -9.00000 -9.50000
25.00000 -8.00000 -19.50000
25.00000 -8.50000 -19.00000
25.00000 -8.50000 -18.00000
25.50000 -8.00000 -10.00000
25.00000 -8.00000 -9.50000
25.00000 -7.00000 -20.50000
25.00000 -7.50000 -20.00000
25.00000 -7.50000 -10.00000
25.00000 -7.00000 -10.50000
25.00000 -6.00000 -22.50000
25.00000 -6.50000 -22.00000
25.00000 -6.50000 -21.00000
25.50000 -6.00000 -11.00000
25.00000 -6.00000 -10.50000
25.50000 -5.00000 -26.00000
25.00000 -5.00000 -25.50000
25.00000 -5.50000 -25.00000
25.00000 -5.50000 -24.00000
25.00000 -5.50000 -23.00000
25.00000 -5.50000 -11.00000
25.00000 -5.00000 -11.50000
25.00000 -4.00000 -27.50000
25.00000 -4.50000 -27.00000
25.00000 -4.50000 -26.00000
25.50000 -4.00000 -12.00000
25.00000 -4.00000 -11.50000
25.00000 -3.00000 -30.50000
25.00000 -3.50000 -30.00000
25.00000 -3.50000 -29.00000
25.00000 -3.50000 -28.00000
25.50000 -3.00000 -13.00000
25.00000 -3.00000 -12.50000
25.00000 -3.50000 -12.00000
25.00000 -2.00000 -30.50000
25.00000 -2.50000 -13.00000
25.00000 -2.00000 -13.50000
25.00000 -1.50000 -30.00000
25.00000 -1.00000 -29.50000
25.50000 -1.00000 -14.00000
25.00000 -1.00000 -13.50000
25.00000 -0.50000 -29.00000
25.00000 0.00000 -28.50000
25.50000 0.00000 -16.00000
25.00000 0.00000 -15.50000
25.00000 -0.50000 -15.00000
25.00000 -0.50000 -14.00000
25.00000 0.50000 -28.00000
25.00000 0.50000 -27.00000
25.00000 0.50000 -26.00000
25.00000 1.00000 -25.50000
25.50000 1.00000 -18.00000
25.00000 1.00000 -17.50000
25.00000 0.50000 -17.00000
25.00000 0.50000 -16.00000
25.00000 1.50000 -25.00000
25.00000 1.50000 -24.00000
25.00000 1.50000 -23.00000
25.00000 1.50000 -22.00000
25.00000 1.50000 -21.00000
25.00000 1.50000 -20.00000
25.00000 1.50000 -19.00000
25.00000 1.50000 -18.00000
24.50000 -13.00000 -11.00000
24.00000 -12.00000 -12.50000
24.00000 -12.50000 -12.00000
24.00000 -12.50000 -11.00000
24.00000 -12.00000 -10.50000
24.00000 -11.00000 -13.50000
24.00000 -11.50000 -13.00000
24.00000 -11.00000 -10.50000
24.50000 -10.00000 -15.00000
24.00000 -10.00000 -15.50000
24.00000 -10.50000 -15.00000
24.00000 -10.50000 -14.00000
24.00000 -10.50000 -10.00000
24.50000 -10.00000 -10.00000
24.00000 -10.00000 -9.50000
24.50000 -9.00000 -18.00000
24.00000 -9.00000 -18.50000
24.00000 -9.50000 -18.00000
24.00000 -9.50000 -17.00000
24.00000 -9.50000 -16.00000
24.00000 -9.00000 -9.50000
24.00000 -8.00000 -19.50000
24.00000 -8.50000 -19.00000
24.00000 -8.00000 -9.50000
24.00000 -7.00000 -20.50000
24.00000 -7.50000 -20.00000
24.50000 -7.00000 -10.00000
24.00000 -7.00000 -9.50000
24.50000 -6.00000 -22.00000
24.00000 -6.00000 -21.50000
24.00000 -6.50000 -21.00000
24.00000 -6.50000 -10.00000
24.00000 -6.00000 -10.50000
24.50000 -5.00000 -25.00000
24.00000 -5.00000 -24.50000
24.00000 -5.50000 -24.00000
24.00000 -5.50000 -23.00000
24.00000 -5.50000 -22.00000
24.50000 -5.00000 -11.00000
24.00000 -5.00000 -10.50000
24.50000 -4.00000 -28.00000
24.00000 -4.00000 -28.50000
24.00000 -4.50000 -28.00000
24.00000 -4.50000 -27.00000
24.00000 -4.50000 -26.00000
24.00000 -4.50000 -25.00000
24.00000 -4.50000 -11.00000
24.00000 -4.00000 -11.50000
24.00000 -3.00000 -30.50000
24.00000 -3.50000 -30.00000
24.00000 -3.50000 -29.00000
24.00000 -3.50000 -12.00000
24.00000 -3.00000 -12.50000
24.00000 -2.00000 -30.50000
24.50000 -2.00000 -13.00000
24.00000 -2.00000 -12.50000
24.00000 -1.50000 -30.00000
24.00000 -1.00000 -29.50000
24.00000 -1.50000 -13.00000
24.00000 -1.00000 -13.50000
24.00000 -0.50000 -29.00000
24.50000 0.00000 -28.00000
24.00000 -0.50000 -28.00000
24.00000 0.00000 -27.50000
24.50000 0.00000 -15.00000
24.00000 0.00000 -14.50000
24.00000 -0.50000 -14.00000
24.00000 0.50000 -27.00000
24.00000 0.50000 -26.00000
24.00000 1.00000 -25.50000
24.50000 1.00000 -17.00000
24.00000 1.00000 -16.50000
24.00000 0.50000 -16.00000
24.00000 0.50000 -15.00000
24.00000 1.50000 -25.00000
24.00000 1.50000 -24.00000
24.00000 1.50000 -23.00000
24.00000 1.50000 -22.00000
24.00000 1.50000 -21.00000
24.00000 1.50000 -20.00000
24.00000 1.50000 -19.00000
24.00000 1.50000 -18.00000
24.00000 1.50000 -17.00000
23.50000 -12.00000 -12.00000
23.00000 -12.00000 -11.50000
23.00000 -12.50000 -11.00000
23.00000 -12.00000 -10.50000
23.00000 -11.00000 -13.50000
23.00000 -11.50000 -13.00000
23.00000 -11.50000 -12.00000
23.00000 -11.00000 -10.50000
23.00000 -10.00000 -15.50000
23.00000 -10.50000 -15.00000
23.00000 -10.50000 -14.00000
23.00000 -10.50000 -10.00000
23.00000 -10.00000 -9.50000
23.00000 -9.00000 -18.50000
23.00000 -9.50000 -18.00000
23.00000 -9.50000 -17.00000
23.00000 -9.50000 -16.00000
23.00000 -9.00000 -9.50000
23.00000 -8.00000 -19.50000
23.00000 -8.50000 -19.00000
23.00000 -8.00000 -9.50000
23.00000 -7.00000 -20.50000
23.00000 -7.50000 -20.00000
23.00000 -7.00000 -9.50000
23.00000 -6.00000 -21.50000
23.00000 -6.50000 -21.00000
23.50000 -6.00000 -10.00000
23.00000 -6.00000 -9.50000
23.50000 -5.00000 -24.00000
23.00000 -5.00000 -23.50000
23.00000 -5.50000 -23.00000
23.00000 -5.50000 -22.00000
23.00000 -5.50000 -10.00000
23.00000 -5.00000 -10.50000
23.50000 -4.00000 -30.00000
23.00000 -4.00000 -30.50000
23.00000 -4.50000 -30.00000
23.00000 -4.50000 -29.00000
23.50000 -4.00000 -29.00000
23.00000 -4.50000 -28.00000
23.00000 -4.50000 -27.00000
23.00000 -4.50000 -26.00000
23.00000 -4.50000 -25.00000
23.00000 -4.50000 -24.00000
23.00000 -4.50000 -11.00000
23.00000 -4.00000 -11.50000
23.00000 -3.00000 -30.50000
23.00000 -3.50000 -12.00000
23.00000 -3.00000 -12.50000
23.00000 -2.00000 -30.50000
23.00000 -2.00000 -12.50000
23.00000 -1.50000 -30.00000
23.00000 -1.00000 -29.50000
23.00000 -1.50000 -13.00000
23.00000 -1.00000 -13.50000
23.00000 -0.50000 -29.00000
23.00000 -0.50000 -28.00000
23.00000 0.00000 -27.50000
23.00000 -0.50000 -14.00000
23.00000 0.00000 -14.50000
23.00000 0.50000 -27.00000
23.00000 0.50000 -26.00000
23.00000 1.00000 -25.50000
23.00000 0.50000 -16.00000
23.00000 1.00000 -16.50000
23.00000 0.50000 -15.00000
23.00000 1.50000 -25.00000
23.00000 1.50000 -24.00000
23.00000 1.50000 -23.00000
23.00000 1.50000 -22.00000
23.00000 1.50000 -21.00000
23.00000 1.50000 -20.00000
23.00000 1.50000 -19.00000
23.00000 1.50000 -18.00000
23.00000 1.50000 -17.00000
22.50000 -12.00000 -11.00000
22.00000 -11.00000 -13.50000
22.00000 -11.50000 -13.00000
22.00000 -11.50000 -12.00000
22.00000 -11.50000 -11.00000
22.00000 -11.00000 -10.50000
22.00000 -10.00000 -15.50000
22.00000 -10.50000 -15.00000
22.00000 -10.50000 -14.00000
22.00000 -10.50000 -10.00000
22.00000 -10.00000 -9.50000
22.00000 -9.00000 -18.50000
22.00000 -9.50000 -18.00000
22.00000 -9.50000 -17.00000
22.00000 -9.50000 -16.00000
22.00000 -9.00000 -9.50000
22.00000 -8.00000 -19.50000
22.00000 -8.50000 -19.00000
22.00000 -8.00000 -9.50000
22.50000 -7.00000 -20.00000
22.00000 -7.00000 -19.50000
22.00000 -7.00000 -9.50000
22.50000 -6.00000 -21.00000
22.00000 -6.00000 -20.50000
22.00000 -6.50000 -20.00000
22.00000 -6.00000 -9.50000
22.50000 -5.00000 -23.00000
22.00000 -5.00000 -22.50000
22.00000 -5.50000 -22.00000
22.00000 -5.50000 -21.00000
22.00000 -5.50000 -10.00000
22.00000 -5.00000 -10.50000
22.00000 -4.00000 -30.50000
22.00000 -4.50000 -30.00000
22.00000 -4.50000 -29.00000
22.00000 -4.50000 -28.00000
22.00000 -4.50000 -27.00000
22.00000 -4.50000 -26.00000
22.00000 -4.50000 -25.00000
22.00000 -4.50000 -24.00000
22.00000 -4.50000 -23.00000
22.00000 -4.50000 -11.00000
22.00000 -4.00000 -11.50000
22.00000 -3.00000 -30.50000
22.00000 -3.50000 -12.00000
22.00000 -3.00000 -12.50000
22.00000 -2.50000 -30.00000
22.50000 -2.00000 -30.00000
22.00000 -2.00000 -29.50000
22.00000 -2.00000 -12.50000
22.50000 -1.00000 -29.00000
22.00000 -1.50000 -29.00000
22.00000 -1.00000 -28.50000
22.00000 -1.50000 -13.00000
22.00000 -1.00000 -13.50000
22.00000 -0.50000 -28.00000
22.50000 0.00000 -27.00000
22.00000 -0.50000 -27.00000
22.00000 0.00000 -26.50000
22.50000 0.00000 -15.00000
22.00000 -0.50000 -15.00000
22.00000 0.00000 -15.50000
22.00000 -0.50000 -14.00000
22.00000 0.50000 -26.00000
22.50000 1.00000 -25.00000
22.00000 0.50000 -25.00000
22.00000 1.00000 -24.50000
22.00000 0.50000 -16.00000
22.00000 1.00000 -16.50000
22.00000 1.50000 -24.00000
22.00000 1.50000 -23.00000
22.00000 1.50000 -22.00000
22.00000 1.50000 -21.00000
22.00000 1.50000 -20.00000
22.00000 1.50000 -19.00000
22.00000 1.50000 -18.00000
22.00000 1.50000 -17.00000
21.00000 -11.00000 -13.50000
21.00000 -11.50000 -13.00000
21.00000 -11.50000 -12.00000
21.50000 -11.00000 -11.00000
21.00000 -11.00000 -11.50000
21.00000 -10.00000 -15.50000
21.00000 -10.50000 -15.00000
21.00000 -10.50000 -14.00000
21.00000 -10.50000 -11.00000
21.50000 -10.00000 -10.00000
21.00000 -10.00000 -10.50000
21.50000 -9.00000 -18.00000
21.00000 -9.00000 -17.50000
21.00000 -9.50000 -17.00000
21.00000 -9.50000 -16.00000
21.00000 -9.50000 -10.00000
21.00000 -9.00000 -9.50000
21.50000 -8.00000 -19.00000
21.00000 -8.00000 -18.50000
21.00000 -8.50000 -18.00000
21.00000 -8.00000 -9.50000
21.00000 -7.00000 -19.50000
21.00000 -7.50000 -19.00000
21.00000 -7.00000 -9.50000
21.00000 -6.00000 -20.50000
21.00000 -6.50000 -20.00000
21.00000 -6.00000 -9.50000
21.50000 -5.00000 -22.00000
21.00000 -5.00000 -21.50000
21.00000 -5.50000 -21.00000
21.00000 -5.50000 -10.00000
21.00000 -5.00000 -10.50000
21.50000 -4.00000 -30.00000
21.00000 -4.00000 -29.50000
21.00000 -4.50000 -29.00000
21.00000 -4.50000 -28.00000
21.00000 -4.50000 -27.00000
21.00000 -4.50000 -26.00000
21.00000 -4.50000 -25.00000
21.00000 -4.50000 -24.00000
21.00000 -4.50000 -23.00000
21.00000 -4.50000 -22.00000
21.50000 -4.00000 -11.00000
21.00000 -4.00000 -10.50000
21.50000 -3.00000 -30.00000
21.00000 -3.00000 -29.50000
21.50000 -3.00000 -12.00000
21.00000 -3.00000 -11.50000
21.00000 -3.50000 -11.00000
21.50000 -2.00000 -29.00000
21.00000 -2.50000 -29.00000
21.00000 -2.00000 -28.50000
21.00000 -2.50000 -12.00000
21.00000 -2.00000 -12.50000
21.50000 -1.00000 -28.00000
21.00000 -1.50000 -28.00000
21.00000 -1.00000 -27.50000
21.00000 -1.50000 -13.00000
21.00000 -1.00000 -13.50000
21.00000 -0.50000 -27.00000
21.00000 0.00000 -26.50000
21.00000 -0.50000 -15.00000
21.00000 0.00000 -15.50000
21.00000 -0.50000 -14.00000
21.00000 0.50000 -26.00000
21.00000 0.50000 -25.00000
21.00000 1.00000 -24.50000
21.00000 0.50000 -16.00000
21.00000 1.00000 -16.50000
21.00000 1.50000 -24.00000
21.00000 1.50000 -23.00000
21.00000 1.50000 -22.00000
21.00000 1.50000 -21.00000
21.00000 1.50000 -20.00000
21.50000 2.00000 -19.00000
21.00000 2.00000 -19.50000
21.00000 2.00000 -18.50000
21.00000 1.50000 -18.00000
21.00000 1.50000 -17.00000
21.00000 2.50000 -19.00000
20.00000 -11.00000 -13.50000
20.00000 -11.50000 -13.00000
20.00000 -11.50000 -12.00000
20.00000 -11.00000 -11.50000
20.00000 -10.00000 -15.50000
20.00000 -10.50000 -15.00000
20.00000 -10.50000 -14.00000
20.50000 -10.00000 -11.00000
20.00000 -10.00000 -11.50000
20.00000 -9.00000 -17.50000
20.00000 -9.50000 -17.00000
20.00000 -9.50000 -16.00000
20.00000 -9.50000 -11.00000
20.50000 -9.00000 -10.00000
20.00000 -9.00000 -10.50000
20.00000 -8.00000 -18.50000
20.00000 -8.50000 -18.00000
20.50000 -8.00000 -10.00000
20.00000 -8.00000 -10.50000
20.00000 -7.00000 -19.50000
20.00000 -7.50000 -19.00000
20.50000 -7.00000 -10.00000
20.00000 -7.00000 -10.50000
20.00000 -6.00000 -20.50000
20.00000 -6.50000 -20.00000
20.00000 -6.50000 -10.00000
20.00000 -6.00000 -9.50000
20.00000 -5.00000 -21.50000
20.00000 -5.50000 -21.00000
20.00000 -5.50000 -10.00000
20.00000 -5.00000 -10.50000
20.50000 -4.00000 -29.00000
20.50000 -4.00000 -28.00000
20.00000 -4.00000 -27.50000
20.00000 -4.50000 -27.00000
20.00000 -4.50000 -26.00000
20.00000 -4.50000 -25.00000
20.00000 -4.50000 -24.00000
20.00000 -4.50000 -23.00000
20.00000 -4.50000 -22.00000
20.00000 -4.00000 -10.50000
20.50000 -3.00000 -29.00000
20.50000 -3.00000 -28.00000
20.00000 -3.00000 -27.50000
20.50000 -3.00000 -12.00000
20.00000 -3.50000 -12.00000
20.00000 -3.00000 -12.50000
20.00000 -3.50000 -11.00000
20.50000 -2.00000 -28.00000
20.00000 -2.00000 -27.50000
20.50000 -2.00000 -13.00000
20.00000 -2.50000 -13.00000
20.00000 -2.00000 -13.50000
20.00000 -1.00000 -27.50000
20.50000 -1.00000 -14.00000
20.00000 -1.50000 -14.00000
20.00000 -1.00000 -14.50000
20.00000 -0.50000 -27.00000
20.00000 0.00000 -26.50000
20.00000 -0.50000 -15.00000
20.00000 0.00000 -15.50000
20.00000 0.50000 -26.00000
20.00000 0.50000 -25.00000
20.00000 1.00000 -24.50000
20.00000 0.50000 -16.00000
20.00000 1.00000 -16.50000
20.00000 1.50000 -24.00000
20.00000 1.50000 -23.00000
20.00000 1.50000 -22.00000
20.00000 1.50000 -21.00000
20.00000 1.50000 -20.00000
20.50000 2.00000 -19.00000
20.00000 1.50000 -19.00000
20.00000 1.50000 -18.00000
20.00000 1.50000 -17.00000
19.50000 -11.00000 -13.00000
19.50000 -11.00000 -12.00000
19.00000 -10.00000 -15.50000
19.00000 -10.50000 -15.00000
19.00000 -10.50000 -14.00000
19.00000 -10.50000 -13.00000
19.00000 -10.50000 -12.00000
19.00000 -10.00000 -11.50000
19.00000 -9.00000 -17.50000
19.00000 -9.50000 -17.00000
19.00000 -9.50000 -16.00000
19.50000 -9.00000 -11.00000
19.00000 -9.00000 -11.50000
19.00000 -8.00000 -18.50000
19.00000 -8.50000 -18.00000
19.50000 -8.00000 -11.00000
19.00000 -8.00000 -11.50000
19.00000 -7.00000 -19.50000
19.00000 -7.50000 -19.00000
19.00000 -7.50000 -11.00000
19.00000 -7.00000 -10.50000
19.00000 -6.00000 -20.50000
19.00000 -6.50000 -20.00000
19.50000 -6.00000 -10.00000
19.00000 -6.00000 -10.50000
19.00000 -5.00000 -21.50000
19.00000 -5.50000 -21.00000
19.00000 -5.00000 -10.50000
19.50000 -4.00000 -27.00000
19.00000 -4.00000 -26.50000
19.00000 -4.50000 -26.00000
19.00000 -4.50000 -25.00000
19.00000 -4.50000 -24.00000
19.00000 -4.50000 -23.00000
19.00000 -4.50000 -22.00000
19.00000 -4.00000 -10.50000
19.50000 -3.00000 -27.00000
19.00000 -3.00000 -26.50000
19.00000 -3.50000 -12.00000
19.00000 -3.00000 -12.50000
19.00000 -3.50000 -11.00000
19.50000 -2.00000 -27.00000
19.00000 -2.00000 -26.50000
19.00000 -2.50000 -13.00000
19.00000 -2.00000 -13.50000
19.50000 -1.00000 -27.00000
19.00000 -1.00000 -26.50000
19.00000 -1.50000 -14.00000
19.00000 -1.00000 -14.50000
19.50000 0.00000 -26.00000
19.00000 -0.50000 -26.00000
19.00000 0.00000 -25.50000
19.00000 -0.50000 -15.00000
19.00000 0.00000 -15.50000
19.00000 0.50000 -25.00000
19.00000 1.00000 -24.50000
19.50000 1.00000 -17.00000
19.00000 0.50000 -17.00000
19.00000 1.00000 -17.50000
19.00000 0.50000 -16.00000
19.00000 1.50000 -24.00000
19.00000 1.50000 -23.00000
19.00000 1.50000 -22.00000
19.00000 1.50000 -21.00000
19.50000 2.00000 -20.00000
19.00000 2.00000 -20.50000
19.00000 2.00000 -19.50000
19.00000 1.50000 -19.00000
19.00000 1.50000 -18.00000
19.00000 2.50000 -20.00000
18.50000 -10.00000 -15.00000
18.50000 -10.00000 -14.00000
18.50000 -10.00000 -13.00000
18.50000 -10.00000 -12.00000
18.50000 -9.00000 -17.00000
18.00000 -9.00000 -16.50000
18.00000 -9.50000 -16.00000
18.00000 -9.50000 -15.00000
18.00000 -9.50000 -14.00000
18.00000 -9.50000 -13.00000
18.00000 -9.50000 -12.00000
18.00000 -9.00000 -11.50000
18.50000 -8.00000 -18.00000
18.00000 -8.00000 -17.50000
18.00000 -8.50000 -17.00000
18.00000 -8.00000 -11.50000
18.00000 -7.00000 -19.50000
18.00000 -7.50000 -19.00000
18.00000 -7.50000 -18.00000
18.50000 -7.00000 -11.00000
18.00000 -7.00000 -11.50000
18.00000 -6.00000 -20.50000
18.00000 -6.50000 -20.00000
18.00000 -6.50000 -11.00000
18.00000 -6.00000 -10.50000
18.00000 -5.00000 -21.50000
18.00000 -5.50000 -21.00000
18.00000 -5.00000 -10.50000
18.50000 -4.00000 -26.00000
18.00000 -4.00000 -25.50000
18.00000 -4.50000 -25.00000
18.00000 -4.50000 -24.00000
18.00000 -4.50000 -23.00000
18.00000 -4.50000 -22.00000
18.50000 -4.00000 -11.00000
18.00000 -4.50000 -11.00000
18.00000 -4.00000 -11.50000
18.00000 -3.00000 -26.50000
18.00000 -3.50000 -26.00000
18.00000 -3.50000 -12.00000
18.00000 -3.00000 -12.50000
18.00000 -2.00000 -26.50000
18.00000 -2.50000 -13.00000
18.00000 -2.00000 -13.50000
18.00000 -1.50000 -26.00000
18.50000 -1.00000 -26.00000
18.00000 -1.00000 -25.50000
18.00000 -1.50000 -14.00000
18.00000 -1.00000 -14.50000
18.00000 0.00000 -25.50000
18.00000 -0.50000 -15.00000
18.00000 0.00000 -15.50000
18.00000 0.50000 -25.00000
18.00000 1.00000 -24.50000
18.00000 0.50000 -17.00000
18.00000 1.00000 -17.50000
18.00000 0.50000 -16.00000
18.00000 1.50000 -24.00000
18.00000 1.50000 -23.00000
18.00000 1.50000 -22.00000
18.00000 1.50000 -21.00000
18.50000 2.00000 -20.00000
18.00000 1.50000 -20.00000
18.00000 1.50000 -19.00000
18.00000 1.50000 -18.00000
17.50000 -9.00000 -16.00000
17.50000 -9.00000 -15.00000
17.00000 -9.00000 -14.50000
17.00000 -9.50000 -14.00000
17.00000 -9.50000 -13.00000
17.00000 -9.50000 -12.00000
17.00000 -9.00000 -11.50000
17.00000 -8.00000 -17.50000
17.00000 -8.50000 -17.00000
17.00000 -8.50000 -16.00000
17.00000 -8.50000 -15.00000
17.00000 -8.00000 -11.50000
17.50000 -7.00000 -19.00000
17.00000 -7.00000 -18.50000
17.00000 -7.50000 -18.00000
17.00000 -7.00000 -11.50000
17.50000 -6.00000 -20.00000
17.00000 -6.00000 -19.50000
17.00000 -6.50000 -19.00000
17.50000 -6.00000 -11.00000
17.00000 -6.00000 -11.50000
17.00000 -5.00000 -21.50000
17.00000 -5.50000 -21.00000
17.00000 -5.50000 -20.00000
17.50000 -5.00000 -11.00000
17.00000 -5.00000 -11.50000
17.50000 -4.00000 -25.00000
17.00000 -4.00000 -24.50000
17.00000 -4.50000 -24.00000
17.00000 -4.50000 -23.00000
17.00000 -4.50000 -22.00000
17.00000 -4.00000 -11.50000
17.50000 -3.00000 -26.00000
17.00000 -3.00000 -25.50000
17.00000 -3.50000 -25.00000
17.50000 -3.00000 -13.00000
17.00000 -3.50000 -13.00000
17.00000 -3.00000 -13.50000
17.00000 -3.50000 -12.00000
17.50000 -2.00000 -26.00000
17.00000 -2.00000 -25.50000
17.50000 -2.00000 -14.00000
17.00000 -2.50000 -14.00000
17.00000 -2.00000 -14.50000
17.00000 -1.00000 -25.50000
17.50000 -1.00000 -15.00000
17.00000 -1.50000 -15.00000
17.00000 -1.00000 -15.50000
17.00000 -0.50000 -25.00000
17.50000 0.00000 -25.00000
17.00000 0.00000 -24.50000
17.50000 0.00000 -16.00000
17.00000 -0.50000 -16.00000
17.00000 0.00000 -16.50000
17.50000 1.00000 -24.00000
17.00000 0.50000 -24.00000
17.50000 1.00000 -23.00000
17.00000 0.50000 -23.00000
17.00000 1.00000 -22.50000
17.50000 1.00000 -18.00000
17.00000 0.50000 -18.00000
17.00000 1.00000 -18.50000
17.00000 0.50000 -17.00000
17.00000 1.50000 -22.00000
17.00000 1.50000 -21.00000
17.00000 1.50000 -20.00000
17.00000 1.50000 -19.00000
16.50000 -9.00000 -14.00000
16.00000 -9.00000 -13.50000
16.00000 -9.50000 -13.00000
16.50000 -9.00000 -12.00000
16.00000 -9.00000 -12.50000
16.50000 -8.00000 -17.00000
16.00000 -8.00000 -16.50000
16.00000 -8.50000 -16.00000
16.00000 -8.50000 -15.00000
16.00000 -8.50000 -14.00000
16.50000 -8.00000 -12.00000
16.00000 -8.00000 -12.50000
16.00000 -7.00000 -18.50000
16.00000 -7.50000 -18.00000
16.00000 -7.50000 -17.00000
16.50000 -7.00000 -12.00000
16.00000 -7.00000 -12.50000
16.00000 -6.00000 -19.50000
16.00000 -6.50000 -19.00000
16.50000 -6.00000 -12.00000
16.00000 -6.00000 -12.50000
16.00000 -5.00000 -21.50000
16.00000 -5.50000 -21.00000
16.00000 -5.50000 -20.00000
16.50000 -5.00000 -12.00000
16.00000 -5.00000 -12.50000
16.50000 -4.00000 -24.00000
16.00000 -4.00000 -23.50000
16.00000 -4.50000 -23.00000
16.00000 -4.50000 -22.00000
16.50000 -4.00000 -13.00000
16.00000 -4.50000 -13.00000
16.00000 -4.00000 -13.50000
16.50000 -4.00000 -12.00000
16.50000 -3.00000 -25.00000
16.00000 -3.00000 -24.50000
16.00000 -3.50000 -24.00000
16.50000 -3.00000 -14.00000
16.00000 -3.50000 -14.00000
16.00000 -3.00000 -14.50000
16.00000 -2.00000 -25.50000
16.00000 -2.50000 -25.00000
16.00000 -2.00000 -14.50000
16.00000 -1.00000 -25.50000
16.00000 -1.50000 -15.00000
16.00000 -1.00000 -15.50000
16.00000 -0.50000 -25.00000
16.00000 0.00000 -24.50000
16.50000 0.00000 -17.00000
16.00000 -0.50000 -17.00000
16.00000 0.00000 -17.50000
16.00000 -0.50000 -16.00000
16.00000 0.50000 -24.00000
16.00000 0.50000 -23.00000
16.00000 1.00000 -22.50000
16.50000 1.00000 -19.00000
16.00000 0.50000 -19.00000
16.00000 1.00000 -19.50000
16.00000 0.50000 -18.00000
16.00000 1.50000 -22.00000
16.00000 1.50000 -21.00000
16.00000 1.50000 -20.00000
15.50000 -9.00000 -13.00000
15.00000 -8.00000 -16.50000
15.00000 -8.50000 -16.00000
15.00000 -8.50000 -15.00000
15.00000 -8.50000 -14.00000
15.00000 -8.50000 -13.00000
15.00000 -8.00000 -12.50000
15.50000 -7.00000 -18.00000
15.00000 -7.00000 -17.50000
15.00000 -7.50000 -17.00000
15.00000 -7.00000 -12.50000
15.00000 -6.00000 -19.50000
15.00000 -6.50000 -19.00000
15.00000 -6.50000 -18.00000
15.50000 -6.00000 -13.00000
15.00000 -6.50000 -13.00000
15.00000 -6.00000 -13.50000
15.00000 -5.00000 -21.50000
15.00000 -5.50000 -21.00000
15.00000 -5.50000 -20.00000
15.50000 -5.00000 -13.00000
15.00000 -5.00000 -13.50000
15.00000 -4.00000 -23.50000
15.00000 -4.50000 -23.00000
15.00000 -4.50000 -22.00000
15.00000 -4.00000 -13.50000
15.00000 -3.00000 -24.50000
15.00000 -3.50000 -24.00000
15.00000 -3.50000 -14.00000
15.00000 -3.00000 -14.50000
15.00000 -2.00000 -25.50000
15.00000 -2.50000 -25.00000
15.50000 -2.00000 -15.00000
15.00000 -2.50000 -15.00000
15.00000 -2.00000 -15.50000
15.00000 -1.50000 -25.00000
15.50000 -1.00000 -25.00000
15.00000 -1.00000 -24.50000
15.50000 -1.00000 -17.00000
15.00000 -1.50000 -17.00000
15.00000 -1.00000 -17.50000
15.50000 -1.00000 -16.00000
15.00000 -1.50000 -16.00000
15.50000 0.00000 -24.00000
15.00000 -0.50000 -24.00000
15.00000 0.00000 -23.50000
15.50000 0.00000 -18.00000
15.00000 -0.50000 -18.00000
15.00000 0.00000 -18.50000
15.00000 0.50000 -23.00000
15.50000 1.00000 -22.00000
15.00000 0.50000 -22.00000
15.50000 1.00000 -21.00000
15.00000 0.50000 -21.00000
15.50000 1.00000 -20.00000
15.00000 0.50000 -20.00000
15.00000 0.50000 -19.00000
14.50000 -8.00000 -16.00000
14.50000 -8.00000 -15.00000
14.50000 -8.00000 -14.00000
14.50000 -8.00000 -13.00000
14.00000 -7.00000 -17.50000
14.00000 -7.50000 -17.00000
14.00000 -7.50000 -16.00000
14.00000 -7.00000 -15.50000
14.50000 -7.00000 -15.00000
14.50000 -7.00000 -14.00000
14.50000 -7.00000 -13.00000
14.00000 -6.00000 -19.50000
14.00000 -6.50000 -19.00000
14.00000 -6.50000 -18.00000
14.00000 -6.50000 -15.00000
14.00000 -6.00000 -14.50000
14.50000 -6.00000 -14.00000
14.00000 -5.00000 -21.50000
14.00000 -5.50000 -21.00000
14.00000 -5.50000 -20.00000
14.50000 -5.00000 -14.00000
14.00000 -5.00000 -14.50000
14.00000 -4.00000 -23.50000
14.00000 -4.50000 -23.00000
14.00000 -4.50000 -22.00000
14.50000 -4.00000 -15.00000
14.00000 -4.50000 -15.00000
14.00000 -4.00000 -15.50000
14.50000 -4.00000 -14.00000
14.00000 -3.00000 -24.50000
14.00000 -3.50000 -24.00000
14.50000 -3.00000 -16.00000
14.00000 -3.50000 -16.00000
14.00000 -3.00000 -16.50000
14.50000 -3.00000 -15.00000
14.00000 -2.00000 -25.50000
14.00000 -2.50000 -25.00000
14.50000 -2.00000 -18.00000
14.00000 -2.50000 -18.00000
14.00000 -2.00000 -18.50000
14.50000 -2.00000 -17.00000
14.00000 -2.50000 -17.00000
14.50000 -2.00000 -16.00000
14.00000 -1.50000 -25.00000
14.00000 -1.00000 -24.50000
14.50000 -1.00000 -19.00000
14.00000 -1.50000 -19.00000
14.00000 -1.00000 -19.50000
14.50000 -1.00000 -18.00000
14.00000 -0.50000 -24.00000
14.50000 0.00000 -23.00000
14.00000 -0.50000 -23.00000
14.00000 0.00000 -22.50000
14.50000 0.00000 -20.00000
14.00000 -0.50000 -20.00000
14.00000 0.00000 -20.50000
14.50000 0.00000 -19.00000
14.00000 0.50000 -22.00000
14.00000 0.50000 -21.00000
13.00000 -7.00000 -17.50000
13.00000 -7.50000 -17.00000
13.50000 -7.00000 -16.00000
13.00000 -7.00000 -16.50000
13.50000 -6.00000 -19.00000
13.00000 -6.00000 -18.50000
13.00000 -6.50000 -18.00000
13.50000 -6.00000 -16.00000
13.00000 -6.00000 -16.50000
13.50000 -6.00000 -15.00000
13.00000 -5.00000 -21.50000
13.00000 -5.50000 -21.00000
13.00000 -5.50000 -20.00000
13.00000 -5.50000 -19.00000
13.50000 -5.00000 -16.00000
13.00000 -5.00000 -16.50000
13.50000 -5.00000 -15.00000
13.00000 -4.00000 -23.50000
13.00000 -4.50000 -23.00000
13.00000 -4.50000 -22.00000
13.50000 -4.00000 -17.00000
13.00000 -4.50000 -17.00000
13.00000 -4.00000 -17.50000
13.50000 -4.00000 -16.00000
13.50000 -3.00000 -24.00000
13.00000 -3.00000 -23.50000
13.50000 -3.00000 -18.00000
13.00000 -3.50000 -18.00000
13.00000 -3.00000 -18.50000
13.50000 -3.00000 -17.00000
13.50000 -2.00000 -25.00000
13.50000 -2.00000 -24.00000
13.00000 -2.00000 -23.50000
13.50000 -2.00000 -19.00000
13.00000 -2.50000 -19.00000
13.00000 -2.00000 -19.50000
13.50000 -1.00000 -24.00000
13.00000 -1.50000 -23.00000
13.50000 -1.00000 -23.00000
13.00000 -1.00000 -22.50000
13.50000 -1.00000 -21.00000
13.00000 -1.50000 -21.00000
13.00000 -1.00000 -21.50000
13.50000 -1.00000 -20.00000
13.00000 -1.50000 -20.00000
13.50000 0.00000 -22.00000
13.00000 -0.50000 -22.00000
13.50000 0.00000 -21.00000
12.50000 -7.00000 -17.00000
12.00000 -6.00000 -18.50000
12.00000 -6.50000 -18.00000
12.50000 -6.00000 -17.00000
12.00000 -6.00000 -17.50000
12.50000 -5.00000 -21.00000
12.00000 -5.00000 -20.50000
12.00000 -5.50000 -20.00000
12.00000 -5.50000 -19.00000
12.50000 -5.50000 -18.50000
12.00000 -5.50000 -18.00000
12.50000 -5.00000 -18.00000
12.00000 -5.00000 -18.50000
12.50000 -5.00000 -17.00000
12.50000 -4.00000 -23.00000
12.00000 -4.00000 -22.50000
12.00000 -4.50000 -22.00000
12.00000 -4.50000 -21.00000
12.50000 -4.00000 -19.00000
12.00000 -4.50000 -19.00000
12.00000 -4.00000 -19.50000
12.50000 -4.00000 -18.00000
12.50000 -3.00000 -23.00000
12.00000 -3.00000 -22.50000
12.50000 -3.00000 -20.00000
12.00000 -3.50000 -20.00000
12.00000 -3.00000 -20.50000
12.50000 -3.00000 -19.00000
12.50000 -2.00000 -23.00000
12.00000 -2.50000 -22.00000
12.50000 -2.00000 -22.00000
12.50000 -2.00000 -21.00000
12.00000 -2.50000 -21.00000
12.50000 -2.00000 -20.00000
12.50000 -1.00000 -22.00000
11.50000 -6.00000 -18.00000
11.50000 -5.00000 -20.00000
11.50000 -5.00000 -19.00000
11.50000 -4.00000 -22.00000
11.50000 -4.00000 -21.00000
11.50000 -4.00000 -20.00000
11.50000 -3.00000 -22.00000
11.50000 -3.00000 -21.00000
3 2 1 0
3 4 3 0
3 0 3 2
3 6 5 4
3 4 5 3
3 6 7 5
3 10 9 8
3 10 8 1
3 8 0 1
3 8 11 0
3 0 12 4
3 0 11 12
3 4 13 6
3 4 12 13
3 7 6 14
3 6 15 14
3 6 13 15
3 17 16 15
3 15 16 14
3 17 18 16
3 8 9 19
3 19 9 20
3 8 21 11
3 8 19 21
3 11 22 12
3 11 21 22
3 12 23 13
3 12 22 23
3 13 24 15
3 13 23 24
3 15 25 17
3 15 24 25
3 18 17 26
3 26 17 25
3 20 27 19
3 19 27 21
3 21 27 28
3 30 29 28
3 29 21 28
3 29 22 21
3 22 31 23
3 22 29 31
3 23 32 24
3 23 31 32
3 34 25 33
3 25 32 33
3 25 24 32
3 25 34 26
3 30 35 29
3 29 35 31
3 31 35 36
3 31 36 32
3 32 36 37
3 32 37 33
3 40 39 38
3 42 41 38
3 38 41 40
3 42 43 41
3 45 44 2
3 2 44 1
3 46 2 3
3 46 45 2
3 47 3 5
3 47 46 3
3 48 38 7
3 38 47 7
3 47 5 7
3 38 39 47
3 38 49 42
3 38 48 49
3 43 42 50
3 42 51 50
3 42 49 51
3 51 52 50
3 55 54 53
3 9 10 53
3 10 55 53
3 10 56 55
3 10 1 44
3 10 44 56
3 14 48 7
3 48 14 16
3 48 16 49
3 49 16 18
3 57 49 18
3 51 49 57
3 52 51 58
3 51 59 58
3 51 57 59
3 59 60 58
3 63 62 61
3 63 61 54
3 61 53 54
3 61 64 53
3 64 20 9
3 64 9 53
3 26 65 57
3 26 57 18
3 57 66 59
3 57 65 66
3 60 59 67
3 67 59 66
3 62 68 61
3 70 69 68
3 69 61 68
3 69 64 61
3 71 27 20
3 64 71 20
3 69 71 64
3 72 28 27
3 72 27 71
3 72 30 28
3 33 73 34
3 65 26 34
3 73 65 34
3 74 65 73
3 65 75 66
3 65 74 75
3 67 66 76
3 76 66 75
3 70 77 69
3 69 77 71
3 71 77 78
3 80 79 78
3 79 71 78
3 79 72 71
3 81 35 30
3 72 81 30
3 79 81 72
3 82 36 35
3 82 35 81
3 36 82 83
3 84 36 83
3 37 36 84
3 33 37 73
3 37 85 73
3 37 84 85
3 73 85 74
3 74 85 86
3 74 86 75
3 75 86 87
3 75 87 76
3 80 88 79
3 79 88 81
3 81 88 89
3 81 89 82
3 82 89 90
3 82 90 83
3 93 92 91
3 95 94 91
3 91 94 93
3 97 96 95
3 95 96 94
3 97 98 96
3 101 100 99
3 101 99 92
3 99 91 92
3 99 102 91
3 91 103 95
3 91 102 103
3 95 104 97
3 95 103 104
3 98 97 105
3 105 97 104
3 108 107 106
3 108 106 100
3 106 99 100
3 106 109 99
3 99 110 102
3 99 109 110
3 102 111 103
3 102 110 111
3 103 112 104
3 103 111 112
3 105 104 113
3 113 104 112
3 116 115 114
3 118 117 114
3 114 117 116
3 118 39 117
3 39 40 117
3 120 119 117
3 120 117 40
3 120 40 121
3 40 122 121
3 40 41 122
3 124 123 43
3 123 41 43
3 123 122 41
3 123 124 107
3 124 106 107
3 124 125 106
3 106 126 109
3 106 125 126
3 128 110 127
3 110 126 127
3 110 109 126
3 110 128 111
3 111 128 129
3 111 129 112
3 112 129 130
3 112 130 113
3 133 132 131
3 44 45 131
3 45 133 131
3 45 134 133
3 46 114 115
3 134 46 115
3 45 46 134
3 114 46 47
3 114 47 118
3 120 135 119
3 39 118 47
3 135 120 121
3 50 124 43
3 124 50 52
3 136 124 52
3 125 124 136
3 125 137 126
3 125 136 137
3 127 126 138
3 138 126 137
3 141 140 139
3 143 142 139
3 139 142 141
3 54 55 143
3 55 142 143
3 55 144 142
3 56 131 132
3 144 56 132
3 55 56 144
3 131 56 44
3 58 136 52
3 136 58 60
3 145 136 60
3 137 136 145
3 138 137 146
3 146 137 145
3 139 140 147
3 147 140 148
3 147 62 63
3 143 147 63
3 139 147 143
3 143 63 54
3 67 149 145
3 67 145 60
3 146 145 150
3 145 151 150
3 145 149 151
3 151 152 150
3 148 153 147
3 153 155 154
3 153 154 68
3 147 153 68
3 62 147 68
3 154 70 68
3 76 156 149
3 76 149 67
3 158 151 157
3 151 156 157
3 151 149 156
3 151 158 152
3 155 159 154
3 159 161 160
3 159 160 77
3 154 159 77
3 70 154 77
3 162 78 77
3 162 77 160
3 162 80 78
3 83 163 84
3 164 85 84
3 164 84 163
3 165 86 85
3 165 85 164
3 86 165 166
3 167 86 166
3 87 86 167
3 76 87 156
3 87 168 156
3 87 167 168
3 156 168 157
3 161 169 160
3 160 169 162
3 162 169 170
3 162 170 80
3 170 88 80
3 170 171 88
3 88 172 89
3 171 172 88
3 89 173 90
3 172 173 89
3 83 90 163
3 90 174 163
3 90 173 174
3 163 174 164
3 164 174 175
3 164 175 165
3 165 175 176
3 165 176 166
3 179 178 177
3 181 180 177
3 177 180 179
3 181 182 180
3 184 183 93
3 93 183 92
3 94 177 178
3 184 94 178
3 93 94 184
3 177 94 96
3 177 96 181
3 186 185 98
3 98 185 96
3 185 182 96
3 182 181 96
3 186 187 185
3 188 100 101
3 189 188 101
3 92 189 101
3 183 189 92
3 105 190 186
3 105 186 98
3 187 186 191
3 191 186 190
3 192 107 108
3 193 192 108
3 193 108 100
3 194 193 100
3 188 194 100
3 194 188 189
3 113 195 190
3 113 190 105
3 191 190 196
3 190 197 196
3 190 195 197
3 197 198 196
3 199 115 116
3 199 116 200
3 116 201 200
3 116 117 201
3 203 202 119
3 202 117 119
3 202 201 117
3 121 122 203
3 122 202 203
3 122 204 202
3 205 122 123
3 205 204 122
3 123 107 192
3 206 123 192
3 205 123 206
3 206 192 193
3 127 207 128
3 208 129 128
3 208 128 207
3 209 130 129
3 209 129 208
3 209 210 130
3 130 210 113
3 210 211 113
3 211 195 113
3 195 211 197
3 197 211 212
3 197 212 198
3 214 213 133
3 133 213 132
3 215 133 134
3 215 214 133
3 134 115 199
3 216 134 199
3 215 134 216
3 216 199 200
3 135 203 119
3 203 135 121
3 138 217 207
3 138 207 127
3 219 208 218
3 208 217 218
3 208 207 217
3 208 219 209
3 209 219 220
3 209 220 210
3 222 221 141
3 141 221 140
3 223 141 142
3 223 222 141
3 224 142 144
3 224 223 142
3 144 132 213
3 144 213 224
3 146 225 217
3 146 217 138
3 218 217 226
3 226 217 225
3 221 148 140
3 227 148 221
3 150 225 146
3 150 152 225
3 152 226 225
3 152 228 226
3 153 148 229
3 148 230 229
3 148 227 230
3 229 155 153
3 157 231 158
3 231 232 158
3 232 152 158
3 232 228 152
3 230 233 229
3 233 235 234
3 233 234 159
3 229 233 159
3 155 229 159
3 234 161 159
3 166 236 167
3 237 168 167
3 237 167 236
3 237 238 168
3 168 238 157
3 238 239 157
3 239 231 157
3 231 239 232
3 235 240 234
3 234 240 161
3 240 169 161
3 240 241 169
3 241 243 242
3 170 241 242
3 169 241 170
3 244 171 170
3 244 170 242
3 171 244 245
3 246 171 245
3 172 171 246
3 172 247 173
3 246 247 172
3 173 248 174
3 247 248 173
3 174 249 175
3 248 249 174
3 175 250 176
3 249 250 175
3 166 176 236
3 176 251 236
3 176 250 251
3 236 251 237
3 237 251 252
3 237 252 238
3 243 253 242
3 242 253 244
3 244 253 254
3 244 254 245
3 257 256 255
3 255 258 257
3 261 260 259
3 261 259 256
3 259 255 256
3 259 262 255
3 258 255 263
3 263 255 262
3 264 178 179
3 260 265 259
3 265 179 259
3 179 180 259
3 179 265 264
3 259 180 182
3 266 259 182
3 262 259 266
3 263 262 267
3 267 262 266
3 268 183 184
3 269 268 184
3 269 184 178
3 270 269 178
3 264 270 178
3 270 264 265
3 185 266 182
3 272 271 187
3 187 271 185
3 271 267 185
3 267 266 185
3 272 273 271
3 275 274 268
3 274 183 268
3 274 189 183
3 275 268 269
3 191 276 272
3 191 272 187
3 273 272 277
3 277 272 276
3 280 279 278
3 193 194 278
3 194 280 278
3 194 281 280
3 194 189 274
3 194 274 281
3 196 276 191
3 196 198 276
3 198 277 276
3 198 282 277
3 284 283 201
3 201 283 200
3 285 201 202
3 285 284 201
3 286 202 204
3 286 285 202
3 287 204 205
3 287 286 204
3 206 278 279
3 287 206 279
3 205 206 287
3 278 206 193
3 210 288 211
3 211 288 289
3 290 211 289
3 212 211 290
3 198 212 282
3 282 212 290
3 292 291 214
3 214 291 213
3 293 214 215
3 293 292 214
3 294 215 216
3 294 293 215
3 216 200 283
3 216 283 294
3 218 295 219
3 219 295 296
3 297 219 296
3 220 219 297
3 210 220 288
3 220 298 288
3 220 297 298
3 288 298 289
3 300 299 222
3 222 299 221
3 301 222 223
3 301 300 222
3 302 223 224
3 302 301 223
3 224 213 291
3 224 291 302
3 226 303 295
3 226 295 218
3 296 295 304
3 304 295 303
3 307 306 305
3 299 307 305
3 227 299 305
3 221 299 227
3 228 308 303
3 228 303 226
3 304 303 309
3 309 303 308
3 306 310 305
3 227 305 310
3 311 227 310
3 230 227 311
3 232 312 308
3 232 308 228
3 309 308 313
3 313 308 312
3 233 230 314
3 230 315 314
3 230 311 315
3 314 235 233
3 238 316 239
3 316 317 239
3 239 317 232
3 317 318 232
3 318 312 232
3 312 318 313
3 315 319 314
3 319 321 320
3 319 320 240
3 314 319 240
3 235 314 240
3 322 241 240
3 322 240 320
3 322 243 241
3 245 323 246
3 324 247 246
3 324 246 323
3 325 248 247
3 325 247 324
3 326 249 248
3 326 248 325
3 327 250 249
3 327 249 326
3 250 327 328
3 329 250 328
3 251 250 329
3 251 330 252
3 329 330 251
3 238 252 316
3 252 331 316
3 252 330 331
3 316 331 317
3 321 332 320
3 320 332 322
3 322 332 333
3 322 333 243
3 333 253 243
3 333 334 253
3 253 335 254
3 334 335 253
3 245 254 323
3 254 336 323
3 254 335 336
3 323 336 324
3 324 336 337
3 324 337 325
3 325 337 338
3 325 338 326
3 326 338 339
3 326 339 327
3 327 339 340
3 327 340 328
3 341 256 257
3 343 341 342
3 341 257 342
3 258 344 342
3 258 342 257
3 344 345 342
3 346 260 261
3 347 346 261
3 347 261 256
3 348 347 256
3 341 348 256
3 263 349 258
3 263 341 349
3 341 263 348
3 350 348 263
3 348 350 343
3 349 343 350
3 350 344 349
3 349 344 258
3 341 343 349
3 345 344 351
3 351 344 350
3 353 352 346
3 352 260 346
3 352 265 260
3 353 346 347
3 267 354 350
3 267 350 263
3 351 350 355
3 355 350 354
3 357 356 270
3 270 356 269
3 270 265 352
3 270 352 357
3 271 354 267
3 271 273 354
3 273 355 354
3 273 358 355
3 360 359 275
3 275 359 274
3 275 269 356
3 275 356 360
3 277 358 273
3 277 361 358
3 364 363 362
3 279 280 362
3 280 364 362
3 280 365 364
3 366 280 281
3 366 365 280
3 281 274 359
3 281 359 366
3 282 361 277
3 282 367 361
3 368 283 284
3 368 284 369
3 284 370 369
3 284 285 370
3 371 285 286
3 371 370 285
3 287 362 363
3 371 287 363
3 286 287 371
3 362 287 279
3 289 372 290
3 372 373 290
3 373 282 290
3 373 367 282
3 376 375 374
3 291 292 374
3 292 376 374
3 292 377 376
3 378 292 293
3 378 377 292
3 379 293 294
3 379 378 293
3 294 283 368
3 380 294 368
3 379 294 380
3 380 368 369
3 296 381 297
3 297 381 382
3 383 297 382
3 298 297 383
3 289 298 372
3 298 384 372
3 298 383 384
3 372 384 373
3 387 386 385
3 299 300 385
3 300 387 385
3 300 388 387
3 389 300 301
3 389 388 300
3 302 374 375
3 389 302 375
3 301 302 389
3 374 302 291
3 304 390 381
3 304 381 296
3 382 381 391
3 391 381 390
3 385 386 307
3 386 306 307
3 386 392 306
3 385 307 299
3 394 393 390
3 304 394 390
3 309 394 304
3 390 393 391
3 310 306 395
3 306 396 395
3 306 392 396
3 395 311 310
3 313 394 309
3 313 397 394
3 396 398 395
3 311 395 398
3 399 311 398
3 315 311 399
3 401 400 318
3 401 318 317
3 313 318 397
3 397 318 400
3 399 402 315
3 315 402 319
3 321 319 402
3 321 402 403
3 328 404 329
3 329 404 405
3 406 329 405
3 330 329 406
3 330 407 331
3 406 407 330
3 317 331 401
3 401 331 407
3 403 408 321
3 321 408 332
3 332 409 333
3 408 409 332
3 333 410 334
3 409 410 333
3 334 411 335
3 410 411 334
3 335 412 336
3 411 412 335
3 336 413 337
3 412 413 336
3 337 414 338
3 413 414 337
3 338 415 339
3 414 415 338
3 339 416 340
3 415 416 339
3 328 340 404
3 340 417 404
3 340 416 417
3 404 417 405
3 419 418 342
3 342 418 343
3 421 420 345
3 420 342 345
3 420 419 342
3 421 422 420
3 424 423 348
3 348 423 347
3 348 343 418
3 348 418 424
3 351 425 421
3 351 421 345
3 422 421 426
3 426 421 425
3 428 427 353
3 353 427 352
3 353 347 423
3 353 423 428
3 355 429 425
3 355 425 351
3 426 425 430
3 430 425 429
3 432 431 357
3 357 431 356
3 357 352 427
3 357 427 432
3 358 433 429
3 358 429 355
3 430 429 434
3 434 429 433
3 437 436 435
3 439 438 435
3 435 438 437
3 359 360 439
3 360 438 439
3 360 440 438
3 360 356 431
3 360 431 440
3 361 441 433
3 361 433 358
3 434 433 442
3 442 433 441
3 445 444 443
3 363 364 443
3 364 445 443
3 364 446 445
3 365 435 436
3 446 365 436
3 364 365 446
3 435 365 366
3 435 366 439
3 439 366 359
3 367 447 441
3 367 441 361
3 442 441 448
3 448 441 447
3 450 449 370
3 370 449 369
3 371 443 444
3 450 371 444
3 370 371 450
3 443 371 363
3 452 451 447
3 367 452 447
3 373 452 367
3 447 451 448
3 454 453 376
3 376 453 375
3 455 376 377
3 455 454 376
3 456 377 378
3 456 455 377
3 457 378 379
3 457 456 378
3 458 379 380
3 458 457 379
3 380 369 449
3 380 449 458
3 382 459 383
3 383 459 460
3 461 383 460
3 384 383 461
3 373 384 452
3 452 384 461
3 462 386 387
3 388 463 387
3 387 463 462
3 463 388 464
3 388 465 464
3 388 389 465
3 389 375 453
3 389 453 465
3 467 466 459
3 382 467 459
3 391 467 382
3 459 466 460
3 469 468 462
3 468 386 462
3 468 392 386
3 469 462 463
3 469 463 470
3 470 463 464
3 394 471 393
3 471 472 393
3 472 391 393
3 472 467 391
3 468 396 392
3 473 396 468
3 475 474 471
3 394 475 471
3 397 475 394
3 471 474 472
3 398 396 476
3 396 477 476
3 396 473 477
3 476 399 398
3 479 478 400
3 479 400 401
3 397 400 475
3 475 400 478
3 477 480 476
3 480 482 481
3 480 481 402
3 476 480 402
3 399 476 402
3 481 403 402
3 405 483 406
3 406 483 484
3 485 406 484
3 407 406 485
3 401 407 479
3 479 407 485
3 482 486 481
3 481 486 403
3 486 408 403
3 486 487 408
3 408 488 409
3 487 488 408
3 409 489 410
3 488 489 409
3 410 490 411
3 489 490 410
3 411 491 412
3 490 491 411
3 412 492 413
3 491 492 412
3 413 493 414
3 492 493 413
3 414 494 415
3 493 494 414
3 415 495 416
3 494 495 415
3 416 496 417
3 495 496 416
3 405 417 483
3 417 497 483
3 417 496 497
3 483 497 484
3 500 499 498
3 498 501 500
3 503 502 419
3 419 502 418
3 420 498 499
3 503 420 499
3 419 420 503
3 420 422 498
3 422 501 498
3 422 504 501
3 506 505 424
3 424 505 423
3 424 418 502
3 424 502 506
3 426 504 422
3 426 507 504
3 509 508 428
3 428 508 427
3 428 423 505
3 428 505 509
3 430 507 426
3 430 510 507
3 513 512 511
3 431 432 511
3 432 513 511
3 432 514 513
3 432 427 508
3 432 508 514
3 434 510 430
3 434 515 510
3 518 517 516
3 436 437 516
3 437 518 516
3 437 519 518
3 520 437 438
3 520 519 437
3 440 511 512
3 520 440 512
3 438 440 520
3 511 440 431
3 442 515 434
3 442 521 515
3 523 522 445
3 445 522 444
3 446 516 517
3 523 446 517
3 445 446 523
3 516 446 436
3 448 521 442
3 448 524 521
3 527 526 525
3 449 450 525
3 450 527 525
3 450 528 527
3 450 444 522
3 450 522 528
3 530 529 451
3 530 451 452
3 448 451 524
3 524 451 529
3 532 531 454
3 454 531 453
3 533 454 455
3 533 532 454
3 534 455 456
3 534 533 455
3 535 456 457
3 535 534 456
3 458 525 526
3 535 458 526
3 457 458 535
3 525 458 449
3 460 536 461
3 536 537 461
3 537 452 461
3 537 530 452
3 539 538 465
3 465 538 464
3 465 453 531
3 465 531 539
3 467 540 466
3 540 541 466
3 466 541 460
3 541 542 460
3 542 536 460
3 536 542 537
3 545 544 543
3 468 469 543
3 469 545 543
3 469 546 545
3 547 469 470
3 547 546 469
3 470 464 538
3 470 538 547
3 549 548 540
3 467 549 540
3 472 549 467
3 540 548 541
3 543 544 550
3 550 544 551
3 550 473 468
3 550 468 543
3 475 552 474
3 552 553 474
3 553 472 474
3 553 549 472
3 551 554 550
3 473 550 554
3 555 473 554
3 477 473 555
3 479 556 478
3 556 557 478
3 478 557 475
3 557 558 475
3 558 552 475
3 552 558 553
3 555 559 477
3 477 559 480
3 482 480 559
3 482 559 560
3 562 561 485
3 562 485 484
3 479 485 556
3 485 563 556
3 485 561 563
3 556 563 557
3 560 564 482
3 482 564 486
3 486 565 487
3 564 565 486
3 487 566 488
3 565 566 487
3 566 568 567
3 489 566 567
3 488 566 489
3 569 490 489
3 569 489 567
3 570 491 490
3 570 490 569
3 571 492 491
3 571 491 570
3 572 493 492
3 572 492 571
3 573 494 493
3 573 493 572
3 574 495 494
3 574 494 573
3 495 574 575
3 576 495 575
3 496 495 576
3 496 577 497
3 576 577 496
3 484 497 562
3 562 497 577
3 568 578 567
3 567 578 569
3 569 578 579
3 569 579 570
3 570 579 580
3 570 580 571
3 571 580 581
3 571 581 572
3 572 581 582
3 572 582 573
3 573 582 583
3 573 583 574
3 574 583 584
3 574 584 575
3 586 585 500
3 500 585 499
3 500 501 586
3 586 501 587
3 589 588 503
3 503 588 502
3 503 499 585
3 503 585 589
3 504 587 501
3 504 590 587
3 592 591 506
3 506 591 505
3 506 502 588
3 506 588 592
3 507 590 504
3 507 593 590
3 595 594 509
3 509 594 508
3 509 505 591
3 509 591 595
3 510 593 507
3 510 596 593
3 599 598 597
3 512 513 597
3 513 599 597
3 513 600 599
3 601 513 514
3 601 600 513
3 514 508 594
3 514 594 601
3 515 603 602
3 596 515 602
3 510 515 596
3 603 604 602
3 606 605 518
3 518 605 517
3 607 518 519
3 607 606 518
3 520 597 598
3 607 520 598
3 519 520 607
3 597 520 512
3 521 608 603
3 521 603 515
3 604 603 609
3 609 603 608
3 611 610 523
3 523 610 522
3 523 517 605
3 523 605 611
3 613 612 608
3 521 613 608
3 524 613 521
3 608 612 609
3 615 614 527
3 527 614 526
3 616 527 528
3 616 615 527
3 528 522 610
3 528 610 616
3 530 617 529
3 617 618 529
3 618 524 529
3 618 613 524
3 619 531 532
3 619 532 620
3 532 621 620
3 532 533 621
3 622 533 534
3 622 621 533
3 623 534 535
3 623 622 534
3 535 526 614
3 535 614 623
3 625 624 617
3 530 625 617
3 537 625 530
3 617 624 618
3 627 626 539
3 539 626 538
3 539 531 619
3 628 539 619
3 627 539 628
3 628 619 620
3 541 629 542
3 629 630 542
3 630 537 542
3 630 625 537
3 632 631 545
3 545 631 544
3 633 545 546
3 633 632 545
3 634 546 547
3 634 633 546
3 547 538 626
3 547 626 634
3 549 635 548
3 635 636 548
3 548 636 541
3 636 637 541
3 637 629 541
3 629 637 630
3 631 551 544
3 638 551 631
3 640 639 635
3 549 640 635
3 553 640 549
3 635 639 636
3 638 641 551
3 551 641 554
3 555 554 641
3 555 641 642
3 557 643 558
3 643 644 558
3 644 553 558
3 644 640 553
3 642 645 555
3 555 645 559
3 560 559 645
3 560 645 646
3 562 647 561
3 561 647 648
3 649 561 648
3 563 561 649
3 557 563 643
3 563 650 643
3 563 649 650
3 643 650 644
3 646 651 560
3 560 651 564
3 564 652 565
3 651 652 564
3 565 653 566
3 652 653 565
3 568 566 653
3 568 653 654
3 575 655 576
3 576 655 656
3 657 576 656
3 577 576 657
3 562 577 647
3 577 658 647
3 577 657 658
3 647 658 648
3 654 659 568
3 568 659 578
3 578 660 579
3 659 660 578
3 579 661 580
3 660 661 579
3 580 662 581
3 661 662 580
3 581 663 582
3 662 663 581
3 582 664 583
3 663 664 582
3 583 665 584
3 664 665 583
3 575 584 655
3 584 666 655
3 584 665 666
3 655 666 656
3 667 585 586
3 587 667 586
3 669 668 589
3 589 668 588
3 589 585 667
3 670 589 667
3 669 589 670
3 667 587 670
3 587 671 670
3 587 590 671
3 673 672 592
3 592 672 591
3 592 588 668
3 592 668 673
3 593 671 590
3 593 674 671
3 677 676 675
3 594 595 675
3 595 677 675
3 595 678 677
3 595 591 672
3 595 672 678
3 596 680 679
3 674 596 679
3 593 596 674
3 680 681 679
3 684 683 682
3 598 599 682
3 599 684 682
3 599 685 684
3 686 599 600
3 686 685 599
3 601 675 676
3 686 601 676
3 600 601 686
3 675 601 594
3 602 680 596
3 602 604 680
3 604 681 680
3 604 687 681
3 689 688 606
3 606 688 605
3 607 682 683
3 689 607 683
3 606 607 689
3 682 607 598
3 609 687 604
3 609 690 687
3 692 691 611
3 611 691 610
3 611 605 688
3 611 688 692
3 613 693 612
3 693 694 612
3 694 609 612
3 694 690 609
3 695 614 615
3 695 615 696
3 615 697 696
3 615 616 697
3 616 610 691
3 616 691 697
3 699 698 693
3 613 699 693
3 618 699 613
3 693 698 694
3 700 620 621
3 700 621 701
3 621 702 701
3 621 622 702
3 703 622 623
3 703 702 622
3 623 614 695
3 704 623 695
3 703 623 704
3 704 695 696
3 625 705 624
3 705 706 624
3 706 618 624
3 706 699 618
3 709 708 707
3 626 627 707
3 627 709 707
3 627 710 709
3 711 627 628
3 711 710 627
3 628 620 700
3 712 628 700
3 711 628 712
3 712 700 701
3 714 713 705
3 625 714 705
3 630 714 625
3 705 713 706
3 716 715 632
3 632 715 631
3 717 632 633
3 717 716 632
3 634 707 708
3 717 634 708
3 633 634 717
3 707 634 626
3 719 718 637
3 719 637 636
3 630 637 714
3 714 637 718
3 715 638 631
3 720 638 715
3 640 721 639
3 721 722 639
3 722 636 639
3 722 719 636
3 720 723 638
3 638 723 641
3 642 641 723
3 642 723 724
3 726 725 721
3 640 726 721
3 644 726 640
3 721 725 722
3 724 727 642
3 642 727 645
3 729 728 646
3 645 729 646
3 727 729 645
3 730 728 729
3 648 731 649
3 649 731 732
3 733 649 732
3 650 649 733
3 644 650 726
3 726 650 733
3 728 651 646
3 730 734 728
3 734 651 728
3 734 652 651
3 652 735 653
3 734 735 652
3 654 653 735
3 654 735 736
3 656 737 657
3 657 737 738
3 739 657 738
3 658 657 739
3 648 658 731
3 658 740 731
3 658 739 740
3 731 740 732
3 736 741 654
3 654 741 659
3 659 742 660
3 741 742 659
3 660 743 661
3 742 743 660
3 661 744 662
3 743 744 661
3 662 745 663
3 744 745 662
3 663 746 664
3 745 746 663
3 664 747 665
3 746 747 664
3 665 748 666
3 747 748 665
3 656 666 737
3 666 749 737
3 666 748 749
3 737 749 738
3 750 668 669
3 750 669 751
3 669 752 751
3 669 670 752
3 670 671 752
3 752 671 753
3 755 754 673
3 673 754 672
3 673 668 750
3 756 673 750
3 755 673 756
3 756 750 751
3 674 753 671
3 674 757 753
3 759 758 677
3 677 758 676
3 760 677 678
3 760 759 677
3 678 672 754
3 678 754 760
3 761 757 674
3 761 674 679
3 679 681 761
3 761 681 762
3 764 763 684
3 684 763 683
3 765 684 685
3 765 764 684
3 766 685 686
3 766 765 685
3 686 676 758
3 686 758 766
3 687 762 681
3 687 767 762
3 769 768 689
3 689 768 688
3 689 683 763
3 689 763 769
3 690 767 687
3 690 770 767
3 772 771 692
3 692 771 691
3 692 688 768
3 692 768 772
3 694 770 690
3 694 773 770
3 775 774 697
3 697 774 696
3 697 691 771
3 697 771 775
3 699 776 698
3 776 777 698
3 777 694 698
3 777 773 694
3 778 701 702
3 778 702 779
3 702 780 779
3 702 703 780
3 781 703 704
3 781 780 703
3 704 696 774
3 704 774 781
3 783 782 776
3 699 783 776
3 706 783 699
3 776 782 777
3 786 785 784
3 788 787 784
3 784 787 786
3 708 709 788
3 709 787 788
3 709 789 787
3 790 709 710
3 790 789 709
3 791 710 711
3 791 790 710
3 792 711 712
3 792 791 711
3 712 701 778
3 793 712 778
3 792 712 793
3 793 778 779
3 795 794 713
3 795 713 714
3 706 713 783
3 783 713 794
3 784 785 716
3 785 715 716
3 785 796 715
3 784 716 717
3 784 717 788
3 788 717 708
3 798 797 718
3 798 718 719
3 714 718 795
3 795 718 797
3 796 720 715
3 799 720 796
3 722 798 719
3 722 800 798
3 799 801 720
3 720 801 723
3 724 723 801
3 724 801 802
3 804 803 725
3 804 725 726
3 722 725 800
3 800 725 803
3 802 805 724
3 724 805 727
3 727 806 729
3 805 806 727
3 730 729 806
3 730 806 807
3 809 808 733
3 809 733 732
3 726 733 804
3 804 733 808
3 807 810 730
3 730 810 734
3 734 811 735
3 810 811 734
3 736 735 811
3 736 811 812
3 814 813 739
3 814 739 738
3 739 815 740
3 813 815 739
3 732 740 809
3 809 740 815
3 812 816 736
3 736 816 741
3 741 817 742
3 816 817 741
3 742 818 743
3 817 818 742
3 743 819 744
3 818 819 743
3 744 820 745
3 819 820 744
3 745 821 746
3 820 821 745
3 746 822 747
3 821 822 746
3 747 823 748
3 822 823 747
3 748 824 749
3 823 824 748
3 738 749 814
3 814 749 824
3 825 751 752
3 753 825 752
3 827 826 755
3 755 826 754
3 828 755 756
3 828 827 755
3 756 751 825
3 829 756 825
3 828 756 829
3 825 753 829
3 753 830 829
3 753 757 830
3 832 831 759
3 759 831 758
3 833 759 760
3 833 832 759
3 760 754 826
3 760 826 833
3 834 830 757
3 834 757 761
3 761 762 834
3 834 762 835
3 837 836 764
3 764 836 763
3 838 764 765
3 838 837 764
3 839 765 766
3 839 838 765
3 766 758 831
3 766 831 839
3 767 835 762
3 767 840 835
3 842 841 769
3 769 841 768
3 769 763 836
3 769 836 842
3 770 840 767
3 770 843 840
3 844 771 772
3 845 844 772
3 768 845 772
3 841 845 768
3 773 843 770
3 773 846 843
3 847 774 775
3 848 847 775
3 848 775 771
3 849 848 771
3 844 849 771
3 849 844 845
3 777 846 773
3 777 850 846
3 851 779 780
3 851 780 852
3 780 853 852
3 780 781 853
3 781 774 847
3 854 781 847
3 853 781 854
3 854 847 848
3 856 855 782
3 856 782 783
3 777 782 850
3 850 782 855
3 858 857 786
3 786 857 785
3 859 786 787
3 859 858 786
3 860 787 789
3 860 859 787
3 861 789 790
3 861 860 789
3 862 790 791
3 862 861 790
3 863 791 792
3 863 862 791
3 864 792 793
3 864 863 792
3 793 779 851
3 865 793 851
3 864 793 865
3 865 851 852
3 867 866 794
3 867 794 795
3 783 794 856
3 856 794 866
3 857 796 785
3 868 796 857
3 870 869 797
3 870 797 798
3 795 797 867
3 867 797 869
3 872 799 871
3 799 868 871
3 799 796 868
3 873 872 871
3 800 870 798
3 800 874 870
3 872 801 799
3 876 875 802
3 876 802 801
3 873 876 801
3 872 873 801
3 877 875 876
3 879 878 803
3 879 803 804
3 800 803 874
3 874 803 878
3 875 805 802
3 877 880 875
3 880 805 875
3 880 806 805
3 882 881 807
3 806 882 807
3 880 882 806
3 883 881 882
3 886 885 884
3 808 809 884
3 885 808 884
3 887 808 885
3 804 808 879
3 879 808 887
3 881 810 807
3 883 888 881
3 888 810 881
3 888 811 810
3 890 889 812
3 811 890 812
3 888 890 811
3 891 889 890
3 893 892 813
3 893 813 814
3 884 815 886
3 815 892 886
3 815 813 892
3 815 884 809
3 889 816 812
3 891 894 889
3 894 816 889
3 894 817 816
3 817 895 818
3 894 895 817
3 818 896 819
3 895 896 818
3 819 897 820
3 896 897 819
3 820 898 821
3 897 898 820
3 821 899 822
3 898 899 821
3 822 900 823
3 899 900 822
3 823 901 824
3 900 901 823
3 814 824 893
3 893 824 901
3 903 902 827
3 827 902 826
3 904 827 828
3 904 903 827
3 906 904 905
3 904 829 905
3 904 828 829
3 830 905 829
3 908 907 832
3 832 907 831
3 909 832 833
3 909 908 832
3 833 826 902
3 833 902 909
3 910 906 905
3 912 910 911
3 911 910 834
3 910 905 834
3 905 830 834
3 835 911 834
3 913 836 837
3 913 837 914
3 837 915 914
3 837 838 915
3 916 838 839
3 916 915 838
3 839 831 907
3 839 907 916
3 917 912 911
3 911 835 917
3 835 918 917
3 835 840 918
3 919 841 842
3 920 919 842
3 920 842 836
3 921 920 836
3 913 921 836
3 921 913 914
3 843 918 840
3 843 922 918
3 924 923 919
3 923 841 919
3 923 845 841
3 924 919 920
3 846 922 843
3 846 925 922
3 927 926 849
3 849 926 848
3 849 845 923
3 849 923 927
3 850 925 846
3 850 928 925
3 929 852 853
3 929 853 930
3 853 931 930
3 853 854 931
3 854 848 926
3 854 926 931
3 933 932 855
3 933 855 856
3 850 855 928
3 928 855 932
3 934 857 858
3 934 858 935
3 858 936 935
3 858 859 936
3 937 859 860
3 937 936 859
3 938 860 861
3 938 937 860
3 939 861 862
3 939 938 861
3 940 862 863
3 940 939 862
3 941 863 864
3 941 940 863
3 942 864 865
3 942 941 864
3 865 852 929
3 943 865 929
3 942 865 943
3 943 929 930
3 867 944 866
3 944 945 866
3 945 856 866
3 945 933 856
3 946 868 934
3 934 868 857
3 934 935 947
3 934 947 946
3 870 948 869
3 948 949 869
3 869 949 867
3 949 950 867
3 950 944 867
3 944 950 945
3 946 871 868
3 952 951 873
3 952 873 871
3 947 952 871
3 946 947 871
3 953 951 952
3 955 954 948
3 870 955 948
3 874 955 870
3 948 954 949
3 951 876 873
3 957 956 877
3 957 877 876
3 953 957 876
3 951 953 876
3 958 956 957
3 960 959 878
3 960 878 879
3 874 878 955
3 955 878 959
3 956 880 877
3 958 961 956
3 961 880 956
3 961 882 880
3 883 882 961
3 883 961 962
3 964 963 885
3 964 885 886
3 885 965 887
3 963 965 885
3 879 887 960
3 960 887 965
3 962 966 883
3 883 966 888
3 888 967 890
3 966 967 888
3 891 890 967
3 891 967 968
3 970 969 892
3 970 892 893
3 886 892 964
3 964 892 969
3 968 971 891
3 891 971 894
3 894 972 895
3 971 972 894
3 895 973 896
3 972 973 895
3 896 974 897
3 973 974 896
3 897 975 898
3 974 975 897
3 975 977 976
3 899 975 976
3 898 975 899
3 899 976 978
3 979 899 978
3 900 899 979
3 900 980 901
3 979 980 900
3 893 901 970
3 970 901 980
3 977 981 976
3 976 981 978
3 983 982 903
3 903 982 902
3 984 903 904
3 984 983 903
3 904 906 984
3 984 906 985
3 987 986 908
3 908 986 907
3 988 908 909
3 988 987 908
3 909 902 982
3 909 982 988
3 906 910 989
3 990 906 989
3 985 906 990
3 912 989 910
3 992 991 915
3 915 991 914
3 993 915 916
3 993 992 915
3 916 907 986
3 916 986 993
3 994 990 989
3 996 994 995
3 995 994 917
3 994 989 917
3 989 912 917
3 918 995 917
3 998 997 921
3 921 997 920
3 921 914 991
3 921 991 998
3 996 995 999
3 996 999 1000
3 922 999 918
3 918 999 995
3 1002 1001 924
3 924 1001 923
3 924 920 997
3 924 997 1002
3 1000 999 1003
3 1000 1003 1004
3 925 1003 922
3 922 1003 999
3 1006 1005 927
3 927 1005 926
3 927 923 1001
3 927 1001 1006
3 1007 1004 1003
3 1003 925 1007
3 925 1008 1007
3 925 928 1008
3 1010 1009 931
3 931 1009 930
3 931 926 1005
3 931 1005 1010
3 1012 1011 932
3 1012 932 933
3 928 932 1008
3 1008 932 1011
3 1013 935 936
3 937 1014 936
3 936 1014 1013
3 1014 937 1015
3 937 1016 1015
3 937 938 1016
3 1017 938 939
3 1017 1016 938
3 1018 939 940
3 1018 1017 939
3 1019 940 941
3 1019 1018 940
3 1020 941 942
3 1020 1019 941
3 1021 942 943
3 1021 1020 942
3 943 930 1009
3 943 1009 1021
3 945 1012 933
3 945 1022 1012
3 1023 947 1013
3 1013 947 935
3 1024 1013 1014
3 1023 1013 1024
3 1014 1015 1025
3 1014 1025 1024
3 1028 1027 1026
3 950 949 1026
3 1027 950 1026
3 1029 950 1027
3 945 950 1022
3 1022 950 1029
3 1023 952 947
3 952 1023 953
3 1023 1030 953
3 1023 1024 1030
3 1024 1025 1031
3 1024 1031 1030
3 1034 1033 1032
3 1032 1033 1028
3 1032 1028 1026
3 955 1032 1026
3 954 955 1026
3 954 1026 949
3 1030 957 953
3 958 957 1030
3 1031 958 1030
3 1035 958 1031
3 1038 1037 1036
3 1036 1037 1034
3 1036 1034 1032
3 960 1036 1032
3 959 960 1032
3 959 1032 955
3 1035 1039 958
3 958 1039 961
3 962 961 1039
3 962 1039 1040
3 1042 1041 963
3 1042 963 964
3 1036 965 1038
3 965 1041 1038
3 965 963 1041
3 965 1036 960
3 1040 1043 962
3 962 1043 966
3 966 1044 967
3 1043 1044 966
3 968 967 1044
3 968 1044 1045
3 1047 1046 969
3 1047 969 970
3 964 969 1042
3 1042 969 1046
3 1045 1048 968
3 968 1048 971
3 971 1049 972
3 1048 1049 971
3 972 1050 973
3 1049 1050 972
3 973 1051 974
3 1050 1051 973
3 974 1052 975
3 1051 1052 974
3 1054 1053 977
3 975 1054 977
3 1052 1054 975
3 979 978 1053
3 1054 979 1053
3 1055 979 1054
3 979 1056 980
3 1055 1056 979
3 970 980 1047
3 1047 980 1056
3 1053 981 977
3 981 1053 978
3 1057 982 983
3 984 1058 983
3 983 1058 1057
3 985 1058 984
3 1060 1059 987
3 987 1059 986
3 1061 987 988
3 1061 1060 987
3 988 982 1057
3 1062 988 1057
3 1061 988 1062
3 1062 1057 1058
3 1062 1058 1063
3 1058 985 1063
3 985 1064 1063
3 985 990 1064
3 1066 1065 992
3 992 1065 991
3 1067 992 993
3 1067 1066 992
3 993 986 1059
3 993 1059 1067
3 990 994 1068
3 1069 990 1068
3 1064 990 1069
3 996 1068 994
3 1071 1070 998
3 998 1070 997
3 998 991 1065
3 998 1065 1071
3 1069 1068 1072
3 1069 1072 1073
3 1000 1072 996
3 996 1072 1068
3 1075 1074 1002
3 1002 1074 1001
3 1002 997 1070
3 1002 1070 1075
3 1076 1073 1072
3 1072 1000 1076
3 1000 1077 1076
3 1000 1004 1077
3 1079 1078 1006
3 1006 1078 1005
3 1006 1001 1074
3 1006 1074 1079
3 1004 1007 1080
3 1081 1004 1080
3 1077 1004 1081
3 1008 1080 1007
3 1083 1082 1010
3 1010 1082 1009
3 1010 1005 1078
3 1010 1078 1083
3 1081 1080 1011
3 1012 1081 1011
3 1084 1081 1012
3 1011 1080 1008
3 1085 1015 1016
3 1085 1016 1086
3 1016 1087 1086
3 1016 1017 1087
3 1088 1017 1018
3 1088 1087 1017
3 1089 1018 1019
3 1089 1088 1018
3 1090 1019 1020
3 1090 1089 1019
3 1091 1020 1021
3 1091 1090 1020
3 1021 1009 1082
3 1021 1082 1091
3 1022 1084 1012
3 1022 1092 1084
3 1093 1025 1085
3 1085 1025 1015
3 1085 1086 1094
3 1085 1094 1093
3 1096 1095 1027
3 1096 1027 1028
3 1027 1097 1029
3 1095 1097 1027
3 1022 1029 1092
3 1092 1029 1097
3 1098 1031 1093
3 1093 1031 1025
3 1093 1094 1099
3 1093 1099 1098
3 1101 1100 1033
3 1101 1033 1034
3 1028 1033 1096
3 1096 1033 1100
3 1102 1035 1098
3 1098 1035 1031
3 1098 1099 1103
3 1098 1103 1102
3 1105 1104 1037
3 1105 1037 1038
3 1034 1037 1101
3 1101 1037 1104
3 1102 1039 1035
3 1107 1106 1040
3 1107 1040 1039
3 1103 1107 1039
3 1102 1103 1039
3 1108 1106 1107
3 1110 1109 1041
3 1110 1041 1042
3 1038 1041 1105
3 1105 1041 1109
3 1106 1043 1040
3 1108 1111 1106
3 1111 1043 1106
3 1111 1044 1043
3 1045 1044 1111
3 1045 1111 1112
3 1115 1114 1113
3 1046 1047 1113
3 1114 1046 1113
3 1116 1046 1114
3 1042 1046 1110
3 1110 1046 1116
3 1112 1117 1045
3 1045 1117 1048
3 1048 1118 1049
3 1117 1118 1048
3 1049 1119 1050
3 1118 1119 1049
3 1050 1120 1051
3 1119 1120 1050
3 1120 1122 1121
3 1052 1120 1121
3 1051 1120 1052
3 1052 1121 1123
3 1124 1052 1123
3 1054 1052 1124
3 1054 1125 1055
3 1124 1125 1054
3 1113 1056 1115
3 1056 1125 1115
3 1056 1055 1125
3 1056 1113 1047
3 1122 1126 1121
3 1121 1126 1123
3 1127 1059 1060
3 1061 1128 1060
3 1060 1128 1127
3 1062 1129 1061
3 1061 1129 1128
3 1063 1130 1062
3 1062 1130 1129
3 1064 1130 1063
3 1131 1065 1066
3 1131 1066 1132
3 1066 1133 1132
3 1066 1067 1133
3 1067 1059 1127
3 1134 1067 1127
3 1133 1067 1134
3 1134 1127 1128
3 1134 1128 1135
3 1135 1128 1129
3 1135 1129 1136
3 1136 1129 1130
3 1136 1130 1137
3 1130 1064 1137
3 1064 1138 1137
3 1064 1069 1138
3 1139 1070 1071
3 1140 1139 1071
3 1140 1071 1065
3 1141 1140 1065
3 1131 1141 1065
3 1141 1131 1132
3 1073 1138 1069
3 1073 1142 1138
3 1144 1143 1075
3 1075 1143 1074
3 1075 1070 1139
3 1145 1075 1139
3 1144 1075 1145
3 1145 1139 1140
3 1073 1076 1146
3 1147 1073 1146
3 1142 1073 1147
3 1077 1146 1076
3 1149 1148 1079
3 1079 1148 1078
3 1079 1074 1143
3 1079 1143 1149
3 1150 1147 1146
3 1146 1077 1150
3 1077 1151 1150
3 1077 1081 1151
3 1153 1152 1083
3 1083 1152 1082
3 1083 1078 1148
3 1083 1148 1153
3 1084 1151 1081
3 1084 1154 1151
3 1155 1086 1087
3 1155 1087 1156
3 1087 1157 1156
3 1087 1088 1157
3 1158 1088 1089
3 1158 1157 1088
3 1159 1089 1090
3 1159 1158 1089
3 1160 1090 1091
3 1160 1159 1090
3 1091 1082 1152
3 1091 1152 1160
3 1163 1162 1161
3 1162 1154 1161
3 1154 1092 1161
3 1154 1084 1092
3 1165 1164 1155
3 1164 1086 1155
3 1164 1094 1086
3 1165 1155 1156
3 1167 1166 1095
3 1167 1095 1096
3 1161 1097 1163
3 1097 1166 1163
3 1097 1095 1166
3 1097 1161 1092
3 1164 1099 1094
3 1168 1099 1164
3 1170 1169 1100
3 1170 1100 1101
3 1096 1100 1167
3 1167 1100 1169
3 1172 1103 1171
3 1103 1168 1171
3 1103 1099 1168
3 1173 1172 1171
3 1175 1174 1104
3 1175 1104 1105
3 1101 1104 1170
3 1170 1104 1174
3 1172 1107 1103
3 1108 1107 1172
3 1173 1108 1172
3 1176 1108 1173
3 1178 1177 1109
3 1178 1109 1110
3 1105 1109 1175
3 1175 1109 1177
3 1176 1179 1108
3 1108 1179 1111
3 1112 1111 1179
3 1112 1179 1180
3 1182 1181 1114
3 1182 1114 1115
3 1114 1183 1116
3 1181 1183 1114
3 1110 1116 1178
3 1178 1116 1183
3 1180 1184 1112
3 1112 1184 1117
3 1117 1185 1118
3 1184 1185 1117
3 1118 1186 1119
3 1185 1186 1118
3 1119 1187 1120
3 1186 1187 1119
3 1189 1188 1122
3 1120 1189 1122
3 1187 1189 1120
3 1124 1123 1188
3 1189 1124 1188
3 1190 1124 1189
3 1124 1191 1125
3 1190 1191 1124
3 1115 1125 1182
3 1182 1125 1191
3 1188 1126 1122
3 1126 1188 1123
3 1192 1132 1133
3 1134 1193 1133
3 1133 1193 1192
3 1193 1134 1194
3 1134 1195 1194
3 1134 1135 1195
3 1196 1135 1136
3 1196 1195 1135
3 1197 1136 1137
3 1197 1196 1136
3 1137 1138 1197
3 1197 1138 1198
3 1200 1199 1141
3 1141 1199 1140
3 1141 1132 1192
3 1201 1141 1192
3 1200 1141 1201
3 1201 1192 1193
3 1201 1193 1202
3 1202 1193 1194
3 1142 1198 1138
3 1142 1203 1198
3 1204 1143 1144
3 1204 1144 1205
3 1144 1206 1205
3 1144 1145 1206
3 1145 1140 1199
3 1145 1199 1206
3 1147 1203 1142
3 1147 1207 1203
3 1208 1148 1149
3 1209 1208 1149
3 1209 1149 1143
3 1210 1209 1143
3 1204 1210 1143
3 1210 1204 1205
3 1147 1150 1211
3 1212 1147 1211
3 1207 1147 1212
3 1151 1211 1150
3 1214 1213 1153
3 1153 1213 1152
3 1153 1148 1208
3 1215 1153 1208
3 1214 1153 1215
3 1215 1208 1209
3 1212 1211 1216
3 1212 1216 1217
3 1154 1216 1151
3 1151 1216 1211
3 1218 1156 1157
3 1218 1157 1219
3 1157 1220 1219
3 1157 1158 1220
3 1221 1158 1159
3 1221 1220 1158
3 1222 1159 1160
3 1222 1221 1159
3 1160 1152 1213
3 1160 1213 1222
3 1217 1216 1162
3 1163 1217 1162
3 1223 1217 1163
3 1162 1216 1154
3 1224 1164 1165
3 1225 1224 1165
3 1225 1165 1156
3 1226 1225 1156
3 1218 1226 1156
3 1226 1218 1219
3 1229 1228 1227
3 1166 1167 1227
3 1228 1166 1227
3 1230 1166 1228
3 1163 1166 1223
3 1223 1166 1230
3 1231 1168 1224
3 1224 1168 1164
3 1224 1225 1232
3 1224 1232 1231
3 1235 1234 1233
3 1233 1234 1229
3 1233 1229 1227
3 1170 1233 1227
3 1169 1170 1227
3 1169 1227 1167
3 1231 1171 1168
3 1173 1171 1231
3 1232 1173 1231
3 1236 1173 1232
3 1239 1238 1237
3 1237 1238 1235
3 1237 1235 1233
3 1175 1237 1233
3 1174 1175 1233
3 1174 1233 1170
3 1241 1176 1240
3 1176 1236 1240
3 1176 1173 1236
3 1242 1241 1240
3 1245 1244 1243
3 1243 1244 1239
3 1243 1239 1237
3 1178 1243 1237
3 1177 1178 1237
3 1177 1237 1175
3 1241 1179 1176
3 1247 1246 1180
3 1247 1180 1179
3 1242 1247 1179
3 1241 1242 1179
3 1249 1248 1246
3 1249 1246 1247
3 1250 1248 1249
3 1253 1252 1251
3 1181 1182 1251
3 1252 1181 1251
3 1254 1181 1252
3 1243 1183 1245
3 1183 1254 1245
3 1183 1181 1254
3 1183 1243 1178
3 1246 1184 1180
3 1184 1246 1185
3 1185 1246 1248
3 1250 1255 1248
3 1255 1185 1248
3 1255 1186 1185
3 1186 1256 1187
3 1255 1256 1186
3 1187 1257 1189
3 1256 1257 1187
3 1189 1258 1190
3 1257 1258 1189
3 1251 1191 1253
3 1191 1258 1253
3 1191 1190 1258
3 1191 1251 1182
3 1259 1194 1195
3 1259 1195 1260
3 1195 1261 1260
3 1195 1196 1261
3 1263 1261 1262
3 1261 1197 1262
3 1261 1196 1197
3 1198 1262 1197
3 1264 1199 1200
3 1264 1200 1265
3 1200 1266 1265
3 1200 1201 1266
3 1267 1201 1202
3 1267 1266 1201
3 1202 1194 1259
3 1268 1202 1259
3 1267 1202 1268
3 1268 1259 1260
3 1263 1262 1269
3 1263 1269 1270
3 1203 1269 1198
3 1198 1269 1262
3 1272 1271 1206
3 1206 1271 1205
3 1206 1199 1264
3 1273 1206 1264
3 1272 1206 1273
3 1273 1264 1265
3 1270 1269 1274
3 1270 1274 1275
3 1207 1274 1203
3 1203 1274 1269
3 1277 1276 1210
3 1210 1276 1209
3 1210 1205 1271
3 1210 1271 1277
3 1275 1274 1278
3 1275 1278 1279
3 1212 1278 1207
3 1207 1278 1274
3 1281 1280 1214
3 1214 1280 1213
3 1282 1214 1215
3 1282 1281 1214
3 1215 1209 1276
3 1215 1276 1282
3 1279 1278 1283
3 1279 1283 1284
3 1217 1283 1212
3 1212 1283 1278
3 1285 1219 1220
3 1285 1220 1286
3 1220 1287 1286
3 1220 1221 1287
3 1288 1221 1222
3 1288 1287 1221
3 1222 1213 1280
3 1222 1280 1288
3 1291 1290 1289
3 1289 1290 1284
3 1283 1289 1284
3 1292 1289 1283
3 1223 1292 1217
3 1217 1292 1283
3 1293 1225 1226
3 1294 1293 1226
3 1294 1226 1219
3 1295 1294 1219
3 1285 1295 1219
3 1295 1285 1286
3 1298 1297 1296
3 1296 1297 1291
3 1296 1291 1289
3 1229 1296 1289
3 1228 1229 1289
3 1228 1289 1230
3 1230 1289 1292
3 1230 1292 1223
3 1300 1299 1293
3 1299 1225 1293
3 1299 1232 1225
3 1300 1293 1294
3 1298 1296 1234
3 1235 1298 1234
3 1301 1298 1235
3 1234 1296 1229
3 1299 1236 1232
3 1302 1236 1299
3 1304 1303 1238
3 1304 1238 1239
3 1235 1238 1301
3 1301 1238 1303
3 1302 1305 1236
3 1236 1305 1240
3 1242 1240 1305
3 1242 1305 1306
3 1309 1308 1307
3 1244 1245 1307
3 1308 1244 1307
3 1310 1244 1308
3 1239 1244 1304
3 1304 1244 1310
3 1306 1311 1242
3 1242 1311 1247
3 1247 1312 1249
3 1311 1312 1247
3 1250 1249 1312
3 1250 1312 1313
3 1316 1315 1314
3 1252 1253 1314
3 1315 1252 1314
3 1317 1252 1315
3 1307 1254 1309
3 1254 1317 1309
3 1254 1252 1317
3 1254 1307 1245
3 1313 1318 1250
3 1250 1318 1255
3 1255 1319 1256
3 1318 1319 1255
3 1256 1320 1257
3 1319 1320 1256
3 1314 1258 1316
3 1258 1320 1316
3 1258 1257 1320
3 1258 1314 1253
3 1321 1260 1261
3 1263 1321 1261
3 1323 1322 1266
3 1266 1322 1265
3 1324 1266 1267
3 1324 1323 1266
3 1325 1267 1268
3 1325 1324 1267
3 1268 1260 1321
3 1326 1268 1321
3 1325 1268 1326
3 1321 1263 1326
3 1263 1327 1326
3 1263 1270 1327
3 1328 1271 1272
3 1328 1272 1329
3 1272 1330 1329
3 1272 1273 1330
3 1273 1265 1322
3 1273 1322 1330
3 1275 1327 1270
3 1275 1331 1327
3 1333 1332 1277
3 1277 1332 1276
3 1277 1271 1328
3 1334 1277 1328
3 1333 1277 1334
3 1334 1328 1329
3 1337 1336 1335
3 1336 1331 1335
3 1331 1279 1335
3 1331 1275 1279
3 1339 1338 1281
3 1281 1338 1280
3 1340 1281 1282
3 1340 1339 1281
3 1282 1276 1332
3 1282 1332 1340
3 1337 1335 1341
3 1337 1341 1342
3 1284 1341 1279
3 1279 1341 1335
3 1344 1343 1287
3 1287 1343 1286
3 1345 1287 1288
3 1345 1344 1287
3 1288 1280 1338
3 1288 1338 1345
3 1342 1341 1290
3 1291 1342 1290
3 1346 1342 1291
3 1290 1341 1284
3 1348 1347 1295
3 1295 1347 1294
3 1295 1286 1343
3 1295 1343 1348
3 1350 1349 1297
3 1350 1297 1298
3 1291 1297 1346
3 1346 1297 1349
3 1352 1351 1300
3 1300 1351 1299
3 1300 1294 1347
3 1300 1347 1352
3 1355 1354 1353
3 1354 1350 1353
3 1350 1301 1353
3 1350 1298 1301
3 1357 1302 1356
3 1302 1351 1356
3 1302 1299 1351
3 1358 1357 1356
3 1361 1360 1359
3 1363 1362 1359
3 1363 1359 1360
3 1362 1363 1355
3 1362 1355 1353
3 1304 1362 1353
3 1303 1304 1353
3 1303 1353 1301
3 1357 1305 1302
3 1365 1364 1306
3 1365 1306 1305
3 1358 1365 1305
3 1357 1358 1305
3 1366 1364 1365
3 1369 1368 1367
3 1367 1368 1361
3 1367 1361 1359
3 1309 1367 1359
3 1308 1309 1359
3 1308 1359 1310
3 1310 1359 1362
3 1310 1362 1304
3 1364 1311 1306
3 1366 1370 1364
3 1370 1311 1364
3 1370 1312 1311
3 1372 1371 1313
3 1312 1372 1313
3 1370 1372 1312
3 1374 1373 1371
3 1374 1371 1372
3 1376 1375 1373
3 1376 1373 1374
3 1315 1316 1375
3 1376 1315 1375
3 1377 1315 1376
3 1367 1317 1369
3 1317 1377 1369
3 1317 1315 1377
3 1317 1367 1309
3 1371 1318 1313
3 1318 1371 1319
3 1319 1371 1373
3 1319 1373 1320
3 1320 1373 1375
3 1320 1375 1316
3 1378 1322 1323
3 1324 1379 1323
3 1323 1379 1378
3 1325 1380 1324
3 1324 1380 1379
3 1326 1381 1325
3 1325 1381 1380
3 1327 1381 1326
3 1383 1382 1330
3 1330 1382 1329
3 1330 1322 1378
3 1384 1330 1378
3 1383 1330 1384
3 1386 1385 1384
3 1378 1386 1384
3 1379 1386 1378
3 1387 1379 1380
3 1386 1379 1387
3 1388 1380 1381
3 1387 1380 1388
3 1331 1388 1327
3 1327 1388 1381
3 1390 1389 1333
3 1333 1389 1332
3 1391 1333 1334
3 1391 1390 1333
3 1334 1329 1382
3 1334 1382 1391
3 1392 1385 1386
3 1394 1393 1392
3 1386 1394 1392
3 1387 1394 1386
3 1337 1394 1336
3 1394 1388 1336
3 1394 1387 1388
3 1336 1388 1331
3 1396 1395 1339
3 1339 1395 1338
3 1397 1339 1340
3 1397 1396 1339
3 1340 1332 1389
3 1340 1389 1397
3 1393 1394 1398
3 1393 1398 1399
3 1342 1398 1337
3 1337 1398 1394
3 1401 1400 1344
3 1344 1400 1343
3 1402 1344 1345
3 1402 1401 1344
3 1345 1338 1395
3 1345 1395 1402
3 1405 1404 1403
3 1403 1404 1399
3 1398 1403 1399
3 1406 1403 1398
3 1346 1406 1342
3 1342 1406 1398
3 1408 1407 1348
3 1348 1407 1347
3 1348 1343 1400
3 1348 1400 1408
3 1411 1410 1409
3 1409 1410 1405
3 1403 1409 1405
3 1412 1409 1403
3 1350 1412 1349
3 1412 1406 1349
3 1412 1403 1406
3 1349 1406 1346
3 1414 1413 1352
3 1352 1413 1351
3 1352 1347 1407
3 1352 1407 1414
3 1417 1416 1415
3 1419 1418 1415
3 1419 1415 1416
3 1418 1419 1411
3 1409 1418 1411
3 1420 1418 1409
3 1355 1420 1354
3 1420 1412 1354
3 1420 1409 1412
3 1354 1412 1350
3 1413 1421 1351
3 1351 1421 1356
3 1358 1356 1421
3 1358 1421 1422
3 1425 1424 1423
3 1423 1424 1417
3 1415 1423 1417
3 1426 1423 1415
3 1361 1426 1360
3 1426 1418 1360
3 1426 1415 1418
3 1360 1418 1363
3 1363 1418 1420
3 1363 1420 1355
3 1422 1427 1358
3 1358 1427 1365
3 1429 1428 1366
3 1365 1429 1366
3 1427 1429 1365
3 1430 1428 1429
3 1433 1432 1431
3 1431 1432 1425
3 1423 1431 1425
3 1434 1431 1423
3 1369 1434 1368
3 1434 1426 1368
3 1434 1423 1426
3 1368 1426 1361
3 1428 1370 1366
3 1430 1435 1428
3 1435 1370 1428
3 1435 1372 1370
3 1372 1436 1374
3 1435 1436 1372
3 1431 1376 1433
3 1376 1436 1433
3 1376 1374 1436
3 1376 1431 1377
3 1377 1431 1434
3 1377 1434 1369
3 1438 1437 1383
3 1383 1437 1382
3 1440 1438 1439
3 1438 1384 1439
3 1438 1383 1384
3 1385 1439 1384
3 1441 1389 1390
3 1441 1390 1442
3 1390 1443 1442
3 1390 1391 1443
3 1391 1382 1437
3 1391 1437 1443
3 1440 1439 1444
3 1440 1444 1445
3 1392 1446 1385
3 1446 1439 1385
3 1446 1444 1439
3 1393 1446 1392
3 1448 1447 1396
3 1396 1447 1395
3 1449 1396 1397
3 1449 1448 1396
3 1397 1389 1441
3 1450 1397 1441
3 1449 1397 1450
3 1450 1441 1442
3 1445 1444 1451
3 1445 1451 1452
3 1453 1444 1446
3 1451 1444 1453
3 1399 1453 1393
3 1393 1453 1446
3 1455 1454 1401
3 1401 1454 1400
3 1456 1401 1402
3 1456 1455 1401
3 1402 1395 1447
3 1402 1447 1456
3 1459 1458 1457
3 1457 1458 1452
3 1451 1457 1452
3 1460 1457 1451
3 1405 1460 1404
3 1460 1453 1404
3 1460 1451 1453
3 1404 1453 1399
3 1461 1407 1408
3 1462 1461 1408
3 1400 1462 1408
3 1454 1462 1400
3 1465 1464 1463
3 1463 1464 1459
3 1457 1463 1459
3 1466 1463 1457
3 1411 1466 1410
3 1466 1460 1410
3 1466 1457 1460
3 1410 1460 1405
3 1467 1413 1414
3 1407 1461 1414
3 1461 1467 1414
3 1461 1468 1467
3 1461 1462 1469
3 1461 1469 1468
3 1472 1471 1470
3 1470 1471 1465
3 1470 1465 1463
3 1417 1470 1463
3 1416 1417 1463
3 1416 1463 1419
3 1419 1463 1466
3 1419 1466 1411
3 1467 1421 1413
3 1421 1467 1422
3 1467 1473 1422
3 1467 1468 1473
3 1468 1469 1474
3 1475 1468 1474
3 1473 1468 1475
3 1476 1475 1474
3 1479 1478 1477
3 1481 1480 1477
3 1481 1477 1478
3 1480 1481 1472
3 1480 1472 1470
3 1425 1480 1470
3 1424 1425 1470
3 1424 1470 1417
3 1473 1427 1422
3 1427 1473 1429
3 1429 1473 1475
3 1483 1482 1430
3 1483 1430 1429
3 1476 1483 1429
3 1475 1476 1429
3 1482 1483 1479
3 1477 1482 1479
3 1484 1482 1477
3 1433 1484 1432
3 1484 1480 1432
3 1484 1477 1480
3 1432 1480 1425
3 1482 1435 1430
3 1435 1482 1436
3 1436 1482 1484
3 1436 1484 1433
3 1485 1437 1438
3 1440 1485 1438
3 1487 1486 1443
3 1443 1486 1442
3 1487 1443 1437
3 1488 1487 1437
3 1485 1488 1437
3 1487 1488 1489
3 1445 1488 1440
3 1440 1488 1485
3 1490 1447 1448
3 1490 1448 1491
3 1448 1492 1491
3 1448 1449 1492
3 1493 1449 1450
3 1493 1492 1449
3 1486 1494 1442
3 1494 1495 1442
3 1496 1442 1495
3 1442 1496 1450
3 1497 1450 1496
3 1450 1497 1494
3 1494 1493 1450
3 1486 1493 1494
3 1494 1497 1495
3 1496 1495 1489
3 1488 1496 1489
3 1498 1496 1488
3 1452 1498 1445
3 1445 1498 1488
3 1499 1454 1455
3 1499 1455 1500
3 1455 1501 1500
3 1455 1456 1501
3 1456 1447 1490
3 1502 1456 1490
3 1501 1456 1502
3 1502 1490 1491
3 1505 1504 1503
3 1503 1504 1497
3 1496 1503 1497
3 1506 1503 1496
3 1459 1506 1458
3 1506 1498 1458
3 1506 1496 1498
3 1458 1498 1452
3 1507 1462 1499
3 1499 1462 1454
3 1499 1500 1508
3 1499 1508 1507
3 1511 1510 1509
3 1509 1510 1505
3 1503 1509 1505
3 1512 1509 1503
3 1465 1512 1464
3 1512 1506 1464
3 1512 1503 1506
3 1464 1506 1459
3 1513 1469 1507
3 1507 1469 1462
3 1507 1508 1514
3 1515 1507 1514
3 1513 1507 1515
3 1517 1516 1515
3 1517 1515 1514
3 1516 1517 1511
3 1509 1516 1511
3 1518 1516 1509
3 1472 1518 1471
3 1518 1512 1471
3 1518 1509 1512
3 1471 1512 1465
3 1513 1474 1469
3 1474 1513 1476
3 1513 1519 1476
3 1513 1515 1519
3 1479 1519 1478
3 1519 1516 1478
3 1519 1515 1516
3 1478 1516 1481
3 1481 1516 1518
3 1481 1518 1472
3 1519 1483 1476
3 1483 1519 1479
3 1520 1486 1487
3 1489 1520 1487
3 1521 1491 1492
3 1493 1522 1492
3 1492 1522 1521
3 1493 1486 1522
3 1486 1520 1522
3 1495 1497 1522
3 1495 1522 1520
3 1495 1520 1489
3 1523 1500 1501
3 1502 1524 1501
3 1501 1524 1523
3 1491 1521 1502
3 1521 1524 1502
3 1521 1525 1524
3 1505 1525 1504
3 1525 1522 1504
3 1525 1521 1522
3 1504 1522 1497
3 1526 1508 1523
3 1523 1508 1500
3 1527 1523 1524
3 1526 1523 1527
3 1511 1527 1510
3 1527 1525 1510
3 1527 1524 1525
3 1510 1525 1505
3 1526 1514 1508
3 1514 1526 1517
3 1517 1526 1527
3 1517 1527 1511
