ply
format ascii 1.0
element vertex 910
property float x
property float y
property float z
element face 1816
property list uchar int vertex_indices
end_header
15.50000 16.00000 -9.00000
15.00000 16.00000 -9.50000
15.00000 15.50000 -9.00000
15.00000 15.50000 -8.00000
15.50000 16.00000 -8.00000
15.00000 16.00000 -7.50000
15.50000 17.00000 -9.00000
15.00000 17.00000 -9.50000
15.50000 17.00000 -8.00000
15.00000 17.00000 -7.50000
15.50000 18.00000 -9.00000
15.00000 18.00000 -9.50000
15.50000 18.00000 -8.00000
15.00000 18.00000 -7.50000
15.00000 18.50000 -9.00000
15.00000 18.50000 -8.00000
14.50000 13.00000 -10.00000
14.00000 13.00000 -10.50000
14.00000 12.50000 -10.00000
14.00000 12.50000 -9.00000
14.50000 13.00000 -9.00000
14.00000 13.00000 -8.50000
14.50000 14.00000 -10.00000
14.00000 14.00000 -10.50000
14.50000 14.00000 -9.00000
14.00000 13.50000 -8.00000
14.50000 14.00000 -8.00000
14.00000 14.00000 -7.50000
14.00000 14.50000 -10.00000
14.50000 15.00000 -9.00000
14.00000 15.00000 -9.50000
14.50000 15.00000 -8.00000
14.00000 15.00000 -7.50000
14.00000 16.00000 -9.50000
14.00000 16.00000 -7.50000
14.00000 17.00000 -9.50000
14.00000 17.00000 -7.50000
14.00000 18.00000 -9.50000
14.00000 18.00000 -7.50000
14.50000 19.00000 -9.00000
14.00000 19.00000 -9.50000
14.50000 19.00000 -8.00000
14.00000 19.00000 -7.50000
14.00000 19.50000 -9.00000
14.00000 19.50000 -8.00000
13.50000 9.00000 -13.00000
13.00000 9.00000 -13.50000
13.00000 8.50000 -13.00000
13.00000 8.50000 -12.00000
13.50000 9.00000 -12.00000
13.00000 8.50000 -11.00000
13.50000 9.00000 -11.00000
13.00000 9.00000 -10.50000
13.50000 10.00000 -13.00000
13.00000 10.00000 -13.50000
13.50000 10.00000 -12.00000
13.50000 10.00000 -11.00000
13.00000 9.50000 -10.00000
13.50000 10.00000 -10.00000
13.00000 9.50000 -9.00000
13.50000 10.00000 -9.00000
13.00000 9.50000 -8.00000
13.50000 10.00000 -8.00000
13.00000 9.50000 -7.00000
13.50000 10.00000 -7.00000
13.00000 10.00000 -6.50000
13.00000 10.50000 -13.00000
13.50000 11.00000 -12.00000
13.00000 11.00000 -12.50000
13.50000 11.00000 -11.00000
13.50000 11.00000 -10.00000
13.50000 11.00000 -9.00000
13.50000 11.00000 -8.00000
13.50000 11.00000 -7.00000
13.00000 11.00000 -6.50000
13.00000 11.50000 -12.00000
13.50000 12.00000 -11.00000
13.00000 12.00000 -11.50000
13.50000 12.00000 -10.00000
13.50000 12.00000 -9.00000
13.50000 12.00000 -8.00000
13.50000 12.00000 -7.00000
13.00000 12.00000 -6.50000
13.50000 13.00000 -11.00000
13.00000 13.00000 -11.50000
13.50000 13.00000 -8.00000
13.00000 13.00000 -7.50000
13.00000 12.50000 -7.00000
13.00000 13.50000 -11.00000
13.00000 14.00000 -10.50000
13.00000 14.00000 -7.50000
13.50000 15.00000 -10.00000
13.00000 15.00000 -10.50000
13.00000 15.00000 -7.50000
13.50000 16.00000 -10.00000
13.00000 16.00000 -10.50000
13.00000 16.00000 -7.50000
13.00000 16.50000 -10.00000
13.00000 17.00000 -9.50000
13.00000 17.00000 -7.50000
13.00000 18.00000 -9.50000
13.00000 17.50000 -7.00000
13.50000 18.00000 -7.00000
13.00000 18.00000 -6.50000
13.00000 19.00000 -9.50000
13.50000 19.00000 -7.00000
13.00000 19.00000 -6.50000
13.00000 19.50000 -9.00000
13.50000 20.00000 -8.00000
13.00000 20.00000 -8.50000
13.00000 20.00000 -7.50000
13.00000 19.50000 -7.00000
13.00000 20.50000 -8.00000
12.50000 4.00000 -12.00000
12.00000 4.00000 -12.50000
12.00000 3.50000 -12.00000
12.00000 3.50000 -11.00000
12.50000 4.00000 -11.00000
12.00000 4.00000 -10.50000
12.00000 4.50000 -12.00000
12.00000 4.50000 -11.00000
12.50000 7.00000 -14.00000
12.00000 7.00000 -14.50000
12.00000 6.50000 -14.00000
12.00000 6.50000 -13.00000
12.50000 7.00000 -13.00000
12.00000 6.50000 -12.00000
12.50000 7.00000 -12.00000
12.00000 6.50000 -11.00000
12.50000 7.00000 -11.00000
12.00000 6.50000 -10.00000
12.50000 7.00000 -10.00000
12.00000 6.50000 -9.00000
12.50000 7.00000 -9.00000
12.00000 6.50000 -8.00000
12.50000 7.00000 -8.00000
12.00000 6.50000 -7.00000
12.50000 7.00000 -7.00000
12.00000 7.00000 -6.50000
12.50000 8.00000 -14.00000
12.00000 8.00000 -14.50000
12.50000 8.00000 -13.00000
12.50000 8.00000 -12.00000
12.50000 8.00000 -11.00000
12.50000 8.00000 -10.00000
12.50000 8.00000 -9.00000
12.50000 8.00000 -8.00000
12.50000 8.00000 -7.00000
12.00000 8.00000 -6.50000
12.50000 9.00000 -14.00000
12.00000 9.00000 -14.50000
12.50000 9.00000 -10.00000
12.50000 9.00000 -9.00000
12.50000 9.00000 -8.00000
12.50000 9.00000 -7.00000
12.00000 9.00000 -6.50000
12.00000 9.50000 -14.00000
12.00000 10.00000 -13.50000
12.00000 9.50000 -6.00000
12.50000 10.00000 -6.00000
12.00000 10.00000 -5.50000
12.00000 10.50000 -13.00000
12.00000 11.00000 -12.50000
12.00000 10.50000 -6.00000
12.00000 11.00000 -6.50000
12.00000 11.50000 -12.00000
12.00000 12.00000 -11.50000
12.00000 12.00000 -6.50000
12.00000 13.00000 -11.50000
12.50000 13.00000 -7.00000
12.00000 13.00000 -6.50000
12.00000 13.50000 -11.00000
12.00000 14.00000 -10.50000
12.00000 13.50000 -7.00000
12.00000 14.00000 -7.50000
12.00000 15.00000 -10.50000
12.00000 15.00000 -7.50000
12.00000 16.00000 -10.50000
12.00000 15.50000 -7.00000
12.50000 16.00000 -7.00000
12.00000 16.00000 -6.50000
12.00000 16.50000 -10.00000
12.00000 17.00000 -9.50000
12.50000 17.00000 -7.00000
12.00000 17.00000 -6.50000
12.00000 18.00000 -9.50000
12.00000 17.50000 -6.00000
12.50000 18.00000 -6.00000
12.00000 18.00000 -5.50000
12.00000 19.00000 -9.50000
12.50000 19.00000 -6.00000
12.00000 19.00000 -5.50000
12.00000 19.50000 -9.00000
12.00000 20.00000 -8.50000
12.50000 20.00000 -7.00000
12.50000 20.00000 -6.00000
12.00000 20.00000 -5.50000
12.00000 20.50000 -8.00000
12.00000 20.50000 -7.00000
12.00000 20.50000 -6.00000
11.50000 3.00000 -11.00000
11.00000 3.00000 -11.50000
11.00000 2.50000 -11.00000
11.00000 3.00000 -10.50000
11.00000 4.00000 -12.50000
11.00000 3.50000 -12.00000
11.00000 3.50000 -10.00000
11.50000 4.00000 -10.00000
11.00000 3.50000 -9.00000
11.50000 4.00000 -9.00000
11.00000 4.00000 -8.50000
11.50000 5.00000 -13.00000
11.00000 5.00000 -13.50000
11.00000 4.50000 -13.00000
11.50000 5.00000 -12.00000
11.50000 5.00000 -11.00000
11.50000 5.00000 -10.00000
11.50000 5.00000 -9.00000
11.00000 4.50000 -8.00000
11.50000 5.00000 -8.00000
11.00000 5.00000 -7.50000
11.50000 6.00000 -14.00000
11.00000 6.00000 -14.50000
11.00000 5.50000 -14.00000
11.50000 6.00000 -13.00000
11.50000 6.00000 -12.00000
11.50000 6.00000 -11.00000
11.50000 6.00000 -10.00000
11.50000 6.00000 -9.00000
11.50000 6.00000 -8.00000
11.00000 6.00000 -7.50000
11.00000 7.00000 -14.50000
11.00000 6.50000 -7.00000
11.00000 7.00000 -6.50000
11.00000 8.00000 -14.50000
11.00000 7.50000 -6.00000
11.50000 8.00000 -6.00000
11.00000 8.00000 -5.50000
11.00000 9.00000 -14.50000
11.50000 9.00000 -6.00000
11.00000 9.00000 -5.50000
11.00000 9.50000 -14.00000
11.00000 10.00000 -13.50000
11.00000 10.00000 -5.50000
11.00000 10.50000 -13.00000
11.00000 11.00000 -12.50000
11.00000 10.50000 -6.00000
11.00000 11.00000 -6.50000
11.50000 12.00000 -12.00000
11.00000 12.00000 -12.50000
11.00000 12.00000 -6.50000
11.00000 12.50000 -12.00000
11.00000 13.00000 -11.50000
11.00000 13.00000 -6.50000
11.00000 13.50000 -11.00000
11.00000 14.00000 -10.50000
11.50000 14.00000 -7.00000
11.00000 14.00000 -6.50000
11.00000 15.00000 -10.50000
11.50000 15.00000 -7.00000
11.00000 15.00000 -6.50000
11.00000 15.50000 -10.00000
11.50000 16.00000 -10.00000
11.00000 16.00000 -9.50000
11.00000 16.00000 -6.50000
11.00000 17.00000 -9.50000
11.00000 16.50000 -6.00000
11.50000 17.00000 -6.00000
11.00000 17.00000 -5.50000
11.00000 18.00000 -9.50000
11.00000 17.50000 -5.00000
11.50000 18.00000 -5.00000
11.00000 18.00000 -4.50000
11.00000 18.50000 -9.00000
11.50000 19.00000 -9.00000
11.00000 19.00000 -8.50000
11.50000 19.00000 -5.00000
11.00000 19.00000 -4.50000
11.50000 20.00000 -8.00000
11.00000 19.50000 -8.00000
11.00000 20.00000 -7.50000
11.50000 20.00000 -5.00000
11.00000 20.00000 -4.50000
11.00000 20.50000 -7.00000
11.00000 20.50000 -6.00000
11.00000 20.50000 -5.00000
10.50000 3.00000 -12.00000
10.00000 3.00000 -12.50000
10.00000 2.50000 -12.00000
10.00000 2.50000 -11.00000
10.00000 2.50000 -10.00000
10.50000 3.00000 -10.00000
10.00000 3.00000 -9.50000
10.50000 4.00000 -13.00000
10.00000 4.00000 -13.50000
10.00000 3.50000 -13.00000
10.00000 3.50000 -9.00000
10.00000 3.50000 -8.00000
10.50000 4.00000 -8.00000
10.00000 4.00000 -7.50000
10.00000 5.00000 -13.50000
10.00000 4.50000 -7.00000
10.50000 5.00000 -7.00000
10.00000 5.00000 -6.50000
10.00000 6.00000 -14.50000
10.00000 5.50000 -14.00000
10.50000 6.00000 -7.00000
10.00000 6.00000 -6.50000
10.00000 7.00000 -14.50000
10.00000 6.50000 -6.00000
10.50000 7.00000 -6.00000
10.00000 7.00000 -5.50000
10.50000 8.00000 -15.00000
10.00000 8.00000 -15.50000
10.00000 7.50000 -15.00000
10.00000 8.00000 -5.50000
10.00000 8.50000 -15.00000
10.00000 9.00000 -14.50000
10.00000 9.00000 -5.50000
10.00000 9.50000 -14.00000
10.00000 10.00000 -13.50000
10.50000 10.00000 -6.00000
10.00000 9.50000 -6.00000
10.00000 10.00000 -6.50000
10.00000 10.50000 -13.00000
10.00000 11.00000 -12.50000
10.00000 11.00000 -6.50000
10.00000 12.00000 -12.50000
10.00000 12.00000 -6.50000
10.00000 12.50000 -12.00000
10.00000 13.00000 -11.50000
10.00000 13.00000 -6.50000
10.00000 13.50000 -11.00000
10.00000 14.00000 -10.50000
10.00000 14.00000 -6.50000
10.00000 15.00000 -10.50000
10.00000 14.50000 -6.00000
10.50000 15.00000 -6.00000
10.00000 15.00000 -5.50000
10.00000 15.50000 -10.00000
10.00000 16.00000 -9.50000
10.50000 16.00000 -6.00000
10.00000 16.00000 -5.50000
10.00000 17.00000 -9.50000
10.00000 16.50000 -5.00000
10.50000 17.00000 -5.00000
10.00000 17.00000 -4.50000
10.00000 17.50000 -9.00000
10.50000 18.00000 -9.00000
10.00000 18.00000 -8.50000
10.00000 17.50000 -4.00000
10.50000 18.00000 -4.00000
10.00000 18.00000 -3.50000
10.50000 19.00000 -8.00000
10.00000 18.50000 -8.00000
10.00000 19.00000 -7.50000
10.50000 19.00000 -4.00000
10.00000 19.00000 -3.50000
10.50000 20.00000 -7.00000
10.00000 19.50000 -7.00000
10.00000 20.00000 -6.50000
10.50000 20.00000 -4.00000
10.00000 20.00000 -3.50000
10.00000 20.50000 -6.00000
10.00000 20.50000 -5.00000
10.00000 20.50000 -4.00000
9.00000 3.00000 -12.50000
9.00000 2.50000 -12.00000
9.00000 2.50000 -11.00000
9.00000 2.50000 -10.00000
9.00000 3.00000 -9.50000
9.50000 4.00000 -13.00000
9.00000 4.00000 -12.50000
9.00000 3.50000 -9.00000
9.00000 3.50000 -8.00000
9.00000 4.00000 -7.50000
9.00000 5.00000 -13.50000
9.00000 4.50000 -13.00000
9.00000 4.50000 -7.00000
9.00000 5.00000 -6.50000
9.00000 6.00000 -14.50000
9.00000 5.50000 -14.00000
9.00000 5.50000 -6.00000
9.50000 6.00000 -6.00000
9.00000 6.00000 -5.50000
9.00000 7.00000 -14.50000
9.00000 7.00000 -5.50000
9.50000 8.00000 -15.00000
9.00000 8.00000 -14.50000
9.00000 8.00000 -5.50000
9.00000 9.00000 -14.50000
9.00000 9.00000 -5.50000
9.00000 9.50000 -14.00000
9.00000 10.00000 -13.50000
9.50000 10.00000 -6.00000
9.00000 10.00000 -5.50000
9.00000 10.50000 -13.00000
9.00000 11.00000 -12.50000
9.00000 10.50000 -6.00000
9.00000 11.00000 -6.50000
9.00000 11.50000 -12.00000
9.50000 12.00000 -12.00000
9.00000 12.00000 -11.50000
9.00000 12.00000 -6.50000
9.00000 13.00000 -11.50000
9.00000 12.50000 -6.00000
9.50000 13.00000 -6.00000
9.00000 13.00000 -5.50000
9.00000 13.50000 -11.00000
9.00000 14.00000 -10.50000
9.50000 14.00000 -6.00000
9.00000 14.00000 -5.50000
9.00000 14.50000 -10.00000
9.50000 15.00000 -10.00000
9.00000 15.00000 -9.50000
9.00000 14.50000 -5.00000
9.50000 15.00000 -5.00000
9.00000 15.00000 -4.50000
9.00000 16.00000 -9.50000
9.50000 16.00000 -5.00000
9.00000 15.50000 -4.00000
9.50000 16.00000 -4.00000
9.00000 16.00000 -3.50000
9.00000 16.50000 -9.00000
9.50000 17.00000 -9.00000
9.00000 17.00000 -8.50000
9.50000 17.00000 -4.00000
9.00000 17.00000 -3.50000
9.50000 18.00000 -8.00000
9.00000 17.50000 -8.00000
9.00000 18.00000 -7.50000
9.00000 17.50000 -3.00000
9.50000 18.00000 -3.00000
9.00000 18.00000 -2.50000
9.50000 19.00000 -7.00000
9.00000 18.50000 -7.00000
9.00000 19.00000 -6.50000
9.50000 19.00000 -3.00000
9.00000 19.00000 -2.50000
9.50000 20.00000 -6.00000
9.00000 19.50000 -6.00000
9.00000 20.00000 -5.50000
9.50000 20.00000 -3.00000
9.00000 20.00000 -2.50000
9.00000 20.50000 -5.00000
9.00000 20.50000 -4.00000
9.00000 20.50000 -3.00000
8.50000 3.00000 -12.00000
8.00000 3.00000 -11.50000
8.00000 2.50000 -11.00000
8.00000 2.50000 -10.00000
8.00000 2.50000 -9.00000
8.50000 3.00000 -9.00000
8.00000 3.00000 -8.50000
8.00000 4.00000 -12.50000
8.00000 3.50000 -12.00000
8.00000 3.50000 -8.00000
8.00000 3.50000 -7.00000
8.50000 4.00000 -7.00000
8.00000 4.00000 -6.50000
8.50000 5.00000 -13.00000
8.00000 5.00000 -12.50000
8.00000 4.50000 -6.00000
8.50000 5.00000 -6.00000
8.00000 5.00000 -5.50000
8.50000 6.00000 -14.00000
8.00000 6.00000 -13.50000
8.00000 5.50000 -13.00000
8.00000 6.00000 -5.50000
8.50000 7.00000 -14.00000
8.00000 7.00000 -13.50000
8.00000 6.50000 -5.00000
8.50000 7.00000 -5.00000
8.00000 7.00000 -4.50000
8.00000 8.00000 -14.50000
8.00000 7.50000 -14.00000
8.50000 8.00000 -5.00000
8.00000 8.00000 -4.50000
8.00000 9.00000 -14.50000
8.50000 9.00000 -5.00000
8.00000 9.00000 -4.50000
8.00000 9.50000 -14.00000
8.00000 10.00000 -13.50000
8.00000 9.50000 -5.00000
8.00000 10.00000 -5.50000
8.00000 10.50000 -13.00000
8.00000 11.00000 -12.50000
8.50000 11.00000 -6.00000
8.00000 11.00000 -5.50000
8.00000 11.50000 -12.00000
8.00000 12.00000 -11.50000
8.50000 12.00000 -6.00000
8.00000 11.50000 -5.00000
8.50000 12.00000 -5.00000
8.00000 12.00000 -4.50000
8.00000 12.50000 -11.00000
8.50000 13.00000 -11.00000
8.00000 13.00000 -10.50000
8.50000 13.00000 -5.00000
8.00000 13.00000 -4.50000
8.50000 14.00000 -10.00000
8.00000 13.50000 -10.00000
8.00000 14.00000 -9.50000
8.50000 14.00000 -5.00000
8.00000 14.00000 -4.50000
8.00000 15.00000 -9.50000
8.00000 14.50000 -4.00000
8.50000 15.00000 -4.00000
8.00000 15.00000 -3.50000
8.00000 15.50000 -9.00000
8.50000 16.00000 -9.00000
8.00000 16.00000 -8.50000
8.00000 16.00000 -3.50000
8.50000 17.00000 -8.00000
8.00000 16.50000 -8.00000
8.00000 17.00000 -7.50000
8.00000 16.50000 -3.00000
8.50000 17.00000 -3.00000
8.00000 17.00000 -2.50000
8.50000 18.00000 -7.00000
8.00000 17.50000 -7.00000
8.00000 18.00000 -6.50000
8.00000 18.00000 -2.50000
8.50000 19.00000 -6.00000
8.00000 18.50000 -6.00000
8.00000 19.00000 -5.50000
8.00000 19.00000 -2.50000
8.50000 20.00000 -5.00000
8.00000 19.50000 -5.00000
8.50000 20.00000 -4.00000
8.00000 19.50000 -4.00000
8.00000 20.00000 -3.50000
8.00000 20.00000 -2.50000
8.00000 20.50000 -3.00000
7.50000 3.00000 -11.00000
7.00000 3.00000 -10.50000
7.00000 2.50000 -10.00000
7.50000 3.00000 -9.00000
7.00000 3.00000 -9.50000
7.50000 4.00000 -12.00000
7.00000 4.00000 -11.50000
7.00000 3.50000 -11.00000
7.00000 3.50000 -9.00000
7.00000 3.50000 -8.00000
7.00000 3.50000 -7.00000
7.00000 4.00000 -6.50000
7.50000 5.00000 -12.00000
7.00000 5.00000 -11.50000
7.00000 4.50000 -6.00000
7.00000 4.50000 -5.00000
7.50000 5.00000 -5.00000
7.00000 5.00000 -4.50000
7.50000 6.00000 -13.00000
7.50000 6.00000 -12.00000
7.00000 6.00000 -11.50000
7.50000 6.00000 -5.00000
7.00000 6.00000 -4.50000
7.50000 7.00000 -13.00000
7.00000 7.00000 -12.50000
7.00000 6.50000 -12.00000
7.00000 6.50000 -4.00000
7.50000 7.00000 -4.00000
7.00000 7.00000 -3.50000
7.50000 8.00000 -14.00000
7.00000 8.00000 -13.50000
7.00000 7.50000 -13.00000
7.50000 8.00000 -4.00000
7.00000 8.00000 -3.50000
7.50000 9.00000 -14.00000
7.00000 9.00000 -13.50000
7.50000 9.00000 -4.00000
7.00000 9.00000 -3.50000
7.50000 10.00000 -13.00000
7.00000 9.50000 -13.00000
7.00000 10.00000 -12.50000
7.50000 10.00000 -5.00000
7.50000 10.00000 -4.00000
7.00000 10.00000 -3.50000
7.50000 11.00000 -12.00000
7.00000 10.50000 -12.00000
7.00000 11.00000 -11.50000
7.50000 11.00000 -5.00000
7.50000 11.00000 -4.00000
7.00000 11.00000 -3.50000
7.50000 12.00000 -11.00000
7.00000 11.50000 -11.00000
7.00000 12.00000 -10.50000
7.50000 12.00000 -4.00000
7.00000 12.00000 -3.50000
7.50000 13.00000 -10.00000
7.00000 12.50000 -10.00000
7.00000 13.00000 -9.50000
7.50000 13.00000 -4.00000
7.00000 13.00000 -3.50000
7.50000 14.00000 -9.00000
7.00000 13.50000 -9.00000
7.00000 14.00000 -8.50000
7.50000 14.00000 -4.00000
7.00000 13.50000 -3.00000
7.50000 14.00000 -3.00000
7.00000 14.00000 -2.50000
7.50000 15.00000 -9.00000
7.00000 14.50000 -8.00000
7.50000 15.00000 -8.00000
7.00000 15.00000 -7.50000
7.50000 15.00000 -3.00000
7.00000 15.00000 -2.50000
7.50000 16.00000 -8.00000
7.00000 16.00000 -7.50000
7.50000 16.00000 -3.00000
7.00000 16.00000 -2.50000
7.50000 17.00000 -7.00000
7.00000 16.50000 -7.00000
7.00000 17.00000 -6.50000
7.00000 17.00000 -2.50000
7.50000 18.00000 -6.00000
7.00000 17.50000 -6.00000
7.50000 18.00000 -5.00000
7.00000 17.50000 -5.00000
7.00000 18.00000 -4.50000
7.00000 18.00000 -2.50000
7.50000 19.00000 -5.00000
7.00000 18.50000 -4.00000
7.50000 19.00000 -4.00000
7.00000 19.00000 -3.50000
7.00000 19.00000 -2.50000
7.50000 20.00000 -3.00000
7.00000 19.50000 -3.00000
6.50000 3.00000 -10.00000
6.50000 4.00000 -11.00000
6.00000 4.00000 -10.50000
6.00000 3.50000 -10.00000
6.00000 3.50000 -9.00000
6.00000 3.50000 -8.00000
6.00000 3.50000 -7.00000
6.00000 4.00000 -6.50000
6.50000 5.00000 -11.00000
6.00000 5.00000 -10.50000
6.00000 4.50000 -6.00000
6.00000 4.50000 -5.00000
6.00000 4.50000 -4.00000
6.50000 5.00000 -4.00000
6.00000 4.50000 -3.00000
6.50000 5.00000 -3.00000
6.00000 5.00000 -2.50000
6.50000 6.00000 -11.00000
6.00000 6.00000 -10.50000
6.50000 6.00000 -4.00000
6.50000 6.00000 -3.00000
6.00000 6.00000 -2.50000
6.50000 7.00000 -12.00000
6.00000 7.00000 -11.50000
6.00000 6.50000 -11.00000
6.50000 7.00000 -3.00000
6.00000 7.00000 -2.50000
6.50000 8.00000 -13.00000
6.50000 8.00000 -12.00000
6.00000 8.00000 -11.50000
6.50000 8.00000 -3.00000
6.00000 8.00000 -2.50000
6.50000 9.00000 -13.00000
6.50000 9.00000 -12.00000
6.00000 9.00000 -11.50000
6.00000 8.50000 -3.00000
6.00000 9.00000 -3.50000
6.50000 10.00000 -12.00000
6.00000 9.50000 -11.00000
6.50000 10.00000 -11.00000
6.00000 10.00000 -10.50000
6.00000 10.00000 -3.50000
6.50000 11.00000 -11.00000
6.00000 10.50000 -10.00000
6.50000 11.00000 -10.00000
6.00000 11.00000 -9.50000
6.00000 10.50000 -3.00000
6.50000 11.00000 -3.00000
6.00000 11.00000 -2.50000
6.50000 12.00000 -10.00000
6.00000 12.00000 -9.50000
6.50000 12.00000 -3.00000
6.00000 12.00000 -2.50000
6.50000 13.00000 -9.00000
6.00000 12.50000 -9.00000
6.00000 13.00000 -8.50000
6.50000 13.00000 -3.00000
6.00000 13.00000 -2.50000
6.50000 14.00000 -8.00000
6.00000 13.50000 -8.00000
6.00000 14.00000 -7.50000
6.00000 13.50000 -2.00000
6.50000 14.00000 -2.00000
6.00000 14.00000 -1.50000
6.50000 15.00000 -7.00000
6.00000 14.50000 -7.00000
6.00000 15.00000 -6.50000
6.50000 15.00000 -2.00000
6.00000 15.00000 -1.50000
6.50000 16.00000 -7.00000
6.00000 15.50000 -6.00000
6.50000 16.00000 -6.00000
6.00000 16.00000 -5.50000
6.50000 16.00000 -2.00000
6.00000 16.00000 -1.50000
6.50000 17.00000 -6.00000
6.00000 16.50000 -5.00000
6.50000 17.00000 -5.00000
6.50000 17.00000 -4.00000
6.00000 16.50000 -4.00000
6.00000 17.00000 -3.50000
6.50000 17.00000 -2.00000
6.00000 17.00000 -1.50000
6.50000 18.00000 -4.00000
6.00000 17.50000 -3.00000
6.50000 18.00000 -3.00000
6.00000 17.50000 -2.00000
6.50000 19.00000 -3.00000
5.50000 4.00000 -10.00000
5.50000 4.00000 -9.00000
5.00000 4.00000 -8.50000
5.00000 3.50000 -8.00000
5.00000 3.50000 -7.00000
5.00000 4.00000 -6.50000
5.50000 5.00000 -10.00000
5.00000 5.00000 -9.50000
5.00000 4.50000 -9.00000
5.00000 4.50000 -6.00000
5.00000 4.50000 -5.00000
5.00000 4.50000 -4.00000
5.00000 4.50000 -3.00000
5.00000 5.00000 -2.50000
5.50000 6.00000 -10.00000
5.00000 6.00000 -9.50000
5.00000 5.50000 -2.00000
5.50000 6.00000 -2.00000
5.00000 6.00000 -1.50000
5.50000 7.00000 -11.00000
5.50000 7.00000 -10.00000
5.00000 7.00000 -9.50000
5.00000 6.50000 -2.00000
5.00000 7.00000 -2.50000
5.50000 8.00000 -11.00000
5.50000 8.00000 -10.00000
5.00000 8.00000 -9.50000
5.00000 8.00000 -2.50000
5.50000 9.00000 -11.00000
5.50000 9.00000 -10.00000
5.00000 9.00000 -9.50000
5.50000 9.00000 -3.00000
5.00000 9.00000 -2.50000
5.50000 10.00000 -10.00000
5.00000 10.00000 -9.50000
5.50000 10.00000 -3.00000
5.00000 10.00000 -2.50000
5.50000 11.00000 -9.00000
5.00000 10.50000 -9.00000
5.00000 11.00000 -8.50000
5.00000 11.00000 -2.50000
5.50000 12.00000 -9.00000
5.00000 11.50000 -8.00000
5.50000 12.00000 -8.00000
5.00000 12.00000 -7.50000
5.00000 11.50000 -2.00000
5.50000 12.00000 -2.00000
5.00000 12.00000 -1.50000
5.50000 13.00000 -8.00000
5.00000 12.50000 -7.00000
5.50000 13.00000 -7.00000
5.00000 13.00000 -6.50000
5.50000 13.00000 -2.00000
5.00000 13.00000 -1.50000
5.50000 14.00000 -7.00000
5.00000 13.50000 -6.00000
5.50000 14.00000 -6.00000
5.00000 14.00000 -5.50000
5.00000 14.00000 -1.50000
5.50000 15.00000 -6.00000
5.00000 14.50000 -5.00000
5.50000 15.00000 -5.00000
5.00000 15.00000 -4.50000
5.00000 14.50000 -1.00000
5.50000 15.00000 -1.00000
5.00000 15.00000 -0.50000
5.50000 16.00000 -5.00000
5.00000 15.50000 -4.00000
5.50000 16.00000 -4.00000
5.50000 16.00000 -3.00000
5.00000 15.50000 -3.00000
5.00000 16.00000 -2.50000
5.00000 15.50000 -1.00000
5.00000 16.00000 -1.50000
5.50000 17.00000 -3.00000
5.00000 16.50000 -2.00000
5.50000 17.00000 -2.00000
4.50000 4.00000 -8.00000
4.50000 4.00000 -7.00000
4.50000 5.00000 -9.00000
4.50000 5.00000 -8.00000
4.00000 5.00000 -7.50000
4.00000 4.50000 -7.00000
4.00000 4.50000 -6.00000
4.00000 4.50000 -5.00000
4.00000 4.50000 -4.00000
4.00000 4.50000 -3.00000
4.00000 5.00000 -2.50000
4.50000 6.00000 -9.00000
4.50000 6.00000 -8.00000
4.00000 6.00000 -7.50000
4.00000 5.50000 -2.00000
4.00000 6.00000 -1.50000
4.50000 7.00000 -9.00000
4.50000 7.00000 -8.00000
4.00000 6.50000 -7.00000
4.50000 7.00000 -7.00000
4.00000 7.00000 -6.50000
4.50000 7.00000 -2.00000
4.00000 7.00000 -1.50000
4.50000 8.00000 -9.00000
4.50000 8.00000 -8.00000
4.50000 8.00000 -7.00000
4.00000 7.50000 -6.00000
4.50000 8.00000 -6.00000
4.00000 8.00000 -5.50000
4.00000 7.50000 -2.00000
4.00000 8.00000 -2.50000
4.50000 9.00000 -9.00000
4.50000 9.00000 -8.00000
4.50000 9.00000 -7.00000
4.50000 9.00000 -6.00000
4.00000 9.00000 -5.50000
4.50000 9.00000 -3.00000
4.00000 8.50000 -3.00000
4.00000 9.00000 -3.50000
4.50000 10.00000 -9.00000
4.50000 10.00000 -8.00000
4.50000 10.00000 -7.00000
4.00000 10.00000 -6.50000
4.00000 9.50000 -6.00000
4.50000 10.00000 -3.00000
4.00000 10.00000 -3.50000
4.50000 11.00000 -8.00000
4.50000 11.00000 -7.00000
4.00000 10.50000 -6.00000
4.50000 11.00000 -6.00000
4.50000 11.00000 -5.00000
4.00000 10.50000 -5.00000
4.00000 11.00000 -4.50000
4.00000 10.50000 -3.00000
4.00000 11.00000 -2.50000
4.50000 12.00000 -7.00000
4.50000 12.00000 -6.00000
4.50000 12.00000 -5.00000
4.00000 12.00000 -4.50000
4.50000 12.00000 -2.00000
4.00000 12.00000 -2.50000
4.50000 13.00000 -6.00000
4.50000 13.00000 -5.00000
4.00000 13.00000 -4.50000
4.50000 13.00000 -3.00000
4.00000 12.50000 -3.00000
4.00000 13.00000 -3.50000
4.50000 13.00000 -2.00000
4.50000 14.00000 -5.00000
4.00000 13.50000 -4.00000
4.50000 14.00000 -4.00000
4.50000 14.00000 -3.00000
4.50000 14.00000 -2.00000
4.50000 15.00000 -4.00000
4.50000 15.00000 -3.00000
4.50000 15.00000 -2.00000
4.50000 15.00000 -1.00000
4.50000 16.00000 -2.00000
3.50000 5.00000 -7.00000
3.50000 5.00000 -6.00000
3.00000 5.00000 -5.50000
3.00000 4.50000 -5.00000
3.00000 4.50000 -4.00000
3.50000 5.00000 -3.00000
3.00000 5.00000 -3.50000
3.50000 6.00000 -7.00000
3.50000 6.00000 -6.00000
3.00000 5.50000 -5.00000
3.50000 6.00000 -5.00000
3.00000 6.00000 -4.50000
3.00000 5.50000 -3.00000
3.50000 6.00000 -2.00000
3.00000 6.00000 -2.50000
3.50000 7.00000 -6.00000
3.50000 7.00000 -5.00000
3.00000 6.50000 -4.00000
3.50000 7.00000 -4.00000
3.50000 7.00000 -3.00000
3.00000 6.50000 -3.00000
3.50000 7.00000 -2.00000
3.50000 8.00000 -5.00000
3.50000 8.00000 -4.00000
3.50000 8.00000 -3.00000
3.50000 9.00000 -5.00000
3.50000 9.00000 -4.00000
3.50000 10.00000 -6.00000
3.50000 10.00000 -5.00000
3.50000 10.00000 -4.00000
3.50000 11.00000 -4.00000
3.50000 11.00000 -3.00000
3.50000 12.00000 -4.00000
3.50000 12.00000 -3.00000
3.50000 13.00000 -4.00000
2.50000 5.00000 -5.00000
2.50000 5.00000 -4.00000
2.50000 6.00000 -4.00000
2.50000 6.00000 -3.00000
3 2 1 0
3 4 3 0
3 0 3 2
3 4 5 3
3 0 1 6
3 6 1 7
3 0 8 4
3 0 6 8
3 5 4 9
3 9 4 8
3 6 7 10
3 10 7 11
3 6 12 8
3 6 10 12
3 9 8 13
3 13 8 12
3 11 14 10
3 10 14 12
3 12 14 15
3 12 15 13
3 18 17 16
3 20 19 16
3 16 19 18
3 20 21 19
3 16 17 22
3 22 17 23
3 16 24 20
3 16 22 24
3 21 20 25
3 20 26 25
3 20 24 26
3 26 27 25
3 23 28 22
3 30 29 28
3 29 22 28
3 29 24 22
3 24 31 26
3 24 29 31
3 27 26 32
3 32 26 31
3 29 30 2
3 30 1 2
3 30 33 1
3 29 2 3
3 29 3 31
3 3 5 31
3 5 32 31
3 5 34 32
3 33 7 1
3 35 7 33
3 9 34 5
3 9 36 34
3 35 11 7
3 37 11 35
3 13 36 9
3 13 38 36
3 14 11 39
3 11 40 39
3 11 37 40
3 41 15 14
3 41 14 39
3 41 42 15
3 42 13 15
3 42 38 13
3 40 43 39
3 39 43 41
3 41 43 44
3 41 44 42
3 47 46 45
3 49 48 45
3 45 48 47
3 51 50 49
3 49 50 48
3 51 52 50
3 45 46 53
3 53 46 54
3 45 55 49
3 45 53 55
3 49 56 51
3 49 55 56
3 52 51 57
3 51 58 57
3 51 56 58
3 60 59 58
3 58 59 57
3 62 61 60
3 60 61 59
3 64 63 62
3 62 63 61
3 64 65 63
3 54 66 53
3 68 67 66
3 67 53 66
3 67 55 53
3 55 69 56
3 55 67 69
3 56 70 58
3 56 69 70
3 58 71 60
3 58 70 71
3 60 72 62
3 60 71 72
3 62 73 64
3 62 72 73
3 65 64 74
3 74 64 73
3 68 75 67
3 77 76 75
3 76 67 75
3 76 69 67
3 69 78 70
3 69 76 78
3 70 79 71
3 70 78 79
3 71 80 72
3 71 79 80
3 72 81 73
3 72 80 81
3 74 73 82
3 82 73 81
3 76 77 83
3 83 77 84
3 83 17 18
3 78 83 18
3 76 83 78
3 78 18 19
3 78 19 79
3 79 19 21
3 85 79 21
3 80 79 85
3 87 81 86
3 81 85 86
3 81 80 85
3 81 87 82
3 84 88 83
3 17 83 88
3 89 17 88
3 23 17 89
3 25 85 21
3 25 27 85
3 27 86 85
3 27 90 86
3 28 23 91
3 23 92 91
3 23 89 92
3 91 30 28
3 32 90 27
3 32 93 90
3 91 92 94
3 94 92 95
3 94 33 30
3 94 30 91
3 34 93 32
3 34 96 93
3 95 97 94
3 33 94 97
3 98 33 97
3 35 33 98
3 36 96 34
3 36 99 96
3 98 37 35
3 100 37 98
3 38 102 101
3 99 38 101
3 36 38 99
3 102 103 101
3 100 40 37
3 104 40 100
3 42 105 102
3 42 102 38
3 103 102 106
3 106 102 105
3 104 107 40
3 40 107 43
3 107 109 108
3 44 107 108
3 43 107 44
3 108 110 44
3 44 110 42
3 110 111 42
3 111 105 42
3 105 111 106
3 109 112 108
3 108 112 110
3 115 114 113
3 117 116 113
3 113 116 115
3 117 118 116
3 114 119 113
3 113 119 117
3 117 119 120
3 117 120 118
3 123 122 121
3 125 124 121
3 121 124 123
3 127 126 125
3 125 126 124
3 129 128 127
3 127 128 126
3 131 130 129
3 129 130 128
3 133 132 131
3 131 132 130
3 135 134 133
3 133 134 132
3 137 136 135
3 135 136 134
3 137 138 136
3 121 122 139
3 139 122 140
3 121 141 125
3 121 139 141
3 125 142 127
3 125 141 142
3 127 143 129
3 127 142 143
3 129 144 131
3 129 143 144
3 131 145 133
3 131 144 145
3 133 146 135
3 133 145 146
3 135 147 137
3 135 146 147
3 138 137 148
3 148 137 147
3 139 140 149
3 149 140 150
3 149 46 47
3 141 149 47
3 139 149 141
3 141 47 48
3 141 48 142
3 142 48 50
3 142 50 143
3 143 50 52
3 151 143 52
3 144 143 151
3 144 152 145
3 144 151 152
3 145 153 146
3 145 152 153
3 146 154 147
3 146 153 154
3 148 147 155
3 155 147 154
3 150 156 149
3 46 149 156
3 157 46 156
3 54 46 157
3 57 151 52
3 151 57 59
3 151 59 152
3 152 59 61
3 152 61 153
3 153 61 63
3 153 63 154
3 159 158 65
3 65 158 63
3 158 155 63
3 155 154 63
3 159 160 158
3 157 161 54
3 54 161 66
3 68 66 161
3 68 161 162
3 164 163 159
3 65 164 159
3 74 164 65
3 159 163 160
3 162 165 68
3 68 165 75
3 77 75 165
3 77 165 166
3 82 164 74
3 82 167 164
3 166 84 77
3 168 84 166
3 86 169 87
3 169 170 87
3 170 82 87
3 170 167 82
3 168 171 84
3 84 171 88
3 89 88 171
3 89 171 172
3 174 173 169
3 86 174 169
3 90 174 86
3 169 173 170
3 172 92 89
3 175 92 172
3 93 174 90
3 93 176 174
3 175 95 92
3 177 95 175
3 96 179 178
3 176 96 178
3 93 96 176
3 179 180 178
3 177 181 95
3 95 181 97
3 98 97 181
3 98 181 182
3 99 183 179
3 99 179 96
3 180 179 184
3 184 179 183
3 182 100 98
3 185 100 182
3 101 183 99
3 187 186 103
3 103 186 101
3 186 184 101
3 184 183 101
3 187 188 186
3 185 104 100
3 189 104 185
3 106 190 187
3 106 187 103
3 188 187 191
3 191 187 190
3 189 192 104
3 104 192 107
3 109 107 192
3 109 192 193
3 110 194 111
3 190 106 111
3 194 190 111
3 195 190 194
3 191 190 196
3 196 190 195
3 193 197 109
3 109 197 112
3 110 112 194
3 112 198 194
3 112 197 198
3 194 198 195
3 195 198 199
3 195 199 196
3 202 201 200
3 200 203 202
3 205 204 115
3 115 204 114
3 116 200 201
3 205 116 201
3 115 116 205
3 207 206 118
3 118 206 116
3 206 203 116
3 203 200 116
3 209 208 207
3 207 208 206
3 209 210 208
3 213 212 211
3 211 214 119
3 204 211 119
3 114 204 119
3 211 204 213
3 215 120 119
3 215 119 214
3 207 118 120
3 215 207 120
3 216 207 215
3 207 217 209
3 207 216 217
3 210 209 218
3 209 219 218
3 209 217 219
3 219 220 218
3 223 222 221
3 223 221 212
3 221 211 212
3 221 224 211
3 211 225 214
3 211 224 225
3 214 226 215
3 214 225 226
3 215 227 216
3 215 226 227
3 216 228 217
3 216 227 228
3 217 229 219
3 217 228 229
3 220 219 230
3 230 219 229
3 221 222 123
3 222 122 123
3 222 231 122
3 221 123 124
3 221 124 224
3 224 124 126
3 224 126 225
3 225 126 128
3 225 128 226
3 226 128 130
3 226 130 227
3 227 130 132
3 227 132 228
3 228 132 134
3 228 134 229
3 232 230 229
3 134 232 229
3 136 232 134
3 136 138 232
3 232 138 233
3 231 140 122
3 234 140 231
3 148 236 235
3 233 148 235
3 138 148 233
3 236 237 235
3 234 150 140
3 238 150 234
3 155 239 236
3 155 236 148
3 237 236 240
3 240 236 239
3 238 241 150
3 150 241 156
3 157 156 241
3 157 241 242
3 158 239 155
3 158 160 239
3 160 240 239
3 160 243 240
3 242 244 157
3 157 244 161
3 162 161 244
3 162 244 245
3 247 246 163
3 247 163 164
3 160 163 243
3 243 163 246
3 165 162 248
3 162 249 248
3 162 245 249
3 248 166 165
3 167 247 164
3 167 250 247
3 249 251 248
3 166 248 251
3 252 166 251
3 168 166 252
3 170 250 167
3 170 253 250
3 252 254 168
3 168 254 171
3 172 171 254
3 172 254 255
3 174 256 173
3 256 257 173
3 257 170 173
3 257 253 170
3 255 175 172
3 258 175 255
3 176 259 256
3 176 256 174
3 257 256 260
3 260 256 259
3 262 177 261
3 177 258 261
3 177 175 258
3 263 262 261
3 178 259 176
3 178 180 259
3 180 260 259
3 180 264 260
3 262 181 177
3 182 181 262
3 263 182 262
3 265 182 263
3 184 267 266
3 264 184 266
3 180 184 264
3 267 268 266
3 265 185 182
3 269 185 265
3 186 267 184
3 271 270 188
3 188 270 186
3 270 268 186
3 268 267 186
3 271 272 270
3 274 189 273
3 189 269 273
3 189 185 269
3 275 274 273
3 191 276 271
3 191 271 188
3 272 271 277
3 277 271 276
3 274 192 189
3 279 278 193
3 279 193 192
3 275 279 192
3 274 275 192
3 280 278 279
3 196 281 276
3 196 276 191
3 277 276 282
3 282 276 281
3 278 197 193
3 280 283 278
3 283 197 278
3 283 198 197
3 198 284 199
3 283 284 198
3 196 199 281
3 199 285 281
3 199 284 285
3 281 285 282
3 288 287 286
3 201 202 286
3 202 288 286
3 202 289 288
3 291 290 203
3 290 202 203
3 290 289 202
3 291 292 290
3 295 294 293
3 295 293 287
3 287 293 286
3 293 204 286
3 204 205 286
3 286 205 201
3 206 291 203
3 296 292 291
3 206 296 291
3 208 296 206
3 298 297 210
3 297 208 210
3 297 296 208
3 298 299 297
3 293 294 213
3 294 212 213
3 294 300 212
3 293 213 204
3 218 298 210
3 302 301 220
3 220 301 218
3 301 299 218
3 299 298 218
3 302 303 301
3 305 304 223
3 223 304 222
3 223 212 300
3 223 300 305
3 230 306 302
3 230 302 220
3 303 302 307
3 307 302 306
3 304 231 222
3 308 231 304
3 232 306 230
3 310 309 233
3 233 309 232
3 309 307 232
3 307 306 232
3 310 311 309
3 314 313 312
3 308 314 312
3 234 308 312
3 231 308 234
3 235 310 233
3 235 237 310
3 237 311 310
3 237 315 311
3 313 316 312
3 234 312 316
3 317 234 316
3 238 234 317
3 240 315 237
3 240 318 315
3 317 319 238
3 238 319 241
3 242 241 319
3 242 319 320
3 323 322 321
3 322 318 321
3 318 243 321
3 318 240 243
3 320 324 242
3 242 324 244
3 245 244 324
3 245 324 325
3 323 321 246
3 247 323 246
3 326 323 247
3 246 321 243
3 325 249 245
3 327 249 325
3 250 326 247
3 250 328 326
3 327 329 249
3 249 329 251
3 252 251 329
3 252 329 330
3 253 328 250
3 253 331 328
3 330 332 252
3 252 332 254
3 255 254 332
3 255 332 333
3 257 331 253
3 257 334 331
3 333 258 255
3 335 258 333
3 260 337 336
3 334 260 336
3 257 260 334
3 337 338 336
3 335 339 258
3 258 339 261
3 263 261 339
3 263 339 340
3 264 341 337
3 264 337 260
3 338 337 342
3 342 337 341
3 340 265 263
3 343 265 340
3 266 341 264
3 345 344 268
3 268 344 266
3 344 342 266
3 342 341 266
3 345 346 344
3 348 269 347
3 269 343 347
3 269 265 343
3 349 348 347
3 270 345 268
3 351 350 272
3 272 350 270
3 350 346 270
3 346 345 270
3 351 352 350
3 348 273 269
3 354 353 275
3 354 275 273
3 349 354 273
3 348 349 273
3 355 353 354
3 277 356 351
3 277 351 272
3 352 351 357
3 357 351 356
3 353 279 275
3 359 358 280
3 359 280 279
3 355 359 279
3 353 355 279
3 360 358 359
3 282 361 356
3 282 356 277
3 357 356 362
3 362 356 361
3 358 283 280
3 360 363 358
3 363 283 358
3 363 284 283
3 284 364 285
3 363 364 284
3 282 285 361
3 285 365 361
3 285 364 365
3 361 365 362
3 367 366 288
3 288 366 287
3 368 288 289
3 368 367 288
3 369 289 290
3 369 368 289
3 290 292 369
3 369 292 370
3 371 294 295
3 372 371 295
3 287 372 295
3 366 372 287
3 373 370 292
3 373 292 296
3 374 296 297
3 374 373 296
3 297 299 374
3 374 299 375
3 377 376 371
3 376 294 371
3 376 300 294
3 377 371 372
3 378 375 299
3 378 299 301
3 301 303 378
3 378 303 379
3 381 380 305
3 305 380 304
3 305 300 376
3 305 376 381
3 307 383 382
3 379 307 382
3 303 307 379
3 383 384 382
3 380 308 304
3 385 308 380
3 309 383 307
3 309 311 383
3 311 384 383
3 311 386 384
3 387 313 314
3 388 387 314
3 308 388 314
3 385 388 308
3 315 386 311
3 315 389 386
3 387 316 313
3 317 316 387
3 388 317 387
3 390 317 388
3 318 389 315
3 318 391 389
3 390 392 317
3 317 392 319
3 320 319 392
3 320 392 393
3 323 394 322
3 394 395 322
3 395 318 322
3 395 391 318
3 393 396 320
3 320 396 324
3 325 324 396
3 325 396 397
3 399 398 394
3 323 399 394
3 326 399 323
3 394 398 395
3 401 327 400
3 327 397 400
3 327 325 397
3 402 401 400
3 328 399 326
3 328 403 399
3 401 329 327
3 330 329 401
3 402 330 401
3 404 330 402
3 331 406 405
3 403 331 405
3 328 331 403
3 406 407 405
3 404 408 330
3 330 408 332
3 333 332 408
3 333 408 409
3 334 410 406
3 334 406 331
3 407 406 411
3 411 406 410
3 413 335 412
3 335 409 412
3 335 333 409
3 414 413 412
3 336 410 334
3 416 415 338
3 338 415 336
3 415 411 336
3 411 410 336
3 416 417 415
3 413 339 335
3 340 339 413
3 414 340 413
3 418 340 414
3 342 419 416
3 342 416 338
3 417 416 420
3 416 421 420
3 416 419 421
3 421 422 420
3 424 343 423
3 343 418 423
3 343 340 418
3 425 424 423
3 344 419 342
3 419 344 346
3 426 419 346
3 421 419 426
3 422 421 427
3 427 421 426
3 424 347 343
3 429 428 349
3 429 349 347
3 425 429 347
3 424 425 347
3 430 428 429
3 350 426 346
3 432 431 352
3 352 431 350
3 431 427 350
3 427 426 350
3 432 433 431
3 428 354 349
3 435 434 355
3 435 355 354
3 430 435 354
3 428 430 354
3 436 434 435
3 357 437 432
3 357 432 352
3 433 432 438
3 438 432 437
3 434 359 355
3 440 439 360
3 440 360 359
3 436 440 359
3 434 436 359
3 441 439 440
3 362 442 437
3 362 437 357
3 438 437 443
3 443 437 442
3 439 363 360
3 441 444 439
3 444 363 439
3 444 364 363
3 364 445 365
3 444 445 364
3 362 365 442
3 365 446 442
3 365 445 446
3 442 446 443
3 447 366 367
3 447 367 448
3 367 449 448
3 367 368 449
3 450 368 369
3 450 449 368
3 452 451 370
3 451 369 370
3 451 450 369
3 452 453 451
3 455 454 447
3 454 366 447
3 454 372 366
3 455 447 448
3 373 452 370
3 456 453 452
3 373 456 452
3 374 456 373
3 458 457 375
3 457 374 375
3 457 456 374
3 458 459 457
3 460 376 377
3 461 460 377
3 372 461 377
3 454 461 372
3 378 458 375
3 463 462 379
3 379 462 378
3 462 459 378
3 459 458 378
3 463 464 462
3 465 380 381
3 466 465 381
3 466 381 376
3 467 466 376
3 460 467 376
3 467 460 461
3 382 463 379
3 382 384 463
3 384 464 463
3 384 468 464
3 469 385 465
3 465 385 380
3 465 466 470
3 465 470 469
3 386 472 471
3 468 386 471
3 384 386 468
3 472 473 471
3 475 474 469
3 474 385 469
3 474 388 385
3 475 469 470
3 389 476 472
3 389 472 386
3 473 472 477
3 477 472 476
3 474 390 388
3 478 390 474
3 391 479 476
3 391 476 389
3 477 476 480
3 480 476 479
3 478 481 390
3 390 481 392
3 393 392 481
3 393 481 482
3 484 483 479
3 391 484 479
3 395 484 391
3 479 483 480
3 482 485 393
3 393 485 396
3 397 396 485
3 397 485 486
3 399 487 398
3 487 488 398
3 488 395 398
3 488 484 395
3 486 489 397
3 397 489 400
3 402 400 489
3 402 489 490
3 403 491 487
3 403 487 399
3 488 487 492
3 487 493 492
3 487 491 493
3 493 494 492
3 496 404 495
3 404 490 495
3 404 402 490
3 497 496 495
3 405 491 403
3 491 405 407
3 498 491 407
3 493 491 498
3 494 493 499
3 499 493 498
3 496 408 404
3 501 500 409
3 501 409 408
3 497 501 408
3 496 497 408
3 502 500 501
3 411 503 498
3 411 498 407
3 499 498 504
3 504 498 503
3 500 412 409
3 414 412 500
3 502 414 500
3 505 414 502
3 415 503 411
3 507 506 417
3 417 506 415
3 506 504 415
3 504 503 415
3 507 508 506
3 510 418 509
3 418 505 509
3 418 414 505
3 511 510 509
3 420 507 417
3 420 422 507
3 422 508 507
3 422 512 508
3 510 423 418
3 514 513 425
3 514 425 423
3 511 514 423
3 510 511 423
3 515 513 514
3 427 517 516
3 512 427 516
3 422 427 512
3 517 518 516
3 513 429 425
3 520 519 430
3 520 430 429
3 515 520 429
3 513 515 429
3 521 519 520
3 431 517 427
3 431 433 517
3 433 518 517
3 433 522 518
3 519 435 430
3 524 523 436
3 524 436 435
3 521 524 435
3 519 521 435
3 525 523 524
3 438 522 433
3 438 526 522
3 523 440 436
3 528 527 441
3 528 441 440
3 525 528 440
3 523 525 440
3 530 529 527
3 530 527 528
3 531 529 530
3 443 526 438
3 443 532 526
3 527 444 441
3 444 527 445
3 445 527 529
3 531 533 529
3 533 445 529
3 533 446 445
3 443 446 532
3 532 446 533
3 534 448 449
3 534 449 535
3 449 536 535
3 449 450 536
3 538 536 537
3 536 451 537
3 536 450 451
3 453 537 451
3 539 454 455
3 540 539 455
3 540 455 448
3 541 540 448
3 534 541 448
3 541 534 535
3 542 538 537
3 542 537 453
3 456 542 453
3 543 542 456
3 544 456 457
3 544 543 456
3 457 459 544
3 544 459 545
3 546 461 539
3 539 461 454
3 539 540 547
3 539 547 546
3 548 545 459
3 548 459 462
3 550 549 464
3 549 462 464
3 549 548 462
3 550 551 549
3 552 466 467
3 461 546 467
3 546 552 467
3 546 553 552
3 546 547 554
3 546 554 553
3 468 555 550
3 468 550 464
3 551 550 556
3 556 550 555
3 557 470 552
3 552 470 466
3 553 559 558
3 557 553 558
3 552 553 557
3 559 553 554
3 471 555 468
3 561 560 473
3 473 560 471
3 560 556 471
3 556 555 471
3 561 562 560
3 563 474 475
3 564 563 475
3 564 475 470
3 565 564 470
3 557 565 470
3 565 557 558
3 477 566 561
3 477 561 473
3 562 561 567
3 567 561 566
3 568 478 563
3 563 478 474
3 563 564 569
3 563 569 568
3 480 570 566
3 480 566 477
3 567 566 571
3 571 566 570
3 568 481 478
3 573 572 482
3 573 482 481
3 569 573 481
3 568 569 481
3 574 572 573
3 484 575 483
3 570 480 483
3 575 570 483
3 576 570 575
3 571 570 577
3 577 570 576
3 572 485 482
3 579 578 486
3 579 486 485
3 574 579 485
3 572 574 485
3 580 578 579
3 488 581 575
3 488 575 484
3 575 582 576
3 575 581 582
3 577 576 583
3 583 576 582
3 578 489 486
3 585 584 490
3 585 490 489
3 580 585 489
3 578 580 489
3 586 584 585
3 492 581 488
3 581 492 494
3 587 581 494
3 582 581 587
3 583 582 588
3 588 582 587
3 584 495 490
3 590 589 497
3 590 497 495
3 586 590 495
3 584 586 495
3 591 589 590
3 499 592 587
3 499 587 494
3 588 587 593
3 593 587 592
3 589 501 497
3 595 594 502
3 595 502 501
3 591 595 501
3 589 591 501
3 596 594 595
3 504 597 592
3 504 592 499
3 593 592 598
3 592 599 598
3 592 597 599
3 599 600 598
3 601 505 594
3 594 505 502
3 594 596 602
3 603 594 602
3 601 594 603
3 604 603 602
3 506 597 504
3 597 506 508
3 605 597 508
3 599 597 605
3 600 599 606
3 606 599 605
3 601 509 505
3 509 601 511
3 601 607 511
3 601 603 607
3 603 604 608
3 603 608 607
3 512 609 605
3 512 605 508
3 606 605 610
3 610 605 609
3 607 514 511
3 612 611 515
3 612 515 514
3 608 612 514
3 607 608 514
3 613 611 612
3 516 609 512
3 516 518 609
3 518 610 609
3 518 614 610
3 611 520 515
3 616 615 521
3 616 521 520
3 613 616 520
3 611 613 520
3 618 617 615
3 618 615 616
3 619 617 618
3 522 614 518
3 522 620 614
3 615 524 521
3 524 615 525
3 615 621 525
3 615 617 621
3 617 619 622
3 623 617 622
3 621 617 623
3 624 623 622
3 526 620 522
3 526 625 620
3 621 528 525
3 528 621 530
3 530 621 623
3 627 626 531
3 627 531 530
3 624 627 530
3 623 624 530
3 627 625 626
3 625 532 626
3 625 526 532
3 626 533 531
3 533 626 532
3 628 535 536
3 538 628 536
3 629 540 541
3 630 629 541
3 630 541 535
3 631 630 535
3 628 631 535
3 631 628 538
3 542 631 538
3 632 631 542
3 633 542 543
3 633 632 542
3 634 543 544
3 634 633 543
3 544 545 634
3 634 545 635
3 636 547 629
3 629 547 540
3 629 630 637
3 629 637 636
3 638 635 545
3 638 545 548
3 639 548 549
3 639 638 548
3 641 640 551
3 640 549 551
3 640 639 549
3 643 642 641
3 641 642 640
3 643 644 642
3 645 554 636
3 636 554 547
3 636 637 646
3 636 646 645
3 556 647 641
3 556 641 551
3 641 648 643
3 641 647 648
3 644 643 649
3 649 643 648
3 650 558 559
3 651 650 559
3 651 559 554
3 652 651 554
3 645 652 554
3 652 645 646
3 560 647 556
3 647 560 562
3 653 647 562
3 648 647 653
3 649 648 654
3 654 648 653
3 655 564 565
3 558 650 565
3 650 655 565
3 650 656 655
3 650 651 657
3 650 657 656
3 567 658 653
3 567 653 562
3 654 653 659
3 659 653 658
3 660 569 655
3 655 569 564
3 661 655 656
3 660 655 661
3 656 657 662
3 656 662 661
3 664 663 658
3 567 664 658
3 571 664 567
3 658 663 659
3 660 573 569
3 573 660 574
3 660 665 574
3 660 661 665
3 661 662 666
3 667 661 666
3 665 661 667
3 668 667 666
3 577 664 571
3 577 669 664
3 665 579 574
3 579 665 580
3 665 670 580
3 665 667 670
3 667 668 671
3 672 667 671
3 670 667 672
3 673 672 671
3 583 675 674
3 669 583 674
3 577 583 669
3 675 676 674
3 670 585 580
3 585 670 586
3 670 677 586
3 670 672 677
3 672 673 678
3 672 678 677
3 588 679 675
3 588 675 583
3 676 675 680
3 680 675 679
3 677 590 586
3 682 681 591
3 682 591 590
3 678 682 590
3 677 678 590
3 683 681 682
3 593 684 679
3 593 679 588
3 680 679 685
3 685 679 684
3 681 595 591
3 687 686 596
3 687 596 595
3 683 687 595
3 681 683 595
3 688 686 687
3 598 684 593
3 690 689 600
3 600 689 598
3 689 685 598
3 685 684 598
3 690 691 689
3 686 602 596
3 693 692 604
3 693 604 602
3 688 693 602
3 686 688 602
3 694 692 693
3 606 695 690
3 606 690 600
3 691 690 696
3 696 690 695
3 697 608 692
3 692 608 604
3 692 694 698
3 699 692 698
3 697 692 699
3 700 699 698
3 610 701 695
3 610 695 606
3 696 695 702
3 702 695 701
3 697 612 608
3 612 697 613
3 697 703 613
3 697 699 703
3 699 700 704
3 705 699 704
3 703 699 705
3 707 706 705
3 707 705 704
3 708 706 707
3 614 709 701
3 614 701 610
3 702 701 710
3 710 701 709
3 703 616 613
3 616 703 618
3 618 703 705
3 618 705 619
3 705 711 619
3 705 706 711
3 706 708 712
3 713 706 712
3 711 706 713
3 712 714 709
3 620 712 709
3 614 620 709
3 713 712 620
3 709 714 710
3 711 622 619
3 622 711 624
3 711 715 624
3 711 713 715
3 625 715 620
3 620 715 713
3 715 627 624
3 627 715 625
3 716 630 631
3 632 717 631
3 631 717 716
3 717 632 718
3 632 719 718
3 632 633 719
3 720 633 634
3 720 719 633
3 634 635 720
3 720 635 721
3 722 637 716
3 716 637 630
3 717 724 723
3 722 717 723
3 716 717 722
3 724 717 718
3 725 721 635
3 725 635 638
3 726 638 639
3 726 725 638
3 727 639 640
3 727 726 639
3 728 640 642
3 728 727 640
3 642 644 728
3 728 644 729
3 730 646 722
3 722 646 637
3 722 723 731
3 722 731 730
3 649 733 732
3 729 649 732
3 644 649 729
3 733 734 732
3 735 651 652
3 646 730 652
3 730 735 652
3 730 736 735
3 730 731 737
3 730 737 736
3 739 738 733
3 649 739 733
3 654 739 649
3 733 738 734
3 740 657 735
3 735 657 651
3 741 735 736
3 740 735 741
3 736 737 742
3 736 742 741
3 659 739 654
3 659 743 739
3 744 662 740
3 740 662 657
3 745 740 741
3 744 740 745
3 741 742 746
3 741 746 745
3 664 747 663
3 747 748 663
3 748 659 663
3 748 743 659
3 744 666 662
3 666 744 668
3 744 749 668
3 744 745 749
3 745 746 750
3 745 750 749
3 669 751 747
3 669 747 664
3 748 747 752
3 752 747 751
3 749 671 668
3 754 753 673
3 754 673 671
3 750 754 671
3 749 750 671
3 755 753 754
3 674 751 669
3 674 676 751
3 676 752 751
3 676 756 752
3 757 678 753
3 753 678 673
3 753 755 758
3 759 753 758
3 757 753 759
3 760 759 758
3 680 762 761
3 756 680 761
3 676 680 756
3 762 763 761
3 757 682 678
3 682 757 683
3 757 764 683
3 757 759 764
3 759 760 765
3 766 759 765
3 764 759 766
3 767 766 765
3 685 768 762
3 685 762 680
3 763 762 769
3 769 762 768
3 764 687 683
3 687 764 688
3 764 770 688
3 764 766 770
3 766 767 771
3 772 766 771
3 770 766 772
3 773 772 771
3 689 768 685
3 689 691 768
3 691 769 768
3 691 774 769
3 770 693 688
3 693 770 694
3 770 775 694
3 770 772 775
3 772 773 776
3 777 772 776
3 775 772 777
3 778 777 776
3 696 780 779
3 774 696 779
3 691 696 774
3 780 781 779
3 775 698 694
3 698 775 700
3 775 782 700
3 775 777 782
3 777 778 783
3 784 777 783
3 782 777 784
3 786 785 784
3 786 784 783
3 787 785 786
3 789 788 780
3 696 789 780
3 702 789 696
3 780 788 781
3 782 704 700
3 704 782 707
3 707 782 784
3 707 784 708
3 784 790 708
3 784 785 790
3 785 787 791
3 792 785 791
3 790 785 792
3 791 789 792
3 789 710 792
3 789 702 710
3 790 712 708
3 712 790 714
3 714 790 792
3 714 792 710
3 793 718 719
3 720 794 719
3 719 794 793
3 721 794 720
3 795 723 724
3 718 793 724
3 793 795 724
3 793 796 795
3 794 798 797
3 796 794 797
3 793 794 796
3 798 794 721
3 725 798 721
3 799 798 725
3 800 725 726
3 800 799 725
3 801 726 727
3 801 800 726
3 802 727 728
3 802 801 727
3 728 729 802
3 802 729 803
3 804 731 795
3 795 731 723
3 805 795 796
3 804 795 805
3 796 797 806
3 796 806 805
3 807 803 729
3 807 729 732
3 732 734 807
3 807 734 808
3 809 737 804
3 804 737 731
3 810 804 805
3 809 804 810
3 805 806 811
3 812 805 811
3 810 805 812
3 813 812 811
3 739 814 738
3 814 815 738
3 815 734 738
3 815 808 734
3 816 742 809
3 809 742 737
3 817 809 810
3 816 809 817
3 818 810 812
3 817 810 818
3 812 813 819
3 820 812 819
3 818 812 820
3 821 820 819
3 823 822 814
3 739 823 814
3 743 823 739
3 814 822 815
3 824 746 816
3 816 746 742
3 825 816 817
3 824 816 825
3 826 817 818
3 825 817 826
3 827 818 820
3 826 818 827
3 820 821 828
3 820 828 827
3 831 830 829
3 830 823 829
3 823 748 829
3 823 743 748
3 832 750 824
3 824 750 746
3 833 824 825
3 832 824 833
3 834 825 826
3 833 825 834
3 827 836 835
3 834 827 835
3 826 827 834
3 836 827 828
3 831 829 837
3 831 837 838
3 752 837 748
3 748 837 829
3 832 754 750
3 754 832 755
3 832 839 755
3 832 833 839
3 840 833 834
3 839 833 840
3 834 835 841
3 842 834 841
3 840 834 842
3 844 843 842
3 844 842 841
3 845 843 844
3 846 838 837
3 837 752 846
3 752 847 846
3 752 756 847
3 839 758 755
3 758 839 760
3 839 848 760
3 839 840 848
3 849 840 842
3 848 840 849
3 850 842 843
3 849 842 850
3 843 845 851
3 843 851 850
3 756 761 852
3 853 756 852
3 847 756 853
3 763 852 761
3 848 765 760
3 765 848 767
3 848 854 767
3 848 849 854
3 855 849 850
3 854 849 855
3 850 851 856
3 850 856 855
3 859 858 857
3 857 858 853
3 852 857 853
3 860 857 852
3 769 860 763
3 763 860 852
3 854 771 767
3 771 854 773
3 854 861 773
3 854 855 861
3 855 856 862
3 863 855 862
3 861 855 863
3 863 862 859
3 857 863 859
3 864 863 857
3 865 857 860
3 864 857 865
3 774 865 769
3 769 865 860
3 861 776 773
3 776 861 778
3 861 866 778
3 861 863 866
3 867 863 864
3 866 863 867
3 868 864 865
3 867 864 868
3 779 869 774
3 869 865 774
3 869 868 865
3 781 869 779
3 866 783 778
3 783 866 786
3 786 866 867
3 786 867 787
3 867 870 787
3 867 868 870
3 789 870 788
3 870 869 788
3 870 868 869
3 788 869 781
3 870 791 787
3 791 870 789
3 871 797 798
3 799 872 798
3 798 872 871
3 872 799 873
3 799 874 873
3 799 800 874
3 875 800 801
3 875 874 800
3 877 875 876
3 875 802 876
3 875 801 802
3 803 876 802
3 878 806 871
3 871 806 797
3 879 871 872
3 878 871 879
3 872 873 880
3 881 872 880
3 879 872 881
3 882 881 880
3 883 877 876
3 885 883 884
3 884 883 807
3 883 876 807
3 876 803 807
3 808 884 807
3 878 811 806
3 811 878 813
3 878 886 813
3 878 879 886
3 887 879 881
3 886 879 887
3 881 882 888
3 889 881 888
3 887 881 889
3 891 890 889
3 891 889 888
3 890 891 885
3 884 890 885
3 892 890 884
3 815 892 808
3 808 892 884
3 886 819 813
3 819 886 821
3 886 893 821
3 886 887 893
3 894 887 889
3 893 887 894
3 895 889 890
3 894 889 895
3 823 895 822
3 895 892 822
3 895 890 892
3 822 892 815
3 896 828 893
3 893 828 821
3 897 893 894
3 896 893 897
3 831 897 830
3 897 895 830
3 897 894 895
3 830 895 823
3 898 835 836
3 828 896 836
3 896 898 836
3 896 899 898
3 900 896 897
3 899 896 900
3 838 900 831
3 831 900 897
3 898 841 835
3 841 898 844
3 844 898 899
3 844 899 845
3 899 901 845
3 899 900 901
3 846 902 838
3 902 900 838
3 902 901 900
3 847 902 846
3 903 851 901
3 901 851 845
3 904 901 902
3 903 901 904
3 853 904 847
3 847 904 902
3 905 856 903
3 903 856 851
3 859 905 858
3 905 904 858
3 905 903 904
3 858 904 853
3 905 862 856
3 862 905 859
3 906 873 874
3 875 907 874
3 874 907 906
3 877 907 875
3 906 880 873
3 880 906 882
3 906 908 882
3 906 907 908
3 883 909 877
3 909 907 877
3 909 908 907
3 885 909 883
3 908 888 882
3 888 908 891
3 891 908 909
3 891 909 885
