ply
format ascii 1.0
element vertex 1717
property float x
property float y
property float z
element face 3438
property list uchar int vertex_indices
end_header
-0.50000 63.00000 0.00000
-1.00000 63.00000 -0.50000
-1.00000 62.50000 0.00000
-1.00000 62.50000 1.00000
-0.50000 63.00000 1.00000
-1.00000 63.00000 1.50000
-0.50000 64.00000 -15.00000
-1.00000 64.00000 -15.50000
-1.00000 63.50000 -15.00000
-1.00000 64.00000 -14.50000
-0.50000 64.00000 -2.00000
-1.00000 64.00000 -2.50000
-1.00000 63.50000 -2.00000
-1.00000 63.50000 -1.00000
-0.50000 64.00000 -1.00000
-0.50000 64.00000 0.00000
-0.50000 64.00000 1.00000
-1.00000 64.00000 1.50000
-1.00000 64.50000 -15.00000
-1.00000 64.50000 -2.00000
-1.00000 64.50000 -1.00000
-1.00000 64.50000 0.00000
-1.00000 64.50000 1.00000
-1.50000 63.00000 -17.00000
-2.00000 63.00000 -17.50000
-2.00000 62.50000 -17.00000
-2.00000 62.50000 -16.00000
-1.50000 63.00000 -16.00000
-2.00000 63.00000 -15.50000
-1.50000 63.00000 -1.00000
-2.00000 63.00000 -1.50000
-2.00000 62.50000 -1.00000
-2.00000 62.50000 0.00000
-2.00000 62.50000 1.00000
-2.00000 62.50000 2.00000
-1.50000 63.00000 2.00000
-2.00000 62.50000 3.00000
-1.50000 63.00000 3.00000
-2.00000 63.00000 3.50000
-1.50000 64.00000 -20.00000
-2.00000 64.00000 -20.50000
-2.00000 63.50000 -20.00000
-2.00000 63.50000 -19.00000
-1.50000 64.00000 -19.00000
-2.00000 63.50000 -18.00000
-1.50000 64.00000 -18.00000
-1.50000 64.00000 -17.00000
-1.50000 64.00000 -16.00000
-2.00000 63.50000 -15.00000
-2.00000 63.50000 -14.00000
-1.50000 64.00000 -14.00000
-2.00000 63.50000 -13.00000
-1.50000 64.00000 -13.00000
-2.00000 63.50000 -12.00000
-1.50000 64.00000 -12.00000
-2.00000 63.50000 -11.00000
-1.50000 64.00000 -11.00000
-2.00000 63.50000 -10.00000
-1.50000 64.00000 -10.00000
-2.00000 64.00000 -9.50000
-1.50000 64.00000 -4.00000
-2.00000 64.00000 -4.50000
-2.00000 63.50000 -4.00000
-2.00000 63.50000 -3.00000
-1.50000 64.00000 -3.00000
-2.00000 63.50000 -2.00000
-1.50000 64.00000 2.00000
-1.50000 64.00000 3.00000
-2.00000 64.00000 3.50000
-2.00000 64.50000 -20.00000
-2.00000 64.50000 -19.00000
-1.50000 65.00000 -18.00000
-2.00000 65.00000 -18.50000
-1.50000 65.00000 -17.00000
-1.50000 65.00000 -16.00000
-1.50000 65.00000 -15.00000
-1.50000 65.00000 -14.00000
-1.50000 65.00000 -13.00000
-1.50000 65.00000 -12.00000
-1.50000 65.00000 -11.00000
-1.50000 65.00000 -10.00000
-2.00000 64.50000 -9.00000
-1.50000 65.00000 -9.00000
-2.00000 64.50000 -8.00000
-1.50000 65.00000 -8.00000
-2.00000 64.50000 -7.00000
-1.50000 65.00000 -7.00000
-2.00000 65.00000 -6.50000
-1.50000 65.00000 -4.00000
-2.00000 65.00000 -4.50000
-1.50000 65.00000 -3.00000
-1.50000 65.00000 -2.00000
-1.50000 65.00000 -1.00000
-1.50000 65.00000 0.00000
-1.50000 65.00000 1.00000
-1.50000 65.00000 2.00000
-1.50000 65.00000 3.00000
-2.00000 65.00000 3.50000
-2.00000 65.50000 -18.00000
-2.00000 65.50000 -17.00000
-1.50000 66.00000 -16.00000
-2.00000 66.00000 -16.50000
-1.50000 66.00000 -15.00000
-1.50000 66.00000 -14.00000
-1.50000 66.00000 -13.00000
-1.50000 66.00000 -12.00000
-1.50000 66.00000 -11.00000
-1.50000 66.00000 -10.00000
-1.50000 66.00000 -9.00000
-1.50000 66.00000 -8.00000
-1.50000 66.00000 -7.00000
-2.00000 65.50000 -6.00000
-1.50000 66.00000 -6.00000
-2.00000 65.50000 -5.00000
-1.50000 66.00000 -5.00000
-1.50000 66.00000 -4.00000
-1.50000 66.00000 -3.00000
-1.50000 66.00000 -2.00000
-1.50000 66.00000 -1.00000
-1.50000 66.00000 0.00000
-1.50000 66.00000 1.00000
-1.50000 66.00000 2.00000
-2.00000 66.00000 2.50000
-2.00000 65.50000 3.00000
-2.00000 66.50000 -16.00000
-2.00000 66.50000 -15.00000
-1.50000 67.00000 -14.00000
-2.00000 67.00000 -14.50000
-1.50000 67.00000 -13.00000
-1.50000 67.00000 -12.00000
-1.50000 67.00000 -11.00000
-1.50000 67.00000 -10.00000
-1.50000 67.00000 -9.00000
-1.50000 67.00000 -8.00000
-1.50000 67.00000 -7.00000
-1.50000 67.00000 -6.00000
-1.50000 67.00000 -5.00000
-1.50000 67.00000 -4.00000
-1.50000 67.00000 -3.00000
-1.50000 67.00000 -2.00000
-1.50000 67.00000 -1.00000
-1.50000 67.00000 0.00000
-1.50000 67.00000 1.00000
-1.50000 67.00000 2.00000
-2.00000 67.00000 2.50000
-2.00000 67.50000 -14.00000
-2.00000 67.50000 -13.00000
-2.00000 67.50000 -12.00000
-2.00000 67.50000 -11.00000
-1.50000 68.00000 -10.00000
-2.00000 68.00000 -10.50000
-1.50000 68.00000 -9.00000
-1.50000 68.00000 -8.00000
-1.50000 68.00000 -7.00000
-2.00000 68.00000 -6.50000
-2.00000 67.50000 -6.00000
-2.00000 67.50000 -5.00000
-2.00000 67.50000 -4.00000
-2.00000 67.50000 -3.00000
-2.00000 67.50000 -2.00000
-2.00000 67.50000 -1.00000
-2.00000 67.50000 0.00000
-2.00000 67.50000 1.00000
-2.00000 67.50000 2.00000
-2.00000 68.50000 -10.00000
-2.00000 68.50000 -9.00000
-2.00000 68.50000 -8.00000
-2.00000 68.50000 -7.00000
-2.50000 63.00000 -19.00000
-3.00000 63.00000 -19.50000
-3.00000 62.50000 -19.00000
-3.00000 62.50000 -18.00000
-2.50000 63.00000 -18.00000
-3.00000 62.50000 -17.00000
-3.00000 62.50000 -16.00000
-3.00000 62.50000 -15.00000
-2.50000 63.00000 -15.00000
-3.00000 62.50000 -14.00000
-2.50000 63.00000 -14.00000
-3.00000 63.00000 -13.50000
-3.00000 63.00000 -1.50000
-3.00000 62.50000 -1.00000
-3.00000 62.50000 0.00000
-3.00000 62.50000 1.00000
-3.00000 62.50000 2.00000
-3.00000 62.50000 3.00000
-3.00000 62.50000 4.00000
-2.50000 63.00000 4.00000
-3.00000 63.00000 4.50000
-3.00000 64.00000 -20.50000
-3.00000 63.50000 -20.00000
-3.00000 63.50000 -13.00000
-3.00000 63.50000 -12.00000
-3.00000 63.50000 -11.00000
-3.00000 63.50000 -10.00000
-3.00000 64.00000 -9.50000
-3.00000 64.00000 -4.50000
-3.00000 63.50000 -4.00000
-3.00000 63.50000 -3.00000
-3.00000 63.50000 -2.00000
-2.50000 64.00000 4.00000
-3.00000 64.00000 4.50000
-3.00000 64.50000 -20.00000
-2.50000 65.00000 -19.00000
-3.00000 65.00000 -19.50000
-3.00000 64.50000 -9.00000
-3.00000 64.50000 -8.00000
-3.00000 64.50000 -7.00000
-3.00000 64.50000 -6.00000
-2.50000 65.00000 -6.00000
-3.00000 64.50000 -5.00000
-2.50000 65.00000 -5.00000
-2.50000 65.00000 4.00000
-3.00000 65.00000 4.50000
-3.00000 65.50000 -19.00000
-3.00000 65.50000 -18.00000
-2.50000 66.00000 -17.00000
-3.00000 66.00000 -17.50000
-2.50000 66.00000 3.00000
-3.00000 66.00000 3.50000
-3.00000 65.50000 4.00000
-3.00000 66.50000 -17.00000
-3.00000 66.50000 -16.00000
-2.50000 67.00000 -15.00000
-3.00000 67.00000 -15.50000
-2.50000 67.00000 3.00000
-3.00000 67.00000 3.50000
-3.00000 67.50000 -15.00000
-3.00000 67.50000 -14.00000
-2.50000 68.00000 -13.00000
-3.00000 68.00000 -13.50000
-2.50000 68.00000 -12.00000
-2.50000 68.00000 -11.00000
-2.50000 68.00000 -6.00000
-2.50000 68.00000 -5.00000
-2.50000 68.00000 -4.00000
-2.50000 68.00000 -3.00000
-2.50000 68.00000 -2.00000
-2.50000 68.00000 -1.00000
-2.50000 68.00000 0.00000
-2.50000 68.00000 1.00000
-2.50000 68.00000 2.00000
-3.00000 68.00000 2.50000
-3.00000 67.50000 3.00000
-3.00000 68.50000 -13.00000
-3.00000 68.50000 -12.00000
-3.00000 68.50000 -11.00000
-3.00000 68.50000 -10.00000
-2.50000 69.00000 -9.00000
-3.00000 69.00000 -9.50000
-2.50000 69.00000 -8.00000
-2.50000 69.00000 -7.00000
-2.50000 69.00000 -6.00000
-2.50000 69.00000 -5.00000
-2.50000 69.00000 -4.00000
-2.50000 69.00000 -3.00000
-2.50000 69.00000 -2.00000
-2.50000 69.00000 -1.00000
-2.50000 69.00000 0.00000
-2.50000 69.00000 1.00000
-3.00000 69.00000 1.50000
-3.00000 68.50000 2.00000
-3.00000 69.50000 -9.00000
-3.00000 69.50000 -8.00000
-3.00000 69.50000 -7.00000
-3.00000 69.50000 -6.00000
-3.00000 69.50000 -5.00000
-3.00000 69.50000 -4.00000
-3.00000 69.50000 -3.00000
-3.00000 69.50000 -2.00000
-3.00000 69.50000 -1.00000
-3.00000 69.50000 0.00000
-3.00000 69.50000 1.00000
-3.50000 63.00000 -20.00000
-4.00000 63.00000 -20.50000
-4.00000 62.50000 -20.00000
-4.00000 62.50000 -19.00000
-4.00000 62.50000 -18.00000
-4.00000 62.50000 -17.00000
-4.00000 62.50000 -16.00000
-4.00000 62.50000 -15.00000
-4.00000 62.50000 -14.00000
-4.00000 63.00000 -13.50000
-4.00000 63.00000 -1.50000
-4.00000 62.50000 -1.00000
-4.00000 62.50000 0.00000
-4.00000 62.50000 1.00000
-3.50000 63.00000 2.00000
-4.00000 63.00000 1.50000
-3.50000 63.00000 3.00000
-3.50000 63.00000 4.00000
-3.50000 64.00000 -21.00000
-4.00000 64.00000 -21.50000
-4.00000 63.50000 -21.00000
-4.00000 63.50000 -13.00000
-4.00000 63.50000 -12.00000
-4.00000 63.50000 -11.00000
-3.50000 64.00000 -10.00000
-4.00000 64.00000 -10.50000
-3.50000 64.00000 -4.00000
-4.00000 64.00000 -3.50000
-4.00000 63.50000 -3.00000
-4.00000 63.50000 -2.00000
-4.00000 63.50000 2.00000
-4.00000 63.50000 3.00000
-4.00000 63.50000 4.00000
-4.00000 64.00000 4.50000
-4.00000 64.50000 -21.00000
-3.50000 65.00000 -20.00000
-4.00000 65.00000 -20.50000
-4.00000 64.50000 -10.00000
-4.00000 64.50000 -9.00000
-4.00000 64.50000 -8.00000
-4.00000 64.50000 -7.00000
-4.00000 64.50000 -6.00000
-4.00000 64.50000 -5.00000
-4.00000 64.50000 -4.00000
-4.00000 65.00000 4.50000
-4.00000 65.50000 -20.00000
-4.00000 65.50000 -19.00000
-3.50000 66.00000 -18.00000
-4.00000 66.00000 -18.50000
-3.50000 66.00000 4.00000
-4.00000 66.00000 4.50000
-4.00000 66.50000 -18.00000
-4.00000 66.50000 -17.00000
-3.50000 67.00000 -16.00000
-4.00000 67.00000 -16.50000
-3.50000 67.00000 4.00000
-4.00000 67.00000 4.50000
-4.00000 67.50000 -16.00000
-4.00000 67.50000 -15.00000
-3.50000 68.00000 -14.00000
-4.00000 68.00000 -14.50000
-3.50000 68.00000 3.00000
-3.50000 68.00000 4.00000
-4.00000 68.00000 4.50000
-4.00000 68.50000 -14.00000
-4.00000 68.50000 -13.00000
-3.50000 69.00000 -12.00000
-4.00000 69.00000 -12.50000
-3.50000 69.00000 -11.00000
-3.50000 69.00000 -10.00000
-3.50000 69.00000 2.00000
-3.50000 69.00000 3.00000
-4.00000 69.00000 3.50000
-4.00000 68.50000 4.00000
-4.00000 69.50000 -12.00000
-4.00000 69.50000 -11.00000
-4.00000 69.50000 -10.00000
-4.00000 69.50000 -9.00000
-4.00000 69.50000 -8.00000
-4.00000 69.50000 -7.00000
-4.00000 69.50000 -6.00000
-4.00000 69.50000 -5.00000
-4.00000 69.50000 -4.00000
-3.50000 70.00000 -3.00000
-4.00000 70.00000 -3.50000
-3.50000 70.00000 -2.00000
-3.50000 70.00000 -1.00000
-3.50000 70.00000 0.00000
-3.50000 70.00000 1.00000
-4.00000 70.00000 1.50000
-4.00000 69.50000 2.00000
-4.00000 69.50000 3.00000
-4.00000 70.50000 -3.00000
-4.00000 70.50000 -2.00000
-4.00000 70.50000 -1.00000
-4.00000 70.50000 0.00000
-4.00000 70.50000 1.00000
-4.50000 61.00000 -18.00000
-5.00000 61.00000 -18.50000
-5.00000 60.50000 -18.00000
-5.00000 61.00000 -17.50000
-4.50000 62.00000 -20.00000
-5.00000 62.00000 -20.50000
-5.00000 61.50000 -20.00000
-5.00000 61.50000 -19.00000
-4.50000 62.00000 -19.00000
-4.50000 62.00000 -18.00000
-5.00000 61.50000 -17.00000
-4.50000 62.00000 -17.00000
-5.00000 61.50000 -16.00000
-4.50000 62.00000 -16.00000
-5.00000 62.00000 -15.50000
-4.50000 63.00000 -21.00000
-5.00000 63.00000 -21.50000
-5.00000 62.50000 -21.00000
-5.00000 62.50000 -15.00000
-4.50000 63.00000 -14.00000
-5.00000 63.00000 -14.50000
-4.50000 63.00000 -1.00000
-4.50000 63.00000 0.00000
-4.50000 63.00000 1.00000
-5.00000 64.00000 -21.50000
-5.00000 63.50000 -14.00000
-4.50000 64.00000 -13.00000
-5.00000 64.00000 -13.50000
-4.50000 64.00000 -12.00000
-4.50000 64.00000 -11.00000
-5.00000 64.00000 -3.50000
-5.00000 63.50000 -3.00000
-4.50000 64.00000 -2.00000
-5.00000 64.00000 -2.50000
-4.50000 64.00000 -1.00000
-4.50000 64.00000 0.00000
-5.00000 64.00000 0.50000
-5.00000 63.50000 1.00000
-5.00000 63.50000 2.00000
-5.00000 63.50000 3.00000
-4.50000 64.00000 4.00000
-5.00000 64.00000 3.50000
-5.00000 64.50000 -21.00000
-5.00000 65.00000 -20.50000
-5.00000 64.50000 -13.00000
-5.00000 64.50000 -12.00000
-5.00000 65.00000 -11.50000
-4.50000 65.00000 -11.00000
-4.50000 65.00000 -10.00000
-5.00000 65.00000 -9.50000
-5.00000 64.50000 -9.00000
-5.00000 64.50000 -8.00000
-4.50000 65.00000 -7.00000
-5.00000 65.00000 -7.50000
-4.50000 65.00000 -6.00000
-5.00000 65.00000 -5.50000
-5.00000 64.50000 -5.00000
-5.00000 64.50000 -4.00000
-5.00000 64.50000 -2.00000
-5.00000 64.50000 -1.00000
-5.00000 65.00000 -0.50000
-4.50000 65.00000 0.00000
-5.00000 65.00000 0.50000
-4.50000 65.00000 4.00000
-5.00000 65.00000 3.50000
-5.00000 65.50000 -20.00000
-5.00000 65.50000 -19.00000
-5.00000 66.00000 -18.50000
-5.00000 65.50000 -11.00000
-5.00000 65.50000 -10.00000
-5.00000 65.50000 -7.00000
-5.00000 65.50000 -6.00000
-5.00000 65.50000 0.00000
-5.00000 65.50000 4.00000
-5.00000 66.00000 4.50000
-5.00000 66.50000 -18.00000
-5.00000 66.50000 -17.00000
-5.00000 67.00000 -16.50000
-5.00000 67.00000 4.50000
-5.00000 67.50000 -16.00000
-5.00000 67.50000 -15.00000
-5.00000 68.00000 -14.50000
-5.00000 68.00000 4.50000
-5.00000 68.50000 -14.00000
-4.50000 69.00000 -13.00000
-5.00000 69.00000 -13.50000
-4.50000 69.00000 4.00000
-5.00000 69.00000 4.50000
-5.00000 69.50000 -13.00000
-5.00000 69.50000 -12.00000
-5.00000 69.50000 -11.00000
-5.00000 69.50000 -10.00000
-4.50000 70.00000 -9.00000
-5.00000 70.00000 -9.50000
-4.50000 70.00000 -8.00000
-4.50000 70.00000 -7.00000
-4.50000 70.00000 -6.00000
-4.50000 70.00000 -5.00000
-4.50000 70.00000 -4.00000
-4.50000 70.00000 2.00000
-4.50000 70.00000 3.00000
-4.50000 70.00000 4.00000
-5.00000 70.00000 4.50000
-5.00000 70.50000 -9.00000
-5.00000 70.50000 -8.00000
-5.00000 70.50000 -7.00000
-5.00000 70.50000 -6.00000
-5.00000 70.50000 -5.00000
-5.00000 70.50000 -4.00000
-5.00000 70.50000 -3.00000
-5.00000 70.50000 -2.00000
-5.00000 70.50000 -1.00000
-5.00000 70.50000 0.00000
-5.00000 70.50000 1.00000
-5.00000 70.50000 2.00000
-5.00000 70.50000 3.00000
-5.00000 70.50000 4.00000
-5.50000 60.00000 -18.00000
-6.00000 60.00000 -18.50000
-6.00000 59.50000 -18.00000
-6.00000 60.00000 -17.50000
-5.50000 61.00000 -19.00000
-6.00000 61.00000 -19.50000
-6.00000 60.50000 -19.00000
-6.00000 60.50000 -17.00000
-5.50000 61.00000 -17.00000
-6.00000 60.50000 -16.00000
-5.50000 61.00000 -16.00000
-6.00000 61.00000 -15.50000
-6.00000 62.00000 -20.50000
-6.00000 61.50000 -20.00000
-6.00000 61.50000 -15.00000
-5.50000 62.00000 -15.00000
-6.00000 62.00000 -14.50000
-6.00000 63.00000 -21.50000
-6.00000 62.50000 -21.00000
-6.00000 62.50000 -14.00000
-5.50000 63.00000 -14.00000
-6.00000 63.00000 -13.50000
-6.00000 64.00000 -21.50000
-6.00000 63.50000 -13.00000
-5.50000 64.00000 -13.00000
-6.00000 64.00000 -12.50000
-5.50000 64.00000 -3.00000
-5.50000 64.00000 1.00000
-6.00000 64.00000 1.50000
-6.00000 63.50000 2.00000
-5.50000 64.00000 3.00000
-6.00000 64.00000 2.50000
-6.00000 64.50000 -21.00000
-6.00000 65.00000 -20.50000
-6.00000 64.50000 -12.00000
-6.00000 65.00000 -11.50000
-5.50000 65.00000 -9.00000
-5.50000 65.00000 -8.00000
-5.50000 65.00000 -5.00000
-6.00000 65.00000 -4.50000
-6.00000 64.50000 -4.00000
-5.50000 65.00000 -3.00000
-6.00000 65.00000 -3.50000
-5.50000 65.00000 -2.00000
-5.50000 65.00000 -1.00000
-5.50000 65.00000 1.00000
-6.00000 65.00000 1.50000
-6.00000 64.50000 3.00000
-6.00000 65.00000 3.50000
-6.00000 65.50000 -20.00000
-5.50000 66.00000 -19.00000
-6.00000 66.00000 -19.50000
-6.00000 65.50000 -11.00000
-5.50000 66.00000 -10.00000
-6.00000 66.00000 -10.50000
-5.50000 66.00000 -9.00000
-5.50000 66.00000 -8.00000
-5.50000 66.00000 -7.00000
-5.50000 66.00000 -6.00000
-5.50000 66.00000 -5.00000
-6.00000 65.50000 -4.00000
-5.50000 66.00000 -4.00000
-5.50000 66.00000 -3.00000
-5.50000 66.00000 -2.00000
-5.50000 66.00000 -1.00000
-5.50000 66.00000 0.00000
-6.00000 66.00000 0.50000
-6.00000 65.50000 1.00000
-5.50000 66.00000 4.00000
-6.00000 66.00000 3.50000
-6.00000 66.50000 -19.00000
-6.00000 66.50000 -18.00000
-5.50000 67.00000 -17.00000
-6.00000 67.00000 -17.50000
-6.00000 66.50000 -10.00000
-6.00000 66.50000 -9.00000
-6.00000 67.00000 -8.50000
-5.50000 67.00000 -8.00000
-5.50000 67.00000 -7.00000
-5.50000 67.00000 -6.00000
-6.00000 67.00000 -5.50000
-6.00000 66.50000 -5.00000
-6.00000 66.50000 -4.00000
-6.00000 66.50000 -3.00000
-6.00000 67.00000 -2.50000
-5.50000 67.00000 -2.00000
-6.00000 67.00000 -1.50000
-6.00000 66.50000 -1.00000
-6.00000 66.50000 0.00000
-5.50000 67.00000 4.00000
-6.00000 67.00000 3.50000
-6.00000 67.50000 -17.00000
-6.00000 67.50000 -16.00000
-5.50000 68.00000 -15.00000
-6.00000 68.00000 -15.50000
-6.00000 67.50000 -8.00000
-6.00000 67.50000 -7.00000
-6.00000 67.50000 -6.00000
-6.00000 67.50000 -2.00000
-5.50000 68.00000 4.00000
-6.00000 68.00000 3.50000
-6.00000 68.50000 -15.00000
-6.00000 68.50000 -14.00000
-6.00000 69.00000 -13.50000
-6.00000 68.50000 4.00000
-6.00000 69.00000 4.50000
-6.00000 69.50000 -13.00000
-6.00000 69.50000 -12.00000
-6.00000 69.50000 -11.00000
-5.50000 70.00000 -10.00000
-6.00000 70.00000 -10.50000
-6.00000 70.00000 4.50000
-6.00000 70.50000 -10.00000
-6.00000 70.50000 -9.00000
-6.00000 70.50000 -8.00000
-5.50000 71.00000 -7.00000
-6.00000 71.00000 -7.50000
-5.50000 71.00000 -6.00000
-5.50000 71.00000 -5.00000
-5.50000 71.00000 -4.00000
-5.50000 71.00000 -3.00000
-5.50000 71.00000 -2.00000
-5.50000 71.00000 -1.00000
-5.50000 71.00000 0.00000
-5.50000 71.00000 1.00000
-6.00000 71.00000 1.50000
-6.00000 70.50000 2.00000
-6.00000 70.50000 3.00000
-6.00000 70.50000 4.00000
-6.00000 71.50000 -7.00000
-6.00000 71.50000 -6.00000
-6.00000 71.50000 -5.00000
-6.00000 71.50000 -4.00000
-6.00000 71.50000 -3.00000
-6.00000 71.50000 -2.00000
-6.00000 71.50000 -1.00000
-6.00000 71.50000 0.00000
-6.00000 71.50000 1.00000
-6.50000 60.00000 -18.00000
-7.00000 59.50000 -17.00000
-7.00000 60.00000 -17.50000
-6.50000 60.00000 -17.00000
-7.00000 59.50000 -16.00000
-6.50000 60.00000 -16.00000
-7.00000 60.00000 -15.50000
-6.50000 61.00000 -19.00000
-7.00000 61.00000 -18.50000
-7.00000 60.50000 -18.00000
-7.00000 60.50000 -15.00000
-6.50000 61.00000 -15.00000
-7.00000 61.00000 -14.50000
-6.50000 62.00000 -20.00000
-7.00000 62.00000 -19.50000
-7.00000 61.50000 -19.00000
-7.00000 61.50000 -14.00000
-6.50000 62.00000 -14.00000
-7.00000 62.00000 -13.50000
-6.50000 63.00000 -21.00000
-7.00000 63.00000 -20.50000
-7.00000 62.50000 -20.00000
-7.00000 62.50000 -13.00000
-6.50000 63.00000 -13.00000
-7.00000 63.00000 -12.50000
-7.00000 64.00000 -21.50000
-7.00000 63.50000 -21.00000
-7.00000 63.50000 -12.00000
-6.50000 64.00000 -12.00000
-7.00000 64.00000 -11.50000
-6.50000 64.00000 2.00000
-7.00000 64.50000 -21.00000
-7.00000 65.00000 -20.50000
-7.00000 65.00000 -11.50000
-6.50000 65.00000 -4.00000
-6.50000 65.00000 2.00000
-6.50000 65.00000 3.00000
-7.00000 65.50000 -20.00000
-7.00000 66.00000 -19.50000
-7.00000 65.50000 -11.00000
-7.00000 66.00000 -10.50000
-6.50000 66.00000 1.00000
-7.00000 66.00000 1.50000
-7.00000 65.50000 2.00000
-7.00000 66.00000 2.50000
-6.50000 66.00000 3.00000
-7.00000 66.50000 -19.00000
-7.00000 66.50000 -18.00000
-6.50000 67.00000 -17.00000
-7.00000 66.50000 -17.00000
-7.00000 67.00000 -16.50000
-7.00000 66.50000 -10.00000
-7.00000 66.50000 -9.00000
-7.00000 67.00000 -8.50000
-6.50000 67.00000 -5.00000
-6.50000 67.00000 -4.00000
-6.50000 67.00000 -3.00000
-6.50000 67.00000 -1.00000
-7.00000 67.00000 -0.50000
-7.00000 66.50000 0.00000
-7.00000 66.50000 1.00000
-7.00000 66.50000 3.00000
-7.00000 67.00000 3.50000
-7.00000 67.50000 -16.00000
-6.50000 68.00000 -15.00000
-7.00000 67.50000 -15.00000
-7.00000 68.00000 -14.50000
-7.00000 67.50000 -8.00000
-7.00000 67.50000 -7.00000
-7.00000 67.50000 -6.00000
-7.00000 67.50000 -5.00000
-7.00000 67.50000 -4.00000
-7.00000 67.50000 -3.00000
-7.00000 67.50000 -2.00000
-7.00000 67.50000 -1.00000
-7.00000 68.00000 3.50000
-7.00000 68.50000 -14.00000
-7.00000 69.00000 -13.50000
-6.50000 69.00000 4.00000
-7.00000 69.00000 3.50000
-7.00000 69.50000 -13.00000
-7.00000 69.50000 -12.00000
-7.00000 69.50000 -11.00000
-7.00000 70.00000 -10.50000
-6.50000 70.00000 4.00000
-7.00000 70.00000 3.50000
-7.00000 70.50000 -10.00000
-7.00000 70.50000 -9.00000
-6.50000 71.00000 -8.00000
-7.00000 71.00000 -8.50000
-7.00000 70.50000 2.00000
-7.00000 71.00000 1.50000
-7.00000 70.50000 3.00000
-7.00000 71.50000 -8.00000
-7.00000 71.50000 -7.00000
-7.00000 71.50000 -6.00000
-7.00000 71.50000 -5.00000
-7.00000 71.50000 -4.00000
-7.00000 71.50000 -3.00000
-7.00000 71.50000 -2.00000
-7.00000 71.50000 -1.00000
-7.00000 71.50000 0.00000
-7.00000 71.50000 1.00000
-7.50000 60.00000 -17.00000
-8.00000 60.00000 -16.50000
-8.00000 59.50000 -16.00000
-8.00000 59.50000 -15.00000
-7.50000 60.00000 -15.00000
-8.00000 60.00000 -14.50000
-7.50000 61.00000 -18.00000
-7.50000 61.00000 -17.00000
-8.00000 61.00000 -16.50000
-8.00000 60.50000 -14.00000
-7.50000 61.00000 -14.00000
-8.00000 61.00000 -13.50000
-7.50000 62.00000 -19.00000
-7.50000 62.00000 -18.00000
-8.00000 62.00000 -17.50000
-8.00000 61.50000 -17.00000
-8.00000 61.50000 -13.00000
-7.50000 62.00000 -13.00000
-8.00000 62.00000 -12.50000
-7.50000 63.00000 -20.00000
-8.00000 63.00000 -19.50000
-8.00000 62.50000 -19.00000
-8.00000 62.50000 -18.00000
-8.00000 62.50000 -12.00000
-7.50000 63.00000 -12.00000
-8.00000 63.00000 -11.50000
-7.50000 64.00000 -21.00000
-8.00000 64.00000 -20.50000
-8.00000 63.50000 -20.00000
-8.00000 63.50000 -11.00000
-7.50000 64.00000 -11.00000
-8.00000 64.00000 -10.50000
-7.50000 64.00000 0.00000
-8.00000 64.00000 -0.50000
-8.00000 63.50000 0.00000
-8.00000 63.50000 1.00000
-7.50000 64.00000 1.00000
-8.00000 64.00000 1.50000
-8.00000 65.00000 -20.50000
-7.50000 65.00000 -11.00000
-8.00000 64.50000 -10.00000
-7.50000 65.00000 -10.00000
-8.00000 65.00000 -9.50000
-7.50000 65.00000 0.00000
-8.00000 65.00000 -0.50000
-8.00000 65.00000 0.50000
-8.00000 64.50000 1.00000
-8.00000 65.50000 -20.00000
-7.50000 66.00000 -19.00000
-8.00000 65.50000 -19.00000
-8.00000 66.00000 -18.50000
-7.50000 66.00000 -10.00000
-8.00000 65.50000 -9.00000
-7.50000 66.00000 -9.00000
-8.00000 66.00000 -8.50000
-7.50000 66.00000 0.00000
-8.00000 66.00000 -0.50000
-8.00000 65.50000 1.00000
-7.50000 66.00000 1.00000
-8.00000 65.50000 2.00000
-8.00000 66.00000 2.50000
-8.00000 66.50000 -18.00000
-8.00000 66.50000 -17.00000
-7.50000 67.00000 -16.00000
-8.00000 66.50000 -16.00000
-8.00000 67.00000 -15.50000
-8.00000 66.50000 -8.00000
-7.50000 67.00000 -8.00000
-8.00000 66.50000 -7.00000
-7.50000 67.00000 -7.00000
-8.00000 66.50000 -6.00000
-7.50000 67.00000 -6.00000
-8.00000 66.50000 -5.00000
-7.50000 67.00000 -5.00000
-8.00000 67.00000 -4.50000
-7.50000 67.00000 -1.00000
-8.00000 67.00000 -1.50000
-8.00000 66.50000 -1.00000
-8.00000 66.50000 3.00000
-8.00000 67.00000 3.50000
-8.00000 67.50000 -15.00000
-7.50000 68.00000 -14.00000
-8.00000 67.50000 -14.00000
-8.00000 68.00000 -13.50000
-8.00000 67.50000 -4.00000
-8.00000 67.50000 -3.00000
-8.00000 67.50000 -2.00000
-8.00000 68.00000 3.50000
-7.50000 69.00000 -13.00000
-8.00000 68.50000 -13.00000
-8.00000 69.00000 -12.50000
-8.00000 69.00000 3.50000
-8.00000 69.50000 -12.00000
-8.00000 69.50000 -11.00000
-8.00000 70.00000 -10.50000
-7.50000 70.00000 3.00000
-8.00000 69.50000 3.00000
-8.00000 70.00000 2.50000
-8.00000 70.50000 -10.00000
-8.00000 70.50000 -9.00000
-8.00000 71.00000 -8.50000
-8.00000 70.50000 2.00000
-8.00000 71.00000 1.50000
-8.00000 71.50000 -8.00000
-8.00000 71.50000 -7.00000
-8.00000 71.50000 -6.00000
-8.00000 71.50000 -5.00000
-8.00000 71.50000 -4.00000
-8.00000 71.50000 -3.00000
-8.00000 71.50000 -2.00000
-8.00000 71.50000 -1.00000
-8.00000 71.50000 0.00000
-8.00000 71.50000 1.00000
-8.50000 60.00000 -16.00000
-8.50000 60.00000 -15.00000
-9.00000 59.50000 -14.00000
-9.00000 60.00000 -14.50000
-8.50000 60.00000 -14.00000
-9.00000 60.00000 -13.50000
-8.50000 61.00000 -16.00000
-9.00000 61.00000 -15.50000
-9.00000 60.50000 -15.00000
-9.00000 60.50000 -13.00000
-8.50000 61.00000 -13.00000
-9.00000 60.50000 -12.00000
-8.50000 61.00000 -12.00000
-9.00000 61.00000 -11.50000
-8.50000 62.00000 -17.00000
-9.00000 62.00000 -16.50000
-9.00000 61.50000 -16.00000
-8.50000 62.00000 -12.00000
-9.00000 61.50000 -11.00000
-8.50000 62.00000 -11.00000
-9.00000 62.00000 -10.50000
-8.50000 63.00000 -19.00000
-9.00000 63.00000 -18.50000
-9.00000 62.50000 -18.00000
-9.00000 62.50000 -17.00000
-8.50000 63.00000 -11.00000
-9.00000 62.50000 -10.00000
-8.50000 63.00000 -10.00000
-9.00000 63.00000 -9.50000
-9.00000 64.00000 -20.50000
-9.00000 63.50000 -20.00000
-9.00000 63.50000 -19.00000
-8.50000 64.00000 -10.00000
-9.00000 64.00000 -9.50000
-9.00000 64.00000 -0.50000
-9.00000 63.50000 0.00000
-9.00000 63.50000 1.00000
-9.00000 64.00000 1.50000
-9.00000 65.00000 -20.50000
-9.00000 64.50000 -9.00000
-8.50000 65.00000 -9.00000
-9.00000 64.50000 -8.00000
-8.50000 65.00000 -8.00000
-9.00000 65.00000 -7.50000
-9.00000 65.00000 -0.50000
-8.50000 65.00000 1.00000
-9.00000 65.00000 1.50000
-9.00000 65.50000 -20.00000
-9.00000 65.50000 -19.00000
-9.00000 66.00000 -18.50000
-8.50000 66.00000 -8.00000
-9.00000 65.50000 -7.00000
-8.50000 66.00000 -7.00000
-9.00000 65.50000 -6.00000
-8.50000 66.00000 -6.00000
-9.00000 66.00000 -5.50000
-9.00000 66.00000 -0.50000
-9.00000 65.50000 2.00000
-9.00000 66.00000 2.50000
-9.00000 66.50000 -18.00000
-9.00000 66.50000 -17.00000
-9.00000 66.50000 -16.00000
-8.50000 67.00000 -15.00000
-9.00000 66.50000 -15.00000
-8.50000 67.00000 -14.00000
-9.00000 66.50000 -14.00000
-8.50000 67.00000 -13.00000
-9.00000 66.50000 -13.00000
-9.00000 67.00000 -12.50000
-9.00000 66.50000 -5.00000
-9.00000 66.50000 -4.00000
-8.50000 67.00000 -4.00000
-9.00000 67.00000 -3.50000
-9.00000 67.00000 -1.50000
-9.00000 66.50000 -1.00000
-9.00000 66.50000 3.00000
-9.00000 67.00000 3.50000
-8.50000 68.00000 -13.00000
-9.00000 68.00000 -12.50000
-9.00000 67.50000 -3.00000
-9.00000 67.50000 -2.00000
-9.00000 68.00000 3.50000
-8.50000 69.00000 -12.00000
-9.00000 68.50000 -12.00000
-9.00000 69.00000 -11.50000
-8.50000 69.00000 3.00000
-9.00000 68.50000 3.00000
-9.00000 69.00000 2.50000
-9.00000 69.50000 -11.00000
-8.50000 70.00000 -10.00000
-9.00000 69.50000 -10.00000
-9.00000 70.00000 -9.50000
-8.50000 70.00000 2.00000
-9.00000 69.50000 2.00000
-9.00000 70.00000 1.50000
-9.00000 70.50000 -9.00000
-8.50000 71.00000 -8.00000
-9.00000 70.50000 -8.00000
-9.00000 71.00000 -7.50000
-8.50000 71.00000 1.00000
-9.00000 70.50000 1.00000
-9.00000 71.00000 0.50000
-9.00000 71.50000 -7.00000
-9.00000 71.50000 -6.00000
-9.00000 71.50000 -5.00000
-9.00000 71.50000 -4.00000
-9.00000 71.50000 -3.00000
-9.00000 71.50000 -2.00000
-9.00000 71.50000 -1.00000
-9.00000 71.50000 0.00000
-10.00000 60.00000 -14.50000
-10.00000 59.50000 -14.00000
-10.00000 59.50000 -13.00000
-9.50000 60.00000 -13.00000
-10.00000 60.00000 -12.50000
-10.00000 61.00000 -15.50000
-10.00000 60.50000 -15.00000
-10.00000 60.50000 -12.00000
-10.00000 60.50000 -11.00000
-9.50000 61.00000 -11.00000
-10.00000 61.00000 -10.50000
-10.00000 62.00000 -16.50000
-10.00000 61.50000 -16.00000
-10.00000 61.50000 -10.00000
-9.50000 62.00000 -10.00000
-10.00000 62.00000 -9.50000
-9.50000 63.00000 -18.00000
-10.00000 63.00000 -17.50000
-10.00000 62.50000 -17.00000
-10.00000 62.50000 -9.00000
-9.50000 63.00000 -9.00000
-10.00000 63.00000 -8.50000
-9.50000 64.00000 -20.00000
-10.00000 64.00000 -19.50000
-10.00000 63.50000 -19.00000
-10.00000 63.50000 -18.00000
-9.50000 64.00000 -13.00000
-10.00000 63.50000 -13.00000
-10.00000 64.00000 -13.50000
-9.50000 64.00000 -12.00000
-10.00000 63.50000 -12.00000
-10.00000 64.00000 -11.50000
-9.50000 64.00000 -9.00000
-10.00000 63.50000 -8.00000
-9.50000 64.00000 -8.00000
-10.00000 63.50000 -7.00000
-9.50000 64.00000 -7.00000
-10.00000 64.00000 -6.50000
-10.00000 64.00000 -0.50000
-10.00000 63.50000 0.00000
-10.00000 63.50000 1.00000
-10.00000 64.00000 1.50000
-9.50000 65.00000 -20.00000
-10.00000 65.00000 -19.50000
-9.50000 65.00000 -13.00000
-10.00000 65.00000 -13.50000
-9.50000 65.00000 -12.00000
-10.00000 65.00000 -11.50000
-9.50000 65.00000 -7.00000
-10.00000 64.50000 -6.00000
-9.50000 65.00000 -6.00000
-10.00000 65.00000 -5.50000
-10.00000 65.00000 -0.50000
-10.00000 64.50000 2.00000
-9.50000 65.00000 2.00000
-10.00000 65.00000 2.50000
-10.00000 65.50000 -19.00000
-9.50000 66.00000 -18.00000
-10.00000 65.50000 -18.00000
-10.00000 66.00000 -17.50000
-9.50000 66.00000 -13.00000
-10.00000 66.00000 -13.50000
-9.50000 66.00000 -12.00000
-10.00000 66.00000 -11.50000
-10.00000 65.50000 -5.00000
-9.50000 66.00000 -5.00000
-10.00000 66.00000 -4.50000
-10.00000 66.00000 -0.50000
-10.00000 65.50000 3.00000
-9.50000 66.00000 3.00000
-10.00000 66.00000 3.50000
-10.00000 66.50000 -17.00000
-10.00000 66.50000 -16.00000
-10.00000 66.50000 -15.00000
-10.00000 66.50000 -14.00000
-9.50000 67.00000 -12.00000
-10.00000 67.00000 -11.50000
-10.00000 66.50000 -4.00000
-10.00000 67.00000 -3.50000
-10.00000 67.00000 -1.50000
-10.00000 66.50000 -1.00000
-10.00000 67.00000 2.50000
-9.50000 67.00000 3.00000
-10.00000 66.50000 3.00000
-9.50000 68.00000 -12.00000
-10.00000 67.50000 -11.00000
-9.50000 68.00000 -11.00000
-10.00000 68.00000 -10.50000
-10.00000 67.50000 -3.00000
-10.00000 67.50000 -2.00000
-9.50000 68.00000 2.00000
-10.00000 67.50000 2.00000
-10.00000 68.00000 1.50000
-9.50000 68.00000 3.00000
-9.50000 69.00000 -11.00000
-10.00000 69.00000 -10.50000
-9.50000 69.00000 2.00000
-10.00000 69.00000 1.50000
-10.00000 69.50000 -10.00000
-10.00000 70.00000 -9.50000
-10.00000 70.00000 1.50000
-10.00000 70.50000 -9.00000
-10.00000 70.50000 -8.00000
-9.50000 71.00000 -7.00000
-10.00000 70.50000 -7.00000
-9.50000 71.00000 -6.00000
-10.00000 70.50000 -6.00000
-10.00000 71.00000 -5.50000
-10.00000 70.50000 1.00000
-10.00000 71.00000 0.50000
-10.00000 71.50000 -5.00000
-10.00000 71.50000 -4.00000
-10.00000 71.50000 -3.00000
-10.00000 71.50000 -2.00000
-10.00000 71.50000 -1.00000
-10.00000 71.50000 0.00000
-10.50000 60.00000 -14.00000
-11.00000 60.00000 -13.50000
-11.00000 59.50000 -13.00000
-11.00000 59.50000 -12.00000
-10.50000 60.00000 -12.00000
-11.00000 59.50000 -11.00000
-10.50000 60.00000 -11.00000
-11.00000 60.00000 -10.50000
-10.50000 61.00000 -15.00000
-11.00000 61.00000 -14.50000
-11.00000 60.50000 -14.00000
-11.00000 60.50000 -10.00000
-10.50000 61.00000 -10.00000
-11.00000 61.00000 -9.50000
-10.50000 62.00000 -16.00000
-11.00000 62.00000 -15.50000
-11.00000 61.50000 -15.00000
-11.00000 61.50000 -9.00000
-10.50000 62.00000 -9.00000
-11.00000 61.50000 -8.00000
-10.50000 62.00000 -8.00000
-11.00000 62.00000 -7.50000
-10.50000 63.00000 -17.00000
-11.00000 63.00000 -16.50000
-11.00000 62.50000 -16.00000
-10.50000 63.00000 -8.00000
-11.00000 62.50000 -7.00000
-10.50000 63.00000 -7.00000
-11.00000 63.00000 -6.50000
-10.50000 64.00000 -19.00000
-11.00000 64.00000 -18.50000
-11.00000 63.50000 -18.00000
-11.00000 63.50000 -17.00000
-10.50000 64.00000 -13.00000
-11.00000 64.00000 -12.50000
-11.00000 63.50000 -12.00000
-11.00000 64.00000 -11.50000
-11.00000 63.50000 -6.00000
-10.50000 64.00000 -6.00000
-11.00000 63.50000 -5.00000
-10.50000 64.00000 -5.00000
-11.00000 64.00000 -4.50000
-11.00000 64.00000 -0.50000
-11.00000 63.50000 0.00000
-11.00000 63.50000 1.00000
-11.00000 63.50000 2.00000
-10.50000 64.00000 2.00000
-11.00000 64.00000 2.50000
-10.50000 65.00000 -19.00000
-11.00000 65.00000 -18.50000
-10.50000 65.00000 -13.00000
-11.00000 65.00000 -12.50000
-11.00000 64.50000 -11.00000
-10.50000 65.00000 -11.00000
-11.00000 65.00000 -10.50000
-10.50000 65.00000 -5.00000
-11.00000 65.00000 -4.50000
-11.00000 65.00000 -0.50000
-11.00000 65.00000 2.50000
-11.00000 65.50000 -18.00000
-11.00000 66.00000 -17.50000
-10.50000 66.00000 -13.00000
-11.00000 66.00000 -12.50000
-10.50000 66.00000 -11.00000
-11.00000 65.50000 -10.00000
-10.50000 66.00000 -10.00000
-11.00000 66.00000 -9.50000
-11.00000 66.00000 -4.50000
-10.50000 66.00000 -1.00000
-11.00000 66.00000 -1.50000
-11.00000 65.50000 -1.00000
-11.00000 65.50000 3.00000
-11.00000 66.00000 3.50000
-11.00000 66.50000 -17.00000
-11.00000 66.50000 -16.00000
-11.00000 66.50000 -15.00000
-11.00000 66.50000 -14.00000
-11.00000 66.50000 -13.00000
-10.50000 67.00000 -11.00000
-10.50000 67.00000 -10.00000
-11.00000 67.00000 -9.50000
-11.00000 66.50000 -4.00000
-11.00000 67.00000 -3.50000
-11.00000 67.00000 -1.50000
-10.50000 67.00000 2.00000
-11.00000 66.50000 2.00000
-11.00000 67.00000 1.50000
-11.00000 66.50000 3.00000
-10.50000 68.00000 -10.00000
-11.00000 67.50000 -9.00000
-10.50000 68.00000 -9.00000
-11.00000 68.00000 -8.50000
-11.00000 67.50000 -3.00000
-11.00000 67.50000 -2.00000
-11.00000 68.00000 1.50000
-10.50000 69.00000 -10.00000
-10.50000 69.00000 -9.00000
-11.00000 69.00000 -8.50000
-11.00000 69.00000 1.50000
-10.50000 70.00000 -9.00000
-11.00000 69.50000 -8.00000
-10.50000 70.00000 -8.00000
-11.00000 70.00000 -7.50000
-11.00000 70.00000 1.50000
-11.00000 70.50000 -7.00000
-11.00000 70.50000 -6.00000
-11.00000 71.00000 -5.50000
-11.00000 70.50000 1.00000
-11.00000 71.00000 0.50000
-11.00000 71.50000 -5.00000
-11.00000 71.50000 -4.00000
-11.00000 71.50000 -3.00000
-11.00000 71.50000 -2.00000
-11.00000 71.50000 -1.00000
-11.00000 71.50000 0.00000
-12.00000 60.00000 -13.50000
-12.00000 59.50000 -13.00000
-12.00000 59.50000 -12.00000
-11.50000 60.00000 -11.00000
-12.00000 60.00000 -11.50000
-11.50000 61.00000 -14.00000
-12.00000 61.00000 -13.50000
-12.00000 60.50000 -11.00000
-11.50000 61.00000 -10.00000
-12.00000 61.00000 -10.50000
-11.50000 62.00000 -15.00000
-12.00000 62.00000 -14.50000
-12.00000 61.50000 -14.00000
-12.00000 61.50000 -10.00000
-12.00000 61.50000 -9.00000
-11.50000 62.00000 -8.00000
-12.00000 62.00000 -8.50000
-11.50000 63.00000 -16.00000
-12.00000 63.00000 -15.50000
-12.00000 62.50000 -15.00000
-12.00000 62.50000 -8.00000
-12.00000 62.50000 -7.00000
-12.00000 62.50000 -6.00000
-11.50000 63.00000 -6.00000
-12.00000 62.50000 -5.00000
-11.50000 63.00000 -5.00000
-12.00000 63.00000 -4.50000
-11.50000 64.00000 -18.00000
-12.00000 64.00000 -17.50000
-12.00000 63.50000 -17.00000
-12.00000 63.50000 -16.00000
-11.50000 64.00000 -12.00000
-12.00000 63.50000 -11.00000
-12.00000 64.00000 -11.50000
-11.50000 64.00000 -11.00000
-12.00000 64.00000 -10.50000
-12.00000 64.00000 -4.50000
-11.50000 64.00000 0.00000
-12.00000 64.00000 0.50000
-12.00000 63.50000 1.00000
-12.00000 63.50000 2.00000
-12.00000 64.00000 2.50000
-12.00000 65.00000 -18.50000
-12.00000 64.50000 -18.00000
-11.50000 65.00000 -12.00000
-12.00000 65.00000 -11.50000
-11.50000 65.00000 -10.00000
-12.00000 64.50000 -10.00000
-11.50000 65.00000 -9.00000
-12.00000 64.50000 -9.00000
-12.00000 65.00000 -8.50000
-12.00000 64.50000 -4.00000
-11.50000 65.00000 -4.00000
-12.00000 65.00000 -3.50000
-12.00000 65.00000 -0.50000
-12.00000 64.50000 0.00000
-12.00000 65.00000 2.50000
-12.00000 65.50000 -18.00000
-12.00000 66.00000 -17.50000
-11.50000 66.00000 -12.00000
-12.00000 66.00000 -11.50000
-11.50000 66.00000 -9.00000
-12.00000 66.00000 -8.50000
-11.50000 66.00000 -4.00000
-12.00000 66.00000 -3.50000
-12.00000 66.00000 -1.50000
-12.00000 65.50000 -1.00000
-11.50000 66.00000 3.00000
-12.00000 66.00000 2.50000
-12.00000 66.50000 -17.00000
-12.00000 66.50000 -16.00000
-12.00000 66.50000 -15.00000
-11.50000 67.00000 -14.00000
-12.00000 67.00000 -14.50000
-11.50000 67.00000 -13.00000
-12.00000 67.00000 -12.50000
-12.00000 66.50000 -12.00000
-11.50000 67.00000 -9.00000
-12.00000 67.00000 -8.50000
-12.00000 67.00000 -3.50000
-12.00000 67.00000 -1.50000
-12.00000 66.50000 2.00000
-12.00000 67.00000 1.50000
-12.00000 67.50000 -14.00000
-12.00000 67.50000 -13.00000
-11.50000 68.00000 -8.00000
-12.00000 67.50000 -8.00000
-12.00000 68.00000 -7.50000
-12.00000 67.50000 -3.00000
-12.00000 67.50000 -2.00000
-12.00000 68.00000 1.50000
-11.50000 69.00000 -8.00000
-12.00000 69.00000 -7.50000
-12.00000 69.00000 1.50000
-12.00000 70.00000 -7.50000
-12.00000 70.00000 1.50000
-12.00000 70.50000 -7.00000
-12.00000 70.50000 -6.00000
-12.00000 71.00000 -5.50000
-12.00000 70.50000 1.00000
-12.00000 71.00000 0.50000
-12.00000 71.50000 -5.00000
-12.00000 71.50000 -4.00000
-12.00000 71.50000 -3.00000
-12.00000 71.50000 -2.00000
-12.00000 71.50000 -1.00000
-12.00000 71.50000 0.00000
-12.50000 60.00000 -13.00000
-12.50000 60.00000 -12.00000
-12.50000 61.00000 -13.00000
-12.50000 61.00000 -12.00000
-12.50000 61.00000 -11.00000
-12.50000 62.00000 -14.00000
-12.50000 62.00000 -13.00000
-12.50000 62.00000 -12.00000
-12.50000 62.00000 -11.00000
-12.50000 62.00000 -10.00000
-12.50000 62.00000 -9.00000
-12.50000 63.00000 -15.00000
-12.50000 63.00000 -14.00000
-12.50000 63.00000 -13.00000
-12.50000 63.00000 -12.00000
-12.50000 63.00000 -11.00000
-12.50000 63.00000 -10.00000
-12.50000 63.00000 -9.00000
-13.00000 62.50000 -8.00000
-13.00000 63.00000 -8.50000
-13.00000 62.50000 -7.00000
-13.00000 62.50000 -6.00000
-12.50000 63.00000 -5.00000
-13.00000 63.00000 -5.50000
-12.50000 64.00000 -17.00000
-13.00000 64.00000 -16.50000
-13.00000 63.50000 -16.00000
-13.00000 63.50000 -15.00000
-13.00000 64.00000 -14.50000
-12.50000 64.00000 -14.00000
-12.50000 64.00000 -13.00000
-12.50000 64.00000 -12.00000
-12.50000 64.00000 -10.00000
-13.00000 64.00000 -9.50000
-13.00000 63.50000 -9.00000
-13.00000 64.00000 -8.50000
-12.50000 64.00000 -8.00000
-13.00000 63.50000 -8.00000
-12.50000 64.00000 -7.00000
-13.00000 63.50000 -7.00000
-13.00000 64.00000 -6.50000
-13.00000 63.50000 -5.00000
-13.00000 63.50000 -4.00000
-12.50000 64.00000 -4.00000
-13.00000 64.00000 -3.50000
-13.00000 64.00000 0.50000
-13.00000 63.50000 1.00000
-13.00000 63.50000 2.00000
-13.00000 64.00000 2.50000
-12.50000 65.00000 -18.00000
-13.00000 65.00000 -17.50000
-13.00000 64.50000 -17.00000
-13.00000 64.50000 -14.00000
-13.00000 64.50000 -13.00000
-13.00000 65.00000 -12.50000
-12.50000 65.00000 -12.00000
-12.50000 65.00000 -11.00000
-13.00000 64.50000 -11.00000
-13.00000 65.00000 -11.50000
-13.00000 64.50000 -10.00000
-12.50000 65.00000 -10.00000
-13.00000 65.00000 -9.50000
-13.00000 64.50000 -9.00000
-12.50000 65.00000 -8.00000
-12.50000 65.00000 -7.00000
-13.00000 65.00000 -6.50000
-13.00000 65.00000 -3.50000
-13.00000 65.00000 -0.50000
-13.00000 64.50000 0.00000
-13.00000 65.00000 2.50000
-12.50000 66.00000 -17.00000
-13.00000 65.50000 -17.00000
-13.00000 66.00000 -16.50000
-13.00000 65.50000 -12.00000
-12.50000 65.50000 -11.50000
-12.50000 66.00000 -11.00000
-13.00000 66.00000 -10.50000
-13.00000 65.50000 -10.00000
-12.50000 66.00000 -8.00000
-13.00000 66.00000 -7.50000
-13.00000 65.50000 -7.00000
-13.00000 66.00000 -3.50000
-12.50000 66.00000 -1.00000
-13.00000 66.00000 -0.50000
-13.00000 66.00000 2.50000
-13.00000 66.50000 -16.00000
-13.00000 66.50000 -15.00000
-13.00000 67.00000 -14.50000
-12.50000 67.00000 -12.00000
-12.50000 67.00000 -11.00000
-13.00000 67.00000 -10.50000
-12.50000 67.00000 -8.00000
-13.00000 67.00000 -7.50000
-13.00000 67.00000 -3.50000
-13.00000 67.00000 -1.50000
-13.00000 66.50000 -1.00000
-13.00000 66.50000 2.00000
-13.00000 67.00000 1.50000
-13.00000 67.50000 -14.00000
-13.00000 67.50000 -13.00000
-13.00000 67.50000 -12.00000
-13.00000 67.50000 -11.00000
-13.00000 68.00000 -7.50000
-13.00000 67.50000 -3.00000
-13.00000 67.50000 -2.00000
-13.00000 68.00000 1.50000
-13.00000 69.00000 -7.50000
-13.00000 69.00000 1.50000
-13.00000 69.50000 -7.00000
-12.50000 70.00000 -7.00000
-13.00000 70.00000 -6.50000
-13.00000 70.00000 1.50000
-13.00000 70.50000 -6.00000
-13.00000 71.00000 -5.50000
-13.00000 70.50000 1.00000
-13.00000 71.00000 0.50000
-13.00000 71.50000 -5.00000
-13.00000 71.50000 -4.00000
-13.00000 71.50000 -3.00000
-13.00000 71.50000 -2.00000
-13.00000 71.50000 -1.00000
-13.00000 71.50000 0.00000
-13.50000 63.00000 -8.00000
-13.50000 63.00000 -7.00000
-13.50000 63.00000 -6.00000
-13.50000 64.00000 -16.00000
-13.50000 64.00000 -15.00000
-13.50000 64.00000 -9.00000
-13.50000 64.00000 -6.00000
-14.00000 63.50000 -5.00000
-14.00000 64.00000 -5.50000
-14.00000 63.50000 -4.00000
-14.00000 64.00000 -3.50000
-14.00000 64.00000 0.50000
-14.00000 63.50000 1.00000
-13.50000 64.00000 2.00000
-14.00000 64.00000 1.50000
-13.50000 65.00000 -17.00000
-13.50000 65.00000 -16.00000
-13.50000 65.00000 -15.00000
-13.50000 65.00000 -14.00000
-13.50000 65.00000 -13.00000
-13.50000 65.00000 -11.00000
-13.50000 65.00000 -10.00000
-13.50000 65.00000 -6.00000
-14.00000 65.00000 -5.50000
-14.00000 65.00000 -3.50000
-13.50000 65.00000 0.00000
-14.00000 65.00000 0.50000
-13.50000 65.00000 2.00000
-14.00000 65.00000 1.50000
-14.00000 65.50000 -16.00000
-14.00000 66.00000 -16.50000
-14.00000 65.50000 -15.00000
-14.00000 65.50000 -14.00000
-14.00000 66.00000 -13.50000
-13.50000 66.00000 -13.00000
-13.50000 66.00000 -12.00000
-13.50000 66.00000 -11.00000
-13.50000 66.00000 -7.00000
-14.00000 66.00000 -6.50000
-14.00000 65.50000 -6.00000
-14.00000 66.00000 -3.50000
-14.00000 66.00000 -0.50000
-14.00000 65.50000 0.00000
-14.00000 65.50000 2.00000
-14.00000 66.00000 2.50000
-14.00000 66.50000 -16.00000
-13.50000 67.00000 -15.00000
-14.00000 67.00000 -15.50000
-14.00000 66.50000 -13.00000
-14.00000 67.00000 -12.50000
-13.50000 67.00000 -12.00000
-13.50000 67.00000 -11.00000
-13.50000 67.00000 -10.00000
-14.00000 66.50000 -10.00000
-14.00000 67.00000 -10.50000
-14.00000 67.00000 -9.50000
-13.50000 67.00000 -7.00000
-14.00000 67.00000 -6.50000
-14.00000 66.50000 -3.00000
-13.50000 67.00000 -3.00000
-14.00000 67.00000 -2.50000
-14.00000 67.00000 -1.50000
-14.00000 66.50000 -1.00000
-13.50000 67.00000 2.00000
-14.00000 67.00000 2.50000
-14.00000 67.50000 -15.00000
-14.00000 67.50000 -14.00000
-14.00000 67.50000 -13.00000
-14.00000 67.50000 -10.00000
-13.50000 68.00000 -7.00000
-14.00000 68.00000 -6.50000
-14.00000 67.50000 -2.00000
-14.00000 67.50000 2.00000
-14.00000 68.00000 1.50000
-13.50000 69.00000 -7.00000
-14.00000 69.00000 -6.50000
-14.00000 69.00000 1.50000
-14.00000 70.00000 -6.50000
-14.00000 70.00000 1.50000
-14.00000 70.50000 -6.00000
-13.50000 71.00000 -5.00000
-14.00000 70.50000 -5.00000
-14.00000 71.00000 -4.50000
-13.50000 71.00000 0.00000
-14.00000 70.50000 0.00000
-14.00000 71.00000 -0.50000
-14.00000 70.50000 1.00000
-14.00000 71.50000 -4.00000
-14.00000 71.50000 -3.00000
-14.00000 71.50000 -2.00000
-14.00000 71.50000 -1.00000
-15.00000 64.00000 -5.50000
-15.00000 63.50000 -5.00000
-14.50000 64.00000 -4.00000
-15.00000 64.00000 -4.50000
-14.50000 64.00000 1.00000
-15.00000 65.00000 -5.50000
-15.00000 64.50000 -4.00000
-15.00000 64.50000 -3.00000
-14.50000 65.00000 -3.00000
-15.00000 65.00000 -2.50000
-15.00000 65.00000 0.50000
-15.00000 64.50000 1.00000
-15.00000 65.00000 1.50000
-14.50000 66.00000 -16.00000
-14.50000 66.00000 -15.00000
-14.50000 66.00000 -14.00000
-14.50000 66.00000 -6.00000
-15.00000 66.00000 -5.50000
-14.50000 66.00000 -3.00000
-15.00000 66.00000 -2.50000
-14.50000 66.00000 0.00000
-15.00000 66.00000 0.50000
-14.50000 66.00000 2.00000
-15.00000 66.00000 1.50000
-14.50000 67.00000 -15.00000
-14.50000 67.00000 -14.00000
-14.50000 67.00000 -13.00000
-14.50000 67.00000 -10.00000
-15.00000 67.00000 -6.50000
-15.00000 66.50000 -6.00000
-15.00000 67.00000 -2.50000
-14.50000 67.00000 -1.00000
-15.00000 67.00000 -0.50000
-15.00000 66.50000 0.00000
-15.00000 66.50000 2.00000
-15.00000 67.00000 2.50000
-15.00000 68.00000 -6.50000
-15.00000 67.50000 -2.00000
-15.00000 67.50000 -1.00000
-14.50000 68.00000 2.00000
-15.00000 68.00000 2.50000
-15.00000 69.00000 -6.50000
-14.50000 69.00000 2.00000
-15.00000 69.00000 2.50000
-15.00000 69.50000 -6.00000
-14.50000 70.00000 -6.00000
-15.00000 70.00000 -5.50000
-15.00000 69.50000 2.00000
-15.00000 70.00000 1.50000
-15.00000 70.50000 -5.00000
-15.00000 71.00000 -4.50000
-14.50000 71.00000 -1.00000
-15.00000 70.50000 -1.00000
-15.00000 71.00000 -1.50000
-15.00000 70.50000 0.00000
-15.00000 70.50000 1.00000
-15.00000 71.50000 -4.00000
-15.00000 71.50000 -3.00000
-15.00000 71.50000 -2.00000
-15.50000 64.00000 -5.00000
-16.00000 65.00000 -5.50000
-16.00000 64.50000 -5.00000
-16.00000 64.50000 -4.00000
-15.50000 65.00000 -3.00000
-16.00000 65.00000 -3.50000
-15.50000 65.00000 1.00000
-16.00000 66.00000 -5.50000
-16.00000 65.50000 -3.00000
-16.00000 66.00000 -2.50000
-16.00000 66.00000 0.50000
-16.00000 65.50000 1.00000
-16.00000 66.00000 1.50000
-15.50000 67.00000 -6.00000
-16.00000 67.00000 -5.50000
-16.00000 66.50000 -2.00000
-15.50000 67.00000 -2.00000
-16.00000 67.00000 -1.50000
-16.00000 67.00000 -0.50000
-16.00000 66.50000 0.00000
-15.50000 67.00000 2.00000
-16.00000 67.00000 1.50000
-15.50000 68.00000 -6.00000
-16.00000 68.00000 -5.50000
-16.00000 67.50000 -1.00000
-15.50000 68.00000 2.00000
-16.00000 68.00000 1.50000
-15.50000 69.00000 -6.00000
-16.00000 69.00000 -5.50000
-16.00000 68.50000 2.00000
-16.00000 69.00000 2.50000
-16.00000 70.00000 -5.50000
-15.50000 70.00000 1.00000
-16.00000 69.50000 1.00000
-16.00000 70.00000 0.50000
-16.00000 69.50000 2.00000
-16.00000 70.50000 -5.00000
-15.50000 71.00000 -4.00000
-16.00000 70.50000 -4.00000
-15.50000 71.00000 -3.00000
-16.00000 70.50000 -3.00000
-15.50000 71.00000 -2.00000
-16.00000 70.50000 -2.00000
-16.00000 70.50000 -1.00000
-16.00000 70.50000 0.00000
-16.50000 65.00000 -5.00000
-16.50000 65.00000 -4.00000
-17.00000 66.00000 -5.50000
-17.00000 65.50000 -5.00000
-17.00000 65.50000 -4.00000
-17.00000 65.50000 -3.00000
-17.00000 65.50000 -2.00000
-16.50000 66.00000 -2.00000
-17.00000 65.50000 -1.00000
-16.50000 66.00000 -1.00000
-17.00000 66.00000 -0.50000
-16.50000 66.00000 1.00000
-17.00000 67.00000 -5.50000
-16.50000 67.00000 -1.00000
-17.00000 66.50000 0.00000
-17.00000 66.50000 1.00000
-17.00000 67.00000 1.50000
-17.00000 68.00000 -5.50000
-17.00000 68.00000 1.50000
-17.00000 69.00000 -5.50000
-16.50000 69.00000 2.00000
-17.00000 69.00000 1.50000
-17.00000 69.50000 -5.00000
-16.50000 70.00000 -5.00000
-17.00000 70.00000 -4.50000
-17.00000 69.50000 1.00000
-17.00000 70.00000 0.50000
-17.00000 70.50000 -4.00000
-17.00000 70.50000 -3.00000
-17.00000 70.50000 -2.00000
-17.00000 70.50000 -1.00000
-17.00000 70.50000 0.00000
-18.00000 66.00000 -5.50000
-18.00000 65.50000 -5.00000
-18.00000 65.50000 -4.00000
-17.50000 66.00000 -3.00000
-18.00000 66.00000 -3.50000
-17.50000 66.00000 -2.00000
-17.50000 66.00000 -1.00000
-18.00000 67.00000 -5.50000
-18.00000 66.50000 -3.00000
-18.00000 66.50000 -2.00000
-18.00000 66.50000 -1.00000
-17.50000 67.00000 0.00000
-18.00000 67.00000 -0.50000
-17.50000 67.00000 1.00000
-18.00000 68.00000 -5.50000
-18.00000 67.50000 0.00000
-18.00000 67.50000 1.00000
-18.00000 68.00000 1.50000
-18.00000 68.50000 -5.00000
-17.50000 69.00000 -5.00000
-18.00000 69.00000 -4.50000
-18.00000 69.00000 1.50000
-17.50000 70.00000 -4.00000
-18.00000 69.50000 -4.00000
-18.00000 70.00000 -3.50000
-17.50000 70.00000 1.00000
-18.00000 70.00000 1.50000
-18.00000 70.50000 -3.00000
-18.00000 70.50000 -2.00000
-18.00000 70.50000 -1.00000
-18.00000 70.50000 0.00000
-18.00000 70.50000 1.00000
-18.50000 66.00000 -5.00000
-18.50000 66.00000 -4.00000
-18.50000 67.00000 -5.00000
-19.00000 67.00000 -4.50000
-19.00000 66.50000 -4.00000
-19.00000 66.50000 -3.00000
-18.50000 67.00000 -2.00000
-19.00000 67.00000 -2.50000
-18.50000 67.00000 -1.00000
-18.50000 68.00000 -5.00000
-19.00000 68.00000 -4.50000
-19.00000 67.50000 -2.00000
-19.00000 67.50000 -1.00000
-18.50000 68.00000 0.00000
-19.00000 68.00000 -0.50000
-18.50000 68.00000 1.00000
-18.50000 69.00000 -4.00000
-19.00000 68.50000 -4.00000
-19.00000 69.00000 -3.50000
-19.00000 68.50000 0.00000
-19.00000 69.00000 0.50000
-18.50000 69.00000 1.00000
-18.50000 70.00000 -3.00000
-19.00000 69.50000 -3.00000
-18.50000 70.00000 -2.00000
-19.00000 69.50000 -2.00000
-18.50000 70.00000 -1.00000
-19.00000 69.50000 -1.00000
-19.00000 70.00000 -0.50000
-18.50000 70.00000 1.00000
-19.00000 70.00000 0.50000
-19.00000 70.50000 0.00000
-19.50000 67.00000 -4.00000
-19.50000 67.00000 -3.00000
-19.50000 68.00000 -4.00000
-19.50000 68.00000 -3.00000
-20.00000 67.50000 -2.00000
-20.00000 68.00000 -2.50000
-19.50000 68.00000 -1.00000
-20.00000 68.00000 -1.50000
-19.50000 69.00000 -3.00000
-20.00000 68.50000 -2.00000
-19.50000 69.00000 -2.00000
-19.50000 69.00000 -1.00000
-19.50000 69.00000 0.00000
-19.50000 70.00000 0.00000
-20.50000 68.00000 -2.00000
3 2 1 0
3 4 3 0
3 0 3 2
3 4 5 3
3 8 7 6
3 6 9 8
3 12 11 10
3 14 13 10
3 10 13 12
3 13 14 1
3 14 0 1
3 14 15 0
3 0 16 4
3 0 15 16
3 5 4 17
3 17 4 16
3 7 18 6
3 6 18 9
3 11 19 10
3 10 19 14
3 14 19 20
3 14 20 15
3 15 20 21
3 15 21 16
3 16 21 22
3 16 22 17
3 25 24 23
3 27 26 23
3 23 26 25
3 27 28 26
3 31 30 29
3 1 2 29
3 2 31 29
3 2 32 31
3 33 2 3
3 33 32 2
3 35 34 5
3 34 3 5
3 34 33 3
3 37 36 35
3 35 36 34
3 37 38 36
3 41 40 39
3 43 42 39
3 39 42 41
3 45 44 43
3 43 44 42
3 44 45 24
3 45 23 24
3 45 46 23
3 23 47 27
3 23 46 47
3 8 48 7
3 48 27 7
3 27 47 7
3 27 48 28
3 50 49 9
3 49 8 9
3 49 48 8
3 52 51 50
3 50 51 49
3 54 53 52
3 52 53 51
3 56 55 54
3 54 55 53
3 58 57 56
3 56 57 55
3 58 59 57
3 62 61 60
3 64 63 60
3 60 63 62
3 11 12 64
3 12 63 64
3 12 65 63
3 13 29 30
3 65 13 30
3 12 13 65
3 29 13 1
3 17 66 35
3 17 35 5
3 35 67 37
3 35 66 67
3 38 37 68
3 68 37 67
3 40 69 39
3 39 69 43
3 43 69 70
3 72 71 70
3 71 43 70
3 71 45 43
3 45 73 46
3 45 71 73
3 46 74 47
3 46 73 74
3 75 18 7
3 47 75 7
3 74 75 47
3 50 9 18
3 75 50 18
3 76 50 75
3 50 77 52
3 50 76 77
3 52 78 54
3 52 77 78
3 54 79 56
3 54 78 79
3 56 80 58
3 56 79 80
3 59 58 81
3 58 82 81
3 58 80 82
3 84 83 82
3 82 83 81
3 86 85 84
3 84 85 83
3 86 87 85
3 60 61 88
3 88 61 89
3 60 90 64
3 60 88 90
3 91 19 11
3 64 91 11
3 90 91 64
3 92 20 19
3 92 19 91
3 93 21 20
3 93 20 92
3 94 22 21
3 94 21 93
3 66 17 22
3 94 66 22
3 95 66 94
3 66 96 67
3 66 95 96
3 68 67 97
3 97 67 96
3 72 98 71
3 71 98 73
3 73 98 99
3 101 100 99
3 100 73 99
3 100 74 73
3 74 102 75
3 74 100 102
3 75 103 76
3 75 102 103
3 76 104 77
3 76 103 104
3 77 105 78
3 77 104 105
3 78 106 79
3 78 105 106
3 79 107 80
3 79 106 107
3 80 108 82
3 80 107 108
3 82 109 84
3 82 108 109
3 84 110 86
3 84 109 110
3 87 86 111
3 86 112 111
3 86 110 112
3 114 113 112
3 112 113 111
3 113 114 89
3 114 88 89
3 114 115 88
3 88 116 90
3 88 115 116
3 90 117 91
3 90 116 117
3 91 118 92
3 91 117 118
3 92 119 93
3 92 118 119
3 93 120 94
3 93 119 120
3 94 121 95
3 94 120 121
3 123 96 122
3 96 121 122
3 96 95 121
3 96 123 97
3 101 124 100
3 100 124 102
3 102 124 125
3 127 126 125
3 126 102 125
3 126 103 102
3 103 128 104
3 103 126 128
3 104 129 105
3 104 128 129
3 105 130 106
3 105 129 130
3 106 131 107
3 106 130 131
3 107 132 108
3 107 131 132
3 108 133 109
3 108 132 133
3 109 134 110
3 109 133 134
3 110 135 112
3 110 134 135
3 112 136 114
3 112 135 136
3 114 137 115
3 114 136 137
3 115 138 116
3 115 137 138
3 116 139 117
3 116 138 139
3 117 140 118
3 117 139 140
3 118 141 119
3 118 140 141
3 119 142 120
3 119 141 142
3 120 143 121
3 120 142 143
3 122 121 144
3 144 121 143
3 127 145 126
3 126 145 128
3 128 145 146
3 128 146 129
3 129 146 147
3 129 147 130
3 130 147 148
3 150 149 148
3 149 130 148
3 149 131 130
3 131 151 132
3 131 149 151
3 132 152 133
3 132 151 152
3 133 153 134
3 133 152 153
3 155 135 154
3 135 153 154
3 135 134 153
3 135 155 136
3 136 155 156
3 136 156 137
3 137 156 157
3 137 157 138
3 138 157 158
3 138 158 139
3 139 158 159
3 139 159 140
3 140 159 160
3 140 160 141
3 141 160 161
3 141 161 142
3 142 161 162
3 142 162 143
3 143 162 163
3 143 163 144
3 150 164 149
3 149 164 151
3 151 164 165
3 151 165 152
3 152 165 166
3 152 166 153
3 153 166 167
3 153 167 154
3 170 169 168
3 172 171 168
3 168 171 170
3 24 25 172
3 25 171 172
3 25 173 171
3 174 25 26
3 174 173 25
3 176 175 28
3 175 26 28
3 175 174 26
3 178 177 176
3 176 177 175
3 178 179 177
3 181 180 31
3 31 180 30
3 182 31 32
3 182 181 31
3 183 32 33
3 183 182 32
3 184 33 34
3 184 183 33
3 185 34 36
3 185 184 34
3 187 186 38
3 186 36 38
3 186 185 36
3 187 188 186
3 190 189 41
3 41 189 40
3 42 168 169
3 190 42 169
3 41 42 190
3 168 42 44
3 168 44 172
3 172 44 24
3 48 176 28
3 176 48 49
3 176 49 178
3 191 179 178
3 49 191 178
3 51 191 49
3 192 51 53
3 192 191 51
3 193 53 55
3 193 192 53
3 194 55 57
3 194 193 55
3 57 59 194
3 194 59 195
3 197 196 62
3 62 196 61
3 198 62 63
3 198 197 62
3 199 63 65
3 199 198 63
3 65 30 180
3 65 180 199
3 68 200 187
3 68 187 38
3 188 187 201
3 201 187 200
3 189 202 40
3 40 202 69
3 202 204 203
3 70 202 203
3 69 202 70
3 203 72 70
3 205 195 59
3 205 59 81
3 206 81 83
3 206 205 81
3 207 83 85
3 207 206 83
3 209 208 87
3 208 85 87
3 208 207 85
3 211 210 209
3 209 210 208
3 196 210 211
3 89 196 211
3 61 196 89
3 97 212 200
3 97 200 68
3 201 200 213
3 213 200 212
3 204 214 203
3 203 214 72
3 214 98 72
3 214 215 98
3 215 217 216
3 99 215 216
3 98 215 99
3 216 101 99
3 111 209 87
3 209 111 113
3 209 113 211
3 211 113 89
3 122 218 123
3 218 219 123
3 123 219 97
3 219 220 97
3 220 212 97
3 212 220 213
3 217 221 216
3 216 221 101
3 221 124 101
3 221 222 124
3 222 224 223
3 125 222 223
3 124 222 125
3 223 127 125
3 144 225 218
3 144 218 122
3 219 218 226
3 226 218 225
3 224 227 223
3 223 227 127
3 227 145 127
3 227 228 145
3 228 230 229
3 146 228 229
3 145 228 146
3 231 147 146
3 231 146 229
3 232 148 147
3 232 147 231
3 232 150 148
3 154 233 155
3 234 156 155
3 234 155 233
3 235 157 156
3 235 156 234
3 236 158 157
3 236 157 235
3 237 159 158
3 237 158 236
3 238 160 159
3 238 159 237
3 239 161 160
3 239 160 238
3 240 162 161
3 240 161 239
3 241 163 162
3 241 162 240
3 241 242 163
3 163 242 144
3 242 243 144
3 243 225 144
3 225 243 226
3 230 244 229
3 229 244 231
3 231 244 245
3 231 245 232
3 232 245 246
3 232 246 150
3 246 164 150
3 246 247 164
3 247 249 248
3 165 247 248
3 164 247 165
3 250 166 165
3 250 165 248
3 251 167 166
3 251 166 250
3 233 154 167
3 251 233 167
3 252 233 251
3 233 253 234
3 233 252 253
3 234 254 235
3 234 253 254
3 235 255 236
3 235 254 255
3 236 256 237
3 236 255 256
3 237 257 238
3 237 256 257
3 238 258 239
3 238 257 258
3 239 259 240
3 239 258 259
3 261 241 260
3 241 259 260
3 241 240 259
3 241 261 242
3 249 262 248
3 248 262 250
3 250 262 263
3 250 263 251
3 251 263 264
3 251 264 252
3 252 264 265
3 252 265 253
3 253 265 266
3 253 266 254
3 254 266 267
3 254 267 255
3 255 267 268
3 255 268 256
3 256 268 269
3 256 269 257
3 257 269 270
3 257 270 258
3 258 270 271
3 258 271 259
3 259 271 272
3 259 272 260
3 275 274 273
3 169 170 273
3 170 275 273
3 170 276 275
3 277 170 171
3 277 276 170
3 278 171 173
3 278 277 171
3 279 173 174
3 279 278 173
3 280 174 175
3 280 279 174
3 281 175 177
3 281 280 175
3 177 179 281
3 281 179 282
3 284 283 181
3 181 283 180
3 285 181 182
3 285 284 181
3 286 182 183
3 286 285 182
3 288 286 287
3 286 184 287
3 286 183 184
3 185 289 184
3 184 289 287
3 186 290 185
3 185 290 289
3 188 290 186
3 293 292 291
3 293 291 274
3 274 291 273
3 291 189 273
3 189 190 273
3 273 190 169
3 294 282 179
3 294 179 191
3 295 191 192
3 295 294 191
3 296 192 193
3 296 295 192
3 298 296 297
3 296 194 297
3 296 193 194
3 195 297 194
3 299 196 197
3 299 197 300
3 197 301 300
3 197 198 301
3 302 198 199
3 302 301 198
3 199 180 283
3 199 283 302
3 303 288 287
3 303 287 289
3 303 289 304
3 304 289 290
3 304 290 305
3 290 188 305
3 188 306 305
3 188 201 306
3 292 307 291
3 307 309 308
3 307 308 202
3 291 307 202
3 189 291 202
3 308 204 202
3 310 298 297
3 310 297 195
3 205 310 195
3 311 310 205
3 312 205 206
3 312 311 205
3 313 206 207
3 313 312 206
3 314 207 208
3 314 313 207
3 315 208 210
3 315 314 208
3 210 196 299
3 316 210 299
3 315 210 316
3 316 299 300
3 213 306 201
3 213 317 306
3 309 318 308
3 308 318 204
3 318 214 204
3 318 319 214
3 319 321 320
3 215 319 320
3 214 319 215
3 320 217 215
3 219 322 220
3 322 323 220
3 323 213 220
3 323 317 213
3 321 324 320
3 320 324 217
3 324 221 217
3 324 325 221
3 325 327 326
3 222 325 326
3 221 325 222
3 326 224 222
3 226 328 322
3 226 322 219
3 323 322 329
3 329 322 328
3 327 330 326
3 326 330 224
3 330 227 224
3 330 331 227
3 331 333 332
3 228 331 332
3 227 331 228
3 332 230 228
3 242 334 243
3 328 226 243
3 334 328 243
3 335 328 334
3 329 328 336
3 336 328 335
3 333 337 332
3 332 337 230
3 337 244 230
3 337 338 244
3 338 340 339
3 245 338 339
3 244 338 245
3 341 246 245
3 341 245 339
3 342 247 246
3 342 246 341
3 342 249 247
3 260 343 261
3 334 242 261
3 343 334 261
3 344 334 343
3 346 335 345
3 335 344 345
3 335 334 344
3 335 346 336
3 340 347 339
3 339 347 341
3 341 347 348
3 341 348 342
3 342 348 349
3 342 349 249
3 349 262 249
3 349 350 262
3 262 351 263
3 350 351 262
3 263 352 264
3 351 352 263
3 264 353 265
3 352 353 264
3 265 354 266
3 353 354 265
3 266 355 267
3 354 355 266
3 355 357 356
3 268 355 356
3 267 355 268
3 358 269 268
3 358 268 356
3 359 270 269
3 359 269 358
3 360 271 270
3 360 270 359
3 361 272 271
3 361 271 360
3 361 362 272
3 272 362 260
3 362 363 260
3 363 343 260
3 343 363 344
3 344 363 364
3 344 364 345
3 357 365 356
3 356 365 358
3 358 365 366
3 358 366 359
3 359 366 367
3 359 367 360
3 360 367 368
3 360 368 361
3 361 368 369
3 361 369 362
3 372 371 370
3 370 373 372
3 376 375 374
3 378 377 374
3 374 377 376
3 377 378 371
3 378 370 371
3 378 379 370
3 373 370 380
3 370 381 380
3 370 379 381
3 383 382 381
3 381 382 380
3 383 384 382
3 387 386 385
3 387 385 375
3 375 385 374
3 385 274 374
3 274 275 374
3 374 275 276
3 374 276 378
3 378 276 277
3 378 277 379
3 379 277 278
3 379 278 381
3 381 278 279
3 381 279 383
3 388 384 383
3 279 388 383
3 280 388 279
3 390 388 389
3 388 281 389
3 388 280 281
3 282 389 281
3 391 283 284
3 285 392 284
3 284 392 391
3 286 393 285
3 285 393 392
3 288 393 286
3 385 386 293
3 386 292 293
3 386 394 292
3 385 293 274
3 395 390 389
3 397 395 396
3 396 395 294
3 395 389 294
3 389 282 294
3 295 398 294
3 294 398 396
3 296 399 295
3 295 399 398
3 298 399 296
3 401 400 301
3 301 400 300
3 403 401 402
3 401 302 402
3 401 301 302
3 283 391 302
3 391 402 302
3 391 404 402
3 405 391 392
3 404 391 405
3 393 407 406
3 405 393 406
3 392 393 405
3 407 393 288
3 303 407 288
3 408 407 303
3 409 303 304
3 409 408 303
3 411 409 410
3 409 305 410
3 409 304 305
3 306 410 305
3 394 412 292
3 292 412 307
3 309 307 412
3 309 412 413
3 414 397 396
3 414 396 398
3 414 398 415
3 417 416 415
3 398 417 415
3 399 417 398
3 310 418 298
3 418 399 298
3 418 417 399
3 418 310 419
3 310 420 419
3 310 311 420
3 421 311 312
3 421 420 311
3 423 421 422
3 421 313 422
3 421 312 313
3 314 424 313
3 313 424 422
3 424 314 425
3 314 426 425
3 314 315 426
3 427 315 316
3 427 426 315
3 316 300 400
3 316 400 427
3 428 403 402
3 428 402 404
3 428 404 429
3 431 430 429
3 404 431 429
3 405 431 404
3 405 406 432
3 405 432 431
3 411 410 433
3 411 433 434
3 317 433 306
3 306 433 410
3 413 435 309
3 309 435 318
3 318 436 319
3 435 436 318
3 321 319 436
3 321 436 437
3 438 416 417
3 438 417 418
3 438 418 439
3 439 418 419
3 440 423 422
3 440 422 424
3 440 424 441
3 441 424 425
3 442 430 431
3 442 431 432
3 443 434 433
3 433 317 443
3 317 444 443
3 317 323 444
3 437 445 321
3 321 445 324
3 324 446 325
3 445 446 324
3 327 325 446
3 327 446 447
3 329 444 323
3 329 448 444
3 447 449 327
3 327 449 330
3 330 450 331
3 449 450 330
3 333 331 450
3 333 450 451
3 336 448 329
3 336 452 448
3 451 453 333
3 333 453 337
3 453 455 454
3 338 453 454
3 337 453 338
3 454 340 338
3 345 456 346
3 456 457 346
3 457 336 346
3 457 452 336
3 455 458 454
3 454 458 340
3 458 347 340
3 458 459 347
3 347 460 348
3 459 460 347
3 348 461 349
3 460 461 348
3 461 463 462
3 350 461 462
3 349 461 350
3 464 351 350
3 464 350 462
3 465 352 351
3 465 351 464
3 466 353 352
3 466 352 465
3 467 354 353
3 467 353 466
3 468 355 354
3 468 354 467
3 468 357 355
3 362 469 363
3 470 364 363
3 470 363 469
3 456 345 364
3 470 456 364
3 471 456 470
3 457 456 472
3 472 456 471
3 463 473 462
3 462 473 464
3 464 473 474
3 464 474 465
3 465 474 475
3 465 475 466
3 466 475 476
3 466 476 467
3 467 476 477
3 467 477 468
3 468 477 478
3 468 478 357
3 478 365 357
3 478 479 365
3 365 480 366
3 479 480 365
3 366 481 367
3 480 481 366
3 367 482 368
3 481 482 367
3 368 483 369
3 482 483 368
3 362 369 469
3 369 484 469
3 369 483 484
3 469 484 470
3 470 484 485
3 470 485 471
3 471 485 486
3 471 486 472
3 489 488 487
3 487 490 489
3 493 492 491
3 493 491 488
3 488 491 487
3 491 371 487
3 371 372 487
3 495 494 373
3 373 494 372
3 494 490 372
3 490 487 372
3 497 496 495
3 495 496 494
3 497 498 496
3 500 499 376
3 376 499 375
3 377 491 492
3 500 377 492
3 376 377 500
3 491 377 371
3 380 495 373
3 495 380 382
3 495 382 497
3 502 501 384
3 384 501 382
3 501 498 382
3 498 497 382
3 502 503 501
3 505 504 387
3 387 504 386
3 387 375 499
3 387 499 505
3 388 502 384
3 507 506 390
3 390 506 388
3 506 503 388
3 503 502 388
3 507 508 506
3 504 394 386
3 509 394 504
3 395 507 390
3 511 510 397
3 397 510 395
3 510 508 395
3 508 507 395
3 511 512 510
3 513 400 401
3 403 513 401
3 514 406 407
3 514 407 515
3 407 516 515
3 407 408 516
3 518 516 517
3 516 409 517
3 516 408 409
3 411 517 409
3 509 519 394
3 394 519 412
3 413 412 519
3 413 519 520
3 414 511 397
3 521 512 511
3 414 521 511
3 415 521 414
3 415 416 521
3 521 416 522
3 523 419 420
3 421 524 420
3 420 524 523
3 423 524 421
3 525 425 426
3 525 426 526
3 426 527 526
3 426 427 527
3 527 427 400
3 528 527 400
3 513 528 400
3 527 528 529
3 428 530 403
3 530 513 403
3 530 528 513
3 429 531 428
3 428 531 530
3 430 531 429
3 532 432 514
3 514 432 406
3 514 515 533
3 514 533 532
3 534 518 517
3 517 411 534
3 411 535 534
3 411 434 535
3 520 536 413
3 413 536 435
3 536 538 537
3 436 536 537
3 435 536 436
3 537 437 436
3 539 522 416
3 539 416 438
3 541 539 540
3 539 439 540
3 539 438 439
3 419 523 439
3 523 540 439
3 523 542 540
3 543 523 524
3 542 523 543
3 440 544 423
3 544 524 423
3 544 543 524
3 441 545 440
3 440 545 544
3 425 525 441
3 525 545 441
3 525 546 545
3 525 526 547
3 548 525 547
3 546 525 548
3 548 547 529
3 528 548 529
3 549 548 528
3 550 528 530
3 549 528 550
3 551 530 531
3 550 530 551
3 442 552 430
3 552 531 430
3 552 551 531
3 553 552 442
3 553 442 432
3 554 553 432
3 532 554 432
3 554 532 533
3 434 443 555
3 556 434 555
3 535 434 556
3 444 555 443
3 538 557 537
3 537 557 437
3 557 445 437
3 557 558 445
3 558 560 559
3 446 558 559
3 445 558 446
3 559 447 446
3 561 541 540
3 561 540 542
3 561 542 562
3 564 563 562
3 542 564 562
3 543 564 542
3 565 543 544
3 564 543 565
3 566 544 545
3 565 544 566
3 546 568 567
3 566 546 567
3 545 546 566
3 568 546 548
3 568 548 569
3 569 548 549
3 569 549 570
3 572 571 570
3 549 572 570
3 550 572 549
3 551 574 573
3 572 551 573
3 550 551 572
3 574 551 552
3 574 552 575
3 575 552 553
3 556 555 576
3 556 576 577
3 448 576 444
3 444 576 555
3 560 578 559
3 559 578 447
3 578 449 447
3 578 579 449
3 579 581 580
3 450 579 580
3 449 579 450
3 580 451 450
3 582 563 564
3 582 564 565
3 582 565 583
3 583 565 566
3 583 566 584
3 584 566 567
3 585 571 572
3 585 572 573
3 577 576 586
3 577 586 587
3 452 586 448
3 448 586 576
3 581 588 580
3 580 588 451
3 588 453 451
3 588 589 453
3 455 453 589
3 455 589 590
3 591 587 586
3 586 452 591
3 452 592 591
3 452 457 592
3 590 593 455
3 455 593 458
3 458 594 459
3 593 594 458
3 459 595 460
3 594 595 459
3 595 597 596
3 461 595 596
3 460 595 461
3 596 463 461
3 472 592 457
3 472 598 592
3 597 599 596
3 596 599 463
3 599 473 463
3 599 600 473
3 473 601 474
3 600 601 473
3 601 603 602
3 475 601 602
3 474 601 475
3 604 476 475
3 604 475 602
3 605 477 476
3 605 476 604
3 606 478 477
3 606 477 605
3 607 479 478
3 607 478 606
3 608 480 479
3 608 479 607
3 609 481 480
3 609 480 608
3 610 482 481
3 610 481 609
3 611 483 482
3 611 482 610
3 483 611 612
3 613 483 612
3 484 483 613
3 484 614 485
3 613 614 484
3 485 615 486
3 614 615 485
3 472 486 598
3 598 486 615
3 603 616 602
3 602 616 604
3 604 616 617
3 604 617 605
3 605 617 618
3 605 618 606
3 606 618 619
3 606 619 607
3 607 619 620
3 607 620 608
3 608 620 621
3 608 621 609
3 609 621 622
3 609 622 610
3 610 622 623
3 610 623 611
3 611 623 624
3 611 624 612
3 625 488 489
3 627 625 626
3 625 489 626
3 490 628 626
3 490 626 489
3 630 629 628
3 628 629 626
3 630 631 629
3 632 492 493
3 633 632 493
3 633 493 488
3 634 633 488
3 625 634 488
3 490 494 628
3 625 627 634
3 628 494 496
3 628 496 630
3 636 635 498
3 498 635 496
3 635 631 496
3 631 630 496
3 636 637 635
3 638 499 500
3 639 638 500
3 639 500 492
3 640 639 492
3 632 640 492
3 640 632 633
3 501 636 498
3 642 641 503
3 503 641 501
3 641 637 501
3 637 636 501
3 642 643 641
3 644 504 505
3 645 644 505
3 645 505 499
3 646 645 499
3 638 646 499
3 646 638 639
3 506 642 503
3 648 647 508
3 508 647 506
3 647 643 506
3 643 642 506
3 648 649 647
3 651 650 644
3 650 504 644
3 650 509 504
3 651 644 645
3 510 648 508
3 653 652 512
3 512 652 510
3 652 649 510
3 649 648 510
3 653 654 652
3 655 515 516
3 518 655 516
3 650 656 509
3 509 656 519
3 520 519 656
3 520 656 657
3 521 653 512
3 521 522 653
3 522 654 653
3 522 658 654
3 659 526 527
3 529 659 527
3 660 533 655
3 655 533 515
3 534 661 518
3 661 655 518
3 661 660 655
3 535 661 534
3 657 662 520
3 520 662 536
3 538 536 662
3 538 662 663
3 664 658 522
3 664 522 539
3 539 541 664
3 664 541 665
3 659 547 526
3 547 659 529
3 666 553 554
3 667 666 554
3 667 554 533
3 668 667 533
3 660 668 533
3 670 669 668
3 660 670 668
3 661 670 660
3 556 670 535
3 535 670 661
3 663 671 538
3 538 671 557
3 557 672 558
3 671 672 557
3 674 673 560
3 558 674 560
3 672 674 558
3 675 673 674
3 676 665 541
3 676 541 561
3 677 561 562
3 677 676 561
3 562 563 677
3 677 563 678
3 679 567 568
3 569 680 568
3 568 680 679
3 570 681 569
3 569 681 680
3 571 681 570
3 682 573 574
3 682 574 683
3 574 684 683
3 574 575 684
3 575 553 666
3 685 575 666
3 684 575 685
3 685 666 667
3 686 669 670
3 670 556 686
3 556 687 686
3 556 577 687
3 673 578 560
3 675 688 673
3 688 578 673
3 688 579 578
3 690 689 581
3 579 690 581
3 688 690 579
3 691 689 690
3 692 678 563
3 692 563 582
3 693 582 583
3 693 692 582
3 694 583 584
3 694 693 583
3 584 567 679
3 695 584 679
3 694 584 695
3 695 679 680
3 695 680 696
3 696 680 681
3 696 681 697
3 697 681 571
3 585 697 571
3 698 697 585
3 585 573 682
3 699 585 682
3 698 585 699
3 699 682 683
3 587 687 577
3 587 700 687
3 689 588 581
3 691 701 689
3 701 588 689
3 701 589 588
3 590 589 701
3 590 701 702
3 587 591 703
3 704 587 703
3 700 587 704
3 592 703 591
3 702 705 590
3 590 705 593
3 593 706 594
3 705 706 593
3 594 707 595
3 706 707 594
3 597 595 707
3 597 707 708
3 704 703 709
3 704 709 710
3 598 709 592
3 592 709 703
3 708 711 597
3 597 711 599
3 599 712 600
3 711 712 599
3 712 714 713
3 601 712 713
3 600 712 601
3 713 603 601
3 716 715 613
3 716 613 612
3 613 717 614
3 715 717 613
3 709 615 710
3 615 717 710
3 615 614 717
3 615 709 598
3 714 718 713
3 713 718 603
3 718 616 603
3 718 719 616
3 616 720 617
3 719 720 616
3 617 721 618
3 720 721 617
3 618 722 619
3 721 722 618
3 619 723 620
3 722 723 619
3 620 724 621
3 723 724 620
3 621 725 622
3 724 725 621
3 622 726 623
3 725 726 622
3 623 727 624
3 726 727 623
3 612 624 716
3 716 624 727
3 728 627 626
3 728 626 729
3 626 730 729
3 626 629 730
3 732 731 631
3 731 629 631
3 731 730 629
3 732 733 731
3 734 633 634
3 627 728 634
3 728 734 634
3 728 735 734
3 728 729 736
3 728 736 735
3 635 732 631
3 738 737 637
3 637 737 635
3 737 733 635
3 733 732 635
3 738 739 737
3 740 639 640
3 633 734 640
3 734 740 640
3 734 741 740
3 735 743 742
3 741 735 742
3 734 735 741
3 743 735 736
3 641 738 637
3 745 744 643
3 643 744 641
3 744 739 641
3 739 738 641
3 745 746 744
3 747 645 646
3 748 747 646
3 748 646 639
3 749 748 639
3 740 749 639
3 749 740 741
3 749 741 750
3 750 741 742
3 647 745 643
3 752 751 649
3 649 751 647
3 751 746 647
3 746 745 647
3 752 753 751
3 754 650 651
3 755 754 651
3 755 651 645
3 756 755 645
3 747 756 645
3 756 747 748
3 652 752 649
3 758 757 654
3 654 757 652
3 757 753 652
3 753 752 652
3 758 759 757
3 762 761 760
3 764 763 760
3 760 763 762
3 764 765 763
3 754 656 650
3 657 656 754
3 755 657 754
3 766 657 755
3 658 767 758
3 658 758 654
3 759 758 768
3 758 769 768
3 758 767 769
3 769 770 768
3 760 761 771
3 771 761 772
3 774 764 773
3 764 771 773
3 764 760 771
3 764 774 765
3 766 775 657
3 657 775 662
3 777 776 663
3 662 777 663
3 775 777 662
3 778 776 777
3 664 767 658
3 767 664 665
3 779 767 665
3 769 767 779
3 770 769 780
3 769 781 780
3 769 779 781
3 781 782 780
3 771 772 783
3 783 772 784
3 773 771 785
3 771 786 785
3 771 783 786
3 667 668 786
3 668 785 786
3 668 787 785
3 668 669 787
3 787 669 788
3 776 671 663
3 778 789 776
3 789 671 776
3 789 672 671
3 672 790 674
3 789 790 672
3 792 791 675
3 674 792 675
3 790 792 674
3 793 791 792
3 676 779 665
3 779 676 677
3 779 677 781
3 795 794 678
3 678 794 677
3 794 782 677
3 782 781 677
3 797 796 795
3 795 796 794
3 799 798 797
3 797 798 796
3 801 800 799
3 799 800 798
3 801 802 800
3 805 804 803
3 805 803 784
3 784 803 783
3 803 683 783
3 683 684 783
3 783 684 685
3 783 685 786
3 786 685 667
3 806 788 669
3 806 669 686
3 686 687 806
3 806 687 807
3 791 688 675
3 793 808 791
3 808 688 791
3 808 690 688
3 810 809 691
3 690 810 691
3 808 810 690
3 811 809 810
3 692 795 678
3 795 692 693
3 795 693 797
3 797 693 694
3 797 694 799
3 799 694 695
3 799 695 801
3 812 802 801
3 695 812 801
3 696 812 695
3 813 696 697
3 813 812 696
3 814 697 698
3 814 813 697
3 699 803 804
3 814 699 804
3 698 699 814
3 803 699 683
3 700 807 687
3 700 815 807
3 809 701 691
3 817 816 702
3 817 702 701
3 811 817 701
3 809 811 701
3 818 816 817
3 704 815 700
3 704 819 815
3 816 705 702
3 818 820 816
3 820 705 816
3 820 706 705
3 706 821 707
3 820 821 706
3 708 707 821
3 708 821 822
3 825 824 823
3 824 819 823
3 819 710 823
3 819 704 710
3 822 826 708
3 708 826 711
3 711 827 712
3 826 827 711
3 714 712 827
3 714 827 828
3 830 829 715
3 830 715 716
3 823 717 825
3 717 829 825
3 717 715 829
3 717 823 710
3 828 831 714
3 714 831 718
3 718 832 719
3 831 832 718
3 719 833 720
3 832 833 719
3 720 834 721
3 833 834 720
3 721 835 722
3 834 835 721
3 722 836 723
3 835 836 722
3 723 837 724
3 836 837 723
3 724 838 725
3 837 838 724
3 725 839 726
3 838 839 725
3 726 840 727
3 839 840 726
3 716 727 830
3 830 727 840
3 841 729 730
3 731 842 730
3 730 842 841
3 844 842 843
3 842 731 843
3 733 845 843
3 733 843 731
3 845 846 843
3 847 736 841
3 841 736 729
3 842 849 848
3 847 842 848
3 841 842 847
3 733 737 845
3 842 844 849
3 851 850 739
3 739 850 737
3 850 846 737
3 846 845 737
3 853 852 851
3 851 852 850
3 853 854 852
3 855 742 743
3 856 855 743
3 856 743 736
3 857 856 736
3 847 857 736
3 857 847 848
3 744 851 739
3 851 744 746
3 858 851 746
3 853 851 858
3 854 853 859
3 853 860 859
3 853 858 860
3 860 861 859
3 862 748 749
3 862 749 863
3 749 864 863
3 749 750 864
3 750 742 855
3 865 750 855
3 864 750 865
3 865 855 856
3 751 858 746
3 858 751 753
3 866 858 753
3 860 858 866
3 861 860 867
3 860 868 867
3 860 866 868
3 868 869 867
3 871 870 756
3 756 870 755
3 756 748 862
3 872 756 862
3 871 756 872
3 872 862 863
3 757 866 753
3 866 757 759
3 873 866 759
3 868 866 873
3 869 868 874
3 874 868 873
3 876 875 762
3 762 875 761
3 877 762 763
3 877 876 762
3 763 765 877
3 877 765 878
3 870 766 755
3 879 766 870
3 768 873 759
3 881 880 770
3 770 880 768
3 880 874 768
3 874 873 768
3 883 882 881
3 881 882 880
3 883 884 882
3 875 772 761
3 885 772 875
3 773 886 774
3 886 887 774
3 887 765 774
3 887 878 765
3 879 888 766
3 766 888 775
3 775 889 777
3 888 889 775
3 778 777 889
3 778 889 890
3 780 881 770
3 881 780 782
3 891 881 782
3 883 881 891
3 884 883 892
3 883 893 892
3 883 891 893
3 895 894 893
3 893 894 892
3 895 896 894
3 885 784 772
3 897 784 885
3 785 886 773
3 898 887 886
3 785 898 886
3 787 898 785
3 787 788 898
3 898 788 899
3 890 900 778
3 778 900 789
3 789 901 790
3 900 901 789
3 790 902 792
3 901 902 790
3 904 903 793
3 792 904 793
3 902 904 792
3 906 905 903
3 906 903 904
3 908 907 905
3 908 905 906
3 909 907 908
3 794 891 782
3 891 794 796
3 891 796 893
3 893 796 798
3 893 798 895
3 910 896 895
3 798 910 895
3 800 910 798
3 912 911 802
3 911 800 802
3 911 910 800
3 912 913 911
3 915 914 805
3 805 914 804
3 805 784 897
3 805 897 915
3 916 899 788
3 916 788 806
3 806 807 916
3 916 807 917
3 903 808 793
3 808 903 810
3 810 903 905
3 810 905 811
3 905 918 811
3 905 907 918
3 907 909 919
3 907 919 918
3 812 912 802
3 920 913 912
3 812 920 912
3 813 920 812
3 921 813 814
3 921 920 813
3 814 804 914
3 814 914 921
3 815 917 807
3 815 922 917
3 918 817 811
3 924 923 818
3 924 818 817
3 919 924 817
3 918 919 817
3 925 923 924
3 928 927 926
3 927 922 926
3 922 819 926
3 922 815 819
3 923 820 818
3 925 929 923
3 929 820 923
3 929 821 820
3 931 930 822
3 821 931 822
3 929 931 821
3 932 930 931
3 935 934 933
3 933 934 928
3 933 928 926
3 825 933 926
3 824 825 926
3 824 926 819
3 930 826 822
3 932 936 930
3 936 826 930
3 936 827 826
3 938 937 828
3 827 938 828
3 936 938 827
3 939 937 938
3 942 941 940
3 940 941 935
3 940 935 933
3 830 940 933
3 829 830 933
3 829 933 825
3 937 831 828
3 939 943 937
3 943 831 937
3 943 832 831
3 832 944 833
3 943 944 832
3 833 945 834
3 944 945 833
3 834 946 835
3 945 946 834
3 835 947 836
3 946 947 835
3 836 948 837
3 947 948 836
3 837 949 838
3 948 949 837
3 838 950 839
3 949 950 838
3 940 840 942
3 840 950 942
3 840 839 950
3 840 940 830
3 952 951 843
3 843 951 844
3 954 953 846
3 953 843 846
3 953 952 843
3 954 955 953
3 957 956 849
3 849 956 848
3 849 844 951
3 849 951 957
3 850 954 846
3 958 955 954
3 850 958 954
3 852 958 850
3 960 959 854
3 959 852 854
3 959 958 852
3 960 961 959
3 963 962 857
3 857 962 856
3 857 848 956
3 857 956 963
3 859 960 854
3 965 964 861
3 861 964 859
3 964 961 859
3 961 960 859
3 965 966 964
3 967 863 864
3 967 864 968
3 864 969 968
3 864 865 969
3 865 856 962
3 865 962 969
3 867 965 861
3 971 970 869
3 869 970 867
3 970 966 867
3 966 965 867
3 971 972 970
3 973 870 871
3 973 871 974
3 871 975 974
3 871 872 975
3 872 863 967
3 976 872 967
3 975 872 976
3 976 967 968
3 979 978 977
3 981 980 977
3 981 977 978
3 982 980 981
3 874 983 971
3 874 971 869
3 972 971 984
3 971 985 984
3 971 983 985
3 987 986 985
3 985 986 984
3 987 988 986
3 990 989 876
3 876 989 875
3 991 876 877
3 991 990 876
3 877 878 991
3 991 878 992
3 993 879 973
3 973 879 870
3 973 974 994
3 973 994 993
3 979 977 995
3 979 995 996
3 997 977 980
3 995 977 997
3 980 982 998
3 980 998 997
3 880 983 874
3 983 880 882
3 983 882 985
3 985 882 884
3 999 985 884
3 987 985 999
3 988 987 1000
3 987 1001 1000
3 987 999 1001
3 1001 1002 1000
3 989 885 875
3 1003 885 989
3 887 1005 1004
3 992 887 1004
3 878 887 992
3 1005 1006 1004
3 993 888 879
3 994 1007 993
3 1007 888 993
3 1007 889 888
3 1009 1008 890
3 889 1009 890
3 1007 1009 889
3 1010 1008 1009
3 996 995 1011
3 996 1011 1012
3 1013 995 997
3 1011 995 1013
3 997 998 1014
3 997 1014 1013
3 892 999 884
3 999 892 894
3 999 894 1001
3 1016 1015 896
3 896 1015 894
3 1015 1002 894
3 1002 1001 894
3 1016 1017 1015
3 1003 897 885
3 1018 897 1003
3 898 1005 887
3 1020 1019 899
3 899 1019 898
3 1019 1006 898
3 1006 1005 898
3 1020 1021 1019
3 1008 900 890
3 1010 1022 1008
3 1022 900 1008
3 1022 901 900
3 901 1023 902
3 1022 1023 901
3 902 1024 904
3 1023 1024 902
3 904 1025 906
3 1024 1025 904
3 1011 908 1012
3 908 1025 1012
3 908 906 1025
3 908 1011 909
3 1011 1026 909
3 1011 1013 1026
3 1013 1014 1027
3 1013 1027 1026
3 910 1016 896
3 1028 1017 1016
3 910 1028 1016
3 911 1028 910
3 911 913 1028
3 1028 913 1029
3 1031 1030 915
3 915 1030 914
3 915 897 1018
3 915 1018 1031
3 1020 899 916
3 1034 1033 1032
3 1033 1034 917
3 1034 1021 917
3 1020 916 917
3 1020 917 1021
3 1035 919 1026
3 1026 919 909
3 1026 1027 1036
3 1037 1026 1036
3 1035 1026 1037
3 1038 1037 1036
3 1039 1029 913
3 1039 913 920
3 1040 920 921
3 1040 1039 920
3 921 914 1030
3 921 1030 1040
3 1043 1042 1041
3 1041 1042 1032
3 1033 1041 1032
3 1044 1041 1033
3 922 1044 917
3 917 1044 1033
3 1035 924 919
3 924 1035 925
3 1035 1045 925
3 1035 1037 1045
3 1037 1038 1046
3 1037 1046 1045
3 1043 1041 1047
3 1043 1047 1048
3 928 1047 927
3 1047 1044 927
3 1047 1041 1044
3 927 1044 922
3 1045 929 925
3 1046 1049 1045
3 1049 929 1045
3 1049 931 929
3 932 931 1049
3 932 1049 1050
3 1048 1047 934
3 935 1048 934
3 1051 1048 935
3 934 1047 928
3 1050 1052 932
3 932 1052 936
3 936 1053 938
3 1052 1053 936
3 1055 1054 939
3 938 1055 939
3 1053 1055 938
3 1057 1056 1054
3 1057 1054 1055
3 1058 1056 1057
3 1060 1059 941
3 1060 941 942
3 935 941 1051
3 1051 941 1059
3 1054 943 939
3 943 1054 944
3 944 1054 1056
3 1058 1061 1056
3 1061 944 1056
3 1061 945 944
3 945 1062 946
3 1061 1062 945
3 946 1063 947
3 1062 1063 946
3 947 1064 948
3 1063 1064 947
3 948 1065 949
3 1064 1065 948
3 949 1066 950
3 1065 1066 949
3 942 950 1060
3 1060 950 1066
3 1067 951 952
3 1067 952 1068
3 952 1069 1068
3 952 953 1069
3 1071 1070 955
3 1070 953 955
3 1070 1069 953
3 1073 1072 1071
3 1071 1072 1070
3 1073 1074 1072
3 1075 956 957
3 1076 1075 957
3 1076 957 951
3 1077 1076 951
3 1067 1077 951
3 1077 1067 1068
3 958 1071 955
3 1071 958 959
3 1071 959 1073
3 1079 1078 961
3 961 1078 959
3 1078 1074 959
3 1074 1073 959
3 1079 1080 1078
3 1081 962 963
3 1082 1081 963
3 1082 963 956
3 1083 1082 956
3 1075 1083 956
3 1083 1075 1076
3 964 1079 961
3 1085 1084 966
3 966 1084 964
3 1084 1080 964
3 1080 1079 964
3 1087 1086 1085
3 1085 1086 1084
3 1087 1088 1086
3 1089 968 969
3 1090 1089 969
3 1090 969 962
3 1091 1090 962
3 1081 1091 962
3 1091 1081 1082
3 970 1085 966
3 1085 970 972
3 1092 1085 972
3 1087 1085 1092
3 1088 1087 1093
3 1087 1094 1093
3 1087 1092 1094
3 1094 1095 1093
3 1096 974 975
3 1096 975 1097
3 975 1098 1097
3 975 976 1098
3 976 968 1089
3 1099 976 1089
3 1098 976 1099
3 1099 1089 1090
3 979 1100 978
3 978 1100 1101
3 1102 978 1101
3 981 978 1102
3 982 981 1102
3 982 1102 1103
3 984 1092 972
3 1092 984 986
3 1092 986 1094
3 1105 1104 988
3 988 1104 986
3 1104 1095 986
3 1095 1094 986
3 1107 1106 1105
3 1105 1106 1104
3 1107 1108 1106
3 1110 1109 990
3 990 1109 989
3 1111 990 991
3 1111 1110 990
3 1113 1112 992
3 1112 991 992
3 1112 1111 991
3 1113 1114 1112
3 1115 994 1096
3 1096 994 974
3 1096 1097 1116
3 1096 1116 1115
3 996 1117 1100
3 996 1100 979
3 1101 1100 1118
3 1118 1100 1117
3 1120 998 1119
3 998 1103 1119
3 998 982 1103
3 1121 1120 1119
3 1000 1105 988
3 1105 1000 1002
3 1122 1105 1002
3 1107 1105 1122
3 1108 1107 1123
3 1123 1107 1122
3 1109 1003 989
3 1124 1003 1109
3 1004 1113 992
3 1004 1006 1113
3 1006 1114 1113
3 1006 1125 1114
3 1115 1007 994
3 1116 1126 1115
3 1126 1007 1115
3 1126 1009 1007
3 1010 1009 1126
3 1010 1126 1127
3 1012 1128 1117
3 1012 1117 996
3 1118 1117 1129
3 1129 1117 1128
3 1130 1014 1120
3 1120 1014 998
3 1120 1121 1131
3 1132 1120 1131
3 1130 1120 1132
3 1133 1132 1131
3 1015 1122 1002
3 1015 1017 1122
3 1017 1123 1122
3 1017 1134 1123
3 1137 1136 1135
3 1124 1137 1135
3 1018 1124 1135
3 1003 1124 1018
3 1138 1125 1006
3 1138 1006 1019
3 1019 1021 1138
3 1138 1021 1139
3 1127 1140 1010
3 1010 1140 1022
3 1022 1141 1023
3 1140 1141 1022
3 1023 1142 1024
3 1141 1142 1023
3 1024 1143 1025
3 1142 1143 1024
3 1012 1025 1128
3 1025 1144 1128
3 1025 1143 1144
3 1128 1144 1129
3 1145 1027 1130
3 1130 1027 1014
3 1146 1130 1132
3 1145 1130 1146
3 1132 1133 1147
3 1132 1147 1146
3 1148 1134 1017
3 1148 1017 1028
3 1028 1029 1148
3 1148 1029 1149
3 1135 1136 1031
3 1136 1030 1031
3 1136 1150 1030
3 1135 1031 1018
3 1153 1152 1151
3 1034 1032 1151
3 1152 1034 1151
3 1154 1034 1152
3 1021 1034 1139
3 1139 1034 1154
3 1145 1036 1027
3 1036 1145 1038
3 1145 1155 1038
3 1145 1146 1155
3 1146 1147 1156
3 1157 1146 1156
3 1155 1146 1157
3 1158 1157 1156
3 1159 1149 1029
3 1159 1029 1039
3 1160 1039 1040
3 1160 1159 1039
3 1040 1030 1150
3 1040 1150 1160
3 1153 1151 1042
3 1043 1153 1042
3 1161 1153 1043
3 1042 1151 1032
3 1162 1046 1155
3 1155 1046 1038
3 1163 1155 1157
3 1162 1155 1163
3 1157 1158 1164
3 1157 1164 1163
3 1048 1161 1043
3 1048 1165 1161
3 1162 1049 1046
3 1049 1162 1050
3 1162 1166 1050
3 1162 1163 1166
3 1163 1164 1167
3 1168 1163 1167
3 1166 1163 1168
3 1169 1168 1167
3 1051 1165 1048
3 1051 1170 1165
3 1166 1052 1050
3 1052 1166 1053
3 1053 1166 1168
3 1169 1171 1168
3 1171 1053 1168
3 1171 1055 1053
3 1055 1172 1057
3 1171 1172 1055
3 1058 1057 1172
3 1058 1172 1173
3 1175 1174 1059
3 1175 1059 1060
3 1051 1059 1170
3 1170 1059 1174
3 1173 1176 1058
3 1058 1176 1061
3 1061 1177 1062
3 1176 1177 1061
3 1062 1178 1063
3 1177 1178 1062
3 1063 1179 1064
3 1178 1179 1063
3 1064 1180 1065
3 1179 1180 1064
3 1065 1181 1066
3 1180 1181 1065
3 1060 1066 1175
3 1175 1066 1181
3 1183 1182 1069
3 1069 1182 1068
3 1184 1069 1070
3 1184 1183 1069
3 1186 1184 1185
3 1184 1072 1185
3 1184 1070 1072
3 1074 1185 1072
3 1187 1076 1077
3 1188 1187 1077
3 1068 1188 1077
3 1182 1188 1068
3 1189 1186 1185
3 1191 1189 1190
3 1190 1189 1078
3 1189 1185 1078
3 1185 1074 1078
3 1080 1190 1078
3 1192 1082 1083
3 1193 1192 1083
3 1193 1083 1076
3 1194 1193 1076
3 1187 1194 1076
3 1194 1187 1188
3 1195 1191 1190
3 1195 1190 1080
3 1084 1195 1080
3 1196 1195 1084
3 1198 1196 1197
3 1196 1086 1197
3 1196 1084 1086
3 1088 1197 1086
3 1199 1090 1091
3 1200 1199 1091
3 1200 1091 1082
3 1201 1200 1082
3 1192 1201 1082
3 1201 1192 1193
3 1202 1198 1197
3 1202 1197 1088
3 1093 1202 1088
3 1203 1202 1093
3 1205 1204 1095
3 1204 1093 1095
3 1204 1203 1093
3 1207 1206 1205
3 1205 1206 1204
3 1207 1208 1206
3 1209 1097 1098
3 1209 1098 1210
3 1098 1211 1210
3 1098 1099 1211
3 1099 1090 1199
3 1212 1099 1199
3 1211 1099 1212
3 1212 1199 1200
3 1101 1213 1102
3 1103 1102 1213
3 1216 1215 1214
3 1217 1216 1214
3 1104 1205 1095
3 1205 1104 1106
3 1205 1106 1207
3 1106 1108 1207
3 1108 1208 1207
3 1108 1218 1208
3 1219 1109 1110
3 1219 1110 1220
3 1110 1221 1220
3 1110 1111 1221
3 1222 1111 1112
3 1222 1221 1111
3 1112 1114 1222
3 1222 1114 1223
3 1225 1224 1209
3 1224 1097 1209
3 1224 1116 1097
3 1225 1209 1210
3 1118 1226 1213
3 1118 1213 1101
3 1215 1216 1227
3 1119 1227 1216
3 1227 1119 1226
3 1103 1226 1119
3 1226 1103 1213
3 1229 1228 1121
3 1229 1121 1119
3 1217 1229 1119
3 1216 1217 1119
3 1231 1230 1228
3 1231 1228 1229
3 1232 1230 1231
3 1123 1234 1233
3 1218 1123 1233
3 1108 1123 1218
3 1234 1235 1233
3 1237 1236 1219
3 1236 1109 1219
3 1236 1124 1109
3 1237 1219 1220
3 1125 1223 1114
3 1125 1238 1223
3 1224 1239 1116
3 1116 1239 1126
3 1127 1126 1239
3 1127 1239 1240
3 1129 1241 1226
3 1129 1226 1118
3 1227 1226 1242
3 1242 1226 1241
3 1228 1131 1121
3 1131 1228 1133
3 1228 1243 1133
3 1228 1230 1243
3 1230 1232 1244
3 1230 1244 1243
3 1134 1245 1234
3 1134 1234 1123
3 1235 1234 1246
3 1246 1234 1245
3 1248 1247 1137
3 1137 1247 1136
3 1137 1124 1236
3 1137 1236 1248
3 1125 1138 1249
3 1250 1125 1249
3 1238 1125 1250
3 1139 1249 1138
3 1240 1251 1127
3 1127 1251 1140
3 1140 1252 1141
3 1251 1252 1140
3 1141 1253 1142
3 1252 1253 1141
3 1253 1255 1254
3 1143 1253 1254
3 1142 1253 1143
3 1256 1144 1143
3 1256 1143 1254
3 1256 1257 1144
3 1144 1257 1129
3 1257 1258 1129
3 1258 1241 1129
3 1241 1258 1242
3 1259 1147 1243
3 1243 1147 1133
3 1243 1244 1260
3 1243 1260 1259
3 1148 1245 1134
3 1148 1149 1245
3 1149 1246 1245
3 1149 1261 1246
3 1247 1150 1136
3 1262 1150 1247
3 1264 1263 1152
3 1264 1152 1153
3 1249 1154 1250
3 1154 1263 1250
3 1154 1152 1263
3 1154 1249 1139
3 1255 1265 1254
3 1254 1265 1256
3 1256 1265 1266
3 1256 1266 1257
3 1259 1156 1147
3 1268 1267 1158
3 1268 1158 1156
3 1260 1268 1156
3 1259 1260 1156
3 1269 1267 1268
3 1270 1261 1149
3 1270 1149 1159
3 1271 1159 1160
3 1271 1270 1159
3 1160 1150 1262
3 1160 1262 1271
3 1161 1264 1153
3 1161 1272 1264
3 1273 1164 1267
3 1267 1164 1158
3 1267 1269 1274
3 1267 1274 1273
3 1165 1272 1161
3 1165 1275 1272
3 1273 1167 1164
3 1169 1167 1273
3 1274 1169 1273
3 1276 1169 1274
3 1170 1275 1165
3 1170 1277 1275
3 1276 1278 1169
3 1169 1278 1171
3 1171 1279 1172
3 1278 1279 1171
3 1173 1172 1279
3 1173 1279 1280
3 1282 1281 1174
3 1282 1174 1175
3 1170 1174 1277
3 1277 1174 1281
3 1280 1283 1173
3 1173 1283 1176
3 1176 1284 1177
3 1283 1284 1176
3 1177 1285 1178
3 1284 1285 1177
3 1178 1286 1179
3 1285 1286 1178
3 1179 1287 1180
3 1286 1287 1179
3 1180 1288 1181
3 1287 1288 1180
3 1175 1181 1282
3 1282 1181 1288
3 1289 1182 1183
3 1184 1290 1183
3 1183 1290 1289
3 1186 1290 1184
3 1291 1188 1289
3 1289 1188 1182
3 1292 1289 1290
3 1291 1289 1292
3 1189 1293 1186
3 1293 1290 1186
3 1293 1292 1290
3 1191 1293 1189
3 1294 1193 1194
3 1188 1291 1194
3 1291 1294 1194
3 1291 1295 1294
3 1296 1291 1292
3 1295 1291 1296
3 1297 1292 1293
3 1296 1292 1297
3 1195 1298 1191
3 1298 1293 1191
3 1298 1297 1293
3 1196 1299 1195
3 1195 1299 1298
3 1198 1299 1196
3 1300 1200 1201
3 1193 1294 1201
3 1294 1300 1201
3 1294 1301 1300
3 1302 1294 1295
3 1301 1294 1302
3 1303 1295 1296
3 1302 1295 1303
3 1304 1296 1297
3 1303 1296 1304
3 1305 1297 1298
3 1304 1297 1305
3 1306 1298 1299
3 1305 1298 1306
3 1306 1299 1198
3 1307 1306 1198
3 1202 1307 1198
3 1308 1306 1307
3 1309 1202 1203
3 1309 1307 1202
3 1310 1203 1204
3 1310 1309 1203
3 1312 1310 1311
3 1310 1206 1311
3 1310 1204 1206
3 1208 1311 1206
3 1313 1210 1211
3 1313 1211 1314
3 1211 1315 1314
3 1211 1212 1315
3 1212 1200 1300
3 1316 1212 1300
3 1315 1212 1316
3 1318 1317 1316
3 1300 1318 1316
3 1301 1318 1300
3 1319 1301 1302
3 1318 1301 1319
3 1320 1302 1303
3 1319 1302 1320
3 1215 1320 1214
3 1320 1304 1214
3 1320 1303 1304
3 1214 1304 1217
3 1304 1321 1217
3 1304 1305 1321
3 1306 1323 1322
3 1321 1306 1322
3 1305 1306 1321
3 1326 1325 1324
3 1308 1323 1306
3 1328 1327 1325
3 1328 1325 1326
3 1329 1327 1328
3 1330 1312 1311
3 1208 1218 1311
3 1218 1331 1311
3 1331 1330 1311
3 1331 1218 1332
3 1332 1333 1331
3 1335 1334 1221
3 1221 1334 1220
3 1336 1221 1222
3 1336 1335 1221
3 1222 1223 1336
3 1336 1223 1337
3 1338 1224 1225
3 1339 1338 1225
3 1339 1225 1210
3 1340 1339 1210
3 1313 1340 1210
3 1340 1313 1314
3 1341 1317 1318
3 1341 1318 1319
3 1341 1319 1342
3 1344 1343 1342
3 1319 1344 1342
3 1320 1344 1319
3 1227 1345 1215
3 1346 1215 1345
3 1215 1346 1320
3 1347 1320 1346
3 1320 1347 1344
3 1346 1321 1348
3 1321 1346 1217
3 1345 1217 1346
3 1217 1345 1229
3 1349 1229 1345
3 1321 1322 1348
3 1351 1349 1350
3 1349 1351 1229
3 1231 1229 1351
3 1325 1352 1232
3 1351 1325 1232
3 1231 1351 1232
3 1324 1325 1351
3 1353 1325 1327
3 1352 1325 1353
3 1327 1329 1354
3 1327 1354 1353
3 1233 1332 1218
3 1233 1235 1332
3 1235 1333 1332
3 1235 1355 1333
3 1357 1356 1237
3 1237 1356 1236
3 1237 1220 1334
3 1237 1334 1357
3 1238 1337 1223
3 1238 1358 1337
3 1338 1239 1224
3 1360 1359 1240
3 1360 1240 1239
3 1339 1360 1239
3 1338 1339 1239
3 1361 1359 1360
3 1362 1343 1344
3 1242 1363 1227
3 1242 1344 1363
3 1344 1242 1362
3 1364 1362 1242
3 1362 1364 1347
3 1363 1347 1364
3 1364 1345 1363
3 1363 1345 1227
3 1344 1347 1363
3 1366 1349 1365
3 1349 1364 1365
3 1349 1345 1364
3 1349 1366 1350
3 1367 1244 1352
3 1352 1244 1232
3 1353 1369 1368
3 1367 1353 1368
3 1352 1353 1367
3 1369 1353 1354
3 1246 1355 1235
3 1246 1370 1355
3 1371 1247 1248
3 1372 1371 1248
3 1236 1372 1248
3 1356 1372 1236
3 1250 1358 1238
3 1250 1373 1358
3 1359 1251 1240
3 1361 1374 1359
3 1374 1251 1359
3 1374 1252 1251
3 1252 1375 1253
3 1374 1375 1252
3 1255 1253 1375
3 1255 1375 1376
3 1257 1377 1258
3 1364 1242 1258
3 1377 1364 1258
3 1378 1364 1377
3 1365 1364 1379
3 1379 1364 1378
3 1380 1260 1367
3 1367 1260 1244
3 1367 1368 1381
3 1367 1381 1380
3 1261 1370 1246
3 1261 1382 1370
3 1384 1383 1371
3 1383 1247 1371
3 1383 1262 1247
3 1384 1371 1372
3 1386 1385 1263
3 1386 1263 1264
3 1250 1263 1373
3 1373 1263 1385
3 1376 1387 1255
3 1255 1387 1265
3 1265 1388 1266
3 1387 1388 1265
3 1257 1266 1377
3 1266 1389 1377
3 1266 1388 1389
3 1377 1389 1378
3 1378 1389 1390
3 1378 1390 1379
3 1380 1268 1260
3 1269 1268 1380
3 1381 1269 1380
3 1391 1269 1381
3 1392 1382 1261
3 1392 1261 1270
3 1393 1270 1271
3 1393 1392 1270
3 1271 1262 1383
3 1271 1383 1393
3 1272 1386 1264
3 1272 1394 1386
3 1391 1274 1269
3 1395 1274 1391
3 1275 1394 1272
3 1275 1396 1394
3 1398 1276 1397
3 1276 1395 1397
3 1276 1274 1395
3 1399 1398 1397
3 1277 1396 1275
3 1277 1400 1396
3 1398 1278 1276
3 1399 1401 1398
3 1401 1278 1398
3 1401 1279 1278
3 1280 1279 1401
3 1280 1401 1402
3 1404 1403 1281
3 1404 1281 1282
3 1277 1281 1400
3 1400 1281 1403
3 1402 1405 1280
3 1280 1405 1283
3 1283 1406 1284
3 1405 1406 1283
3 1284 1407 1285
3 1406 1407 1284
3 1285 1408 1286
3 1407 1408 1285
3 1286 1409 1287
3 1408 1409 1286
3 1287 1410 1288
3 1409 1410 1287
3 1282 1288 1404
3 1404 1288 1410
3 1411 1308 1307
3 1309 1412 1307
3 1307 1412 1411
3 1310 1413 1309
3 1309 1413 1412
3 1312 1413 1310
3 1414 1314 1315
3 1316 1415 1315
3 1315 1415 1414
3 1317 1415 1316
3 1416 1322 1323
3 1323 1308 1416
3 1308 1411 1416
3 1326 1324 1416
3 1326 1416 1411
3 1326 1411 1328
3 1328 1411 1412
3 1328 1412 1329
3 1412 1417 1329
3 1412 1413 1417
3 1417 1413 1312
3 1418 1417 1312
3 1330 1418 1312
3 1419 1417 1418
3 1420 1330 1331
3 1420 1418 1330
3 1331 1333 1420
3 1420 1333 1421
3 1423 1422 1335
3 1335 1422 1334
3 1425 1423 1424
3 1423 1336 1424
3 1423 1335 1336
3 1337 1424 1336
3 1426 1339 1340
3 1314 1414 1340
3 1414 1426 1340
3 1414 1427 1426
3 1428 1414 1415
3 1427 1414 1428
3 1341 1429 1317
3 1429 1415 1317
3 1429 1428 1415
3 1342 1430 1341
3 1341 1430 1429
3 1343 1430 1342
3 1431 1347 1346
3 1348 1432 1346
3 1346 1432 1431
3 1348 1322 1432
3 1322 1416 1432
3 1351 1350 1432
3 1351 1432 1416
3 1351 1416 1324
3 1433 1354 1417
3 1417 1354 1329
3 1417 1419 1434
3 1417 1434 1433
3 1355 1421 1333
3 1355 1435 1421
3 1436 1356 1357
3 1437 1436 1357
3 1334 1437 1357
3 1422 1437 1334
3 1425 1424 1438
3 1425 1438 1439
3 1358 1438 1337
3 1337 1438 1424
3 1426 1360 1339
3 1426 1427 1440
3 1361 1426 1440
3 1441 1361 1440
3 1426 1361 1360
3 1440 1427 1428
3 1440 1428 1442
3 1442 1428 1429
3 1442 1429 1443
3 1445 1444 1443
3 1429 1445 1443
3 1430 1445 1429
3 1362 1446 1343
3 1446 1430 1343
3 1446 1445 1430
3 1347 1431 1362
3 1431 1446 1362
3 1431 1447 1446
3 1365 1447 1366
3 1447 1432 1366
3 1447 1431 1432
3 1366 1432 1350
3 1448 1368 1369
3 1449 1448 1369
3 1449 1369 1354
3 1450 1449 1354
3 1433 1450 1354
3 1450 1433 1434
3 1370 1435 1355
3 1370 1451 1435
3 1453 1452 1436
3 1452 1356 1436
3 1452 1372 1356
3 1453 1436 1437
3 1454 1439 1438
3 1438 1358 1454
3 1358 1455 1454
3 1358 1373 1455
3 1441 1456 1361
3 1361 1456 1374
3 1456 1458 1457
3 1375 1456 1457
3 1374 1456 1375
3 1457 1376 1375
3 1459 1444 1445
3 1461 1460 1459
3 1445 1461 1459
3 1446 1461 1445
3 1462 1446 1447
3 1461 1446 1462
3 1379 1463 1365
3 1464 1365 1463
3 1365 1464 1447
3 1465 1447 1464
3 1447 1465 1462
3 1463 1466 1464
3 1467 1381 1448
3 1448 1381 1368
3 1448 1449 1468
3 1448 1468 1467
3 1382 1470 1469
3 1451 1382 1469
3 1370 1382 1451
3 1470 1471 1469
3 1473 1472 1384
3 1384 1472 1383
3 1384 1372 1452
3 1384 1452 1473
3 1386 1474 1385
3 1474 1475 1385
3 1475 1373 1385
3 1475 1455 1373
3 1458 1476 1457
3 1457 1476 1376
3 1476 1387 1376
3 1476 1477 1387
3 1387 1478 1388
3 1477 1478 1387
3 1461 1389 1460
3 1389 1478 1460
3 1389 1388 1478
3 1389 1461 1390
3 1390 1461 1462
3 1462 1465 1390
3 1465 1479 1390
3 1463 1379 1390
3 1463 1390 1479
3 1463 1479 1466
3 1480 1391 1467
3 1467 1391 1381
3 1467 1468 1481
3 1467 1481 1480
3 1392 1470 1382
3 1482 1471 1470
3 1392 1482 1470
3 1393 1482 1392
3 1393 1383 1472
3 1393 1472 1482
3 1484 1483 1474
3 1386 1484 1474
3 1394 1484 1386
3 1474 1483 1475
3 1485 1395 1480
3 1480 1395 1391
3 1480 1481 1486
3 1480 1486 1485
3 1396 1484 1394
3 1396 1487 1484
3 1485 1397 1395
3 1399 1397 1485
3 1486 1399 1485
3 1488 1399 1486
3 1400 1487 1396
3 1400 1489 1487
3 1488 1490 1399
3 1399 1490 1401
3 1492 1491 1402
3 1401 1492 1402
3 1490 1492 1401
3 1493 1491 1492
3 1496 1495 1494
3 1403 1404 1494
3 1495 1403 1494
3 1497 1403 1495
3 1400 1403 1489
3 1489 1403 1497
3 1491 1405 1402
3 1493 1498 1491
3 1498 1405 1491
3 1498 1406 1405
3 1406 1499 1407
3 1498 1499 1406
3 1407 1500 1408
3 1499 1500 1407
3 1408 1501 1409
3 1500 1501 1408
3 1494 1410 1496
3 1410 1501 1496
3 1410 1409 1501
3 1410 1494 1404
3 1503 1502 1418
3 1418 1502 1419
3 1505 1503 1504
3 1503 1420 1504
3 1503 1418 1420
3 1421 1504 1420
3 1506 1422 1423
3 1425 1506 1423
3 1502 1434 1419
3 1507 1434 1502
3 1508 1505 1504
3 1421 1435 1504
3 1435 1509 1504
3 1509 1508 1504
3 1509 1435 1510
3 1510 1511 1509
3 1513 1512 1506
3 1512 1422 1506
3 1512 1437 1422
3 1506 1425 1513
3 1425 1514 1513
3 1425 1439 1514
3 1515 1441 1440
3 1442 1516 1440
3 1440 1516 1515
3 1443 1517 1442
3 1442 1517 1516
3 1444 1517 1443
3 1518 1449 1450
3 1519 1518 1450
3 1434 1519 1450
3 1507 1519 1434
3 1451 1520 1510
3 1451 1510 1435
3 1511 1510 1521
3 1521 1510 1520
3 1522 1452 1453
3 1523 1522 1453
3 1437 1523 1453
3 1512 1523 1437
3 1439 1454 1524
3 1525 1439 1524
3 1514 1439 1525
3 1455 1524 1454
3 1515 1456 1441
3 1456 1515 1458
3 1515 1526 1458
3 1515 1516 1526
3 1527 1516 1517
3 1526 1516 1527
3 1459 1528 1444
3 1528 1517 1444
3 1528 1527 1517
3 1460 1528 1459
3 1529 1465 1464
3 1466 1529 1464
3 1531 1530 1518
3 1530 1449 1518
3 1530 1468 1449
3 1531 1518 1519
3 1469 1520 1451
3 1469 1471 1520
3 1471 1521 1520
3 1471 1532 1521
3 1533 1472 1473
3 1534 1533 1473
3 1534 1473 1452
3 1535 1534 1452
3 1522 1535 1452
3 1535 1522 1523
3 1536 1525 1524
3 1524 1455 1536
3 1455 1537 1536
3 1455 1475 1537
3 1526 1476 1458
3 1476 1526 1477
3 1477 1526 1527
3 1477 1527 1478
3 1478 1527 1528
3 1478 1528 1460
3 1529 1479 1465
3 1479 1529 1466
3 1530 1481 1468
3 1538 1481 1530
3 1539 1532 1471
3 1539 1471 1482
3 1482 1472 1533
3 1540 1482 1533
3 1539 1482 1540
3 1540 1533 1534
3 1484 1541 1483
3 1541 1542 1483
3 1542 1475 1483
3 1542 1537 1475
3 1538 1486 1481
3 1543 1486 1538
3 1487 1544 1541
3 1487 1541 1484
3 1542 1541 1545
3 1545 1541 1544
3 1547 1488 1546
3 1488 1543 1546
3 1488 1486 1543
3 1548 1547 1546
3 1550 1549 1544
3 1487 1550 1544
3 1489 1550 1487
3 1544 1549 1545
3 1547 1490 1488
3 1548 1551 1547
3 1551 1490 1547
3 1551 1492 1490
3 1493 1492 1551
3 1493 1551 1552
3 1555 1554 1553
3 1495 1496 1553
3 1554 1495 1553
3 1556 1495 1554
3 1495 1557 1497
3 1556 1557 1495
3 1489 1497 1550
3 1550 1497 1557
3 1552 1558 1493
3 1493 1558 1498
3 1498 1559 1499
3 1558 1559 1498
3 1499 1560 1500
3 1559 1560 1499
3 1553 1501 1555
3 1501 1560 1555
3 1501 1500 1560
3 1501 1553 1496
3 1561 1502 1503
3 1505 1561 1503
3 1563 1562 1561
3 1562 1502 1561
3 1562 1507 1502
3 1563 1561 1505
3 1508 1563 1505
3 1564 1563 1508
3 1566 1564 1565
3 1564 1509 1565
3 1564 1508 1509
3 1511 1565 1509
3 1567 1512 1513
3 1514 1567 1513
3 1562 1519 1507
3 1568 1519 1562
3 1569 1566 1565
3 1565 1511 1569
3 1511 1570 1569
3 1511 1521 1570
3 1572 1571 1567
3 1571 1512 1567
3 1571 1523 1512
3 1567 1514 1572
3 1514 1573 1572
3 1514 1525 1573
3 1574 1530 1531
3 1575 1574 1531
3 1519 1575 1531
3 1568 1575 1519
3 1532 1577 1576
3 1570 1532 1576
3 1521 1532 1570
3 1577 1578 1576
3 1580 1579 1535
3 1535 1579 1534
3 1535 1523 1571
3 1535 1571 1580
3 1525 1536 1581
3 1582 1525 1581
3 1573 1525 1582
3 1537 1581 1536
3 1583 1538 1574
3 1574 1538 1530
3 1574 1575 1584
3 1574 1584 1583
3 1539 1577 1532
3 1585 1578 1577
3 1539 1585 1577
3 1540 1585 1539
3 1540 1534 1579
3 1540 1579 1585
3 1582 1581 1586
3 1582 1586 1587
3 1542 1586 1537
3 1537 1586 1581
3 1588 1543 1583
3 1583 1543 1538
3 1583 1584 1589
3 1583 1589 1588
3 1590 1587 1586
3 1586 1542 1590
3 1542 1591 1590
3 1542 1545 1591
3 1588 1546 1543
3 1548 1546 1588
3 1589 1548 1588
3 1592 1548 1589
3 1595 1594 1593
3 1549 1550 1593
3 1594 1549 1593
3 1596 1549 1594
3 1545 1549 1591
3 1591 1549 1596
3 1592 1597 1548
3 1548 1597 1551
3 1599 1598 1552
3 1551 1599 1552
3 1597 1599 1551
3 1601 1600 1598
3 1601 1598 1599
3 1603 1602 1600
3 1603 1600 1601
3 1554 1555 1602
3 1603 1554 1602
3 1604 1554 1603
3 1554 1605 1556
3 1604 1605 1554
3 1593 1557 1595
3 1557 1605 1595
3 1557 1556 1605
3 1557 1593 1550
3 1598 1558 1552
3 1558 1598 1559
3 1559 1598 1600
3 1559 1600 1560
3 1560 1600 1602
3 1560 1602 1555
3 1606 1562 1563
3 1564 1607 1563
3 1563 1607 1606
3 1566 1607 1564
3 1609 1608 1606
3 1608 1562 1606
3 1608 1568 1562
3 1609 1606 1607
3 1609 1607 1610
3 1610 1607 1566
3 1569 1610 1566
3 1611 1610 1569
3 1613 1612 1570
3 1612 1569 1570
3 1612 1611 1569
3 1615 1614 1613
3 1613 1614 1612
3 1615 1616 1614
3 1617 1571 1572
3 1573 1617 1572
3 1608 1575 1568
3 1618 1575 1608
3 1576 1613 1570
3 1613 1576 1578
3 1619 1613 1578
3 1615 1613 1619
3 1580 1620 1579
3 1620 1615 1579
3 1615 1619 1579
3 1615 1620 1616
3 1580 1571 1617
3 1621 1580 1617
3 1620 1580 1621
3 1617 1573 1621
3 1573 1622 1621
3 1573 1582 1622
3 1618 1584 1575
3 1623 1584 1618
3 1585 1619 1578
3 1619 1585 1579
3 1587 1622 1582
3 1587 1624 1622
3 1623 1589 1584
3 1625 1589 1623
3 1587 1590 1626
3 1627 1587 1626
3 1624 1587 1627
3 1591 1626 1590
3 1629 1592 1628
3 1592 1625 1628
3 1592 1589 1625
3 1630 1629 1628
3 1632 1631 1594
3 1632 1594 1595
3 1626 1596 1627
3 1596 1631 1627
3 1596 1594 1631
3 1596 1626 1591
3 1629 1597 1592
3 1630 1633 1629
3 1633 1597 1629
3 1633 1599 1597
3 1599 1634 1601
3 1633 1634 1599
3 1601 1635 1603
3 1634 1635 1601
3 1603 1636 1604
3 1635 1636 1603
3 1604 1637 1605
3 1636 1637 1604
3 1595 1605 1632
3 1632 1605 1637
3 1639 1638 1609
3 1609 1638 1608
3 1640 1609 1610
3 1640 1639 1609
3 1642 1640 1641
3 1640 1611 1641
3 1640 1610 1611
3 1612 1643 1611
3 1611 1643 1641
3 1614 1644 1612
3 1612 1644 1643
3 1616 1644 1614
3 1638 1618 1608
3 1645 1618 1638
3 1646 1642 1641
3 1646 1641 1643
3 1646 1643 1647
3 1647 1643 1644
3 1647 1644 1648
3 1650 1648 1649
3 1649 1648 1620
3 1648 1644 1620
3 1644 1616 1620
3 1621 1651 1620
3 1620 1651 1649
3 1622 1651 1621
3 1645 1623 1618
3 1652 1623 1645
3 1653 1650 1649
3 1653 1649 1651
3 1653 1651 1654
3 1651 1622 1654
3 1622 1655 1654
3 1622 1624 1655
3 1657 1625 1656
3 1625 1652 1656
3 1625 1623 1652
3 1658 1657 1656
3 1627 1655 1624
3 1627 1659 1655
3 1657 1628 1625
3 1661 1660 1630
3 1661 1630 1628
3 1658 1661 1628
3 1657 1658 1628
3 1662 1660 1661
3 1632 1663 1631
3 1663 1664 1631
3 1664 1627 1631
3 1664 1659 1627
3 1660 1633 1630
3 1662 1665 1660
3 1665 1633 1660
3 1665 1634 1633
3 1634 1666 1635
3 1665 1666 1634
3 1635 1667 1636
3 1666 1667 1635
3 1636 1668 1637
3 1667 1668 1636
3 1632 1637 1663
3 1637 1669 1663
3 1637 1668 1669
3 1663 1669 1664
3 1670 1638 1639
3 1640 1671 1639
3 1639 1671 1670
3 1642 1671 1640
3 1672 1645 1670
3 1670 1645 1638
3 1671 1674 1673
3 1672 1671 1673
3 1670 1671 1672
3 1674 1671 1642
3 1646 1674 1642
3 1675 1674 1646
3 1677 1675 1676
3 1675 1647 1676
3 1675 1646 1647
3 1648 1678 1647
3 1647 1678 1676
3 1650 1678 1648
3 1679 1652 1672
3 1672 1652 1645
3 1672 1673 1680
3 1672 1680 1679
3 1681 1677 1676
3 1681 1676 1678
3 1681 1678 1682
3 1684 1682 1683
3 1683 1682 1653
3 1682 1678 1653
3 1678 1650 1653
3 1654 1685 1653
3 1653 1685 1683
3 1655 1685 1654
3 1679 1656 1652
3 1687 1686 1658
3 1687 1658 1656
3 1680 1687 1656
3 1679 1680 1656
3 1688 1686 1687
3 1689 1684 1683
3 1691 1690 1689
3 1683 1691 1689
3 1685 1691 1683
3 1659 1691 1655
3 1655 1691 1685
3 1686 1661 1658
3 1693 1692 1662
3 1693 1662 1661
3 1688 1693 1661
3 1686 1688 1661
3 1695 1694 1692
3 1695 1692 1693
3 1697 1696 1694
3 1697 1694 1695
3 1698 1696 1697
3 1690 1691 1699
3 1690 1699 1700
3 1664 1699 1659
3 1659 1699 1691
3 1692 1665 1662
3 1665 1692 1666
3 1666 1692 1694
3 1666 1694 1667
3 1667 1694 1696
3 1698 1701 1696
3 1701 1667 1696
3 1701 1668 1667
3 1699 1669 1700
3 1669 1701 1700
3 1669 1668 1701
3 1669 1699 1664
3 1702 1673 1674
3 1675 1703 1674
3 1674 1703 1702
3 1677 1703 1675
3 1704 1680 1702
3 1702 1680 1673
3 1705 1702 1703
3 1704 1702 1705
3 1705 1703 1677
3 1706 1705 1677
3 1681 1706 1677
3 1707 1705 1706
3 1709 1706 1708
3 1706 1682 1708
3 1706 1681 1682
3 1684 1708 1682
3 1704 1687 1680
3 1687 1704 1688
3 1704 1710 1688
3 1704 1705 1710
3 1705 1707 1711
3 1712 1705 1711
3 1710 1705 1712
3 1712 1711 1709
3 1708 1712 1709
3 1713 1712 1708
3 1689 1714 1684
3 1714 1708 1684
3 1714 1713 1708
3 1690 1714 1689
3 1710 1693 1688
3 1693 1710 1695
3 1695 1710 1712
3 1695 1712 1697
3 1697 1712 1713
3 1697 1713 1698
3 1713 1715 1698
3 1713 1714 1715
3 1700 1715 1690
3 1690 1715 1714
3 1715 1701 1698
3 1701 1715 1700
3 1716 1707 1706
3 1709 1716 1706
3 1716 1711 1707
3 1711 1716 1709
