ply
format ascii 1.0
element vertex 1130
property float x
property float y
property float z
element face 2256
property list uchar int vertex_indices
end_header
-16.70000 -0.50001 -1.50000
-17.20000 -0.50001 -2.00000
-17.20000 -0.00001 -1.50000
-17.20000 -0.50001 -1.00000
-16.70000 -1.50001 -1.50000
-17.20000 -1.50001 -2.00000
-17.20000 -1.50001 -1.00000
-17.20000 -2.00001 -1.50000
-17.70000 -0.50001 -4.50000
-18.20000 -0.50001 -5.00000
-18.20000 -0.00001 -4.50000
-18.20000 -0.00001 -3.50000
-17.70000 -0.50001 -3.50000
-18.20000 -0.50001 -3.00000
-18.20000 -0.50001 -2.00000
-18.20000 -0.00001 -1.50000
-18.20000 -0.50001 -1.00000
-18.20000 -1.00001 -4.50000
-18.20000 -1.00001 -3.50000
-18.20000 -1.50001 -2.00000
-18.20000 -1.00001 -0.50000
-17.70000 -1.50001 -0.50000
-18.20000 -1.50001 0.00000
-17.70000 -2.50001 -1.50000
-18.20000 -2.50001 -2.00000
-17.70000 -2.50001 -0.50000
-18.20000 -2.50001 0.00000
-18.20000 -3.00001 -1.50000
-18.20000 -3.00001 -0.50000
-18.70000 0.49999 -4.50000
-19.20000 0.49999 -5.00000
-19.20000 0.99999 -4.50000
-19.20000 0.49999 -4.00000
-19.20000 -0.50001 -5.00000
-19.20000 -0.00001 -3.50000
-19.20000 -0.00001 -2.50000
-18.70000 -0.50001 -2.50000
-19.20000 -0.00001 -1.50000
-19.20000 -0.50001 -1.00000
-18.70000 -1.50001 -4.50000
-19.20000 -1.50001 -5.00000
-18.70000 -1.50001 -3.50000
-18.70000 -1.50001 -2.50000
-19.20000 -1.00001 -0.50000
-19.20000 -1.50001 0.00000
-19.20000 -2.00001 -4.50000
-19.20000 -2.00001 -3.50000
-19.20000 -2.00001 -2.50000
-19.20000 -2.50001 -2.00000
-19.20000 -2.50001 0.00000
-18.70000 -3.50001 -1.50000
-19.20000 -3.50001 -2.00000
-18.70000 -3.50001 -0.50000
-19.20000 -3.50001 0.00000
-18.70000 -4.50001 -1.50000
-19.20000 -4.50001 -2.00000
-19.20000 -4.50001 -1.00000
-19.20000 -4.00001 -0.50000
-19.20000 -5.00001 -1.50000
-19.70000 0.49999 -4.50000
-20.20000 -0.50001 -5.00000
-20.20000 -0.00001 -4.50000
-20.20000 -0.00001 -3.50000
-20.20000 -0.00001 -2.50000
-19.70000 -0.50001 -1.50000
-20.20000 -0.50001 -2.00000
-20.20000 -1.50001 -5.00000
-20.20000 -1.00001 -1.50000
-20.20000 -1.00001 -0.50000
-20.20000 -1.50001 0.00000
-20.20000 -2.00001 -4.50000
-19.70000 -2.50001 -3.50000
-20.20000 -2.50001 -4.00000
-19.70000 -2.50001 -2.50000
-20.20000 -2.50001 0.00000
-20.20000 -3.00001 -3.50000
-20.20000 -3.00001 -2.50000
-20.20000 -3.50001 -2.00000
-20.20000 -3.50001 0.00000
-20.20000 -4.50001 -2.00000
-20.20000 -4.00001 -0.50000
-20.20000 -4.50001 -1.00000
-19.70000 -5.50001 -2.50000
-20.20000 -5.50001 -3.00000
-20.20000 -5.00001 -2.50000
-19.70000 -5.50001 -1.50000
-20.20000 -5.50001 -1.00000
-20.20000 -6.00001 -2.50000
-20.20000 -6.00001 -1.50000
-21.20000 -0.50001 -5.00000
-21.20000 -0.00001 -4.50000
-21.20000 -0.00001 -3.50000
-20.70000 -0.50001 -2.50000
-21.20000 -0.50001 -3.00000
-21.20000 -1.00001 -4.50000
-20.70000 -1.50001 -4.50000
-21.20000 -1.50001 -4.00000
-21.20000 -1.00001 -2.50000
-21.20000 -1.00001 -1.50000
-20.70000 -1.50001 -0.50000
-21.20000 -1.50001 -1.00000
-21.20000 -2.50001 -4.00000
-21.20000 -2.00001 -0.50000
-21.20000 -2.50001 0.00000
-21.20000 -3.00001 -3.50000
-21.20000 -3.00001 -2.50000
-21.20000 -3.50001 -2.00000
-21.20000 -3.50001 0.00000
-21.20000 -4.50001 -2.00000
-20.70000 -4.50001 -0.50000
-21.20000 -4.50001 0.00000
-20.70000 -5.50001 -2.50000
-21.20000 -5.50001 -2.00000
-21.20000 -5.00001 -0.50000
-21.20000 -5.50001 -1.00000
-21.20000 -6.00001 -1.50000
-21.70000 8.49999 -16.50000
-22.20000 8.49999 -17.00000
-22.20000 8.99999 -16.50000
-22.20000 8.99999 -15.50000
-21.70000 8.49999 -15.50000
-22.20000 8.49999 -15.00000
-21.70000 7.49999 -16.50000
-22.20000 7.49999 -17.00000
-21.70000 7.49999 -15.50000
-22.20000 7.49999 -15.00000
-22.20000 6.99999 -16.50000
-22.20000 6.99999 -15.50000
-21.70000 -0.50001 -4.50000
-21.70000 -0.50001 -3.50000
-22.20000 -1.00001 -3.50000
-22.20000 -1.50001 -4.00000
-22.20000 -1.00001 -2.50000
-22.20000 -1.00001 -1.50000
-22.20000 -1.50001 -1.00000
-22.20000 -2.00001 -3.50000
-21.70000 -2.50001 -3.50000
-22.20000 -2.50001 -3.00000
-22.20000 -2.00001 -0.50000
-22.20000 -2.50001 0.00000
-22.20000 -3.50001 -3.00000
-21.70000 -3.50001 -2.50000
-22.20000 -3.50001 0.00000
-22.20000 -4.00001 -2.50000
-22.20000 -4.50001 -2.00000
-22.20000 -4.50001 0.00000
-22.20000 -5.50001 -2.00000
-21.70000 -5.50001 -0.50000
-22.20000 -5.50001 0.00000
-22.20000 -6.00001 -1.50000
-22.20000 -6.00001 -0.50000
-23.20000 8.49999 -17.00000
-23.20000 8.99999 -16.50000
-23.20000 8.99999 -15.50000
-23.20000 8.49999 -15.00000
-23.20000 7.49999 -17.00000
-23.20000 7.99999 -14.50000
-22.70000 7.49999 -14.50000
-23.20000 7.49999 -14.00000
-22.70000 6.49999 -16.50000
-23.20000 6.49999 -17.00000
-23.20000 6.49999 -16.00000
-23.20000 6.99999 -15.50000
-23.20000 6.99999 -14.50000
-23.20000 5.99999 -16.50000
-22.70000 -1.50001 -3.50000
-23.20000 -1.50001 -3.00000
-23.20000 -1.00001 -2.50000
-23.20000 -1.00001 -1.50000
-23.20000 -1.50001 -1.00000
-23.20000 -2.50001 -3.00000
-23.20000 -2.00001 -0.50000
-23.20000 -2.50001 0.00000
-23.20000 -3.50001 -3.00000
-23.20000 -3.50001 0.00000
-23.20000 -4.00001 -2.50000
-23.20000 -4.50001 -2.00000
-23.20000 -4.50001 0.00000
-23.20000 -5.50001 -2.00000
-23.20000 -5.50001 0.00000
-22.70000 -6.50001 -1.50000
-23.20000 -6.50001 -2.00000
-23.20000 -6.50001 -1.00000
-23.20000 -6.00001 -0.50000
-23.20000 -7.00001 -1.50000
-23.70000 8.49999 -16.50000
-23.70000 8.49999 -15.50000
-23.70000 7.49999 -17.50000
-24.20000 7.49999 -18.00000
-24.20000 7.99999 -17.50000
-24.20000 7.99999 -16.50000
-24.20000 7.99999 -15.50000
-23.70000 7.49999 -14.50000
-24.20000 7.49999 -15.00000
-23.70000 6.49999 -17.50000
-24.20000 6.49999 -18.00000
-23.70000 6.49999 -15.50000
-24.20000 6.49999 -15.00000
-24.20000 5.99999 -17.50000
-24.20000 5.99999 -16.50000
-24.20000 5.99999 -15.50000
-23.70000 -0.50001 -3.50000
-24.20000 -0.50001 -4.00000
-24.20000 -0.00001 -3.50000
-24.20000 -0.00001 -2.50000
-23.70000 -0.50001 -2.50000
-24.20000 -0.50001 -2.00000
-24.20000 -1.00001 -3.50000
-24.20000 -1.50001 -3.00000
-24.20000 -1.00001 -1.50000
-24.20000 -1.50001 -1.00000
-24.20000 -2.50001 -3.00000
-24.20000 -2.00001 -0.50000
-24.20000 -2.50001 0.00000
-24.20000 -3.00001 -2.50000
-23.70000 -3.50001 -2.50000
-24.20000 -3.50001 -2.00000
-24.20000 -3.50001 0.00000
-24.20000 -4.50001 -2.00000
-24.20000 -4.50001 0.00000
-24.20000 -5.00001 -1.50000
-23.70000 -5.50001 -1.50000
-24.20000 -5.50001 -1.00000
-24.20000 -5.50001 0.00000
-23.70000 -6.50001 -1.50000
-24.20000 -6.00001 -0.50000
-24.70000 7.49999 -17.50000
-25.20000 7.49999 -17.00000
-25.20000 7.99999 -16.50000
-25.20000 7.99999 -15.50000
-25.20000 7.49999 -15.00000
-25.20000 6.49999 -18.00000
-25.20000 6.99999 -17.50000
-25.20000 6.99999 -14.50000
-24.70000 6.49999 -14.50000
-25.20000 6.49999 -14.00000
-25.20000 5.99999 -17.50000
-24.70000 5.49999 -16.50000
-25.20000 5.49999 -17.00000
-25.20000 5.49999 -16.00000
-25.20000 5.99999 -15.50000
-25.20000 5.99999 -14.50000
-25.20000 4.99999 -16.50000
-24.70000 0.49999 -3.50000
-25.20000 0.49999 -4.00000
-25.20000 0.99999 -3.50000
-25.20000 0.49999 -3.00000
-25.20000 -0.50001 -4.00000
-25.20000 -0.00001 -2.50000
-25.20000 -0.50001 -2.00000
-25.20000 -1.00001 -3.50000
-25.20000 -1.50001 -3.00000
-25.20000 -1.00001 -1.50000
-25.20000 -1.50001 -1.00000
-25.20000 -2.50001 -3.00000
-25.20000 -2.00001 -0.50000
-25.20000 -2.50001 0.00000
-25.20000 -3.00001 -2.50000
-25.20000 -3.50001 -2.00000
-25.20000 -3.50001 0.00000
-25.20000 -4.50001 -2.00000
-25.20000 -4.50001 0.00000
-25.20000 -5.00001 -1.50000
-24.70000 -5.50001 -0.50000
-25.20000 -5.00001 -0.50000
-26.20000 7.49999 -17.00000
-26.20000 7.99999 -16.50000
-25.70000 7.49999 -15.50000
-26.20000 7.49999 -16.00000
-25.70000 6.49999 -17.50000
-26.20000 6.49999 -17.00000
-26.20000 6.99999 -15.50000
-26.20000 6.99999 -14.50000
-26.20000 6.49999 -14.00000
-26.20000 5.49999 -17.00000
-25.70000 5.49999 -15.50000
-26.20000 5.49999 -15.00000
-26.20000 5.99999 -14.50000
-25.70000 4.49999 -16.50000
-26.20000 4.49999 -17.00000
-26.20000 4.49999 -16.00000
-26.20000 4.99999 -15.50000
-26.20000 3.99999 -16.50000
-26.20000 0.49999 -4.00000
-26.20000 0.99999 -3.50000
-26.20000 0.49999 -3.00000
-26.20000 -0.00001 -3.50000
-25.70000 -0.50001 -3.50000
-25.70000 -0.00001 -3.00000
-26.20000 -0.00001 -2.50000
-26.20000 -0.50001 -3.00000
-26.20000 -0.50001 -2.00000
-26.20000 -1.50001 -3.00000
-26.20000 -1.00001 -1.50000
-26.20000 -1.50001 -1.00000
-26.20000 -2.00001 -2.50000
-25.70000 -2.50001 -2.50000
-26.20000 -2.50001 -2.00000
-26.20000 -2.00001 -0.50000
-26.20000 -2.50001 0.00000
-26.20000 -3.50001 -2.00000
-26.20000 -3.50001 0.00000
-26.20000 -4.00001 -1.50000
-25.70000 -4.50001 -1.50000
-26.20000 -4.50001 -1.00000
-26.20000 -4.00001 0.50000
-25.70000 -4.50001 0.50000
-26.20000 -4.50001 1.00000
-26.20000 -5.50001 -1.00000
-25.70000 -5.50001 -0.50000
-26.20000 -5.50001 0.00000
-26.20000 -5.00001 0.50000
-26.20000 -6.00001 -0.50000
-25.70000 -22.50001 10.50000
-26.20000 -22.50001 10.00000
-26.20000 -22.00001 10.50000
-26.20000 -22.00001 11.50000
-25.70000 -22.50001 11.50000
-26.20000 -22.50001 12.00000
-26.20000 -23.00001 10.50000
-26.20000 -23.00001 11.50000
-27.20000 7.49999 -17.00000
-27.20000 7.99999 -16.50000
-27.20000 7.49999 -16.00000
-27.20000 6.49999 -17.00000
-27.20000 6.99999 -15.50000
-26.70000 6.49999 -14.50000
-27.20000 6.49999 -15.00000
-27.20000 5.49999 -17.00000
-26.70000 5.49999 -14.50000
-27.20000 5.99999 -14.50000
-27.20000 5.49999 -14.00000
-27.20000 4.49999 -17.00000
-26.70000 4.49999 -15.50000
-26.70000 4.49999 -14.50000
-27.20000 4.49999 -14.00000
-27.20000 3.99999 -16.50000
-27.20000 3.99999 -15.50000
-27.20000 3.99999 -14.50000
-26.70000 1.49999 -4.50000
-27.20000 1.49999 -5.00000
-27.20000 1.99999 -4.50000
-27.20000 1.49999 -4.00000
-27.20000 0.99999 -4.50000
-26.70000 0.49999 -3.50000
-26.70000 -0.50001 -2.50000
-26.70000 -1.50001 -2.50000
-26.70000 -1.50001 -1.50000
-26.70000 -2.50001 -1.50000
-27.20000 -2.00001 -0.50000
-27.20000 -2.50001 -1.00000
-27.20000 -2.50001 0.00000
-26.70000 -3.50001 -1.50000
-27.20000 -3.50001 -1.00000
-27.20000 -3.50001 0.00000
-27.20000 -4.50001 -1.00000
-27.20000 -4.00001 0.50000
-27.20000 -4.50001 1.00000
-27.20000 -5.50001 -1.00000
-26.70000 -5.50001 0.50000
-27.20000 -5.50001 1.00000
-27.20000 -6.00001 -0.50000
-26.70000 -6.50001 0.50000
-27.20000 -6.50001 0.00000
-27.20000 -6.50001 1.00000
-27.20000 -7.00001 0.50000
-26.70000 -21.50001 9.50000
-27.20000 -21.50001 9.00000
-27.20000 -21.00001 9.50000
-27.20000 -21.50001 10.00000
-26.70000 -22.50001 8.50000
-27.20000 -22.50001 8.00000
-27.20000 -22.00001 8.50000
-26.70000 -22.50001 9.50000
-27.20000 -22.00001 10.50000
-26.70000 -22.50001 11.50000
-27.20000 -22.50001 11.00000
-27.20000 -23.00001 8.50000
-27.20000 -23.00001 9.50000
-27.20000 -23.00001 10.50000
-27.70000 7.49999 -16.50000
-27.70000 6.49999 -16.50000
-28.20000 6.99999 -15.50000
-28.20000 6.49999 -16.00000
-28.20000 6.49999 -15.00000
-27.70000 5.49999 -16.50000
-28.20000 5.49999 -16.00000
-28.20000 5.99999 -14.50000
-28.20000 5.99999 -13.50000
-27.70000 5.49999 -13.50000
-28.20000 5.49999 -13.00000
-27.70000 4.49999 -16.50000
-28.20000 4.49999 -16.00000
-27.70000 4.49999 -13.50000
-28.20000 4.49999 -13.00000
-28.20000 3.99999 -15.50000
-28.20000 3.99999 -14.50000
-28.20000 3.99999 -13.50000
-27.70000 2.49999 -5.50000
-28.20000 2.49999 -6.00000
-28.20000 2.99999 -5.50000
-28.20000 2.99999 -4.50000
-27.70000 2.49999 -4.50000
-28.20000 2.49999 -4.00000
-28.20000 1.99999 -5.50000
-28.20000 1.49999 -5.00000
-28.20000 1.49999 -4.00000
-28.20000 0.99999 -4.50000
-27.70000 -2.50001 -0.50000
-27.70000 -3.50001 -0.50000
-27.70000 -4.50001 -0.50000
-27.70000 -4.50001 0.50000
-27.70000 -5.50001 -0.50000
-27.70000 -5.50001 0.50000
-27.70000 -6.50001 0.50000
-27.70000 -21.50001 7.50000
-28.20000 -21.50001 7.00000
-28.20000 -21.00001 7.50000
-28.20000 -21.00001 8.50000
-27.70000 -21.50001 8.50000
-28.20000 -21.00001 9.50000
-28.20000 -21.50001 10.00000
-27.70000 -22.50001 7.50000
-28.20000 -22.50001 7.00000
-28.20000 -22.00001 10.50000
-28.20000 -22.50001 11.00000
-28.20000 -23.00001 7.50000
-28.20000 -23.00001 8.50000
-28.20000 -23.00001 9.50000
-28.20000 -23.00001 10.50000
-28.70000 6.49999 -15.50000
-28.70000 5.49999 -15.50000
-29.20000 5.99999 -14.50000
-29.20000 5.49999 -15.00000
-29.20000 5.99999 -13.50000
-29.20000 5.99999 -12.50000
-28.70000 5.49999 -12.50000
-29.20000 5.49999 -12.00000
-28.70000 4.49999 -15.50000
-29.20000 4.49999 -15.00000
-28.70000 4.49999 -12.50000
-29.20000 4.99999 -11.50000
-28.70000 4.49999 -11.50000
-29.20000 4.99999 -10.50000
-28.70000 4.49999 -10.50000
-29.20000 4.49999 -10.00000
-29.20000 3.99999 -14.50000
-28.70000 3.49999 -13.50000
-29.20000 3.49999 -14.00000
-28.70000 3.49999 -12.50000
-28.70000 3.49999 -11.50000
-29.20000 3.49999 -11.00000
-29.20000 3.99999 -10.50000
-28.70000 3.49999 -6.50000
-29.20000 3.49999 -7.00000
-29.20000 3.99999 -6.50000
-29.20000 3.49999 -6.00000
-29.20000 2.99999 -13.50000
-29.20000 2.99999 -12.50000
-29.20000 2.99999 -11.50000
-29.20000 2.99999 -6.50000
-29.20000 2.49999 -6.00000
-29.20000 2.99999 -5.50000
-29.20000 2.99999 -4.50000
-29.20000 2.49999 -4.00000
-29.20000 1.99999 -5.50000
-29.20000 1.49999 -5.00000
-29.20000 1.49999 -4.00000
-29.20000 0.99999 -4.50000
-28.70000 -20.50001 6.50000
-29.20000 -20.50001 6.00000
-29.20000 -20.00001 6.50000
-29.20000 -20.00001 7.50000
-28.70000 -20.50001 7.50000
-29.20000 -20.50001 8.00000
-28.70000 -21.50001 6.50000
-29.20000 -21.50001 6.00000
-29.20000 -21.00001 8.50000
-29.20000 -21.00001 9.50000
-29.20000 -21.50001 10.00000
-29.20000 -22.00001 6.50000
-29.20000 -22.50001 7.00000
-28.70000 -22.50001 10.50000
-29.20000 -22.50001 10.00000
-28.70000 -23.50001 7.50000
-29.20000 -23.50001 7.00000
-29.20000 -23.50001 8.00000
-29.20000 -23.00001 8.50000
-29.20000 -23.00001 9.50000
-29.20000 -24.00001 7.50000
-29.70000 5.49999 -14.50000
-30.20000 5.49999 -14.00000
-30.20000 5.99999 -13.50000
-30.20000 5.99999 -12.50000
-30.20000 5.49999 -12.00000
-29.70000 4.49999 -14.50000
-30.20000 4.99999 -13.50000
-29.70000 4.49999 -13.50000
-30.20000 4.49999 -13.00000
-30.20000 4.99999 -11.50000
-30.20000 4.99999 -10.50000
-30.20000 4.99999 -9.50000
-29.70000 4.49999 -9.50000
-30.20000 4.49999 -9.00000
-29.70000 3.49999 -13.50000
-30.20000 3.49999 -13.00000
-29.70000 3.49999 -10.50000
-29.70000 3.49999 -9.50000
-30.20000 3.99999 -8.50000
-29.70000 3.49999 -8.50000
-30.20000 3.99999 -7.50000
-29.70000 3.49999 -7.50000
-30.20000 3.99999 -6.50000
-30.20000 3.49999 -6.00000
-30.20000 2.99999 -12.50000
-30.20000 2.99999 -11.50000
-30.20000 2.99999 -10.50000
-29.70000 2.49999 -9.50000
-30.20000 2.49999 -10.00000
-29.70000 2.49999 -8.50000
-29.70000 2.49999 -7.50000
-29.70000 2.49999 -6.50000
-29.70000 2.99999 -6.00000
-30.20000 2.99999 -5.50000
-29.70000 2.49999 -4.50000
-30.20000 2.49999 -5.00000
-30.20000 1.99999 -9.50000
-30.20000 1.99999 -8.50000
-30.20000 1.99999 -7.50000
-29.70000 1.49999 -6.50000
-30.20000 1.49999 -7.00000
-29.70000 1.49999 -5.50000
-30.20000 1.99999 -4.50000
-30.20000 1.49999 -4.00000
-30.20000 0.99999 -6.50000
-30.20000 0.99999 -5.50000
-30.20000 0.99999 -4.50000
-29.70000 -18.50001 4.50000
-30.20000 -18.50001 4.00000
-30.20000 -18.00001 4.50000
-30.20000 -18.50001 5.00000
-30.20000 -19.00001 4.50000
-30.20000 -19.50001 5.00000
-29.70000 -19.50001 5.50000
-30.20000 -19.00001 5.50000
-30.20000 -19.50001 6.00000
-29.70000 -20.50001 5.50000
-30.20000 -20.50001 5.00000
-30.20000 -20.00001 6.50000
-30.20000 -20.00001 7.50000
-30.20000 -20.50001 8.00000
-29.70000 -21.50001 5.50000
-30.20000 -21.50001 5.00000
-30.20000 -21.00001 8.50000
-29.70000 -21.50001 9.50000
-30.20000 -21.50001 9.00000
-30.20000 -22.00001 5.50000
-29.70000 -22.50001 6.50000
-30.20000 -22.50001 6.00000
-29.70000 -22.50001 9.50000
-30.20000 -22.50001 9.00000
-30.20000 -23.00001 6.50000
-30.20000 -23.50001 7.00000
-30.20000 -23.00001 8.50000
-30.20000 -23.50001 8.00000
-30.20000 -24.00001 7.50000
-30.70000 5.49999 -13.50000
-30.70000 5.49999 -12.50000
-30.70000 4.49999 -12.50000
-31.20000 4.99999 -11.50000
-31.20000 4.49999 -12.00000
-31.20000 4.99999 -10.50000
-31.20000 4.99999 -9.50000
-31.20000 4.99999 -8.50000
-30.70000 4.49999 -8.50000
-31.20000 4.49999 -8.00000
-30.70000 3.49999 -12.50000
-31.20000 3.99999 -11.50000
-30.70000 3.49999 -11.50000
-31.20000 3.49999 -11.00000
-31.20000 3.99999 -7.50000
-31.20000 3.99999 -6.50000
-31.20000 3.49999 -6.00000
-31.20000 2.99999 -10.50000
-30.70000 2.49999 -9.50000
-31.20000 2.99999 -9.50000
-31.20000 2.49999 -9.00000
-31.20000 2.99999 -5.50000
-31.20000 2.49999 -5.00000
-31.20000 1.99999 -8.50000
-30.70000 1.49999 -7.50000
-31.20000 1.49999 -8.00000
-31.20000 1.99999 -4.50000
-31.20000 1.49999 -4.00000
-31.20000 0.99999 -7.50000
-31.20000 0.99999 -6.50000
-30.70000 0.49999 -5.50000
-31.20000 0.49999 -6.00000
-30.70000 0.49999 -4.50000
-31.20000 0.99999 -3.50000
-30.70000 0.49999 -3.50000
-31.20000 0.49999 -3.00000
-31.20000 -0.00001 -5.50000
-30.70000 -0.50001 -4.50000
-31.20000 -0.50001 -5.00000
-30.70000 -0.50001 -3.50000
-31.20000 -0.50001 -3.00000
-31.20000 -1.00001 -4.50000
-31.20000 -1.00001 -3.50000
-30.70000 -15.50001 3.50000
-31.20000 -15.50001 3.00000
-31.20000 -15.00001 3.50000
-31.20000 -15.50001 4.00000
-30.70000 -16.50001 3.50000
-31.20000 -16.50001 3.00000
-31.20000 -16.50001 4.00000
-30.70000 -17.50001 3.50000
-31.20000 -17.50001 3.00000
-31.20000 -17.00001 4.50000
-30.70000 -17.50001 4.50000
-31.20000 -17.50001 5.00000
-30.70000 -18.50001 3.50000
-31.20000 -18.50001 3.00000
-31.20000 -18.00001 5.50000
-30.70000 -18.50001 5.50000
-31.20000 -18.50001 6.00000
-31.20000 -19.00001 3.50000
-30.70000 -19.50001 4.50000
-31.20000 -19.50001 4.00000
-31.20000 -19.00001 6.50000
-30.70000 -19.50001 6.50000
-31.20000 -19.50001 7.00000
-30.70000 -20.50001 4.50000
-31.20000 -20.50001 4.00000
-31.20000 -20.50001 7.00000
-30.70000 -20.50001 7.50000
-31.20000 -21.00001 4.50000
-31.20000 -21.50001 5.00000
-31.20000 -21.00001 7.50000
-30.70000 -21.50001 8.50000
-31.20000 -21.50001 8.00000
-30.70000 -22.50001 5.50000
-31.20000 -22.50001 5.00000
-30.70000 -22.50001 8.50000
-31.20000 -22.50001 8.00000
-30.70000 -23.50001 5.50000
-31.20000 -23.50001 5.00000
-30.70000 -23.50001 6.50000
-31.20000 -23.50001 8.00000
-31.20000 -24.00001 5.50000
-31.20000 -24.00001 6.50000
-31.20000 -24.00001 7.50000
-31.70000 4.49999 -11.50000
-31.70000 4.49999 -10.50000
-31.70000 4.49999 -9.50000
-31.70000 4.49999 -8.50000
-31.70000 3.49999 -10.50000
-31.70000 3.49999 -9.50000
-32.20000 3.49999 -9.00000
-32.20000 3.99999 -8.50000
-32.20000 3.99999 -7.50000
-32.20000 3.99999 -6.50000
-32.20000 3.49999 -6.00000
-31.70000 2.49999 -8.50000
-32.20000 2.99999 -8.50000
-32.20000 2.49999 -8.00000
-32.20000 2.99999 -5.50000
-32.20000 2.49999 -5.00000
-31.70000 1.49999 -7.50000
-32.20000 1.99999 -7.50000
-32.20000 1.49999 -7.00000
-32.20000 1.99999 -4.50000
-32.20000 1.49999 -4.00000
-32.20000 0.99999 -6.50000
-32.20000 0.49999 -6.00000
-31.70000 0.49999 -3.50000
-32.20000 0.49999 -4.00000
-31.70000 -0.50001 -5.50000
-32.20000 -0.50001 -6.00000
-32.20000 -0.00001 -3.50000
-32.20000 -0.50001 -3.00000
-32.20000 -1.00001 -5.50000
-31.70000 -1.50001 -4.50000
-32.20000 -1.50001 -5.00000
-31.70000 -1.50001 -3.50000
-32.20000 -1.50001 -3.00000
-32.20000 -2.00001 -4.50000
-31.70000 -2.50001 -3.50000
-32.20000 -2.50001 -4.00000
-32.20000 -2.50001 -3.00000
-32.20000 -3.00001 -3.50000
-32.20000 -3.50001 -3.00000
-31.70000 -3.50001 -2.50000
-32.20000 -3.00001 -2.50000
-32.20000 -3.50001 -2.00000
-32.20000 -4.00001 -2.50000
-31.70000 -10.50001 1.50000
-32.20000 -10.50001 1.00000
-32.20000 -10.00001 1.50000
-32.20000 -10.50001 2.00000
-32.20000 -11.00001 1.50000
-31.70000 -13.50001 2.50000
-32.20000 -13.50001 2.00000
-32.20000 -13.00001 2.50000
-32.20000 -13.50001 3.00000
-31.70000 -14.50001 2.50000
-32.20000 -14.50001 2.00000
-32.20000 -14.50001 3.00000
-31.70000 -15.50001 2.50000
-32.20000 -15.50001 2.00000
-32.20000 -15.00001 3.50000
-32.20000 -15.50001 4.00000
-31.70000 -16.50001 2.50000
-32.20000 -16.50001 2.00000
-32.20000 -16.50001 4.00000
-31.70000 -17.50001 2.50000
-32.20000 -17.50001 2.00000
-32.20000 -17.00001 4.50000
-32.20000 -17.50001 5.00000
-32.20000 -18.00001 2.50000
-32.20000 -18.50001 3.00000
-32.20000 -18.00001 5.50000
-32.20000 -18.50001 6.00000
-31.70000 -19.50001 3.50000
-32.20000 -19.50001 3.00000
-31.70000 -19.50001 6.50000
-32.20000 -19.50001 6.00000
-31.70000 -20.50001 3.50000
-32.20000 -20.50001 3.00000
-32.20000 -20.00001 6.50000
-32.20000 -20.50001 7.00000
-31.70000 -21.50001 3.50000
-32.20000 -21.50001 3.00000
-31.70000 -21.50001 4.50000
-31.70000 -21.50001 7.50000
-32.20000 -21.50001 7.00000
-31.70000 -22.50001 3.50000
-32.20000 -22.50001 3.00000
-31.70000 -22.50001 4.50000
-31.70000 -22.50001 7.50000
-32.20000 -22.50001 7.00000
-31.70000 -23.50001 3.50000
-32.20000 -23.50001 3.00000
-31.70000 -23.50001 4.50000
-31.70000 -23.50001 6.50000
-32.20000 -23.00001 6.50000
-32.20000 -23.50001 6.00000
-31.70000 -23.50001 7.50000
-32.20000 -24.00001 3.50000
-32.20000 -24.00001 4.50000
-32.20000 -24.00001 5.50000
-32.70000 3.49999 -8.50000
-32.70000 3.49999 -7.50000
-32.70000 3.49999 -6.50000
-32.70000 2.49999 -7.50000
-32.70000 2.49999 -6.50000
-32.70000 2.49999 -5.50000
-32.70000 1.49999 -6.50000
-33.20000 1.49999 -6.00000
-33.20000 1.99999 -5.50000
-32.70000 1.49999 -4.50000
-33.20000 1.49999 -5.00000
-33.20000 0.49999 -6.00000
-33.20000 0.99999 -4.50000
-33.20000 0.49999 -4.00000
-33.20000 -0.00001 -5.50000
-32.70000 -0.50001 -5.50000
-33.20000 -0.50001 -5.00000
-33.20000 -0.00001 -3.50000
-33.20000 -0.50001 -3.00000
-33.20000 -1.50001 -5.00000
-33.20000 -1.50001 -3.00000
-33.20000 -2.00001 -4.50000
-33.20000 -2.50001 -4.00000
-33.20000 -2.00001 -2.50000
-32.70000 -2.50001 -2.50000
-33.20000 -2.50001 -2.00000
-32.70000 -3.50001 -3.50000
-33.20000 -3.50001 -4.00000
-33.20000 -3.50001 -2.00000
-33.20000 -4.00001 -3.50000
-32.70000 -4.50001 -2.50000
-33.20000 -4.50001 -3.00000
-33.20000 -4.50001 -2.00000
-33.20000 -5.00001 -2.50000
-32.70000 -10.50001 0.50000
-33.20000 -10.50001 0.00000
-33.20000 -10.00001 0.50000
-33.20000 -10.00001 1.50000
-33.20000 -10.50001 2.00000
-32.70000 -11.50001 0.50000
-33.20000 -11.50001 0.00000
-32.70000 -11.50001 1.50000
-33.20000 -11.50001 2.00000
-32.70000 -12.50001 0.50000
-33.20000 -12.50001 0.00000
-32.70000 -12.50001 1.50000
-33.20000 -12.50001 2.00000
-32.70000 -13.50001 0.50000
-33.20000 -13.50001 0.00000
-32.70000 -13.50001 1.50000
-33.20000 -13.00001 2.50000
-33.20000 -13.50001 3.00000
-33.20000 -14.00001 0.50000
-32.70000 -14.50001 1.50000
-33.20000 -14.50001 1.00000
-33.20000 -14.50001 3.00000
-32.70000 -15.50001 1.50000
-33.20000 -15.50001 1.00000
-33.20000 -15.00001 3.50000
-33.20000 -15.50001 4.00000
-32.70000 -16.50001 1.50000
-33.20000 -16.50001 1.00000
-33.20000 -16.50001 4.00000
-32.70000 -17.50001 0.50000
-33.20000 -17.50001 0.00000
-33.20000 -17.00001 0.50000
-32.70000 -17.50001 1.50000
-33.20000 -17.00001 4.50000
-33.20000 -17.50001 5.00000
-32.70000 -18.50001 0.50000
-33.20000 -18.50001 0.00000
-32.70000 -18.50001 1.50000
-32.70000 -18.50001 2.50000
-32.70000 -18.50001 5.50000
-33.20000 -18.50001 5.00000
-32.70000 -19.50001 0.50000
-33.20000 -19.50001 0.00000
-32.70000 -19.50001 1.50000
-32.70000 -19.50001 2.50000
-33.20000 -19.00001 5.50000
-33.20000 -19.50001 6.00000
-33.20000 -20.00001 0.50000
-32.70000 -20.50001 1.50000
-33.20000 -20.50001 1.00000
-32.70000 -20.50001 2.50000
-32.70000 -20.50001 6.50000
-33.20000 -20.50001 6.00000
-32.70000 -21.50001 1.50000
-33.20000 -21.50001 1.00000
-32.70000 -21.50001 2.50000
-32.70000 -21.50001 6.50000
-33.20000 -21.50001 6.00000
-33.20000 -22.00001 1.50000
-32.70000 -22.50001 2.50000
-33.20000 -22.50001 2.00000
-32.70000 -22.50001 5.50000
-33.20000 -22.00001 5.50000
-33.20000 -22.50001 5.00000
-32.70000 -22.50001 6.50000
-33.20000 -23.00001 2.50000
-33.20000 -23.50001 3.00000
-33.20000 -23.00001 5.50000
-33.20000 -23.50001 6.00000
-33.20000 -24.00001 3.50000
-33.20000 -24.00001 4.50000
-33.20000 -24.00001 5.50000
-33.70000 1.49999 -5.50000
-33.70000 0.49999 -5.50000
-33.70000 0.49999 -4.50000
-33.70000 -0.50001 -4.50000
-33.70000 -0.50001 -3.50000
-33.70000 -1.50001 -4.50000
-33.70000 -1.50001 -3.50000
-33.70000 -2.50001 -3.50000
-33.70000 -2.50001 -2.50000
-33.70000 -3.50001 -3.50000
-33.70000 -3.50001 -2.50000
-33.70000 -4.50001 -2.50000
-34.20000 -5.00001 -1.50000
-33.70000 -5.50001 -1.50000
-34.20000 -5.50001 -2.00000
-34.20000 -5.50001 -1.00000
-33.70000 -6.50001 -1.50000
-34.20000 -6.50001 -2.00000
-34.20000 -6.00001 -0.50000
-33.70000 -6.50001 -0.50000
-34.20000 -6.50001 0.00000
-33.70000 -7.50001 -1.50000
-34.20000 -7.50001 -2.00000
-33.70000 -7.50001 -0.50000
-34.20000 -7.50001 0.00000
-34.20000 -8.00001 -1.50000
-33.70000 -8.50001 -0.50000
-34.20000 -8.50001 -1.00000
-34.20000 -8.00001 0.50000
-33.70000 -8.50001 0.50000
-34.20000 -8.50001 1.00000
-33.70000 -9.50001 -0.50000
-34.20000 -9.50001 -1.00000
-33.70000 -9.50001 0.50000
-34.20000 -9.50001 1.00000
-33.70000 -10.50001 -0.50000
-34.20000 -10.50001 -1.00000
-34.20000 -10.00001 1.50000
-34.20000 -10.50001 2.00000
-33.70000 -11.50001 -0.50000
-34.20000 -11.50001 -1.00000
-34.20000 -11.50001 2.00000
-33.70000 -12.50001 -0.50000
-34.20000 -12.50001 -1.00000
-34.20000 -12.50001 2.00000
-33.70000 -13.50001 -0.50000
-34.20000 -13.50001 -1.00000
-34.20000 -13.00001 2.50000
-34.20000 -13.50001 3.00000
-34.20000 -14.00001 -0.50000
-33.70000 -14.50001 0.50000
-34.20000 -14.50001 0.00000
-34.20000 -14.50001 3.00000
-33.70000 -15.50001 0.50000
-34.20000 -15.50001 0.00000
-34.20000 -15.00001 3.50000
-34.20000 -15.50001 4.00000
-33.70000 -16.50001 0.50000
-34.20000 -16.50001 0.00000
-34.20000 -16.50001 4.00000
-34.20000 -17.50001 0.00000
-33.70000 -17.50001 4.50000
-34.20000 -17.50001 4.00000
-34.20000 -18.50001 0.00000
-33.70000 -18.50001 4.50000
-34.20000 -18.50001 4.00000
-34.20000 -19.50001 0.00000
-33.70000 -19.50001 4.50000
-34.20000 -19.50001 4.00000
-33.70000 -19.50001 5.50000
-34.20000 -20.00001 0.50000
-34.20000 -20.50001 1.00000
-33.70000 -20.50001 4.50000
-34.20000 -20.50001 4.00000
-33.70000 -20.50001 5.50000
-34.20000 -21.50001 1.00000
-34.20000 -21.00001 4.50000
-34.20000 -21.50001 5.00000
-33.70000 -21.50001 5.50000
-34.20000 -22.00001 1.50000
-34.20000 -22.50001 2.00000
-34.20000 -22.50001 5.00000
-34.20000 -23.00001 2.50000
-34.20000 -23.50001 3.00000
-33.70000 -23.50001 5.50000
-34.20000 -23.50001 5.00000
-34.20000 -24.00001 3.50000
-34.20000 -24.00001 4.50000
-34.70000 -5.50001 -1.50000
-34.70000 -6.50001 -1.50000
-34.70000 -6.50001 -0.50000
-34.70000 -7.50001 -1.50000
-35.20000 -7.50001 -1.00000
-35.20000 -7.00001 -0.50000
-35.20000 -7.50001 0.00000
-35.20000 -8.50001 -1.00000
-34.70000 -8.50001 0.50000
-35.20000 -8.50001 0.00000
-35.20000 -9.50001 -1.00000
-35.20000 -9.00001 0.50000
-35.20000 -9.50001 1.00000
-35.20000 -10.50001 -1.00000
-34.70000 -10.50001 1.50000
-35.20000 -10.50001 1.00000
-35.20000 -11.50001 -1.00000
-34.70000 -11.50001 1.50000
-35.20000 -11.50001 1.00000
-35.20000 -12.50001 -1.00000
-35.20000 -12.00001 1.50000
-35.20000 -12.50001 2.00000
-35.20000 -13.50001 -1.00000
-34.70000 -13.50001 2.50000
-35.20000 -13.50001 2.00000
-34.70000 -14.50001 -0.50000
-35.20000 -14.50001 -1.00000
-35.20000 -14.00001 2.50000
-35.20000 -14.50001 3.00000
-35.20000 -15.00001 -0.50000
-35.20000 -15.50001 0.00000
-34.70000 -15.50001 3.50000
-35.20000 -15.50001 3.00000
-35.20000 -16.50001 0.00000
-34.70000 -16.50001 3.50000
-35.20000 -16.50001 3.00000
-35.20000 -17.50001 0.00000
-34.70000 -17.50001 3.50000
-35.20000 -17.50001 3.00000
-35.20000 -18.50001 0.00000
-34.70000 -18.50001 3.50000
-35.20000 -18.50001 3.00000
-35.20000 -19.50001 0.00000
-34.70000 -19.50001 3.50000
-35.20000 -19.50001 3.00000
-35.20000 -20.00001 0.50000
-35.20000 -20.50001 1.00000
-35.20000 -20.00001 3.50000
-35.20000 -20.50001 4.00000
-35.20000 -21.50001 1.00000
-34.70000 -21.50001 4.50000
-35.20000 -21.50001 4.00000
-35.20000 -22.00001 1.50000
-35.20000 -22.50001 2.00000
-34.70000 -22.50001 4.50000
-35.20000 -22.50001 4.00000
-35.20000 -23.00001 2.50000
-35.20000 -23.50001 3.00000
-34.70000 -23.50001 4.50000
-35.20000 -23.50001 4.00000
-35.20000 -24.00001 3.50000
-35.70000 -7.50001 -0.50000
-36.20000 -8.50001 -1.00000
-36.20000 -8.00001 -0.50000
-36.20000 -8.50001 0.00000
-36.20000 -9.50001 -1.00000
-35.70000 -9.50001 0.50000
-36.20000 -9.50001 0.00000
-36.20000 -10.50001 -1.00000
-36.20000 -10.00001 0.50000
-36.20000 -10.50001 1.00000
-36.20000 -11.50001 -1.00000
-36.20000 -11.50001 1.00000
-36.20000 -12.50001 -1.00000
-35.70000 -12.50001 1.50000
-36.20000 -12.50001 1.00000
-36.20000 -13.50001 -1.00000
-35.70000 -13.50001 1.50000
-36.20000 -13.50001 1.00000
-36.20000 -14.50001 -1.00000
-35.70000 -14.50001 1.50000
-36.20000 -14.50001 1.00000
-35.70000 -14.50001 2.50000
-35.70000 -15.50001 -0.50000
-36.20000 -15.50001 -1.00000
-36.20000 -15.00001 1.50000
-36.20000 -15.50001 2.00000
-35.70000 -15.50001 2.50000
-36.20000 -16.00001 -0.50000
-36.20000 -16.50001 0.00000
-35.70000 -16.50001 2.50000
-36.20000 -16.50001 2.00000
-36.20000 -17.50001 0.00000
-35.70000 -17.50001 2.50000
-36.20000 -17.50001 2.00000
-36.20000 -18.50001 0.00000
-35.70000 -18.50001 2.50000
-36.20000 -18.50001 2.00000
-36.20000 -19.50001 0.00000
-36.20000 -19.00001 2.50000
-36.20000 -19.50001 3.00000
-35.70000 -20.50001 0.50000
-36.20000 -20.50001 0.00000
-35.70000 -20.50001 3.50000
-36.20000 -20.50001 3.00000
-36.20000 -21.00001 0.50000
-36.20000 -21.50001 1.00000
-35.70000 -21.50001 3.50000
-36.20000 -21.50001 3.00000
-35.70000 -22.50001 1.50000
-36.20000 -22.50001 1.00000
-36.20000 -22.00001 3.50000
-36.20000 -22.50001 4.00000
-36.20000 -23.00001 1.50000
-36.20000 -23.00001 2.50000
-36.20000 -23.50001 3.00000
-36.20000 -23.50001 4.00000
-36.20000 -24.00001 3.50000
-36.70000 -8.50001 -0.50000
-36.70000 -9.50001 -0.50000
-37.20000 -10.50001 -1.00000
-37.20000 -10.00001 -0.50000
-36.70000 -10.50001 0.50000
-37.20000 -10.50001 0.00000
-37.20000 -11.50001 -1.00000
-36.70000 -11.50001 0.50000
-37.20000 -11.50001 0.00000
-37.20000 -12.50001 -1.00000
-36.70000 -12.50001 0.50000
-37.20000 -12.50001 0.00000
-37.20000 -13.50001 -1.00000
-37.20000 -13.00001 0.50000
-37.20000 -13.50001 1.00000
-37.20000 -14.50001 -1.00000
-37.20000 -14.50001 1.00000
-37.20000 -15.50001 -1.00000
-36.70000 -15.50001 1.50000
-37.20000 -15.50001 1.00000
-36.70000 -16.50001 -0.50000
-37.20000 -16.50001 -1.00000
-36.70000 -16.50001 1.50000
-37.20000 -16.50001 1.00000
-37.20000 -17.00001 -0.50000
-37.20000 -17.50001 0.00000
-37.20000 -17.00001 1.50000
-37.20000 -17.50001 2.00000
-37.20000 -18.50001 0.00000
-37.20000 -18.50001 2.00000
-37.20000 -19.50001 0.00000
-36.70000 -19.50001 2.50000
-37.20000 -19.50001 2.00000
-37.20000 -20.50001 0.00000
-36.70000 -20.50001 2.50000
-37.20000 -20.50001 2.00000
-37.20000 -21.00001 0.50000
-37.20000 -21.50001 1.00000
-37.20000 -21.00001 2.50000
-37.20000 -21.50001 3.00000
-37.20000 -22.00001 1.50000
-36.70000 -22.50001 1.50000
-36.70000 -22.50001 2.50000
-37.20000 -22.00001 2.50000
-36.70000 -22.50001 3.50000
-36.70000 -23.50001 3.50000
-37.70000 -10.50001 -0.50000
-37.70000 -11.50001 -0.50000
-37.70000 -12.50001 -0.50000
-37.70000 -13.50001 -0.50000
-37.70000 -13.50001 0.50000
-37.70000 -14.50001 -0.50000
-37.70000 -14.50001 0.50000
-37.70000 -15.50001 -0.50000
-37.70000 -15.50001 0.50000
-37.70000 -16.50001 -0.50000
-37.70000 -16.50001 0.50000
-37.70000 -17.50001 0.50000
-37.70000 -17.50001 1.50000
-37.70000 -18.50001 0.50000
-37.70000 -18.50001 1.50000
-37.70000 -19.50001 0.50000
-37.70000 -19.50001 1.50000
-37.70000 -20.50001 0.50000
-37.70000 -20.50001 1.50000
-37.70000 -21.50001 1.50000
-37.70000 -21.50001 2.50000
3 2 1 0
3 0 3 2
3 0 1 4
3 4 1 5
3 3 0 6
3 6 0 4
3 5 7 4
3 4 7 6
3 10 9 8
3 12 11 8
3 8 11 10
3 12 13 11
3 15 14 2
3 2 14 1
3 2 3 15
3 15 3 16
3 9 17 8
3 8 17 12
3 12 17 18
3 12 18 13
3 14 5 1
3 19 5 14
3 6 21 20
3 16 6 20
3 3 6 16
3 21 22 20
3 7 5 23
3 5 24 23
3 5 19 24
3 21 6 7
3 23 21 7
3 25 21 23
3 22 21 26
3 26 21 25
3 24 27 23
3 23 27 25
3 25 27 28
3 25 28 26
3 31 30 29
3 29 32 31
3 29 30 10
3 30 9 10
3 30 33 9
3 34 32 29
3 10 34 29
3 11 34 10
3 36 35 13
3 35 11 13
3 35 34 11
3 14 15 36
3 15 35 36
3 15 37 35
3 15 16 37
3 37 16 38
3 17 9 39
3 9 40 39
3 9 33 40
3 41 18 17
3 41 17 39
3 36 13 18
3 41 36 18
3 42 36 41
3 42 19 14
3 42 14 36
3 43 38 16
3 43 16 20
3 20 22 43
3 43 22 44
3 40 45 39
3 39 45 41
3 41 45 46
3 41 46 42
3 42 46 47
3 19 42 47
3 48 19 47
3 24 19 48
3 26 44 22
3 26 49 44
3 27 24 50
3 24 51 50
3 24 48 51
3 52 28 27
3 52 27 50
3 52 53 28
3 53 26 28
3 53 49 26
3 50 51 54
3 54 51 55
3 57 52 56
3 52 54 56
3 52 50 54
3 52 57 53
3 55 58 54
3 54 58 56
3 59 30 31
3 32 59 31
3 61 60 59
3 60 30 59
3 60 33 30
3 61 59 32
3 34 61 32
3 62 61 34
3 63 34 35
3 63 62 34
3 65 63 64
3 63 37 64
3 63 35 37
3 38 64 37
3 60 40 33
3 66 40 60
3 67 65 64
3 67 64 38
3 43 67 38
3 68 67 43
3 43 44 68
3 68 44 69
3 66 70 40
3 40 70 45
3 70 72 71
3 46 70 71
3 45 70 46
3 73 47 46
3 73 46 71
3 73 48 47
3 49 69 44
3 49 74 69
3 72 75 71
3 71 75 73
3 73 75 76
3 48 73 76
3 77 48 76
3 51 48 77
3 53 74 49
3 53 78 74
3 77 55 51
3 79 55 77
3 81 80 57
3 81 57 56
3 53 57 78
3 78 57 80
3 84 83 82
3 82 85 58
3 79 82 58
3 55 79 58
3 82 79 84
3 85 86 58
3 86 56 58
3 86 81 56
3 83 87 82
3 82 87 85
3 85 87 88
3 85 88 86
3 90 89 61
3 61 89 60
3 91 61 62
3 91 90 61
3 93 91 92
3 91 63 92
3 91 62 63
3 65 92 63
3 95 66 94
3 66 89 94
3 66 60 89
3 96 95 94
3 97 93 92
3 97 92 65
3 67 97 65
3 98 97 67
3 100 98 99
3 98 68 99
3 98 67 68
3 69 99 68
3 95 70 66
3 72 70 95
3 96 72 95
3 101 72 96
3 102 100 99
3 99 69 102
3 69 103 102
3 69 74 103
3 101 104 72
3 72 104 75
3 75 105 76
3 104 105 75
3 77 76 105
3 77 105 106
3 78 103 74
3 78 107 103
3 106 79 77
3 108 79 106
3 81 109 80
3 109 110 80
3 110 78 80
3 110 107 78
3 111 83 84
3 112 111 84
3 79 112 84
3 108 112 79
3 114 113 109
3 81 114 109
3 86 114 81
3 109 113 110
3 111 87 83
3 112 115 111
3 115 87 111
3 115 88 87
3 86 88 114
3 114 88 115
3 118 117 116
3 120 119 116
3 116 119 118
3 120 121 119
3 116 117 122
3 122 117 123
3 116 124 120
3 116 122 124
3 121 120 125
3 125 120 124
3 123 126 122
3 122 126 124
3 124 126 127
3 124 127 125
3 128 89 90
3 91 129 90
3 90 129 128
3 93 129 91
3 128 94 89
3 128 129 130
3 96 128 130
3 131 96 130
3 128 96 94
3 130 129 93
3 97 130 93
3 132 130 97
3 133 97 98
3 133 132 97
3 98 100 133
3 133 100 134
3 136 101 135
3 101 131 135
3 101 96 131
3 137 136 135
3 138 134 100
3 138 100 102
3 102 103 138
3 138 103 139
3 136 104 101
3 105 104 136
3 140 105 136
3 137 140 136
3 141 105 140
3 141 106 105
3 107 139 103
3 107 142 139
3 140 143 141
3 106 141 143
3 144 106 143
3 108 106 144
3 110 142 107
3 110 145 142
3 144 112 108
3 146 112 144
3 114 147 113
3 147 148 113
3 148 110 113
3 148 145 110
3 146 149 112
3 112 149 115
3 114 115 147
3 115 150 147
3 115 149 150
3 147 150 148
3 152 151 118
3 118 151 117
3 153 118 119
3 153 152 118
3 119 121 153
3 153 121 154
3 151 123 117
3 155 123 151
3 125 157 156
3 154 125 156
3 121 125 154
3 157 158 156
3 126 123 159
3 123 160 159
3 123 155 160
3 126 159 161
3 162 126 161
3 127 126 162
3 125 127 157
3 127 163 157
3 127 162 163
3 157 163 158
3 160 164 159
3 159 164 161
3 165 131 130
3 165 130 166
3 130 167 166
3 130 132 167
3 168 132 133
3 168 167 132
3 133 134 168
3 168 134 169
3 165 135 131
3 137 135 165
3 166 137 165
3 170 137 166
3 171 169 134
3 171 134 138
3 138 139 171
3 171 139 172
3 170 140 137
3 173 140 170
3 142 172 139
3 142 174 172
3 173 175 140
3 140 175 143
3 144 143 175
3 144 175 176
3 145 174 142
3 145 177 174
3 176 146 144
3 178 146 176
3 148 177 145
3 148 179 177
3 149 146 180
3 146 181 180
3 146 178 181
3 149 180 182
3 183 149 182
3 150 149 183
3 148 150 179
3 179 150 183
3 181 184 180
3 180 184 182
3 185 151 152
3 153 186 152
3 152 186 185
3 154 186 153
3 189 188 187
3 190 189 185
3 189 155 185
3 155 151 185
3 189 187 155
3 190 185 186
3 190 186 191
3 193 191 192
3 192 191 156
3 191 186 156
3 186 154 156
3 158 192 156
3 187 188 194
3 194 188 195
3 194 160 155
3 194 155 187
3 161 196 162
3 197 193 192
3 162 197 192
3 163 162 192
3 197 162 196
3 163 192 158
3 195 198 194
3 194 198 160
3 198 164 160
3 198 199 164
3 161 164 196
3 164 200 196
3 164 199 200
3 196 200 197
3 203 202 201
3 205 204 201
3 201 204 203
3 205 206 204
3 202 207 201
3 208 166 167
3 201 208 167
3 205 201 167
3 207 208 201
3 209 206 205
3 167 209 205
3 168 209 167
3 168 169 209
3 209 169 210
3 208 170 166
3 211 170 208
3 212 210 169
3 212 169 171
3 171 172 212
3 212 172 213
3 215 173 214
3 173 211 214
3 173 170 211
3 216 215 214
3 174 213 172
3 174 217 213
3 215 175 173
3 176 175 215
3 216 176 215
3 218 176 216
3 177 217 174
3 177 219 217
3 221 178 220
3 178 218 220
3 178 176 218
3 222 221 220
3 179 219 177
3 179 223 219
3 224 181 221
3 221 181 178
3 225 183 182
3 221 225 182
3 224 221 182
3 225 221 222
3 179 183 223
3 223 183 225
3 224 184 181
3 184 224 182
3 226 188 189
3 226 189 227
3 189 228 227
3 189 190 228
3 229 190 191
3 229 228 190
3 191 193 229
3 229 193 230
3 232 231 226
3 231 188 226
3 231 195 188
3 232 226 227
3 197 234 233
3 230 197 233
3 193 197 230
3 234 235 233
3 231 236 195
3 195 236 198
3 236 238 237
3 199 236 237
3 198 236 199
3 199 237 239
3 240 199 239
3 200 199 240
3 197 200 234
3 200 241 234
3 200 240 241
3 234 241 235
3 238 242 237
3 237 242 239
3 245 244 243
3 243 246 245
3 243 244 203
3 244 202 203
3 244 247 202
3 248 246 243
3 203 248 243
3 204 248 203
3 204 206 248
3 248 206 249
3 247 250 202
3 202 250 207
3 208 207 250
3 208 250 251
3 252 249 206
3 252 206 209
3 209 210 252
3 252 210 253
3 251 211 208
3 254 211 251
3 255 253 210
3 255 210 212
3 212 213 255
3 255 213 256
3 254 257 211
3 211 257 214
3 216 214 257
3 216 257 258
3 217 256 213
3 217 259 256
3 258 218 216
3 260 218 258
3 219 259 217
3 219 261 259
3 260 262 218
3 218 262 220
3 264 263 222
3 220 264 222
3 262 264 220
3 264 261 263
3 261 223 263
3 261 219 223
3 263 225 222
3 225 263 223
3 266 265 228
3 228 265 227
3 268 266 267
3 266 229 267
3 266 228 229
3 230 267 229
3 269 231 232
3 270 269 232
3 227 270 232
3 265 270 227
3 271 268 267
3 271 267 230
3 233 271 230
3 272 271 233
3 233 235 272
3 272 235 273
3 269 236 231
3 238 236 269
3 270 238 269
3 274 238 270
3 239 275 240
3 240 275 276
3 277 240 276
3 241 240 277
3 235 241 273
3 273 241 277
3 242 238 278
3 238 279 278
3 238 274 279
3 278 280 242
3 242 280 239
3 280 281 239
3 281 275 239
3 275 281 276
3 279 282 278
3 278 282 280
3 284 283 245
3 245 283 244
3 245 246 284
3 284 246 285
3 287 247 286
3 247 283 286
3 247 244 283
3 289 288 248
3 288 290 248
3 287 248 290
3 248 287 246
3 286 246 287
3 246 286 288
3 288 285 246
3 289 285 288
3 288 286 290
3 248 249 289
3 289 249 291
3 287 250 247
3 251 250 287
3 290 251 287
3 292 251 290
3 293 291 249
3 293 249 252
3 252 253 293
3 293 253 294
3 296 254 295
3 254 292 295
3 254 251 292
3 297 296 295
3 298 294 253
3 298 253 255
3 255 256 298
3 298 256 299
3 296 257 254
3 258 257 296
3 297 258 296
3 300 258 297
3 259 299 256
3 259 301 299
3 303 260 302
3 260 300 302
3 260 258 300
3 304 303 302
3 261 306 305
3 301 261 305
3 259 261 301
3 306 307 305
3 303 262 260
3 264 262 303
3 308 264 303
3 304 308 303
3 309 264 308
3 309 310 264
3 264 310 261
3 310 311 261
3 311 306 261
3 306 311 307
3 308 312 309
3 309 312 310
3 315 314 313
3 317 316 313
3 313 316 315
3 317 318 316
3 314 319 313
3 313 319 317
3 317 319 320
3 317 320 318
3 322 321 266
3 266 321 265
3 266 268 322
3 322 268 323
3 321 270 265
3 324 270 321
3 325 323 268
3 325 268 271
3 327 325 326
3 325 272 326
3 325 271 272
3 273 326 272
3 324 274 270
3 328 274 324
3 277 276 329
3 326 330 327
3 330 326 331
3 326 273 331
3 277 329 331
3 277 331 273
3 328 279 274
3 332 279 328
3 280 333 281
3 329 276 281
3 333 329 281
3 334 329 333
3 331 329 335
3 335 329 334
3 332 336 279
3 279 336 282
3 280 282 333
3 282 337 333
3 282 336 337
3 333 337 334
3 334 337 338
3 334 338 335
3 341 340 339
3 339 342 341
3 340 343 339
3 344 283 284
3 343 342 339
3 285 344 284
3 344 286 283
3 290 286 345
3 286 344 345
3 285 289 345
3 285 345 344
3 291 345 289
3 346 292 345
3 345 292 290
3 293 347 291
3 347 345 291
3 347 346 345
3 294 347 293
3 346 295 292
3 295 346 297
3 346 348 297
3 346 347 348
3 348 347 294
3 349 348 294
3 298 349 294
3 350 348 349
3 298 299 349
3 349 299 351
3 352 300 348
3 348 300 297
3 348 350 353
3 348 353 352
3 301 351 299
3 301 354 351
3 352 302 300
3 304 302 352
3 353 304 352
3 355 304 353
3 356 354 301
3 356 301 305
3 305 307 356
3 356 307 357
3 355 308 304
3 358 308 355
3 310 359 311
3 359 360 311
3 360 307 311
3 360 357 307
3 358 361 308
3 308 361 312
3 312 361 310
3 361 362 310
3 362 359 310
3 362 361 363
3 360 359 364
3 364 359 362
3 363 365 362
3 362 365 364
3 368 367 366
3 366 369 368
3 372 371 370
3 372 370 367
3 370 366 367
3 370 373 366
3 315 374 314
3 374 366 314
3 366 373 314
3 366 374 369
3 376 374 375
3 374 316 375
3 374 315 316
3 318 375 316
3 371 377 370
3 370 377 373
3 373 377 378
3 373 378 314
3 378 319 314
3 378 379 319
3 375 320 376
3 320 379 376
3 320 319 379
3 320 375 318
3 380 321 322
3 323 380 322
3 381 324 380
3 380 324 321
3 381 380 323
3 382 381 323
3 325 382 323
3 383 381 382
3 325 327 382
3 382 327 384
3 385 328 381
3 381 328 324
3 381 383 386
3 381 386 385
3 387 384 327
3 387 327 330
3 389 388 331
3 388 330 331
3 388 387 330
3 389 390 388
3 391 332 385
3 385 332 328
3 385 386 392
3 385 392 391
3 335 393 389
3 335 389 331
3 390 389 394
3 394 389 393
3 391 336 332
3 392 395 391
3 395 336 391
3 395 337 336
3 337 396 338
3 395 396 337
3 335 338 393
3 338 397 393
3 338 396 397
3 393 397 394
3 400 399 398
3 402 401 398
3 398 401 400
3 402 403 401
3 399 404 398
3 405 340 341
3 398 405 341
3 402 398 341
3 404 405 398
3 341 342 402
3 342 403 402
3 342 406 403
3 405 407 340
3 340 407 343
3 342 343 406
3 406 343 407
3 408 350 349
3 351 408 349
3 409 353 408
3 408 353 350
3 354 409 351
3 351 409 408
3 410 355 409
3 409 355 353
3 356 411 354
3 411 409 354
3 411 410 409
3 357 411 356
3 412 358 410
3 410 358 355
3 413 410 411
3 412 410 413
3 360 413 357
3 357 413 411
3 412 361 358
3 361 412 363
3 412 414 363
3 412 413 414
3 364 414 360
3 360 414 413
3 414 365 363
3 365 414 364
3 417 416 415
3 419 418 415
3 415 418 417
3 367 368 419
3 368 418 419
3 368 420 418
3 368 369 420
3 420 369 421
3 415 416 422
3 422 416 423
3 422 371 372
3 419 422 372
3 415 422 419
3 419 372 367
3 424 421 369
3 424 369 374
3 374 376 424
3 424 376 425
3 423 426 422
3 422 426 371
3 426 377 371
3 426 427 377
3 377 428 378
3 427 428 377
3 378 429 379
3 428 429 378
3 376 379 425
3 425 379 429
3 430 383 382
3 384 430 382
3 431 386 430
3 430 386 383
3 431 430 384
3 432 431 384
3 387 432 384
3 433 431 432
3 434 387 388
3 434 432 387
3 436 435 390
3 435 388 390
3 435 434 388
3 436 437 435
3 438 392 431
3 431 392 386
3 431 433 439
3 431 439 438
3 394 440 436
3 394 436 390
3 437 436 441
3 436 442 441
3 436 440 442
3 444 443 442
3 442 443 441
3 444 445 443
3 438 395 392
3 439 446 438
3 446 395 438
3 446 396 395
3 446 448 447
3 397 446 447
3 396 446 397
3 440 394 397
3 447 440 397
3 449 440 447
3 440 450 442
3 440 449 450
3 452 444 451
3 444 450 451
3 444 442 450
3 444 452 445
3 455 454 453
3 453 456 455
3 448 457 447
3 447 457 449
3 449 457 458
3 449 458 450
3 450 458 459
3 450 459 451
3 454 460 453
3 399 460 461
3 460 399 453
3 400 453 399
3 453 400 456
3 462 456 400
3 463 400 401
3 463 462 400
3 401 403 463
3 463 403 464
3 461 465 399
3 399 465 404
3 405 404 465
3 405 465 466
3 406 464 403
3 406 467 464
3 466 468 405
3 405 468 407
3 406 407 467
3 467 407 468
3 471 470 469
3 473 472 469
3 469 472 471
3 473 474 472
3 469 470 475
3 475 470 476
3 475 416 417
3 473 475 417
3 469 475 473
3 477 474 473
3 417 477 473
3 418 477 417
3 478 418 420
3 478 477 418
3 420 421 478
3 478 421 479
3 476 480 475
3 416 475 480
3 481 416 480
3 423 416 481
3 421 424 482
3 483 421 482
3 479 421 483
3 425 482 424
3 426 423 484
3 423 485 484
3 423 481 485
3 426 484 486
3 487 426 486
3 427 426 487
3 427 488 428
3 487 488 427
3 482 429 483
3 429 488 483
3 429 428 488
3 429 482 425
3 485 489 484
3 484 489 486
3 490 433 432
3 490 432 491
3 432 492 491
3 432 434 492
3 493 434 435
3 493 492 434
3 435 437 493
3 493 437 494
3 495 439 490
3 490 439 433
3 490 491 496
3 497 490 496
3 495 490 497
3 498 497 496
3 499 494 437
3 499 437 441
3 500 441 443
3 500 499 441
3 502 501 445
3 501 443 445
3 501 500 443
3 502 503 501
3 495 446 439
3 446 495 448
3 495 504 448
3 495 497 504
3 497 498 505
3 497 505 504
3 451 506 452
3 502 445 452
3 506 502 452
3 507 502 506
3 503 502 508
3 502 509 508
3 502 507 509
3 511 510 509
3 509 510 508
3 454 455 511
3 455 510 511
3 455 512 510
3 455 456 512
3 512 456 513
3 504 457 448
3 505 514 504
3 514 457 504
3 514 458 457
3 458 515 459
3 514 515 458
3 451 459 506
3 459 516 506
3 459 515 516
3 518 517 516
3 517 506 516
3 517 507 506
3 507 519 509
3 507 517 519
3 509 520 511
3 509 519 520
3 521 460 454
3 511 521 454
3 520 521 511
3 523 522 462
3 523 461 522
3 461 523 521
3 513 521 523
3 521 513 460
3 522 460 513
3 513 456 522
3 522 456 462
3 461 460 522
3 525 523 524
3 523 463 524
3 523 462 463
3 464 524 463
3 518 526 517
3 517 526 519
3 519 526 527
3 519 527 520
3 520 527 528
3 530 529 528
3 529 520 528
3 529 521 520
3 531 465 461
3 521 531 461
3 529 531 521
3 524 532 525
3 466 465 531
3 524 464 532
3 464 533 532
3 464 467 533
3 530 534 529
3 529 534 531
3 531 534 535
3 531 535 466
3 535 468 466
3 535 536 468
3 467 468 533
3 533 468 536
3 539 538 537
3 537 540 539
3 538 541 537
3 541 542 537
3 542 543 537
3 544 540 537
3 544 537 543
3 543 545 544
3 543 542 546
3 546 542 547
3 471 548 470
3 548 543 470
3 543 546 470
3 543 548 545
3 549 471 472
3 549 548 471
3 472 474 549
3 549 474 550
3 546 547 551
3 551 547 552
3 551 476 470
3 551 470 546
3 553 550 474
3 553 474 477
3 555 553 554
3 553 478 554
3 553 477 478
3 479 554 478
3 552 556 551
3 556 558 557
3 556 557 480
3 551 556 480
3 476 551 480
3 557 481 480
3 555 554 559
3 555 559 560
3 483 559 479
3 479 559 554
3 558 561 557
3 481 557 561
3 562 481 561
3 485 481 562
3 564 563 487
3 564 487 486
3 559 488 560
3 488 563 560
3 488 487 563
3 488 559 483
3 562 565 485
3 485 565 489
3 486 489 564
3 564 489 565
3 566 491 492
3 493 567 492
3 492 567 566
3 494 567 493
3 566 496 491
3 496 566 498
3 566 568 498
3 566 567 568
3 568 567 494
3 569 568 494
3 499 569 494
3 570 568 569
3 571 499 500
3 571 569 499
3 572 500 501
3 572 571 500
3 574 573 503
3 573 501 503
3 573 572 501
3 574 575 573
3 576 505 568
3 568 505 498
3 568 570 577
3 578 568 577
3 576 568 578
3 579 578 577
3 508 574 503
3 580 575 574
3 508 580 574
3 510 580 508
3 581 510 512
3 581 580 510
3 512 513 581
3 581 513 582
3 576 514 505
3 514 576 515
3 515 576 578
3 579 583 578
3 583 515 578
3 583 516 515
3 585 584 518
3 516 585 518
3 583 585 516
3 586 584 585
3 587 582 513
3 587 513 523
3 523 525 587
3 587 525 588
3 584 526 518
3 586 589 584
3 589 526 584
3 589 527 526
3 589 591 590
3 528 589 590
3 527 589 528
3 590 530 528
3 592 588 525
3 592 525 532
3 532 533 592
3 592 533 593
3 591 594 590
3 590 594 530
3 594 534 530
3 594 595 534
3 595 597 596
3 535 595 596
3 534 595 535
3 598 536 535
3 598 535 596
3 593 533 599
3 533 598 599
3 598 600 599
3 533 536 598
3 600 601 599
3 597 602 596
3 604 603 602
3 603 596 602
3 603 598 596
3 598 605 600
3 598 603 605
3 601 600 606
3 606 600 605
3 604 607 603
3 603 607 605
3 605 607 608
3 605 608 606
3 611 610 609
3 609 612 611
3 609 610 613
3 613 610 614
3 612 609 615
3 615 609 613
3 613 614 616
3 616 614 617
3 615 613 618
3 613 619 618
3 613 616 619
3 619 620 618
3 616 617 621
3 621 617 622
3 621 538 539
3 619 621 539
3 616 621 619
3 624 623 540
3 540 623 539
3 623 620 539
3 620 619 539
3 624 625 623
3 622 626 621
3 626 628 627
3 626 627 541
3 621 626 541
3 538 621 541
3 544 624 540
3 542 541 627
3 630 629 545
3 545 629 544
3 629 625 544
3 625 624 544
3 630 631 629
3 627 628 632
3 632 628 633
3 632 547 542
3 632 542 627
3 548 630 545
3 548 549 630
3 549 634 630
3 634 631 630
3 549 635 634
3 550 635 549
3 633 636 632
3 547 632 636
3 637 547 636
3 552 547 637
3 638 634 635
3 640 638 639
3 639 638 553
3 638 635 553
3 635 550 553
3 555 639 553
3 556 552 641
3 552 642 641
3 552 637 642
3 641 558 556
3 640 639 643
3 640 643 644
3 560 643 555
3 555 643 639
3 641 642 645
3 645 642 646
3 647 561 558
3 641 647 558
3 645 647 641
3 647 562 561
3 644 643 563
3 564 644 563
3 648 644 564
3 563 643 560
3 646 649 645
3 645 649 647
3 647 649 650
3 647 650 562
3 650 565 562
3 650 651 565
3 564 565 648
3 648 565 651
3 652 570 569
3 571 653 569
3 569 653 652
3 572 654 571
3 571 654 653
3 573 655 572
3 572 655 654
3 575 655 573
3 652 577 570
3 577 652 579
3 652 656 579
3 652 653 656
3 657 653 654
3 656 653 657
3 655 659 658
3 657 655 658
3 654 655 657
3 659 655 575
3 580 659 575
3 660 659 580
3 661 580 581
3 661 660 580
3 581 582 661
3 661 582 662
3 656 583 579
3 583 656 585
3 585 656 657
3 664 663 586
3 664 586 585
3 658 664 585
3 657 658 585
3 665 663 664
3 666 662 582
3 666 582 587
3 587 588 666
3 666 588 667
3 663 589 586
3 669 668 591
3 669 591 589
3 665 669 589
3 663 665 589
3 670 668 669
3 671 667 588
3 671 588 592
3 592 593 671
3 671 593 672
3 668 594 591
3 670 673 668
3 673 594 668
3 673 595 594
3 597 595 673
3 597 673 674
3 593 599 675
3 676 593 675
3 672 593 676
3 601 675 599
3 602 597 677
3 597 678 677
3 597 674 678
3 677 604 602
3 679 676 675
3 675 601 679
3 601 680 679
3 601 606 680
3 678 681 677
3 681 683 682
3 681 682 607
3 677 681 607
3 604 677 607
3 684 608 607
3 684 607 682
3 684 685 608
3 685 606 608
3 685 680 606
3 683 686 682
3 688 687 686
3 687 682 686
3 687 684 682
3 685 684 689
3 689 684 687
3 688 690 687
3 690 691 687
3 691 692 687
3 693 689 687
3 693 687 692
3 692 694 693
3 691 695 692
3 692 695 694
3 698 697 696
3 696 699 698
3 697 700 696
3 696 700 699
3 703 702 701
3 701 704 703
3 701 702 705
3 705 702 706
3 704 701 707
3 707 701 705
3 705 706 708
3 708 706 709
3 611 710 610
3 710 705 610
3 705 708 610
3 705 710 707
3 611 612 710
3 710 612 711
3 708 709 712
3 712 709 713
3 712 614 610
3 712 610 708
3 615 711 612
3 615 714 711
3 712 713 715
3 715 713 716
3 715 617 614
3 715 614 712
3 717 714 615
3 717 615 618
3 618 620 717
3 717 620 718
3 716 719 715
3 617 715 719
3 720 617 719
3 622 617 720
3 721 718 620
3 721 620 623
3 623 625 721
3 721 625 722
3 626 622 723
3 622 724 723
3 622 720 724
3 723 628 626
3 625 629 725
3 726 625 725
3 722 625 726
3 631 725 629
3 723 724 727
3 727 724 728
3 727 633 628
3 727 628 723
3 729 726 725
3 725 631 729
3 631 730 729
3 631 634 730
3 727 728 731
3 731 728 732
3 733 636 633
3 727 733 633
3 731 733 727
3 733 637 636
3 634 638 734
3 735 634 734
3 730 634 735
3 640 734 638
3 731 732 736
3 736 732 737
3 731 738 733
3 731 736 738
3 738 642 637
3 738 637 733
3 735 734 739
3 735 739 740
3 644 739 640
3 640 739 734
3 736 737 741
3 741 737 742
3 736 743 738
3 736 741 743
3 743 646 642
3 743 642 738
3 746 745 744
3 744 745 740
3 739 744 740
3 747 744 739
3 648 747 644
3 644 747 739
3 742 748 741
3 741 748 743
3 743 748 749
3 743 749 646
3 749 649 646
3 749 750 649
3 744 650 746
3 650 750 746
3 650 649 750
3 650 744 651
3 651 744 747
3 651 747 648
3 751 658 659
3 660 752 659
3 659 752 751
3 661 753 660
3 660 753 752
3 662 753 661
3 751 664 658
3 664 751 665
3 751 754 665
3 751 752 754
3 755 752 753
3 754 752 755
3 666 756 662
3 756 753 662
3 756 755 753
3 667 756 666
3 754 669 665
3 669 754 670
3 754 757 670
3 754 755 757
3 756 759 758
3 757 756 758
3 755 756 757
3 761 759 760
3 760 759 671
3 759 756 671
3 756 667 671
3 672 760 671
3 757 673 670
3 674 673 757
3 758 674 757
3 762 674 758
3 763 761 760
3 760 672 763
3 672 764 763
3 672 676 764
3 766 678 765
3 678 762 765
3 678 674 762
3 767 766 765
3 768 764 676
3 768 676 679
3 679 680 768
3 768 680 769
3 766 681 678
3 683 681 766
3 767 683 766
3 770 683 767
3 685 769 680
3 685 771 769
3 770 772 683
3 683 772 686
3 688 686 772
3 688 772 773
3 689 775 774
3 771 689 774
3 685 689 771
3 775 776 774
3 690 688 777
3 688 778 777
3 688 773 778
3 693 775 689
3 691 690 777
3 693 694 775
3 694 776 775
3 694 779 776
3 778 780 777
3 780 782 781
3 780 781 695
3 777 780 695
3 691 777 695
3 781 783 695
3 783 694 695
3 783 779 694
3 782 784 781
3 781 784 783
3 787 786 785
3 697 698 785
3 698 787 785
3 698 788 787
3 698 699 788
3 788 699 789
3 785 786 790
3 790 786 791
3 792 700 697
3 785 792 697
3 790 792 785
3 792 793 700
3 793 699 700
3 793 789 699
3 790 791 794
3 794 791 795
3 790 796 792
3 790 794 796
3 793 792 797
3 797 792 796
3 794 795 798
3 798 795 799
3 794 800 796
3 794 798 800
3 703 801 702
3 801 796 702
3 796 800 702
3 796 801 797
3 703 704 801
3 801 704 802
3 799 803 798
3 805 804 803
3 804 798 803
3 804 800 798
3 804 706 702
3 804 702 800
3 707 802 704
3 707 806 802
3 804 805 807
3 807 805 808
3 807 709 706
3 807 706 804
3 809 806 707
3 809 707 710
3 710 711 809
3 809 711 810
3 807 808 811
3 811 808 812
3 811 713 709
3 811 709 807
3 714 810 711
3 714 813 810
3 816 815 814
3 816 814 812
3 814 811 812
3 814 817 811
3 817 716 713
3 817 713 811
3 818 813 714
3 818 714 717
3 717 718 818
3 818 718 819
3 814 815 820
3 820 815 821
3 814 822 817
3 814 820 822
3 823 719 716
3 817 823 716
3 822 823 817
3 823 720 719
3 718 721 824
3 825 718 824
3 819 718 825
3 722 824 721
3 820 821 826
3 826 821 827
3 820 828 822
3 820 826 828
3 822 829 823
3 822 828 829
3 829 724 720
3 829 720 823
3 830 825 824
3 824 722 830
3 722 831 830
3 722 726 831
3 827 832 826
3 834 833 832
3 833 826 832
3 833 828 826
3 828 835 829
3 828 833 835
3 835 728 724
3 835 724 829
3 726 729 836
3 837 726 836
3 831 726 837
3 730 836 729
3 833 834 838
3 838 834 839
3 833 840 835
3 833 838 840
3 840 732 728
3 840 728 835
3 837 836 841
3 837 841 842
3 735 841 730
3 730 841 836
3 839 843 838
3 845 844 843
3 844 838 843
3 844 840 838
3 844 737 732
3 844 732 840
3 848 847 846
3 846 847 842
3 841 846 842
3 849 846 841
3 740 849 735
3 735 849 841
3 845 850 844
3 737 844 850
3 851 737 850
3 742 737 851
3 852 848 846
3 746 853 745
3 853 846 745
3 846 849 745
3 853 852 846
3 745 849 740
3 851 854 742
3 742 854 748
3 748 855 749
3 854 855 748
3 749 856 750
3 855 856 749
3 746 750 853
3 853 750 856
3 857 758 759
3 761 857 759
3 858 762 857
3 857 762 758
3 763 859 761
3 859 857 761
3 859 858 857
3 764 859 763
3 858 765 762
3 765 858 767
3 858 860 767
3 858 859 860
3 768 861 764
3 861 859 764
3 861 860 859
3 769 861 768
3 862 770 860
3 860 770 767
3 863 860 861
3 862 860 863
3 771 863 769
3 769 863 861
3 862 772 770
3 772 862 773
3 862 864 773
3 862 863 864
3 774 865 771
3 865 863 771
3 865 864 863
3 776 865 774
3 866 778 864
3 864 778 773
3 867 864 865
3 866 864 867
3 779 867 776
3 776 867 865
3 866 780 778
3 780 866 782
3 866 868 782
3 866 867 868
3 783 868 779
3 779 868 867
3 868 784 782
3 784 868 783
3 871 870 869
3 870 872 869
3 870 871 873
3 873 871 874
3 872 870 875
3 870 876 875
3 870 873 876
3 876 877 875
3 873 874 878
3 878 874 879
3 873 880 876
3 873 878 880
3 877 876 881
3 881 876 880
3 879 882 878
3 884 883 882
3 883 878 882
3 883 880 878
3 881 880 885
3 880 886 885
3 880 883 886
3 886 887 885
3 883 884 888
3 888 884 889
3 883 890 886
3 883 888 890
3 887 886 891
3 891 886 890
3 888 889 892
3 892 889 893
3 892 786 787
3 890 892 787
3 888 892 890
3 894 891 890
3 787 894 890
3 788 894 787
3 788 789 894
3 894 789 895
3 892 893 896
3 896 893 897
3 896 791 786
3 896 786 892
3 793 895 789
3 793 898 895
3 896 897 899
3 899 897 900
3 899 795 791
3 899 791 896
3 797 898 793
3 797 901 898
3 899 900 902
3 902 900 903
3 902 799 795
3 902 795 899
3 904 901 797
3 904 797 801
3 801 802 904
3 904 802 905
3 903 906 902
3 906 908 907
3 906 907 803
3 902 906 803
3 799 902 803
3 907 805 803
3 806 905 802
3 806 909 905
3 907 908 910
3 910 908 911
3 910 808 805
3 910 805 907
3 912 909 806
3 912 806 809
3 809 810 912
3 912 810 913
3 910 911 914
3 914 911 915
3 914 812 808
3 914 808 910
3 813 913 810
3 813 916 913
3 914 915 816
3 915 815 816
3 915 917 815
3 914 816 812
3 813 818 918
3 919 813 918
3 916 813 919
3 819 918 818
3 917 821 815
3 920 821 917
3 919 918 921
3 919 921 922
3 825 921 819
3 819 921 918
3 920 827 821
3 923 827 920
3 922 921 924
3 922 924 925
3 830 926 825
3 926 921 825
3 926 924 921
3 831 926 830
3 923 927 827
3 827 927 832
3 834 832 927
3 834 927 928
3 925 924 929
3 925 929 930
3 931 924 926
3 929 924 931
3 837 931 831
3 831 931 926
3 928 839 834
3 932 839 928
3 933 930 929
3 935 934 933
3 929 935 933
3 931 935 929
3 842 935 837
3 837 935 931
3 932 936 839
3 839 936 843
3 845 843 936
3 845 936 937
3 934 935 847
3 848 934 847
3 938 934 848
3 847 935 842
3 937 939 845
3 845 939 850
3 851 850 939
3 851 939 940
3 848 852 941
3 942 848 941
3 938 848 942
3 853 941 852
3 940 943 851
3 851 943 854
3 854 944 855
3 943 944 854
3 941 856 942
3 856 944 942
3 856 855 944
3 856 941 853
3 945 871 869
3 872 945 869
3 946 874 945
3 945 874 871
3 875 947 872
3 947 945 872
3 947 946 945
3 877 947 875
3 948 879 946
3 946 879 874
3 947 950 949
3 948 947 949
3 946 947 948
3 947 877 950
3 877 951 950
3 877 881 951
3 948 882 879
3 884 882 948
3 949 884 948
3 952 884 949
3 881 885 953
3 954 881 953
3 951 881 954
3 887 953 885
3 952 889 884
3 955 889 952
3 956 954 953
3 953 887 956
3 887 957 956
3 887 891 957
3 955 893 889
3 958 893 955
3 891 894 959
3 960 891 959
3 957 891 960
3 895 959 894
3 958 897 893
3 961 897 958
3 960 959 962
3 960 962 963
3 898 962 895
3 895 962 959
3 961 900 897
3 964 900 961
3 965 963 962
3 962 898 965
3 898 966 965
3 898 901 966
3 964 903 900
3 967 903 964
3 901 904 968
3 969 901 968
3 966 901 969
3 905 968 904
3 906 903 970
3 903 971 970
3 903 967 971
3 970 908 906
3 972 969 968
3 968 905 972
3 905 973 972
3 905 909 973
3 971 974 970
3 908 970 974
3 975 908 974
3 911 908 975
3 909 912 976
3 977 909 976
3 973 909 977
3 913 976 912
3 975 915 911
3 978 915 975
3 977 976 979
3 977 979 980
3 916 979 913
3 913 979 976
3 978 917 915
3 981 917 978
3 980 979 982
3 980 982 983
3 919 982 916
3 916 982 979
3 981 920 917
3 984 920 981
3 983 982 985
3 983 985 986
3 922 985 919
3 919 985 982
3 984 923 920
3 987 923 984
3 986 985 988
3 986 988 989
3 925 988 922
3 922 988 985
3 987 990 923
3 923 990 927
3 928 927 990
3 928 990 991
3 992 989 988
3 988 925 992
3 925 993 992
3 925 930 993
3 991 932 928
3 994 932 991
3 930 933 995
3 996 930 995
3 993 930 996
3 934 995 933
3 994 997 932
3 932 997 936
3 937 936 997
3 937 997 998
3 996 995 999
3 996 999 1000
3 938 999 934
3 934 999 995
3 998 1001 937
3 937 1001 939
3 940 939 1001
3 940 1001 1002
3 1000 999 1003
3 1000 1003 1004
3 942 1003 938
3 938 1003 999
3 1002 1005 940
3 940 1005 943
3 1003 944 1004
3 944 1005 1004
3 944 943 1005
3 944 1003 942
3 1006 949 950
3 951 1006 950
3 1008 1007 1006
3 1007 949 1006
3 1007 952 949
3 1006 951 1008
3 951 1009 1008
3 951 954 1009
3 1007 955 952
3 1010 955 1007
3 954 956 1011
3 1012 954 1011
3 1009 954 1012
3 957 1011 956
3 1010 958 955
3 1013 958 1010
3 1014 1012 1011
3 1011 957 1014
3 957 1015 1014
3 957 960 1015
3 1013 961 958
3 1016 961 1013
3 963 1015 960
3 963 1017 1015
3 1016 964 961
3 1018 964 1016
3 963 965 1019
3 1020 963 1019
3 1017 963 1020
3 966 1019 965
3 1018 967 964
3 1021 967 1018
3 1020 1019 1022
3 1020 1022 1023
3 969 1022 966
3 966 1022 1019
3 1021 971 967
3 1024 971 1021
3 1023 1022 1025
3 1023 1025 1026
3 972 1027 969
3 1027 1022 969
3 1027 1025 1022
3 973 1027 972
3 974 971 1028
3 971 1029 1028
3 971 1024 1029
3 1028 975 974
3 1030 1026 1025
3 1032 1031 1030
3 1025 1032 1030
3 1027 1032 1025
3 977 1032 973
3 973 1032 1027
3 1029 1033 1028
3 975 1028 1033
3 1034 975 1033
3 978 975 1034
3 1031 1032 1035
3 1031 1035 1036
3 980 1035 977
3 977 1035 1032
3 1034 981 978
3 1037 981 1034
3 1036 1035 1038
3 1036 1038 1039
3 983 1038 980
3 980 1038 1035
3 1037 984 981
3 1040 984 1037
3 1039 1038 1041
3 1039 1041 1042
3 986 1041 983
3 983 1041 1038
3 1040 987 984
3 1043 987 1040
3 1044 1042 1041
3 1041 986 1044
3 986 1045 1044
3 986 989 1045
3 990 987 1046
3 987 1047 1046
3 987 1043 1047
3 1046 991 990
3 989 992 1048
3 1049 989 1048
3 1045 989 1049
3 993 1048 992
3 1047 1050 1046
3 991 1046 1050
3 1051 991 1050
3 994 991 1051
3 1049 1048 1052
3 1049 1052 1053
3 996 1052 993
3 993 1052 1048
3 997 994 1054
3 994 1055 1054
3 994 1051 1055
3 1054 998 997
3 1056 1053 1052
3 1052 996 1056
3 996 1057 1056
3 996 1000 1057
3 1055 1058 1054
3 1054 1058 998
3 1058 1001 998
3 1058 1059 1001
3 1002 1001 1059
3 1002 1059 1060
3 1004 1057 1000
3 1004 1061 1057
3 1060 1062 1002
3 1002 1062 1005
3 1004 1005 1061
3 1061 1005 1062
3 1063 1007 1008
3 1009 1063 1008
3 1064 1010 1063
3 1063 1010 1007
3 1012 1064 1009
3 1009 1064 1063
3 1066 1065 1064
3 1065 1010 1064
3 1065 1013 1010
3 1068 1066 1067
3 1067 1066 1014
3 1066 1064 1014
3 1064 1012 1014
3 1015 1067 1014
3 1065 1016 1013
3 1069 1016 1065
3 1068 1067 1070
3 1068 1070 1071
3 1017 1070 1015
3 1015 1070 1067
3 1069 1018 1016
3 1072 1018 1069
3 1071 1070 1073
3 1071 1073 1074
3 1020 1073 1017
3 1017 1073 1070
3 1072 1021 1018
3 1075 1021 1072
3 1076 1074 1073
3 1073 1020 1076
3 1020 1077 1076
3 1020 1023 1077
3 1075 1024 1021
3 1078 1024 1075
3 1026 1077 1023
3 1026 1079 1077
3 1078 1029 1024
3 1080 1029 1078
3 1026 1030 1081
3 1082 1026 1081
3 1079 1026 1082
3 1031 1081 1030
3 1033 1029 1083
3 1029 1084 1083
3 1029 1080 1084
3 1083 1034 1033
3 1082 1081 1085
3 1082 1085 1086
3 1036 1085 1031
3 1031 1085 1081
3 1084 1087 1083
3 1034 1083 1087
3 1088 1034 1087
3 1037 1034 1088
3 1089 1086 1085
3 1085 1036 1089
3 1036 1090 1089
3 1036 1039 1090
3 1088 1040 1037
3 1091 1040 1088
3 1042 1090 1039
3 1042 1092 1090
3 1091 1043 1040
3 1093 1043 1091
3 1042 1044 1094
3 1095 1042 1094
3 1092 1042 1095
3 1045 1094 1044
3 1093 1047 1043
3 1096 1047 1093
3 1095 1094 1097
3 1095 1097 1098
3 1049 1097 1045
3 1045 1097 1094
3 1096 1099 1047
3 1047 1099 1050
3 1051 1050 1099
3 1051 1099 1100
3 1101 1098 1097
3 1097 1049 1101
3 1049 1102 1101
3 1049 1053 1102
3 1104 1055 1103
3 1055 1100 1103
3 1055 1051 1100
3 1106 1105 1104
3 1106 1104 1103
3 1107 1105 1056
3 1105 1102 1056
3 1102 1053 1056
3 1102 1105 1106
3 1057 1107 1056
3 1104 1058 1055
3 1058 1104 1059
3 1059 1104 1105
3 1059 1105 1060
3 1105 1108 1060
3 1105 1107 1108
3 1061 1108 1057
3 1057 1108 1107
3 1108 1062 1060
3 1062 1108 1061
3 1109 1065 1066
3 1068 1109 1066
3 1110 1069 1109
3 1109 1069 1065
3 1071 1110 1068
3 1068 1110 1109
3 1111 1072 1110
3 1110 1072 1069
3 1074 1111 1071
3 1071 1111 1110
3 1112 1075 1111
3 1111 1075 1072
3 1076 1113 1074
3 1113 1111 1074
3 1113 1112 1111
3 1077 1113 1076
3 1114 1078 1112
3 1112 1078 1075
3 1115 1112 1113
3 1114 1112 1115
3 1079 1115 1077
3 1077 1115 1113
3 1116 1080 1114
3 1114 1080 1078
3 1117 1114 1115
3 1116 1114 1117
3 1082 1117 1079
3 1079 1117 1115
3 1118 1084 1116
3 1116 1084 1080
3 1119 1116 1117
3 1118 1116 1119
3 1086 1119 1082
3 1082 1119 1117
3 1118 1087 1084
3 1087 1118 1088
3 1118 1120 1088
3 1118 1119 1120
3 1089 1121 1086
3 1121 1119 1086
3 1121 1120 1119
3 1090 1121 1089
3 1122 1091 1120
3 1120 1091 1088
3 1123 1120 1121
3 1122 1120 1123
3 1092 1123 1090
3 1090 1123 1121
3 1124 1093 1122
3 1122 1093 1091
3 1125 1122 1123
3 1124 1122 1125
3 1095 1125 1092
3 1092 1125 1123
3 1126 1096 1124
3 1124 1096 1093
3 1127 1124 1125
3 1126 1124 1127
3 1098 1127 1095
3 1095 1127 1125
3 1126 1099 1096
3 1099 1126 1100
3 1126 1128 1100
3 1126 1127 1128
3 1101 1129 1098
3 1129 1127 1098
3 1129 1128 1127
3 1102 1129 1101
3 1128 1103 1100
3 1103 1128 1106
3 1106 1128 1129
3 1106 1129 1102
