ply
format ascii 1.0
element vertex 1364
property float x
property float y
property float z
element face 2724
property list uchar int vertex_indices
end_header
-8.70000 12.49999 5.50000
-9.20000 12.49999 5.00000
-9.20000 12.99999 5.50000
-9.20000 12.99999 6.50000
-8.70000 12.49999 6.50000
-9.20000 12.49999 7.00000
-8.70000 11.49999 4.50000
-9.20000 11.49999 4.00000
-9.20000 11.99999 4.50000
-8.70000 11.49999 5.50000
-8.70000 11.49999 6.50000
-9.20000 11.99999 7.50000
-8.70000 11.49999 7.50000
-9.20000 11.49999 8.00000
-8.70000 10.49999 4.50000
-9.20000 10.49999 4.00000
-8.70000 10.49999 5.50000
-8.70000 10.49999 6.50000
-8.70000 10.49999 7.50000
-9.20000 10.49999 8.00000
-8.70000 9.49999 4.50000
-9.20000 9.49999 4.00000
-8.70000 9.49999 5.50000
-8.70000 9.49999 6.50000
-9.20000 9.49999 7.00000
-9.20000 9.99999 7.50000
-8.70000 8.49999 4.50000
-9.20000 8.49999 4.00000
-8.70000 8.49999 5.50000
-8.70000 8.49999 6.50000
-9.20000 8.49999 7.00000
-9.20000 7.99999 4.50000
-9.20000 7.99999 5.50000
-9.20000 7.99999 6.50000
-9.70000 14.49999 5.50000
-10.20000 14.49999 5.00000
-10.20000 14.99999 5.50000
-10.20000 14.99999 6.50000
-9.70000 14.49999 6.50000
-10.20000 14.49999 7.00000
-9.70000 13.49999 4.50000
-10.20000 13.49999 4.00000
-10.20000 13.99999 4.50000
-9.70000 13.49999 5.50000
-9.70000 13.49999 6.50000
-10.20000 13.99999 7.50000
-9.70000 13.49999 7.50000
-10.20000 13.49999 8.00000
-9.70000 12.49999 4.50000
-10.20000 12.49999 4.00000
-9.70000 12.49999 7.50000
-10.20000 12.99999 8.50000
-9.70000 12.49999 8.50000
-10.20000 12.49999 9.00000
-9.70000 11.49999 3.50000
-10.20000 11.49999 3.00000
-10.20000 11.99999 3.50000
-9.70000 11.49999 8.50000
-10.20000 11.49999 9.00000
-9.70000 10.49999 3.50000
-10.20000 10.49999 3.00000
-9.70000 10.49999 8.50000
-10.20000 10.49999 9.00000
-9.70000 9.49999 2.50000
-10.20000 9.49999 2.00000
-10.20000 9.99999 2.50000
-9.70000 9.49999 3.50000
-9.70000 9.49999 7.50000
-9.70000 9.49999 8.50000
-10.20000 9.49999 9.00000
-9.70000 8.49999 2.50000
-10.20000 8.49999 2.00000
-9.70000 8.49999 3.50000
-9.70000 8.49999 7.50000
-9.70000 8.49999 8.50000
-10.20000 8.49999 9.00000
-9.70000 7.49999 2.50000
-10.20000 7.49999 2.00000
-9.70000 7.49999 3.50000
-9.70000 7.49999 4.50000
-9.70000 7.49999 5.50000
-9.70000 7.49999 6.50000
-9.70000 7.49999 7.50000
-10.20000 7.49999 8.00000
-10.20000 7.99999 8.50000
-10.20000 6.99999 2.50000
-9.70000 6.49999 3.50000
-10.20000 6.49999 3.00000
-9.70000 6.49999 4.50000
-9.70000 6.49999 5.50000
-9.70000 6.49999 6.50000
-10.20000 6.49999 7.00000
-10.20000 6.99999 7.50000
-10.20000 5.99999 3.50000
-10.20000 5.99999 4.50000
-10.20000 5.99999 5.50000
-10.20000 5.99999 6.50000
-10.70000 14.49999 4.50000
-11.20000 14.49999 4.00000
-11.20000 14.99999 4.50000
-11.20000 14.99999 5.50000
-11.20000 14.99999 6.50000
-11.20000 14.99999 7.50000
-10.70000 14.49999 7.50000
-11.20000 14.49999 8.00000
-10.70000 13.49999 3.50000
-11.20000 13.49999 3.00000
-11.20000 13.99999 3.50000
-11.20000 13.99999 8.50000
-10.70000 13.49999 8.50000
-11.20000 13.99999 9.50000
-10.70000 13.49999 9.50000
-11.20000 13.49999 10.00000
-10.70000 12.49999 3.50000
-11.20000 12.49999 3.00000
-10.70000 12.49999 9.50000
-11.20000 12.49999 10.00000
-11.20000 11.49999 3.00000
-10.70000 11.49999 9.50000
-11.20000 11.99999 10.50000
-10.70000 11.49999 10.50000
-11.20000 11.49999 11.00000
-10.70000 10.49999 2.50000
-11.20000 10.49999 2.00000
-11.20000 10.99999 2.50000
-10.70000 10.49999 9.50000
-10.70000 10.49999 10.50000
-11.20000 10.49999 11.00000
-11.20000 9.49999 2.00000
-10.70000 9.49999 9.50000
-10.70000 9.49999 10.50000
-11.20000 9.49999 11.00000
-11.20000 8.49999 2.00000
-10.70000 8.49999 9.50000
-11.20000 8.49999 10.00000
-11.20000 8.99999 10.50000
-11.20000 7.49999 2.00000
-10.70000 7.49999 8.50000
-11.20000 7.49999 9.00000
-11.20000 7.99999 9.50000
-10.70000 6.49999 2.50000
-11.20000 6.49999 2.00000
-10.70000 6.49999 7.50000
-10.70000 6.49999 8.50000
-11.20000 6.49999 9.00000
-11.20000 5.99999 2.50000
-10.70000 5.49999 3.50000
-11.20000 5.49999 3.00000
-10.70000 5.49999 4.50000
-10.70000 5.49999 5.50000
-10.70000 5.49999 6.50000
-10.70000 5.49999 7.50000
-11.20000 5.49999 8.00000
-11.20000 5.99999 8.50000
-11.20000 4.99999 3.50000
-11.20000 4.99999 4.50000
-11.20000 4.99999 5.50000
-11.20000 4.99999 6.50000
-11.20000 4.99999 7.50000
-11.70000 15.49999 4.50000
-12.20000 15.49999 4.00000
-12.20000 15.99999 4.50000
-12.20000 15.99999 5.50000
-11.70000 15.49999 5.50000
-12.20000 15.99999 6.50000
-11.70000 15.49999 6.50000
-12.20000 15.99999 7.50000
-11.70000 15.49999 7.50000
-12.20000 15.49999 8.00000
-11.70000 14.49999 3.50000
-12.20000 14.49999 3.00000
-12.20000 14.99999 3.50000
-12.20000 14.99999 8.50000
-11.70000 14.49999 8.50000
-12.20000 14.49999 9.00000
-12.20000 13.49999 3.00000
-12.20000 13.99999 9.50000
-12.20000 13.49999 10.00000
-11.70000 12.49999 2.50000
-12.20000 12.49999 2.00000
-12.20000 12.99999 2.50000
-12.20000 12.99999 10.50000
-11.70000 12.49999 10.50000
-12.20000 12.49999 11.00000
-11.70000 11.49999 2.50000
-12.20000 11.49999 2.00000
-12.20000 11.99999 11.50000
-11.70000 11.49999 11.50000
-12.20000 11.49999 12.00000
-12.20000 10.49999 2.00000
-11.70000 10.49999 11.50000
-12.20000 10.49999 12.00000
-12.20000 9.49999 2.00000
-11.70000 9.49999 11.50000
-12.20000 9.49999 12.00000
-12.20000 8.49999 2.00000
-11.70000 8.49999 10.50000
-11.70000 8.49999 11.50000
-12.20000 8.49999 12.00000
-11.70000 7.49999 1.50000
-12.20000 7.49999 1.00000
-12.20000 7.99999 1.50000
-11.70000 7.49999 9.50000
-11.70000 7.49999 10.50000
-12.20000 7.49999 11.00000
-12.20000 7.99999 11.50000
-11.70000 6.49999 1.50000
-12.20000 6.49999 1.00000
-11.70000 6.49999 9.50000
-12.20000 6.49999 10.00000
-12.20000 6.99999 10.50000
-12.20000 5.99999 1.50000
-11.70000 5.49999 2.50000
-12.20000 5.49999 2.00000
-11.70000 5.49999 8.50000
-12.20000 5.49999 9.00000
-12.20000 5.99999 9.50000
-12.20000 4.99999 2.50000
-11.70000 4.49999 3.50000
-12.20000 4.49999 3.00000
-11.70000 4.49999 4.50000
-11.70000 4.49999 5.50000
-11.70000 4.49999 6.50000
-12.20000 4.49999 7.00000
-12.20000 4.99999 7.50000
-12.20000 4.99999 8.50000
-12.20000 3.99999 3.50000
-12.20000 3.99999 4.50000
-12.20000 3.99999 5.50000
-12.20000 3.99999 6.50000
-13.20000 15.49999 4.00000
-13.20000 15.99999 4.50000
-13.20000 15.99999 5.50000
-13.20000 15.99999 6.50000
-13.20000 15.99999 7.50000
-13.20000 15.99999 8.50000
-12.70000 15.49999 8.50000
-13.20000 15.49999 9.00000
-13.20000 14.49999 3.00000
-13.20000 14.99999 3.50000
-13.20000 14.99999 9.50000
-12.70000 14.49999 9.50000
-13.20000 14.49999 10.00000
-12.70000 13.49999 2.50000
-13.20000 13.49999 2.00000
-13.20000 13.99999 2.50000
-13.20000 13.99999 10.50000
-12.70000 13.49999 10.50000
-13.20000 13.49999 11.00000
-13.20000 12.49999 2.00000
-13.20000 12.99999 11.50000
-12.70000 12.49999 11.50000
-13.20000 12.49999 12.00000
-13.20000 11.49999 2.00000
-13.20000 11.99999 12.50000
-12.70000 11.49999 12.50000
-13.20000 11.49999 13.00000
-13.20000 10.49999 2.00000
-12.70000 10.49999 12.50000
-13.20000 10.49999 13.00000
-13.20000 9.49999 2.00000
-12.70000 9.49999 12.50000
-13.20000 9.49999 13.00000
-13.20000 8.49999 2.00000
-12.70000 8.49999 12.50000
-13.20000 8.49999 13.00000
-13.20000 7.49999 1.00000
-13.20000 7.99999 1.50000
-12.70000 7.49999 11.50000
-13.20000 7.49999 12.00000
-13.20000 7.99999 12.50000
-13.20000 6.49999 1.00000
-12.70000 6.49999 10.50000
-13.20000 6.49999 11.00000
-13.20000 6.99999 11.50000
-13.20000 5.99999 1.50000
-13.20000 5.49999 2.00000
-12.70000 5.49999 9.50000
-13.20000 5.49999 10.00000
-13.20000 5.99999 10.50000
-12.70000 4.49999 2.50000
-13.20000 4.49999 2.00000
-12.70000 4.49999 7.50000
-12.70000 4.49999 8.50000
-13.20000 4.49999 9.00000
-13.20000 4.99999 9.50000
-13.20000 3.99999 2.50000
-13.20000 3.99999 3.50000
-12.70000 3.49999 4.50000
-13.20000 3.49999 4.00000
-12.70000 3.49999 5.50000
-12.70000 3.49999 6.50000
-13.20000 3.49999 7.00000
-13.20000 3.99999 7.50000
-13.20000 3.99999 8.50000
-13.20000 2.99999 4.50000
-13.20000 2.99999 5.50000
-13.20000 2.99999 6.50000
-13.70000 15.49999 4.50000
-14.20000 15.49999 5.00000
-14.20000 15.99999 5.50000
-14.20000 15.99999 6.50000
-14.20000 15.99999 7.50000
-14.20000 15.99999 8.50000
-14.20000 15.49999 9.00000
-13.70000 14.49999 3.50000
-14.20000 14.49999 4.00000
-14.20000 14.99999 4.50000
-14.20000 14.99999 9.50000
-14.20000 14.99999 10.50000
-13.70000 14.49999 10.50000
-14.20000 14.49999 11.00000
-14.20000 13.49999 2.00000
-14.20000 13.99999 2.50000
-14.20000 13.99999 3.50000
-14.20000 13.99999 11.50000
-13.70000 13.49999 11.50000
-14.20000 13.49999 12.00000
-13.70000 12.49999 1.50000
-14.20000 12.49999 1.00000
-14.20000 12.99999 1.50000
-14.20000 12.99999 12.50000
-13.70000 12.49999 12.50000
-14.20000 12.49999 13.00000
-14.20000 11.99999 1.50000
-14.20000 11.49999 2.00000
-14.20000 11.99999 13.50000
-13.70000 11.49999 13.50000
-14.20000 11.49999 14.00000
-14.20000 10.49999 2.00000
-13.70000 10.49999 13.50000
-14.20000 10.49999 14.00000
-14.20000 9.49999 2.00000
-13.70000 9.49999 13.50000
-14.20000 9.49999 14.00000
-14.20000 8.49999 2.00000
-13.70000 8.49999 13.50000
-14.20000 8.49999 14.00000
-13.70000 7.49999 1.50000
-14.20000 7.49999 2.00000
-13.70000 7.49999 12.50000
-14.20000 7.49999 13.00000
-14.20000 7.99999 13.50000
-14.20000 6.49999 1.00000
-14.20000 6.99999 1.50000
-13.70000 6.49999 11.50000
-14.20000 6.49999 12.00000
-14.20000 6.99999 12.50000
-14.20000 5.99999 1.50000
-14.20000 5.49999 2.00000
-13.70000 5.49999 10.50000
-14.20000 5.49999 11.00000
-14.20000 5.99999 11.50000
-14.20000 4.49999 2.00000
-13.70000 4.49999 9.50000
-14.20000 4.49999 10.00000
-14.20000 4.99999 10.50000
-14.20000 3.99999 2.50000
-13.70000 3.49999 3.50000
-14.20000 3.49999 3.00000
-13.70000 3.49999 7.50000
-13.70000 3.49999 8.50000
-14.20000 3.49999 9.00000
-14.20000 3.99999 9.50000
-14.20000 2.99999 3.50000
-14.20000 2.99999 4.50000
-14.20000 2.99999 5.50000
-14.20000 2.99999 6.50000
-14.20000 2.99999 7.50000
-14.20000 2.99999 8.50000
-14.70000 15.49999 5.50000
-14.70000 15.49999 6.50000
-15.20000 15.49999 7.00000
-15.20000 15.99999 7.50000
-15.20000 15.99999 8.50000
-15.20000 15.99999 9.50000
-14.70000 15.49999 9.50000
-15.20000 15.49999 10.00000
-14.70000 14.49999 4.50000
-15.20000 14.49999 5.00000
-15.20000 14.99999 5.50000
-15.20000 14.99999 6.50000
-15.20000 14.99999 10.50000
-15.20000 14.99999 11.50000
-14.70000 14.49999 11.50000
-15.20000 14.49999 12.00000
-14.70000 13.49999 2.50000
-14.70000 13.49999 3.50000
-15.20000 13.49999 4.00000
-15.20000 13.99999 4.50000
-15.20000 13.99999 12.50000
-14.70000 13.49999 12.50000
-15.20000 13.49999 13.00000
-14.70000 12.49999 1.50000
-15.20000 12.49999 2.00000
-15.20000 12.99999 2.50000
-15.20000 12.99999 3.50000
-15.20000 12.99999 13.50000
-14.70000 12.49999 13.50000
-15.20000 12.49999 14.00000
-15.20000 11.49999 1.00000
-14.70000 11.49999 1.50000
-15.20000 11.99999 1.50000
-15.20000 11.49999 14.00000
-15.20000 10.99999 1.50000
-15.20000 10.49999 2.00000
-15.20000 10.99999 14.50000
-14.70000 10.49999 14.50000
-15.20000 10.49999 15.00000
-15.20000 9.49999 2.00000
-14.70000 9.49999 14.50000
-15.20000 9.49999 15.00000
-15.20000 8.49999 2.00000
-15.20000 8.99999 14.50000
-15.20000 8.49999 14.00000
-15.20000 7.49999 2.00000
-14.70000 7.49999 13.50000
-15.20000 7.49999 14.00000
-14.70000 6.49999 1.50000
-15.20000 6.49999 2.00000
-14.70000 6.49999 12.50000
-15.20000 6.49999 13.00000
-15.20000 6.99999 13.50000
-15.20000 5.49999 2.00000
-14.70000 5.49999 11.50000
-15.20000 5.49999 12.00000
-15.20000 5.99999 12.50000
-15.20000 4.49999 2.00000
-14.70000 4.49999 10.50000
-15.20000 4.49999 11.00000
-15.20000 4.99999 11.50000
-15.20000 3.99999 2.50000
-15.20000 3.49999 3.00000
-14.70000 3.49999 9.50000
-15.20000 3.49999 10.00000
-15.20000 3.99999 10.50000
-15.20000 2.99999 3.50000
-14.70000 2.49999 4.50000
-15.20000 2.49999 4.00000
-14.70000 2.49999 5.50000
-14.70000 2.49999 6.50000
-14.70000 2.49999 7.50000
-15.20000 2.49999 8.00000
-15.20000 2.99999 8.50000
-15.20000 2.99999 9.50000
-15.20000 1.99999 4.50000
-15.20000 1.99999 5.50000
-15.20000 1.99999 6.50000
-15.20000 1.99999 7.50000
-15.70000 15.49999 7.50000
-15.70000 15.49999 8.50000
-16.20000 15.49999 9.00000
-16.20000 15.99999 9.50000
-16.20000 15.99999 10.50000
-15.70000 15.49999 10.50000
-16.20000 15.49999 11.00000
-15.70000 14.49999 5.50000
-16.20000 14.49999 6.00000
-16.20000 14.99999 6.50000
-16.20000 14.99999 7.50000
-16.20000 14.99999 8.50000
-16.20000 14.99999 11.50000
-16.20000 14.99999 12.50000
-15.70000 14.49999 12.50000
-16.20000 14.49999 13.00000
-16.20000 13.49999 4.00000
-16.20000 13.99999 4.50000
-16.20000 13.99999 5.50000
-16.20000 13.49999 13.00000
-15.70000 12.49999 2.50000
-16.20000 12.49999 3.00000
-16.20000 12.99999 3.50000
-16.20000 12.99999 13.50000
-16.20000 12.49999 14.00000
-16.20000 11.49999 1.00000
-16.20000 11.99999 1.50000
-16.20000 11.99999 2.50000
-16.20000 11.99999 14.50000
-15.70000 11.49999 14.50000
-16.20000 11.49999 15.00000
-16.20000 10.99999 1.50000
-16.20000 10.49999 2.00000
-16.20000 10.49999 15.00000
-16.20000 9.49999 2.00000
-16.20000 9.49999 15.00000
-16.20000 8.49999 2.00000
-15.70000 8.49999 14.50000
-16.20000 8.49999 15.00000
-16.20000 7.49999 2.00000
-15.70000 7.49999 14.50000
-16.20000 7.49999 15.00000
-16.20000 6.49999 2.00000
-15.70000 6.49999 13.50000
-16.20000 6.49999 14.00000
-16.20000 6.99999 14.50000
-16.20000 5.49999 2.00000
-15.70000 5.49999 12.50000
-15.70000 5.49999 13.50000
-16.20000 5.49999 14.00000
-16.20000 4.49999 2.00000
-15.70000 4.49999 11.50000
-16.20000 4.49999 12.00000
-16.20000 4.99999 12.50000
-16.20000 4.99999 13.50000
-15.70000 3.49999 2.50000
-16.20000 3.49999 2.00000
-15.70000 3.49999 10.50000
-16.20000 3.49999 11.00000
-16.20000 3.99999 11.50000
-16.20000 2.99999 2.50000
-15.70000 2.49999 3.50000
-16.20000 2.49999 3.00000
-15.70000 2.49999 8.50000
-15.70000 2.49999 9.50000
-16.20000 2.49999 10.00000
-16.20000 2.99999 10.50000
-16.20000 1.99999 3.50000
-15.70000 1.49999 4.50000
-16.20000 1.49999 4.00000
-15.70000 1.49999 5.50000
-15.70000 1.49999 6.50000
-15.70000 1.49999 7.50000
-16.20000 1.49999 8.00000
-16.20000 1.99999 8.50000
-16.20000 1.99999 9.50000
-16.20000 0.99999 4.50000
-16.20000 0.99999 5.50000
-16.20000 0.99999 6.50000
-16.20000 0.99999 7.50000
-16.70000 15.49999 9.50000
-16.70000 15.49999 10.50000
-16.70000 14.49999 6.50000
-16.70000 14.49999 7.50000
-17.20000 14.49999 8.00000
-17.20000 14.99999 8.50000
-17.20000 14.99999 9.50000
-17.20000 14.49999 10.00000
-16.70000 14.49999 10.50000
-16.70000 14.49999 11.50000
-16.70000 14.49999 12.50000
-16.70000 13.49999 4.50000
-17.20000 13.49999 5.00000
-17.20000 13.99999 5.50000
-17.20000 13.99999 6.50000
-17.20000 13.99999 7.50000
-17.20000 13.99999 10.50000
-17.20000 13.99999 11.50000
-17.20000 13.99999 12.50000
-17.20000 13.99999 13.50000
-16.70000 13.49999 13.50000
-17.20000 13.49999 14.00000
-16.70000 12.49999 3.50000
-17.20000 12.49999 4.00000
-17.20000 12.99999 4.50000
-17.20000 12.99999 14.50000
-16.70000 12.49999 14.50000
-17.20000 12.49999 15.00000
-16.70000 11.49999 1.50000
-17.20000 11.49999 2.00000
-17.20000 11.99999 2.50000
-17.20000 11.99999 3.50000
-17.20000 11.49999 15.00000
-17.20000 10.49999 2.00000
-17.20000 10.49999 15.00000
-17.20000 9.49999 2.00000
-17.20000 9.49999 15.00000
-17.20000 8.49999 2.00000
-17.20000 8.99999 15.50000
-16.70000 8.49999 15.50000
-17.20000 8.49999 16.00000
-17.20000 7.49999 2.00000
-16.70000 7.49999 15.50000
-17.20000 7.49999 16.00000
-17.20000 6.49999 2.00000
-16.70000 6.49999 14.50000
-16.70000 6.49999 15.50000
-17.20000 6.49999 16.00000
-17.20000 5.49999 2.00000
-16.70000 5.49999 14.50000
-17.20000 5.49999 15.00000
-17.20000 5.99999 15.50000
-17.20000 4.49999 2.00000
-16.70000 4.49999 12.50000
-16.70000 4.49999 13.50000
-16.70000 4.49999 14.50000
-17.20000 4.49999 15.00000
-17.20000 3.49999 2.00000
-16.70000 3.49999 11.50000
-16.70000 3.49999 12.50000
-17.20000 3.49999 13.00000
-17.20000 3.99999 13.50000
-17.20000 3.99999 14.50000
-17.20000 2.99999 2.50000
-17.20000 2.49999 3.00000
-16.70000 2.49999 10.50000
-17.20000 2.49999 11.00000
-17.20000 2.99999 11.50000
-17.20000 2.99999 12.50000
-16.70000 1.49999 3.50000
-17.20000 1.49999 3.00000
-16.70000 1.49999 8.50000
-17.20000 1.49999 9.00000
-17.20000 1.99999 9.50000
-17.20000 1.99999 10.50000
-17.20000 0.99999 3.50000
-16.70000 0.49999 4.50000
-17.20000 0.49999 4.00000
-16.70000 0.49999 5.50000
-16.70000 0.49999 6.50000
-16.70000 0.49999 7.50000
-17.20000 0.49999 8.00000
-17.20000 0.99999 8.50000
-17.20000 -0.00001 4.50000
-17.20000 -0.00001 5.50000
-17.20000 -0.00001 6.50000
-17.20000 -0.00001 7.50000
-17.70000 14.49999 8.50000
-17.70000 14.49999 9.50000
-17.70000 13.49999 5.50000
-17.70000 13.49999 6.50000
-17.70000 13.49999 7.50000
-17.70000 13.49999 8.50000
-17.70000 13.49999 9.50000
-17.70000 13.49999 10.50000
-17.70000 13.49999 11.50000
-17.70000 13.49999 12.50000
-17.70000 13.49999 13.50000
-17.70000 12.49999 4.50000
-18.20000 12.49999 5.00000
-18.20000 12.99999 5.50000
-18.20000 12.99999 6.50000
-18.20000 12.99999 7.50000
-18.20000 12.99999 8.50000
-18.20000 12.99999 9.50000
-18.20000 12.99999 10.50000
-18.20000 12.99999 11.50000
-18.20000 12.99999 12.50000
-18.20000 12.99999 13.50000
-17.70000 12.49999 14.50000
-18.20000 12.49999 14.00000
-17.70000 11.49999 2.50000
-18.20000 11.49999 3.00000
-18.20000 11.99999 3.50000
-18.20000 11.99999 4.50000
-18.20000 11.99999 14.50000
-18.20000 11.99999 15.50000
-17.70000 11.49999 15.50000
-18.20000 11.49999 16.00000
-18.20000 10.49999 2.00000
-18.20000 10.99999 2.50000
-17.70000 10.49999 15.50000
-18.20000 10.49999 16.00000
-18.20000 9.49999 2.00000
-17.70000 9.49999 15.50000
-18.20000 9.49999 16.00000
-18.20000 8.49999 2.00000
-18.20000 8.49999 16.00000
-18.20000 7.99999 2.50000
-17.70000 7.49999 2.50000
-18.20000 7.49999 3.00000
-18.20000 7.49999 16.00000
-17.70000 6.49999 2.50000
-18.20000 6.49999 3.00000
-18.20000 6.49999 16.00000
-17.70000 5.49999 2.50000
-18.20000 5.49999 3.00000
-17.70000 5.49999 15.50000
-18.20000 5.49999 16.00000
-17.70000 4.49999 2.50000
-18.20000 4.49999 3.00000
-17.70000 4.49999 15.50000
-18.20000 4.49999 16.00000
-18.20000 3.49999 2.00000
-18.20000 3.99999 2.50000
-17.70000 3.49999 13.50000
-17.70000 3.49999 14.50000
-17.70000 3.49999 15.50000
-18.20000 3.49999 16.00000
-17.70000 2.49999 2.50000
-18.20000 2.49999 2.00000
-17.70000 2.49999 11.50000
-18.20000 2.49999 12.00000
-18.20000 2.99999 12.50000
-18.20000 2.99999 13.50000
-18.20000 2.99999 14.50000
-18.20000 2.99999 15.50000
-18.20000 1.99999 2.50000
-18.20000 1.49999 3.00000
-17.70000 1.49999 9.50000
-17.70000 1.49999 10.50000
-18.20000 1.49999 11.00000
-18.20000 1.99999 11.50000
-17.70000 0.49999 3.50000
-18.20000 0.49999 3.00000
-17.70000 0.49999 8.50000
-17.70000 0.49999 9.50000
-18.20000 0.49999 10.00000
-18.20000 0.99999 10.50000
-18.20000 -0.00001 3.50000
-17.70000 -0.50001 4.50000
-18.20000 -0.50001 4.00000
-17.70000 -0.50001 5.50000
-17.70000 -0.50001 6.50000
-17.70000 -0.50001 7.50000
-17.70000 -0.50001 8.50000
-18.20000 -0.50001 9.00000
-18.20000 -0.00001 9.50000
-18.20000 -1.00001 4.50000
-17.70000 -1.50001 5.50000
-18.20000 -1.50001 5.00000
-17.70000 -1.50001 6.50000
-18.20000 -1.50001 7.00000
-18.20000 -1.00001 7.50000
-18.20000 -1.00001 8.50000
-18.20000 -2.00001 5.50000
-18.20000 -2.00001 6.50000
-18.70000 12.49999 5.50000
-18.70000 12.49999 6.50000
-18.70000 12.49999 7.50000
-18.70000 12.49999 8.50000
-18.70000 12.49999 9.50000
-18.70000 12.49999 10.50000
-18.70000 12.49999 11.50000
-18.70000 12.49999 12.50000
-18.70000 12.49999 13.50000
-18.70000 11.49999 3.50000
-19.20000 11.49999 4.00000
-19.20000 11.99999 4.50000
-19.20000 11.99999 5.50000
-19.20000 11.99999 6.50000
-19.20000 11.99999 7.50000
-19.20000 11.99999 8.50000
-19.20000 11.99999 9.50000
-19.20000 11.99999 10.50000
-19.20000 11.99999 11.50000
-19.20000 11.49999 12.00000
-18.70000 11.49999 12.50000
-18.70000 11.49999 13.50000
-18.70000 11.49999 14.50000
-18.70000 11.49999 15.50000
-19.20000 10.49999 2.00000
-19.20000 10.99999 2.50000
-19.20000 10.99999 3.50000
-19.20000 10.99999 12.50000
-19.20000 10.99999 13.50000
-19.20000 10.49999 14.00000
-18.70000 10.49999 14.50000
-18.70000 10.49999 15.50000
-19.20000 9.49999 2.00000
-19.20000 9.99999 14.50000
-19.20000 9.49999 15.00000
-18.70000 9.49999 15.50000
-19.20000 8.49999 2.00000
-18.70000 8.49999 15.50000
-19.20000 8.49999 15.00000
-19.20000 7.99999 2.50000
-19.20000 7.49999 3.00000
-19.20000 7.99999 15.50000
-19.20000 7.99999 16.50000
-18.70000 7.49999 16.50000
-19.20000 7.49999 17.00000
-19.20000 6.49999 3.00000
-18.70000 6.49999 16.50000
-19.20000 6.49999 17.00000
-19.20000 5.49999 3.00000
-19.20000 5.99999 16.50000
-19.20000 5.49999 16.00000
-19.20000 4.49999 3.00000
-19.20000 4.49999 16.00000
-18.70000 3.49999 2.50000
-19.20000 3.49999 3.00000
-19.20000 3.49999 16.00000
-19.20000 2.49999 2.00000
-19.20000 2.99999 2.50000
-18.70000 2.49999 12.50000
-18.70000 2.49999 13.50000
-18.70000 2.49999 14.50000
-18.70000 2.49999 15.50000
-19.20000 2.49999 16.00000
-19.20000 1.99999 2.50000
-19.20000 1.49999 3.00000
-18.70000 1.49999 11.50000
-18.70000 1.49999 12.50000
-18.70000 1.49999 13.50000
-19.20000 1.49999 14.00000
-19.20000 1.99999 14.50000
-19.20000 1.99999 15.50000
-19.20000 0.49999 3.00000
-18.70000 0.49999 10.50000
-18.70000 0.49999 11.50000
-19.20000 0.49999 12.00000
-19.20000 0.99999 12.50000
-19.20000 0.99999 13.50000
-18.70000 -0.50001 3.50000
-19.20000 -0.50001 3.00000
-18.70000 -0.50001 9.50000
-18.70000 -0.50001 10.50000
-19.20000 -0.50001 11.00000
-19.20000 -0.00001 11.50000
-19.20000 -1.00001 3.50000
-18.70000 -1.50001 4.50000
-19.20000 -1.50001 4.00000
-18.70000 -1.50001 7.50000
-18.70000 -1.50001 8.50000
-18.70000 -1.50001 9.50000
-19.20000 -1.50001 10.00000
-19.20000 -1.00001 10.50000
-19.20000 -2.00001 4.50000
-18.70000 -2.50001 5.50000
-19.20000 -2.50001 5.00000
-18.70000 -2.50001 6.50000
-18.70000 -2.50001 7.50000
-19.20000 -2.50001 8.00000
-19.20000 -2.00001 8.50000
-19.20000 -2.00001 9.50000
-19.20000 -3.00001 5.50000
-18.70000 -3.50001 6.50000
-19.20000 -3.50001 6.00000
-18.70000 -3.50001 7.50000
-19.20000 -3.50001 8.00000
-19.20000 -4.00001 6.50000
-19.20000 -4.00001 7.50000
-19.70000 11.49999 4.50000
-19.70000 11.49999 5.50000
-19.70000 11.49999 6.50000
-19.70000 11.49999 7.50000
-19.70000 11.49999 8.50000
-19.70000 11.49999 9.50000
-19.70000 11.49999 10.50000
-19.70000 11.49999 11.50000
-19.70000 10.49999 2.50000
-19.70000 10.49999 3.50000
-19.70000 10.49999 4.50000
-20.20000 10.49999 5.00000
-20.20000 10.99999 5.50000
-20.20000 10.99999 6.50000
-20.20000 10.99999 7.50000
-20.20000 10.99999 8.50000
-20.20000 10.99999 9.50000
-20.20000 10.49999 10.00000
-19.70000 10.49999 10.50000
-19.70000 10.49999 11.50000
-19.70000 10.49999 12.50000
-19.70000 10.49999 13.50000
-20.20000 9.49999 2.00000
-20.20000 9.99999 2.50000
-20.20000 9.99999 3.50000
-20.20000 9.99999 4.50000
-20.20000 9.99999 10.50000
-20.20000 9.99999 11.50000
-20.20000 9.99999 12.50000
-20.20000 9.49999 13.00000
-19.70000 9.49999 13.50000
-19.70000 9.49999 14.50000
-20.20000 8.49999 2.00000
-20.20000 8.99999 13.50000
-20.20000 8.49999 14.00000
-19.70000 8.49999 14.50000
-19.70000 7.49999 2.50000
-20.20000 7.49999 2.00000
-20.20000 7.99999 14.50000
-19.70000 7.49999 15.50000
-20.20000 7.49999 15.00000
-19.70000 7.49999 16.50000
-20.20000 6.99999 2.50000
-20.20000 6.49999 3.00000
-20.20000 6.99999 15.50000
-20.20000 6.49999 16.00000
-19.70000 6.49999 16.50000
-20.20000 5.99999 3.50000
-19.70000 5.49999 3.50000
-20.20000 5.49999 4.00000
-19.70000 5.49999 16.50000
-20.20000 5.99999 16.50000
-20.20000 5.49999 17.00000
-19.70000 4.49999 3.50000
-20.20000 4.49999 4.00000
-19.70000 4.49999 16.50000
-20.20000 4.49999 17.00000
-20.20000 3.49999 3.00000
-20.20000 3.99999 3.50000
-19.70000 3.49999 16.50000
-20.20000 3.49999 17.00000
-19.70000 2.49999 2.50000
-20.20000 2.49999 3.00000
-20.20000 2.99999 16.50000
-20.20000 2.49999 16.00000
-20.20000 1.49999 3.00000
-19.70000 1.49999 14.50000
-20.20000 1.49999 15.00000
-20.20000 1.99999 15.50000
-20.20000 0.49999 3.00000
-19.70000 0.49999 12.50000
-19.70000 0.49999 13.50000
-19.70000 0.49999 14.50000
-20.20000 0.49999 15.00000
-20.20000 -0.50001 3.00000
-19.70000 -0.50001 11.50000
-19.70000 -0.50001 12.50000
-19.70000 -0.50001 13.50000
-20.20000 -0.50001 14.00000
-20.20000 -0.00001 14.50000
-20.20000 -1.00001 3.50000
-20.20000 -1.50001 4.00000
-19.70000 -1.50001 10.50000
-19.70000 -1.50001 11.50000
-19.70000 -1.50001 12.50000
-20.20000 -1.50001 13.00000
-20.20000 -1.00001 13.50000
-19.70000 -2.50001 4.50000
-20.20000 -2.50001 4.00000
-19.70000 -2.50001 8.50000
-19.70000 -2.50001 9.50000
-19.70000 -2.50001 10.50000
-20.20000 -2.50001 11.00000
-20.20000 -2.00001 11.50000
-20.20000 -2.00001 12.50000
-20.20000 -3.00001 4.50000
-19.70000 -3.50001 5.50000
-20.20000 -3.50001 5.00000
-19.70000 -3.50001 8.50000
-20.20000 -3.50001 9.00000
-20.20000 -3.00001 9.50000
-20.20000 -3.00001 10.50000
-20.20000 -4.00001 5.50000
-20.20000 -4.00001 6.50000
-19.70000 -4.50001 7.50000
-20.20000 -4.50001 7.00000
-20.20000 -4.50001 8.00000
-20.20000 -4.00001 8.50000
-20.20000 -5.00001 7.50000
-20.70000 10.49999 5.50000
-20.70000 10.49999 6.50000
-20.70000 10.49999 7.50000
-20.70000 10.49999 8.50000
-20.70000 10.49999 9.50000
-21.20000 9.49999 2.00000
-21.20000 9.99999 2.50000
-21.20000 9.99999 3.50000
-21.20000 9.99999 4.50000
-21.20000 9.99999 5.50000
-21.20000 9.99999 6.50000
-21.20000 9.49999 7.00000
-20.70000 9.49999 7.50000
-20.70000 9.49999 8.50000
-20.70000 9.49999 9.50000
-20.70000 9.49999 10.50000
-20.70000 9.49999 11.50000
-20.70000 9.49999 12.50000
-21.20000 8.49999 2.00000
-21.20000 8.99999 7.50000
-21.20000 8.99999 8.50000
-21.20000 8.99999 9.50000
-21.20000 8.99999 10.50000
-21.20000 8.49999 11.00000
-20.70000 8.49999 11.50000
-20.70000 8.49999 12.50000
-20.70000 8.49999 13.50000
-21.20000 7.99999 2.50000
-20.70000 7.49999 2.50000
-21.20000 7.49999 3.00000
-21.20000 7.99999 11.50000
-21.20000 7.99999 12.50000
-21.20000 7.49999 13.00000
-20.70000 7.49999 13.50000
-20.70000 7.49999 14.50000
-21.20000 6.49999 3.00000
-21.20000 6.99999 13.50000
-21.20000 6.49999 14.00000
-20.70000 6.49999 14.50000
-20.70000 6.49999 15.50000
-21.20000 5.99999 3.50000
-21.20000 5.49999 4.00000
-21.20000 5.99999 14.50000
-21.20000 5.49999 15.00000
-20.70000 5.49999 15.50000
-20.70000 5.49999 16.50000
-21.20000 4.49999 4.00000
-21.20000 4.99999 15.50000
-21.20000 4.49999 16.00000
-20.70000 4.49999 16.50000
-21.20000 3.49999 3.00000
-21.20000 3.99999 3.50000
-20.70000 3.49999 16.50000
-21.20000 3.49999 16.00000
-21.20000 2.49999 3.00000
-21.20000 2.49999 16.00000
-21.20000 1.49999 3.00000
-20.70000 1.49999 15.50000
-21.20000 1.49999 16.00000
-21.20000 0.49999 3.00000
-21.20000 0.99999 15.50000
-21.20000 0.49999 15.00000
-21.20000 -0.50001 3.00000
-20.70000 -0.50001 14.50000
-21.20000 -0.50001 15.00000
-21.20000 -1.00001 3.50000
-21.20000 -1.50001 4.00000
-20.70000 -1.50001 13.50000
-21.20000 -1.50001 14.00000
-21.20000 -1.00001 14.50000
-21.20000 -2.50001 4.00000
-20.70000 -2.50001 11.50000
-20.70000 -2.50001 12.50000
-21.20000 -2.50001 13.00000
-21.20000 -2.00001 13.50000
-21.20000 -3.00001 4.50000
-21.20000 -3.50001 5.00000
-20.70000 -3.50001 9.50000
-20.70000 -3.50001 10.50000
-20.70000 -3.50001 11.50000
-21.20000 -3.50001 12.00000
-21.20000 -3.00001 12.50000
-21.20000 -4.00001 5.50000
-20.70000 -4.50001 6.50000
-21.20000 -4.50001 6.00000
-20.70000 -4.50001 8.50000
-20.70000 -4.50001 9.50000
-21.20000 -4.50001 10.00000
-21.20000 -4.00001 10.50000
-21.20000 -4.00001 11.50000
-21.20000 -5.00001 6.50000
-21.20000 -5.00001 7.50000
-21.20000 -5.00001 8.50000
-21.20000 -5.00001 9.50000
-21.70000 9.49999 2.50000
-21.70000 9.49999 3.50000
-21.70000 9.49999 4.50000
-21.70000 9.49999 5.50000
-21.70000 9.49999 6.50000
-22.20000 8.49999 2.00000
-22.20000 8.99999 2.50000
-22.20000 8.49999 3.00000
-21.70000 8.49999 3.50000
-21.70000 8.49999 4.50000
-21.70000 8.49999 5.50000
-21.70000 8.49999 6.50000
-21.70000 8.49999 7.50000
-21.70000 8.49999 8.50000
-21.70000 8.49999 9.50000
-21.70000 8.49999 10.50000
-22.20000 7.99999 2.50000
-21.70000 7.49999 3.50000
-21.70000 7.49999 4.50000
-21.70000 7.49999 5.50000
-22.20000 7.49999 6.00000
-22.20000 7.99999 6.50000
-22.20000 7.99999 7.50000
-22.20000 7.99999 8.50000
-22.20000 7.99999 9.50000
-22.20000 7.49999 10.00000
-21.70000 7.49999 10.50000
-21.70000 7.49999 11.50000
-21.70000 7.49999 12.50000
-21.70000 6.49999 3.50000
-21.70000 6.49999 4.50000
-22.20000 6.49999 5.00000
-22.20000 6.99999 5.50000
-22.20000 6.99999 10.50000
-22.20000 6.99999 11.50000
-22.20000 6.49999 12.00000
-21.70000 6.49999 12.50000
-21.70000 6.49999 13.50000
-22.20000 5.99999 4.50000
-22.20000 5.49999 4.00000
-22.20000 5.99999 12.50000
-22.20000 5.49999 13.00000
-21.70000 5.49999 13.50000
-21.70000 5.49999 14.50000
-22.20000 4.49999 4.00000
-22.20000 4.99999 13.50000
-22.20000 4.49999 14.00000
-21.70000 4.49999 14.50000
-21.70000 4.49999 15.50000
-21.70000 3.49999 3.50000
-22.20000 3.49999 4.00000
-21.70000 3.49999 14.50000
-22.20000 3.49999 14.00000
-21.70000 3.49999 15.50000
-22.20000 2.49999 3.00000
-22.20000 2.99999 3.50000
-21.70000 2.49999 14.50000
-22.20000 2.49999 14.00000
-21.70000 2.49999 15.50000
-22.20000 1.49999 3.00000
-22.20000 1.99999 14.50000
-22.20000 1.49999 15.00000
-21.70000 1.49999 15.50000
-22.20000 0.49999 3.00000
-21.70000 0.49999 15.50000
-22.20000 0.99999 15.50000
-22.20000 0.49999 16.00000
-22.20000 -0.50001 3.00000
-22.20000 -0.00001 15.50000
-22.20000 -0.50001 15.00000
-22.20000 -1.00001 3.50000
-22.20000 -1.50001 4.00000
-22.20000 -1.00001 14.50000
-22.20000 -1.50001 14.00000
-22.20000 -2.50001 4.00000
-22.20000 -2.00001 13.50000
-22.20000 -2.50001 13.00000
-22.20000 -3.00001 4.50000
-22.20000 -3.50001 5.00000
-22.20000 -3.00001 12.50000
-22.20000 -3.50001 12.00000
-22.20000 -4.00001 5.50000
-22.20000 -4.50001 6.00000
-21.70000 -4.50001 10.50000
-21.70000 -4.50001 11.50000
-22.20000 -4.50001 12.00000
-22.20000 -5.00001 6.50000
-22.20000 -5.00001 7.50000
-22.20000 -5.00001 8.50000
-22.20000 -5.00001 9.50000
-22.20000 -5.00001 10.50000
-22.20000 -5.00001 11.50000
-22.70000 8.49999 2.50000
-22.70000 7.49999 6.50000
-22.70000 7.49999 7.50000
-22.70000 7.49999 8.50000
-22.70000 7.49999 9.50000
-22.70000 6.49999 5.50000
-22.70000 6.49999 6.50000
-22.70000 6.49999 7.50000
-22.70000 6.49999 8.50000
-22.70000 6.49999 9.50000
-22.70000 6.49999 10.50000
-22.70000 6.49999 11.50000
-22.70000 5.49999 4.50000
-22.70000 5.49999 5.50000
-23.20000 5.49999 6.00000
-23.20000 5.99999 6.50000
-23.20000 5.99999 7.50000
-23.20000 5.99999 8.50000
-23.20000 5.99999 9.50000
-23.20000 5.99999 10.50000
-23.20000 5.49999 11.00000
-22.70000 5.49999 11.50000
-22.70000 5.49999 12.50000
-22.70000 4.49999 4.50000
-23.20000 4.49999 5.00000
-23.20000 4.99999 5.50000
-23.20000 4.99999 11.50000
-23.20000 4.49999 12.00000
-22.70000 4.49999 12.50000
-22.70000 4.49999 13.50000
-22.70000 3.49999 4.50000
-23.20000 3.49999 5.00000
-23.20000 3.99999 12.50000
-23.20000 3.49999 13.00000
-22.70000 3.49999 13.50000
-22.70000 2.49999 3.50000
-23.20000 2.49999 4.00000
-23.20000 2.99999 4.50000
-22.70000 2.49999 13.50000
-23.20000 2.49999 13.00000
-23.20000 1.49999 3.00000
-23.20000 1.99999 3.50000
-22.70000 1.49999 13.50000
-23.20000 1.49999 13.00000
-22.70000 1.49999 14.50000
-23.20000 0.49999 3.00000
-23.20000 0.99999 13.50000
-23.20000 0.49999 14.00000
-22.70000 0.49999 14.50000
-22.70000 0.49999 15.50000
-23.20000 -0.50001 3.00000
-22.70000 -0.50001 14.50000
-23.20000 -0.50001 14.00000
-23.20000 -1.00001 3.50000
-23.20000 -1.50001 4.00000
-22.70000 -1.50001 14.50000
-23.20000 -1.00001 14.50000
-23.20000 -1.50001 15.00000
-23.20000 -2.50001 4.00000
-22.70000 -2.50001 13.50000
-23.20000 -2.50001 14.00000
-23.20000 -2.00001 14.50000
-23.20000 -3.00001 4.50000
-23.20000 -3.50001 5.00000
-22.70000 -3.50001 12.50000
-23.20000 -3.50001 13.00000
-23.20000 -3.00001 13.50000
-23.20000 -4.00001 5.50000
-23.20000 -4.50001 6.00000
-23.20000 -4.00001 12.50000
-23.20000 -4.50001 12.00000
-23.20000 -5.00001 6.50000
-23.20000 -5.00001 7.50000
-23.20000 -5.00001 8.50000
-22.70000 -5.50001 9.50000
-23.20000 -5.50001 9.00000
-22.70000 -5.50001 10.50000
-23.20000 -5.50001 11.00000
-23.20000 -5.00001 11.50000
-23.20000 -6.00001 9.50000
-23.20000 -6.00001 10.50000
-23.70000 5.49999 6.50000
-23.70000 5.49999 7.50000
-23.70000 5.49999 8.50000
-23.70000 5.49999 9.50000
-23.70000 5.49999 10.50000
-23.70000 4.49999 5.50000
-23.70000 4.49999 6.50000
-23.70000 4.49999 7.50000
-23.70000 4.49999 8.50000
-23.70000 4.49999 9.50000
-23.70000 4.49999 10.50000
-23.70000 4.49999 11.50000
-23.70000 3.49999 5.50000
-24.20000 3.49999 6.00000
-24.20000 3.99999 6.50000
-24.20000 3.99999 7.50000
-24.20000 3.99999 8.50000
-24.20000 3.99999 9.50000
-24.20000 3.49999 10.00000
-23.70000 3.49999 10.50000
-23.70000 3.49999 11.50000
-23.70000 3.49999 12.50000
-23.70000 2.49999 4.50000
-24.20000 2.49999 5.00000
-24.20000 2.99999 5.50000
-23.70000 2.49999 10.50000
-24.20000 2.49999 10.00000
-23.70000 2.49999 11.50000
-23.70000 2.49999 12.50000
-23.70000 1.49999 3.50000
-23.70000 1.49999 4.50000
-24.20000 1.49999 5.00000
-24.20000 1.99999 10.50000
-24.20000 1.49999 11.00000
-23.70000 1.49999 11.50000
-23.70000 1.49999 12.50000
-23.70000 0.49999 3.50000
-24.20000 0.49999 4.00000
-24.20000 0.99999 4.50000
-24.20000 0.99999 11.50000
-24.20000 0.49999 12.00000
-23.70000 0.49999 12.50000
-23.70000 0.49999 13.50000
-23.70000 -0.50001 3.50000
-24.20000 -0.50001 4.00000
-23.70000 -0.50001 12.50000
-24.20000 -0.50001 12.00000
-23.70000 -0.50001 13.50000
-24.20000 -1.50001 4.00000
-23.70000 -1.50001 12.50000
-24.20000 -1.50001 12.00000
-23.70000 -1.50001 13.50000
-23.70000 -1.50001 14.50000
-24.20000 -2.50001 4.00000
-23.70000 -2.50001 12.50000
-24.20000 -2.50001 12.00000
-23.70000 -2.50001 13.50000
-24.20000 -3.00001 4.50000
-24.20000 -3.50001 5.00000
-23.70000 -3.50001 12.50000
-24.20000 -3.50001 12.00000
-24.20000 -4.00001 5.50000
-24.20000 -4.50001 6.00000
-24.20000 -4.50001 12.00000
-24.20000 -5.00001 6.50000
-24.20000 -5.00001 7.50000
-23.70000 -5.50001 8.50000
-24.20000 -5.50001 8.00000
-23.70000 -5.50001 11.50000
-24.20000 -5.50001 12.00000
-24.20000 -6.00001 8.50000
-24.20000 -6.00001 9.50000
-24.20000 -6.00001 10.50000
-24.20000 -6.00001 11.50000
-24.70000 3.49999 6.50000
-24.70000 3.49999 7.50000
-24.70000 3.49999 8.50000
-24.70000 3.49999 9.50000
-24.70000 2.49999 5.50000
-24.70000 2.49999 6.50000
-24.70000 2.49999 7.50000
-24.70000 2.49999 8.50000
-24.70000 2.49999 9.50000
-24.70000 1.49999 5.50000
-25.20000 1.49999 6.00000
-25.20000 1.99999 6.50000
-25.20000 1.99999 7.50000
-25.20000 1.49999 8.00000
-24.70000 1.49999 8.50000
-24.70000 1.49999 9.50000
-24.70000 1.49999 10.50000
-24.70000 0.49999 4.50000
-24.70000 0.49999 5.50000
-25.20000 0.49999 6.00000
-25.20000 0.99999 8.50000
-25.20000 0.99999 9.50000
-25.20000 0.49999 10.00000
-24.70000 0.49999 10.50000
-24.70000 0.49999 11.50000
-24.70000 -0.50001 4.50000
-25.20000 -0.50001 5.00000
-25.20000 -0.00001 5.50000
-24.70000 -0.50001 10.50000
-25.20000 -0.50001 10.00000
-24.70000 -0.50001 11.50000
-24.70000 -1.50001 4.50000
-25.20000 -1.50001 5.00000
-24.70000 -1.50001 10.50000
-25.20000 -1.50001 10.00000
-24.70000 -1.50001 11.50000
-25.20000 -2.50001 4.00000
-25.20000 -2.00001 4.50000
-24.70000 -2.50001 10.50000
-25.20000 -2.50001 10.00000
-24.70000 -2.50001 11.50000
-25.20000 -3.00001 4.50000
-25.20000 -3.50001 5.00000
-24.70000 -3.50001 10.50000
-25.20000 -3.50001 10.00000
-24.70000 -3.50001 11.50000
-25.20000 -4.00001 5.50000
-25.20000 -4.50001 6.00000
-24.70000 -4.50001 10.50000
-25.20000 -4.50001 10.00000
-24.70000 -4.50001 11.50000
-25.20000 -5.00001 6.50000
-25.20000 -5.00001 7.50000
-25.20000 -5.50001 8.00000
-24.70000 -5.50001 10.50000
-25.20000 -5.50001 10.00000
-24.70000 -5.50001 11.50000
-25.20000 -6.00001 8.50000
-25.20000 -6.00001 9.50000
-25.70000 1.49999 6.50000
-25.70000 1.49999 7.50000
-25.70000 0.49999 6.50000
-25.70000 0.49999 7.50000
-25.70000 0.49999 8.50000
-25.70000 0.49999 9.50000
-25.70000 -0.50001 5.50000
-25.70000 -0.50001 6.50000
-25.70000 -0.50001 7.50000
-25.70000 -0.50001 8.50000
-25.70000 -0.50001 9.50000
-25.70000 -1.50001 5.50000
-25.70000 -1.50001 6.50000
-25.70000 -1.50001 7.50000
-25.70000 -1.50001 8.50000
-25.70000 -1.50001 9.50000
-25.70000 -2.50001 4.50000
-25.70000 -2.50001 5.50000
-25.70000 -2.50001 6.50000
-25.70000 -2.50001 7.50000
-25.70000 -2.50001 8.50000
-25.70000 -2.50001 9.50000
-25.70000 -3.50001 5.50000
-25.70000 -3.50001 6.50000
-25.70000 -3.50001 7.50000
-25.70000 -3.50001 8.50000
-25.70000 -3.50001 9.50000
-25.70000 -4.50001 6.50000
-25.70000 -4.50001 7.50000
-25.70000 -4.50001 8.50000
-25.70000 -4.50001 9.50000
-25.70000 -5.50001 8.50000
-25.70000 -5.50001 9.50000
3 2 1 0
3 4 3 0
3 0 3 2
3 4 5 3
3 8 7 6
3 8 6 1
3 6 0 1
3 6 9 0
3 0 10 4
3 0 9 10
3 5 4 11
3 4 12 11
3 4 10 12
3 12 13 11
3 6 7 14
3 14 7 15
3 6 16 9
3 6 14 16
3 9 17 10
3 9 16 17
3 10 18 12
3 10 17 18
3 13 12 19
3 19 12 18
3 14 15 20
3 20 15 21
3 14 22 16
3 14 20 22
3 16 23 17
3 16 22 23
3 25 18 24
3 18 23 24
3 18 17 23
3 18 25 19
3 20 21 26
3 26 21 27
3 20 28 22
3 20 26 28
3 22 29 23
3 22 28 29
3 24 23 30
3 30 23 29
3 27 31 26
3 26 31 28
3 28 31 32
3 28 32 29
3 29 32 33
3 29 33 30
3 36 35 34
3 38 37 34
3 34 37 36
3 38 39 37
3 42 41 40
3 42 40 35
3 40 34 35
3 40 43 34
3 34 44 38
3 34 43 44
3 39 38 45
3 38 46 45
3 38 44 46
3 46 47 45
3 40 41 48
3 48 41 49
3 48 1 2
3 43 48 2
3 40 48 43
3 43 2 3
3 43 3 44
3 44 3 5
3 50 44 5
3 46 44 50
3 47 46 51
3 46 52 51
3 46 50 52
3 52 53 51
3 56 55 54
3 56 54 49
3 49 54 48
3 54 7 48
3 7 8 48
3 48 8 1
3 11 50 5
3 50 11 13
3 57 50 13
3 52 50 57
3 53 52 58
3 58 52 57
3 54 55 59
3 59 55 60
3 59 15 7
3 59 7 54
3 19 61 57
3 19 57 13
3 58 57 62
3 62 57 61
3 65 64 63
3 65 63 60
3 63 59 60
3 63 66 59
3 66 21 15
3 66 15 59
3 24 67 25
3 61 19 25
3 67 61 25
3 68 61 67
3 62 61 69
3 69 61 68
3 63 64 70
3 70 64 71
3 63 72 66
3 63 70 72
3 72 27 21
3 72 21 66
3 30 73 67
3 30 67 24
3 67 74 68
3 67 73 74
3 69 68 75
3 75 68 74
3 70 71 76
3 76 71 77
3 70 78 72
3 70 76 78
3 79 31 27
3 72 79 27
3 78 79 72
3 80 32 31
3 80 31 79
3 81 33 32
3 81 32 80
3 73 30 33
3 81 73 33
3 82 73 81
3 84 74 83
3 74 82 83
3 74 73 82
3 74 84 75
3 77 85 76
3 87 86 85
3 86 76 85
3 86 78 76
3 78 88 79
3 78 86 88
3 79 89 80
3 79 88 89
3 80 90 81
3 80 89 90
3 92 82 91
3 82 90 91
3 82 81 90
3 82 92 83
3 87 93 86
3 86 93 88
3 88 93 94
3 88 94 89
3 89 94 95
3 89 95 90
3 90 95 96
3 90 96 91
3 99 98 97
3 35 36 97
3 36 99 97
3 36 100 99
3 101 36 37
3 101 100 36
3 103 102 39
3 102 37 39
3 102 101 37
3 103 104 102
3 107 106 105
3 107 105 98
3 98 105 97
3 105 41 97
3 41 42 97
3 97 42 35
3 45 103 39
3 109 108 47
3 47 108 45
3 108 104 45
3 104 103 45
3 111 110 109
3 109 110 108
3 111 112 110
3 105 106 113
3 113 106 114
3 113 49 41
3 113 41 105
3 51 109 47
3 109 51 53
3 115 109 53
3 111 109 115
3 112 111 116
3 116 111 115
3 113 114 56
3 114 55 56
3 114 117 55
3 113 56 49
3 58 118 115
3 58 115 53
3 116 115 119
3 115 120 119
3 115 118 120
3 120 121 119
3 124 123 122
3 117 124 122
3 60 117 122
3 55 117 60
3 62 125 118
3 62 118 58
3 118 126 120
3 118 125 126
3 121 120 127
3 127 120 126
3 122 123 65
3 123 64 65
3 123 128 64
3 122 65 60
3 69 129 125
3 69 125 62
3 125 130 126
3 125 129 130
3 127 126 131
3 131 126 130
3 128 71 64
3 132 71 128
3 75 133 129
3 75 129 69
3 135 130 134
3 130 133 134
3 130 129 133
3 130 135 131
3 132 77 71
3 136 77 132
3 83 137 84
3 137 138 84
3 84 138 75
3 138 139 75
3 139 133 75
3 133 139 134
3 85 77 140
3 77 141 140
3 77 136 141
3 140 87 85
3 91 142 92
3 137 83 92
3 142 137 92
3 143 137 142
3 138 137 144
3 144 137 143
3 141 145 140
3 145 147 146
3 145 146 93
3 140 145 93
3 87 140 93
3 148 94 93
3 148 93 146
3 149 95 94
3 149 94 148
3 150 96 95
3 150 95 149
3 142 91 96
3 150 142 96
3 151 142 150
3 153 143 152
3 143 151 152
3 143 142 151
3 143 153 144
3 147 154 146
3 146 154 148
3 148 154 155
3 148 155 149
3 149 155 156
3 149 156 150
3 150 156 157
3 150 157 151
3 151 157 158
3 151 158 152
3 161 160 159
3 163 162 159
3 159 162 161
3 165 164 163
3 163 164 162
3 167 166 165
3 165 166 164
3 167 168 166
3 171 170 169
3 171 169 160
3 160 169 159
3 169 98 159
3 98 99 159
3 159 99 100
3 159 100 163
3 163 100 101
3 163 101 165
3 165 101 102
3 165 102 167
3 173 172 104
3 104 172 102
3 172 168 102
3 168 167 102
3 173 174 172
3 169 170 107
3 170 106 107
3 170 175 106
3 169 107 98
3 108 173 104
3 176 174 173
3 108 176 173
3 110 176 108
3 110 112 176
3 176 112 177
3 180 179 178
3 175 180 178
3 114 175 178
3 106 175 114
3 116 182 181
3 177 116 181
3 112 116 177
3 182 183 181
3 178 179 184
3 184 179 185
3 184 117 114
3 184 114 178
3 119 182 116
3 187 186 121
3 121 186 119
3 186 183 119
3 183 182 119
3 187 188 186
3 184 185 124
3 185 123 124
3 185 189 123
3 184 124 117
3 127 190 187
3 127 187 121
3 188 187 191
3 191 187 190
3 189 128 123
3 192 128 189
3 131 193 190
3 131 190 127
3 191 190 194
3 194 190 193
3 192 132 128
3 195 132 192
3 134 196 135
3 193 131 135
3 196 193 135
3 197 193 196
3 194 193 198
3 198 193 197
3 201 200 199
3 195 201 199
3 136 195 199
3 132 195 136
3 138 202 139
3 196 134 139
3 202 196 139
3 203 196 202
3 205 197 204
3 197 203 204
3 197 196 203
3 197 205 198
3 199 200 206
3 206 200 207
3 206 141 136
3 206 136 199
3 144 208 202
3 144 202 138
3 210 203 209
3 203 208 209
3 203 202 208
3 203 210 204
3 207 211 206
3 211 213 212
3 211 212 145
3 206 211 145
3 141 206 145
3 212 147 145
3 152 214 153
3 214 215 153
3 153 215 144
3 215 216 144
3 216 208 144
3 208 216 209
3 213 217 212
3 217 219 218
3 217 218 154
3 212 217 154
3 147 212 154
3 220 155 154
3 220 154 218
3 221 156 155
3 221 155 220
3 222 157 156
3 222 156 221
3 157 222 223
3 224 157 223
3 158 157 224
3 152 158 214
3 158 225 214
3 158 224 225
3 214 225 215
3 219 226 218
3 218 226 220
3 220 226 227
3 220 227 221
3 221 227 228
3 221 228 222
3 222 228 229
3 222 229 223
3 231 230 161
3 161 230 160
3 232 161 162
3 232 231 161
3 233 162 164
3 233 232 162
3 234 164 166
3 234 233 164
3 236 235 168
3 235 166 168
3 235 234 166
3 236 237 235
3 239 238 171
3 171 238 170
3 171 160 230
3 171 230 239
3 172 236 168
3 241 240 174
3 174 240 172
3 240 237 172
3 237 236 172
3 241 242 240
3 245 244 243
3 238 245 243
3 175 238 243
3 170 238 175
3 176 241 174
3 247 246 177
3 177 246 176
3 246 242 176
3 242 241 176
3 247 248 246
3 243 244 180
3 244 179 180
3 244 249 179
3 243 180 175
3 181 247 177
3 251 250 183
3 183 250 181
3 250 248 181
3 248 247 181
3 251 252 250
3 249 185 179
3 253 185 249
3 186 251 183
3 255 254 188
3 188 254 186
3 254 252 186
3 252 251 186
3 255 256 254
3 253 189 185
3 257 189 253
3 191 258 255
3 191 255 188
3 256 255 259
3 259 255 258
3 257 192 189
3 260 192 257
3 194 261 258
3 194 258 191
3 259 258 262
3 262 258 261
3 260 195 192
3 263 195 260
3 198 264 261
3 198 261 194
3 262 261 265
3 265 261 264
3 267 266 201
3 201 266 200
3 201 195 263
3 201 263 267
3 204 268 205
3 268 269 205
3 205 269 198
3 269 270 198
3 270 264 198
3 264 270 265
3 266 207 200
3 271 207 266
3 209 272 210
3 272 273 210
3 210 273 204
3 273 274 204
3 274 268 204
3 268 274 269
3 271 275 207
3 207 275 211
3 213 211 275
3 213 275 276
3 215 277 216
3 277 278 216
3 216 278 209
3 278 279 209
3 279 272 209
3 272 279 273
3 217 213 280
3 213 281 280
3 213 276 281
3 280 219 217
3 223 282 224
3 283 225 224
3 283 224 282
3 283 284 225
3 225 284 215
3 284 285 215
3 285 277 215
3 277 285 278
3 281 286 280
3 280 286 219
3 286 226 219
3 286 287 226
3 287 289 288
3 227 287 288
3 226 287 227
3 290 228 227
3 290 227 288
3 291 229 228
3 291 228 290
3 291 292 229
3 229 292 223
3 292 293 223
3 293 282 223
3 282 293 283
3 283 293 294
3 283 294 284
3 289 295 288
3 288 295 290
3 290 295 296
3 290 296 291
3 291 296 297
3 291 297 292
3 298 230 231
3 298 231 299
3 231 300 299
3 231 232 300
3 301 232 233
3 301 300 232
3 302 233 234
3 302 301 233
3 303 234 235
3 303 302 234
3 235 237 303
3 303 237 304
3 305 238 239
3 306 305 239
3 306 239 230
3 307 306 230
3 298 307 230
3 307 298 299
3 308 304 237
3 308 237 240
3 310 309 242
3 309 240 242
3 309 308 240
3 310 311 309
3 313 312 245
3 245 312 244
3 245 238 305
3 314 245 305
3 313 245 314
3 314 305 306
3 246 310 242
3 316 315 248
3 248 315 246
3 315 311 246
3 311 310 246
3 316 317 315
3 320 319 318
3 312 320 318
3 249 312 318
3 244 312 249
3 250 316 248
3 322 321 252
3 252 321 250
3 321 317 250
3 317 316 250
3 322 323 321
3 319 324 318
3 249 318 324
3 325 249 324
3 253 249 325
3 254 322 252
3 327 326 256
3 256 326 254
3 326 323 254
3 323 322 254
3 327 328 326
3 325 257 253
3 329 257 325
3 259 330 327
3 259 327 256
3 328 327 331
3 331 327 330
3 329 260 257
3 332 260 329
3 262 333 330
3 262 330 259
3 331 330 334
3 334 330 333
3 332 263 260
3 335 263 332
3 265 336 333
3 265 333 262
3 334 333 337
3 337 333 336
3 338 266 267
3 339 338 267
3 263 339 267
3 335 339 263
3 269 340 270
3 340 341 270
3 270 341 265
3 341 342 265
3 342 336 265
3 336 342 337
3 344 343 338
3 343 266 338
3 343 271 266
3 344 338 339
3 273 345 274
3 345 346 274
3 274 346 269
3 346 347 269
3 347 340 269
3 340 347 341
3 343 348 271
3 271 348 275
3 276 275 348
3 276 348 349
3 278 350 279
3 350 351 279
3 279 351 273
3 351 352 273
3 352 345 273
3 345 352 346
3 349 281 276
3 353 281 349
3 284 354 285
3 354 355 285
3 285 355 278
3 355 356 278
3 356 350 278
3 350 356 351
3 353 357 281
3 281 357 286
3 357 359 358
3 287 357 358
3 286 357 287
3 358 289 287
3 292 360 293
3 361 294 293
3 361 293 360
3 361 362 294
3 294 362 284
3 362 363 284
3 363 354 284
3 354 363 355
3 359 364 358
3 358 364 289
3 364 295 289
3 364 365 295
3 295 366 296
3 365 366 295
3 296 367 297
3 366 367 296
3 292 297 360
3 297 368 360
3 297 367 368
3 360 368 361
3 361 368 369
3 361 369 362
3 370 299 300
3 301 371 300
3 300 371 370
3 371 301 372
3 301 373 372
3 301 302 373
3 374 302 303
3 374 373 302
3 376 375 304
3 375 303 304
3 375 374 303
3 376 377 375
3 378 306 307
3 379 378 307
3 379 307 299
3 380 379 299
3 370 380 299
3 380 370 371
3 380 371 381
3 381 371 372
3 308 376 304
3 382 377 376
3 308 382 376
3 309 382 308
3 384 383 311
3 383 309 311
3 383 382 309
3 384 385 383
3 386 312 313
3 314 387 313
3 313 387 386
3 388 387 314
3 388 314 306
3 389 388 306
3 378 389 306
3 389 378 379
3 315 384 311
3 391 390 317
3 317 390 315
3 390 385 315
3 385 384 315
3 391 392 390
3 393 319 320
3 394 393 320
3 394 320 312
3 395 394 312
3 386 395 312
3 395 386 387
3 395 387 396
3 396 387 388
3 321 391 317
3 398 397 323
3 323 397 321
3 397 392 321
3 392 391 321
3 398 399 397
3 401 324 400
3 324 319 400
3 400 319 393
3 402 400 393
3 393 394 402
3 324 401 325
3 326 398 323
3 326 328 398
3 328 399 398
3 328 403 399
3 400 404 401
3 325 401 404
3 405 325 404
3 329 325 405
3 331 407 406
3 403 331 406
3 328 331 403
3 407 408 406
3 405 332 329
3 409 332 405
3 334 410 407
3 334 407 331
3 408 407 411
3 411 407 410
3 409 335 332
3 412 335 409
3 414 413 410
3 334 414 410
3 337 414 334
3 410 413 411
3 412 339 335
3 415 339 412
3 341 416 342
3 416 417 342
3 417 337 342
3 417 414 337
3 418 343 344
3 419 418 344
3 339 419 344
3 415 419 339
3 346 420 347
3 420 421 347
3 347 421 341
3 421 422 341
3 422 416 341
3 416 422 417
3 418 348 343
3 349 348 418
3 419 349 418
3 423 349 419
3 351 424 352
3 424 425 352
3 352 425 346
3 425 426 346
3 426 420 346
3 420 426 421
3 423 353 349
3 427 353 423
3 355 428 356
3 428 429 356
3 356 429 351
3 429 430 351
3 430 424 351
3 424 430 425
3 427 431 353
3 353 431 357
3 359 357 431
3 359 431 432
3 362 433 363
3 433 434 363
3 363 434 355
3 434 435 355
3 435 428 355
3 428 435 429
3 432 436 359
3 359 436 364
3 436 438 437
3 365 436 437
3 364 436 365
3 439 366 365
3 439 365 437
3 440 367 366
3 440 366 439
3 441 368 367
3 441 367 440
3 368 441 442
3 443 368 442
3 369 368 443
3 362 369 433
3 369 444 433
3 369 443 444
3 433 444 434
3 438 445 437
3 437 445 439
3 439 445 446
3 439 446 440
3 440 446 447
3 440 447 441
3 441 447 448
3 441 448 442
3 449 372 373
3 374 450 373
3 373 450 449
3 450 374 451
3 374 452 451
3 374 375 452
3 454 453 377
3 453 375 377
3 453 452 375
3 454 455 453
3 456 379 380
3 456 380 457
3 380 458 457
3 380 381 458
3 381 372 449
3 459 381 449
3 458 381 459
3 459 449 450
3 459 450 460
3 460 450 451
3 382 454 377
3 461 455 454
3 382 461 454
3 383 461 382
3 463 462 385
3 462 383 385
3 462 461 383
3 463 464 462
3 466 465 389
3 389 465 388
3 389 379 456
3 467 389 456
3 466 389 467
3 467 456 457
3 390 463 385
3 390 392 463
3 392 464 463
3 392 468 464
3 469 394 395
3 469 395 470
3 395 471 470
3 395 396 471
3 396 388 465
3 396 465 471
3 472 468 392
3 472 392 397
3 397 399 472
3 472 399 473
3 475 474 402
3 402 474 400
3 402 394 469
3 476 402 469
3 475 402 476
3 476 469 470
3 403 478 477
3 473 403 477
3 399 403 473
3 478 479 477
3 474 480 400
3 400 480 404
3 405 404 480
3 405 480 481
3 406 478 403
3 406 408 478
3 408 479 478
3 408 482 479
3 481 409 405
3 483 409 481
3 411 482 408
3 411 484 482
3 483 412 409
3 485 412 483
3 414 486 413
3 486 487 413
3 487 411 413
3 487 484 411
3 485 415 412
3 488 415 485
3 417 489 486
3 417 486 414
3 487 486 490
3 490 486 489
3 488 419 415
3 491 419 488
3 421 492 422
3 492 493 422
3 422 493 417
3 493 494 417
3 494 489 417
3 489 494 490
3 491 423 419
3 495 423 491
3 425 496 426
3 492 421 426
3 496 492 426
3 497 492 496
3 493 492 498
3 498 492 497
3 495 427 423
3 499 427 495
3 429 500 430
3 500 501 430
3 430 501 425
3 501 502 425
3 502 496 425
3 496 502 497
3 497 502 503
3 497 503 498
3 431 427 504
3 427 505 504
3 427 499 505
3 504 432 431
3 434 506 435
3 506 507 435
3 435 507 429
3 507 508 429
3 508 500 429
3 500 508 501
3 505 509 504
3 509 511 510
3 509 510 436
3 504 509 436
3 432 504 436
3 510 438 436
3 442 512 443
3 513 444 443
3 513 443 512
3 513 514 444
3 444 514 434
3 514 515 434
3 515 506 434
3 506 515 507
3 511 516 510
3 516 518 517
3 516 517 445
3 510 516 445
3 438 510 445
3 519 446 445
3 519 445 517
3 520 447 446
3 520 446 519
3 521 448 447
3 521 447 520
3 521 522 448
3 448 522 442
3 522 523 442
3 523 512 442
3 512 523 513
3 513 523 524
3 513 524 514
3 518 525 517
3 517 525 519
3 519 525 526
3 519 526 520
3 520 526 527
3 520 527 521
3 521 527 528
3 521 528 522
3 529 451 452
3 453 530 452
3 452 530 529
3 455 530 453
3 531 457 458
3 459 532 458
3 458 532 531
3 532 459 533
3 459 534 533
3 459 460 534
3 460 451 529
3 535 460 529
3 534 460 535
3 537 536 535
3 529 537 535
3 530 537 529
3 461 538 455
3 538 530 455
3 538 537 530
3 462 539 461
3 461 539 538
3 464 539 462
3 540 465 466
3 540 466 541
3 466 542 541
3 466 467 542
3 467 457 531
3 543 467 531
3 542 467 543
3 543 531 532
3 543 532 544
3 544 532 533
3 545 536 537
3 545 537 538
3 545 538 546
3 546 538 539
3 546 539 547
3 464 468 539
3 468 548 539
3 548 547 539
3 548 468 549
3 549 550 548
3 551 470 471
3 552 551 471
3 552 471 465
3 553 552 465
3 540 553 465
3 553 540 541
3 472 549 468
3 555 554 473
3 473 554 472
3 554 550 472
3 550 549 472
3 555 556 554
3 557 474 475
3 557 475 558
3 475 559 558
3 475 476 559
3 476 470 551
3 560 476 551
3 559 476 560
3 560 551 552
3 477 555 473
3 477 479 555
3 479 556 555
3 479 561 556
3 557 480 474
3 481 480 557
3 558 481 557
3 562 481 558
3 482 561 479
3 482 563 561
3 562 483 481
3 564 483 562
3 484 563 482
3 484 565 563
3 564 485 483
3 566 485 564
3 487 568 567
3 565 487 567
3 484 487 565
3 568 569 567
3 566 488 485
3 570 488 566
3 490 571 568
3 490 568 487
3 569 568 572
3 572 568 571
3 570 491 488
3 573 491 570
3 493 574 494
3 571 490 494
3 574 571 494
3 575 571 574
3 572 571 576
3 576 571 575
3 573 495 491
3 577 495 573
3 498 578 574
3 498 574 493
3 580 575 579
3 575 578 579
3 575 574 578
3 575 580 576
3 577 499 495
3 581 499 577
3 501 582 502
3 583 503 502
3 583 502 582
3 578 498 503
3 583 578 503
3 584 578 583
3 579 578 585
3 585 578 584
3 581 505 499
3 586 505 581
3 507 587 508
3 582 501 508
3 587 582 508
3 588 582 587
3 590 583 589
3 583 588 589
3 583 582 588
3 583 590 584
3 584 590 591
3 584 591 585
3 586 592 505
3 505 592 509
3 511 509 592
3 511 592 593
3 514 594 515
3 594 595 515
3 515 595 507
3 595 596 507
3 596 587 507
3 587 596 588
3 588 596 597
3 588 597 589
3 516 511 598
3 511 599 598
3 511 593 599
3 598 518 516
3 522 600 523
3 523 600 601
3 602 523 601
3 524 523 602
3 514 524 594
3 524 603 594
3 524 602 603
3 594 603 595
3 599 604 598
3 604 606 605
3 604 605 525
3 598 604 525
3 518 598 525
3 607 526 525
3 607 525 605
3 608 527 526
3 608 526 607
3 609 528 527
3 609 527 608
3 609 610 528
3 528 610 522
3 610 611 522
3 611 600 522
3 600 611 601
3 606 612 605
3 605 612 607
3 607 612 613
3 607 613 608
3 608 613 614
3 608 614 609
3 609 614 615
3 609 615 610
3 616 533 534
3 535 617 534
3 534 617 616
3 536 617 535
3 618 541 542
3 543 619 542
3 542 619 618
3 544 620 543
3 543 620 619
3 533 616 544
3 616 620 544
3 616 621 620
3 622 616 617
3 621 616 622
3 545 623 536
3 623 617 536
3 623 622 617
3 546 624 545
3 545 624 623
3 547 625 546
3 546 625 624
3 548 626 547
3 547 626 625
3 550 626 548
3 627 552 553
3 628 627 553
3 628 553 541
3 629 628 541
3 618 629 541
3 629 618 619
3 629 619 630
3 630 619 620
3 630 620 631
3 631 620 621
3 631 621 632
3 632 621 622
3 632 622 633
3 633 622 623
3 633 623 634
3 634 623 624
3 634 624 635
3 635 624 625
3 635 625 636
3 636 625 626
3 636 626 637
3 639 637 638
3 638 637 554
3 637 626 554
3 626 550 554
3 556 638 554
3 640 558 559
3 640 559 641
3 559 642 641
3 559 560 642
3 560 552 627
3 643 560 627
3 642 560 643
3 643 627 628
3 644 639 638
3 556 561 638
3 561 645 638
3 645 644 638
3 645 561 646
3 646 647 645
3 649 648 640
3 648 558 640
3 648 562 558
3 649 640 641
3 563 650 646
3 563 646 561
3 647 646 651
3 651 646 650
3 648 564 562
3 652 564 648
3 565 653 650
3 565 650 563
3 651 650 654
3 654 650 653
3 652 566 564
3 655 566 652
3 567 653 565
3 567 569 653
3 569 654 653
3 569 656 654
3 658 570 657
3 570 655 657
3 570 566 655
3 659 658 657
3 572 656 569
3 572 660 656
3 661 573 658
3 658 573 570
3 658 659 662
3 658 662 661
3 576 660 572
3 576 663 660
3 664 577 661
3 661 577 573
3 661 662 665
3 661 665 664
3 579 666 580
3 666 667 580
3 667 576 580
3 667 663 576
3 668 581 664
3 664 581 577
3 664 665 669
3 664 669 668
3 585 670 666
3 585 666 579
3 667 666 671
3 671 666 670
3 673 672 668
3 672 581 668
3 672 586 581
3 673 668 669
3 589 674 590
3 675 591 590
3 675 590 674
3 670 585 591
3 675 670 591
3 676 670 675
3 671 670 677
3 677 670 676
3 592 586 678
3 586 679 678
3 586 672 679
3 678 593 592
3 595 680 596
3 596 680 681
3 682 596 681
3 597 596 682
3 589 597 674
3 597 683 674
3 597 682 683
3 674 683 675
3 675 683 684
3 675 684 676
3 676 684 685
3 676 685 677
3 679 686 678
3 593 678 686
3 687 593 686
3 599 593 687
3 601 688 602
3 689 603 602
3 689 602 688
3 689 690 603
3 603 690 595
3 690 691 595
3 691 680 595
3 680 691 681
3 604 599 692
3 599 693 692
3 599 687 693
3 692 606 604
3 610 694 611
3 688 601 611
3 694 688 611
3 695 688 694
3 697 689 696
3 689 695 696
3 689 688 695
3 689 697 690
3 693 698 692
3 698 700 699
3 698 699 612
3 692 698 612
3 606 692 612
3 701 613 612
3 701 612 699
3 702 614 613
3 702 613 701
3 703 615 614
3 703 614 702
3 694 610 615
3 703 694 615
3 704 694 703
3 706 695 705
3 695 704 705
3 695 694 704
3 695 706 696
3 700 707 699
3 709 708 707
3 708 699 707
3 708 701 699
3 701 710 702
3 701 708 710
3 712 703 711
3 703 710 711
3 703 702 710
3 703 712 704
3 704 712 713
3 704 713 705
3 709 714 708
3 708 714 710
3 710 714 715
3 710 715 711
3 716 628 629
3 630 717 629
3 629 717 716
3 631 718 630
3 630 718 717
3 632 719 631
3 631 719 718
3 633 720 632
3 632 720 719
3 634 721 633
3 633 721 720
3 635 722 634
3 634 722 721
3 636 723 635
3 635 723 722
3 637 724 636
3 636 724 723
3 639 724 637
3 725 641 642
3 725 642 726
3 642 727 726
3 642 643 727
3 643 628 716
3 728 643 716
3 727 643 728
3 728 716 717
3 728 717 729
3 729 717 718
3 729 718 730
3 730 718 719
3 730 719 731
3 731 719 720
3 731 720 732
3 732 720 721
3 732 721 733
3 733 721 722
3 733 722 734
3 736 735 734
3 722 736 734
3 723 736 722
3 737 723 724
3 736 723 737
3 644 738 639
3 738 724 639
3 738 737 724
3 645 739 644
3 644 739 738
3 647 739 645
3 741 740 649
3 649 740 648
3 649 641 725
3 742 649 725
3 741 649 742
3 742 725 726
3 743 735 736
3 743 736 737
3 743 737 744
3 746 745 744
3 737 746 744
3 738 746 737
3 747 738 739
3 746 738 747
3 651 747 647
3 647 747 739
3 740 652 648
3 748 652 740
3 749 745 746
3 751 750 749
3 746 751 749
3 747 751 746
3 654 751 651
3 651 751 747
3 748 655 652
3 752 655 748
3 750 751 753
3 750 753 754
3 656 753 654
3 654 753 751
3 752 755 655
3 655 755 657
3 659 657 755
3 659 755 756
3 757 754 753
3 656 660 753
3 660 758 753
3 758 757 753
3 758 660 759
3 759 760 758
3 756 662 659
3 761 662 756
3 663 762 759
3 663 759 660
3 760 759 763
3 763 759 762
3 761 665 662
3 764 665 761
3 766 765 762
3 663 766 762
3 667 766 663
3 762 765 763
3 764 669 665
3 767 669 764
3 671 766 667
3 671 768 766
3 769 672 673
3 770 769 673
3 669 770 673
3 767 770 669
3 677 768 671
3 677 771 768
3 773 772 769
3 772 672 769
3 772 679 672
3 773 769 770
3 681 774 682
3 775 683 682
3 775 682 774
3 776 684 683
3 776 683 775
3 777 685 684
3 777 684 776
3 777 778 685
3 778 677 685
3 778 771 677
3 772 779 679
3 679 779 686
3 687 686 779
3 687 779 780
3 690 781 691
3 774 681 691
3 781 774 691
3 782 774 781
3 774 783 775
3 774 782 783
3 785 776 784
3 776 783 784
3 776 775 783
3 776 785 777
3 777 785 786
3 777 786 778
3 780 693 687
3 787 693 780
3 696 788 697
3 781 690 697
3 788 781 697
3 789 781 788
3 791 782 790
3 782 789 790
3 782 781 789
3 782 791 783
3 783 791 792
3 783 792 784
3 698 693 793
3 693 794 793
3 693 787 794
3 793 700 698
3 705 795 706
3 788 696 706
3 795 788 706
3 796 788 795
3 798 789 797
3 789 796 797
3 789 788 796
3 789 798 790
3 794 799 793
3 799 801 800
3 799 800 707
3 793 799 707
3 700 793 707
3 800 709 707
3 711 802 712
3 803 713 712
3 803 712 802
3 795 705 713
3 803 795 713
3 804 795 803
3 806 796 805
3 796 804 805
3 796 795 804
3 796 806 797
3 801 807 800
3 807 809 808
3 807 808 714
3 800 807 714
3 709 800 714
3 810 715 714
3 810 714 808
3 802 711 715
3 810 802 715
3 811 802 810
3 813 803 812
3 803 811 812
3 803 802 811
3 803 813 804
3 804 813 814
3 804 814 805
3 809 815 808
3 817 816 815
3 816 808 815
3 816 810 808
3 810 818 811
3 810 816 818
3 812 811 819
3 819 811 818
3 817 820 816
3 816 820 818
3 818 820 821
3 818 821 819
3 822 726 727
3 728 823 727
3 727 823 822
3 729 824 728
3 728 824 823
3 730 825 729
3 729 825 824
3 731 826 730
3 730 826 825
3 732 827 731
3 731 827 826
3 733 828 732
3 732 828 827
3 734 829 733
3 733 829 828
3 735 829 734
3 830 740 741
3 742 831 741
3 741 831 830
3 726 822 742
3 822 831 742
3 822 832 831
3 823 834 833
3 832 823 833
3 822 823 832
3 834 823 824
3 834 824 835
3 835 824 825
3 835 825 836
3 836 825 826
3 836 826 837
3 837 826 827
3 837 827 838
3 840 839 838
3 827 840 838
3 828 840 827
3 841 828 829
3 840 828 841
3 743 842 735
3 842 829 735
3 842 841 829
3 744 843 743
3 743 843 842
3 745 843 744
3 845 844 830
3 844 740 830
3 844 748 740
3 845 830 831
3 845 831 846
3 846 831 832
3 846 832 847
3 847 832 833
3 848 839 840
3 848 840 841
3 848 841 849
3 849 841 842
3 849 842 850
3 852 851 850
3 842 852 850
3 843 852 842
3 749 853 745
3 853 843 745
3 853 852 843
3 750 853 749
3 844 752 748
3 854 752 844
3 855 851 852
3 857 856 855
3 852 857 855
3 853 857 852
3 754 857 750
3 750 857 853
3 755 752 858
3 752 859 858
3 752 854 859
3 858 756 755
3 860 856 857
3 862 860 861
3 861 860 757
3 860 857 757
3 857 754 757
3 758 863 757
3 757 863 861
3 760 863 758
3 859 864 858
3 756 858 864
3 865 756 864
3 761 756 865
3 866 862 861
3 868 867 866
3 861 868 866
3 863 868 861
3 763 868 760
3 760 868 863
3 870 764 869
3 764 865 869
3 764 761 865
3 871 870 869
3 765 766 872
3 868 873 867
3 873 868 874
3 868 763 874
3 765 872 874
3 765 874 763
3 875 767 870
3 870 767 764
3 870 871 876
3 870 876 875
3 768 877 872
3 768 872 766
3 874 872 878
3 878 872 877
3 880 879 875
3 879 767 875
3 879 770 767
3 880 875 876
3 771 881 877
3 771 877 768
3 878 877 882
3 882 877 881
3 883 772 773
3 884 883 773
3 770 884 773
3 879 884 770
3 886 885 881
3 771 886 881
3 778 886 771
3 881 885 882
3 883 779 772
3 780 779 883
3 884 780 883
3 887 780 884
3 784 888 785
3 785 888 889
3 890 785 889
3 786 785 890
3 778 786 886
3 886 786 890
3 887 787 780
3 891 787 887
3 790 892 791
3 893 792 791
3 893 791 892
3 888 784 792
3 893 888 792
3 894 888 893
3 889 888 895
3 895 888 894
3 891 794 787
3 896 794 891
3 797 897 798
3 892 790 798
3 897 892 798
3 898 892 897
3 892 899 893
3 892 898 899
3 901 894 900
3 894 899 900
3 894 893 899
3 894 901 895
3 896 902 794
3 794 902 799
3 801 799 902
3 801 902 903
3 805 904 806
3 897 797 806
3 904 897 806
3 905 897 904
3 897 906 898
3 897 905 906
3 908 899 907
3 899 906 907
3 899 898 906
3 899 908 900
3 807 801 909
3 801 910 909
3 801 903 910
3 909 809 807
3 812 911 813
3 912 814 813
3 912 813 911
3 904 805 814
3 912 904 814
3 913 904 912
3 915 905 914
3 905 913 914
3 905 904 913
3 905 915 906
3 906 915 916
3 906 916 907
3 910 917 909
3 917 919 918
3 917 918 815
3 909 917 815
3 809 909 815
3 918 817 815
3 819 920 911
3 819 911 812
3 922 912 921
3 912 920 921
3 912 911 920
3 912 922 913
3 913 922 923
3 913 923 914
3 919 924 918
3 918 924 817
3 924 820 817
3 924 925 820
3 925 927 926
3 821 925 926
3 820 925 821
3 926 928 821
3 821 928 819
3 928 929 819
3 929 920 819
3 920 929 921
3 927 930 926
3 926 930 928
3 931 833 834
3 835 932 834
3 834 932 931
3 836 933 835
3 835 933 932
3 837 934 836
3 836 934 933
3 838 935 837
3 837 935 934
3 839 935 838
3 937 936 845
3 845 936 844
3 938 845 846
3 938 937 845
3 939 846 847
3 939 938 846
3 847 833 931
3 940 847 931
3 939 847 940
3 940 931 932
3 940 932 941
3 943 942 941
3 932 943 941
3 933 943 932
3 944 933 934
3 943 933 944
3 945 934 935
3 944 934 945
3 848 946 839
3 946 935 839
3 946 945 935
3 849 947 848
3 848 947 946
3 850 948 849
3 849 948 947
3 851 948 850
3 936 854 844
3 949 854 936
3 950 942 943
3 950 943 944
3 950 944 951
3 951 944 945
3 951 945 952
3 952 945 946
3 952 946 953
3 955 954 953
3 946 955 953
3 947 955 946
3 956 947 948
3 955 947 956
3 855 957 851
3 957 948 851
3 957 956 948
3 856 957 855
3 959 859 958
3 859 949 958
3 859 854 949
3 960 959 958
3 961 954 955
3 961 955 956
3 961 956 962
3 964 963 962
3 956 964 962
3 957 964 956
3 860 965 856
3 965 957 856
3 965 964 957
3 862 965 860
3 959 864 859
3 865 864 959
3 960 865 959
3 966 865 960
3 967 963 964
3 969 968 967
3 964 969 967
3 965 969 964
3 866 970 862
3 970 965 862
3 970 969 965
3 867 970 866
3 966 971 865
3 865 971 869
3 871 869 971
3 871 971 972
3 973 968 969
3 975 974 973
3 969 975 973
3 970 975 969
3 873 976 867
3 976 970 867
3 976 975 970
3 874 976 873
3 972 876 871
3 977 876 972
3 978 974 975
3 980 979 978
3 975 980 978
3 976 980 975
3 878 980 874
3 874 980 976
3 982 981 880
3 880 981 879
3 880 876 977
3 880 977 982
3 979 980 983
3 979 983 984
3 882 983 878
3 878 983 980
3 981 884 879
3 985 884 981
3 984 983 885
3 886 984 885
3 986 984 886
3 885 983 882
3 985 887 884
3 987 887 985
3 889 988 890
3 988 989 890
3 989 886 890
3 989 986 886
3 987 891 887
3 990 891 987
3 992 991 988
3 889 992 988
3 895 992 889
3 988 991 989
3 990 896 891
3 993 896 990
3 900 994 901
3 994 995 901
3 995 895 901
3 995 992 895
3 993 996 896
3 896 996 902
3 903 902 996
3 903 996 997
3 907 998 908
3 998 999 908
3 908 999 900
3 999 1000 900
3 1000 994 900
3 994 1000 995
3 997 910 903
3 1001 910 997
3 914 1002 915
3 1003 916 915
3 1003 915 1002
3 1003 1004 916
3 916 1004 907
3 1004 1005 907
3 1005 998 907
3 998 1005 999
3 1001 1006 910
3 910 1006 917
3 919 917 1006
3 919 1006 1007
3 921 1008 922
3 1009 923 922
3 1009 922 1008
3 1002 914 923
3 1009 1002 923
3 1010 1002 1009
3 1012 1003 1011
3 1003 1010 1011
3 1003 1002 1010
3 1003 1012 1004
3 1007 1013 919
3 919 1013 924
3 1013 1015 1014
3 925 1013 1014
3 924 1013 925
3 1014 927 925
3 928 1016 929
3 1008 921 929
3 1016 1008 929
3 1017 1008 1016
3 1019 1009 1018
3 1009 1017 1018
3 1009 1008 1017
3 1009 1019 1010
3 1010 1019 1020
3 1010 1020 1011
3 1015 1021 1014
3 1014 1021 927
3 1021 930 927
3 1021 1022 930
3 928 930 1016
3 930 1023 1016
3 930 1022 1023
3 1016 1023 1017
3 1017 1023 1024
3 1017 1024 1018
3 1025 936 937
3 938 1026 937
3 937 1026 1025
3 939 1027 938
3 938 1027 1026
3 940 1028 939
3 939 1028 1027
3 941 1029 940
3 940 1029 1028
3 942 1029 941
3 1031 1030 1025
3 1030 936 1025
3 1030 949 936
3 1033 1032 1031
3 1025 1033 1031
3 1026 1033 1025
3 1034 1026 1027
3 1033 1026 1034
3 1035 1027 1028
3 1034 1027 1035
3 1036 1028 1029
3 1035 1028 1036
3 950 1037 942
3 1037 1029 942
3 1037 1036 1029
3 951 1038 950
3 950 1038 1037
3 952 1039 951
3 951 1039 1038
3 953 1040 952
3 952 1040 1039
3 954 1040 953
3 1030 1041 949
3 949 1041 958
3 1033 1042 960
3 1041 1033 960
3 958 1041 960
3 1032 1033 1041
3 1043 1033 1034
3 1042 1033 1043
3 1044 1034 1035
3 1043 1034 1044
3 1036 1046 1045
3 1044 1036 1045
3 1035 1036 1044
3 1046 1036 1037
3 1046 1037 1047
3 1047 1037 1038
3 1047 1038 1048
3 1048 1038 1039
3 1048 1039 1049
3 1051 1050 1049
3 1039 1051 1049
3 1040 1051 1039
3 961 1052 954
3 1052 1040 954
3 1052 1051 1040
3 962 1053 961
3 961 1053 1052
3 963 1053 962
3 1054 966 1042
3 1042 966 960
3 1055 1042 1043
3 1054 1042 1055
3 1044 1057 1056
3 1055 1044 1056
3 1043 1044 1055
3 1057 1044 1045
3 1058 1050 1051
3 1058 1051 1052
3 1058 1052 1059
3 1061 1060 1059
3 1052 1061 1059
3 1053 1061 1052
3 967 1062 963
3 1062 1053 963
3 1062 1061 1053
3 968 1062 967
3 1054 971 966
3 1054 1055 1063
3 972 1054 1063
3 1064 972 1063
3 1054 972 971
3 1063 1055 1056
3 1065 1060 1061
3 1067 1066 1065
3 1061 1067 1065
3 1062 1067 1061
3 973 1068 968
3 1068 1062 968
3 1068 1067 1062
3 974 1068 973
3 1064 977 972
3 1069 977 1064
3 1070 1066 1067
3 1072 1071 1070
3 1067 1072 1070
3 1068 1072 1067
3 978 1073 974
3 1073 1068 974
3 1073 1072 1068
3 979 1073 978
3 1074 981 982
3 1075 1074 982
3 977 1075 982
3 1069 1075 977
3 1071 1072 1076
3 1071 1076 1077
3 1078 1072 1073
3 1076 1072 1078
3 984 1078 979
3 979 1078 1073
3 1080 1079 1074
3 1079 981 1074
3 1079 985 981
3 1080 1074 1075
3 1077 1076 1081
3 1077 1081 1082
3 1083 1076 1078
3 1081 1076 1083
3 986 1083 984
3 984 1083 1078
3 1079 987 985
3 1084 987 1079
3 1085 1082 1081
3 1087 1086 1085
3 1081 1087 1085
3 1083 1087 1081
3 989 1087 986
3 986 1087 1083
3 1084 990 987
3 1088 990 1084
3 991 992 1089
3 1087 1090 1086
3 1090 1087 1091
3 1087 989 1091
3 991 1089 1091
3 991 1091 989
3 1088 993 990
3 1092 993 1088
3 1094 1093 1089
3 992 1094 1089
3 995 1094 992
3 1089 1093 1091
3 1092 1095 993
3 993 1095 996
3 997 996 1095
3 997 1095 1096
3 1098 1097 1000
3 1098 1000 999
3 995 1000 1094
3 1094 1000 1097
3 1096 1001 997
3 1099 1001 1096
3 1101 1100 1005
3 1101 1005 1004
3 999 1005 1098
3 1098 1005 1100
3 1099 1102 1001
3 1001 1102 1006
3 1007 1006 1102
3 1007 1102 1103
3 1105 1104 1012
3 1105 1012 1011
3 1004 1012 1101
3 1101 1012 1104
3 1103 1106 1007
3 1007 1106 1013
3 1015 1013 1106
3 1015 1106 1107
3 1018 1108 1019
3 1109 1020 1019
3 1109 1019 1108
3 1109 1110 1020
3 1110 1011 1020
3 1110 1105 1011
3 1107 1111 1015
3 1015 1111 1021
3 1021 1112 1022
3 1111 1112 1021
3 1022 1113 1023
3 1112 1113 1022
3 1023 1114 1024
3 1113 1114 1023
3 1018 1024 1108
3 1024 1115 1108
3 1024 1114 1115
3 1108 1115 1109
3 1109 1115 1116
3 1109 1116 1110
3 1117 1030 1031
3 1032 1117 1031
3 1117 1041 1030
3 1041 1117 1032
3 1118 1045 1046
3 1047 1119 1046
3 1046 1119 1118
3 1048 1120 1047
3 1047 1120 1119
3 1049 1121 1048
3 1048 1121 1120
3 1050 1121 1049
3 1122 1056 1057
3 1045 1118 1057
3 1118 1122 1057
3 1118 1123 1122
3 1124 1118 1119
3 1123 1118 1124
3 1125 1119 1120
3 1124 1119 1125
3 1126 1120 1121
3 1125 1120 1126
3 1058 1127 1050
3 1127 1121 1050
3 1127 1126 1121
3 1059 1128 1058
3 1058 1128 1127
3 1060 1128 1059
3 1129 1064 1063
3 1056 1122 1063
3 1122 1129 1063
3 1122 1130 1129
3 1123 1132 1131
3 1130 1123 1131
3 1122 1123 1130
3 1132 1123 1124
3 1132 1124 1133
3 1133 1124 1125
3 1133 1125 1134
3 1134 1125 1126
3 1134 1126 1135
3 1135 1126 1127
3 1135 1127 1136
3 1138 1137 1136
3 1127 1138 1136
3 1128 1138 1127
3 1065 1139 1060
3 1139 1128 1060
3 1139 1138 1128
3 1066 1139 1065
3 1140 1069 1129
3 1129 1069 1064
3 1130 1142 1141
3 1140 1130 1141
3 1129 1130 1140
3 1142 1130 1131
3 1143 1137 1138
3 1145 1144 1143
3 1138 1145 1143
3 1139 1145 1138
3 1070 1146 1066
3 1146 1139 1066
3 1146 1145 1139
3 1071 1146 1070
3 1147 1075 1140
3 1140 1075 1069
3 1140 1141 1148
3 1140 1148 1147
3 1149 1144 1145
3 1151 1150 1149
3 1145 1151 1149
3 1146 1151 1145
3 1077 1151 1071
3 1071 1151 1146
3 1152 1079 1080
3 1153 1152 1080
3 1153 1080 1075
3 1154 1153 1075
3 1147 1154 1075
3 1154 1147 1148
3 1150 1151 1155
3 1150 1155 1156
3 1082 1155 1077
3 1077 1155 1151
3 1158 1157 1152
3 1157 1079 1152
3 1157 1084 1079
3 1158 1152 1153
3 1156 1155 1159
3 1156 1159 1160
3 1085 1161 1082
3 1161 1155 1082
3 1161 1159 1155
3 1086 1161 1085
3 1157 1088 1084
3 1162 1088 1157
3 1163 1160 1159
3 1165 1164 1163
3 1159 1165 1163
3 1161 1165 1159
3 1090 1166 1086
3 1166 1161 1086
3 1166 1165 1161
3 1091 1166 1090
3 1162 1092 1088
3 1167 1092 1162
3 1164 1165 1168
3 1164 1168 1169
3 1094 1168 1093
3 1168 1166 1093
3 1168 1165 1166
3 1093 1166 1091
3 1167 1170 1092
3 1092 1170 1095
3 1096 1095 1170
3 1096 1170 1171
3 1097 1098 1172
3 1168 1173 1169
3 1173 1168 1174
3 1168 1094 1174
3 1097 1172 1174
3 1097 1174 1094
3 1171 1099 1096
3 1175 1099 1171
3 1101 1176 1100
3 1176 1177 1100
3 1100 1177 1098
3 1177 1178 1098
3 1178 1172 1098
3 1172 1178 1174
3 1175 1179 1099
3 1099 1179 1102
3 1103 1102 1179
3 1103 1179 1180
3 1105 1181 1104
3 1181 1182 1104
3 1104 1182 1101
3 1182 1183 1101
3 1183 1176 1101
3 1176 1183 1177
3 1180 1184 1103
3 1103 1184 1106
3 1107 1106 1184
3 1107 1184 1185
3 1187 1186 1181
3 1105 1187 1181
3 1110 1187 1105
3 1181 1186 1182
3 1185 1188 1107
3 1107 1188 1111
3 1111 1189 1112
3 1188 1189 1111
3 1112 1190 1113
3 1189 1190 1112
3 1190 1192 1191
3 1114 1190 1191
3 1113 1190 1114
3 1193 1115 1114
3 1193 1114 1191
3 1115 1193 1194
3 1195 1115 1194
3 1116 1115 1195
3 1110 1116 1187
3 1187 1116 1195
3 1192 1196 1191
3 1191 1196 1193
3 1193 1196 1197
3 1193 1197 1194
3 1198 1131 1132
3 1133 1199 1132
3 1132 1199 1198
3 1134 1200 1133
3 1133 1200 1199
3 1135 1201 1134
3 1134 1201 1200
3 1136 1202 1135
3 1135 1202 1201
3 1137 1202 1136
3 1203 1141 1142
3 1131 1198 1142
3 1198 1203 1142
3 1198 1204 1203
3 1205 1198 1199
3 1204 1198 1205
3 1206 1199 1200
3 1205 1199 1206
3 1207 1200 1201
3 1206 1200 1207
3 1208 1201 1202
3 1207 1201 1208
3 1143 1209 1137
3 1209 1202 1137
3 1209 1208 1202
3 1144 1209 1143
3 1210 1148 1203
3 1203 1148 1141
3 1204 1212 1211
3 1210 1204 1211
3 1203 1204 1210
3 1212 1204 1205
3 1212 1205 1213
3 1213 1205 1206
3 1213 1206 1214
3 1214 1206 1207
3 1214 1207 1215
3 1217 1216 1215
3 1207 1217 1215
3 1208 1217 1207
3 1218 1208 1209
3 1217 1208 1218
3 1149 1219 1144
3 1219 1209 1144
3 1219 1218 1209
3 1150 1219 1149
3 1220 1153 1154
3 1221 1220 1154
3 1221 1154 1148
3 1222 1221 1148
3 1210 1222 1148
3 1222 1210 1211
3 1216 1217 1223
3 1216 1223 1224
3 1225 1217 1218
3 1223 1217 1225
3 1226 1218 1219
3 1225 1218 1226
3 1156 1226 1150
3 1150 1226 1219
3 1227 1157 1158
3 1153 1220 1158
3 1220 1227 1158
3 1220 1228 1227
3 1220 1221 1229
3 1220 1229 1228
3 1230 1224 1223
3 1232 1231 1230
3 1223 1232 1230
3 1225 1232 1223
3 1233 1225 1226
3 1232 1225 1233
3 1160 1233 1156
3 1156 1233 1226
3 1234 1162 1227
3 1227 1162 1157
3 1228 1236 1235
3 1234 1228 1235
3 1227 1228 1234
3 1236 1228 1229
3 1237 1231 1232
3 1239 1238 1237
3 1232 1239 1237
3 1233 1239 1232
3 1163 1240 1160
3 1240 1233 1160
3 1240 1239 1233
3 1164 1240 1163
3 1241 1167 1234
3 1234 1167 1162
3 1234 1235 1242
3 1234 1242 1241
3 1238 1239 1243
3 1238 1243 1244
3 1245 1239 1240
3 1243 1239 1245
3 1169 1245 1164
3 1164 1245 1240
3 1241 1170 1167
3 1171 1170 1241
3 1242 1171 1241
3 1246 1171 1242
3 1244 1243 1247
3 1244 1247 1248
3 1249 1243 1245
3 1247 1243 1249
3 1173 1250 1169
3 1250 1245 1169
3 1250 1249 1245
3 1174 1250 1173
3 1246 1175 1171
3 1251 1175 1246
3 1248 1247 1252
3 1248 1252 1253
3 1254 1247 1249
3 1252 1247 1254
3 1177 1254 1178
3 1254 1250 1178
3 1254 1249 1250
3 1178 1250 1174
3 1251 1255 1175
3 1175 1255 1179
3 1180 1179 1255
3 1180 1255 1256
3 1253 1252 1257
3 1253 1257 1258
3 1182 1257 1183
3 1257 1254 1183
3 1257 1252 1254
3 1183 1254 1177
3 1256 1259 1180
3 1180 1259 1184
3 1185 1184 1259
3 1185 1259 1260
3 1258 1257 1186
3 1187 1258 1186
3 1261 1258 1187
3 1186 1257 1182
3 1260 1262 1185
3 1185 1262 1188
3 1188 1263 1189
3 1262 1263 1188
3 1263 1265 1264
3 1190 1263 1264
3 1189 1263 1190
3 1264 1192 1190
3 1194 1266 1195
3 1266 1267 1195
3 1267 1187 1195
3 1267 1261 1187
3 1265 1268 1264
3 1264 1268 1192
3 1268 1196 1192
3 1268 1269 1196
3 1196 1270 1197
3 1269 1270 1196
3 1194 1197 1266
3 1197 1271 1266
3 1197 1270 1271
3 1266 1271 1267
3 1272 1211 1212
3 1213 1273 1212
3 1212 1273 1272
3 1214 1274 1213
3 1213 1274 1273
3 1215 1275 1214
3 1214 1275 1274
3 1216 1275 1215
3 1276 1221 1222
3 1211 1272 1222
3 1272 1276 1222
3 1272 1277 1276
3 1278 1272 1273
3 1277 1272 1278
3 1279 1273 1274
3 1278 1273 1279
3 1280 1274 1275
3 1279 1274 1280
3 1224 1280 1216
3 1216 1280 1275
3 1281 1229 1276
3 1276 1229 1221
3 1277 1283 1282
3 1281 1277 1282
3 1276 1277 1281
3 1283 1277 1278
3 1283 1278 1284
3 1286 1285 1284
3 1278 1286 1284
3 1279 1286 1278
3 1287 1279 1280
3 1286 1279 1287
3 1230 1288 1224
3 1288 1280 1224
3 1288 1287 1280
3 1231 1288 1230
3 1289 1235 1236
3 1229 1281 1236
3 1281 1289 1236
3 1281 1290 1289
3 1281 1282 1291
3 1281 1291 1290
3 1292 1285 1286
3 1292 1286 1287
3 1292 1287 1293
3 1295 1294 1293
3 1287 1295 1293
3 1288 1295 1287
3 1237 1296 1231
3 1296 1288 1231
3 1296 1295 1288
3 1238 1296 1237
3 1297 1242 1289
3 1289 1242 1235
3 1290 1299 1298
3 1297 1290 1298
3 1289 1290 1297
3 1299 1290 1291
3 1294 1295 1300
3 1294 1300 1301
3 1302 1295 1296
3 1300 1295 1302
3 1244 1302 1238
3 1238 1302 1296
3 1303 1246 1297
3 1297 1246 1242
3 1297 1298 1304
3 1297 1304 1303
3 1301 1300 1305
3 1301 1305 1306
3 1307 1300 1302
3 1305 1300 1307
3 1248 1307 1244
3 1244 1307 1302
3 1309 1308 1303
3 1308 1246 1303
3 1308 1251 1246
3 1309 1303 1304
3 1306 1305 1310
3 1306 1310 1311
3 1312 1305 1307
3 1310 1305 1312
3 1253 1312 1248
3 1248 1312 1307
3 1308 1313 1251
3 1251 1313 1255
3 1256 1255 1313
3 1256 1313 1314
3 1311 1310 1315
3 1311 1315 1316
3 1317 1310 1312
3 1315 1310 1317
3 1258 1317 1253
3 1253 1317 1312
3 1314 1318 1256
3 1256 1318 1259
3 1260 1259 1318
3 1260 1318 1319
3 1316 1315 1320
3 1316 1320 1321
3 1322 1315 1317
3 1320 1315 1322
3 1261 1322 1258
3 1258 1322 1317
3 1319 1323 1260
3 1260 1323 1262
3 1262 1324 1263
3 1323 1324 1262
3 1265 1263 1324
3 1265 1324 1325
3 1321 1320 1326
3 1321 1326 1327
3 1328 1320 1322
3 1326 1320 1328
3 1267 1328 1261
3 1261 1328 1322
3 1325 1329 1265
3 1265 1329 1268
3 1268 1330 1269
3 1329 1330 1268
3 1326 1270 1327
3 1270 1330 1327
3 1270 1269 1330
3 1270 1326 1271
3 1271 1326 1328
3 1271 1328 1267
3 1331 1282 1283
3 1284 1332 1283
3 1283 1332 1331
3 1285 1332 1284
3 1333 1291 1331
3 1331 1291 1282
3 1334 1331 1332
3 1333 1331 1334
3 1292 1335 1285
3 1335 1332 1285
3 1335 1334 1332
3 1293 1336 1292
3 1292 1336 1335
3 1294 1336 1293
3 1337 1298 1299
3 1291 1333 1299
3 1333 1337 1299
3 1333 1338 1337
3 1339 1333 1334
3 1338 1333 1339
3 1340 1334 1335
3 1339 1334 1340
3 1341 1335 1336
3 1340 1335 1341
3 1301 1341 1294
3 1294 1341 1336
3 1342 1304 1337
3 1337 1304 1298
3 1343 1337 1338
3 1342 1337 1343
3 1344 1338 1339
3 1343 1338 1344
3 1345 1339 1340
3 1344 1339 1345
3 1346 1340 1341
3 1345 1340 1346
3 1306 1346 1301
3 1301 1346 1341
3 1347 1308 1309
3 1304 1342 1309
3 1342 1347 1309
3 1342 1348 1347
3 1349 1342 1343
3 1348 1342 1349
3 1350 1343 1344
3 1349 1343 1350
3 1351 1344 1345
3 1350 1344 1351
3 1352 1345 1346
3 1351 1345 1352
3 1311 1352 1306
3 1306 1352 1346
3 1347 1313 1308
3 1313 1347 1314
3 1347 1353 1314
3 1347 1348 1353
3 1354 1348 1349
3 1353 1348 1354
3 1355 1349 1350
3 1354 1349 1355
3 1356 1350 1351
3 1355 1350 1356
3 1357 1351 1352
3 1356 1351 1357
3 1316 1357 1311
3 1311 1357 1352
3 1353 1318 1314
3 1318 1353 1319
3 1353 1358 1319
3 1353 1354 1358
3 1359 1354 1355
3 1358 1354 1359
3 1360 1355 1356
3 1359 1355 1360
3 1361 1356 1357
3 1360 1356 1361
3 1321 1361 1316
3 1316 1361 1357
3 1358 1323 1319
3 1323 1358 1324
3 1324 1358 1359
3 1324 1359 1325
3 1359 1362 1325
3 1359 1360 1362
3 1363 1360 1361
3 1362 1360 1363
3 1327 1363 1321
3 1321 1363 1361
3 1362 1329 1325
3 1329 1362 1330
3 1330 1362 1363
3 1330 1363 1327
