ply
format ascii 1.0
element vertex 1314
property float x
property float y
property float z
element face 2624
property list uchar int vertex_indices
end_header
-10.70000 7.49999 -10.50000
-11.20000 7.49999 -11.00000
-11.20000 7.99999 -10.50000
-11.20000 7.99999 -9.50000
-10.70000 7.49999 -9.50000
-11.20000 7.49999 -9.00000
-10.70000 6.49999 -10.50000
-11.20000 6.49999 -11.00000
-10.70000 6.49999 -9.50000
-11.20000 6.99999 -8.50000
-10.70000 6.49999 -8.50000
-11.20000 6.99999 -7.50000
-10.70000 6.49999 -7.50000
-11.20000 6.49999 -7.00000
-11.20000 5.99999 -10.50000
-10.70000 5.49999 -9.50000
-11.20000 5.49999 -10.00000
-10.70000 5.49999 -8.50000
-10.70000 5.49999 -7.50000
-11.20000 5.99999 -6.50000
-10.70000 5.49999 -6.50000
-11.20000 5.49999 -6.00000
-11.20000 4.99999 -9.50000
-11.20000 4.99999 -8.50000
-10.70000 4.49999 -7.50000
-11.20000 4.49999 -8.00000
-10.70000 4.49999 -6.50000
-11.20000 4.49999 -6.00000
-11.20000 3.99999 -7.50000
-11.20000 3.99999 -6.50000
-11.70000 9.49999 -12.50000
-12.20000 9.49999 -13.00000
-12.20000 9.99999 -12.50000
-12.20000 9.99999 -11.50000
-11.70000 9.49999 -11.50000
-12.20000 9.99999 -10.50000
-11.70000 9.49999 -10.50000
-12.20000 9.49999 -10.00000
-11.70000 8.49999 -12.50000
-12.20000 8.49999 -13.00000
-11.70000 8.49999 -11.50000
-11.70000 8.49999 -10.50000
-12.20000 8.99999 -9.50000
-11.70000 8.49999 -9.50000
-12.20000 8.49999 -9.00000
-11.70000 7.49999 -12.50000
-12.20000 7.49999 -13.00000
-11.70000 7.49999 -11.50000
-12.20000 7.99999 -8.50000
-11.70000 7.49999 -8.50000
-12.20000 7.49999 -8.00000
-12.20000 6.99999 -12.50000
-11.70000 6.49999 -11.50000
-12.20000 6.49999 -12.00000
-12.20000 6.99999 -7.50000
-12.20000 6.49999 -7.00000
-12.20000 5.99999 -11.50000
-12.20000 5.99999 -10.50000
-12.20000 5.49999 -10.00000
-12.20000 5.99999 -6.50000
-12.20000 5.49999 -6.00000
-12.20000 4.99999 -9.50000
-12.20000 4.99999 -8.50000
-12.20000 4.49999 -8.00000
-12.20000 4.99999 -5.50000
-11.70000 4.49999 -5.50000
-12.20000 4.49999 -5.00000
-12.20000 3.99999 -7.50000
-12.20000 3.99999 -6.50000
-12.20000 3.99999 -5.50000
-12.70000 10.49999 -12.50000
-13.20000 10.49999 -13.00000
-13.20000 10.99999 -12.50000
-13.20000 10.99999 -11.50000
-12.70000 10.49999 -11.50000
-13.20000 10.99999 -10.50000
-12.70000 10.49999 -10.50000
-13.20000 10.49999 -10.00000
-12.70000 9.49999 -13.50000
-13.20000 9.49999 -14.00000
-13.20000 9.99999 -13.50000
-13.20000 9.99999 -9.50000
-12.70000 9.49999 -9.50000
-13.20000 9.99999 -8.50000
-12.70000 9.49999 -8.50000
-13.20000 9.49999 -8.00000
-12.70000 8.49999 -13.50000
-13.20000 8.49999 -14.00000
-12.70000 8.49999 -8.50000
-13.20000 8.49999 -8.00000
-13.20000 7.99999 -13.50000
-13.20000 7.49999 -13.00000
-13.20000 7.99999 -7.50000
-12.70000 7.49999 -7.50000
-13.20000 7.49999 -7.00000
-13.20000 6.99999 -12.50000
-13.20000 6.49999 -12.00000
-13.20000 6.99999 -6.50000
-12.70000 6.49999 -6.50000
-13.20000 6.49999 -6.00000
-13.20000 5.99999 -11.50000
-13.20000 5.99999 -10.50000
-13.20000 5.49999 -10.00000
-13.20000 5.99999 -5.50000
-12.70000 5.49999 -5.50000
-13.20000 5.49999 -5.00000
-13.20000 4.99999 -9.50000
-12.70000 4.49999 -8.50000
-13.20000 4.49999 -9.00000
-13.20000 4.99999 -4.50000
-12.70000 4.49999 -4.50000
-13.20000 4.49999 -4.00000
-13.20000 3.99999 -8.50000
-13.20000 3.99999 -7.50000
-13.20000 3.99999 -6.50000
-12.70000 3.49999 -5.50000
-13.20000 3.49999 -6.00000
-12.70000 3.49999 -4.50000
-13.20000 3.49999 -4.00000
-13.20000 2.99999 -5.50000
-13.20000 2.99999 -4.50000
-13.70000 10.49999 -13.50000
-14.20000 10.49999 -14.00000
-14.20000 10.99999 -13.50000
-14.20000 10.99999 -12.50000
-14.20000 10.99999 -11.50000
-14.20000 10.99999 -10.50000
-14.20000 10.99999 -9.50000
-13.70000 10.49999 -9.50000
-14.20000 10.49999 -9.00000
-14.20000 9.49999 -14.00000
-14.20000 9.99999 -8.50000
-14.20000 9.99999 -7.50000
-13.70000 9.49999 -7.50000
-14.20000 9.49999 -7.00000
-14.20000 8.99999 -13.50000
-13.70000 8.49999 -13.50000
-14.20000 8.49999 -13.00000
-13.70000 8.49999 -7.50000
-14.20000 8.49999 -7.00000
-14.20000 7.49999 -13.00000
-14.20000 7.99999 -6.50000
-13.70000 7.49999 -6.50000
-14.20000 7.99999 -5.50000
-13.70000 7.49999 -5.50000
-14.20000 7.49999 -5.00000
-14.20000 6.99999 -12.50000
-14.20000 6.49999 -12.00000
-13.70000 6.49999 -5.50000
-14.20000 6.99999 -4.50000
-13.70000 6.49999 -4.50000
-14.20000 6.49999 -4.00000
-14.20000 5.99999 -11.50000
-14.20000 5.99999 -10.50000
-14.20000 5.49999 -10.00000
-13.70000 5.49999 -4.50000
-14.20000 5.99999 -3.50000
-13.70000 5.49999 -3.50000
-14.20000 5.49999 -3.00000
-14.20000 4.99999 -9.50000
-13.70000 4.49999 -8.50000
-14.20000 4.99999 -8.50000
-14.20000 4.49999 -8.00000
-13.70000 4.49999 -3.50000
-14.20000 4.49999 -3.00000
-14.20000 3.99999 -7.50000
-13.70000 3.49999 -6.50000
-14.20000 3.49999 -7.00000
-13.70000 3.49999 -3.50000
-14.20000 3.49999 -3.00000
-14.20000 2.99999 -6.50000
-14.20000 2.99999 -5.50000
-14.20000 2.99999 -4.50000
-14.20000 2.99999 -3.50000
-15.20000 10.49999 -14.00000
-15.20000 10.99999 -13.50000
-15.20000 10.99999 -12.50000
-15.20000 10.99999 -11.50000
-15.20000 10.99999 -10.50000
-15.20000 10.99999 -9.50000
-15.20000 10.49999 -9.00000
-15.20000 9.49999 -14.00000
-15.20000 9.99999 -8.50000
-15.20000 9.99999 -7.50000
-15.20000 9.99999 -6.50000
-14.70000 9.49999 -6.50000
-15.20000 9.49999 -6.00000
-15.20000 8.99999 -13.50000
-15.20000 8.49999 -13.00000
-14.70000 8.49999 -6.50000
-15.20000 8.99999 -5.50000
-14.70000 8.49999 -5.50000
-15.20000 8.49999 -5.00000
-15.20000 7.49999 -13.00000
-15.20000 7.99999 -4.50000
-14.70000 7.49999 -4.50000
-15.20000 7.49999 -4.00000
-15.20000 6.99999 -12.50000
-15.20000 6.49999 -12.00000
-15.20000 6.49999 -4.00000
-15.20000 5.99999 -11.50000
-15.20000 5.99999 -10.50000
-15.20000 5.49999 -10.00000
-15.20000 5.99999 -3.50000
-15.20000 5.49999 -3.00000
-15.20000 4.99999 -9.50000
-15.20000 4.99999 -8.50000
-15.20000 4.49999 -8.00000
-15.20000 4.99999 -2.50000
-14.70000 4.49999 -2.50000
-15.20000 4.49999 -2.00000
-15.20000 3.99999 -7.50000
-15.20000 3.49999 -7.00000
-14.70000 3.49999 -2.50000
-15.20000 3.49999 -2.00000
-15.20000 2.99999 -6.50000
-15.20000 2.99999 -5.50000
-14.70000 2.49999 -4.50000
-15.20000 2.49999 -5.00000
-14.70000 2.49999 -3.50000
-14.70000 2.49999 -2.50000
-15.20000 2.49999 -2.00000
-15.20000 1.99999 -4.50000
-15.20000 1.99999 -3.50000
-15.20000 1.99999 -2.50000
-16.20000 10.49999 -14.00000
-16.20000 10.99999 -13.50000
-16.20000 10.99999 -12.50000
-16.20000 10.99999 -11.50000
-16.20000 10.99999 -10.50000
-16.20000 10.99999 -9.50000
-16.20000 10.49999 -9.00000
-16.20000 9.49999 -14.00000
-16.20000 9.99999 -8.50000
-16.20000 9.99999 -7.50000
-16.20000 9.99999 -6.50000
-16.20000 9.49999 -6.00000
-15.70000 8.49999 -13.50000
-16.20000 8.49999 -14.00000
-16.20000 8.99999 -5.50000
-16.20000 8.99999 -4.50000
-15.70000 8.49999 -4.50000
-16.20000 8.49999 -4.00000
-15.70000 7.49999 -13.50000
-16.20000 7.49999 -14.00000
-16.20000 7.49999 -4.00000
-16.20000 6.99999 -13.50000
-16.20000 6.99999 -12.50000
-15.70000 6.49999 -11.50000
-16.20000 6.99999 -11.50000
-16.20000 6.49999 -11.00000
-16.20000 6.99999 -3.50000
-15.70000 6.49999 -3.50000
-16.20000 6.49999 -3.00000
-16.20000 5.99999 -10.50000
-16.20000 5.49999 -10.00000
-16.20000 5.99999 -2.50000
-15.70000 5.49999 -2.50000
-16.20000 5.99999 -1.50000
-15.70000 5.49999 -1.50000
-16.20000 5.49999 -1.00000
-16.20000 4.99999 -9.50000
-15.70000 4.49999 -8.50000
-16.20000 4.49999 -9.00000
-15.70000 4.49999 -1.50000
-16.20000 4.49999 -1.00000
-16.20000 3.99999 -8.50000
-16.20000 3.99999 -7.50000
-16.20000 3.49999 -7.00000
-15.70000 3.49999 -1.50000
-16.20000 3.49999 -1.00000
-16.20000 2.99999 -6.50000
-15.70000 2.49999 -5.50000
-16.20000 2.49999 -6.00000
-15.70000 2.49999 -1.50000
-16.20000 2.49999 -1.00000
-16.20000 1.99999 -5.50000
-16.20000 1.99999 -4.50000
-15.70000 1.49999 -3.50000
-16.20000 1.49999 -4.00000
-15.70000 1.49999 -2.50000
-15.70000 1.49999 -1.50000
-16.20000 1.49999 -1.00000
-16.20000 0.99999 -3.50000
-16.20000 0.99999 -2.50000
-16.20000 0.99999 -1.50000
-17.20000 10.49999 -14.00000
-17.20000 10.99999 -13.50000
-17.20000 10.99999 -12.50000
-17.20000 10.99999 -11.50000
-17.20000 10.99999 -10.50000
-17.20000 10.99999 -9.50000
-17.20000 10.49999 -9.00000
-17.20000 9.49999 -14.00000
-17.20000 9.99999 -8.50000
-17.20000 9.99999 -7.50000
-17.20000 9.99999 -6.50000
-17.20000 9.99999 -5.50000
-16.70000 9.49999 -5.50000
-17.20000 9.49999 -5.00000
-17.20000 8.49999 -14.00000
-17.20000 8.99999 -4.50000
-17.20000 8.49999 -4.00000
-17.20000 7.49999 -14.00000
-17.20000 7.99999 -3.50000
-16.70000 7.49999 -3.50000
-17.20000 7.49999 -3.00000
-17.20000 6.99999 -13.50000
-17.20000 6.99999 -12.50000
-17.20000 6.99999 -11.50000
-17.20000 6.49999 -11.00000
-17.20000 6.49999 -3.00000
-17.20000 5.99999 -10.50000
-17.20000 5.49999 -10.00000
-17.20000 5.99999 -2.50000
-17.20000 5.99999 -1.50000
-17.20000 5.49999 -1.00000
-17.20000 4.99999 -9.50000
-17.20000 4.49999 -9.00000
-17.20000 4.99999 -0.50000
-16.70000 4.49999 -0.50000
-17.20000 4.49999 0.00000
-17.20000 3.99999 -8.50000
-16.70000 3.49999 -7.50000
-17.20000 3.49999 -8.00000
-16.70000 3.49999 -0.50000
-17.20000 3.49999 0.00000
-17.20000 2.99999 -7.50000
-16.70000 2.49999 -6.50000
-17.20000 2.49999 -7.00000
-17.20000 2.99999 -0.50000
-17.20000 2.49999 -1.00000
-17.20000 1.99999 -6.50000
-17.20000 1.99999 -5.50000
-16.70000 1.49999 -4.50000
-17.20000 1.49999 -5.00000
-17.20000 1.49999 -1.00000
-17.20000 0.99999 -4.50000
-17.20000 0.99999 -3.50000
-16.70000 0.49999 -2.50000
-17.20000 0.49999 -3.00000
-16.70000 0.49999 -1.50000
-17.20000 0.49999 -1.00000
-17.20000 -0.00001 -2.50000
-17.20000 -0.00001 -1.50000
-17.70000 10.49999 -14.50000
-18.20000 10.49999 -15.00000
-18.20000 10.99999 -14.50000
-18.20000 10.99999 -13.50000
-18.20000 10.99999 -12.50000
-18.20000 10.99999 -11.50000
-18.20000 10.99999 -10.50000
-18.20000 10.99999 -9.50000
-18.20000 10.99999 -8.50000
-17.70000 10.49999 -8.50000
-18.20000 10.99999 -7.50000
-17.70000 10.49999 -7.50000
-18.20000 10.49999 -7.00000
-17.70000 9.49999 -14.50000
-18.20000 9.49999 -15.00000
-18.20000 9.99999 -6.50000
-18.20000 9.99999 -5.50000
-18.20000 9.49999 -5.00000
-17.70000 8.49999 -14.50000
-18.20000 8.49999 -15.00000
-18.20000 8.99999 -4.50000
-18.20000 8.49999 -4.00000
-17.70000 7.49999 -14.50000
-18.20000 7.49999 -15.00000
-18.20000 7.99999 -3.50000
-18.20000 7.49999 -3.00000
-18.20000 6.99999 -14.50000
-18.20000 6.99999 -13.50000
-18.20000 6.99999 -12.50000
-17.70000 6.49999 -11.50000
-18.20000 6.49999 -12.00000
-18.20000 6.99999 -2.50000
-17.70000 6.49999 -2.50000
-18.20000 6.99999 -1.50000
-17.70000 6.49999 -1.50000
-18.20000 6.49999 -1.00000
-18.20000 5.99999 -11.50000
-18.20000 5.99999 -10.50000
-18.20000 5.49999 -10.00000
-18.20000 5.49999 -1.00000
-18.20000 4.99999 -9.50000
-18.20000 4.49999 -9.00000
-18.20000 4.99999 -0.50000
-18.20000 4.49999 0.00000
-18.20000 3.99999 -8.50000
-18.20000 3.49999 -8.00000
-18.20000 3.49999 0.00000
-18.20000 2.99999 -7.50000
-18.20000 2.49999 -7.00000
-17.70000 2.49999 -0.50000
-18.20000 2.49999 0.00000
-18.20000 1.99999 -6.50000
-17.70000 1.49999 -5.50000
-18.20000 1.49999 -6.00000
-18.20000 1.99999 -0.50000
-18.20000 1.49999 -1.00000
-18.20000 0.99999 -5.50000
-18.20000 0.99999 -4.50000
-17.70000 0.49999 -3.50000
-18.20000 0.49999 -4.00000
-18.20000 0.49999 -1.00000
-18.20000 -0.00001 -3.50000
-18.20000 -0.00001 -2.50000
-18.20000 -0.00001 -1.50000
-18.70000 11.49999 -10.50000
-19.20000 11.49999 -11.00000
-19.20000 11.99999 -10.50000
-19.20000 11.99999 -9.50000
-18.70000 11.49999 -9.50000
-19.20000 11.49999 -9.00000
-19.20000 10.49999 -15.00000
-19.20000 10.99999 -14.50000
-19.20000 10.99999 -13.50000
-19.20000 10.99999 -12.50000
-19.20000 10.99999 -11.50000
-19.20000 10.99999 -8.50000
-19.20000 10.99999 -7.50000
-19.20000 10.49999 -7.00000
-19.20000 9.49999 -15.00000
-19.20000 9.99999 -6.50000
-19.20000 9.99999 -5.50000
-19.20000 9.49999 -5.00000
-19.20000 8.49999 -15.00000
-19.20000 8.99999 -4.50000
-19.20000 8.99999 -3.50000
-18.70000 8.49999 -3.50000
-19.20000 8.49999 -3.00000
-19.20000 7.99999 -14.50000
-18.70000 7.49999 -14.50000
-19.20000 7.49999 -14.00000
-19.20000 7.49999 -3.00000
-19.20000 6.99999 -13.50000
-19.20000 6.99999 -12.50000
-19.20000 6.49999 -12.00000
-19.20000 6.99999 -2.50000
-19.20000 6.99999 -1.50000
-19.20000 6.49999 -1.00000
-19.20000 5.99999 -11.50000
-19.20000 5.99999 -10.50000
-19.20000 5.49999 -10.00000
-19.20000 5.99999 -0.50000
-18.70000 5.49999 -0.50000
-19.20000 5.49999 0.00000
-19.20000 4.99999 -9.50000
-19.20000 4.49999 -9.00000
-19.20000 4.49999 0.00000
-19.20000 3.99999 -8.50000
-19.20000 3.49999 -8.00000
-19.20000 3.99999 0.50000
-18.70000 3.49999 0.50000
-19.20000 3.49999 1.00000
-19.20000 2.99999 -7.50000
-19.20000 2.49999 -7.00000
-18.70000 2.49999 0.50000
-19.20000 2.49999 1.00000
-19.20000 1.99999 -6.50000
-19.20000 1.49999 -6.00000
-18.70000 1.49999 -0.50000
-18.70000 1.49999 0.50000
-19.20000 1.49999 1.00000
-19.20000 0.99999 -5.50000
-19.20000 0.99999 -4.50000
-19.20000 0.49999 -4.00000
-18.70000 0.49999 -0.50000
-19.20000 0.49999 0.00000
-19.20000 0.99999 0.50000
-19.20000 -0.00001 -3.50000
-19.20000 -0.00001 -2.50000
-19.20000 -0.00001 -1.50000
-19.20000 -0.00001 -0.50000
-19.70000 11.49999 -15.50000
-20.20000 11.49999 -16.00000
-20.20000 11.99999 -15.50000
-20.20000 11.99999 -14.50000
-19.70000 11.49999 -14.50000
-20.20000 11.99999 -13.50000
-19.70000 11.49999 -13.50000
-20.20000 11.99999 -12.50000
-19.70000 11.49999 -12.50000
-20.20000 11.99999 -11.50000
-19.70000 11.49999 -11.50000
-20.20000 11.99999 -10.50000
-20.20000 11.99999 -9.50000
-20.20000 11.99999 -8.50000
-19.70000 11.49999 -8.50000
-20.20000 11.49999 -8.00000
-19.70000 10.49999 -15.50000
-20.20000 10.49999 -16.00000
-20.20000 10.99999 -7.50000
-20.20000 10.49999 -7.00000
-19.70000 9.49999 -15.50000
-20.20000 9.49999 -16.00000
-20.20000 9.99999 -6.50000
-20.20000 9.99999 -5.50000
-20.20000 9.49999 -5.00000
-19.70000 8.49999 -15.50000
-20.20000 8.49999 -16.00000
-20.20000 8.99999 -4.50000
-19.70000 8.49999 -3.50000
-20.20000 8.49999 -4.00000
-20.20000 7.99999 -15.50000
-20.20000 7.99999 -14.50000
-20.20000 7.49999 -14.00000
-20.20000 7.99999 -3.50000
-20.20000 7.99999 -2.50000
-19.70000 7.49999 -2.50000
-20.20000 7.49999 -2.00000
-20.20000 6.99999 -13.50000
-20.20000 6.99999 -12.50000
-20.20000 6.49999 -12.00000
-20.20000 6.99999 -1.50000
-20.20000 6.49999 -1.00000
-20.20000 5.99999 -11.50000
-20.20000 5.99999 -10.50000
-20.20000 5.49999 -10.00000
-20.20000 5.99999 -0.50000
-20.20000 5.49999 0.00000
-20.20000 4.99999 -9.50000
-20.20000 4.49999 -9.00000
-20.20000 4.99999 0.50000
-19.70000 4.49999 0.50000
-20.20000 4.49999 1.00000
-20.20000 3.99999 -8.50000
-20.20000 3.49999 -8.00000
-20.20000 3.49999 1.00000
-20.20000 2.99999 -7.50000
-20.20000 2.49999 -7.00000
-20.20000 2.49999 1.00000
-20.20000 1.99999 -6.50000
-20.20000 1.49999 -6.00000
-20.20000 1.49999 1.00000
-20.20000 0.99999 -5.50000
-19.70000 0.49999 -4.50000
-20.20000 0.49999 -5.00000
-19.70000 0.49999 0.50000
-20.20000 0.49999 1.00000
-20.20000 -0.00001 -4.50000
-20.20000 -0.00001 -3.50000
-20.20000 -0.00001 -2.50000
-19.70000 -0.50001 -1.50000
-20.20000 -0.50001 -2.00000
-19.70000 -0.50001 -0.50000
-20.20000 -0.50001 0.00000
-20.20000 -0.00001 0.50000
-20.20000 -1.00001 -1.50000
-20.20000 -1.00001 -0.50000
-21.20000 11.49999 -16.00000
-21.20000 11.99999 -15.50000
-21.20000 11.99999 -14.50000
-21.20000 11.99999 -13.50000
-21.20000 11.99999 -12.50000
-21.20000 11.99999 -11.50000
-21.20000 11.99999 -10.50000
-21.20000 11.99999 -9.50000
-21.20000 11.99999 -8.50000
-21.20000 11.49999 -8.00000
-20.70000 10.49999 -16.50000
-21.20000 10.49999 -17.00000
-21.20000 10.99999 -16.50000
-21.20000 10.99999 -7.50000
-21.20000 10.99999 -6.50000
-20.70000 10.49999 -6.50000
-21.20000 10.49999 -6.00000
-20.70000 9.49999 -16.50000
-21.20000 9.49999 -17.00000
-21.20000 9.99999 -5.50000
-21.20000 9.49999 -5.00000
-20.70000 8.49999 -16.50000
-21.20000 8.49999 -17.00000
-21.20000 8.99999 -4.50000
-21.20000 8.99999 -3.50000
-20.70000 8.49999 -3.50000
-21.20000 8.49999 -3.00000
-21.20000 7.99999 -16.50000
-21.20000 7.99999 -15.50000
-21.20000 7.99999 -14.50000
-21.20000 7.49999 -14.00000
-21.20000 7.99999 -2.50000
-21.20000 7.49999 -2.00000
-21.20000 6.99999 -13.50000
-21.20000 6.99999 -12.50000
-21.20000 6.49999 -12.00000
-21.20000 6.99999 -1.50000
-21.20000 6.49999 -1.00000
-21.20000 5.99999 -11.50000
-21.20000 5.99999 -10.50000
-21.20000 5.49999 -10.00000
-21.20000 5.99999 -0.50000
-21.20000 5.49999 0.00000
-21.20000 4.99999 -9.50000
-21.20000 4.49999 -9.00000
-21.20000 4.99999 0.50000
-21.20000 4.49999 1.00000
-21.20000 3.99999 -8.50000
-21.20000 3.49999 -8.00000
-21.20000 3.49999 1.00000
-21.20000 2.99999 -7.50000
-21.20000 2.49999 -7.00000
-21.20000 2.49999 1.00000
-21.20000 1.99999 -6.50000
-21.20000 1.49999 -6.00000
-21.20000 1.99999 1.50000
-20.70000 1.49999 1.50000
-21.20000 1.49999 2.00000
-21.20000 0.99999 -5.50000
-21.20000 0.49999 -5.00000
-21.20000 0.99999 1.50000
-21.20000 0.49999 1.00000
-21.20000 -0.00001 -4.50000
-21.20000 -0.00001 -3.50000
-20.70000 -0.50001 -2.50000
-21.20000 -0.50001 -3.00000
-20.70000 -0.50001 0.50000
-21.20000 -0.50001 1.00000
-21.20000 -1.00001 -2.50000
-21.20000 -1.00001 -1.50000
-20.70000 -1.50001 -0.50000
-21.20000 -1.50001 -1.00000
-21.20000 -1.50001 0.00000
-21.20000 -1.00001 0.50000
-21.20000 -2.00001 -0.50000
-22.20000 11.49999 -16.00000
-22.20000 11.99999 -15.50000
-22.20000 11.99999 -14.50000
-22.20000 11.99999 -13.50000
-22.20000 11.99999 -12.50000
-22.20000 11.99999 -11.50000
-22.20000 11.99999 -10.50000
-22.20000 11.99999 -9.50000
-22.20000 11.99999 -8.50000
-22.20000 11.99999 -7.50000
-21.70000 11.49999 -7.50000
-22.20000 11.49999 -7.00000
-22.20000 10.49999 -17.00000
-22.20000 10.99999 -16.50000
-22.20000 10.99999 -6.50000
-22.20000 10.49999 -6.00000
-22.20000 9.49999 -17.00000
-22.20000 9.99999 -5.50000
-22.20000 9.49999 -5.00000
-22.20000 8.99999 -16.50000
-21.70000 8.49999 -16.50000
-21.70000 8.49999 -15.50000
-22.20000 8.99999 -15.50000
-22.20000 8.49999 -15.00000
-22.20000 8.99999 -4.50000
-22.20000 8.99999 -3.50000
-22.20000 8.49999 -3.00000
-22.20000 7.99999 -14.50000
-22.20000 7.49999 -14.00000
-22.20000 7.99999 -2.50000
-22.20000 7.99999 -1.50000
-21.70000 7.49999 -1.50000
-22.20000 7.49999 -1.00000
-22.20000 6.99999 -13.50000
-22.20000 6.99999 -12.50000
-22.20000 6.49999 -12.00000
-22.20000 6.49999 -1.00000
-22.20000 5.99999 -11.50000
-22.20000 5.99999 -10.50000
-22.20000 5.49999 -10.00000
-22.20000 5.99999 -0.50000
-22.20000 5.49999 0.00000
-22.20000 4.99999 -9.50000
-22.20000 4.49999 -9.00000
-22.20000 4.99999 0.50000
-22.20000 4.49999 1.00000
-22.20000 3.99999 -8.50000
-22.20000 3.49999 -8.00000
-22.20000 3.49999 1.00000
-22.20000 2.99999 -7.50000
-22.20000 2.49999 -7.00000
-22.20000 2.49999 1.00000
-22.20000 1.99999 -6.50000
-22.20000 1.49999 -6.00000
-22.20000 1.99999 1.50000
-22.20000 1.49999 2.00000
-22.20000 0.99999 -5.50000
-21.70000 0.49999 -4.50000
-22.20000 0.99999 -4.50000
-22.20000 0.49999 -4.00000
-22.20000 0.99999 1.50000
-22.20000 0.49999 1.00000
-22.20000 -0.00001 -3.50000
-22.20000 -0.50001 -3.00000
-22.20000 -0.50001 1.00000
-22.20000 -1.00001 -2.50000
-22.20000 -1.00001 -1.50000
-22.20000 -1.50001 -1.00000
-21.70000 -1.50001 0.50000
-22.20000 -1.50001 1.00000
-22.20000 -2.00001 -0.50000
-22.20000 -2.00001 0.50000
-23.20000 11.49999 -16.00000
-23.20000 11.99999 -15.50000
-23.20000 11.99999 -14.50000
-23.20000 11.99999 -13.50000
-23.20000 11.99999 -12.50000
-23.20000 11.99999 -11.50000
-23.20000 11.99999 -10.50000
-23.20000 11.99999 -9.50000
-23.20000 11.99999 -8.50000
-23.20000 11.99999 -7.50000
-23.20000 11.49999 -7.00000
-23.20000 10.49999 -17.00000
-23.20000 10.99999 -16.50000
-23.20000 10.99999 -6.50000
-23.20000 10.49999 -6.00000
-23.20000 9.49999 -17.00000
-23.20000 9.99999 -5.50000
-23.20000 9.49999 -5.00000
-23.20000 8.99999 -16.50000
-23.20000 8.99999 -15.50000
-23.20000 8.49999 -15.00000
-23.20000 8.99999 -4.50000
-23.20000 8.99999 -3.50000
-23.20000 8.49999 -3.00000
-23.20000 7.99999 -14.50000
-23.20000 7.49999 -14.00000
-23.20000 7.99999 -2.50000
-22.70000 7.49999 -1.50000
-23.20000 7.49999 -2.00000
-23.20000 6.99999 -13.50000
-23.20000 6.99999 -12.50000
-23.20000 6.49999 -12.00000
-23.20000 6.99999 -1.50000
-23.20000 6.49999 -1.00000
-23.20000 5.99999 -11.50000
-23.20000 5.99999 -10.50000
-23.20000 5.49999 -10.00000
-23.20000 5.99999 -0.50000
-23.20000 5.49999 0.00000
-23.20000 4.99999 -9.50000
-23.20000 4.49999 -9.00000
-23.20000 4.99999 0.50000
-23.20000 4.49999 1.00000
-23.20000 3.99999 -8.50000
-23.20000 3.49999 -8.00000
-23.20000 3.49999 1.00000
-23.20000 2.99999 -7.50000
-22.70000 2.49999 -6.50000
-23.20000 2.99999 -6.50000
-23.20000 2.49999 -6.00000
-23.20000 2.49999 1.00000
-22.70000 1.49999 -5.50000
-23.20000 1.99999 -5.50000
-23.20000 1.49999 -5.00000
-22.70000 1.49999 1.50000
-23.20000 1.49999 1.00000
-23.20000 0.99999 -4.50000
-23.20000 0.49999 -4.00000
-23.20000 0.49999 1.00000
-23.20000 -0.00001 -3.50000
-23.20000 -0.50001 -3.00000
-23.20000 -0.50001 1.00000
-23.20000 -1.00001 -2.50000
-23.20000 -1.00001 -1.50000
-23.20000 -1.50001 -1.00000
-23.20000 -1.50001 1.00000
-23.20000 -2.00001 -0.50000
-23.20000 -2.00001 0.50000
-23.70000 11.49999 -15.50000
-24.20000 11.49999 -15.00000
-24.20000 11.99999 -14.50000
-24.20000 11.99999 -13.50000
-24.20000 11.99999 -12.50000
-24.20000 11.99999 -11.50000
-24.20000 11.99999 -10.50000
-24.20000 11.99999 -9.50000
-24.20000 11.99999 -8.50000
-24.20000 11.99999 -7.50000
-24.20000 11.49999 -7.00000
-23.70000 10.49999 -16.50000
-24.20000 10.49999 -16.00000
-24.20000 10.99999 -15.50000
-24.20000 10.99999 -6.50000
-24.20000 10.49999 -6.00000
-24.20000 9.49999 -17.00000
-24.20000 9.99999 -16.50000
-24.20000 9.99999 -5.50000
-24.20000 9.49999 -5.00000
-23.70000 8.49999 -16.50000
-24.20000 8.49999 -17.00000
-23.70000 8.49999 -15.50000
-24.20000 8.99999 -4.50000
-24.20000 8.99999 -3.50000
-24.20000 8.49999 -3.00000
-24.20000 7.99999 -16.50000
-24.20000 7.99999 -15.50000
-23.70000 7.49999 -14.50000
-24.20000 7.49999 -15.00000
-24.20000 7.99999 -2.50000
-24.20000 7.49999 -2.00000
-24.20000 6.99999 -14.50000
-24.20000 6.99999 -13.50000
-24.20000 6.99999 -12.50000
-24.20000 6.49999 -12.00000
-23.70000 6.49999 -1.50000
-24.20000 6.49999 -2.00000
-24.20000 5.99999 -11.50000
-23.70000 5.49999 -10.50000
-24.20000 5.49999 -11.00000
-24.20000 5.99999 -1.50000
-23.70000 5.49999 -0.50000
-24.20000 5.49999 -1.00000
-24.20000 4.99999 -10.50000
-24.20000 4.99999 -9.50000
-24.20000 4.49999 -9.00000
-24.20000 4.99999 -0.50000
-23.70000 4.49999 0.50000
-24.20000 4.49999 0.00000
-24.20000 3.99999 -8.50000
-24.20000 3.49999 -8.00000
-24.20000 3.99999 0.50000
-24.20000 3.49999 1.00000
-24.20000 2.99999 -7.50000
-24.20000 2.99999 -6.50000
-24.20000 2.49999 -6.00000
-24.20000 2.49999 1.00000
-24.20000 1.99999 -5.50000
-24.20000 1.49999 -5.00000
-24.20000 1.49999 1.00000
-24.20000 0.99999 -4.50000
-24.20000 0.49999 -4.00000
-24.20000 0.49999 1.00000
-24.20000 -0.00001 -3.50000
-23.70000 -0.50001 -2.50000
-24.20000 -0.00001 -2.50000
-24.20000 -0.50001 -2.00000
-24.20000 -0.50001 1.00000
-24.20000 -1.00001 -1.50000
-24.20000 -1.50001 -1.00000
-23.70000 -1.50001 0.50000
-24.20000 -1.00001 0.50000
-24.20000 -1.50001 0.00000
-24.20000 -2.00001 -0.50000
-24.70000 11.49999 -14.50000
-25.20000 11.49999 -14.00000
-25.20000 11.99999 -13.50000
-25.20000 11.99999 -12.50000
-25.20000 11.99999 -11.50000
-25.20000 11.99999 -10.50000
-25.20000 11.99999 -9.50000
-25.20000 11.99999 -8.50000
-24.70000 11.49999 -7.50000
-25.20000 11.49999 -8.00000
-24.70000 10.49999 -15.50000
-25.20000 10.49999 -15.00000
-25.20000 10.99999 -14.50000
-25.20000 10.99999 -7.50000
-25.20000 10.99999 -6.50000
-25.20000 10.49999 -6.00000
-25.20000 9.49999 -17.00000
-25.20000 9.99999 -16.50000
-25.20000 9.99999 -15.50000
-25.20000 9.99999 -5.50000
-25.20000 9.49999 -5.00000
-25.20000 8.49999 -17.00000
-25.20000 8.99999 -4.50000
-25.20000 8.99999 -3.50000
-25.20000 8.49999 -3.00000
-25.20000 7.99999 -16.50000
-25.20000 7.99999 -15.50000
-25.20000 7.49999 -15.00000
-25.20000 7.99999 -2.50000
-25.20000 7.49999 -2.00000
-25.20000 6.99999 -14.50000
-24.70000 6.49999 -13.50000
-25.20000 6.49999 -14.00000
-24.70000 6.49999 -12.50000
-25.20000 6.49999 -2.00000
-25.20000 5.99999 -13.50000
-25.20000 5.99999 -12.50000
-25.20000 5.99999 -11.50000
-25.20000 5.49999 -11.00000
-25.20000 5.99999 -1.50000
-25.20000 5.49999 -1.00000
-25.20000 4.99999 -10.50000
-25.20000 4.99999 -9.50000
-25.20000 4.49999 -9.00000
-25.20000 4.99999 -0.50000
-25.20000 4.49999 0.00000
-25.20000 3.99999 -8.50000
-25.20000 3.49999 -8.00000
-25.20000 3.99999 0.50000
-25.20000 3.49999 1.00000
-25.20000 2.99999 -7.50000
-25.20000 2.99999 -6.50000
-25.20000 2.49999 -6.00000
-25.20000 2.49999 1.00000
-25.20000 1.99999 -5.50000
-24.70000 1.49999 -4.50000
-25.20000 1.99999 -4.50000
-25.20000 1.49999 -4.00000
-25.20000 1.49999 1.00000
-24.70000 0.49999 -3.50000
-25.20000 0.99999 -3.50000
-25.20000 0.49999 -3.00000
-25.20000 0.49999 1.00000
-25.20000 -0.00001 -2.50000
-25.20000 -0.50001 -2.00000
-24.70000 -0.50001 0.50000
-25.20000 -0.00001 0.50000
-25.20000 -0.50001 0.00000
-25.20000 -1.00001 -1.50000
-25.20000 -1.50001 -1.00000
-25.20000 -1.50001 0.00000
-25.20000 -2.00001 -0.50000
-26.20000 11.49999 -14.00000
-26.20000 11.99999 -13.50000
-26.20000 11.99999 -12.50000
-26.20000 11.99999 -11.50000
-26.20000 11.99999 -10.50000
-25.70000 11.49999 -9.50000
-26.20000 11.49999 -10.00000
-25.70000 11.49999 -8.50000
-26.20000 10.49999 -15.00000
-26.20000 10.99999 -14.50000
-26.20000 10.99999 -9.50000
-26.20000 10.99999 -8.50000
-26.20000 10.99999 -7.50000
-25.70000 10.49999 -6.50000
-26.20000 10.49999 -7.00000
-26.20000 9.49999 -17.00000
-26.20000 9.99999 -16.50000
-26.20000 9.99999 -15.50000
-26.20000 9.99999 -6.50000
-26.20000 9.99999 -5.50000
-26.20000 9.49999 -5.00000
-26.20000 8.49999 -17.00000
-26.20000 8.99999 -4.50000
-25.70000 8.49999 -3.50000
-26.20000 8.49999 -4.00000
-26.20000 7.99999 -16.50000
-25.70000 7.49999 -15.50000
-26.20000 7.49999 -16.00000
-26.20000 7.99999 -3.50000
-25.70000 7.49999 -2.50000
-26.20000 7.49999 -3.00000
-26.20000 6.99999 -15.50000
-26.20000 6.99999 -14.50000
-26.20000 6.49999 -14.00000
-25.70000 6.49999 -2.50000
-26.20000 6.49999 -3.00000
-26.20000 5.99999 -13.50000
-26.20000 5.99999 -12.50000
-26.20000 5.99999 -11.50000
-26.20000 5.49999 -11.00000
-26.20000 5.99999 -2.50000
-25.70000 5.49999 -1.50000
-26.20000 5.49999 -2.00000
-26.20000 4.99999 -10.50000
-26.20000 4.99999 -9.50000
-26.20000 4.49999 -9.00000
-26.20000 4.99999 -1.50000
-25.70000 4.49999 -0.50000
-26.20000 4.49999 -1.00000
-26.20000 3.99999 -8.50000
-25.70000 3.49999 -7.50000
-26.20000 3.99999 -7.50000
-26.20000 3.49999 -7.00000
-26.20000 3.99999 -0.50000
-25.70000 3.49999 0.50000
-26.20000 3.49999 0.00000
-26.20000 2.99999 -6.50000
-26.20000 2.49999 -6.00000
-25.70000 2.49999 0.50000
-26.20000 2.49999 0.00000
-26.20000 1.99999 -5.50000
-26.20000 1.99999 -4.50000
-26.20000 1.49999 -4.00000
-25.70000 1.49999 0.50000
-26.20000 1.49999 0.00000
-26.20000 0.99999 -3.50000
-26.20000 0.49999 -3.00000
-25.70000 0.49999 0.50000
-26.20000 0.49999 0.00000
-26.20000 -0.00001 -2.50000
-26.20000 -0.50001 -2.00000
-26.20000 -0.50001 0.00000
-26.20000 -1.00001 -1.50000
-25.70000 -1.50001 -0.50000
-26.20000 -1.00001 -0.50000
-26.70000 11.49999 -13.50000
-27.20000 11.49999 -13.00000
-27.20000 11.99999 -12.50000
-26.70000 11.49999 -11.50000
-27.20000 11.49999 -12.00000
-26.70000 11.49999 -10.50000
-26.70000 10.49999 -14.50000
-27.20000 10.49999 -14.00000
-27.20000 10.99999 -13.50000
-27.20000 10.99999 -11.50000
-27.20000 10.99999 -10.50000
-27.20000 10.99999 -9.50000
-27.20000 10.99999 -8.50000
-26.70000 10.49999 -7.50000
-27.20000 10.49999 -8.00000
-26.70000 9.49999 -16.50000
-27.20000 9.49999 -16.00000
-27.20000 9.99999 -15.50000
-27.20000 9.99999 -14.50000
-27.20000 9.99999 -7.50000
-27.20000 9.99999 -6.50000
-26.70000 9.49999 -5.50000
-27.20000 9.49999 -6.00000
-27.20000 8.49999 -17.00000
-27.20000 8.99999 -16.50000
-27.20000 8.99999 -5.50000
-27.20000 8.99999 -4.50000
-27.20000 8.49999 -4.00000
-27.20000 7.99999 -16.50000
-27.20000 7.49999 -16.00000
-27.20000 7.99999 -3.50000
-27.20000 7.49999 -3.00000
-27.20000 6.99999 -15.50000
-26.70000 6.49999 -14.50000
-27.20000 6.49999 -15.00000
-27.20000 6.49999 -3.00000
-27.20000 5.99999 -14.50000
-27.20000 5.99999 -13.50000
-27.20000 5.99999 -12.50000
-26.70000 5.49999 -11.50000
-27.20000 5.49999 -12.00000
-27.20000 5.99999 -2.50000
-27.20000 5.49999 -2.00000
-27.20000 4.99999 -11.50000
-27.20000 4.99999 -10.50000
-27.20000 4.99999 -9.50000
-27.20000 4.49999 -9.00000
-26.70000 4.49999 -1.50000
-27.20000 4.49999 -2.00000
-27.20000 3.99999 -8.50000
-27.20000 3.99999 -7.50000
-27.20000 3.49999 -7.00000
-27.20000 3.99999 -1.50000
-26.70000 3.49999 -0.50000
-27.20000 3.49999 -1.00000
-27.20000 2.99999 -6.50000
-26.70000 2.49999 -5.50000
-27.20000 2.99999 -5.50000
-27.20000 2.49999 -5.00000
-27.20000 2.99999 -0.50000
-27.20000 2.49999 0.00000
-27.20000 1.99999 -4.50000
-27.20000 1.49999 -4.00000
-27.20000 1.49999 0.00000
-27.20000 0.99999 -3.50000
-27.20000 0.49999 -3.00000
-27.20000 0.49999 0.00000
-27.20000 -0.00001 -2.50000
-27.20000 -0.50001 -2.00000
-26.70000 -0.50001 -0.50000
-27.20000 -0.00001 -0.50000
-27.20000 -0.50001 -1.00000
-27.20000 -1.00001 -1.50000
-27.70000 11.49999 -12.50000
-27.70000 10.49999 -13.50000
-28.20000 10.49999 -13.00000
-28.20000 10.99999 -12.50000
-28.20000 10.99999 -11.50000
-28.20000 10.99999 -10.50000
-28.20000 10.99999 -9.50000
-27.70000 10.49999 -8.50000
-28.20000 10.49999 -9.00000
-28.20000 9.49999 -16.00000
-28.20000 9.99999 -15.50000
-28.20000 9.99999 -14.50000
-28.20000 9.99999 -13.50000
-28.20000 9.99999 -8.50000
-28.20000 9.99999 -7.50000
-27.70000 9.49999 -6.50000
-28.20000 9.49999 -7.00000
-27.70000 8.49999 -16.50000
-28.20000 8.49999 -16.00000
-28.20000 8.99999 -6.50000
-28.20000 8.99999 -5.50000
-27.70000 8.49999 -4.50000
-28.20000 8.49999 -5.00000
-28.20000 7.49999 -16.00000
-28.20000 7.99999 -4.50000
-28.20000 7.99999 -3.50000
-28.20000 7.49999 -3.00000
-28.20000 6.99999 -15.50000
-28.20000 6.49999 -15.00000
-28.20000 6.49999 -3.00000
-28.20000 5.99999 -14.50000
-28.20000 5.99999 -13.50000
-27.70000 5.49999 -12.50000
-28.20000 5.49999 -13.00000
-27.70000 5.49999 -2.50000
-28.20000 5.49999 -3.00000
-28.20000 4.99999 -12.50000
-28.20000 4.99999 -11.50000
-28.20000 4.99999 -10.50000
-27.70000 4.49999 -9.50000
-28.20000 4.49999 -10.00000
-28.20000 4.99999 -2.50000
-28.20000 4.49999 -2.00000
-28.20000 3.99999 -9.50000
-28.20000 3.99999 -8.50000
-28.20000 3.99999 -7.50000
-28.20000 3.49999 -7.00000
-28.20000 3.99999 -1.50000
-28.20000 3.49999 -1.00000
-28.20000 2.99999 -6.50000
-28.20000 2.99999 -5.50000
-27.70000 2.49999 -4.50000
-28.20000 2.99999 -4.50000
-28.20000 2.49999 -4.00000
-27.70000 2.49999 -0.50000
-28.20000 2.49999 -1.00000
-28.20000 1.49999 -4.00000
-28.20000 1.99999 -0.50000
-28.20000 1.49999 0.00000
-28.20000 0.99999 -3.50000
-27.70000 0.49999 -2.50000
-28.20000 0.99999 -2.50000
-28.20000 0.49999 -2.00000
-27.70000 0.49999 -0.50000
-28.20000 0.99999 -0.50000
-28.20000 0.49999 -1.00000
-27.70000 -0.50001 -1.50000
-28.20000 -0.00001 -1.50000
-28.70000 10.49999 -12.50000
-28.70000 10.49999 -11.50000
-29.20000 10.49999 -11.00000
-29.20000 10.99999 -10.50000
-28.70000 10.49999 -9.50000
-29.20000 10.49999 -10.00000
-28.70000 9.49999 -15.50000
-29.20000 9.49999 -15.00000
-29.20000 9.99999 -14.50000
-29.20000 9.99999 -13.50000
-29.20000 9.99999 -12.50000
-29.20000 9.99999 -11.50000
-29.20000 9.99999 -9.50000
-29.20000 9.99999 -8.50000
-28.70000 9.49999 -7.50000
-29.20000 9.49999 -8.00000
-29.20000 8.49999 -16.00000
-29.20000 8.99999 -15.50000
-29.20000 8.99999 -7.50000
-29.20000 8.99999 -6.50000
-29.20000 8.99999 -5.50000
-29.20000 8.49999 -5.00000
-29.20000 7.49999 -16.00000
-29.20000 7.99999 -4.50000
-28.70000 7.49999 -3.50000
-29.20000 7.49999 -4.00000
-29.20000 6.99999 -15.50000
-29.20000 6.49999 -15.00000
-29.20000 6.99999 -3.50000
-29.20000 6.49999 -3.00000
-29.20000 5.99999 -14.50000
-29.20000 5.99999 -13.50000
-28.70000 5.49999 -12.50000
-29.20000 5.99999 -12.50000
-29.20000 5.49999 -12.00000
-29.20000 5.49999 -3.00000
-29.20000 4.99999 -11.50000
-29.20000 4.99999 -10.50000
-29.20000 4.49999 -10.00000
-28.70000 4.49999 -2.50000
-29.20000 4.49999 -3.00000
-29.20000 3.99999 -9.50000
-29.20000 3.99999 -8.50000
-29.20000 3.99999 -7.50000
-28.70000 3.49999 -6.50000
-29.20000 3.99999 -6.50000
-29.20000 3.49999 -6.00000
-28.70000 3.49999 -2.50000
-29.20000 3.49999 -3.00000
-28.70000 3.49999 -1.50000
-29.20000 2.99999 -5.50000
-29.20000 2.99999 -4.50000
-29.20000 2.49999 -4.00000
-28.70000 2.49999 -2.50000
-29.20000 2.49999 -3.00000
-28.70000 2.49999 -1.50000
-29.20000 1.99999 -3.50000
-28.70000 1.49999 -3.50000
-28.70000 1.49999 -2.50000
-28.70000 1.49999 -1.50000
-28.70000 1.49999 -0.50000
-28.70000 0.49999 -1.50000
-29.70000 10.49999 -10.50000
-29.70000 9.49999 -14.50000
-29.70000 9.49999 -13.50000
-29.70000 9.49999 -12.50000
-30.20000 9.49999 -12.00000
-30.20000 9.99999 -11.50000
-30.20000 9.99999 -10.50000
-30.20000 9.99999 -9.50000
-30.20000 9.99999 -8.50000
-30.20000 9.49999 -8.00000
-29.70000 8.49999 -15.50000
-30.20000 8.49999 -15.00000
-30.20000 8.99999 -14.50000
-30.20000 8.99999 -13.50000
-30.20000 8.99999 -12.50000
-30.20000 8.99999 -7.50000
-30.20000 8.99999 -6.50000
-29.70000 8.49999 -5.50000
-30.20000 8.49999 -6.00000
-29.70000 7.49999 -15.50000
-30.20000 7.49999 -15.00000
-30.20000 7.99999 -5.50000
-29.70000 7.49999 -4.50000
-30.20000 7.49999 -5.00000
-29.70000 6.49999 -14.50000
-30.20000 6.99999 -14.50000
-30.20000 6.49999 -14.00000
-30.20000 6.99999 -4.50000
-29.70000 6.49999 -3.50000
-30.20000 6.49999 -4.00000
-30.20000 5.99999 -13.50000
-30.20000 5.99999 -12.50000
-30.20000 5.49999 -12.00000
-29.70000 5.49999 -4.50000
-30.20000 5.99999 -4.50000
-30.20000 5.49999 -5.00000
-29.70000 5.49999 -3.50000
-30.20000 4.99999 -11.50000
-30.20000 4.99999 -10.50000
-29.70000 4.49999 -9.50000
-30.20000 4.99999 -9.50000
-30.20000 4.49999 -9.00000
-29.70000 4.49999 -5.50000
-30.20000 4.99999 -5.50000
-30.20000 4.49999 -6.00000
-29.70000 4.49999 -4.50000
-29.70000 4.49999 -3.50000
-30.20000 3.99999 -8.50000
-30.20000 3.99999 -7.50000
-30.20000 3.99999 -6.50000
-29.70000 3.49999 -5.50000
-29.70000 3.49999 -4.50000
-29.70000 3.49999 -3.50000
-29.70000 2.49999 -3.50000
-30.70000 9.49999 -11.50000
-30.70000 9.49999 -10.50000
-30.70000 9.49999 -9.50000
-30.70000 9.49999 -8.50000
-30.70000 8.49999 -14.50000
-30.70000 8.49999 -13.50000
-31.20000 8.49999 -13.00000
-31.20000 8.99999 -12.50000
-31.20000 8.99999 -11.50000
-31.20000 8.99999 -10.50000
-31.20000 8.99999 -9.50000
-31.20000 8.99999 -8.50000
-31.20000 8.99999 -7.50000
-30.70000 8.49999 -6.50000
-31.20000 8.49999 -7.00000
-30.70000 7.49999 -14.50000
-31.20000 7.49999 -14.00000
-31.20000 7.99999 -13.50000
-31.20000 7.99999 -6.50000
-31.20000 7.99999 -5.50000
-31.20000 7.49999 -5.00000
-30.70000 6.49999 -13.50000
-31.20000 6.99999 -13.50000
-31.20000 6.49999 -13.00000
-30.70000 6.49999 -4.50000
-31.20000 6.49999 -5.00000
-31.20000 5.99999 -12.50000
-31.20000 5.49999 -12.00000
-30.70000 5.49999 -6.50000
-31.20000 5.99999 -6.50000
-31.20000 5.49999 -7.00000
-30.70000 5.49999 -5.50000
-31.20000 5.99999 -5.50000
-31.20000 4.99999 -11.50000
-31.20000 4.99999 -10.50000
-31.20000 4.99999 -9.50000
-30.70000 4.49999 -8.50000
-31.20000 4.99999 -8.50000
-30.70000 4.49999 -7.50000
-31.20000 4.99999 -7.50000
-30.70000 4.49999 -6.50000
-31.70000 8.49999 -12.50000
-31.70000 8.49999 -11.50000
-31.70000 8.49999 -10.50000
-31.70000 8.49999 -9.50000
-31.70000 8.49999 -8.50000
-31.70000 8.49999 -7.50000
-31.70000 7.49999 -13.50000
-31.70000 7.49999 -12.50000
-31.70000 7.49999 -11.50000
-31.70000 7.49999 -10.50000
-31.70000 7.49999 -9.50000
-31.70000 7.49999 -8.50000
-31.70000 7.49999 -7.50000
-31.70000 7.49999 -6.50000
-31.70000 7.49999 -5.50000
-31.70000 6.49999 -12.50000
-31.70000 6.49999 -11.50000
-31.70000 6.49999 -10.50000
-31.70000 6.49999 -9.50000
-31.70000 6.49999 -8.50000
-31.70000 6.49999 -7.50000
-31.70000 6.49999 -6.50000
-31.70000 6.49999 -5.50000
-31.70000 5.49999 -11.50000
-31.70000 5.49999 -10.50000
-31.70000 5.49999 -9.50000
-31.70000 5.49999 -8.50000
-31.70000 5.49999 -7.50000
3 2 1 0
3 4 3 0
3 0 3 2
3 4 5 3
3 0 1 6
3 6 1 7
3 0 8 4
3 0 6 8
3 5 4 9
3 4 10 9
3 4 8 10
3 12 11 10
3 10 11 9
3 12 13 11
3 7 14 6
3 16 15 14
3 15 6 14
3 15 8 6
3 8 17 10
3 8 15 17
3 10 18 12
3 10 17 18
3 13 12 19
3 12 20 19
3 12 18 20
3 20 21 19
3 16 22 15
3 15 22 17
3 17 22 23
3 25 24 23
3 24 17 23
3 24 18 17
3 18 26 20
3 18 24 26
3 21 20 27
3 27 20 26
3 25 28 24
3 24 28 26
3 26 28 29
3 26 29 27
3 32 31 30
3 34 33 30
3 30 33 32
3 36 35 34
3 34 35 33
3 36 37 35
3 30 31 38
3 38 31 39
3 30 40 34
3 30 38 40
3 34 41 36
3 34 40 41
3 37 36 42
3 36 43 42
3 36 41 43
3 43 44 42
3 38 39 45
3 45 39 46
3 38 47 40
3 38 45 47
3 47 1 2
3 41 47 2
3 40 47 41
3 41 2 3
3 41 3 43
3 49 48 5
3 5 48 3
3 48 44 3
3 44 43 3
3 49 50 48
3 46 51 45
3 53 52 51
3 52 45 51
3 52 47 45
3 52 7 1
3 52 1 47
3 9 49 5
3 54 50 49
3 9 54 49
3 11 54 9
3 11 13 54
3 54 13 55
3 53 56 52
3 52 56 7
3 56 14 7
3 56 57 14
3 16 14 57
3 16 57 58
3 59 55 13
3 59 13 19
3 19 21 59
3 59 21 60
3 58 61 16
3 16 61 22
3 22 62 23
3 61 62 22
3 25 23 62
3 25 62 63
3 27 65 64
3 60 27 64
3 21 27 60
3 65 66 64
3 63 67 25
3 25 67 28
3 28 68 29
3 67 68 28
3 27 29 65
3 29 69 65
3 29 68 69
3 65 69 66
3 72 71 70
3 74 73 70
3 70 73 72
3 76 75 74
3 74 75 73
3 76 77 75
3 80 79 78
3 80 78 71
3 71 78 70
3 78 31 70
3 31 32 70
3 70 32 33
3 70 33 74
3 74 33 35
3 74 35 76
3 82 81 37
3 37 81 35
3 81 77 35
3 77 76 35
3 84 83 82
3 82 83 81
3 84 85 83
3 78 79 86
3 86 79 87
3 86 39 31
3 86 31 78
3 42 82 37
3 82 42 44
3 88 82 44
3 84 82 88
3 85 84 89
3 89 84 88
3 87 90 86
3 39 86 90
3 91 39 90
3 46 39 91
3 48 88 44
3 93 92 50
3 50 92 48
3 92 89 48
3 89 88 48
3 93 94 92
3 91 95 46
3 46 95 51
3 53 51 95
3 53 95 96
3 54 93 50
3 98 97 55
3 55 97 54
3 97 94 54
3 94 93 54
3 98 99 97
3 96 100 53
3 53 100 56
3 56 101 57
3 100 101 56
3 58 57 101
3 58 101 102
3 59 98 55
3 104 103 60
3 60 103 59
3 103 99 59
3 99 98 59
3 104 105 103
3 102 106 58
3 58 106 61
3 106 108 107
3 62 106 107
3 61 106 62
3 107 63 62
3 64 104 60
3 110 109 66
3 66 109 64
3 109 105 64
3 105 104 64
3 110 111 109
3 108 112 107
3 107 112 63
3 112 67 63
3 112 113 67
3 67 114 68
3 113 114 67
3 114 116 115
3 69 114 115
3 68 114 69
3 110 66 69
3 115 110 69
3 117 110 115
3 111 110 118
3 118 110 117
3 116 119 115
3 115 119 117
3 117 119 120
3 117 120 118
3 123 122 121
3 71 72 121
3 72 123 121
3 72 124 123
3 125 72 73
3 125 124 72
3 126 73 75
3 126 125 73
3 128 127 77
3 127 75 77
3 127 126 75
3 128 129 127
3 121 122 80
3 122 79 80
3 122 130 79
3 121 80 71
3 81 128 77
3 131 129 128
3 81 131 128
3 83 131 81
3 133 132 85
3 132 83 85
3 132 131 83
3 133 134 132
3 136 87 135
3 87 130 135
3 87 79 130
3 137 136 135
3 89 138 133
3 89 133 85
3 134 133 139
3 139 133 138
3 136 90 87
3 91 90 136
3 137 91 136
3 140 91 137
3 92 138 89
3 142 141 94
3 94 141 92
3 141 139 92
3 139 138 92
3 144 143 142
3 142 143 141
3 144 145 143
3 140 146 91
3 91 146 95
3 96 95 146
3 96 146 147
3 97 142 94
3 142 97 99
3 148 142 99
3 144 142 148
3 145 144 149
3 144 150 149
3 144 148 150
3 150 151 149
3 147 152 96
3 96 152 100
3 100 153 101
3 152 153 100
3 102 101 153
3 102 153 154
3 103 148 99
3 148 103 105
3 155 148 105
3 150 148 155
3 151 150 156
3 150 157 156
3 150 155 157
3 157 158 156
3 154 159 102
3 102 159 106
3 161 160 108
3 106 161 108
3 159 161 106
3 162 160 161
3 109 155 105
3 155 109 111
3 163 155 111
3 157 155 163
3 158 157 164
3 164 157 163
3 160 112 108
3 162 165 160
3 165 112 160
3 165 113 112
3 165 167 166
3 114 165 166
3 113 165 114
3 166 116 114
3 118 168 163
3 118 163 111
3 164 163 169
3 169 163 168
3 167 170 166
3 166 170 116
3 170 119 116
3 170 171 119
3 119 172 120
3 171 172 119
3 118 120 168
3 120 173 168
3 120 172 173
3 168 173 169
3 175 174 123
3 123 174 122
3 176 123 124
3 176 175 123
3 177 124 125
3 177 176 124
3 178 125 126
3 178 177 125
3 179 126 127
3 179 178 126
3 127 129 179
3 179 129 180
3 174 130 122
3 181 130 174
3 182 180 129
3 182 129 131
3 183 131 132
3 183 182 131
3 185 184 134
3 184 132 134
3 184 183 132
3 185 186 184
3 181 187 130
3 130 187 135
3 137 135 187
3 137 187 188
3 139 189 185
3 139 185 134
3 186 185 190
3 185 191 190
3 185 189 191
3 191 192 190
3 188 140 137
3 193 140 188
3 141 189 139
3 189 141 143
3 189 143 191
3 195 194 145
3 145 194 143
3 194 192 143
3 192 191 143
3 195 196 194
3 193 197 140
3 140 197 146
3 147 146 197
3 147 197 198
3 149 195 145
3 149 151 195
3 151 196 195
3 151 199 196
3 198 200 147
3 147 200 152
3 152 201 153
3 200 201 152
3 154 153 201
3 154 201 202
3 203 199 151
3 203 151 156
3 156 158 203
3 203 158 204
3 202 205 154
3 154 205 159
3 159 206 161
3 205 206 159
3 162 161 206
3 162 206 207
3 164 209 208
3 204 164 208
3 158 164 204
3 209 210 208
3 207 211 162
3 162 211 165
3 167 165 211
3 167 211 212
3 169 213 209
3 169 209 164
3 210 209 214
3 214 209 213
3 212 215 167
3 167 215 170
3 170 216 171
3 215 216 170
3 216 218 217
3 172 216 217
3 171 216 172
3 219 173 172
3 219 172 217
3 213 169 173
3 219 213 173
3 220 213 219
3 214 213 221
3 221 213 220
3 218 222 217
3 217 222 219
3 219 222 223
3 219 223 220
3 220 223 224
3 220 224 221
3 226 225 175
3 175 225 174
3 227 175 176
3 227 226 175
3 228 176 177
3 228 227 176
3 229 177 178
3 229 228 177
3 230 178 179
3 230 229 178
3 179 180 230
3 230 180 231
3 225 181 174
3 232 181 225
3 233 231 180
3 233 180 182
3 234 182 183
3 234 233 182
3 235 183 184
3 235 234 183
3 184 186 235
3 235 186 236
3 187 181 237
3 181 238 237
3 181 232 238
3 237 188 187
3 239 236 186
3 239 186 190
3 241 240 192
3 240 190 192
3 240 239 190
3 241 242 240
3 237 238 243
3 243 238 244
3 243 193 188
3 243 188 237
3 194 241 192
3 194 196 241
3 196 242 241
3 196 245 242
3 244 246 243
3 243 246 193
3 246 197 193
3 246 247 197
3 249 248 198
3 197 249 198
3 247 249 197
3 250 248 249
3 199 252 251
3 245 199 251
3 196 199 245
3 252 253 251
3 248 200 198
3 250 254 248
3 254 200 248
3 254 201 200
3 202 201 254
3 202 254 255
3 203 252 199
3 257 256 204
3 204 256 203
3 256 253 203
3 253 252 203
3 259 258 257
3 257 258 256
3 259 260 258
3 255 261 202
3 202 261 205
3 261 263 262
3 206 261 262
3 205 261 206
3 262 207 206
3 208 257 204
3 257 208 210
3 264 257 210
3 259 257 264
3 260 259 265
3 265 259 264
3 263 266 262
3 262 266 207
3 266 211 207
3 266 267 211
3 212 211 267
3 212 267 268
3 214 269 264
3 214 264 210
3 265 264 270
3 270 264 269
3 268 271 212
3 212 271 215
3 271 273 272
3 216 271 272
3 215 271 216
3 272 218 216
3 221 274 269
3 221 269 214
3 270 269 275
3 275 269 274
3 273 276 272
3 272 276 218
3 276 222 218
3 276 277 222
3 277 279 278
3 223 277 278
3 222 277 223
3 280 224 223
3 280 223 278
3 274 221 224
3 280 274 224
3 281 274 280
3 275 274 282
3 282 274 281
3 279 283 278
3 278 283 280
3 280 283 284
3 280 284 281
3 281 284 285
3 281 285 282
3 287 286 226
3 226 286 225
3 288 226 227
3 288 287 226
3 289 227 228
3 289 288 227
3 290 228 229
3 290 289 228
3 291 229 230
3 291 290 229
3 230 231 291
3 291 231 292
3 286 232 225
3 293 232 286
3 294 292 231
3 294 231 233
3 295 233 234
3 295 294 233
3 296 234 235
3 296 295 234
3 298 297 236
3 297 235 236
3 297 296 235
3 298 299 297
3 293 238 232
3 300 238 293
3 239 298 236
3 301 299 298
3 239 301 298
3 240 301 239
3 240 242 301
3 301 242 302
3 300 244 238
3 303 244 300
3 245 305 304
3 302 245 304
3 242 245 302
3 305 306 304
3 303 307 244
3 244 307 246
3 246 308 247
3 307 308 246
3 247 309 249
3 308 309 247
3 250 249 309
3 250 309 310
3 251 305 245
3 251 253 305
3 253 306 305
3 253 311 306
3 310 312 250
3 250 312 254
3 255 254 312
3 255 312 313
3 314 311 253
3 314 253 256
3 315 256 258
3 315 314 256
3 258 260 315
3 315 260 316
3 313 317 255
3 255 317 261
3 263 261 317
3 263 317 318
3 265 320 319
3 316 265 319
3 260 265 316
3 320 321 319
3 318 322 263
3 263 322 266
3 322 324 323
3 267 322 323
3 266 322 267
3 323 268 267
3 270 325 320
3 270 320 265
3 321 320 326
3 326 320 325
3 324 327 323
3 327 329 328
3 327 328 271
3 323 327 271
3 268 323 271
3 328 273 271
3 331 330 325
3 270 331 325
3 275 331 270
3 325 330 326
3 329 332 328
3 328 332 273
3 332 276 273
3 332 333 276
3 333 335 334
3 277 333 334
3 276 333 277
3 334 279 277
3 282 331 275
3 282 336 331
3 335 337 334
3 334 337 279
3 337 283 279
3 337 338 283
3 338 340 339
3 284 338 339
3 283 338 284
3 341 285 284
3 341 284 339
3 341 342 285
3 342 282 285
3 342 336 282
3 340 343 339
3 339 343 341
3 341 343 344
3 341 344 342
3 347 346 345
3 286 287 345
3 287 347 345
3 287 348 347
3 349 287 288
3 349 348 287
3 350 288 289
3 350 349 288
3 351 289 290
3 351 350 289
3 352 290 291
3 352 351 290
3 354 353 292
3 353 291 292
3 353 352 291
3 356 355 354
3 354 355 353
3 356 357 355
3 345 346 358
3 358 346 359
3 358 293 286
3 358 286 345
3 294 354 292
3 354 294 295
3 354 295 356
3 360 357 356
3 295 360 356
3 296 360 295
3 361 296 297
3 361 360 296
3 297 299 361
3 361 299 362
3 358 359 363
3 363 359 364
3 363 300 293
3 363 293 358
3 365 362 299
3 365 299 301
3 301 302 365
3 365 302 366
3 363 364 367
3 367 364 368
3 367 303 300
3 367 300 363
3 369 366 302
3 369 302 304
3 304 306 369
3 369 306 370
3 368 371 367
3 367 371 303
3 371 307 303
3 371 372 307
3 307 373 308
3 372 373 307
3 373 375 374
3 309 373 374
3 308 373 309
3 374 310 309
3 311 377 376
3 370 311 376
3 306 311 370
3 379 378 377
3 377 378 376
3 379 380 378
3 375 381 374
3 374 381 310
3 381 312 310
3 381 382 312
3 313 312 382
3 313 382 383
3 314 377 311
3 377 314 315
3 377 315 379
3 315 316 379
3 316 380 379
3 316 384 380
3 383 385 313
3 313 385 317
3 318 317 385
3 318 385 386
3 387 384 316
3 387 316 319
3 319 321 387
3 387 321 388
3 386 389 318
3 318 389 322
3 324 322 389
3 324 389 390
3 326 388 321
3 326 391 388
3 390 392 324
3 324 392 327
3 329 327 392
3 329 392 393
3 331 394 330
3 394 395 330
3 395 326 330
3 395 391 326
3 393 396 329
3 329 396 332
3 396 398 397
3 333 396 397
3 332 396 333
3 397 335 333
3 400 399 394
3 331 400 394
3 336 400 331
3 394 399 395
3 398 401 397
3 397 401 335
3 401 337 335
3 401 402 337
3 402 404 403
3 338 402 403
3 337 402 338
3 403 340 338
3 342 400 336
3 342 405 400
3 404 406 403
3 403 406 340
3 406 343 340
3 406 407 343
3 343 408 344
3 407 408 343
3 342 344 405
3 405 344 408
3 411 410 409
3 413 412 409
3 409 412 411
3 413 414 412
3 416 415 347
3 347 415 346
3 417 347 348
3 417 416 347
3 418 348 349
3 418 417 348
3 419 349 350
3 419 418 349
3 351 409 410
3 419 351 410
3 350 351 419
3 409 351 352
3 409 352 413
3 420 414 413
3 352 420 413
3 353 420 352
3 421 353 355
3 421 420 353
3 355 357 421
3 421 357 422
3 415 359 346
3 423 359 415
3 424 422 357
3 424 357 360
3 425 360 361
3 425 424 360
3 361 362 425
3 425 362 426
3 423 364 359
3 427 364 423
3 428 426 362
3 428 362 365
3 430 429 366
3 429 365 366
3 429 428 365
3 430 431 429
3 433 368 432
3 368 427 432
3 368 364 427
3 434 433 432
3 369 430 366
3 369 370 430
3 370 431 430
3 370 435 431
3 433 371 368
3 434 436 433
3 436 371 433
3 436 372 371
3 372 437 373
3 436 437 372
3 375 373 437
3 375 437 438
3 439 435 370
3 439 370 376
3 440 376 378
3 440 439 376
3 378 380 440
3 440 380 441
3 438 442 375
3 375 442 381
3 381 443 382
3 442 443 381
3 383 382 443
3 383 443 444
3 384 446 445
3 441 384 445
3 380 384 441
3 446 447 445
3 444 448 383
3 383 448 385
3 386 385 448
3 386 448 449
3 387 446 384
3 387 388 446
3 388 447 446
3 388 450 447
3 449 451 386
3 386 451 389
3 390 389 451
3 390 451 452
3 391 454 453
3 450 391 453
3 388 391 450
3 454 455 453
3 452 456 390
3 390 456 392
3 393 392 456
3 393 456 457
3 395 458 454
3 395 454 391
3 455 454 459
3 459 454 458
3 457 460 393
3 393 460 396
3 398 396 460
3 398 460 461
3 400 462 399
3 458 395 399
3 462 458 399
3 463 458 462
3 459 458 464
3 464 458 463
3 461 465 398
3 398 465 401
3 401 466 402
3 465 466 401
3 404 402 466
3 404 466 467
3 405 468 462
3 405 462 400
3 470 463 469
3 463 468 469
3 463 462 468
3 463 470 464
3 467 471 404
3 404 471 406
3 406 472 407
3 471 472 406
3 407 473 408
3 472 473 407
3 405 408 468
3 408 474 468
3 408 473 474
3 468 474 469
3 477 476 475
3 479 478 475
3 475 478 477
3 481 480 479
3 479 480 478
3 483 482 481
3 481 482 480
3 485 484 483
3 483 484 482
3 410 411 485
3 411 484 485
3 411 486 484
3 487 411 412
3 487 486 411
3 489 488 414
3 488 412 414
3 488 487 412
3 489 490 488
3 475 476 491
3 491 476 492
3 491 415 416
3 479 491 416
3 475 491 479
3 479 416 417
3 479 417 481
3 481 417 418
3 481 418 483
3 483 418 419
3 483 419 485
3 485 419 410
3 420 489 414
3 493 490 489
3 420 493 489
3 421 493 420
3 421 422 493
3 493 422 494
3 491 492 495
3 495 492 496
3 495 423 415
3 495 415 491
3 497 494 422
3 497 422 424
3 498 424 425
3 498 497 424
3 425 426 498
3 498 426 499
3 495 496 500
3 500 496 501
3 500 427 423
3 500 423 495
3 502 499 426
3 502 426 428
3 504 502 503
3 502 429 503
3 502 428 429
3 431 503 429
3 501 505 500
3 500 505 427
3 505 432 427
3 505 506 432
3 434 432 506
3 434 506 507
3 508 504 503
3 431 435 503
3 435 509 503
3 509 508 503
3 509 435 510
3 510 511 509
3 507 512 434
3 434 512 436
3 436 513 437
3 512 513 436
3 438 437 513
3 438 513 514
3 439 510 435
3 515 511 510
3 439 515 510
3 440 515 439
3 440 441 515
3 515 441 516
3 514 517 438
3 438 517 442
3 442 518 443
3 517 518 442
3 444 443 518
3 444 518 519
3 520 516 441
3 520 441 445
3 445 447 520
3 520 447 521
3 519 522 444
3 444 522 448
3 449 448 522
3 449 522 523
3 450 525 524
3 521 450 524
3 447 450 521
3 525 526 524
3 523 527 449
3 449 527 451
3 452 451 527
3 452 527 528
3 453 525 450
3 453 455 525
3 455 526 525
3 455 529 526
3 528 530 452
3 452 530 456
3 457 456 530
3 457 530 531
3 459 529 455
3 459 532 529
3 531 533 457
3 457 533 460
3 461 460 533
3 461 533 534
3 464 532 459
3 464 535 532
3 534 536 461
3 461 536 465
3 536 538 537
3 466 536 537
3 465 536 466
3 537 467 466
3 469 539 470
3 539 540 470
3 540 464 470
3 540 535 464
3 538 541 537
3 537 541 467
3 541 471 467
3 541 542 471
3 471 543 472
3 542 543 471
3 543 545 544
3 473 543 544
3 472 543 473
3 546 474 473
3 546 473 544
3 546 547 474
3 474 547 469
3 547 548 469
3 548 539 469
3 539 548 540
3 545 549 544
3 544 549 546
3 546 549 550
3 546 550 547
3 552 551 477
3 477 551 476
3 553 477 478
3 553 552 477
3 554 478 480
3 554 553 478
3 555 480 482
3 555 554 480
3 556 482 484
3 556 555 482
3 557 484 486
3 557 556 484
3 558 486 487
3 558 557 486
3 559 487 488
3 559 558 487
3 488 490 559
3 559 490 560
3 563 562 561
3 551 563 561
3 492 551 561
3 476 551 492
3 564 560 490
3 564 490 493
3 566 565 494
3 565 493 494
3 565 564 493
3 566 567 565
3 561 562 568
3 568 562 569
3 568 496 492
3 568 492 561
3 497 566 494
3 570 567 566
3 497 570 566
3 498 570 497
3 498 499 570
3 570 499 571
3 568 569 572
3 572 569 573
3 572 501 496
3 572 496 568
3 574 571 499
3 574 499 502
3 576 575 504
3 575 502 504
3 575 574 502
3 576 577 575
3 573 578 572
3 572 578 501
3 578 505 501
3 578 579 505
3 505 580 506
3 579 580 505
3 507 506 580
3 507 580 581
3 508 576 504
3 582 577 576
3 508 582 576
3 509 582 508
3 509 511 582
3 582 511 583
3 581 584 507
3 507 584 512
3 512 585 513
3 584 585 512
3 514 513 585
3 514 585 586
3 587 583 511
3 587 511 515
3 515 516 587
3 587 516 588
3 586 589 514
3 514 589 517
3 517 590 518
3 589 590 517
3 519 518 590
3 519 590 591
3 592 588 516
3 592 516 520
3 520 521 592
3 592 521 593
3 591 594 519
3 519 594 522
3 523 522 594
3 523 594 595
3 596 593 521
3 596 521 524
3 524 526 596
3 596 526 597
3 595 598 523
3 523 598 527
3 528 527 598
3 528 598 599
3 529 597 526
3 529 600 597
3 599 601 528
3 528 601 530
3 531 530 601
3 531 601 602
3 532 600 529
3 532 603 600
3 602 604 531
3 531 604 533
3 534 533 604
3 534 604 605
3 535 607 606
3 603 535 606
3 532 535 603
3 607 608 606
3 605 609 534
3 534 609 536
3 538 536 609
3 538 609 610
3 612 611 607
3 535 612 607
3 540 612 535
3 607 611 608
3 610 613 538
3 538 613 541
3 541 614 542
3 613 614 541
3 614 616 615
3 543 614 615
3 542 614 543
3 615 545 543
3 547 617 548
3 617 618 548
3 618 540 548
3 618 612 540
3 616 619 615
3 615 619 545
3 619 549 545
3 619 620 549
3 620 622 621
3 550 620 621
3 549 620 550
3 621 623 550
3 550 623 547
3 623 624 547
3 624 617 547
3 617 624 618
3 622 625 621
3 621 625 623
3 627 626 552
3 552 626 551
3 628 552 553
3 628 627 552
3 629 553 554
3 629 628 553
3 630 554 555
3 630 629 554
3 631 555 556
3 631 630 555
3 632 556 557
3 632 631 556
3 633 557 558
3 633 632 557
3 634 558 559
3 634 633 558
3 636 635 560
3 635 559 560
3 635 634 559
3 636 637 635
3 639 638 563
3 563 638 562
3 563 551 626
3 563 626 639
3 564 636 560
3 640 637 636
3 564 640 636
3 565 640 564
3 565 567 640
3 640 567 641
3 638 569 562
3 642 569 638
3 643 641 567
3 643 567 570
3 570 571 643
3 643 571 644
3 646 573 645
3 573 642 645
3 573 569 642
3 648 647 646
3 648 646 645
3 649 647 648
3 650 644 571
3 650 571 574
3 651 574 575
3 651 650 574
3 575 577 651
3 651 577 652
3 646 578 573
3 578 646 579
3 579 646 647
3 649 653 647
3 653 579 647
3 653 580 579
3 581 580 653
3 581 653 654
3 655 652 577
3 655 577 582
3 657 656 583
3 656 582 583
3 656 655 582
3 657 658 656
3 654 659 581
3 581 659 584
3 584 660 585
3 659 660 584
3 586 585 660
3 586 660 661
3 587 657 583
3 587 588 657
3 588 658 657
3 588 662 658
3 661 663 586
3 586 663 589
3 589 664 590
3 663 664 589
3 591 590 664
3 591 664 665
3 666 662 588
3 666 588 592
3 592 593 666
3 666 593 667
3 665 668 591
3 591 668 594
3 595 594 668
3 595 668 669
3 670 667 593
3 670 593 596
3 596 597 670
3 670 597 671
3 669 672 595
3 595 672 598
3 599 598 672
3 599 672 673
3 600 671 597
3 600 674 671
3 673 675 599
3 599 675 601
3 602 601 675
3 602 675 676
3 603 674 600
3 603 677 674
3 676 678 602
3 602 678 604
3 605 604 678
3 605 678 679
3 680 677 603
3 680 603 606
3 606 608 680
3 680 608 681
3 679 682 605
3 605 682 609
3 684 683 610
3 609 684 610
3 682 684 609
3 685 683 684
3 687 686 611
3 687 611 612
3 608 611 681
3 681 611 686
3 683 613 610
3 685 688 683
3 688 613 683
3 688 614 613
3 616 614 688
3 616 688 689
3 618 687 612
3 618 690 687
3 689 691 616
3 616 691 619
3 619 692 620
3 691 692 619
3 622 620 692
3 622 692 693
3 623 694 624
3 694 695 624
3 695 618 624
3 695 690 618
3 693 696 622
3 622 696 625
3 623 625 694
3 625 697 694
3 625 696 697
3 694 697 695
3 699 698 627
3 627 698 626
3 700 627 628
3 700 699 627
3 701 628 629
3 701 700 628
3 702 629 630
3 702 701 629
3 703 630 631
3 703 702 630
3 704 631 632
3 704 703 631
3 705 632 633
3 705 704 632
3 706 633 634
3 706 705 633
3 707 634 635
3 707 706 634
3 635 637 707
3 707 637 708
3 710 709 639
3 639 709 638
3 639 626 698
3 639 698 710
3 711 708 637
3 711 637 640
3 640 641 711
3 711 641 712
3 709 642 638
3 713 642 709
3 714 712 641
3 714 641 643
3 643 644 714
3 714 644 715
3 713 716 642
3 642 716 645
3 645 717 648
3 716 717 645
3 649 648 717
3 649 717 718
3 719 715 644
3 719 644 650
3 720 650 651
3 720 719 650
3 651 652 720
3 720 652 721
3 718 722 649
3 649 722 653
3 654 653 722
3 654 722 723
3 724 721 652
3 724 652 655
3 726 724 725
3 724 656 725
3 724 655 656
3 658 725 656
3 723 727 654
3 654 727 659
3 659 728 660
3 727 728 659
3 661 660 728
3 661 728 729
3 730 726 725
3 725 658 730
3 658 731 730
3 658 662 731
3 729 732 661
3 661 732 663
3 663 733 664
3 732 733 663
3 665 664 733
3 665 733 734
3 735 731 662
3 735 662 666
3 666 667 735
3 735 667 736
3 734 737 665
3 665 737 668
3 669 668 737
3 669 737 738
3 739 736 667
3 739 667 670
3 670 671 739
3 739 671 740
3 738 741 669
3 669 741 672
3 673 672 741
3 673 741 742
3 674 740 671
3 674 743 740
3 742 744 673
3 673 744 675
3 746 745 676
3 675 746 676
3 744 746 675
3 747 745 746
3 677 743 674
3 677 748 743
3 745 678 676
3 750 749 679
3 750 679 678
3 747 750 678
3 745 747 678
3 751 749 750
3 677 680 752
3 753 677 752
3 748 677 753
3 681 752 680
3 749 682 679
3 751 754 749
3 754 682 749
3 754 684 682
3 685 684 754
3 685 754 755
3 753 752 686
3 687 753 686
3 756 753 687
3 686 752 681
3 755 757 685
3 685 757 688
3 689 688 757
3 689 757 758
3 690 756 687
3 690 759 756
3 758 760 689
3 689 760 691
3 691 761 692
3 760 761 691
3 693 692 761
3 693 761 762
3 695 759 690
3 695 763 759
3 762 764 693
3 693 764 696
3 696 765 697
3 764 765 696
3 695 697 763
3 763 697 765
3 766 698 699
3 766 699 767
3 699 768 767
3 699 700 768
3 769 700 701
3 769 768 700
3 770 701 702
3 770 769 701
3 771 702 703
3 771 770 702
3 772 703 704
3 772 771 703
3 773 704 705
3 773 772 704
3 774 705 706
3 774 773 705
3 775 706 707
3 775 774 706
3 707 708 775
3 775 708 776
3 777 709 710
3 778 777 710
3 778 710 698
3 779 778 698
3 766 779 698
3 779 766 767
3 780 776 708
3 780 708 711
3 711 712 780
3 780 712 781
3 783 782 777
3 782 709 777
3 782 713 709
3 783 777 778
3 784 781 712
3 784 712 714
3 714 715 784
3 784 715 785
3 716 713 786
3 713 787 786
3 713 782 787
3 788 717 716
3 788 716 786
3 788 718 717
3 789 785 715
3 789 715 719
3 790 719 720
3 790 789 719
3 720 721 790
3 790 721 791
3 787 792 786
3 786 792 788
3 788 792 793
3 793 795 794
3 793 794 722
3 788 793 722
3 718 788 722
3 794 723 722
3 796 791 721
3 796 721 724
3 724 726 796
3 796 726 797
3 795 798 794
3 794 798 723
3 798 727 723
3 798 799 727
3 727 800 728
3 799 800 727
3 729 728 800
3 729 800 801
3 726 730 802
3 803 726 802
3 797 726 803
3 731 802 730
3 801 804 729
3 729 804 732
3 804 806 805
3 733 804 805
3 732 804 733
3 805 734 733
3 807 803 802
3 809 807 808
3 808 807 735
3 807 802 735
3 802 731 735
3 736 808 735
3 806 810 805
3 805 810 734
3 810 737 734
3 810 811 737
3 738 737 811
3 738 811 812
3 813 809 808
3 815 813 814
3 814 813 739
3 813 808 739
3 808 736 739
3 740 814 739
3 812 816 738
3 738 816 741
3 742 741 816
3 742 816 817
3 818 815 814
3 814 740 818
3 740 819 818
3 740 743 819
3 817 820 742
3 742 820 744
3 744 821 746
3 820 821 744
3 747 746 821
3 747 821 822
3 748 819 743
3 748 823 819
3 822 824 747
3 747 824 750
3 751 750 824
3 751 824 825
3 753 823 748
3 753 826 823
3 825 827 751
3 751 827 754
3 755 754 827
3 755 827 828
3 756 826 753
3 756 829 826
3 828 830 755
3 755 830 757
3 832 831 758
3 757 832 758
3 830 832 757
3 833 831 832
3 759 829 756
3 759 834 829
3 831 760 758
3 833 835 831
3 835 760 831
3 835 761 760
3 762 761 835
3 762 835 836
3 839 838 837
3 838 834 837
3 834 763 837
3 834 759 763
3 836 840 762
3 762 840 764
3 837 765 839
3 765 840 839
3 765 764 840
3 765 837 763
3 841 767 768
3 841 768 842
3 768 843 842
3 768 769 843
3 844 769 770
3 844 843 769
3 845 770 771
3 845 844 770
3 846 771 772
3 846 845 771
3 847 772 773
3 847 846 772
3 848 773 774
3 848 847 773
3 850 848 849
3 848 775 849
3 848 774 775
3 776 849 775
3 851 778 779
3 852 851 779
3 852 779 767
3 853 852 767
3 841 853 767
3 853 841 842
3 854 850 849
3 854 849 776
3 780 854 776
3 855 854 780
3 780 781 855
3 855 781 856
3 858 857 783
3 783 857 782
3 783 778 851
3 859 783 851
3 858 783 859
3 859 851 852
3 860 856 781
3 860 781 784
3 784 785 860
3 860 785 861
3 857 787 782
3 862 787 857
3 863 861 785
3 863 785 789
3 864 789 790
3 864 863 789
3 790 791 864
3 864 791 865
3 862 866 787
3 787 866 792
3 792 867 793
3 866 867 792
3 795 793 867
3 795 867 868
3 869 865 791
3 869 791 796
3 796 797 869
3 869 797 870
3 868 871 795
3 795 871 798
3 871 873 872
3 799 871 872
3 798 871 799
3 874 800 799
3 874 799 872
3 874 801 800
3 803 870 797
3 803 875 870
3 873 876 872
3 872 876 874
3 874 876 877
3 874 877 801
3 877 804 801
3 877 878 804
3 806 804 878
3 806 878 879
3 880 875 803
3 880 803 807
3 807 809 880
3 880 809 881
3 879 882 806
3 806 882 810
3 810 883 811
3 882 883 810
3 812 811 883
3 812 883 884
3 885 881 809
3 885 809 813
3 813 815 885
3 885 815 886
3 884 887 812
3 812 887 816
3 817 816 887
3 817 887 888
3 889 886 815
3 889 815 818
3 818 819 889
3 889 819 890
3 888 891 817
3 817 891 820
3 820 892 821
3 891 892 820
3 822 821 892
3 822 892 893
3 823 890 819
3 823 894 890
3 893 895 822
3 822 895 824
3 897 896 825
3 824 897 825
3 895 897 824
3 898 896 897
3 826 894 823
3 826 899 894
3 896 827 825
3 901 900 828
3 901 828 827
3 898 901 827
3 896 898 827
3 902 900 901
3 829 899 826
3 829 903 899
3 900 830 828
3 902 904 900
3 904 830 900
3 904 832 830
3 833 832 904
3 833 904 905
3 908 907 906
3 907 903 906
3 903 834 906
3 903 829 834
3 905 909 833
3 833 909 835
3 836 835 909
3 836 909 910
3 908 906 838
3 839 908 838
3 911 908 839
3 838 906 834
3 910 912 836
3 836 912 840
3 839 840 911
3 911 840 912
3 914 913 843
3 843 913 842
3 915 843 844
3 915 914 843
3 916 844 845
3 916 915 844
3 917 845 846
3 917 916 845
3 919 917 918
3 917 847 918
3 917 846 847
3 848 920 847
3 847 920 918
3 850 920 848
3 922 921 853
3 853 921 852
3 853 842 913
3 853 913 922
3 923 919 918
3 923 918 920
3 923 920 924
3 924 920 850
3 854 924 850
3 925 924 854
3 927 925 926
3 925 855 926
3 925 854 855
3 856 926 855
3 929 928 858
3 858 928 857
3 930 858 859
3 930 929 858
3 859 852 921
3 859 921 930
3 931 927 926
3 931 926 856
3 860 931 856
3 932 931 860
3 860 861 932
3 932 861 933
3 928 862 857
3 934 862 928
3 935 933 861
3 935 861 863
3 937 935 936
3 935 864 936
3 935 863 864
3 865 936 864
3 934 938 862
3 862 938 866
3 938 940 939
3 867 938 939
3 866 938 867
3 939 868 867
3 941 937 936
3 943 941 942
3 942 941 869
3 941 936 869
3 936 865 869
3 870 942 869
3 940 944 939
3 939 944 868
3 944 871 868
3 944 945 871
3 873 871 945
3 873 945 946
3 943 942 947
3 943 947 948
3 875 947 870
3 870 947 942
3 946 949 873
3 873 949 876
3 876 950 877
3 949 950 876
3 877 951 878
3 950 951 877
3 879 878 951
3 879 951 952
3 953 948 947
3 955 953 954
3 954 953 880
3 953 947 880
3 947 875 880
3 881 954 880
3 952 956 879
3 879 956 882
3 882 957 883
3 956 957 882
3 884 883 957
3 884 957 958
3 959 955 954
3 961 959 960
3 960 959 885
3 959 954 885
3 954 881 885
3 886 960 885
3 958 962 884
3 884 962 887
3 964 963 888
3 887 964 888
3 962 964 887
3 965 963 964
3 966 961 960
3 968 966 967
3 967 966 889
3 966 960 889
3 960 886 889
3 890 967 889
3 963 891 888
3 965 969 963
3 969 891 963
3 969 892 891
3 893 892 969
3 893 969 970
3 968 967 971
3 968 971 972
3 894 971 890
3 890 971 967
3 970 973 893
3 893 973 895
3 895 974 897
3 973 974 895
3 898 897 974
3 898 974 975
3 972 971 976
3 972 976 977
3 899 976 894
3 894 976 971
3 975 978 898
3 898 978 901
3 902 901 978
3 902 978 979
3 977 976 980
3 977 980 981
3 903 980 899
3 899 980 976
3 979 982 902
3 902 982 904
3 905 904 982
3 905 982 983
3 981 980 907
3 908 981 907
3 984 981 908
3 907 980 903
3 983 985 905
3 905 985 909
3 987 986 910
3 909 987 910
3 985 987 909
3 987 984 986
3 984 911 986
3 984 908 911
3 986 912 910
3 912 986 911
3 988 913 914
3 988 914 989
3 914 990 989
3 914 915 990
3 992 990 991
3 990 916 991
3 990 915 916
3 917 993 916
3 916 993 991
3 919 993 917
3 994 921 922
3 995 994 922
3 995 922 913
3 996 995 913
3 988 996 913
3 996 988 989
3 997 992 991
3 997 991 993
3 997 993 998
3 998 993 919
3 923 998 919
3 999 998 923
3 1000 923 924
3 1000 999 923
3 1002 1000 1001
3 1000 925 1001
3 1000 924 925
3 927 1001 925
3 1003 928 929
3 1003 929 1004
3 929 1005 1004
3 929 930 1005
3 930 921 994
3 1006 930 994
3 1005 930 1006
3 1006 994 995
3 1007 1002 1001
3 1007 1001 927
3 931 1007 927
3 1008 1007 931
3 1010 1008 1009
3 1008 932 1009
3 1008 931 932
3 933 1009 932
3 1012 1011 1003
3 1011 928 1003
3 1011 934 928
3 1012 1003 1004
3 1013 1010 1009
3 1013 1009 933
3 935 1013 933
3 1014 1013 935
3 935 937 1014
3 1014 937 1015
3 1011 1016 934
3 934 1016 938
3 940 938 1016
3 940 1016 1017
3 1018 1015 937
3 1018 937 941
3 941 943 1018
3 1018 943 1019
3 1017 1020 940
3 940 1020 944
3 1020 1022 1021
3 945 1020 1021
3 944 1020 945
3 1021 946 945
3 948 1019 943
3 948 1023 1019
3 1022 1024 1021
3 1021 1024 946
3 1024 949 946
3 1024 1025 949
3 949 1026 950
3 1025 1026 949
3 1026 1028 1027
3 951 1026 1027
3 950 1026 951
3 1027 952 951
3 1029 1023 948
3 1029 948 953
3 953 955 1029
3 1029 955 1030
3 1028 1031 1027
3 1027 1031 952
3 1031 956 952
3 1031 1032 956
3 956 1033 957
3 1032 1033 956
3 958 957 1033
3 958 1033 1034
3 955 959 1035
3 1036 955 1035
3 1030 955 1036
3 961 1035 959
3 1034 1037 958
3 958 1037 962
3 962 1038 964
3 1037 1038 962
3 965 964 1038
3 965 1038 1039
3 1040 1036 1035
3 1042 1040 1041
3 1041 1040 966
3 1040 1035 966
3 1035 961 966
3 968 1041 966
3 1039 1043 965
3 965 1043 969
3 1045 1044 970
3 969 1045 970
3 1043 1045 969
3 1046 1044 1045
3 1047 1042 1041
3 1041 968 1047
3 968 1048 1047
3 968 972 1048
3 1044 973 970
3 1046 1049 1044
3 1049 973 1044
3 1049 974 973
3 975 974 1049
3 975 1049 1050
3 977 1048 972
3 977 1051 1048
3 1050 1052 975
3 975 1052 978
3 979 978 1052
3 979 1052 1053
3 981 1051 977
3 981 1054 1051
3 1053 1055 979
3 979 1055 982
3 983 982 1055
3 983 1055 1056
3 1059 1058 1057
3 1058 1054 1057
3 1054 984 1057
3 1054 981 984
3 1056 1060 983
3 983 1060 985
3 1057 987 1059
3 987 1060 1059
3 987 985 1060
3 987 1057 984
3 1061 989 990
3 992 1061 990
3 1062 995 996
3 1063 1062 996
3 1063 996 989
3 1064 1063 989
3 1061 1064 989
3 1064 1061 992
3 997 1064 992
3 1065 1064 997
3 1066 997 998
3 1066 1065 997
3 1067 998 999
3 1067 1066 998
3 1069 1067 1068
3 1067 1000 1068
3 1067 999 1000
3 1002 1068 1000
3 1071 1070 1005
3 1005 1070 1004
3 1072 1005 1006
3 1072 1071 1005
3 1006 995 1062
3 1073 1006 1062
3 1072 1006 1073
3 1073 1062 1063
3 1074 1069 1068
3 1074 1068 1002
3 1007 1074 1002
3 1075 1074 1007
3 1077 1075 1076
3 1075 1008 1076
3 1075 1007 1008
3 1010 1076 1008
3 1078 1011 1012
3 1079 1078 1012
3 1004 1079 1012
3 1070 1079 1004
3 1080 1077 1076
3 1080 1076 1010
3 1013 1080 1010
3 1081 1080 1013
3 1083 1081 1082
3 1081 1014 1082
3 1081 1013 1014
3 1015 1082 1014
3 1078 1016 1011
3 1017 1016 1078
3 1079 1017 1078
3 1084 1017 1079
3 1085 1083 1082
3 1085 1082 1015
3 1018 1085 1015
3 1086 1085 1018
3 1018 1019 1086
3 1086 1019 1087
3 1084 1088 1017
3 1017 1088 1020
3 1022 1020 1088
3 1022 1088 1089
3 1023 1087 1019
3 1023 1090 1087
3 1089 1091 1022
3 1022 1091 1024
3 1024 1092 1025
3 1091 1092 1024
3 1092 1094 1093
3 1026 1092 1093
3 1025 1092 1026
3 1093 1028 1026
3 1023 1029 1095
3 1096 1023 1095
3 1090 1023 1096
3 1030 1095 1029
3 1094 1097 1093
3 1093 1097 1028
3 1097 1031 1028
3 1097 1098 1031
3 1031 1099 1032
3 1098 1099 1031
3 1099 1101 1100
3 1033 1099 1100
3 1032 1099 1033
3 1100 1034 1033
3 1102 1096 1095
3 1095 1030 1102
3 1030 1103 1102
3 1030 1036 1103
3 1101 1104 1100
3 1100 1104 1034
3 1104 1037 1034
3 1104 1105 1037
3 1037 1106 1038
3 1105 1106 1037
3 1039 1038 1106
3 1039 1106 1107
3 1108 1103 1036
3 1108 1036 1040
3 1040 1042 1108
3 1108 1042 1109
3 1107 1110 1039
3 1039 1110 1043
3 1043 1111 1045
3 1110 1111 1043
3 1113 1112 1046
3 1045 1113 1046
3 1111 1113 1045
3 1114 1112 1113
3 1042 1047 1115
3 1116 1042 1115
3 1109 1042 1116
3 1048 1115 1047
3 1112 1049 1046
3 1050 1049 1112
3 1114 1050 1112
3 1117 1050 1114
3 1118 1116 1115
3 1115 1048 1118
3 1048 1119 1118
3 1048 1051 1119
3 1117 1120 1050
3 1050 1120 1052
3 1122 1121 1053
3 1052 1122 1053
3 1120 1122 1052
3 1123 1121 1122
3 1126 1125 1124
3 1125 1119 1124
3 1119 1054 1124
3 1119 1051 1054
3 1121 1055 1053
3 1128 1127 1056
3 1128 1056 1055
3 1123 1128 1055
3 1121 1123 1055
3 1127 1128 1126
3 1127 1126 1124
3 1059 1127 1124
3 1058 1059 1124
3 1058 1124 1054
3 1127 1060 1056
3 1060 1127 1059
3 1129 1063 1064
3 1065 1130 1064
3 1064 1130 1129
3 1130 1065 1131
3 1065 1132 1131
3 1065 1066 1132
3 1134 1132 1133
3 1132 1067 1133
3 1132 1066 1067
3 1069 1133 1067
3 1135 1070 1071
3 1135 1071 1136
3 1071 1137 1136
3 1071 1072 1137
3 1138 1072 1073
3 1138 1137 1072
3 1073 1063 1129
3 1139 1073 1129
3 1138 1073 1139
3 1139 1129 1130
3 1139 1130 1140
3 1140 1130 1131
3 1141 1134 1133
3 1141 1133 1069
3 1074 1141 1069
3 1142 1141 1074
3 1144 1142 1143
3 1142 1075 1143
3 1142 1074 1075
3 1077 1143 1075
3 1146 1145 1135
3 1145 1070 1135
3 1145 1079 1070
3 1146 1135 1136
3 1147 1144 1143
3 1147 1143 1077
3 1080 1147 1077
3 1148 1147 1080
3 1149 1080 1081
3 1149 1148 1080
3 1081 1083 1149
3 1149 1083 1150
3 1145 1084 1079
3 1151 1084 1145
3 1152 1150 1083
3 1152 1083 1085
3 1154 1152 1153
3 1152 1086 1153
3 1152 1085 1086
3 1087 1153 1086
3 1151 1155 1084
3 1084 1155 1088
3 1089 1088 1155
3 1089 1155 1156
3 1157 1154 1153
3 1153 1087 1157
3 1087 1158 1157
3 1087 1090 1158
3 1156 1159 1089
3 1089 1159 1091
3 1091 1160 1092
3 1159 1160 1091
3 1162 1161 1094
3 1092 1162 1094
3 1160 1162 1092
3 1163 1161 1162
3 1096 1158 1090
3 1096 1164 1158
3 1161 1097 1094
3 1163 1165 1161
3 1165 1097 1161
3 1165 1098 1097
3 1098 1166 1099
3 1165 1166 1098
3 1101 1099 1166
3 1101 1166 1167
3 1096 1102 1168
3 1169 1096 1168
3 1164 1096 1169
3 1103 1168 1102
3 1167 1170 1101
3 1101 1170 1104
3 1104 1171 1105
3 1170 1171 1104
3 1105 1172 1106
3 1171 1172 1105
3 1174 1173 1107
3 1106 1174 1107
3 1172 1174 1106
3 1175 1173 1174
3 1169 1168 1176
3 1169 1176 1177
3 1108 1178 1103
3 1178 1168 1103
3 1178 1176 1168
3 1109 1178 1108
3 1173 1110 1107
3 1175 1179 1173
3 1179 1110 1173
3 1179 1111 1110
3 1111 1180 1113
3 1179 1180 1111
3 1114 1113 1180
3 1114 1180 1181
3 1177 1176 1182
3 1177 1182 1183
3 1184 1176 1178
3 1182 1176 1184
3 1116 1184 1109
3 1109 1184 1178
3 1186 1117 1185
3 1117 1181 1185
3 1117 1114 1181
3 1186 1185 1183
3 1182 1186 1183
3 1187 1186 1182
3 1188 1182 1184
3 1187 1182 1188
3 1118 1189 1116
3 1189 1184 1116
3 1189 1188 1184
3 1119 1189 1118
3 1186 1120 1117
3 1120 1186 1122
3 1122 1186 1187
3 1122 1187 1123
3 1187 1190 1123
3 1187 1188 1190
3 1126 1190 1125
3 1190 1189 1125
3 1190 1188 1189
3 1125 1189 1119
3 1190 1128 1123
3 1128 1190 1126
3 1191 1131 1132
3 1134 1191 1132
3 1192 1136 1137
3 1138 1193 1137
3 1137 1193 1192
3 1139 1194 1138
3 1138 1194 1193
3 1194 1139 1195
3 1139 1196 1195
3 1139 1140 1196
3 1140 1131 1191
3 1197 1140 1191
3 1196 1140 1197
3 1197 1191 1134
3 1141 1197 1134
3 1198 1197 1141
3 1199 1141 1142
3 1199 1198 1141
3 1142 1144 1199
3 1199 1144 1200
3 1201 1145 1146
3 1202 1201 1146
3 1202 1146 1136
3 1203 1202 1136
3 1192 1203 1136
3 1203 1192 1193
3 1203 1193 1204
3 1204 1193 1194
3 1204 1194 1205
3 1205 1194 1195
3 1206 1200 1144
3 1206 1144 1147
3 1207 1147 1148
3 1207 1206 1147
3 1209 1207 1208
3 1207 1149 1208
3 1207 1148 1149
3 1150 1208 1149
3 1210 1151 1201
3 1201 1151 1145
3 1201 1202 1211
3 1201 1211 1210
3 1212 1209 1208
3 1214 1212 1213
3 1213 1212 1152
3 1212 1208 1152
3 1208 1150 1152
3 1154 1213 1152
3 1210 1155 1151
3 1216 1215 1156
3 1216 1156 1155
3 1211 1216 1155
3 1210 1211 1155
3 1217 1215 1216
3 1218 1214 1213
3 1220 1218 1219
3 1219 1218 1157
3 1218 1213 1157
3 1213 1154 1157
3 1158 1219 1157
3 1215 1159 1156
3 1217 1221 1215
3 1221 1159 1215
3 1221 1160 1159
3 1160 1222 1162
3 1221 1222 1160
3 1163 1162 1222
3 1163 1222 1223
3 1226 1225 1224
3 1224 1225 1220
3 1219 1224 1220
3 1227 1224 1219
3 1164 1227 1158
3 1158 1227 1219
3 1223 1228 1163
3 1163 1228 1165
3 1165 1229 1166
3 1228 1229 1165
3 1231 1230 1167
3 1166 1231 1167
3 1229 1231 1166
3 1232 1230 1231
3 1235 1234 1233
3 1233 1234 1226
3 1224 1233 1226
3 1236 1233 1224
3 1237 1224 1227
3 1236 1224 1237
3 1169 1237 1164
3 1164 1237 1227
3 1230 1170 1167
3 1232 1238 1230
3 1238 1170 1230
3 1238 1171 1170
3 1171 1239 1172
3 1238 1239 1171
3 1172 1240 1174
3 1239 1240 1172
3 1233 1241 1175
3 1240 1233 1175
3 1174 1240 1175
3 1235 1233 1240
3 1242 1233 1236
3 1241 1233 1242
3 1243 1236 1237
3 1242 1236 1243
3 1177 1243 1169
3 1169 1243 1237
3 1241 1179 1175
3 1179 1241 1180
3 1180 1241 1242
3 1180 1242 1181
3 1242 1244 1181
3 1242 1243 1244
3 1183 1244 1177
3 1177 1244 1243
3 1244 1185 1181
3 1185 1244 1183
3 1245 1195 1196
3 1197 1246 1196
3 1196 1246 1245
3 1198 1247 1197
3 1197 1247 1246
3 1199 1248 1198
3 1198 1248 1247
3 1200 1248 1199
3 1249 1202 1203
3 1204 1250 1203
3 1203 1250 1249
3 1250 1204 1251
3 1204 1252 1251
3 1204 1205 1252
3 1205 1195 1245
3 1253 1205 1245
3 1252 1205 1253
3 1253 1245 1246
3 1253 1246 1254
3 1254 1246 1247
3 1254 1247 1255
3 1255 1247 1248
3 1255 1248 1256
3 1256 1248 1200
3 1206 1256 1200
3 1257 1256 1206
3 1259 1257 1258
3 1257 1207 1258
3 1257 1206 1207
3 1209 1258 1207
3 1260 1211 1249
3 1249 1211 1202
3 1250 1262 1261
3 1260 1250 1261
3 1249 1250 1260
3 1262 1250 1251
3 1263 1259 1258
3 1263 1258 1209
3 1212 1263 1209
3 1264 1263 1212
3 1212 1214 1264
3 1264 1214 1265
3 1260 1216 1211
3 1267 1266 1217
3 1267 1217 1216
3 1261 1267 1216
3 1260 1261 1216
3 1268 1266 1267
3 1214 1218 1269
3 1270 1214 1269
3 1265 1214 1270
3 1220 1269 1218
3 1266 1221 1217
3 1268 1271 1266
3 1271 1221 1266
3 1271 1222 1221
3 1223 1222 1271
3 1223 1271 1272
3 1275 1274 1273
3 1277 1276 1273
3 1277 1273 1274
3 1276 1277 1270
3 1276 1270 1269
3 1226 1276 1269
3 1225 1226 1269
3 1225 1269 1220
3 1272 1278 1223
3 1223 1278 1228
3 1228 1279 1229
3 1278 1279 1228
3 1229 1280 1231
3 1279 1280 1229
3 1282 1281 1232
3 1231 1282 1232
3 1280 1282 1231
3 1284 1283 1281
3 1284 1281 1282
3 1283 1284 1275
3 1273 1283 1275
3 1285 1283 1273
3 1235 1285 1234
3 1285 1276 1234
3 1285 1273 1276
3 1234 1276 1226
3 1281 1238 1232
3 1238 1281 1239
3 1239 1281 1283
3 1239 1283 1240
3 1240 1283 1285
3 1240 1285 1235
3 1286 1251 1252
3 1253 1287 1252
3 1252 1287 1286
3 1254 1288 1253
3 1253 1288 1287
3 1255 1289 1254
3 1254 1289 1288
3 1256 1290 1255
3 1255 1290 1289
3 1257 1291 1256
3 1256 1291 1290
3 1259 1291 1257
3 1292 1261 1262
3 1251 1286 1262
3 1286 1292 1262
3 1286 1293 1292
3 1294 1286 1287
3 1293 1286 1294
3 1295 1287 1288
3 1294 1287 1295
3 1296 1288 1289
3 1295 1288 1296
3 1297 1289 1290
3 1296 1289 1297
3 1298 1290 1291
3 1297 1290 1298
3 1263 1299 1259
3 1299 1291 1259
3 1299 1298 1291
3 1264 1300 1263
3 1263 1300 1299
3 1265 1300 1264
3 1292 1267 1261
3 1267 1292 1268
3 1292 1301 1268
3 1292 1293 1301
3 1302 1293 1294
3 1301 1293 1302
3 1303 1294 1295
3 1302 1294 1303
3 1304 1295 1296
3 1303 1295 1304
3 1305 1296 1297
3 1304 1296 1305
3 1306 1297 1298
3 1305 1297 1306
3 1307 1298 1299
3 1306 1298 1307
3 1308 1299 1300
3 1307 1299 1308
3 1270 1308 1265
3 1265 1308 1300
3 1301 1271 1268
3 1271 1301 1272
3 1301 1309 1272
3 1301 1302 1309
3 1310 1302 1303
3 1309 1302 1310
3 1311 1303 1304
3 1310 1303 1311
3 1312 1304 1305
3 1311 1304 1312
3 1313 1305 1306
3 1312 1305 1313
3 1275 1313 1274
3 1313 1307 1274
3 1313 1306 1307
3 1274 1307 1277
3 1277 1307 1308
3 1277 1308 1270
3 1309 1278 1272
3 1278 1309 1279
3 1279 1309 1310
3 1279 1310 1280
3 1280 1310 1311
3 1280 1311 1282
3 1282 1311 1312
3 1282 1312 1284
3 1284 1312 1313
3 1284 1313 1275
