ply
format ascii 1.0
element vertex 1101
property float x
property float y
property float z
element face 2230
property list uchar int vertex_indices
end_header
36.30000 -5.50001 -6.50000
35.80000 -5.50001 -7.00000
35.80000 -5.00001 -6.50000
35.80000 -5.00001 -5.50000
36.30000 -5.50001 -5.50000
35.80000 -5.50001 -5.00000
35.80000 -6.00001 -6.50000
36.30000 -6.50001 -5.50000
35.80000 -6.50001 -6.00000
35.80000 -6.50001 -5.00000
36.30000 -7.50001 -5.50000
35.80000 -7.50001 -6.00000
35.80000 -7.00001 -4.50000
36.30000 -7.50001 -4.50000
35.80000 -7.50001 -4.00000
36.30000 -8.50001 -5.50000
35.80000 -8.50001 -6.00000
36.30000 -8.50001 -4.50000
35.80000 -8.50001 -4.00000
35.80000 -9.00001 -5.50000
36.30000 -9.50001 -4.50000
35.80000 -9.50001 -5.00000
35.80000 -9.50001 -4.00000
36.30000 -10.50001 -4.50000
35.80000 -10.50001 -5.00000
35.80000 -10.00001 -3.50000
36.30000 -10.50001 -3.50000
35.80000 -10.50001 -3.00000
36.30000 -11.50001 -4.50000
35.80000 -11.50001 -5.00000
36.30000 -11.50001 -3.50000
35.80000 -11.50001 -3.00000
35.80000 -12.00001 -4.50000
36.30000 -12.50001 -3.50000
35.80000 -12.50001 -4.00000
35.80000 -12.50001 -3.00000
36.30000 -13.50001 -3.50000
35.80000 -13.50001 -4.00000
35.80000 -13.00001 -2.50000
36.30000 -13.50001 -2.50000
35.80000 -13.50001 -2.00000
36.30000 -14.50001 -3.50000
35.80000 -14.50001 -4.00000
36.30000 -14.50001 -2.50000
35.80000 -14.50001 -2.00000
35.80000 -15.00001 -3.50000
36.30000 -15.50001 -2.50000
35.80000 -15.50001 -3.00000
35.80000 -15.50001 -2.00000
36.30000 -16.50001 -2.50000
35.80000 -16.50001 -3.00000
35.80000 -16.00001 -1.50000
36.30000 -16.50001 -1.50000
35.80000 -16.50001 -1.00000
36.30000 -17.50001 -2.50000
35.80000 -17.50001 -3.00000
36.30000 -17.50001 -1.50000
35.80000 -17.50001 -1.00000
35.80000 -18.00001 -2.50000
35.80000 -18.00001 -1.50000
35.30000 -1.50001 -8.50000
34.80000 -1.50001 -9.00000
34.80000 -1.00001 -8.50000
34.80000 -1.00001 -7.50000
35.30000 -1.50001 -7.50000
34.80000 -1.50001 -7.00000
34.80000 -2.00001 -8.50000
35.30000 -2.50001 -7.50000
34.80000 -2.50001 -8.00000
34.80000 -2.00001 -6.50000
35.30000 -2.50001 -6.50000
34.80000 -2.50001 -6.00000
35.30000 -3.50001 -7.50000
34.80000 -3.50001 -8.00000
35.30000 -3.50001 -6.50000
34.80000 -3.50001 -6.00000
35.30000 -4.50001 -7.50000
34.80000 -4.50001 -8.00000
35.30000 -4.50001 -6.50000
34.80000 -4.00001 -5.50000
35.30000 -4.50001 -5.50000
34.80000 -4.50001 -5.00000
34.80000 -5.00001 -7.50000
34.80000 -5.50001 -7.00000
34.80000 -5.50001 -5.00000
35.30000 -6.50001 -6.50000
34.80000 -6.50001 -7.00000
34.80000 -6.00001 -4.50000
35.30000 -6.50001 -4.50000
34.80000 -6.50001 -4.00000
34.80000 -7.00001 -6.50000
34.80000 -7.50001 -6.00000
34.80000 -7.50001 -4.00000
34.80000 -8.50001 -6.00000
34.80000 -8.00001 -3.50000
35.30000 -8.50001 -3.50000
34.80000 -8.50001 -3.00000
35.30000 -9.50001 -5.50000
34.80000 -9.50001 -6.00000
35.30000 -9.50001 -3.50000
34.80000 -9.50001 -3.00000
34.80000 -10.00001 -5.50000
34.80000 -10.50001 -5.00000
34.80000 -10.50001 -3.00000
34.80000 -11.50001 -5.00000
34.80000 -11.00001 -2.50000
35.30000 -11.50001 -2.50000
34.80000 -11.50001 -2.00000
35.30000 -12.50001 -4.50000
34.80000 -12.50001 -5.00000
35.30000 -12.50001 -2.50000
34.80000 -12.50001 -2.00000
34.80000 -13.00001 -4.50000
34.80000 -13.50001 -4.00000
34.80000 -13.00001 -1.50000
35.30000 -13.50001 -1.50000
34.80000 -13.50001 -1.00000
34.80000 -14.50001 -4.00000
35.30000 -14.50001 -1.50000
34.80000 -14.50001 -1.00000
35.30000 -15.50001 -3.50000
34.80000 -15.50001 -4.00000
35.30000 -15.50001 -1.50000
34.80000 -15.50001 -1.00000
34.80000 -16.00001 -3.50000
34.80000 -16.50001 -3.00000
34.80000 -16.50001 -1.00000
34.80000 -17.50001 -3.00000
34.80000 -17.00001 -0.50000
35.30000 -17.50001 -0.50000
34.80000 -17.50001 0.00000
34.80000 -18.00001 -2.50000
35.30000 -18.50001 -1.50000
34.80000 -18.50001 -2.00000
35.30000 -18.50001 -0.50000
34.80000 -18.50001 0.00000
35.30000 -19.50001 -1.50000
34.80000 -19.50001 -2.00000
35.30000 -19.50001 -0.50000
34.80000 -19.50001 0.00000
34.80000 -20.00001 -1.50000
35.30000 -20.50001 -0.50000
34.80000 -20.50001 -1.00000
34.80000 -20.00001 0.50000
35.30000 -20.50001 0.50000
34.80000 -20.50001 1.00000
35.30000 -21.50001 -0.50000
34.80000 -21.50001 -1.00000
35.30000 -21.50001 0.50000
34.80000 -21.50001 1.00000
34.80000 -22.00001 -0.50000
34.80000 -22.00001 0.50000
34.30000 1.49999 -9.50000
33.80000 1.49999 -10.00000
33.80000 1.99999 -9.50000
33.80000 1.99999 -8.50000
34.30000 1.49999 -8.50000
33.80000 1.49999 -8.00000
34.30000 0.49999 -9.50000
33.80000 0.49999 -10.00000
34.30000 0.49999 -8.50000
33.80000 0.49999 -8.00000
33.80000 -0.00001 -9.50000
34.30000 -0.50001 -8.50000
33.80000 -0.50001 -9.00000
33.80000 -0.00001 -7.50000
34.30000 -0.50001 -7.50000
33.80000 -0.50001 -7.00000
33.80000 -1.50001 -9.00000
33.80000 -1.00001 -6.50000
34.30000 -1.50001 -6.50000
33.80000 -1.50001 -6.00000
33.80000 -2.00001 -8.50000
33.80000 -2.50001 -8.00000
33.80000 -2.50001 -6.00000
33.80000 -3.50001 -8.00000
33.80000 -3.00001 -5.50000
34.30000 -3.50001 -5.50000
33.80000 -3.50001 -5.00000
33.80000 -4.50001 -8.00000
33.80000 -4.50001 -5.00000
33.80000 -5.00001 -7.50000
33.80000 -5.50001 -7.00000
33.80000 -5.50001 -5.00000
33.80000 -6.00001 -6.50000
34.30000 -6.50001 -6.50000
33.80000 -6.50001 -6.00000
34.30000 -6.50001 -4.50000
33.80000 -6.50001 -5.00000
34.30000 -7.50001 -5.50000
33.80000 -7.00001 -5.50000
34.30000 -7.50001 -4.50000
34.30000 -8.50001 -5.50000
34.30000 -8.50001 -4.50000
34.30000 -8.50001 -3.50000
34.30000 -9.50001 -5.50000
34.30000 -9.50001 -4.50000
34.30000 -9.50001 -3.50000
34.30000 -10.50001 -4.50000
34.30000 -10.50001 -3.50000
34.30000 -11.50001 -4.50000
34.30000 -11.50001 -3.50000
34.30000 -11.50001 -2.50000
34.30000 -12.50001 -4.50000
34.30000 -12.50001 -3.50000
34.30000 -12.50001 -2.50000
34.30000 -13.50001 -3.50000
34.30000 -13.50001 -2.50000
34.30000 -13.50001 -1.50000
34.30000 -14.50001 -3.50000
33.80000 -14.50001 -3.00000
33.80000 -14.00001 -2.50000
33.80000 -14.00001 -1.50000
33.80000 -14.00001 -0.50000
34.30000 -14.50001 -0.50000
33.80000 -14.50001 0.00000
34.30000 -15.50001 -3.50000
33.80000 -15.50001 -3.00000
34.30000 -15.50001 -0.50000
33.80000 -15.50001 0.00000
33.80000 -16.50001 -3.00000
34.30000 -16.50001 -0.50000
33.80000 -16.00001 0.50000
34.30000 -16.50001 0.50000
33.80000 -16.50001 1.00000
33.80000 -17.50001 -3.00000
34.30000 -17.50001 0.50000
33.80000 -17.50001 1.00000
33.80000 -18.00001 -2.50000
33.80000 -18.50001 -2.00000
34.30000 -18.50001 0.50000
33.80000 -18.50001 1.00000
33.80000 -19.50001 -2.00000
34.30000 -19.50001 0.50000
33.80000 -19.50001 1.00000
34.30000 -20.50001 -1.50000
33.80000 -20.50001 -2.00000
33.80000 -20.50001 1.00000
33.80000 -21.00001 -1.50000
33.80000 -21.50001 -1.00000
33.80000 -21.00001 1.50000
34.30000 -21.50001 1.50000
33.80000 -21.50001 2.00000
33.80000 -22.00001 -0.50000
34.30000 -22.50001 0.50000
33.80000 -22.50001 0.00000
34.30000 -22.50001 1.50000
33.80000 -22.50001 2.00000
34.30000 -23.50001 0.50000
33.80000 -23.50001 0.00000
34.30000 -23.50001 1.50000
33.80000 -23.50001 2.00000
33.80000 -24.00001 0.50000
33.80000 -24.00001 1.50000
33.30000 3.49999 -10.50000
32.80000 3.49999 -11.00000
32.80000 3.99999 -10.50000
32.80000 3.49999 -10.00000
33.30000 2.49999 -10.50000
32.80000 2.49999 -11.00000
32.80000 2.99999 -9.50000
33.30000 2.49999 -9.50000
32.80000 2.49999 -9.00000
32.80000 1.99999 -10.50000
32.80000 1.49999 -10.00000
32.80000 1.99999 -8.50000
32.80000 1.49999 -8.00000
32.80000 0.49999 -10.00000
32.80000 0.99999 -7.50000
33.30000 0.49999 -7.50000
32.80000 0.49999 -7.00000
32.80000 -0.00001 -9.50000
32.80000 -0.50001 -9.00000
32.80000 -0.50001 -7.00000
32.80000 -1.50001 -9.00000
32.80000 -1.00001 -6.50000
32.80000 -1.50001 -6.00000
32.80000 -2.00001 -8.50000
32.80000 -2.50001 -8.00000
32.80000 -2.50001 -6.00000
32.80000 -3.00001 -7.50000
33.30000 -3.50001 -7.50000
33.30000 -3.50001 -6.50000
32.80000 -3.00001 -6.50000
33.30000 -3.50001 -5.50000
33.30000 -4.50001 -7.50000
33.30000 -4.50001 -6.50000
33.30000 -4.50001 -5.50000
33.30000 -5.50001 -6.50000
33.30000 -5.50001 -5.50000
33.30000 -6.50001 -5.50000
33.30000 -14.50001 -2.50000
33.30000 -14.50001 -1.50000
33.30000 -14.50001 -0.50000
32.80000 -14.00001 0.50000
32.80000 -14.50001 0.00000
33.30000 -14.50001 0.50000
32.80000 -14.50001 1.00000
33.30000 -15.50001 -2.50000
33.30000 -15.50001 -1.50000
33.30000 -15.50001 -0.50000
33.30000 -15.50001 0.50000
32.80000 -15.50001 0.00000
32.80000 -15.00001 1.50000
33.30000 -15.50001 1.50000
32.80000 -15.50001 2.00000
33.30000 -16.50001 -2.50000
33.30000 -16.50001 -1.50000
33.30000 -16.50001 -0.50000
32.80000 -16.00001 0.50000
33.30000 -16.50001 0.50000
32.80000 -16.50001 1.00000
33.30000 -16.50001 1.50000
32.80000 -16.50001 2.00000
33.30000 -17.50001 -2.50000
33.30000 -17.50001 -1.50000
33.30000 -17.50001 -0.50000
33.30000 -17.50001 0.50000
33.30000 -17.50001 1.50000
32.80000 -17.50001 1.00000
32.80000 -17.50001 2.00000
33.30000 -18.50001 -1.50000
33.30000 -18.50001 -0.50000
33.30000 -18.50001 0.50000
33.30000 -18.50001 1.50000
32.80000 -18.50001 1.00000
32.80000 -18.50001 2.00000
33.30000 -19.50001 -1.50000
32.80000 -19.50001 -1.00000
32.80000 -19.00001 -0.50000
32.80000 -19.00001 0.50000
33.30000 -19.00001 1.00000
33.30000 -19.50001 1.50000
32.80000 -19.00001 2.50000
33.30000 -19.50001 2.50000
32.80000 -19.50001 3.00000
33.30000 -20.50001 -1.50000
32.80000 -20.50001 -1.00000
33.30000 -20.50001 1.50000
33.30000 -20.50001 2.50000
32.80000 -20.50001 3.00000
32.80000 -21.50001 -1.00000
33.30000 -21.50001 2.50000
32.80000 -21.50001 3.00000
32.80000 -22.00001 -0.50000
32.80000 -22.50001 0.00000
33.30000 -22.50001 2.50000
32.80000 -22.50001 3.00000
32.80000 -23.00001 0.50000
33.30000 -23.50001 0.50000
33.30000 -23.50001 1.50000
32.80000 -23.00001 1.50000
32.80000 -23.00001 2.50000
32.30000 4.49999 -11.50000
31.80000 4.49999 -12.00000
31.80000 4.99999 -11.50000
31.80000 4.99999 -10.50000
32.30000 4.49999 -10.50000
31.80000 4.49999 -10.00000
32.30000 3.49999 -11.50000
31.80000 3.49999 -12.00000
31.80000 3.99999 -9.50000
32.30000 3.49999 -9.50000
31.80000 3.49999 -9.00000
31.80000 2.99999 -11.50000
31.80000 2.49999 -11.00000
31.80000 2.99999 -8.50000
32.30000 2.49999 -8.50000
31.80000 2.49999 -8.00000
32.30000 1.49999 -10.50000
31.80000 1.49999 -11.00000
31.80000 1.49999 -8.00000
31.80000 0.99999 -10.50000
31.80000 0.49999 -10.00000
32.30000 0.49999 -7.50000
31.80000 0.49999 -8.00000
31.80000 -0.00001 -9.50000
32.30000 -0.50001 -8.50000
31.80000 -0.00001 -8.50000
32.30000 -0.50001 -7.50000
32.30000 -1.50001 -8.50000
32.30000 -1.50001 -7.50000
32.30000 -1.50001 -6.50000
32.30000 -2.50001 -7.50000
32.30000 -2.50001 -6.50000
32.30000 -14.50001 0.50000
31.80000 -14.00001 1.50000
31.80000 -14.50001 1.00000
32.30000 -14.50001 1.50000
31.80000 -14.50001 2.00000
32.30000 -15.50001 0.50000
32.30000 -15.00001 1.00000
31.80000 -15.50001 1.00000
31.80000 -15.50001 2.00000
31.80000 -16.50001 1.00000
31.80000 -16.00001 2.50000
32.30000 -16.50001 2.50000
31.80000 -16.50001 3.00000
31.80000 -17.00001 1.50000
32.30000 -17.50001 1.50000
32.30000 -17.00001 2.00000
31.80000 -17.50001 2.00000
32.30000 -17.50001 2.50000
31.80000 -17.50001 3.00000
32.30000 -18.50001 1.50000
32.30000 -18.50001 2.50000
31.80000 -18.50001 2.00000
31.80000 -18.00001 3.50000
32.30000 -18.50001 3.50000
31.80000 -18.50001 4.00000
32.30000 -19.50001 -0.50000
32.30000 -19.50001 0.50000
32.30000 -19.50001 1.50000
32.30000 -19.00001 2.00000
31.80000 -19.50001 2.00000
32.30000 -19.50001 3.50000
31.80000 -19.00001 4.50000
32.30000 -19.50001 4.50000
31.80000 -19.50001 5.00000
32.30000 -20.50001 -0.50000
32.30000 -20.50001 0.50000
32.30000 -20.50001 1.50000
31.80000 -20.50001 2.00000
32.30000 -20.50001 3.50000
32.30000 -20.50001 4.50000
31.80000 -20.50001 5.00000
32.30000 -21.50001 -0.50000
32.30000 -21.50001 0.50000
32.30000 -21.50001 1.50000
31.80000 -21.50001 2.00000
32.30000 -21.50001 3.50000
31.80000 -21.50001 4.00000
31.80000 -21.00001 4.50000
31.80000 -22.00001 0.50000
31.80000 -22.50001 0.00000
31.80000 -22.00001 1.50000
32.30000 -22.50001 3.50000
31.80000 -22.50001 4.00000
31.80000 -23.00001 0.50000
31.80000 -23.00001 1.50000
31.80000 -23.00001 2.50000
31.80000 -23.00001 3.50000
31.30000 5.49999 -12.50000
30.80000 5.49999 -13.00000
30.80000 5.99999 -12.50000
30.80000 5.99999 -11.50000
31.30000 5.49999 -11.50000
30.80000 5.49999 -11.00000
31.30000 4.49999 -12.50000
30.80000 4.49999 -13.00000
30.80000 4.99999 -10.50000
30.80000 4.49999 -10.00000
30.80000 3.99999 -12.50000
30.80000 3.49999 -12.00000
30.80000 3.99999 -9.50000
30.80000 3.49999 -9.00000
30.80000 2.99999 -11.50000
30.80000 2.49999 -11.00000
31.30000 2.49999 -8.50000
30.80000 2.49999 -9.00000
30.80000 1.99999 -10.50000
31.30000 1.49999 -10.50000
31.30000 1.49999 -9.50000
30.80000 1.99999 -9.50000
31.30000 1.49999 -8.50000
31.30000 0.49999 -9.50000
31.30000 0.49999 -8.50000
30.80000 -14.50001 1.00000
30.80000 -14.00001 1.50000
30.80000 -14.50001 2.00000
30.80000 -15.50001 1.00000
30.80000 -15.00001 2.50000
31.30000 -15.50001 2.50000
30.80000 -15.50001 3.00000
30.80000 -16.00001 1.50000
31.30000 -16.50001 1.50000
30.80000 -16.50001 2.00000
30.80000 -16.50001 3.00000
30.80000 -17.50001 2.00000
30.80000 -17.00001 3.50000
31.30000 -17.50001 3.50000
30.80000 -17.50001 4.00000
30.80000 -18.00001 2.50000
31.30000 -18.50001 2.50000
30.80000 -18.50001 3.00000
30.80000 -18.00001 4.50000
31.30000 -18.50001 4.50000
30.80000 -18.50001 5.00000
31.30000 -19.50001 2.50000
30.80000 -19.50001 3.00000
30.80000 -19.00001 5.50000
31.30000 -19.50001 5.50000
30.80000 -19.50001 6.00000
31.30000 -20.50001 2.50000
30.80000 -20.50001 3.00000
31.30000 -20.50001 5.50000
30.80000 -20.50001 6.00000
31.30000 -21.50001 2.50000
30.80000 -21.00001 3.50000
31.30000 -21.50001 3.50000
31.30000 -21.50001 4.50000
30.80000 -21.50001 4.00000
31.30000 -21.50001 5.50000
30.80000 -21.50001 6.00000
31.30000 -22.50001 0.50000
31.30000 -22.50001 1.50000
31.30000 -22.50001 2.50000
31.30000 -22.50001 3.50000
31.30000 -22.50001 4.50000
30.80000 -22.50001 4.00000
31.30000 -22.50001 5.50000
30.80000 -22.50001 6.00000
30.80000 -23.00001 4.50000
30.80000 -23.00001 5.50000
30.30000 6.49999 -13.50000
29.80000 6.49999 -14.00000
29.80000 6.99999 -13.50000
29.80000 6.99999 -12.50000
30.30000 6.49999 -12.50000
29.80000 6.49999 -12.00000
30.30000 5.49999 -13.50000
29.80000 5.49999 -14.00000
29.80000 5.99999 -11.50000
29.80000 5.49999 -11.00000
29.80000 4.99999 -13.50000
29.80000 4.49999 -13.00000
29.80000 4.99999 -10.50000
29.80000 4.49999 -10.00000
29.80000 3.99999 -12.50000
30.30000 3.49999 -11.50000
29.80000 3.99999 -11.50000
29.80000 3.49999 -11.00000
30.30000 3.49999 -9.50000
29.80000 3.49999 -10.00000
30.30000 2.49999 -10.50000
29.80000 2.99999 -10.50000
30.30000 2.49999 -9.50000
29.80000 -14.50001 1.00000
29.80000 -14.00001 1.50000
29.80000 -14.50001 2.00000
29.80000 -15.00001 1.50000
30.30000 -15.50001 1.50000
30.30000 -15.00001 2.00000
29.80000 -15.00001 2.50000
29.80000 -15.50001 2.00000
29.80000 -15.50001 3.00000
29.80000 -16.50001 2.00000
29.80000 -16.50001 3.00000
29.80000 -17.00001 2.50000
30.30000 -17.50001 2.50000
30.30000 -17.00001 3.00000
29.80000 -17.00001 3.50000
29.80000 -17.50001 3.00000
29.80000 -17.50001 4.00000
29.80000 -18.50001 3.00000
29.80000 -18.00001 4.50000
29.80000 -18.00001 5.50000
30.30000 -18.50001 5.50000
29.80000 -18.50001 6.00000
29.80000 -19.50001 3.00000
29.80000 -19.50001 6.00000
29.80000 -20.00001 3.50000
30.30000 -20.50001 3.50000
29.80000 -20.50001 4.00000
29.80000 -20.00001 6.50000
30.30000 -20.50001 6.50000
29.80000 -20.50001 7.00000
29.80000 -21.50001 4.00000
30.30000 -21.50001 6.50000
29.80000 -21.50001 7.00000
29.80000 -22.00001 4.50000
30.30000 -22.50001 4.50000
30.30000 -22.50001 5.50000
29.80000 -22.00001 5.50000
29.80000 -22.00001 6.50000
29.30000 7.49999 -14.50000
28.80000 7.49999 -15.00000
28.80000 7.99999 -14.50000
28.80000 7.49999 -14.00000
29.30000 6.49999 -14.50000
28.80000 6.49999 -15.00000
28.80000 6.99999 -13.50000
28.80000 6.99999 -12.50000
28.80000 6.49999 -12.00000
29.30000 5.49999 -14.50000
28.80000 5.49999 -15.00000
28.80000 5.99999 -11.50000
28.80000 5.49999 -11.00000
28.80000 4.99999 -14.50000
28.80000 4.99999 -13.50000
28.80000 4.49999 -13.00000
29.30000 4.49999 -11.50000
28.80000 4.99999 -11.50000
28.80000 4.49999 -12.00000
29.30000 4.49999 -10.50000
28.80000 3.99999 -12.50000
29.30000 3.49999 -10.50000
29.30000 -14.50001 1.50000
29.30000 -15.50001 2.50000
29.30000 -16.50001 2.50000
29.30000 -17.50001 3.50000
29.30000 -18.50001 3.50000
28.80000 -18.00001 4.50000
28.80000 -18.50001 4.00000
28.80000 -18.00001 5.50000
28.80000 -18.50001 6.00000
29.30000 -19.50001 3.50000
28.80000 -19.50001 4.00000
28.80000 -19.00001 6.50000
29.30000 -19.50001 6.50000
28.80000 -19.50001 7.00000
28.80000 -20.50001 4.00000
28.80000 -20.00001 7.50000
29.30000 -20.50001 7.50000
28.80000 -20.50001 8.00000
28.80000 -21.00001 4.50000
29.30000 -21.50001 4.50000
28.80000 -21.50001 5.00000
29.30000 -21.50001 7.50000
28.80000 -21.50001 8.00000
28.80000 -22.00001 5.50000
28.80000 -22.00001 6.50000
28.80000 -22.00001 7.50000
28.30000 7.49999 -15.50000
27.80000 7.49999 -16.00000
27.80000 7.99999 -15.50000
27.80000 7.49999 -15.00000
28.30000 7.49999 -14.50000
28.30000 6.49999 -15.50000
27.80000 6.49999 -16.00000
28.30000 6.99999 -15.00000
27.80000 6.99999 -14.50000
27.80000 6.99999 -13.50000
28.30000 6.49999 -12.50000
27.80000 6.49999 -13.00000
28.30000 5.49999 -15.50000
27.80000 5.49999 -16.00000
28.30000 5.49999 -12.50000
27.80000 5.49999 -13.00000
28.30000 5.49999 -11.50000
27.80000 4.99999 -15.50000
27.80000 4.99999 -14.50000
27.80000 4.99999 -13.50000
28.30000 4.49999 -12.50000
28.30000 3.49999 -6.50000
27.80000 3.49999 -7.00000
27.80000 3.99999 -6.50000
27.80000 3.49999 -6.00000
27.80000 2.99999 -6.50000
28.30000 -18.50001 4.50000
28.30000 -18.50001 5.50000
28.30000 -19.50001 4.50000
27.80000 -19.50001 5.00000
27.80000 -19.00001 5.50000
27.80000 -19.00001 6.50000
27.80000 -19.50001 7.00000
28.30000 -20.50001 4.50000
27.80000 -20.50001 5.00000
27.80000 -20.00001 7.50000
27.80000 -20.00001 8.50000
28.30000 -20.50001 8.50000
27.80000 -20.50001 9.00000
28.30000 -21.50001 5.50000
27.80000 -21.00001 5.50000
27.80000 -21.50001 6.00000
28.30000 -21.50001 8.50000
27.80000 -21.50001 9.00000
27.80000 -22.00001 6.50000
27.80000 -22.00001 7.50000
27.80000 -22.00001 8.50000
27.30000 7.49999 -16.50000
26.80000 7.49999 -17.00000
26.80000 7.99999 -16.50000
26.80000 7.99999 -15.50000
26.80000 7.49999 -15.00000
27.30000 6.49999 -16.50000
26.80000 6.49999 -17.00000
26.80000 6.99999 -14.50000
27.30000 6.49999 -13.50000
26.80000 6.49999 -14.00000
27.30000 5.49999 -16.50000
26.80000 5.49999 -17.00000
27.30000 5.49999 -13.50000
26.80000 5.49999 -14.00000
26.80000 4.99999 -16.50000
26.80000 4.99999 -15.50000
26.80000 4.99999 -14.50000
27.30000 3.49999 -7.50000
26.80000 3.49999 -8.00000
26.80000 3.99999 -7.50000
26.80000 3.99999 -6.50000
26.80000 3.49999 -6.00000
26.80000 2.99999 -7.50000
27.30000 2.49999 -6.50000
26.80000 2.49999 -7.00000
26.80000 2.99999 -5.50000
27.30000 2.49999 -5.50000
26.80000 2.49999 -5.00000
26.80000 1.99999 -6.50000
27.30000 1.49999 -5.50000
26.80000 1.49999 -6.00000
26.80000 1.49999 -5.00000
26.80000 0.99999 -5.50000
27.30000 -2.50001 -2.50000
26.80000 -2.50001 -3.00000
26.80000 -2.00001 -2.50000
26.80000 -2.50001 -2.00000
27.30000 -3.50001 -2.50000
26.80000 -3.50001 -3.00000
26.80000 -3.50001 -2.00000
26.80000 -4.00001 -2.50000
26.80000 -4.50001 -2.00000
27.30000 -4.50001 -1.50000
26.80000 -4.00001 -1.50000
26.80000 -4.50001 -1.00000
26.80000 -5.00001 -1.50000
27.30000 -19.50001 5.50000
27.30000 -19.50001 6.50000
27.30000 -20.50001 5.50000
27.30000 -20.50001 6.50000
26.80000 -20.00001 7.50000
26.80000 -20.50001 7.00000
26.80000 -20.00001 8.50000
26.80000 -20.50001 9.00000
27.30000 -21.50001 6.50000
26.80000 -21.50001 7.00000
26.80000 -21.00001 9.50000
27.30000 -21.50001 9.50000
26.80000 -21.50001 10.00000
26.80000 -22.00001 7.50000
26.80000 -22.00001 8.50000
26.80000 -22.00001 9.50000
26.30000 7.49999 -17.50000
25.80000 7.49999 -18.00000
25.80000 7.99999 -17.50000
25.80000 7.99999 -16.50000
25.80000 7.99999 -15.50000
25.80000 7.49999 -15.00000
26.30000 6.49999 -17.50000
25.80000 6.49999 -18.00000
25.80000 6.99999 -14.50000
25.80000 6.49999 -14.00000
26.30000 5.49999 -17.50000
25.80000 5.49999 -18.00000
26.30000 5.49999 -14.50000
25.80000 5.99999 -14.50000
25.80000 5.49999 -15.00000
25.80000 4.99999 -17.50000
25.80000 4.99999 -16.50000
25.80000 4.99999 -15.50000
25.80000 3.49999 -8.00000
25.80000 3.99999 -7.50000
25.80000 3.99999 -6.50000
25.80000 3.49999 -6.00000
25.80000 2.99999 -7.50000
25.80000 2.49999 -7.00000
25.80000 2.99999 -5.50000
25.80000 2.49999 -5.00000
26.30000 1.49999 -6.50000
25.80000 1.49999 -7.00000
25.80000 1.49999 -5.00000
25.80000 0.99999 -6.50000
25.80000 0.99999 -5.50000
25.80000 0.99999 -4.50000
26.30000 0.49999 -4.50000
25.80000 0.49999 -5.00000
25.80000 0.49999 -4.00000
25.80000 -0.00001 -4.50000
25.80000 -0.50001 -4.00000
26.30000 -0.50001 -3.50000
25.80000 -0.00001 -3.50000
25.80000 -0.50001 -3.00000
26.30000 -1.50001 -3.50000
25.80000 -1.50001 -4.00000
25.80000 -1.00001 -2.50000
26.30000 -1.50001 -2.50000
25.80000 -1.50001 -2.00000
26.30000 -2.50001 -3.50000
25.80000 -2.50001 -4.00000
25.80000 -2.50001 -2.00000
25.80000 -3.00001 -3.50000
25.80000 -3.50001 -3.00000
25.80000 -3.00001 -1.50000
26.30000 -3.50001 -1.50000
25.80000 -3.50001 -1.00000
26.30000 -4.50001 -2.50000
25.80000 -4.50001 -3.00000
25.80000 -4.50001 -1.00000
25.80000 -5.00001 -2.50000
25.80000 -5.00001 -1.50000
26.30000 -20.50001 7.50000
26.30000 -20.50001 8.50000
26.30000 -21.50001 7.50000
25.80000 -21.50001 8.00000
25.80000 -21.00001 8.50000
25.80000 -21.00001 9.50000
25.80000 -21.00001 10.50000
26.30000 -21.50001 10.50000
25.80000 -21.50001 11.00000
25.80000 -22.00001 8.50000
25.80000 -22.00001 9.50000
25.80000 -22.00001 10.50000
24.80000 7.49999 -18.00000
24.80000 7.99999 -17.50000
24.80000 7.99999 -16.50000
25.30000 7.49999 -15.50000
24.80000 7.49999 -16.00000
24.80000 6.49999 -18.00000
24.80000 6.99999 -15.50000
25.30000 6.49999 -14.50000
24.80000 6.49999 -15.00000
24.80000 5.49999 -18.00000
25.30000 5.49999 -15.50000
24.80000 5.99999 -15.50000
24.80000 5.49999 -16.00000
24.80000 4.99999 -17.50000
24.80000 4.99999 -16.50000
25.30000 3.49999 -7.50000
25.30000 3.49999 -6.50000
24.80000 2.99999 -6.50000
24.80000 2.49999 -7.00000
25.30000 2.49999 -5.50000
24.80000 2.49999 -6.00000
24.80000 1.99999 -6.50000
25.30000 1.49999 -6.50000
24.80000 1.99999 -5.50000
24.80000 1.49999 -6.00000
24.80000 1.49999 -5.00000
24.80000 0.49999 -6.00000
25.30000 0.49999 -5.50000
25.30000 0.99999 -5.00000
24.80000 0.99999 -4.50000
24.80000 0.49999 -4.00000
24.80000 -0.00001 -5.50000
25.30000 -0.50001 -4.50000
24.80000 -0.50001 -5.00000
25.30000 -0.00001 -4.00000
24.80000 -0.00001 -3.50000
24.80000 -0.50001 -3.00000
24.80000 -1.00001 -4.50000
24.80000 -1.50001 -4.00000
24.80000 -1.00001 -2.50000
24.80000 -1.50001 -2.00000
24.80000 -2.50001 -4.00000
24.80000 -2.50001 -2.00000
25.30000 -3.50001 -3.50000
24.80000 -3.50001 -4.00000
24.80000 -3.00001 -1.50000
24.80000 -3.50001 -1.00000
24.80000 -4.00001 -3.50000
24.80000 -4.50001 -3.00000
24.80000 -4.50001 -1.00000
24.80000 -5.00001 -2.50000
24.80000 -5.00001 -1.50000
25.30000 -21.50001 8.50000
25.30000 -21.50001 9.50000
25.30000 -21.50001 10.50000
23.80000 7.49999 -18.00000
23.80000 7.99999 -17.50000
23.80000 7.99999 -16.50000
23.80000 7.49999 -16.00000
23.80000 6.49999 -18.00000
24.30000 6.49999 -15.50000
23.80000 6.49999 -16.00000
23.80000 5.99999 -17.50000
24.30000 5.49999 -17.50000
24.30000 5.49999 -16.50000
23.80000 5.99999 -16.50000
24.30000 2.49999 -6.50000
23.80000 1.49999 -6.00000
23.80000 1.99999 -5.50000
23.80000 1.49999 -5.00000
23.80000 0.49999 -6.00000
23.80000 0.99999 -4.50000
23.80000 0.49999 -4.00000
23.80000 -0.00001 -5.50000
23.80000 -0.50001 -5.00000
23.80000 -0.00001 -3.50000
23.80000 -0.50001 -3.00000
24.30000 -1.50001 -4.50000
23.80000 -1.50001 -5.00000
23.80000 -1.00001 -2.50000
23.80000 -1.50001 -2.00000
23.80000 -2.00001 -4.50000
23.80000 -2.50001 -4.00000
23.80000 -2.00001 -1.50000
24.30000 -2.50001 -1.50000
23.80000 -2.50001 -1.00000
23.80000 -3.50001 -4.00000
23.80000 -3.50001 -1.00000
24.30000 -4.50001 -3.50000
23.80000 -4.50001 -4.00000
23.80000 -4.50001 -1.00000
23.80000 -5.00001 -3.50000
23.80000 -5.00001 -2.50000
23.80000 -5.00001 -1.50000
23.30000 7.49999 -17.50000
23.30000 7.49999 -16.50000
23.30000 6.49999 -17.50000
23.30000 6.49999 -16.50000
22.80000 1.49999 -6.00000
22.80000 1.99999 -5.50000
22.80000 1.49999 -5.00000
22.80000 0.49999 -6.00000
22.80000 0.99999 -4.50000
22.80000 0.49999 -4.00000
22.80000 -0.00001 -5.50000
22.80000 -0.50001 -5.00000
22.80000 -0.00001 -3.50000
22.80000 -0.50001 -3.00000
22.80000 -1.50001 -5.00000
22.80000 -1.00001 -2.50000
22.80000 -1.50001 -2.00000
22.80000 -2.00001 -4.50000
22.80000 -2.50001 -4.00000
22.80000 -2.00001 -1.50000
22.80000 -2.50001 -1.00000
22.80000 -3.50001 -4.00000
22.80000 -3.50001 -1.00000
22.80000 -4.50001 -4.00000
22.80000 -4.50001 -1.00000
22.80000 -5.00001 -3.50000
22.80000 -5.00001 -2.50000
22.80000 -5.00001 -1.50000
22.30000 1.49999 -5.50000
22.30000 0.49999 -5.50000
21.80000 0.99999 -4.50000
21.80000 0.49999 -5.00000
21.80000 0.49999 -4.00000
21.80000 -0.50001 -5.00000
21.80000 -0.00001 -3.50000
21.80000 -0.50001 -3.00000
21.80000 -1.00001 -4.50000
22.30000 -1.50001 -4.50000
21.80000 -1.50001 -4.00000
21.80000 -1.00001 -2.50000
21.80000 -1.50001 -2.00000
21.80000 -2.50001 -4.00000
21.80000 -2.00001 -1.50000
21.80000 -2.50001 -1.00000
21.80000 -3.50001 -4.00000
21.80000 -3.50001 -1.00000
21.80000 -4.50001 -4.00000
21.80000 -4.50001 -1.00000
21.80000 -5.00001 -3.50000
22.30000 -5.50001 -2.50000
21.80000 -5.50001 -3.00000
21.80000 -5.50001 -2.00000
21.80000 -5.00001 -1.50000
21.80000 -6.00001 -2.50000
21.30000 0.49999 -4.50000
20.80000 -0.50001 -5.00000
20.80000 -0.00001 -4.50000
20.80000 -0.00001 -3.50000
20.80000 -0.50001 -3.00000
20.80000 -1.00001 -4.50000
20.80000 -1.50001 -4.00000
20.80000 -1.00001 -2.50000
20.80000 -1.00001 -1.50000
21.30000 -1.50001 -1.50000
20.80000 -1.50001 -1.00000
20.80000 -2.50001 -4.00000
20.80000 -2.50001 -1.00000
20.80000 -3.50001 -4.00000
20.80000 -3.50001 -1.00000
20.80000 -4.00001 -3.50000
21.30000 -4.50001 -3.50000
20.80000 -4.50001 -3.00000
20.80000 -4.50001 -1.00000
20.80000 -5.50001 -3.00000
21.30000 -5.50001 -1.50000
20.80000 -5.50001 -1.00000
20.80000 -6.00001 -2.50000
20.80000 -6.00001 -1.50000
19.80000 -0.50001 -5.00000
19.80000 -0.00001 -4.50000
19.80000 -0.00001 -3.50000
19.80000 -0.50001 -3.00000
19.80000 -1.00001 -4.50000
19.80000 -1.50001 -4.00000
19.80000 -1.00001 -2.50000
19.80000 -1.00001 -1.50000
19.80000 -1.50001 -1.00000
19.80000 -2.50001 -4.00000
19.80000 -2.50001 -1.00000
19.80000 -3.50001 -4.00000
19.80000 -3.50001 -1.00000
19.80000 -4.00001 -3.50000
19.80000 -4.50001 -3.00000
19.80000 -4.50001 -1.00000
19.80000 -5.50001 -3.00000
19.80000 -5.50001 -1.00000
19.80000 -6.00001 -2.50000
19.80000 -6.00001 -1.50000
19.30000 0.49999 -5.50000
18.80000 0.49999 -6.00000
18.80000 0.99999 -5.50000
18.80000 0.99999 -4.50000
19.30000 0.49999 -4.50000
18.80000 0.49999 -4.00000
18.80000 -0.00001 -5.50000
18.80000 -0.50001 -5.00000
18.80000 -0.00001 -3.50000
18.80000 -0.00001 -2.50000
19.30000 -0.50001 -2.50000
18.80000 -0.00001 -1.50000
19.30000 -0.50001 -1.50000
18.80000 -0.50001 -1.00000
19.30000 -1.50001 -4.50000
18.80000 -1.50001 -5.00000
18.80000 -1.50001 -1.00000
18.80000 -2.00001 -4.50000
18.80000 -2.50001 -4.00000
18.80000 -2.50001 -1.00000
18.80000 -3.00001 -3.50000
19.30000 -3.50001 -3.50000
18.80000 -3.50001 -3.00000
18.80000 -3.50001 -1.00000
18.80000 -4.50001 -3.00000
18.80000 -4.50001 -1.00000
19.30000 -5.50001 -3.50000
18.80000 -5.50001 -4.00000
18.80000 -5.00001 -3.50000
19.30000 -5.50001 -1.50000
18.80000 -5.00001 -1.50000
18.80000 -5.50001 -2.00000
18.80000 -6.00001 -3.50000
18.80000 -6.00001 -2.50000
17.80000 0.49999 -6.00000
17.80000 0.99999 -5.50000
17.80000 0.99999 -4.50000
17.80000 0.49999 -4.00000
18.30000 -0.50001 -5.50000
17.80000 -0.50001 -6.00000
17.80000 -0.00001 -3.50000
17.80000 -0.00001 -2.50000
17.80000 -0.00001 -1.50000
17.80000 -0.50001 -1.00000
17.80000 -1.00001 -5.50000
17.80000 -1.50001 -5.00000
17.80000 -1.50001 -1.00000
17.80000 -2.00001 -4.50000
18.30000 -2.50001 -3.50000
17.80000 -2.00001 -3.50000
17.80000 -2.50001 -3.00000
17.80000 -2.50001 -1.00000
17.80000 -3.50001 -3.00000
17.80000 -3.50001 -1.00000
17.80000 -4.50001 -3.00000
18.30000 -4.50001 -1.50000
17.80000 -4.00001 -1.50000
17.80000 -4.50001 -2.00000
18.30000 -5.50001 -3.50000
17.80000 -5.00001 -2.50000
18.30000 -5.50001 -2.50000
16.80000 0.49999 -6.00000
16.80000 0.99999 -5.50000
16.80000 0.99999 -4.50000
16.80000 0.49999 -4.00000
16.80000 -0.00001 -5.50000
17.30000 -0.50001 -5.50000
16.80000 -0.50001 -5.00000
16.80000 -0.00001 -3.50000
16.80000 -0.00001 -2.50000
16.80000 -0.00001 -1.50000
16.80000 -0.50001 -1.00000
17.30000 -1.50001 -4.50000
16.80000 -1.00001 -4.50000
17.30000 -1.50001 -3.50000
16.80000 -1.00001 -3.50000
16.80000 -1.50001 -3.00000
16.80000 -1.50001 -1.00000
16.80000 -2.50001 -3.00000
16.80000 -2.50001 -1.00000
16.80000 -3.00001 -2.50000
17.30000 -3.50001 -2.50000
17.30000 -3.50001 -1.50000
16.80000 -3.00001 -1.50000
17.30000 -4.50001 -2.50000
16.30000 0.49999 -5.50000
16.30000 0.49999 -4.50000
16.30000 0.49999 -1.50000
15.80000 0.49999 -2.00000
15.80000 0.99999 -1.50000
15.80000 0.49999 -1.00000
16.30000 -0.50001 -4.50000
16.30000 -0.50001 -3.50000
15.80000 -0.50001 -3.00000
15.80000 -0.00001 -2.50000
15.80000 -0.50001 -1.00000
15.80000 -1.50001 -3.00000
15.80000 -1.50001 -1.00000
15.80000 -2.00001 -2.50000
16.30000 -2.50001 -2.50000
16.30000 -2.50001 -1.50000
15.80000 -2.00001 -1.50000
15.30000 0.49999 -1.50000
15.30000 -0.50001 -2.50000
15.30000 -0.50001 -1.50000
15.30000 -1.50001 -2.50000
15.30000 -1.50001 -1.50000
3 2 1 0
3 4 3 0
3 0 3 2
3 4 5 3
3 1 6 0
3 8 7 6
3 7 0 6
3 7 4 0
3 5 4 9
3 9 4 7
3 7 8 10
3 10 8 11
3 9 7 12
3 7 13 12
3 7 10 13
3 13 14 12
3 10 11 15
3 15 11 16
3 10 17 13
3 10 15 17
3 14 13 18
3 18 13 17
3 16 19 15
3 21 20 19
3 20 15 19
3 20 17 15
3 18 17 22
3 22 17 20
3 20 21 23
3 23 21 24
3 22 20 25
3 20 26 25
3 20 23 26
3 26 27 25
3 23 24 28
3 28 24 29
3 23 30 26
3 23 28 30
3 27 26 31
3 31 26 30
3 29 32 28
3 34 33 32
3 33 28 32
3 33 30 28
3 31 30 35
3 35 30 33
3 33 34 36
3 36 34 37
3 35 33 38
3 33 39 38
3 33 36 39
3 39 40 38
3 36 37 41
3 41 37 42
3 36 43 39
3 36 41 43
3 40 39 44
3 44 39 43
3 42 45 41
3 47 46 45
3 46 41 45
3 46 43 41
3 44 43 48
3 48 43 46
3 46 47 49
3 49 47 50
3 48 46 51
3 46 52 51
3 46 49 52
3 52 53 51
3 49 50 54
3 54 50 55
3 49 56 52
3 49 54 56
3 53 52 57
3 57 52 56
3 55 58 54
3 54 58 56
3 56 58 59
3 56 59 57
3 62 61 60
3 64 63 60
3 60 63 62
3 64 65 63
3 61 66 60
3 68 67 66
3 67 60 66
3 67 64 60
3 65 64 69
3 64 70 69
3 64 67 70
3 70 71 69
3 67 68 72
3 72 68 73
3 67 74 70
3 67 72 74
3 71 70 75
3 75 70 74
3 72 73 76
3 76 73 77
3 72 78 74
3 72 76 78
3 75 74 79
3 74 80 79
3 74 78 80
3 80 81 79
3 77 82 76
3 83 1 2
3 76 83 2
3 78 76 2
3 82 83 76
3 78 2 3
3 78 3 80
3 3 5 80
3 5 81 80
3 5 84 81
3 6 1 85
3 1 86 85
3 1 83 86
3 85 8 6
3 9 88 87
3 84 9 87
3 5 9 84
3 88 89 87
3 86 90 85
3 8 85 90
3 91 8 90
3 11 8 91
3 12 88 9
3 12 14 88
3 14 89 88
3 14 92 89
3 91 16 11
3 93 16 91
3 18 95 94
3 92 18 94
3 14 18 92
3 95 96 94
3 19 16 97
3 16 98 97
3 16 93 98
3 97 21 19
3 22 99 95
3 22 95 18
3 96 95 100
3 100 95 99
3 98 101 97
3 21 97 101
3 102 21 101
3 24 21 102
3 25 99 22
3 25 27 99
3 27 100 99
3 27 103 100
3 102 29 24
3 104 29 102
3 31 106 105
3 103 31 105
3 27 31 103
3 106 107 105
3 32 29 108
3 29 109 108
3 29 104 109
3 108 34 32
3 35 110 106
3 35 106 31
3 107 106 111
3 111 106 110
3 109 112 108
3 34 108 112
3 113 34 112
3 37 34 113
3 38 110 35
3 115 114 40
3 40 114 38
3 114 111 38
3 111 110 38
3 115 116 114
3 113 42 37
3 117 42 113
3 44 118 115
3 44 115 40
3 116 115 119
3 119 115 118
3 45 42 120
3 42 121 120
3 42 117 121
3 120 47 45
3 48 122 118
3 48 118 44
3 119 118 123
3 123 118 122
3 121 124 120
3 47 120 124
3 125 47 124
3 50 47 125
3 51 122 48
3 51 53 122
3 53 123 122
3 53 126 123
3 125 55 50
3 127 55 125
3 57 129 128
3 126 57 128
3 53 57 126
3 129 130 128
3 127 131 55
3 55 131 58
3 131 133 132
3 59 131 132
3 58 131 59
3 129 57 59
3 132 129 59
3 134 129 132
3 130 129 135
3 135 129 134
3 132 133 136
3 136 133 137
3 132 138 134
3 132 136 138
3 135 134 139
3 139 134 138
3 137 140 136
3 142 141 140
3 141 136 140
3 141 138 136
3 139 138 143
3 138 144 143
3 138 141 144
3 144 145 143
3 141 142 146
3 146 142 147
3 141 148 144
3 141 146 148
3 145 144 149
3 149 144 148
3 147 150 146
3 146 150 148
3 148 150 151
3 148 151 149
3 154 153 152
3 156 155 152
3 152 155 154
3 156 157 155
3 152 153 158
3 158 153 159
3 152 160 156
3 152 158 160
3 157 156 161
3 161 156 160
3 159 162 158
3 164 163 162
3 163 158 162
3 163 160 158
3 161 160 165
3 160 166 165
3 160 163 166
3 166 167 165
3 163 164 62
3 164 61 62
3 164 168 61
3 163 62 63
3 163 63 166
3 170 169 65
3 65 169 63
3 169 167 63
3 167 166 63
3 170 171 169
3 168 172 61
3 61 172 66
3 68 66 172
3 68 172 173
3 69 170 65
3 69 71 170
3 71 171 170
3 71 174 171
3 173 73 68
3 175 73 173
3 75 177 176
3 174 75 176
3 71 75 174
3 177 178 176
3 175 77 73
3 179 77 175
3 79 177 75
3 79 81 177
3 81 178 177
3 81 180 178
3 179 181 77
3 77 181 82
3 83 82 181
3 83 181 182
3 84 180 81
3 84 183 180
3 185 86 184
3 86 182 184
3 86 83 182
3 186 185 184
3 84 87 187
3 188 84 187
3 183 84 188
3 89 187 87
3 185 90 86
3 190 189 91
3 190 91 90
3 186 190 90
3 185 186 90
3 189 190 188
3 187 189 188
3 191 189 187
3 92 191 89
3 89 191 187
3 192 93 189
3 189 93 91
3 193 189 191
3 192 189 193
3 94 194 92
3 194 191 92
3 194 193 191
3 96 194 94
3 195 98 192
3 192 98 93
3 196 192 193
3 195 192 196
3 197 193 194
3 196 193 197
3 100 197 96
3 96 197 194
3 195 101 98
3 101 195 102
3 195 198 102
3 195 196 198
3 199 196 197
3 198 196 199
3 103 199 100
3 100 199 197
3 200 104 198
3 198 104 102
3 201 198 199
3 200 198 201
3 105 202 103
3 202 199 103
3 202 201 199
3 107 202 105
3 203 109 200
3 200 109 104
3 204 200 201
3 203 200 204
3 205 201 202
3 204 201 205
3 111 205 107
3 107 205 202
3 203 112 109
3 112 203 113
3 203 206 113
3 203 204 206
3 207 204 205
3 206 204 207
3 114 208 111
3 208 205 111
3 208 207 205
3 116 208 114
3 209 117 206
3 206 117 113
3 207 211 210
3 209 207 210
3 206 207 209
3 211 207 208
3 211 208 212
3 116 119 208
3 119 213 208
3 213 212 208
3 213 119 214
3 214 215 213
3 216 121 209
3 209 121 117
3 209 210 217
3 209 217 216
3 123 218 214
3 123 214 119
3 215 214 219
3 219 214 218
3 216 124 121
3 125 124 216
3 217 125 216
3 220 125 217
3 126 221 218
3 126 218 123
3 219 218 222
3 218 223 222
3 218 221 223
3 223 224 222
3 220 127 125
3 225 127 220
3 128 221 126
3 221 128 130
3 226 221 130
3 223 221 226
3 224 223 227
3 227 223 226
3 225 228 127
3 127 228 131
3 133 131 228
3 133 228 229
3 135 230 226
3 135 226 130
3 227 226 231
3 231 226 230
3 229 137 133
3 232 137 229
3 139 233 230
3 139 230 135
3 231 230 234
3 234 230 233
3 140 137 235
3 137 236 235
3 137 232 236
3 235 142 140
3 143 233 139
3 143 145 233
3 145 234 233
3 145 237 234
3 236 238 235
3 142 235 238
3 239 142 238
3 147 142 239
3 149 241 240
3 237 149 240
3 145 149 237
3 241 242 240
3 239 243 147
3 147 243 150
3 243 245 244
3 151 243 244
3 150 243 151
3 241 149 151
3 244 241 151
3 246 241 244
3 242 241 247
3 247 241 246
3 244 245 248
3 248 245 249
3 244 250 246
3 244 248 250
3 247 246 251
3 251 246 250
3 249 252 248
3 248 252 250
3 250 252 253
3 250 253 251
3 256 255 254
3 254 257 256
3 254 255 258
3 258 255 259
3 257 254 260
3 254 261 260
3 254 258 261
3 261 262 260
3 259 263 258
3 264 153 154
3 258 264 154
3 261 258 154
3 263 264 258
3 265 262 261
3 154 265 261
3 155 265 154
3 155 157 265
3 265 157 266
3 264 159 153
3 267 159 264
3 161 269 268
3 266 161 268
3 157 161 266
3 269 270 268
3 267 271 159
3 159 271 162
3 164 162 271
3 164 271 272
3 165 269 161
3 165 167 269
3 167 270 269
3 167 273 270
3 272 168 164
3 274 168 272
3 275 273 167
3 275 167 169
3 169 171 275
3 275 171 276
3 274 277 168
3 168 277 172
3 173 172 277
3 173 277 278
3 174 276 171
3 174 279 276
3 281 175 280
3 175 278 280
3 175 173 278
3 283 282 281
3 283 281 280
3 284 282 176
3 282 279 176
3 279 174 176
3 279 282 283
3 178 284 176
3 285 179 281
3 281 179 175
3 286 281 282
3 285 281 286
3 287 282 284
3 286 282 287
3 180 287 178
3 178 287 284
3 285 181 179
3 181 285 182
3 285 288 182
3 285 286 288
3 289 286 287
3 288 286 289
3 183 289 180
3 180 289 287
3 288 184 182
3 184 288 186
3 288 290 186
3 288 289 290
3 188 290 183
3 183 290 289
3 290 190 186
3 190 290 188
3 291 210 211
3 212 292 211
3 211 292 291
3 213 293 212
3 212 293 292
3 295 293 294
3 293 213 294
3 215 296 294
3 215 294 213
3 296 297 294
3 298 217 291
3 291 217 210
3 299 291 292
3 298 291 299
3 300 292 293
3 299 292 300
3 296 215 301
3 219 301 215
3 302 293 295
3 293 302 300
3 297 296 303
3 296 304 303
3 296 301 304
3 304 305 303
3 306 220 298
3 298 220 217
3 307 298 299
3 306 298 307
3 308 299 300
3 307 299 308
3 301 219 222
3 302 309 300
3 310 300 309
3 300 310 308
3 309 311 310
3 312 222 224
3 222 312 301
3 304 301 312
3 305 304 313
3 313 304 312
3 314 225 306
3 306 225 220
3 315 306 307
3 314 306 315
3 316 307 308
3 315 307 316
3 317 308 310
3 316 308 317
3 312 224 318
3 227 318 224
3 319 310 311
3 310 319 317
3 313 312 320
3 320 312 318
3 314 228 225
3 228 314 229
3 314 321 229
3 314 315 321
3 322 315 316
3 321 315 322
3 323 316 317
3 322 316 323
3 318 227 324
3 231 324 227
3 325 317 319
3 317 325 323
3 320 318 326
3 326 318 324
3 327 232 321
3 321 232 229
3 322 329 328
3 327 322 328
3 321 322 327
3 329 322 323
3 329 323 330
3 234 331 231
3 234 323 331
3 323 234 330
3 332 330 234
3 330 332 325
3 331 325 332
3 332 324 331
3 331 324 231
3 323 325 331
3 326 324 333
3 324 334 333
3 324 332 334
3 334 335 333
3 336 236 327
3 327 236 232
3 327 328 337
3 327 337 336
3 237 338 332
3 237 332 234
3 332 339 334
3 332 338 339
3 335 334 340
3 340 334 339
3 336 238 236
3 239 238 336
3 337 239 336
3 341 239 337
3 240 338 237
3 338 240 242
3 342 338 242
3 339 338 342
3 340 339 343
3 343 339 342
3 341 344 239
3 239 344 243
3 245 243 344
3 245 344 345
3 247 346 342
3 247 342 242
3 343 342 347
3 347 342 346
3 349 249 348
3 249 345 348
3 249 245 345
3 351 350 349
3 351 349 348
3 351 352 346
3 251 351 346
3 247 251 346
3 350 351 251
3 346 352 347
3 349 252 249
3 252 349 253
3 253 349 350
3 253 350 251
3 355 354 353
3 357 356 353
3 353 356 355
3 357 358 356
3 353 354 359
3 359 354 360
3 359 255 256
3 357 359 256
3 353 359 357
3 362 361 257
3 257 361 256
3 361 358 256
3 358 357 256
3 362 363 361
3 360 364 359
3 255 359 364
3 365 255 364
3 259 255 365
3 260 362 257
3 367 366 262
3 262 366 260
3 366 363 260
3 363 362 260
3 367 368 366
3 263 259 369
3 259 370 369
3 259 365 370
3 369 264 263
3 265 367 262
3 265 266 367
3 266 368 367
3 266 371 368
3 370 372 369
3 264 369 372
3 373 264 372
3 267 264 373
3 266 268 374
3 375 266 374
3 371 266 375
3 270 374 268
3 373 376 267
3 267 376 271
3 378 377 272
3 271 378 272
3 376 378 271
3 377 378 375
3 374 377 375
3 379 377 374
3 273 379 270
3 270 379 374
3 380 274 377
3 377 274 272
3 381 377 379
3 380 377 381
3 275 382 273
3 382 379 273
3 382 381 379
3 276 382 275
3 380 277 274
3 277 380 278
3 380 383 278
3 380 381 383
3 384 381 382
3 383 381 384
3 279 384 276
3 276 384 382
3 383 280 278
3 280 383 283
3 283 383 384
3 283 384 279
3 385 295 294
3 387 385 386
3 385 294 386
3 297 388 386
3 297 386 294
3 388 389 386
3 390 302 385
3 385 302 295
3 392 391 387
3 392 388 391
3 388 392 303
3 390 303 392
3 303 390 297
3 391 297 390
3 390 385 391
3 391 385 387
3 388 297 391
3 303 305 388
3 305 389 388
3 305 393 389
3 390 309 302
3 311 309 390
3 392 311 390
3 394 311 392
3 313 396 395
3 393 313 395
3 305 313 393
3 396 397 395
3 399 319 398
3 319 394 398
3 319 311 394
3 320 400 313
3 400 399 313
3 398 313 399
3 313 398 396
3 401 396 398
3 396 401 400
3 400 402 396
3 320 402 400
3 400 401 399
3 397 396 403
3 403 396 402
3 404 325 399
3 399 325 319
3 402 320 405
3 326 405 320
3 406 399 401
3 399 406 404
3 403 402 407
3 402 408 407
3 402 405 408
3 408 409 407
3 410 328 329
3 330 411 329
3 329 411 410
3 325 404 330
3 404 411 330
3 404 412 411
3 414 413 406
3 414 405 413
3 405 414 333
3 412 333 414
3 333 412 326
3 413 326 412
3 412 404 413
3 413 404 406
3 405 326 413
3 405 333 335
3 415 405 335
3 408 405 415
3 409 408 416
3 408 417 416
3 408 415 417
3 417 418 416
3 419 337 410
3 410 337 328
3 420 410 411
3 419 410 420
3 421 411 412
3 420 411 421
3 412 414 422
3 412 422 421
3 340 423 415
3 340 415 335
3 415 424 417
3 415 423 424
3 418 417 425
3 425 417 424
3 426 341 419
3 419 341 337
3 427 419 420
3 426 419 427
3 428 420 421
3 427 420 428
3 421 422 429
3 421 429 428
3 343 430 423
3 343 423 340
3 432 424 431
3 424 430 431
3 424 423 430
3 424 432 425
3 426 344 341
3 426 427 433
3 345 426 433
3 434 345 433
3 426 345 344
3 433 427 428
3 433 428 435
3 435 428 429
3 347 436 430
3 347 430 343
3 431 430 437
3 437 430 436
3 434 438 345
3 345 438 348
3 348 439 351
3 438 439 348
3 351 440 352
3 439 440 351
3 347 352 436
3 352 441 436
3 352 440 441
3 436 441 437
3 444 443 442
3 446 445 442
3 442 445 444
3 446 447 445
3 442 443 448
3 448 443 449
3 448 354 355
3 446 448 355
3 442 448 446
3 450 447 446
3 355 450 446
3 356 450 355
3 356 358 450
3 450 358 451
3 449 452 448
3 354 448 452
3 453 354 452
3 360 354 453
3 454 451 358
3 454 358 361
3 361 363 454
3 454 363 455
3 453 456 360
3 360 456 364
3 365 364 456
3 365 456 457
3 363 366 458
3 459 363 458
3 455 363 459
3 368 458 366
3 461 370 460
3 370 457 460
3 370 365 457
3 463 462 461
3 463 461 460
3 462 463 459
3 458 462 459
3 464 462 458
3 371 464 368
3 368 464 458
3 461 372 370
3 372 461 373
3 461 465 373
3 461 462 465
3 466 462 464
3 465 462 466
3 375 466 371
3 371 466 464
3 465 376 373
3 376 465 378
3 378 465 466
3 378 466 375
3 468 467 386
3 386 467 387
3 386 389 468
3 468 389 469
3 467 392 387
3 470 392 467
3 393 472 471
3 469 393 471
3 389 393 469
3 472 473 471
3 475 394 474
3 394 470 474
3 394 392 470
3 393 395 472
3 475 474 476
3 395 397 472
3 397 473 472
3 397 477 473
3 475 398 394
3 401 398 475
3 476 401 475
3 478 401 476
3 403 480 479
3 477 403 479
3 397 403 477
3 480 481 479
3 483 406 482
3 406 478 482
3 406 401 478
3 403 407 480
3 483 482 484
3 486 485 409
3 409 485 407
3 485 481 407
3 481 480 407
3 486 487 485
3 488 414 483
3 483 414 406
3 483 484 489
3 483 489 488
3 416 486 409
3 491 490 418
3 418 490 416
3 490 487 416
3 487 486 416
3 491 492 490
3 493 422 488
3 488 422 414
3 488 489 494
3 488 494 493
3 425 495 491
3 425 491 418
3 492 491 496
3 496 491 495
3 497 429 493
3 493 429 422
3 493 494 498
3 499 493 498
3 497 493 499
3 500 432 431
3 501 499 498
3 495 425 432
3 500 495 432
3 502 495 500
3 496 495 503
3 503 495 502
3 504 434 433
3 435 505 433
3 433 505 504
3 429 497 435
3 497 505 435
3 497 506 505
3 507 497 499
3 506 497 507
3 500 431 508
3 437 508 431
3 509 499 501
3 499 509 507
3 500 510 502
3 500 508 510
3 503 502 511
3 511 502 510
3 504 438 434
3 438 504 439
3 439 504 505
3 439 505 440
3 440 505 506
3 440 506 441
3 441 506 507
3 507 509 441
3 509 512 441
3 508 437 441
3 508 441 512
3 508 512 510
3 510 512 513
3 510 513 511
3 516 515 514
3 518 517 514
3 514 517 516
3 518 519 517
3 514 515 520
3 520 515 521
3 520 443 444
3 518 520 444
3 514 520 518
3 522 519 518
3 444 522 518
3 445 522 444
3 445 447 522
3 522 447 523
3 521 524 520
3 443 520 524
3 525 443 524
3 449 443 525
3 526 523 447
3 526 447 450
3 450 451 526
3 526 451 527
3 525 528 449
3 449 528 452
3 530 529 453
3 452 530 453
3 528 530 452
3 531 529 530
3 451 454 532
3 533 451 532
3 527 451 533
3 455 532 454
3 529 456 453
3 535 534 457
3 535 457 456
3 531 535 456
3 529 531 456
3 534 535 533
3 532 534 533
3 536 534 532
3 459 536 455
3 455 536 532
3 534 460 457
3 460 534 463
3 463 534 536
3 463 536 459
3 538 537 468
3 468 537 467
3 468 469 538
3 538 469 539
3 541 470 540
3 470 537 540
3 470 467 537
3 543 542 471
3 542 544 471
3 541 471 544
3 471 541 469
3 540 469 541
3 469 540 542
3 542 539 469
3 543 539 542
3 542 540 544
3 471 473 543
3 543 473 545
3 541 474 470
3 476 474 541
3 544 476 541
3 546 476 544
3 477 545 473
3 477 547 545
3 549 478 548
3 478 546 548
3 478 476 546
3 551 550 479
3 550 552 479
3 549 479 552
3 479 549 477
3 548 477 549
3 477 548 550
3 550 547 477
3 551 547 550
3 550 548 552
3 479 481 551
3 551 481 553
3 549 482 478
3 484 482 549
3 552 484 549
3 554 484 552
3 555 553 481
3 555 481 485
3 557 556 487
3 556 485 487
3 556 555 485
3 557 558 556
3 554 489 484
3 559 489 554
3 490 557 487
3 490 492 557
3 492 558 557
3 492 560 558
3 562 494 561
3 494 559 561
3 494 489 559
3 563 562 561
3 496 565 564
3 560 496 564
3 492 496 560
3 565 566 564
3 562 498 494
3 501 498 562
3 563 501 562
3 567 501 563
3 503 568 565
3 503 565 496
3 566 565 569
3 569 565 568
3 571 509 570
3 509 567 570
3 509 501 567
3 573 572 571
3 573 571 570
3 573 574 568
3 511 573 568
3 503 511 568
3 572 573 511
3 568 574 569
3 571 512 509
3 512 571 513
3 513 571 572
3 513 572 511
3 577 576 575
3 575 578 577
3 575 576 579
3 579 576 580
3 516 581 515
3 581 575 515
3 575 579 515
3 575 581 578
3 582 516 517
3 582 581 516
3 517 519 582
3 582 519 583
3 579 580 584
3 584 580 585
3 584 521 515
3 584 515 579
3 586 583 519
3 586 519 522
3 522 523 586
3 586 523 587
3 585 588 584
3 584 588 521
3 588 524 521
3 588 589 524
3 525 524 589
3 525 589 590
3 593 592 591
3 594 591 526
3 591 587 526
3 587 523 526
3 587 591 592
3 527 594 526
3 590 595 525
3 525 595 528
3 591 530 593
3 530 595 593
3 530 528 595
3 530 591 531
3 591 596 531
3 591 594 596
3 533 596 527
3 527 596 594
3 596 535 531
3 535 596 533
3 597 537 538
3 539 597 538
3 597 540 537
3 544 540 598
3 540 597 598
3 539 543 598
3 539 598 597
3 545 598 543
3 599 546 598
3 598 546 544
3 547 599 545
3 545 599 598
3 599 548 546
3 552 548 600
3 548 599 600
3 547 551 600
3 547 600 599
3 553 600 551
3 601 554 600
3 600 554 552
3 601 600 553
3 602 601 553
3 555 602 553
3 603 601 602
3 604 555 556
3 604 602 555
3 556 558 604
3 604 558 605
3 606 559 601
3 601 559 554
3 601 603 607
3 601 607 606
3 560 609 608
3 605 560 608
3 558 560 605
3 609 610 608
3 606 561 559
3 563 561 606
3 607 563 606
3 611 563 607
3 564 609 560
3 613 612 566
3 566 612 564
3 612 610 564
3 610 609 564
3 613 614 612
3 616 567 615
3 567 611 615
3 567 563 611
3 617 616 615
3 569 618 613
3 569 613 566
3 614 613 619
3 619 613 618
3 616 570 567
3 617 620 616
3 620 570 616
3 620 573 570
3 573 621 574
3 620 621 573
3 569 574 618
3 574 622 618
3 574 621 622
3 618 622 619
3 625 624 623
3 623 576 625
3 576 577 625
3 627 626 625
3 627 625 577
3 578 627 577
3 623 624 628
3 628 624 629
3 576 630 580
3 630 627 580
3 631 580 627
3 580 631 628
3 626 628 631
3 628 626 630
3 630 623 628
3 576 623 630
3 630 626 627
3 631 627 578
3 581 631 578
3 632 631 581
3 634 632 633
3 632 582 633
3 632 581 582
3 583 633 582
3 628 629 635
3 635 629 636
3 635 585 580
3 635 580 628
3 634 633 637
3 634 637 638
3 586 639 583
3 639 633 583
3 639 637 633
3 587 639 586
3 636 640 635
3 635 640 585
3 640 588 585
3 640 641 588
3 588 642 589
3 641 642 588
3 637 643 590
3 642 637 590
3 589 642 590
3 638 637 642
3 593 643 592
3 643 639 592
3 643 637 639
3 592 639 587
3 643 595 590
3 595 643 593
3 646 645 644
3 644 647 646
3 645 648 644
3 644 648 647
3 649 603 602
3 604 650 602
3 602 650 649
3 605 650 604
3 651 607 649
3 649 607 603
3 650 653 652
3 651 650 652
3 649 650 651
3 653 650 605
3 608 653 605
3 654 653 608
3 608 610 654
3 654 610 655
3 656 611 651
3 651 611 607
3 651 652 657
3 651 657 656
3 658 655 610
3 658 610 612
3 660 659 614
3 659 612 614
3 659 658 612
3 660 661 659
3 656 615 611
3 663 662 617
3 663 617 615
3 657 663 615
3 656 657 615
3 664 662 663
3 619 665 660
3 619 660 614
3 661 660 666
3 666 660 665
3 662 620 617
3 664 667 662
3 667 620 662
3 667 621 620
3 621 668 622
3 667 668 621
3 619 622 665
3 622 669 665
3 622 668 669
3 665 669 666
3 672 671 670
3 624 625 670
3 625 672 670
3 625 673 672
3 625 626 673
3 673 626 674
3 670 671 675
3 675 671 676
3 675 629 624
3 675 624 670
3 677 674 626
3 677 626 631
3 679 677 678
3 677 632 678
3 677 631 632
3 634 678 632
3 675 676 680
3 680 676 681
3 680 636 629
3 680 629 675
3 679 678 682
3 679 682 683
3 638 682 634
3 634 682 678
3 681 684 680
3 680 684 636
3 684 640 636
3 684 685 640
3 640 686 641
3 685 686 640
3 682 642 683
3 642 686 683
3 642 641 686
3 642 682 638
3 689 688 687
3 645 646 687
3 646 689 687
3 646 690 689
3 646 647 690
3 690 647 691
3 688 692 687
3 692 694 693
3 692 693 648
3 687 692 648
3 645 687 648
3 691 647 695
3 647 693 695
3 693 696 695
3 647 648 693
3 696 697 695
3 694 698 693
3 700 699 698
3 699 693 698
3 699 696 693
3 697 696 701
3 701 696 699
3 700 702 699
3 699 702 701
3 705 704 703
3 703 706 705
3 703 704 707
3 707 704 708
3 706 703 709
3 709 703 707
3 708 710 707
3 710 711 707
3 711 712 707
3 713 709 707
3 713 707 712
3 712 714 713
3 711 715 712
3 712 715 714
3 716 652 653
3 654 717 653
3 653 717 716
3 655 717 654
3 718 657 716
3 716 657 652
3 719 716 717
3 718 716 719
3 719 717 655
3 720 719 655
3 658 720 655
3 721 719 720
3 722 658 659
3 722 720 658
3 659 661 722
3 722 661 723
3 718 663 657
3 663 718 664
3 718 724 664
3 718 719 724
3 719 721 725
3 719 725 724
3 666 727 726
3 723 666 726
3 661 666 723
3 727 728 726
3 724 667 664
3 725 729 724
3 729 667 724
3 729 668 667
3 668 730 669
3 729 730 668
3 666 669 727
3 669 731 727
3 669 730 731
3 727 731 728
3 734 733 732
3 671 672 732
3 672 734 732
3 672 735 734
3 736 672 673
3 736 735 672
3 673 674 736
3 736 674 737
3 732 733 738
3 738 733 739
3 738 676 671
3 738 671 732
3 740 737 674
3 740 674 677
3 677 679 740
3 740 679 741
3 738 739 742
3 742 739 743
3 742 681 676
3 742 676 738
3 746 745 744
3 745 741 744
3 741 683 744
3 741 679 683
3 743 747 742
3 742 747 681
3 747 684 681
3 747 748 684
3 684 749 685
3 748 749 684
3 744 686 746
3 686 749 746
3 686 685 749
3 686 744 683
3 751 750 689
3 689 750 688
3 752 689 690
3 752 751 689
3 690 691 752
3 752 691 753
3 750 754 688
3 688 754 692
3 694 692 754
3 694 754 755
3 756 753 691
3 756 691 695
3 695 697 756
3 756 697 757
3 698 694 758
3 694 759 758
3 694 755 759
3 758 700 698
3 701 757 697
3 701 760 757
3 759 761 758
3 758 761 700
3 761 702 700
3 761 762 702
3 701 763 760
3 763 701 764
3 702 764 701
3 764 702 765
3 762 765 702
3 764 766 763
3 765 767 764
3 767 768 764
3 768 769 764
3 770 766 764
3 770 764 769
3 769 771 770
3 769 768 772
3 772 768 773
3 771 769 774
3 769 775 774
3 769 772 775
3 775 776 774
3 772 773 777
3 777 773 778
3 777 704 705
3 775 777 705
3 772 777 775
3 705 706 775
3 706 776 775
3 706 779 776
3 778 780 777
3 704 777 780
3 781 704 780
3 708 704 781
3 709 783 782
3 779 709 782
3 706 709 779
3 783 784 782
3 710 708 785
3 708 786 785
3 708 781 786
3 713 783 709
3 711 710 785
3 713 714 783
3 714 784 783
3 714 787 784
3 786 788 785
3 785 788 711
3 788 715 711
3 788 789 715
3 714 715 787
3 787 715 789
3 790 721 720
3 722 791 720
3 720 791 790
3 723 791 722
3 792 725 790
3 790 725 721
3 791 794 793
3 792 791 793
3 790 791 792
3 794 791 723
3 726 794 723
3 795 794 726
3 797 796 728
3 796 726 728
3 796 795 726
3 797 798 796
3 792 729 725
3 793 799 792
3 799 729 792
3 799 730 729
3 730 800 731
3 799 800 730
3 728 731 797
3 731 801 797
3 731 800 801
3 797 801 798
3 803 802 734
3 734 802 733
3 804 734 735
3 804 803 734
3 806 804 805
3 804 736 805
3 804 735 736
3 737 805 736
3 802 739 733
3 807 739 802
3 808 806 805
3 810 808 809
3 809 808 740
3 808 805 740
3 805 737 740
3 741 809 740
3 807 743 739
3 811 743 807
3 814 813 812
3 812 813 810
3 812 810 809
3 746 812 809
3 745 746 809
3 745 809 741
3 811 815 743
3 743 815 747
3 747 816 748
3 815 816 747
3 812 749 814
3 749 816 814
3 749 748 816
3 749 812 746
3 817 750 751
3 752 818 751
3 751 818 817
3 753 818 752
3 817 754 750
3 817 818 819
3 755 817 819
3 820 755 819
3 817 755 754
3 822 819 821
3 821 819 756
3 819 818 756
3 818 753 756
3 757 821 756
3 824 759 823
3 759 820 823
3 759 755 820
3 822 821 825
3 823 826 824
3 821 757 825
3 757 827 825
3 757 760 827
3 824 761 759
3 762 761 824
3 828 762 824
3 826 828 824
3 829 762 828
3 831 830 763
3 831 765 830
3 765 831 829
3 827 829 831
3 829 827 762
3 830 762 827
3 827 760 830
3 830 760 763
3 765 762 830
3 763 766 831
3 831 766 832
3 828 833 829
3 833 835 834
3 833 834 767
3 829 833 767
3 765 829 767
3 837 836 770
3 837 768 836
3 768 837 834
3 832 834 837
3 834 832 767
3 836 767 832
3 832 766 836
3 836 766 770
3 768 767 836
3 770 771 837
3 837 771 838
3 835 839 834
3 768 834 839
3 840 768 839
3 773 768 840
3 841 838 771
3 841 771 774
3 774 776 841
3 841 776 842
3 840 778 773
3 843 778 840
3 779 842 776
3 779 844 842
3 780 778 845
3 778 846 845
3 778 843 846
3 845 781 780
3 847 844 779
3 847 779 782
3 782 784 847
3 847 784 848
3 846 849 845
3 781 845 849
3 850 781 849
3 786 781 850
3 787 848 784
3 787 851 848
3 850 852 786
3 786 852 788
3 788 853 789
3 852 853 788
3 787 789 851
3 851 789 853
3 854 793 794
3 795 855 794
3 794 855 854
3 796 856 795
3 795 856 855
3 798 856 796
3 854 799 793
3 799 854 800
3 800 854 855
3 800 855 801
3 801 855 856
3 801 856 798
3 858 857 803
3 803 857 802
3 859 803 804
3 859 858 803
3 804 806 859
3 859 806 860
3 857 807 802
3 861 807 857
3 806 808 862
3 863 806 862
3 860 806 863
3 810 862 808
3 865 811 864
3 811 861 864
3 811 807 861
3 867 866 865
3 867 865 864
3 866 867 863
3 866 863 862
3 814 866 862
3 813 814 862
3 813 862 810
3 865 815 811
3 815 865 816
3 816 865 866
3 816 866 814
3 868 820 819
3 822 868 819
3 868 823 820
3 826 823 869
3 868 869 823
3 869 868 870
3 822 870 868
3 870 822 825
3 825 827 870
3 870 827 871
3 869 828 826
3 872 828 869
3 873 871 827
3 873 827 831
3 831 832 873
3 873 832 874
3 872 875 828
3 828 875 833
3 835 833 875
3 835 875 876
3 877 874 832
3 877 832 837
3 837 838 877
3 877 838 878
3 839 835 879
3 835 880 879
3 835 876 880
3 879 840 839
3 881 878 838
3 881 838 841
3 841 842 881
3 881 842 882
3 880 883 879
3 840 879 883
3 884 840 883
3 843 840 884
3 844 886 885
3 882 844 885
3 842 844 882
3 886 887 885
3 884 846 843
3 888 846 884
3 847 886 844
3 847 848 886
3 848 887 886
3 848 889 887
3 849 846 890
3 846 891 890
3 846 888 891
3 890 850 849
3 851 889 848
3 851 892 889
3 891 893 890
3 890 893 850
3 893 852 850
3 893 894 852
3 852 895 853
3 894 895 852
3 851 853 892
3 892 853 895
3 896 857 858
3 859 897 858
3 858 897 896
3 860 897 859
3 898 861 896
3 896 861 857
3 899 896 897
3 898 896 899
3 863 899 860
3 860 899 897
3 898 864 861
3 864 898 867
3 867 898 899
3 867 899 863
3 901 900 870
3 870 900 869
3 870 871 901
3 901 871 902
3 900 872 869
3 903 872 900
3 904 902 871
3 904 871 873
3 873 874 904
3 904 874 905
3 903 906 872
3 872 906 875
3 876 875 906
3 876 906 907
3 908 905 874
3 908 874 877
3 877 878 908
3 908 878 909
3 907 880 876
3 910 880 907
3 911 909 878
3 911 878 881
3 881 882 911
3 911 882 912
3 910 913 880
3 880 913 883
3 884 883 913
3 884 913 914
3 915 912 882
3 915 882 885
3 885 887 915
3 915 887 916
3 914 888 884
3 917 888 914
3 889 916 887
3 889 918 916
3 917 891 888
3 919 891 917
3 892 918 889
3 892 920 918
3 919 921 891
3 891 921 893
3 893 922 894
3 921 922 893
3 894 923 895
3 922 923 894
3 892 895 920
3 920 895 923
3 924 900 901
3 902 924 901
3 925 903 924
3 924 903 900
3 925 924 902
3 926 925 902
3 904 926 902
3 927 925 926
3 904 905 926
3 926 905 928
3 925 906 903
3 907 906 925
3 927 907 925
3 929 907 927
3 930 928 905
3 930 905 908
3 908 909 930
3 930 909 931
3 933 910 932
3 910 929 932
3 910 907 929
3 934 933 932
3 935 931 909
3 935 909 911
3 911 912 935
3 935 912 936
3 933 913 910
3 914 913 933
3 934 914 933
3 937 914 934
3 938 936 912
3 938 912 915
3 915 916 938
3 938 916 939
3 937 917 914
3 940 917 937
3 918 939 916
3 918 941 939
3 940 919 917
3 942 919 940
3 920 941 918
3 920 943 941
3 942 944 919
3 919 944 921
3 944 946 945
3 922 944 945
3 921 944 922
3 922 945 947
3 948 922 947
3 923 922 948
3 920 923 943
3 943 923 948
3 946 949 945
3 945 949 947
3 950 927 926
3 928 950 926
3 952 951 950
3 951 927 950
3 951 929 927
3 952 950 928
3 930 952 928
3 953 952 930
3 930 931 953
3 953 931 954
3 951 955 929
3 929 955 932
3 934 932 955
3 934 955 956
3 957 954 931
3 957 931 935
3 959 958 936
3 958 935 936
3 958 957 935
3 959 960 958
3 956 937 934
3 961 937 956
3 938 959 936
3 938 939 959
3 939 960 959
3 939 962 960
3 961 940 937
3 963 940 961
3 941 962 939
3 941 964 962
3 966 942 965
3 942 963 965
3 942 940 963
3 967 966 965
3 943 964 941
3 943 968 964
3 966 944 942
3 946 944 966
3 967 946 966
3 969 946 967
3 947 970 948
3 970 971 948
3 971 943 948
3 971 968 943
3 969 972 946
3 946 972 949
3 947 949 970
3 949 973 970
3 949 972 973
3 970 973 971
3 975 974 952
3 952 974 951
3 976 952 953
3 976 975 952
3 953 954 976
3 976 954 977
3 974 978 951
3 951 978 955
3 956 955 978
3 956 978 979
3 980 977 954
3 980 954 957
3 981 957 958
3 981 980 957
3 958 960 981
3 981 960 982
3 979 961 956
3 983 961 979
3 962 982 960
3 962 984 982
3 983 963 961
3 985 963 983
3 964 984 962
3 964 986 984
3 985 987 963
3 963 987 965
3 967 965 987
3 967 987 988
3 968 986 964
3 968 989 986
3 988 969 967
3 990 969 988
3 971 989 968
3 971 991 989
3 990 992 969
3 969 992 972
3 972 993 973
3 992 993 972
3 971 973 991
3 991 973 993
3 996 995 994
3 998 997 994
3 994 997 996
3 998 999 997
3 995 1000 994
3 1001 974 975
3 994 1001 975
3 998 994 975
3 1000 1001 994
3 1002 999 998
3 975 1002 998
3 976 1002 975
3 1004 1003 977
3 1003 976 977
3 1003 1002 976
3 1006 1005 1004
3 1004 1005 1003
3 1006 1007 1005
3 978 974 1008
3 974 1009 1008
3 974 1001 1009
3 1008 979 978
3 980 1004 977
3 1004 980 981
3 1004 981 1006
3 981 982 1006
3 982 1007 1006
3 982 1010 1007
3 1009 1011 1008
3 979 1008 1011
3 1012 979 1011
3 983 979 1012
3 984 1010 982
3 984 1013 1010
3 1015 985 1014
3 985 1012 1014
3 985 983 1012
3 1016 1015 1014
3 986 1013 984
3 986 1017 1013
3 1015 987 985
3 988 987 1015
3 1016 988 1015
3 1018 988 1016
3 989 1017 986
3 989 1019 1017
3 1022 1021 1020
3 1018 1022 1020
3 990 1018 1020
3 988 1018 990
3 1025 1024 1023
3 1024 1019 1023
3 1019 991 1023
3 1019 989 991
3 1021 1026 1020
3 1020 1026 990
3 1026 992 990
3 1026 1027 992
3 1023 993 1025
3 993 1027 1025
3 993 992 1027
3 993 1023 991
3 1029 1028 996
3 996 1028 995
3 1030 996 997
3 1030 1029 996
3 997 999 1030
3 1030 999 1031
3 1000 995 1032
3 995 1033 1032
3 995 1028 1033
3 1032 1001 1000
3 1034 1031 999
3 1034 999 1002
3 1035 1002 1003
3 1035 1034 1002
3 1036 1003 1005
3 1036 1035 1003
3 1005 1007 1036
3 1036 1007 1037
3 1033 1038 1032
3 1001 1032 1038
3 1039 1001 1038
3 1009 1001 1039
3 1010 1037 1007
3 1010 1040 1037
3 1039 1041 1009
3 1009 1041 1011
3 1043 1042 1012
3 1011 1043 1012
3 1041 1043 1011
3 1044 1042 1043
3 1013 1040 1010
3 1013 1045 1040
3 1042 1014 1012
3 1016 1014 1042
3 1044 1016 1042
3 1046 1016 1044
3 1017 1045 1013
3 1017 1047 1045
3 1046 1018 1016
3 1048 1018 1046
3 1051 1050 1049
3 1050 1047 1049
3 1047 1019 1049
3 1047 1017 1019
3 1052 1021 1022
3 1018 1048 1053
3 1052 1018 1053
3 1054 1052 1053
3 1022 1018 1052
3 1054 1053 1051
3 1054 1051 1049
3 1025 1054 1049
3 1024 1025 1049
3 1024 1049 1019
3 1052 1026 1021
3 1026 1052 1027
3 1027 1052 1054
3 1027 1054 1025
3 1056 1055 1029
3 1029 1055 1028
3 1057 1029 1030
3 1057 1056 1029
3 1030 1031 1057
3 1057 1031 1058
3 1060 1033 1059
3 1033 1055 1059
3 1033 1028 1055
3 1061 1060 1059
3 1062 1058 1031
3 1062 1031 1034
3 1063 1034 1035
3 1063 1062 1034
3 1064 1035 1036
3 1064 1063 1035
3 1036 1037 1064
3 1064 1037 1065
3 1060 1038 1033
3 1067 1066 1039
3 1067 1039 1038
3 1061 1067 1038
3 1060 1061 1038
3 1069 1068 1066
3 1069 1066 1067
3 1070 1068 1069
3 1040 1065 1037
3 1040 1071 1065
3 1066 1041 1039
3 1041 1066 1043
3 1043 1066 1068
3 1044 1043 1068
3 1070 1044 1068
3 1072 1044 1070
3 1045 1071 1040
3 1045 1073 1071
3 1075 1046 1074
3 1046 1072 1074
3 1046 1044 1072
3 1077 1076 1075
3 1077 1075 1074
3 1077 1073 1076
3 1073 1047 1076
3 1073 1045 1047
3 1078 1048 1075
3 1075 1048 1046
3 1051 1078 1050
3 1078 1076 1050
3 1078 1075 1076
3 1050 1076 1047
3 1078 1053 1048
3 1053 1078 1051
3 1079 1055 1056
3 1057 1080 1056
3 1056 1080 1079
3 1058 1080 1057
3 1083 1082 1081
3 1081 1084 1083
3 1079 1059 1055
3 1059 1079 1061
3 1079 1085 1061
3 1079 1080 1085
3 1062 1086 1058
3 1086 1080 1058
3 1086 1085 1080
3 1086 1062 1087
3 1062 1088 1087
3 1062 1063 1088
3 1064 1081 1082
3 1088 1064 1082
3 1063 1064 1088
3 1064 1065 1081
3 1065 1084 1081
3 1065 1089 1084
3 1085 1067 1061
3 1067 1085 1069
3 1069 1085 1086
3 1070 1069 1086
3 1087 1070 1086
3 1090 1070 1087
3 1071 1089 1065
3 1071 1091 1089
3 1093 1072 1092
3 1072 1090 1092
3 1072 1070 1090
3 1095 1094 1093
3 1095 1093 1092
3 1095 1091 1094
3 1091 1073 1094
3 1091 1071 1073
3 1093 1074 1072
3 1074 1093 1077
3 1077 1093 1094
3 1077 1094 1073
3 1096 1082 1083
3 1084 1096 1083
3 1097 1087 1088
3 1082 1096 1088
3 1096 1097 1088
3 1096 1098 1097
3 1089 1098 1084
3 1084 1098 1096
3 1099 1090 1097
3 1097 1090 1087
3 1100 1097 1098
3 1099 1097 1100
3 1091 1100 1089
3 1089 1100 1098
3 1099 1092 1090
3 1092 1099 1095
3 1095 1099 1100
3 1095 1100 1091
