ply
format ascii 1.0
element vertex 1370
property float x
property float y
property float z
element face 2736
property list uchar int vertex_indices
end_header
25.30000 3.49999 4.50000
24.80000 3.49999 4.00000
24.80000 3.99999 4.50000
24.80000 3.99999 5.50000
25.30000 3.49999 5.50000
24.80000 3.99999 6.50000
25.30000 3.49999 6.50000
24.80000 3.99999 7.50000
25.30000 3.49999 7.50000
24.80000 3.49999 8.00000
25.30000 2.49999 4.50000
24.80000 2.49999 4.00000
25.30000 2.49999 5.50000
25.30000 2.49999 6.50000
25.30000 2.49999 7.50000
24.80000 2.99999 8.50000
25.30000 2.49999 8.50000
24.80000 2.99999 9.50000
25.30000 2.49999 9.50000
24.80000 2.49999 10.00000
25.30000 1.49999 4.50000
24.80000 1.49999 4.00000
25.30000 1.49999 5.50000
25.30000 1.49999 6.50000
25.30000 1.49999 7.50000
25.30000 1.49999 8.50000
25.30000 1.49999 9.50000
24.80000 1.99999 10.50000
25.30000 1.49999 10.50000
24.80000 1.49999 11.00000
25.30000 0.49999 4.50000
24.80000 0.49999 4.00000
25.30000 0.49999 5.50000
25.30000 0.49999 6.50000
25.30000 0.49999 7.50000
25.30000 0.49999 8.50000
25.30000 0.49999 9.50000
25.30000 0.49999 10.50000
24.80000 0.49999 11.00000
25.30000 -0.50001 4.50000
24.80000 -0.50001 4.00000
25.30000 -0.50001 5.50000
25.30000 -0.50001 6.50000
25.30000 -0.50001 7.50000
25.30000 -0.50001 8.50000
25.30000 -0.50001 9.50000
25.30000 -0.50001 10.50000
24.80000 -0.50001 11.00000
25.30000 -1.50001 4.50000
24.80000 -1.50001 4.00000
25.30000 -1.50001 5.50000
25.30000 -1.50001 6.50000
25.30000 -1.50001 7.50000
25.30000 -1.50001 8.50000
25.30000 -1.50001 9.50000
25.30000 -1.50001 10.50000
24.80000 -1.50001 11.00000
25.30000 -2.50001 4.50000
24.80000 -2.50001 4.00000
25.30000 -2.50001 5.50000
25.30000 -2.50001 6.50000
25.30000 -2.50001 7.50000
25.30000 -2.50001 8.50000
25.30000 -2.50001 9.50000
24.80000 -2.50001 10.00000
24.80000 -2.00001 10.50000
25.30000 -3.50001 4.50000
24.80000 -3.50001 4.00000
25.30000 -3.50001 5.50000
25.30000 -3.50001 6.50000
25.30000 -3.50001 7.50000
25.30000 -3.50001 8.50000
24.80000 -3.50001 9.00000
24.80000 -3.00001 9.50000
24.80000 -4.00001 4.50000
24.80000 -4.00001 5.50000
25.30000 -4.50001 6.50000
24.80000 -4.50001 6.00000
25.30000 -4.50001 7.50000
25.30000 -4.50001 8.50000
24.80000 -4.50001 9.00000
24.80000 -5.00001 6.50000
24.80000 -5.00001 7.50000
24.80000 -5.00001 8.50000
24.30000 6.49999 6.50000
23.80000 6.49999 6.00000
23.80000 6.99999 6.50000
23.80000 6.99999 7.50000
24.30000 6.49999 7.50000
23.80000 6.49999 8.00000
24.30000 5.49999 5.50000
23.80000 5.49999 5.00000
23.80000 5.99999 5.50000
24.30000 5.49999 6.50000
24.30000 5.49999 7.50000
23.80000 5.49999 8.00000
24.30000 4.49999 4.50000
23.80000 4.49999 4.00000
23.80000 4.99999 4.50000
24.30000 4.49999 5.50000
24.30000 4.49999 6.50000
24.30000 4.49999 7.50000
23.80000 4.99999 8.50000
24.30000 4.49999 8.50000
23.80000 4.49999 9.00000
23.80000 3.49999 4.00000
24.30000 3.49999 8.50000
23.80000 3.99999 9.50000
24.30000 3.49999 9.50000
23.80000 3.99999 10.50000
24.30000 3.49999 10.50000
23.80000 3.49999 11.00000
23.80000 2.49999 4.00000
24.30000 2.49999 10.50000
23.80000 2.99999 11.50000
24.30000 2.49999 11.50000
23.80000 2.49999 12.00000
24.30000 1.49999 3.50000
23.80000 1.49999 3.00000
23.80000 1.99999 3.50000
24.30000 1.49999 11.50000
23.80000 1.49999 12.00000
24.30000 0.49999 3.50000
23.80000 0.49999 3.00000
24.30000 0.49999 11.50000
23.80000 0.99999 12.50000
24.30000 0.49999 12.50000
23.80000 0.49999 13.00000
24.30000 -0.50001 3.50000
23.80000 -0.50001 3.00000
24.30000 -0.50001 11.50000
24.30000 -0.50001 12.50000
23.80000 -0.50001 13.00000
23.80000 -1.00001 3.50000
23.80000 -1.50001 4.00000
24.30000 -1.50001 11.50000
24.30000 -1.50001 12.50000
23.80000 -1.50001 13.00000
23.80000 -2.50001 4.00000
24.30000 -2.50001 10.50000
24.30000 -2.50001 11.50000
23.80000 -2.50001 12.00000
23.80000 -2.00001 12.50000
23.80000 -3.00001 4.50000
24.30000 -3.50001 4.50000
23.80000 -3.50001 5.00000
24.30000 -3.50001 9.50000
24.30000 -3.50001 10.50000
23.80000 -3.50001 11.00000
23.80000 -3.00001 11.50000
23.80000 -4.00001 5.50000
23.80000 -4.50001 6.00000
24.30000 -4.50001 9.50000
23.80000 -4.50001 10.00000
23.80000 -4.00001 10.50000
23.80000 -5.00001 6.50000
23.80000 -5.00001 7.50000
23.80000 -5.00001 8.50000
23.80000 -5.00001 9.50000
23.30000 7.49999 6.50000
22.80000 7.49999 6.00000
22.80000 7.99999 6.50000
22.80000 7.99999 7.50000
23.30000 7.49999 7.50000
22.80000 7.99999 8.50000
23.30000 7.49999 8.50000
22.80000 7.49999 9.00000
23.30000 6.49999 5.50000
22.80000 6.49999 5.00000
22.80000 6.99999 5.50000
23.30000 6.49999 8.50000
22.80000 6.99999 9.50000
23.30000 6.49999 9.50000
22.80000 6.49999 10.00000
22.80000 5.49999 5.00000
23.30000 5.49999 8.50000
23.30000 5.49999 9.50000
22.80000 5.99999 10.50000
23.30000 5.49999 10.50000
22.80000 5.49999 11.00000
22.80000 4.49999 4.00000
22.80000 4.99999 4.50000
23.30000 4.49999 9.50000
23.30000 4.49999 10.50000
22.80000 4.99999 11.50000
23.30000 4.49999 11.50000
22.80000 4.49999 12.00000
22.80000 3.49999 4.00000
23.30000 3.49999 11.50000
22.80000 3.99999 12.50000
23.30000 3.49999 12.50000
22.80000 3.49999 13.00000
23.30000 2.49999 3.50000
22.80000 2.49999 3.00000
22.80000 2.99999 3.50000
23.30000 2.49999 12.50000
22.80000 2.49999 13.00000
22.80000 1.49999 3.00000
23.30000 1.49999 12.50000
22.80000 1.99999 13.50000
23.30000 1.49999 13.50000
22.80000 1.49999 14.00000
22.80000 0.49999 3.00000
23.30000 0.49999 13.50000
22.80000 0.49999 14.00000
22.80000 -0.50001 3.00000
23.30000 -0.50001 13.50000
22.80000 -0.50001 14.00000
22.80000 -1.00001 3.50000
22.80000 -1.50001 4.00000
22.80000 -1.00001 13.50000
22.80000 -1.50001 13.00000
22.80000 -2.50001 4.00000
22.80000 -2.00001 12.50000
22.80000 -2.50001 12.00000
22.80000 -3.00001 4.50000
22.80000 -3.50001 5.00000
22.80000 -3.00001 11.50000
22.80000 -3.50001 11.00000
22.80000 -4.00001 5.50000
22.80000 -4.50001 6.00000
22.80000 -4.00001 10.50000
22.80000 -4.50001 10.00000
22.80000 -5.00001 6.50000
22.80000 -5.00001 7.50000
22.80000 -5.00001 8.50000
22.80000 -5.00001 9.50000
22.30000 8.49999 7.50000
21.80000 8.49999 7.00000
21.80000 8.99999 7.50000
21.80000 8.99999 8.50000
22.30000 8.49999 8.50000
21.80000 8.99999 9.50000
22.30000 8.49999 9.50000
21.80000 8.99999 10.50000
22.30000 8.49999 10.50000
21.80000 8.99999 11.50000
22.30000 8.49999 11.50000
21.80000 8.49999 12.00000
22.30000 7.49999 5.50000
21.80000 7.49999 5.00000
21.80000 7.99999 5.50000
21.80000 7.99999 6.50000
22.30000 7.49999 9.50000
22.30000 7.49999 10.50000
22.30000 7.49999 11.50000
21.80000 7.49999 12.00000
21.80000 6.49999 5.00000
22.30000 6.49999 10.50000
22.30000 6.49999 11.50000
21.80000 6.99999 12.50000
22.30000 6.49999 12.50000
21.80000 6.49999 13.00000
22.30000 5.49999 4.50000
21.80000 5.49999 4.00000
21.80000 5.99999 4.50000
22.30000 5.49999 11.50000
22.30000 5.49999 12.50000
21.80000 5.99999 13.50000
22.30000 5.49999 13.50000
21.80000 5.49999 14.00000
21.80000 4.49999 4.00000
22.30000 4.49999 12.50000
22.30000 4.49999 13.50000
21.80000 4.49999 14.00000
22.30000 3.49999 3.50000
21.80000 3.49999 3.00000
21.80000 3.99999 3.50000
22.30000 3.49999 13.50000
21.80000 3.99999 14.50000
22.30000 3.49999 14.50000
21.80000 3.49999 15.00000
22.30000 2.49999 2.50000
21.80000 2.49999 2.00000
21.80000 2.99999 2.50000
22.30000 2.49999 13.50000
22.30000 2.49999 14.50000
21.80000 2.49999 15.00000
22.30000 1.49999 2.50000
21.80000 1.49999 2.00000
22.30000 1.49999 14.50000
21.80000 1.49999 15.00000
22.30000 0.49999 2.50000
21.80000 0.49999 2.00000
21.80000 0.99999 14.50000
21.80000 0.49999 14.00000
21.80000 -0.00001 2.50000
21.80000 -0.50001 3.00000
22.30000 -0.50001 13.50000
21.80000 -0.00001 13.50000
21.80000 -0.50001 13.00000
21.80000 -1.00001 3.50000
21.80000 -1.50001 4.00000
22.30000 -1.50001 12.50000
21.80000 -1.00001 12.50000
21.80000 -1.50001 12.00000
21.80000 -2.50001 4.00000
21.80000 -2.50001 12.00000
21.80000 -3.00001 4.50000
21.80000 -3.50001 5.00000
21.80000 -3.00001 11.50000
21.80000 -3.50001 11.00000
21.80000 -4.00001 5.50000
21.80000 -4.50001 6.00000
21.80000 -4.00001 10.50000
21.80000 -4.50001 10.00000
21.80000 -5.00001 6.50000
21.80000 -5.00001 7.50000
21.80000 -5.00001 8.50000
21.80000 -5.00001 9.50000
21.30000 9.49999 4.50000
20.80000 9.49999 4.00000
20.80000 9.99999 4.50000
20.80000 9.99999 5.50000
21.30000 9.49999 5.50000
20.80000 9.99999 6.50000
21.30000 9.49999 6.50000
20.80000 9.99999 7.50000
21.30000 9.49999 7.50000
20.80000 9.99999 8.50000
21.30000 9.49999 8.50000
20.80000 9.99999 9.50000
21.30000 9.49999 9.50000
20.80000 9.99999 10.50000
21.30000 9.49999 10.50000
20.80000 9.99999 11.50000
21.30000 9.49999 11.50000
20.80000 9.49999 12.00000
21.30000 8.49999 3.50000
20.80000 8.49999 3.00000
20.80000 8.99999 3.50000
21.30000 8.49999 4.50000
21.30000 8.49999 5.50000
21.30000 8.49999 6.50000
20.80000 8.99999 12.50000
21.30000 8.49999 12.50000
20.80000 8.49999 13.00000
20.80000 7.99999 3.50000
21.30000 7.49999 4.50000
20.80000 7.49999 4.00000
21.30000 7.49999 12.50000
20.80000 7.99999 13.50000
21.30000 7.49999 13.50000
20.80000 7.49999 14.00000
21.30000 6.49999 4.50000
20.80000 6.49999 4.00000
21.30000 6.49999 13.50000
20.80000 6.99999 14.50000
21.30000 6.49999 14.50000
20.80000 6.49999 15.00000
20.80000 5.49999 4.00000
21.30000 5.49999 14.50000
20.80000 5.99999 15.50000
21.30000 5.49999 15.50000
20.80000 5.49999 16.00000
21.30000 4.49999 3.50000
20.80000 4.49999 3.00000
20.80000 4.99999 3.50000
21.30000 4.49999 14.50000
21.30000 4.49999 15.50000
20.80000 4.49999 16.00000
21.30000 3.49999 2.50000
20.80000 3.49999 2.00000
20.80000 3.99999 2.50000
21.30000 3.49999 15.50000
20.80000 3.49999 16.00000
20.80000 2.49999 2.00000
20.80000 2.99999 15.50000
20.80000 2.49999 15.00000
20.80000 1.49999 2.00000
21.30000 1.49999 14.50000
20.80000 1.99999 14.50000
20.80000 1.49999 14.00000
20.80000 0.49999 2.00000
21.30000 0.49999 13.50000
20.80000 0.99999 13.50000
20.80000 0.49999 13.00000
20.80000 -0.00001 2.50000
20.80000 -0.50001 3.00000
21.30000 -0.50001 12.50000
20.80000 -0.00001 12.50000
20.80000 -0.50001 12.00000
20.80000 -1.00001 3.50000
20.80000 -1.50001 4.00000
20.80000 -1.50001 12.00000
20.80000 -2.00001 4.50000
21.30000 -2.50001 4.50000
20.80000 -2.50001 5.00000
21.30000 -2.50001 11.50000
20.80000 -2.00001 11.50000
20.80000 -2.50001 11.00000
20.80000 -3.50001 5.00000
21.30000 -3.50001 10.50000
20.80000 -3.00001 10.50000
20.80000 -3.50001 10.00000
20.80000 -4.00001 5.50000
20.80000 -4.50001 6.00000
21.30000 -4.50001 9.50000
20.80000 -4.00001 9.50000
20.80000 -4.50001 9.00000
20.80000 -5.00001 6.50000
20.80000 -5.00001 7.50000
20.80000 -5.00001 8.50000
20.30000 11.49999 5.50000
19.80000 11.49999 5.00000
19.80000 11.99999 5.50000
19.80000 11.99999 6.50000
20.30000 11.49999 6.50000
19.80000 11.99999 7.50000
20.30000 11.49999 7.50000
19.80000 11.99999 8.50000
20.30000 11.49999 8.50000
19.80000 11.99999 9.50000
20.30000 11.49999 9.50000
19.80000 11.49999 10.00000
20.30000 10.49999 2.50000
19.80000 10.49999 2.00000
19.80000 10.99999 2.50000
19.80000 10.99999 3.50000
20.30000 10.49999 3.50000
19.80000 10.99999 4.50000
20.30000 10.49999 4.50000
20.30000 10.49999 5.50000
20.30000 10.49999 6.50000
20.30000 10.49999 7.50000
20.30000 10.49999 8.50000
20.30000 10.49999 9.50000
19.80000 10.99999 10.50000
20.30000 10.49999 10.50000
19.80000 10.99999 11.50000
20.30000 10.49999 11.50000
19.80000 10.99999 12.50000
20.30000 10.49999 12.50000
19.80000 10.99999 13.50000
20.30000 10.49999 13.50000
19.80000 10.49999 14.00000
19.80000 9.99999 2.50000
20.30000 9.49999 3.50000
19.80000 9.49999 3.00000
20.30000 9.49999 12.50000
20.30000 9.49999 13.50000
19.80000 9.99999 14.50000
20.30000 9.49999 14.50000
19.80000 9.49999 15.00000
19.80000 8.49999 3.00000
20.30000 8.49999 13.50000
20.30000 8.49999 14.50000
19.80000 8.49999 15.00000
20.30000 7.49999 3.50000
19.80000 7.49999 3.00000
20.30000 7.49999 14.50000
19.80000 7.99999 15.50000
20.30000 7.49999 15.50000
19.80000 7.49999 16.00000
20.30000 6.49999 3.50000
19.80000 6.49999 3.00000
20.30000 6.49999 15.50000
19.80000 6.99999 16.50000
20.30000 6.49999 16.50000
19.80000 6.49999 17.00000
19.80000 5.99999 3.50000
19.80000 5.49999 4.00000
19.80000 5.99999 16.50000
19.80000 5.49999 16.00000
19.80000 4.49999 3.00000
19.80000 4.99999 3.50000
19.80000 4.49999 16.00000
19.80000 3.49999 2.00000
19.80000 3.99999 2.50000
20.30000 3.49999 15.50000
19.80000 3.99999 15.50000
19.80000 3.49999 15.00000
19.80000 2.49999 2.00000
20.30000 2.49999 14.50000
19.80000 2.99999 14.50000
19.80000 2.49999 14.00000
19.80000 1.49999 2.00000
20.30000 1.49999 13.50000
19.80000 1.99999 13.50000
19.80000 1.49999 13.00000
19.80000 0.99999 2.50000
20.30000 0.49999 2.50000
19.80000 0.49999 3.00000
20.30000 0.49999 12.50000
19.80000 0.99999 12.50000
19.80000 0.49999 12.00000
19.80000 -0.50001 3.00000
20.30000 -0.50001 11.50000
19.80000 -0.00001 11.50000
19.80000 -0.50001 11.00000
19.80000 -1.00001 3.50000
19.80000 -1.50001 4.00000
20.30000 -1.50001 11.50000
19.80000 -1.50001 11.00000
19.80000 -2.00001 4.50000
19.80000 -2.50001 5.00000
20.30000 -2.50001 10.50000
19.80000 -2.00001 10.50000
19.80000 -2.50001 10.00000
19.80000 -3.00001 5.50000
20.30000 -3.50001 5.50000
19.80000 -3.50001 6.00000
20.30000 -3.50001 9.50000
19.80000 -3.00001 9.50000
19.80000 -3.50001 9.00000
20.30000 -4.50001 6.50000
19.80000 -4.00001 6.50000
19.80000 -4.50001 7.00000
19.80000 -4.50001 9.00000
19.80000 -5.00001 7.50000
19.80000 -5.00001 8.50000
19.30000 12.49999 5.50000
18.80000 12.49999 5.00000
18.80000 12.99999 5.50000
18.80000 12.99999 6.50000
19.30000 12.49999 6.50000
18.80000 12.99999 7.50000
19.30000 12.49999 7.50000
18.80000 12.99999 8.50000
19.30000 12.49999 8.50000
18.80000 12.99999 9.50000
19.30000 12.49999 9.50000
18.80000 12.99999 10.50000
19.30000 12.49999 10.50000
18.80000 12.99999 11.50000
19.30000 12.49999 11.50000
18.80000 12.49999 12.00000
19.30000 11.49999 3.50000
18.80000 11.49999 3.00000
18.80000 11.99999 3.50000
18.80000 11.99999 4.50000
19.30000 11.49999 4.50000
19.30000 11.49999 10.50000
19.30000 11.49999 11.50000
18.80000 11.99999 12.50000
19.30000 11.49999 12.50000
18.80000 11.99999 13.50000
19.30000 11.49999 13.50000
18.80000 11.99999 14.50000
19.30000 11.49999 14.50000
18.80000 11.49999 15.00000
18.80000 10.49999 2.00000
18.80000 10.99999 2.50000
19.30000 10.49999 14.50000
18.80000 10.99999 15.50000
19.30000 10.49999 15.50000
18.80000 10.49999 16.00000
19.30000 9.49999 2.50000
18.80000 9.49999 2.00000
19.30000 9.49999 15.50000
18.80000 9.49999 16.00000
18.80000 8.99999 2.50000
18.80000 8.49999 3.00000
19.30000 8.49999 15.50000
18.80000 8.49999 16.00000
18.80000 7.49999 3.00000
18.80000 7.49999 16.00000
18.80000 6.49999 3.00000
19.30000 6.49999 16.50000
18.80000 6.49999 16.00000
19.30000 5.49999 3.50000
18.80000 5.49999 3.00000
18.80000 5.49999 16.00000
18.80000 4.49999 3.00000
19.30000 4.49999 15.50000
18.80000 4.99999 15.50000
18.80000 4.49999 15.00000
18.80000 3.49999 2.00000
18.80000 3.99999 2.50000
19.30000 3.49999 14.50000
18.80000 3.99999 14.50000
18.80000 3.49999 14.00000
18.80000 2.49999 2.00000
19.30000 2.49999 13.50000
18.80000 2.99999 13.50000
18.80000 2.49999 13.00000
18.80000 1.49999 2.00000
19.30000 1.49999 12.50000
18.80000 1.99999 12.50000
18.80000 1.49999 12.00000
18.80000 0.99999 2.50000
18.80000 0.49999 3.00000
19.30000 0.49999 11.50000
18.80000 0.99999 11.50000
18.80000 0.49999 11.00000
18.80000 -0.50001 3.00000
19.30000 -0.50001 10.50000
18.80000 -0.00001 10.50000
18.80000 -0.50001 10.00000
18.80000 -1.00001 3.50000
18.80000 -1.50001 4.00000
19.30000 -1.50001 9.50000
18.80000 -1.00001 9.50000
18.80000 -1.50001 9.00000
19.30000 -1.50001 10.50000
18.80000 -2.00001 4.50000
19.30000 -2.50001 5.50000
18.80000 -2.00001 5.50000
18.80000 -2.50001 6.00000
19.30000 -2.50001 8.50000
18.80000 -2.00001 8.50000
18.80000 -2.50001 8.00000
19.30000 -2.50001 9.50000
19.30000 -3.50001 6.50000
18.80000 -3.00001 6.50000
19.30000 -3.50001 7.50000
18.80000 -3.00001 7.50000
19.30000 -3.50001 8.50000
19.30000 -4.50001 7.50000
19.30000 -4.50001 8.50000
18.30000 14.49999 10.50000
17.80000 14.49999 10.00000
17.80000 14.99999 10.50000
17.80000 14.49999 11.00000
18.30000 13.49999 6.50000
17.80000 13.49999 6.00000
17.80000 13.99999 6.50000
17.80000 13.99999 7.50000
18.30000 13.49999 7.50000
17.80000 13.99999 8.50000
18.30000 13.49999 8.50000
17.80000 13.99999 9.50000
18.30000 13.49999 9.50000
18.30000 13.49999 10.50000
17.80000 13.99999 11.50000
18.30000 13.49999 11.50000
17.80000 13.99999 12.50000
18.30000 13.49999 12.50000
17.80000 13.99999 13.50000
18.30000 13.49999 13.50000
17.80000 13.49999 14.00000
18.30000 12.49999 4.50000
17.80000 12.49999 4.00000
17.80000 12.99999 4.50000
17.80000 12.99999 5.50000
18.30000 12.49999 12.50000
18.30000 12.49999 13.50000
17.80000 12.49999 14.00000
18.30000 11.49999 2.50000
17.80000 11.49999 2.00000
17.80000 11.99999 2.50000
17.80000 11.99999 3.50000
17.80000 11.99999 14.50000
17.80000 11.49999 15.00000
17.80000 10.49999 2.00000
17.80000 10.99999 15.50000
17.80000 10.49999 16.00000
17.80000 9.49999 2.00000
17.80000 9.49999 16.00000
18.30000 8.49999 2.50000
17.80000 8.49999 2.00000
17.80000 8.49999 16.00000
17.80000 7.99999 2.50000
17.80000 7.49999 3.00000
17.80000 7.49999 16.00000
18.30000 6.49999 2.50000
17.80000 6.49999 2.00000
17.80000 6.99999 2.50000
17.80000 6.49999 16.00000
18.30000 5.49999 2.50000
17.80000 5.49999 2.00000
18.30000 5.49999 15.50000
17.80000 5.99999 15.50000
17.80000 5.49999 15.00000
18.30000 4.49999 2.50000
17.80000 4.49999 2.00000
18.30000 4.49999 14.50000
17.80000 4.99999 14.50000
17.80000 4.49999 14.00000
17.80000 3.49999 2.00000
18.30000 3.49999 13.50000
17.80000 3.99999 13.50000
17.80000 3.49999 13.00000
17.80000 2.99999 2.50000
18.30000 2.49999 2.50000
17.80000 2.49999 3.00000
18.30000 2.49999 12.50000
17.80000 2.99999 12.50000
17.80000 2.49999 12.00000
18.30000 1.49999 2.50000
17.80000 1.49999 3.00000
18.30000 1.49999 11.50000
17.80000 1.99999 11.50000
17.80000 1.49999 11.00000
17.80000 0.49999 3.00000
18.30000 0.49999 10.50000
17.80000 0.99999 10.50000
17.80000 0.49999 10.00000
17.80000 -0.00001 3.50000
18.30000 -0.50001 3.50000
17.80000 -0.50001 4.00000
18.30000 -0.50001 9.50000
17.80000 -0.00001 9.50000
17.80000 -0.50001 9.00000
18.30000 -1.50001 4.50000
17.80000 -1.00001 4.50000
18.30000 -1.50001 5.50000
17.80000 -1.00001 5.50000
18.30000 -1.50001 6.50000
17.80000 -1.00001 6.50000
18.30000 -1.50001 7.50000
17.80000 -1.00001 7.50000
18.30000 -1.50001 8.50000
17.80000 -1.00001 8.50000
18.30000 -2.50001 6.50000
18.30000 -2.50001 7.50000
17.30000 15.49999 10.50000
16.80000 15.49999 10.00000
16.80000 15.99999 10.50000
16.80000 15.99999 11.50000
17.30000 15.49999 11.50000
16.80000 15.49999 12.00000
17.30000 14.49999 6.50000
16.80000 14.49999 6.00000
16.80000 14.99999 6.50000
16.80000 14.99999 7.50000
17.30000 14.49999 7.50000
16.80000 14.99999 8.50000
17.30000 14.49999 8.50000
16.80000 14.99999 9.50000
17.30000 14.49999 9.50000
17.30000 14.49999 11.50000
16.80000 14.99999 12.50000
17.30000 14.49999 12.50000
16.80000 14.49999 13.00000
17.30000 13.49999 5.50000
16.80000 13.49999 5.00000
16.80000 13.99999 5.50000
16.80000 13.99999 13.50000
16.80000 13.49999 14.00000
17.30000 12.49999 3.50000
16.80000 12.49999 3.00000
16.80000 12.99999 3.50000
16.80000 12.99999 4.50000
16.80000 12.49999 14.00000
16.80000 11.49999 2.00000
16.80000 11.99999 2.50000
16.80000 11.99999 14.50000
16.80000 11.49999 15.00000
16.80000 10.49999 2.00000
17.30000 10.49999 15.50000
16.80000 10.49999 15.00000
16.80000 9.49999 2.00000
17.30000 9.49999 15.50000
16.80000 9.49999 15.00000
16.80000 8.49999 2.00000
17.30000 8.49999 15.50000
16.80000 8.49999 15.00000
17.30000 7.49999 2.50000
16.80000 7.49999 2.00000
17.30000 7.49999 15.50000
16.80000 7.49999 15.00000
16.80000 6.49999 2.00000
17.30000 6.49999 15.50000
16.80000 6.49999 15.00000
16.80000 5.49999 2.00000
17.30000 5.49999 14.50000
16.80000 5.99999 14.50000
16.80000 5.49999 14.00000
16.80000 4.49999 2.00000
17.30000 4.49999 13.50000
16.80000 4.99999 13.50000
16.80000 4.49999 13.00000
16.80000 3.49999 2.00000
17.30000 3.49999 12.50000
16.80000 3.99999 12.50000
16.80000 3.49999 12.00000
16.80000 2.99999 2.50000
16.80000 2.49999 3.00000
17.30000 2.49999 11.50000
16.80000 2.99999 11.50000
16.80000 2.49999 11.00000
16.80000 1.49999 3.00000
17.30000 1.49999 10.50000
16.80000 1.99999 10.50000
16.80000 1.49999 10.00000
16.80000 0.99999 3.50000
17.30000 0.49999 3.50000
16.80000 0.49999 4.00000
17.30000 0.49999 8.50000
16.80000 0.99999 8.50000
16.80000 0.49999 8.00000
17.30000 0.49999 9.50000
16.80000 0.99999 9.50000
17.30000 -0.50001 4.50000
16.80000 -0.00001 4.50000
17.30000 -0.50001 5.50000
16.80000 -0.00001 5.50000
17.30000 -0.50001 6.50000
16.80000 -0.00001 6.50000
17.30000 -0.50001 7.50000
16.80000 -0.00001 7.50000
17.30000 -0.50001 8.50000
16.30000 16.49999 9.50000
15.80000 16.49999 9.00000
15.80000 16.99999 9.50000
15.80000 16.99999 10.50000
16.30000 16.49999 10.50000
15.80000 16.49999 11.00000
16.30000 15.49999 7.50000
15.80000 15.49999 7.00000
15.80000 15.99999 7.50000
15.80000 15.99999 8.50000
16.30000 15.49999 8.50000
16.30000 15.49999 9.50000
15.80000 15.99999 11.50000
15.80000 15.49999 12.00000
15.80000 14.49999 6.00000
15.80000 14.99999 6.50000
15.80000 14.99999 12.50000
15.80000 14.49999 13.00000
16.30000 13.49999 4.50000
15.80000 13.49999 4.00000
15.80000 13.99999 4.50000
15.80000 13.99999 5.50000
16.30000 13.49999 13.50000
15.80000 13.49999 13.00000
16.30000 12.49999 2.50000
15.80000 12.49999 2.00000
15.80000 12.99999 2.50000
15.80000 12.99999 3.50000
15.80000 12.99999 13.50000
15.80000 12.49999 14.00000
15.80000 11.49999 2.00000
15.80000 11.99999 14.50000
15.80000 11.49999 15.00000
15.80000 10.49999 2.00000
15.80000 10.49999 15.00000
15.80000 9.49999 2.00000
15.80000 9.49999 15.00000
15.80000 8.49999 2.00000
15.80000 8.49999 15.00000
15.80000 7.49999 2.00000
15.80000 7.49999 15.00000
15.80000 6.49999 2.00000
16.30000 6.49999 14.50000
15.80000 6.99999 14.50000
15.80000 6.49999 14.00000
15.80000 5.49999 2.00000
16.30000 5.49999 13.50000
15.80000 5.99999 13.50000
15.80000 5.49999 13.00000
15.80000 4.49999 2.00000
16.30000 4.49999 12.50000
15.80000 4.99999 12.50000
15.80000 4.49999 12.00000
15.80000 3.99999 2.50000
16.30000 3.49999 2.50000
15.80000 3.49999 3.00000
16.30000 3.49999 11.50000
15.80000 3.99999 11.50000
15.80000 3.49999 11.00000
15.80000 2.49999 3.00000
16.30000 2.49999 10.50000
15.80000 2.99999 10.50000
15.80000 2.49999 10.00000
15.80000 1.99999 3.50000
16.30000 1.49999 3.50000
15.80000 1.49999 4.00000
16.30000 1.49999 8.50000
15.80000 1.99999 8.50000
15.80000 1.49999 8.00000
16.30000 1.49999 9.50000
15.80000 1.99999 9.50000
16.30000 0.49999 4.50000
15.80000 0.99999 4.50000
16.30000 0.49999 5.50000
15.80000 0.99999 5.50000
16.30000 0.49999 6.50000
15.80000 0.99999 6.50000
16.30000 0.49999 7.50000
15.80000 0.99999 7.50000
15.30000 17.49999 8.50000
14.80000 17.49999 8.00000
14.80000 17.99999 8.50000
14.80000 17.49999 9.00000
15.30000 16.49999 7.50000
14.80000 16.49999 7.00000
14.80000 16.99999 7.50000
15.30000 16.49999 8.50000
14.80000 16.99999 9.50000
14.80000 16.99999 10.50000
14.80000 16.49999 11.00000
15.30000 15.49999 6.50000
14.80000 15.49999 6.00000
14.80000 15.99999 6.50000
14.80000 15.99999 11.50000
14.80000 15.49999 12.00000
15.30000 14.49999 5.50000
14.80000 14.49999 5.00000
14.80000 14.99999 5.50000
15.30000 14.49999 12.50000
14.80000 14.49999 12.00000
15.30000 13.49999 3.50000
14.80000 13.49999 3.00000
14.80000 13.99999 3.50000
14.80000 13.99999 4.50000
14.80000 13.99999 12.50000
14.80000 13.49999 13.00000
14.80000 12.49999 2.00000
14.80000 12.99999 2.50000
14.80000 12.99999 13.50000
14.80000 12.49999 14.00000
14.80000 11.49999 2.00000
15.30000 11.49999 14.50000
14.80000 11.49999 14.00000
14.80000 10.49999 2.00000
15.30000 10.49999 14.50000
14.80000 10.49999 14.00000
14.80000 9.49999 2.00000
15.30000 9.49999 14.50000
14.80000 9.49999 14.00000
14.80000 8.49999 2.00000
15.30000 8.49999 14.50000
14.80000 8.49999 14.00000
14.80000 7.49999 2.00000
15.30000 7.49999 14.50000
14.80000 7.49999 14.00000
14.80000 6.49999 2.00000
15.30000 6.49999 13.50000
14.80000 6.99999 13.50000
14.80000 6.49999 13.00000
14.80000 5.49999 2.00000
15.30000 5.49999 12.50000
14.80000 5.99999 12.50000
14.80000 5.49999 12.00000
14.80000 4.49999 2.00000
15.30000 4.49999 11.50000
14.80000 4.99999 11.50000
14.80000 4.49999 11.00000
14.80000 3.99999 2.50000
14.80000 3.49999 3.00000
15.30000 3.49999 10.50000
14.80000 3.99999 10.50000
14.80000 3.49999 10.00000
14.80000 2.99999 3.50000
15.30000 2.49999 3.50000
14.80000 2.49999 4.00000
15.30000 2.49999 8.50000
14.80000 2.99999 8.50000
14.80000 2.49999 8.00000
15.30000 2.49999 9.50000
14.80000 2.99999 9.50000
15.30000 1.49999 4.50000
14.80000 1.99999 4.50000
15.30000 1.49999 5.50000
14.80000 1.99999 5.50000
15.30000 1.49999 6.50000
14.80000 1.99999 6.50000
15.30000 1.49999 7.50000
14.80000 1.99999 7.50000
14.30000 17.49999 7.50000
13.80000 17.49999 7.00000
13.80000 17.99999 7.50000
13.80000 17.99999 8.50000
13.80000 17.49999 9.00000
14.30000 16.49999 6.50000
13.80000 16.49999 6.00000
13.80000 16.99999 6.50000
13.80000 16.99999 9.50000
14.30000 16.49999 10.50000
13.80000 16.49999 10.00000
14.30000 15.49999 5.50000
13.80000 15.49999 5.00000
13.80000 15.99999 5.50000
13.80000 15.99999 10.50000
14.30000 15.49999 11.50000
13.80000 15.49999 11.00000
14.30000 14.49999 3.50000
13.80000 14.49999 3.00000
13.80000 14.99999 3.50000
13.80000 14.99999 4.50000
14.30000 14.49999 4.50000
13.80000 14.99999 11.50000
13.80000 14.49999 12.00000
13.80000 13.49999 3.00000
13.80000 13.99999 12.50000
13.80000 13.49999 13.00000
13.80000 12.49999 2.00000
13.80000 12.99999 2.50000
14.30000 12.49999 13.50000
13.80000 12.49999 13.00000
13.80000 11.49999 2.00000
13.80000 11.99999 13.50000
13.80000 11.49999 14.00000
13.80000 10.49999 2.00000
13.80000 10.49999 14.00000
13.80000 9.49999 2.00000
13.80000 9.49999 14.00000
13.80000 8.49999 2.00000
13.80000 8.49999 14.00000
13.80000 7.49999 2.00000
14.30000 7.49999 13.50000
13.80000 7.99999 13.50000
13.80000 7.49999 13.00000
13.80000 6.49999 2.00000
14.30000 6.49999 12.50000
13.80000 6.99999 12.50000
13.80000 6.49999 12.00000
13.80000 5.49999 2.00000
14.30000 5.49999 11.50000
13.80000 5.99999 11.50000
13.80000 5.49999 11.00000
13.80000 4.99999 2.50000
14.30000 4.49999 2.50000
13.80000 4.49999 3.00000
14.30000 4.49999 10.50000
13.80000 4.99999 10.50000
13.80000 4.49999 10.00000
14.30000 3.49999 3.50000
13.80000 3.99999 3.50000
13.80000 3.49999 4.00000
14.30000 3.49999 8.50000
13.80000 3.99999 8.50000
13.80000 3.49999 8.00000
14.30000 3.49999 9.50000
13.80000 3.99999 9.50000
14.30000 2.49999 4.50000
13.80000 2.99999 4.50000
14.30000 2.49999 5.50000
13.80000 2.99999 5.50000
14.30000 2.49999 6.50000
13.80000 2.99999 6.50000
14.30000 2.49999 7.50000
13.80000 2.99999 7.50000
13.30000 17.49999 6.50000
12.80000 17.49999 6.00000
12.80000 17.99999 6.50000
12.80000 17.99999 7.50000
13.30000 17.49999 8.50000
12.80000 17.49999 8.00000
13.30000 16.49999 4.50000
12.80000 16.49999 4.00000
12.80000 16.99999 4.50000
12.80000 16.99999 5.50000
13.30000 16.49999 5.50000
12.80000 16.99999 8.50000
12.80000 16.99999 9.50000
12.80000 16.49999 10.00000
13.30000 15.49999 3.50000
12.80000 15.49999 3.00000
12.80000 15.99999 3.50000
13.30000 15.49999 4.50000
12.80000 15.99999 10.50000
12.80000 15.49999 11.00000
13.30000 14.49999 2.50000
12.80000 14.49999 2.00000
12.80000 14.99999 2.50000
12.80000 14.99999 11.50000
12.80000 14.49999 12.00000
12.80000 13.99999 2.50000
12.80000 13.49999 3.00000
13.30000 13.49999 12.50000
12.80000 13.49999 12.00000
13.30000 12.49999 2.50000
12.80000 12.49999 3.00000
12.80000 12.99999 12.50000
12.80000 12.49999 13.00000
12.80000 11.49999 2.00000
12.80000 11.99999 2.50000
13.30000 11.49999 13.50000
12.80000 11.49999 13.00000
12.80000 10.49999 2.00000
13.30000 10.49999 13.50000
12.80000 10.49999 13.00000
12.80000 9.49999 2.00000
13.30000 9.49999 13.50000
12.80000 9.49999 13.00000
12.80000 8.49999 2.00000
13.30000 8.49999 12.50000
12.80000 8.99999 12.50000
12.80000 8.49999 12.00000
13.30000 8.49999 13.50000
12.80000 7.49999 2.00000
13.30000 7.49999 12.50000
12.80000 7.49999 12.00000
12.80000 6.49999 2.00000
13.30000 6.49999 11.50000
12.80000 6.99999 11.50000
12.80000 6.49999 11.00000
12.80000 5.49999 2.00000
13.30000 5.49999 10.50000
12.80000 5.99999 10.50000
12.80000 5.49999 10.00000
12.80000 4.99999 2.50000
13.30000 4.49999 3.50000
12.80000 4.99999 3.50000
12.80000 4.49999 4.00000
13.30000 4.49999 8.50000
12.80000 4.99999 8.50000
12.80000 4.49999 8.00000
13.30000 4.49999 9.50000
12.80000 4.99999 9.50000
13.30000 3.49999 4.50000
12.80000 3.99999 4.50000
13.30000 3.49999 5.50000
12.80000 3.99999 5.50000
13.30000 3.49999 6.50000
12.80000 3.99999 6.50000
13.30000 3.49999 7.50000
12.80000 3.99999 7.50000
12.30000 17.49999 5.50000
11.80000 17.49999 5.00000
11.80000 17.99999 5.50000
11.80000 17.49999 6.00000
12.30000 17.49999 6.50000
12.30000 17.49999 7.50000
11.80000 16.49999 4.00000
11.80000 16.99999 4.50000
11.80000 16.99999 6.50000
11.80000 16.99999 7.50000
11.80000 16.99999 8.50000
12.30000 16.49999 9.50000
11.80000 16.49999 9.00000
11.80000 15.49999 3.00000
11.80000 15.99999 3.50000
11.80000 15.99999 9.50000
12.30000 15.49999 10.50000
11.80000 15.49999 10.00000
11.80000 14.49999 2.00000
11.80000 14.99999 2.50000
11.80000 14.99999 10.50000
12.30000 14.49999 11.50000
11.80000 14.49999 11.00000
11.80000 13.99999 2.50000
11.80000 13.49999 3.00000
12.30000 13.49999 11.50000
11.80000 13.49999 11.00000
11.80000 12.49999 3.00000
11.80000 12.99999 11.50000
12.30000 12.49999 12.50000
11.80000 12.49999 12.00000
11.80000 11.49999 2.00000
11.80000 11.99999 2.50000
12.30000 11.49999 12.50000
11.80000 11.49999 12.00000
11.80000 10.49999 2.00000
12.30000 10.49999 12.50000
11.80000 10.49999 12.00000
11.80000 9.49999 2.00000
12.30000 9.49999 11.50000
11.80000 9.99999 11.50000
11.80000 9.49999 11.00000
12.30000 9.49999 12.50000
11.80000 8.49999 2.00000
12.30000 8.49999 11.50000
11.80000 8.49999 11.00000
11.80000 7.49999 2.00000
12.30000 7.49999 10.50000
11.80000 7.99999 10.50000
11.80000 7.49999 10.00000
12.30000 7.49999 11.50000
11.80000 6.49999 2.00000
12.30000 6.49999 9.50000
11.80000 6.99999 9.50000
11.80000 6.49999 9.00000
12.30000 6.49999 10.50000
11.80000 5.99999 2.50000
12.30000 5.49999 2.50000
11.80000 5.49999 3.00000
12.30000 5.49999 8.50000
11.80000 5.99999 8.50000
11.80000 5.49999 8.00000
12.30000 5.49999 9.50000
11.80000 4.99999 3.50000
12.30000 4.49999 4.50000
11.80000 4.99999 4.50000
12.30000 4.49999 5.50000
11.80000 4.99999 5.50000
12.30000 4.49999 6.50000
11.80000 4.99999 6.50000
12.30000 4.49999 7.50000
11.80000 4.99999 7.50000
11.30000 17.49999 5.50000
10.80000 16.49999 4.00000
10.80000 16.99999 4.50000
10.80000 16.99999 5.50000
10.80000 16.99999 6.50000
10.80000 16.99999 7.50000
11.30000 16.49999 8.50000
10.80000 16.49999 8.00000
10.80000 15.49999 3.00000
10.80000 15.99999 3.50000
10.80000 15.99999 8.50000
11.30000 15.49999 9.50000
10.80000 15.49999 9.00000
11.30000 14.49999 2.50000
10.80000 14.49999 3.00000
10.80000 14.99999 9.50000
11.30000 14.49999 10.50000
10.80000 14.49999 10.00000
10.80000 13.49999 3.00000
10.80000 13.99999 10.50000
10.80000 13.49999 11.00000
10.80000 12.49999 3.00000
11.30000 12.49999 11.50000
10.80000 12.49999 11.00000
11.30000 11.49999 2.50000
10.80000 11.49999 3.00000
11.30000 11.49999 11.50000
10.80000 11.49999 11.00000
10.80000 10.49999 2.00000
10.80000 10.99999 2.50000
11.30000 10.49999 10.50000
10.80000 10.99999 10.50000
10.80000 10.49999 10.00000
11.30000 10.49999 11.50000
10.80000 9.49999 2.00000
11.30000 9.49999 10.50000
10.80000 9.49999 10.00000
10.80000 8.49999 2.00000
11.30000 8.49999 9.50000
10.80000 8.99999 9.50000
10.80000 8.49999 9.00000
11.30000 8.49999 10.50000
10.80000 7.49999 2.00000
11.30000 7.49999 9.50000
10.80000 7.49999 9.00000
10.80000 6.99999 2.50000
11.30000 6.49999 2.50000
10.80000 6.49999 3.00000
11.30000 6.49999 8.50000
10.80000 6.99999 8.50000
10.80000 6.49999 8.00000
11.30000 5.49999 3.50000
10.80000 5.99999 3.50000
11.30000 5.49999 4.50000
10.80000 5.99999 4.50000
11.30000 5.49999 5.50000
10.80000 5.99999 5.50000
11.30000 5.49999 6.50000
10.80000 5.99999 6.50000
11.30000 5.49999 7.50000
10.80000 5.99999 7.50000
10.30000 16.49999 4.50000
10.30000 16.49999 5.50000
10.30000 16.49999 6.50000
10.30000 16.49999 7.50000
10.30000 15.49999 3.50000
9.80000 15.49999 4.00000
9.80000 15.99999 4.50000
9.80000 15.99999 5.50000
9.80000 15.99999 6.50000
9.80000 15.99999 7.50000
10.30000 15.49999 8.50000
9.80000 15.49999 8.00000
10.30000 14.49999 3.50000
9.80000 14.49999 4.00000
9.80000 14.99999 8.50000
10.30000 14.49999 9.50000
9.80000 14.49999 9.00000
10.30000 13.49999 3.50000
9.80000 13.49999 4.00000
9.80000 13.99999 9.50000
10.30000 13.49999 10.50000
9.80000 13.49999 10.00000
9.80000 12.49999 3.00000
9.80000 12.99999 3.50000
10.30000 12.49999 10.50000
9.80000 12.49999 10.00000
9.80000 11.49999 3.00000
10.30000 11.49999 10.50000
9.80000 11.49999 10.00000
10.30000 10.49999 2.50000
9.80000 10.49999 3.00000
10.30000 10.49999 9.50000
9.80000 10.99999 9.50000
9.80000 10.49999 9.00000
9.80000 9.49999 2.00000
9.80000 9.99999 2.50000
10.30000 9.49999 8.50000
9.80000 9.99999 8.50000
9.80000 9.49999 8.00000
10.30000 9.49999 9.50000
9.80000 8.49999 2.00000
10.30000 8.49999 8.50000
9.80000 8.49999 8.00000
9.80000 7.99999 2.50000
10.30000 7.49999 2.50000
9.80000 7.49999 3.00000
10.30000 7.49999 7.50000
9.80000 7.99999 7.50000
9.80000 7.49999 7.00000
10.30000 7.49999 8.50000
10.30000 6.49999 3.50000
9.80000 6.99999 3.50000
10.30000 6.49999 4.50000
9.80000 6.99999 4.50000
10.30000 6.49999 5.50000
9.80000 6.99999 5.50000
10.30000 6.49999 6.50000
9.80000 6.99999 6.50000
10.30000 6.49999 7.50000
9.30000 15.49999 4.50000
9.30000 15.49999 5.50000
9.30000 15.49999 6.50000
9.30000 15.49999 7.50000
9.30000 14.49999 4.50000
8.80000 14.49999 5.00000
8.80000 14.99999 5.50000
8.80000 14.99999 6.50000
8.80000 14.99999 7.50000
9.30000 14.49999 8.50000
8.80000 14.49999 8.00000
9.30000 13.49999 4.50000
8.80000 13.49999 5.00000
9.30000 13.49999 8.50000
8.80000 13.49999 8.00000
9.30000 13.49999 9.50000
9.30000 12.49999 3.50000
8.80000 12.49999 4.00000
8.80000 12.99999 4.50000
8.80000 12.99999 8.50000
8.80000 12.49999 9.00000
9.30000 12.49999 9.50000
9.30000 11.49999 3.50000
8.80000 11.49999 4.00000
9.30000 11.49999 8.50000
8.80000 11.99999 8.50000
8.80000 11.49999 8.00000
9.30000 11.49999 9.50000
8.80000 10.49999 3.00000
8.80000 10.99999 3.50000
9.30000 10.49999 8.50000
8.80000 10.49999 8.00000
9.30000 9.49999 2.50000
8.80000 9.49999 3.00000
9.30000 9.49999 7.50000
8.80000 9.99999 7.50000
8.80000 9.49999 7.00000
9.30000 8.49999 2.50000
8.80000 8.99999 3.50000
9.30000 8.49999 3.50000
8.80000 8.49999 4.00000
9.30000 8.49999 5.50000
8.80000 8.99999 5.50000
8.80000 8.49999 5.00000
9.30000 8.49999 6.50000
8.80000 8.99999 6.50000
9.30000 8.49999 7.50000
9.30000 7.49999 3.50000
8.80000 7.99999 4.50000
9.30000 7.49999 4.50000
9.30000 7.49999 5.50000
9.30000 7.49999 6.50000
8.30000 14.49999 5.50000
8.30000 14.49999 6.50000
8.30000 14.49999 7.50000
8.30000 13.49999 5.50000
8.30000 13.49999 6.50000
8.30000 13.49999 7.50000
8.30000 12.49999 4.50000
8.30000 12.49999 5.50000
8.30000 12.49999 6.50000
8.30000 12.49999 7.50000
8.30000 12.49999 8.50000
8.30000 11.49999 4.50000
8.30000 11.49999 5.50000
8.30000 11.49999 6.50000
8.30000 11.49999 7.50000
8.30000 10.49999 3.50000
8.30000 10.49999 4.50000
8.30000 10.49999 5.50000
8.30000 10.49999 6.50000
8.30000 10.49999 7.50000
8.30000 9.49999 3.50000
8.30000 9.49999 4.50000
8.30000 9.49999 5.50000
8.30000 9.49999 6.50000
8.30000 8.49999 4.50000
3 2 1 0
3 4 3 0
3 0 3 2
3 6 5 4
3 4 5 3
3 8 7 6
3 6 7 5
3 8 9 7
3 0 1 10
3 10 1 11
3 0 12 4
3 0 10 12
3 4 13 6
3 4 12 13
3 6 14 8
3 6 13 14
3 9 8 15
3 8 16 15
3 8 14 16
3 18 17 16
3 16 17 15
3 18 19 17
3 10 11 20
3 20 11 21
3 10 22 12
3 10 20 22
3 12 23 13
3 12 22 23
3 13 24 14
3 13 23 24
3 14 25 16
3 14 24 25
3 16 26 18
3 16 25 26
3 19 18 27
3 18 28 27
3 18 26 28
3 28 29 27
3 20 21 30
3 30 21 31
3 20 32 22
3 20 30 32
3 22 33 23
3 22 32 33
3 23 34 24
3 23 33 34
3 24 35 25
3 24 34 35
3 25 36 26
3 25 35 36
3 26 37 28
3 26 36 37
3 29 28 38
3 38 28 37
3 30 31 39
3 39 31 40
3 30 41 32
3 30 39 41
3 32 42 33
3 32 41 42
3 33 43 34
3 33 42 43
3 34 44 35
3 34 43 44
3 35 45 36
3 35 44 45
3 36 46 37
3 36 45 46
3 38 37 47
3 47 37 46
3 39 40 48
3 48 40 49
3 39 50 41
3 39 48 50
3 41 51 42
3 41 50 51
3 42 52 43
3 42 51 52
3 43 53 44
3 43 52 53
3 44 54 45
3 44 53 54
3 45 55 46
3 45 54 55
3 47 46 56
3 56 46 55
3 48 49 57
3 57 49 58
3 48 59 50
3 48 57 59
3 50 60 51
3 50 59 60
3 51 61 52
3 51 60 61
3 52 62 53
3 52 61 62
3 53 63 54
3 53 62 63
3 65 55 64
3 55 63 64
3 55 54 63
3 55 65 56
3 57 58 66
3 66 58 67
3 57 68 59
3 57 66 68
3 59 69 60
3 59 68 69
3 60 70 61
3 60 69 70
3 61 71 62
3 61 70 71
3 73 63 72
3 63 71 72
3 63 62 71
3 63 73 64
3 67 74 66
3 66 74 68
3 68 74 75
3 77 76 75
3 76 68 75
3 76 69 68
3 69 78 70
3 69 76 78
3 70 79 71
3 70 78 79
3 72 71 80
3 80 71 79
3 77 81 76
3 76 81 78
3 78 81 82
3 78 82 79
3 79 82 83
3 79 83 80
3 86 85 84
3 88 87 84
3 84 87 86
3 88 89 87
3 92 91 90
3 92 90 85
3 90 84 85
3 90 93 84
3 84 94 88
3 84 93 94
3 89 88 95
3 95 88 94
3 98 97 96
3 98 96 91
3 96 90 91
3 96 99 90
3 90 100 93
3 90 99 100
3 93 101 94
3 93 100 101
3 95 94 102
3 94 103 102
3 94 101 103
3 103 104 102
3 96 97 2
3 97 1 2
3 97 105 1
3 96 2 3
3 96 3 99
3 99 3 5
3 99 5 100
3 100 5 7
3 100 7 101
3 101 7 9
3 106 101 9
3 103 101 106
3 104 103 107
3 103 108 107
3 103 106 108
3 110 109 108
3 108 109 107
3 110 111 109
3 105 11 1
3 112 11 105
3 15 106 9
3 106 15 17
3 106 17 108
3 108 17 19
3 113 108 19
3 110 108 113
3 111 110 114
3 110 115 114
3 110 113 115
3 115 116 114
3 119 118 117
3 112 119 117
3 21 112 117
3 11 112 21
3 27 113 19
3 113 27 29
3 120 113 29
3 115 113 120
3 116 115 121
3 121 115 120
3 117 118 122
3 122 118 123
3 122 31 21
3 122 21 117
3 38 124 120
3 38 120 29
3 121 120 125
3 120 126 125
3 120 124 126
3 126 127 125
3 122 123 128
3 128 123 129
3 128 40 31
3 128 31 122
3 47 130 124
3 47 124 38
3 124 131 126
3 124 130 131
3 127 126 132
3 132 126 131
3 129 133 128
3 40 128 133
3 134 40 133
3 49 40 134
3 56 135 130
3 56 130 47
3 130 136 131
3 130 135 136
3 132 131 137
3 137 131 136
3 134 58 49
3 138 58 134
3 64 139 65
3 135 56 65
3 139 135 65
3 140 135 139
3 142 136 141
3 136 140 141
3 136 135 140
3 136 142 137
3 144 67 143
3 67 138 143
3 67 58 138
3 145 144 143
3 72 146 73
3 139 64 73
3 146 139 73
3 147 139 146
3 149 140 148
3 140 147 148
3 140 139 147
3 140 149 141
3 144 74 67
3 145 150 144
3 150 74 144
3 150 75 74
3 77 75 150
3 77 150 151
3 80 152 146
3 80 146 72
3 154 147 153
3 147 152 153
3 147 146 152
3 147 154 148
3 151 155 77
3 77 155 81
3 81 156 82
3 155 156 81
3 82 157 83
3 156 157 82
3 80 83 152
3 83 158 152
3 83 157 158
3 152 158 153
3 161 160 159
3 163 162 159
3 159 162 161
3 165 164 163
3 163 164 162
3 165 166 164
3 169 168 167
3 169 167 160
3 160 167 159
3 167 85 159
3 85 86 159
3 159 86 87
3 159 87 163
3 163 87 89
3 170 163 89
3 165 163 170
3 166 165 171
3 165 172 171
3 165 170 172
3 172 173 171
3 167 168 92
3 168 91 92
3 168 174 91
3 167 92 85
3 95 175 170
3 95 170 89
3 170 176 172
3 170 175 176
3 173 172 177
3 172 178 177
3 172 176 178
3 178 179 177
3 181 180 98
3 98 180 97
3 98 91 174
3 98 174 181
3 102 175 95
3 175 102 104
3 182 175 104
3 176 175 182
3 176 183 178
3 176 182 183
3 179 178 184
3 178 185 184
3 178 183 185
3 185 186 184
3 180 105 97
3 187 105 180
3 107 182 104
3 182 107 109
3 182 109 183
3 183 109 111
3 188 183 111
3 185 183 188
3 186 185 189
3 185 190 189
3 185 188 190
3 190 191 189
3 194 193 192
3 187 194 192
3 112 187 192
3 105 187 112
3 114 188 111
3 188 114 116
3 195 188 116
3 190 188 195
3 191 190 196
3 196 190 195
3 192 193 119
3 193 118 119
3 193 197 118
3 192 119 112
3 121 198 195
3 121 195 116
3 196 195 199
3 195 200 199
3 195 198 200
3 200 201 199
3 197 123 118
3 202 123 197
3 125 198 121
3 198 125 127
3 203 198 127
3 200 198 203
3 201 200 204
3 204 200 203
3 202 129 123
3 205 129 202
3 132 206 203
3 132 203 127
3 204 203 207
3 207 203 206
3 205 208 129
3 129 208 133
3 134 133 208
3 134 208 209
3 211 210 206
3 132 211 206
3 137 211 132
3 206 210 207
3 209 138 134
3 212 138 209
3 214 213 142
3 214 142 141
3 137 142 211
3 211 142 213
3 212 215 138
3 138 215 143
3 145 143 215
3 145 215 216
3 218 217 149
3 218 149 148
3 141 149 214
3 214 149 217
3 216 219 145
3 145 219 150
3 151 150 219
3 151 219 220
3 222 221 154
3 222 154 153
3 148 154 218
3 218 154 221
3 220 223 151
3 151 223 155
3 155 224 156
3 223 224 155
3 156 225 157
3 224 225 156
3 157 226 158
3 225 226 157
3 153 158 222
3 222 158 226
3 229 228 227
3 231 230 227
3 227 230 229
3 233 232 231
3 231 232 230
3 235 234 233
3 233 234 232
3 237 236 235
3 235 236 234
3 237 238 236
3 241 240 239
3 160 161 239
3 161 241 239
3 161 242 241
3 162 227 228
3 242 162 228
3 161 162 242
3 227 162 164
3 227 164 231
3 231 164 166
3 243 231 166
3 233 231 243
3 233 244 235
3 233 243 244
3 235 245 237
3 235 244 245
3 238 237 246
3 246 237 245
3 239 240 169
3 240 168 169
3 240 247 168
3 239 169 160
3 171 243 166
3 243 171 173
3 248 243 173
3 244 243 248
3 244 249 245
3 244 248 249
3 246 245 250
3 245 251 250
3 245 249 251
3 251 252 250
3 255 254 253
3 247 255 253
3 174 247 253
3 168 247 174
3 177 248 173
3 248 177 179
3 256 248 179
3 249 248 256
3 249 257 251
3 249 256 257
3 252 251 258
3 251 259 258
3 251 257 259
3 259 260 258
3 253 254 181
3 254 180 181
3 254 261 180
3 253 181 174
3 184 256 179
3 256 184 186
3 262 256 186
3 257 256 262
3 257 263 259
3 257 262 263
3 260 259 264
3 264 259 263
3 267 266 265
3 261 267 265
3 187 261 265
3 180 261 187
3 189 262 186
3 262 189 191
3 268 262 191
3 263 262 268
3 264 263 269
3 263 270 269
3 263 268 270
3 270 271 269
3 274 273 272
3 274 272 266
3 266 272 265
3 272 193 265
3 193 194 265
3 265 194 187
3 196 275 268
3 196 268 191
3 268 276 270
3 268 275 276
3 271 270 277
3 277 270 276
3 272 273 278
3 278 273 279
3 278 197 193
3 278 193 272
3 199 275 196
3 275 199 201
3 280 275 201
3 276 275 280
3 277 276 281
3 281 276 280
3 278 279 282
3 282 279 283
3 282 202 197
3 282 197 278
3 285 284 280
3 201 285 280
3 204 285 201
3 280 284 281
3 283 286 282
3 202 282 286
3 287 202 286
3 205 202 287
3 290 289 288
3 289 285 288
3 285 207 288
3 285 204 207
3 287 291 205
3 205 291 208
3 209 208 291
3 209 291 292
3 295 294 293
3 293 294 290
3 293 290 288
3 211 293 288
3 210 211 288
3 210 288 207
3 292 212 209
3 296 212 292
3 295 293 213
3 214 295 213
3 297 295 214
3 213 293 211
3 296 298 212
3 212 298 215
3 216 215 298
3 216 298 299
3 301 300 217
3 301 217 218
3 214 217 297
3 297 217 300
3 299 302 216
3 216 302 219
3 220 219 302
3 220 302 303
3 305 304 221
3 305 221 222
3 218 221 301
3 301 221 304
3 303 306 220
3 220 306 223
3 223 307 224
3 306 307 223
3 224 308 225
3 307 308 224
3 225 309 226
3 308 309 225
3 222 226 305
3 305 226 309
3 312 311 310
3 314 313 310
3 310 313 312
3 316 315 314
3 314 315 313
3 318 317 316
3 316 317 315
3 320 319 318
3 318 319 317
3 322 321 320
3 320 321 319
3 324 323 322
3 322 323 321
3 326 325 324
3 324 325 323
3 326 327 325
3 330 329 328
3 330 328 311
3 328 310 311
3 328 331 310
3 310 332 314
3 310 331 332
3 314 333 316
3 314 332 333
3 333 228 229
3 318 333 229
3 316 333 318
3 318 229 230
3 318 230 320
3 320 230 232
3 320 232 322
3 322 232 234
3 322 234 324
3 324 234 236
3 324 236 326
3 335 334 238
3 238 334 236
3 334 327 236
3 327 326 236
3 335 336 334
3 329 337 328
3 339 338 337
3 338 328 337
3 338 331 328
3 338 240 241
3 332 338 241
3 331 338 332
3 332 241 242
3 332 242 333
3 333 242 228
3 246 340 335
3 246 335 238
3 336 335 341
3 335 342 341
3 335 340 342
3 342 343 341
3 338 339 344
3 344 339 345
3 344 247 240
3 344 240 338
3 250 340 246
3 340 250 252
3 346 340 252
3 342 340 346
3 343 342 347
3 342 348 347
3 342 346 348
3 348 349 347
3 344 345 255
3 345 254 255
3 345 350 254
3 344 255 247
3 258 346 252
3 346 258 260
3 351 346 260
3 348 346 351
3 349 348 352
3 348 353 352
3 348 351 353
3 353 354 352
3 357 356 355
3 350 357 355
3 261 350 355
3 254 350 261
3 264 358 351
3 264 351 260
3 351 359 353
3 351 358 359
3 354 353 360
3 360 353 359
3 363 362 361
3 363 361 356
3 356 361 355
3 361 266 355
3 266 267 355
3 355 267 261
3 269 358 264
3 358 269 271
3 364 358 271
3 359 358 364
3 360 359 365
3 365 359 364
3 361 362 274
3 362 273 274
3 362 366 273
3 361 274 266
3 368 367 364
3 271 368 364
3 277 368 271
3 364 367 365
3 366 279 273
3 369 279 366
3 372 371 370
3 371 368 370
3 368 281 370
3 368 277 281
3 369 283 279
3 373 283 369
3 376 375 374
3 374 375 372
3 374 372 370
3 285 374 370
3 284 285 370
3 284 370 281
3 373 377 283
3 283 377 286
3 287 286 377
3 287 377 378
3 381 380 379
3 379 380 376
3 379 376 374
3 290 379 374
3 289 290 374
3 289 374 285
3 378 382 287
3 287 382 291
3 292 291 382
3 292 382 383
3 381 379 294
3 295 381 294
3 384 381 295
3 294 379 290
3 386 296 385
3 296 383 385
3 296 292 383
3 387 386 385
3 390 389 388
3 389 384 388
3 384 297 388
3 384 295 297
3 386 298 296
3 299 298 386
3 387 299 386
3 391 299 387
3 394 393 392
3 392 393 390
3 392 390 388
3 301 392 388
3 300 301 388
3 300 388 297
3 391 395 299
3 299 395 302
3 303 302 395
3 303 395 396
3 399 398 397
3 397 398 394
3 397 394 392
3 305 397 392
3 304 305 392
3 304 392 301
3 396 400 303
3 303 400 306
3 306 401 307
3 400 401 306
3 307 402 308
3 401 402 307
3 397 309 399
3 309 402 399
3 309 308 402
3 309 397 305
3 405 404 403
3 407 406 403
3 403 406 405
3 409 408 407
3 407 408 406
3 411 410 409
3 409 410 408
3 413 412 411
3 411 412 410
3 413 414 412
3 417 416 415
3 419 418 415
3 415 418 417
3 421 420 419
3 419 420 418
3 420 421 404
3 421 403 404
3 421 422 403
3 403 423 407
3 403 422 423
3 407 424 409
3 407 423 424
3 409 425 411
3 409 424 425
3 411 426 413
3 411 425 426
3 414 413 427
3 413 428 427
3 413 426 428
3 430 429 428
3 428 429 427
3 432 431 430
3 430 431 429
3 434 433 432
3 432 433 431
3 434 435 433
3 416 436 415
3 438 437 436
3 437 415 436
3 437 419 415
3 437 311 312
3 421 437 312
3 419 437 421
3 421 312 313
3 421 313 422
3 422 313 315
3 422 315 423
3 423 315 317
3 423 317 424
3 424 317 319
3 424 319 425
3 425 319 321
3 425 321 426
3 426 321 323
3 426 323 428
3 428 323 325
3 428 325 430
3 430 325 327
3 439 430 327
3 432 430 439
3 432 440 434
3 432 439 440
3 435 434 441
3 434 442 441
3 434 440 442
3 442 443 441
3 437 438 330
3 438 329 330
3 438 444 329
3 437 330 311
3 334 439 327
3 439 334 336
3 445 439 336
3 440 439 445
3 440 446 442
3 440 445 446
3 443 442 447
3 447 442 446
3 337 329 448
3 329 449 448
3 329 444 449
3 448 339 337
3 341 445 336
3 445 341 343
3 450 445 343
3 446 445 450
3 447 446 451
3 446 452 451
3 446 450 452
3 452 453 451
3 448 449 454
3 454 449 455
3 454 345 339
3 454 339 448
3 347 450 343
3 450 347 349
3 456 450 349
3 452 450 456
3 453 452 457
3 452 458 457
3 452 456 458
3 458 459 457
3 455 460 454
3 345 454 460
3 461 345 460
3 350 345 461
3 352 456 349
3 458 456 462
3 456 354 462
3 354 463 462
3 354 456 352
3 458 462 459
3 465 464 357
3 357 464 356
3 357 350 461
3 357 461 465
3 360 463 354
3 360 466 463
3 468 467 363
3 363 467 362
3 363 356 464
3 363 464 468
3 471 470 469
3 470 466 469
3 466 365 469
3 466 360 365
3 467 366 362
3 472 366 467
3 475 474 473
3 473 474 471
3 473 471 469
3 368 473 469
3 367 368 469
3 367 469 365
3 472 369 366
3 476 369 472
3 479 478 477
3 477 478 475
3 477 475 473
3 372 477 473
3 371 372 473
3 371 473 368
3 481 373 480
3 373 476 480
3 373 369 476
3 482 481 480
3 485 484 483
3 483 484 479
3 483 479 477
3 376 483 477
3 375 376 477
3 375 477 372
3 481 377 373
3 378 377 481
3 482 378 481
3 486 378 482
3 489 488 487
3 487 488 485
3 487 485 483
3 381 487 483
3 380 381 483
3 380 483 376
3 486 490 378
3 378 490 382
3 383 382 490
3 383 490 491
3 489 487 492
3 489 492 493
3 384 492 381
3 381 492 487
3 491 494 383
3 383 494 385
3 387 385 494
3 387 494 495
3 498 497 496
3 496 497 493
3 496 493 492
3 390 496 492
3 389 390 492
3 389 492 384
3 500 391 499
3 391 495 499
3 391 387 495
3 501 500 499
3 504 503 502
3 502 503 498
3 502 498 496
3 394 502 496
3 393 394 496
3 393 496 390
3 500 395 391
3 506 505 396
3 506 396 395
3 501 506 395
3 500 501 395
3 507 505 506
3 504 502 398
3 399 504 398
3 508 504 399
3 398 502 394
3 505 400 396
3 507 509 505
3 509 400 505
3 509 401 400
3 401 510 402
3 509 510 401
3 399 402 508
3 508 402 510
3 513 512 511
3 515 514 511
3 511 514 513
3 517 516 515
3 515 516 514
3 519 518 517
3 517 518 516
3 521 520 519
3 519 520 518
3 523 522 521
3 521 522 520
3 525 524 523
3 523 524 522
3 525 526 524
3 529 528 527
3 531 530 527
3 527 530 529
3 530 531 512
3 512 531 511
3 531 404 511
3 404 405 511
3 511 405 406
3 511 406 515
3 515 406 408
3 515 408 517
3 517 408 410
3 517 410 519
3 519 410 412
3 519 412 521
3 521 412 414
3 532 521 414
3 523 521 532
3 523 533 525
3 523 532 533
3 526 525 534
3 525 535 534
3 525 533 535
3 537 536 535
3 535 536 534
3 539 538 537
3 537 538 536
3 539 540 538
3 542 541 417
3 417 541 416
3 418 527 528
3 542 418 528
3 417 418 542
3 527 418 420
3 527 420 531
3 531 420 404
3 427 532 414
3 532 427 429
3 532 429 533
3 533 429 431
3 533 431 535
3 535 431 433
3 535 433 537
3 537 433 435
3 543 537 435
3 539 537 543
3 540 539 544
3 539 545 544
3 539 543 545
3 545 546 544
3 436 416 547
3 416 548 547
3 416 541 548
3 547 438 436
3 441 543 435
3 543 441 443
3 549 543 443
3 545 543 549
3 546 545 550
3 550 545 549
3 548 551 547
3 438 547 551
3 552 438 551
3 444 438 552
3 447 553 549
3 447 549 443
3 550 549 554
3 554 549 553
3 552 449 444
3 555 449 552
3 451 553 447
3 451 453 553
3 453 554 553
3 453 556 554
3 555 455 449
3 557 455 555
3 453 457 558
3 559 453 558
3 556 453 559
3 459 558 457
3 460 455 560
3 455 561 560
3 455 557 561
3 560 461 460
3 559 558 462
3 463 559 462
3 562 559 463
3 462 558 459
3 560 561 465
3 561 464 465
3 561 563 464
3 560 465 461
3 566 565 564
3 565 562 564
3 562 466 564
3 562 463 466
3 568 567 468
3 468 567 467
3 468 464 563
3 468 563 568
3 571 570 569
3 569 570 566
3 569 566 564
3 471 569 564
3 470 471 564
3 470 564 466
3 567 472 467
3 572 472 567
3 575 574 573
3 573 574 571
3 573 571 569
3 475 573 569
3 474 475 569
3 474 569 471
3 572 476 472
3 576 476 572
3 579 578 577
3 577 578 575
3 577 575 573
3 479 577 573
3 478 479 573
3 478 573 475
3 576 580 476
3 476 580 480
3 482 480 580
3 482 580 581
3 584 583 582
3 582 583 579
3 582 579 577
3 485 582 577
3 484 485 577
3 484 577 479
3 581 486 482
3 585 486 581
3 588 587 586
3 586 587 584
3 586 584 582
3 489 586 582
3 488 489 582
3 488 582 485
3 585 589 486
3 486 589 490
3 491 490 589
3 491 589 590
3 593 592 591
3 591 592 588
3 586 591 588
3 594 591 586
3 493 594 489
3 489 594 586
3 590 595 491
3 491 595 494
3 597 596 495
3 494 597 495
3 595 597 494
3 598 596 597
3 601 600 599
3 599 600 593
3 591 599 593
3 602 599 591
3 498 602 497
3 602 594 497
3 602 591 594
3 497 594 493
3 596 499 495
3 604 603 501
3 604 501 499
3 598 604 499
3 596 598 499
3 606 605 603
3 606 603 604
3 605 606 601
3 599 605 601
3 607 605 599
3 504 607 503
3 607 602 503
3 607 599 602
3 503 602 498
3 603 506 501
3 506 603 507
3 603 608 507
3 603 605 608
3 609 605 607
3 608 605 609
3 508 609 504
3 504 609 607
3 608 509 507
3 509 608 510
3 510 608 609
3 510 609 508
3 612 611 610
3 610 613 612
3 616 615 614
3 618 617 614
3 614 617 616
3 620 619 618
3 618 619 617
3 622 621 620
3 620 621 619
3 621 622 611
3 622 610 611
3 622 623 610
3 613 610 624
3 610 625 624
3 610 623 625
3 627 626 625
3 625 626 624
3 629 628 627
3 627 628 626
3 629 630 628
3 633 632 631
3 512 513 631
3 513 633 631
3 513 634 633
3 514 614 615
3 634 514 615
3 513 514 634
3 614 514 516
3 614 516 618
3 618 516 518
3 618 518 620
3 620 518 520
3 620 520 622
3 622 520 522
3 622 522 623
3 623 522 524
3 623 524 625
3 625 524 526
3 635 625 526
3 627 625 635
3 627 636 629
3 627 635 636
3 630 629 637
3 637 629 636
3 640 639 638
3 528 529 638
3 529 640 638
3 529 641 640
3 530 631 632
3 641 530 632
3 529 530 641
3 631 530 512
3 534 635 526
3 635 534 536
3 635 536 636
3 642 637 636
3 536 642 636
3 538 642 536
3 538 540 642
3 642 540 643
3 638 639 542
3 639 541 542
3 639 644 541
3 638 542 528
3 645 643 540
3 645 540 544
3 544 546 645
3 645 546 646
3 644 548 541
3 647 548 644
3 550 646 546
3 550 648 646
3 551 548 649
3 548 650 649
3 548 647 650
3 649 552 551
3 554 648 550
3 554 651 648
3 650 652 649
3 552 649 652
3 653 552 652
3 555 552 653
3 556 651 554
3 556 654 651
3 657 656 655
3 653 657 655
3 557 653 655
3 555 653 557
3 559 654 556
3 559 658 654
3 655 656 659
3 659 656 660
3 659 561 557
3 659 557 655
3 663 662 661
3 662 658 661
3 658 562 661
3 658 559 562
3 659 660 664
3 664 660 665
3 664 563 561
3 664 561 659
3 668 667 666
3 666 667 663
3 666 663 661
3 566 666 661
3 565 566 661
3 565 661 562
3 664 665 568
3 665 567 568
3 665 669 567
3 664 568 563
3 672 671 670
3 670 671 668
3 670 668 666
3 571 670 666
3 570 571 666
3 570 666 566
3 674 572 673
3 572 669 673
3 572 567 669
3 675 674 673
3 678 677 676
3 676 677 672
3 676 672 670
3 575 676 670
3 574 575 670
3 574 670 571
3 679 576 674
3 674 576 572
3 674 675 680
3 674 680 679
3 683 682 681
3 681 682 678
3 681 678 676
3 579 681 676
3 578 579 676
3 578 676 575
3 679 580 576
3 581 580 679
3 680 581 679
3 684 581 680
3 687 686 685
3 685 686 683
3 685 683 681
3 584 685 681
3 583 584 681
3 583 681 579
3 689 585 688
3 585 684 688
3 585 581 684
3 690 689 688
3 693 692 691
3 691 692 687
3 691 687 685
3 588 691 685
3 587 588 685
3 587 685 584
3 689 589 585
3 695 694 590
3 695 590 589
3 690 695 589
3 689 690 589
3 697 696 694
3 697 694 695
3 699 698 696
3 699 696 697
3 701 700 698
3 701 698 699
3 703 702 700
3 703 700 701
3 702 703 693
3 702 693 691
3 593 702 691
3 592 593 691
3 592 691 588
3 694 595 590
3 595 694 597
3 597 694 696
3 597 696 598
3 696 704 598
3 696 698 704
3 705 698 700
3 704 698 705
3 601 705 600
3 705 702 600
3 705 700 702
3 600 702 593
3 704 604 598
3 604 704 606
3 606 704 705
3 606 705 601
3 708 707 706
3 710 709 706
3 706 709 708
3 710 711 709
3 714 713 712
3 716 715 712
3 712 715 714
3 718 717 716
3 716 717 715
3 720 719 718
3 718 719 717
3 719 720 707
3 707 720 706
3 720 611 706
3 611 612 706
3 706 612 613
3 721 706 613
3 710 706 721
3 711 710 722
3 710 723 722
3 710 721 723
3 723 724 722
3 727 726 725
3 727 725 713
3 713 725 712
3 725 615 712
3 615 616 712
3 712 616 617
3 712 617 716
3 716 617 619
3 716 619 718
3 718 619 621
3 718 621 720
3 720 621 611
3 624 721 613
3 721 624 626
3 721 626 723
3 728 724 723
3 626 728 723
3 628 728 626
3 628 630 728
3 728 630 729
3 732 731 730
3 632 633 730
3 633 732 730
3 633 733 732
3 634 725 726
3 733 634 726
3 633 634 733
3 725 634 615
3 637 729 630
3 637 734 729
3 736 735 640
3 640 735 639
3 641 730 731
3 736 641 731
3 640 641 736
3 730 641 632
3 737 734 637
3 737 637 642
3 642 643 737
3 737 643 738
3 735 644 639
3 739 644 735
3 643 645 740
3 741 643 740
3 738 643 741
3 646 740 645
3 739 647 644
3 742 647 739
3 741 740 743
3 741 743 744
3 648 743 646
3 646 743 740
3 742 650 647
3 745 650 742
3 744 743 746
3 744 746 747
3 651 746 648
3 648 746 743
3 652 650 748
3 650 749 748
3 650 745 749
3 748 653 652
3 747 746 750
3 747 750 751
3 654 750 651
3 651 750 746
3 748 749 657
3 749 656 657
3 749 752 656
3 748 657 653
3 751 750 753
3 751 753 754
3 658 753 654
3 654 753 750
3 752 660 656
3 755 660 752
3 758 757 756
3 756 757 754
3 756 754 753
3 663 756 753
3 662 663 753
3 662 753 658
3 755 665 660
3 759 665 755
3 762 761 760
3 760 761 758
3 760 758 756
3 668 760 756
3 667 668 756
3 667 756 663
3 759 669 665
3 763 669 759
3 766 765 764
3 764 765 762
3 764 762 760
3 672 764 760
3 671 672 760
3 671 760 668
3 763 767 669
3 669 767 673
3 675 673 767
3 675 767 768
3 771 770 769
3 769 770 766
3 769 766 764
3 678 769 764
3 677 678 764
3 677 764 672
3 768 680 675
3 772 680 768
3 775 774 773
3 773 774 771
3 773 771 769
3 683 773 769
3 682 683 769
3 682 769 678
3 777 684 776
3 684 772 776
3 684 680 772
3 778 777 776
3 781 780 779
3 783 782 779
3 783 779 780
3 782 783 775
3 782 775 773
3 687 782 773
3 686 687 773
3 686 773 683
3 777 688 684
3 785 784 690
3 785 690 688
3 778 785 688
3 777 778 688
3 787 786 784
3 787 784 785
3 789 788 786
3 789 786 787
3 791 790 788
3 791 788 789
3 790 791 781
3 779 790 781
3 792 790 779
3 693 792 692
3 792 782 692
3 792 779 782
3 692 782 687
3 784 695 690
3 695 784 697
3 697 784 786
3 697 786 699
3 699 786 788
3 699 788 701
3 701 788 790
3 701 790 703
3 703 790 792
3 703 792 693
3 795 794 793
3 797 796 793
3 793 796 795
3 797 798 796
3 801 800 799
3 803 802 799
3 799 802 801
3 802 803 794
3 803 793 794
3 803 804 793
3 804 707 708
3 797 804 708
3 793 804 797
3 805 798 797
3 708 805 797
3 709 805 708
3 709 711 805
3 805 711 806
3 808 807 714
3 714 807 713
3 715 799 800
3 808 715 800
3 714 715 808
3 799 715 717
3 799 717 803
3 803 717 719
3 803 719 804
3 804 719 707
3 809 806 711
3 809 711 722
3 722 724 809
3 809 724 810
3 813 812 811
3 726 727 811
3 727 813 811
3 727 814 813
3 727 713 807
3 727 807 814
3 724 728 815
3 816 724 815
3 810 724 816
3 729 815 728
3 819 818 817
3 731 732 817
3 732 819 817
3 732 820 819
3 733 811 812
3 820 733 812
3 732 733 820
3 811 733 726
3 821 816 815
3 815 729 821
3 729 822 821
3 729 734 822
3 817 818 736
3 818 735 736
3 818 823 735
3 817 736 731
3 824 822 734
3 824 734 737
3 737 738 824
3 824 738 825
3 823 739 735
3 826 739 823
3 741 825 738
3 741 827 825
3 826 742 739
3 828 742 826
3 744 827 741
3 744 829 827
3 828 745 742
3 830 745 828
3 747 829 744
3 747 831 829
3 830 749 745
3 832 749 830
3 751 831 747
3 751 833 831
3 832 752 749
3 834 752 832
3 837 836 835
3 836 833 835
3 833 754 835
3 833 751 754
3 834 755 752
3 838 755 834
3 841 840 839
3 839 840 837
3 839 837 835
3 758 839 835
3 757 758 835
3 757 835 754
3 838 759 755
3 842 759 838
3 845 844 843
3 843 844 841
3 843 841 839
3 762 843 839
3 761 762 839
3 761 839 758
3 847 763 846
3 763 842 846
3 763 759 842
3 848 847 846
3 851 850 849
3 849 850 845
3 849 845 843
3 766 849 843
3 765 766 843
3 765 843 762
3 847 767 763
3 768 767 847
3 848 768 847
3 852 768 848
3 855 854 853
3 853 854 851
3 853 851 849
3 771 853 849
3 770 771 849
3 770 849 766
3 857 772 856
3 772 852 856
3 772 768 852
3 858 857 856
3 861 860 859
3 863 862 859
3 863 859 860
3 862 863 855
3 862 855 853
3 775 862 853
3 774 775 853
3 774 853 771
3 857 776 772
3 865 864 778
3 865 778 776
3 858 865 776
3 857 858 776
3 867 866 864
3 867 864 865
3 869 868 866
3 869 866 867
3 871 870 868
3 871 868 869
3 870 871 861
3 870 861 859
3 781 870 859
3 780 781 859
3 780 859 783
3 783 859 862
3 783 862 775
3 864 785 778
3 785 864 787
3 787 864 866
3 787 866 789
3 789 866 868
3 789 868 791
3 791 868 870
3 791 870 781
3 874 873 872
3 872 875 874
3 878 877 876
3 878 876 873
3 876 872 873
3 876 879 872
3 795 880 794
3 880 872 794
3 872 879 794
3 872 880 875
3 881 795 796
3 881 880 795
3 796 798 881
3 881 798 882
3 885 884 883
3 885 883 877
3 877 883 876
3 883 800 876
3 800 801 876
3 876 801 802
3 876 802 879
3 879 802 794
3 886 882 798
3 886 798 805
3 805 806 886
3 886 806 887
3 890 889 888
3 890 888 884
3 884 888 883
3 888 807 883
3 807 808 883
3 883 808 800
3 806 809 891
3 892 806 891
3 887 806 892
3 810 891 809
3 895 894 893
3 812 813 893
3 813 895 893
3 813 896 895
3 814 888 889
3 896 814 889
3 813 814 896
3 888 814 807
3 897 892 891
3 891 810 897
3 810 898 897
3 810 816 898
3 900 899 819
3 819 899 818
3 820 893 894
3 900 820 894
3 819 820 900
3 893 820 812
3 901 898 816
3 901 816 821
3 821 822 901
3 901 822 902
3 899 823 818
3 903 823 899
3 822 824 904
3 905 822 904
3 902 822 905
3 825 904 824
3 903 826 823
3 906 826 903
3 905 904 907
3 905 907 908
3 827 907 825
3 825 907 904
3 906 828 826
3 909 828 906
3 908 907 910
3 908 910 911
3 829 910 827
3 827 910 907
3 909 830 828
3 912 830 909
3 911 910 913
3 911 913 914
3 831 913 829
3 829 913 910
3 912 832 830
3 915 832 912
3 914 913 916
3 914 916 917
3 833 916 831
3 831 916 913
3 915 834 832
3 918 834 915
3 921 920 919
3 919 920 917
3 919 917 916
3 837 919 916
3 836 837 916
3 836 916 833
3 918 838 834
3 922 838 918
3 925 924 923
3 923 924 921
3 923 921 919
3 841 923 919
3 840 841 919
3 840 919 837
3 922 842 838
3 926 842 922
3 929 928 927
3 927 928 925
3 927 925 923
3 845 927 923
3 844 845 923
3 844 923 841
3 926 930 842
3 842 930 846
3 848 846 930
3 848 930 931
3 934 933 932
3 932 933 929
3 932 929 927
3 851 932 927
3 850 851 927
3 850 927 845
3 936 852 935
3 852 931 935
3 852 848 931
3 937 936 935
3 940 939 938
3 942 941 938
3 942 938 939
3 941 942 934
3 941 934 932
3 855 941 932
3 854 855 932
3 854 932 851
3 936 856 852
3 944 943 858
3 944 858 856
3 937 944 856
3 936 937 856
3 946 945 943
3 946 943 944
3 948 947 945
3 948 945 946
3 950 949 947
3 950 947 948
3 949 950 940
3 949 940 938
3 861 949 938
3 860 861 938
3 860 938 863
3 863 938 941
3 863 941 855
3 943 865 858
3 865 943 867
3 867 943 945
3 867 945 869
3 869 945 947
3 869 947 871
3 871 947 949
3 871 949 861
3 953 952 951
3 873 874 951
3 874 953 951
3 874 954 953
3 874 875 954
3 954 875 955
3 958 957 956
3 958 956 952
3 952 956 951
3 956 877 951
3 877 878 951
3 951 878 873
3 959 955 875
3 959 875 880
3 961 959 960
3 959 881 960
3 959 880 881
3 882 960 881
3 964 963 962
3 964 962 957
3 957 962 956
3 962 884 956
3 884 885 956
3 956 885 877
3 965 961 960
3 967 965 966
3 966 965 886
3 965 960 886
3 960 882 886
3 887 966 886
3 970 969 968
3 972 971 968
3 968 971 970
3 971 972 963
3 963 972 962
3 972 889 962
3 889 890 962
3 962 890 884
3 973 967 966
3 966 887 973
3 887 974 973
3 887 892 974
3 968 969 895
3 969 894 895
3 969 975 894
3 968 895 896
3 968 896 972
3 972 896 889
3 976 974 892
3 976 892 897
3 897 898 976
3 976 898 977
3 979 978 900
3 900 978 899
3 900 894 975
3 900 975 979
3 898 901 980
3 981 898 980
3 977 898 981
3 902 980 901
3 978 903 899
3 982 903 978
3 983 981 980
3 980 902 983
3 902 984 983
3 902 905 984
3 982 906 903
3 985 906 982
3 908 984 905
3 908 986 984
3 985 909 906
3 987 909 985
3 911 986 908
3 911 988 986
3 987 912 909
3 989 912 987
3 914 988 911
3 914 990 988
3 989 915 912
3 991 915 989
3 994 993 992
3 993 990 992
3 990 917 992
3 990 914 917
3 991 918 915
3 995 918 991
3 998 997 996
3 996 997 994
3 996 994 992
3 921 996 992
3 920 921 992
3 920 992 917
3 995 922 918
3 999 922 995
3 1002 1001 1000
3 1000 1001 998
3 1000 998 996
3 925 1000 996
3 924 925 996
3 924 996 921
3 1004 926 1003
3 926 999 1003
3 926 922 999
3 1005 1004 1003
3 1008 1007 1006
3 1006 1007 1002
3 1006 1002 1000
3 929 1006 1000
3 928 929 1000
3 928 1000 925
3 1004 930 926
3 1010 1009 931
3 1010 931 930
3 1005 1010 930
3 1004 1005 930
3 1011 1009 1010
3 1014 1013 1012
3 1016 1015 1012
3 1016 1012 1013
3 1015 1016 1008
3 1015 1008 1006
3 934 1015 1006
3 933 934 1006
3 933 1006 929
3 1009 935 931
3 1018 1017 937
3 1018 937 935
3 1011 1018 935
3 1009 1011 935
3 1020 1019 1017
3 1020 1017 1018
3 1022 1021 1019
3 1022 1019 1020
3 1024 1023 1021
3 1024 1021 1022
3 1023 1024 1014
3 1023 1014 1012
3 940 1023 1012
3 939 940 1012
3 939 1012 942
3 942 1012 1015
3 942 1015 934
3 1017 944 937
3 944 1017 946
3 946 1017 1019
3 946 1019 948
3 948 1019 1021
3 948 1021 950
3 950 1021 1023
3 950 1023 940
3 1027 1026 1025
3 952 953 1025
3 953 1027 1025
3 953 1028 1027
3 1030 1028 1029
3 1028 954 1029
3 1028 953 954
3 955 1029 954
3 1033 1032 1031
3 1035 1034 1031
3 1031 1034 1033
3 1034 1035 1026
3 1026 1035 1025
3 1035 957 1025
3 957 958 1025
3 1025 958 952
3 1036 1030 1029
3 1036 1029 955
3 959 1036 955
3 1037 1036 959
3 959 961 1037
3 1037 961 1038
3 1041 1040 1039
3 1041 1039 1032
3 1039 1031 1032
3 1039 1042 1031
3 1042 963 964
3 1035 1042 964
3 1031 1042 1035
3 1035 964 957
3 1043 1038 961
3 1043 961 965
3 965 967 1043
3 1043 967 1044
3 1047 1046 1045
3 1047 1045 1040
3 1040 1045 1039
3 1045 969 1039
3 969 970 1039
3 1039 970 971
3 1039 971 1042
3 1042 971 963
3 1048 1044 967
3 1048 967 973
3 973 974 1048
3 1048 974 1049
3 1046 1050 1045
3 969 1045 1050
3 1051 969 1050
3 975 969 1051
3 974 976 1052
3 1053 974 1052
3 1049 974 1053
3 977 1052 976
3 1054 978 979
3 1055 1054 979
3 975 1055 979
3 1051 1055 975
3 1056 1053 1052
3 1052 977 1056
3 977 1057 1056
3 977 981 1057
3 1059 1058 1054
3 1058 978 1054
3 1058 982 978
3 1059 1054 1055
3 981 983 1060
3 1061 981 1060
3 1057 981 1061
3 984 1060 983
3 1058 985 982
3 1062 985 1058
3 1061 1060 1063
3 1061 1063 1064
3 986 1063 984
3 984 1063 1060
3 1062 987 985
3 1065 987 1062
3 1064 1063 1066
3 1064 1066 1067
3 988 1066 986
3 986 1066 1063
3 1065 989 987
3 1068 989 1065
3 1071 1070 1069
3 1069 1070 1067
3 1066 1069 1067
3 1072 1069 1066
3 990 1072 988
3 988 1072 1066
3 1068 991 989
3 1073 991 1068
3 1071 1069 1074
3 1071 1074 1075
3 994 1074 993
3 1074 1072 993
3 1074 1069 1072
3 993 1072 990
3 1073 995 991
3 1076 995 1073
3 1079 1078 1077
3 1077 1078 1075
3 1077 1075 1074
3 998 1077 1074
3 997 998 1074
3 997 1074 994
3 1076 999 995
3 1080 999 1076
3 1083 1082 1081
3 1081 1082 1079
3 1081 1079 1077
3 1002 1081 1077
3 1001 1002 1077
3 1001 1077 998
3 1080 1084 999
3 999 1084 1003
3 1086 1085 1005
3 1003 1086 1005
3 1084 1086 1003
3 1087 1085 1086
3 1090 1089 1088
3 1092 1091 1088
3 1092 1088 1089
3 1091 1092 1083
3 1091 1083 1081
3 1008 1091 1081
3 1007 1008 1081
3 1007 1081 1002
3 1085 1010 1005
3 1094 1093 1011
3 1094 1011 1010
3 1087 1094 1010
3 1085 1087 1010
3 1096 1095 1093
3 1096 1093 1094
3 1098 1097 1095
3 1098 1095 1096
3 1100 1099 1097
3 1100 1097 1098
3 1099 1100 1090
3 1099 1090 1088
3 1014 1099 1088
3 1013 1014 1088
3 1013 1088 1016
3 1016 1088 1091
3 1016 1091 1008
3 1093 1018 1011
3 1018 1093 1020
3 1020 1093 1095
3 1020 1095 1022
3 1022 1095 1097
3 1022 1097 1024
3 1024 1097 1099
3 1024 1099 1014
3 1103 1102 1101
3 1101 1026 1103
3 1026 1027 1103
3 1105 1104 1103
3 1105 1103 1027
3 1028 1106 1027
3 1027 1106 1105
3 1030 1106 1028
3 1108 1107 1033
3 1033 1107 1032
3 1034 1101 1102
3 1108 1034 1102
3 1033 1034 1108
3 1105 1109 1104
3 1026 1101 1034
3 1109 1105 1106
3 1109 1106 1110
3 1110 1106 1030
3 1036 1110 1030
3 1111 1110 1036
3 1113 1111 1112
3 1111 1037 1112
3 1111 1036 1037
3 1038 1112 1037
3 1115 1114 1041
3 1041 1114 1040
3 1041 1032 1107
3 1041 1107 1115
3 1116 1113 1112
3 1118 1116 1117
3 1117 1116 1043
3 1116 1112 1043
3 1112 1038 1043
3 1044 1117 1043
3 1120 1119 1047
3 1047 1119 1046
3 1047 1040 1114
3 1047 1114 1120
3 1121 1118 1117
3 1123 1121 1122
3 1122 1121 1048
3 1121 1117 1048
3 1117 1044 1048
3 1049 1122 1048
3 1119 1124 1046
3 1046 1124 1050
3 1051 1050 1124
3 1051 1124 1125
3 1123 1122 1126
3 1123 1126 1127
3 1053 1126 1049
3 1049 1126 1122
3 1125 1055 1051
3 1128 1055 1125
3 1129 1127 1126
3 1131 1129 1130
3 1130 1129 1056
3 1129 1126 1056
3 1126 1053 1056
3 1057 1130 1056
3 1133 1132 1059
3 1059 1132 1058
3 1059 1055 1128
3 1059 1128 1133
3 1131 1130 1134
3 1131 1134 1135
3 1061 1134 1057
3 1057 1134 1130
3 1132 1062 1058
3 1136 1062 1132
3 1135 1134 1137
3 1135 1137 1138
3 1064 1137 1061
3 1061 1137 1134
3 1136 1065 1062
3 1139 1065 1136
3 1142 1141 1140
3 1140 1141 1138
3 1137 1140 1138
3 1143 1140 1137
3 1067 1143 1064
3 1064 1143 1137
3 1139 1068 1065
3 1144 1068 1139
3 1142 1140 1145
3 1142 1145 1146
3 1071 1145 1070
3 1145 1143 1070
3 1145 1140 1143
3 1070 1143 1067
3 1144 1073 1068
3 1147 1073 1144
3 1150 1149 1148
3 1148 1149 1146
3 1145 1148 1146
3 1151 1148 1145
3 1075 1151 1071
3 1071 1151 1145
3 1147 1076 1073
3 1152 1076 1147
3 1155 1154 1153
3 1153 1154 1150
3 1148 1153 1150
3 1156 1153 1148
3 1079 1156 1078
3 1156 1151 1078
3 1156 1148 1151
3 1078 1151 1075
3 1158 1080 1157
3 1080 1152 1157
3 1080 1076 1152
3 1159 1158 1157
3 1162 1161 1160
3 1160 1161 1155
3 1153 1160 1155
3 1163 1160 1153
3 1083 1163 1082
3 1163 1156 1082
3 1163 1153 1156
3 1082 1156 1079
3 1158 1084 1080
3 1159 1164 1158
3 1164 1084 1158
3 1164 1086 1084
3 1166 1165 1087
3 1086 1166 1087
3 1164 1166 1086
3 1168 1167 1165
3 1168 1165 1166
3 1170 1169 1167
3 1170 1167 1168
3 1172 1171 1169
3 1172 1169 1170
3 1171 1172 1162
3 1171 1162 1160
3 1090 1171 1160
3 1089 1090 1160
3 1089 1160 1092
3 1092 1160 1163
3 1092 1163 1083
3 1165 1094 1087
3 1094 1165 1096
3 1096 1165 1167
3 1096 1167 1098
3 1098 1167 1169
3 1098 1169 1100
3 1100 1169 1171
3 1100 1171 1090
3 1173 1102 1103
3 1104 1173 1103
3 1175 1174 1108
3 1108 1174 1107
3 1108 1102 1173
3 1176 1108 1173
3 1175 1108 1176
3 1176 1173 1104
3 1109 1176 1104
3 1177 1176 1109
3 1178 1109 1110
3 1178 1177 1109
3 1180 1178 1179
3 1178 1111 1179
3 1178 1110 1111
3 1113 1179 1111
3 1182 1181 1115
3 1115 1181 1114
3 1115 1107 1174
3 1115 1174 1182
3 1183 1180 1179
3 1185 1183 1184
3 1184 1183 1116
3 1183 1179 1116
3 1179 1113 1116
3 1118 1184 1116
3 1186 1119 1120
3 1187 1186 1120
3 1114 1187 1120
3 1181 1187 1114
3 1188 1185 1184
3 1190 1188 1189
3 1189 1188 1121
3 1188 1184 1121
3 1184 1118 1121
3 1123 1189 1121
3 1186 1124 1119
3 1125 1124 1186
3 1187 1125 1186
3 1191 1125 1187
3 1192 1190 1189
3 1189 1123 1192
3 1123 1193 1192
3 1123 1127 1193
3 1191 1128 1125
3 1194 1128 1191
3 1127 1129 1195
3 1196 1127 1195
3 1193 1127 1196
3 1131 1195 1129
3 1197 1132 1133
3 1198 1197 1133
3 1128 1198 1133
3 1194 1198 1128
3 1196 1195 1199
3 1196 1199 1200
3 1135 1199 1131
3 1131 1199 1195
3 1202 1201 1197
3 1201 1132 1197
3 1201 1136 1132
3 1202 1197 1198
3 1205 1204 1203
3 1203 1204 1200
3 1199 1203 1200
3 1206 1203 1199
3 1138 1206 1135
3 1135 1206 1199
3 1201 1139 1136
3 1207 1139 1201
3 1205 1203 1208
3 1205 1208 1209
3 1142 1208 1141
3 1208 1206 1141
3 1208 1203 1206
3 1141 1206 1138
3 1207 1144 1139
3 1210 1144 1207
3 1213 1212 1211
3 1211 1212 1209
3 1208 1211 1209
3 1214 1211 1208
3 1146 1214 1142
3 1142 1214 1208
3 1210 1147 1144
3 1215 1147 1210
3 1213 1211 1216
3 1213 1216 1217
3 1150 1216 1149
3 1216 1214 1149
3 1216 1211 1214
3 1149 1214 1146
3 1219 1152 1218
3 1152 1215 1218
3 1152 1147 1215
3 1220 1219 1218
3 1223 1222 1221
3 1221 1222 1217
3 1221 1217 1216
3 1155 1221 1216
3 1154 1155 1216
3 1154 1216 1150
3 1219 1157 1152
3 1225 1224 1159
3 1225 1159 1157
3 1220 1225 1157
3 1219 1220 1157
3 1227 1226 1224
3 1227 1224 1225
3 1229 1228 1226
3 1229 1226 1227
3 1231 1230 1228
3 1231 1228 1229
3 1233 1232 1230
3 1233 1230 1231
3 1232 1233 1223
3 1232 1223 1221
3 1162 1232 1221
3 1161 1162 1221
3 1161 1221 1155
3 1224 1164 1159
3 1164 1224 1166
3 1166 1224 1226
3 1166 1226 1168
3 1168 1226 1228
3 1168 1228 1170
3 1170 1228 1230
3 1170 1230 1172
3 1172 1230 1232
3 1172 1232 1162
3 1234 1174 1175
3 1176 1235 1175
3 1175 1235 1234
3 1177 1236 1176
3 1176 1236 1235
3 1178 1237 1177
3 1177 1237 1236
3 1180 1237 1178
3 1238 1181 1182
3 1239 1238 1182
3 1239 1182 1174
3 1240 1239 1174
3 1234 1240 1174
3 1240 1234 1235
3 1240 1235 1241
3 1241 1235 1236
3 1241 1236 1242
3 1242 1236 1237
3 1242 1237 1243
3 1245 1243 1244
3 1244 1243 1183
3 1243 1237 1183
3 1237 1180 1183
3 1185 1244 1183
3 1246 1187 1238
3 1238 1187 1181
3 1238 1239 1247
3 1238 1247 1246
3 1248 1245 1244
3 1250 1248 1249
3 1249 1248 1188
3 1248 1244 1188
3 1244 1185 1188
3 1190 1249 1188
3 1251 1191 1246
3 1246 1191 1187
3 1246 1247 1252
3 1246 1252 1251
3 1253 1250 1249
3 1255 1253 1254
3 1254 1253 1192
3 1253 1249 1192
3 1249 1190 1192
3 1193 1254 1192
3 1257 1256 1251
3 1256 1191 1251
3 1256 1194 1191
3 1257 1251 1252
3 1255 1254 1258
3 1255 1258 1259
3 1196 1258 1193
3 1193 1258 1254
3 1256 1198 1194
3 1260 1198 1256
3 1259 1258 1261
3 1259 1261 1262
3 1200 1261 1196
3 1196 1261 1258
3 1263 1201 1202
3 1264 1263 1202
3 1198 1264 1202
3 1260 1264 1198
3 1267 1266 1265
3 1265 1266 1262
3 1265 1262 1261
3 1205 1265 1261
3 1204 1205 1261
3 1204 1261 1200
3 1269 1268 1263
3 1268 1201 1263
3 1268 1207 1201
3 1269 1263 1264
3 1272 1271 1270
3 1270 1271 1267
3 1265 1270 1267
3 1273 1270 1265
3 1209 1273 1205
3 1205 1273 1265
3 1268 1210 1207
3 1274 1210 1268
3 1272 1270 1275
3 1272 1275 1276
3 1213 1275 1212
3 1275 1273 1212
3 1275 1270 1273
3 1212 1273 1209
3 1278 1215 1277
3 1215 1274 1277
3 1215 1210 1274
3 1279 1278 1277
3 1282 1281 1280
3 1280 1281 1276
3 1275 1280 1276
3 1283 1280 1275
3 1217 1283 1213
3 1213 1283 1275
3 1278 1218 1215
3 1285 1284 1220
3 1285 1220 1218
3 1279 1285 1218
3 1278 1279 1218
3 1287 1286 1284
3 1287 1284 1285
3 1289 1288 1286
3 1289 1286 1287
3 1291 1290 1288
3 1291 1288 1289
3 1290 1291 1282
3 1280 1290 1282
3 1292 1290 1280
3 1223 1292 1222
3 1292 1283 1222
3 1292 1280 1283
3 1222 1283 1217
3 1284 1225 1220
3 1225 1284 1227
3 1227 1284 1286
3 1227 1286 1229
3 1229 1286 1288
3 1229 1288 1231
3 1231 1288 1290
3 1231 1290 1233
3 1233 1290 1292
3 1233 1292 1223
3 1293 1239 1240
3 1241 1294 1240
3 1240 1294 1293
3 1242 1295 1241
3 1241 1295 1294
3 1243 1296 1242
3 1242 1296 1295
3 1245 1296 1243
3 1297 1247 1293
3 1293 1247 1239
3 1294 1299 1298
3 1297 1294 1298
3 1293 1294 1297
3 1299 1294 1295
3 1299 1295 1300
3 1300 1295 1296
3 1300 1296 1301
3 1303 1301 1302
3 1302 1301 1248
3 1301 1296 1248
3 1296 1245 1248
3 1250 1302 1248
3 1304 1252 1297
3 1297 1252 1247
3 1297 1298 1305
3 1297 1305 1304
3 1303 1302 1306
3 1303 1306 1307
3 1253 1308 1250
3 1308 1302 1250
3 1308 1306 1302
3 1255 1308 1253
3 1309 1256 1257
3 1310 1309 1257
3 1310 1257 1252
3 1311 1310 1252
3 1304 1311 1252
3 1311 1304 1305
3 1312 1307 1306
3 1314 1313 1312
3 1306 1314 1312
3 1308 1314 1306
3 1259 1314 1255
3 1255 1314 1308
3 1315 1260 1309
3 1309 1260 1256
3 1309 1310 1316
3 1309 1316 1315
3 1319 1318 1317
3 1317 1318 1313
3 1314 1317 1313
3 1320 1317 1314
3 1262 1320 1259
3 1259 1320 1314
3 1322 1321 1315
3 1321 1260 1315
3 1321 1264 1260
3 1322 1315 1316
3 1319 1317 1323
3 1319 1323 1324
3 1267 1323 1266
3 1323 1320 1266
3 1323 1317 1320
3 1266 1320 1262
3 1325 1268 1269
3 1326 1325 1269
3 1264 1326 1269
3 1321 1326 1264
3 1329 1328 1327
3 1327 1328 1324
3 1327 1324 1323
3 1272 1327 1323
3 1271 1272 1323
3 1271 1323 1267
3 1330 1274 1325
3 1325 1274 1268
3 1325 1326 1331
3 1332 1325 1331
3 1330 1325 1332
3 1333 1332 1331
3 1336 1335 1334
3 1338 1337 1334
3 1338 1334 1335
3 1337 1338 1329
3 1327 1337 1329
3 1339 1337 1327
3 1276 1339 1272
3 1272 1339 1327
3 1330 1277 1274
3 1277 1330 1279
3 1330 1340 1279
3 1330 1332 1340
3 1332 1333 1341
3 1342 1332 1341
3 1340 1332 1342
3 1342 1341 1336
3 1334 1342 1336
3 1343 1342 1334
3 1344 1334 1337
3 1343 1334 1344
3 1282 1344 1281
3 1344 1339 1281
3 1344 1337 1339
3 1281 1339 1276
3 1340 1285 1279
3 1285 1340 1287
3 1287 1340 1342
3 1287 1342 1289
3 1289 1342 1343
3 1289 1343 1291
3 1291 1343 1344
3 1291 1344 1282
3 1345 1298 1299
3 1300 1346 1299
3 1299 1346 1345
3 1301 1347 1300
3 1300 1347 1346
3 1303 1347 1301
3 1348 1305 1345
3 1345 1305 1298
3 1349 1345 1346
3 1348 1345 1349
3 1350 1346 1347
3 1349 1346 1350
3 1307 1350 1303
3 1303 1350 1347
3 1351 1310 1311
3 1305 1348 1311
3 1348 1351 1311
3 1348 1352 1351
3 1353 1348 1349
3 1352 1348 1353
3 1354 1349 1350
3 1353 1349 1354
3 1312 1355 1307
3 1355 1350 1307
3 1355 1354 1350
3 1313 1355 1312
3 1356 1316 1351
3 1351 1316 1310
3 1357 1351 1352
3 1356 1351 1357
3 1358 1352 1353
3 1357 1352 1358
3 1359 1353 1354
3 1358 1353 1359
3 1319 1359 1318
3 1359 1355 1318
3 1359 1354 1355
3 1318 1355 1313
3 1360 1321 1322
3 1316 1356 1322
3 1356 1360 1322
3 1356 1361 1360
3 1362 1356 1357
3 1361 1356 1362
3 1363 1357 1358
3 1362 1357 1363
3 1364 1358 1359
3 1363 1358 1364
3 1324 1364 1319
3 1319 1364 1359
3 1365 1326 1360
3 1360 1326 1321
3 1366 1360 1361
3 1365 1360 1366
3 1367 1361 1362
3 1366 1361 1367
3 1368 1362 1363
3 1367 1362 1368
3 1329 1368 1328
3 1368 1364 1328
3 1368 1363 1364
3 1328 1364 1324
3 1365 1331 1326
3 1331 1365 1333
3 1365 1369 1333
3 1365 1366 1369
3 1336 1369 1335
3 1369 1367 1335
3 1369 1366 1367
3 1335 1367 1338
3 1338 1367 1368
3 1338 1368 1329
3 1369 1341 1333
3 1341 1369 1336
