ply
format ascii 1.0
element vertex 1388
property float x
property float y
property float z
element face 2772
property list uchar int vertex_indices
end_header
30.30000 9.49999 -10.50000
29.80000 9.49999 -11.00000
29.80000 9.99999 -10.50000
29.80000 9.99999 -9.50000
30.30000 9.49999 -9.50000
29.80000 9.99999 -8.50000
30.30000 9.49999 -8.50000
29.80000 9.49999 -8.00000
30.30000 8.49999 -10.50000
29.80000 8.49999 -11.00000
30.30000 8.49999 -9.50000
30.30000 8.49999 -8.50000
29.80000 8.99999 -7.50000
30.30000 8.49999 -7.50000
29.80000 8.49999 -7.00000
29.80000 7.99999 -10.50000
30.30000 7.49999 -9.50000
29.80000 7.49999 -10.00000
30.30000 7.49999 -8.50000
30.30000 7.49999 -7.50000
29.80000 7.49999 -7.00000
29.80000 6.99999 -9.50000
29.80000 6.99999 -8.50000
29.80000 6.99999 -7.50000
29.30000 10.49999 -10.50000
28.80000 10.49999 -11.00000
28.80000 10.99999 -10.50000
28.80000 10.99999 -9.50000
29.30000 10.49999 -9.50000
28.80000 10.49999 -9.00000
29.30000 9.49999 -12.50000
28.80000 9.49999 -13.00000
28.80000 9.99999 -12.50000
28.80000 9.99999 -11.50000
29.30000 9.49999 -11.50000
28.80000 9.99999 -8.50000
28.80000 9.99999 -7.50000
29.30000 9.49999 -7.50000
28.80000 9.49999 -7.00000
29.30000 8.49999 -13.50000
28.80000 8.49999 -14.00000
28.80000 8.99999 -13.50000
29.30000 8.49999 -12.50000
29.30000 8.49999 -11.50000
28.80000 8.99999 -6.50000
29.30000 8.49999 -6.50000
28.80000 8.49999 -6.00000
29.30000 7.49999 -13.50000
28.80000 7.49999 -14.00000
29.30000 7.49999 -12.50000
29.30000 7.49999 -11.50000
29.30000 7.49999 -10.50000
29.30000 7.49999 -6.50000
28.80000 7.49999 -6.00000
28.80000 6.99999 -13.50000
28.80000 6.99999 -12.50000
29.30000 6.49999 -11.50000
28.80000 6.49999 -12.00000
29.30000 6.49999 -10.50000
29.30000 6.49999 -9.50000
29.30000 6.49999 -8.50000
29.30000 6.49999 -7.50000
29.30000 6.49999 -6.50000
28.80000 6.49999 -6.00000
28.80000 5.99999 -11.50000
28.80000 5.99999 -10.50000
29.30000 5.49999 -9.50000
28.80000 5.49999 -10.00000
29.30000 5.49999 -8.50000
28.80000 5.49999 -8.00000
28.80000 5.99999 -7.50000
28.80000 5.99999 -6.50000
28.80000 4.99999 -9.50000
28.80000 4.99999 -8.50000
28.30000 11.49999 -11.50000
27.80000 11.49999 -12.00000
27.80000 11.99999 -11.50000
27.80000 11.99999 -10.50000
28.30000 11.49999 -10.50000
27.80000 11.49999 -10.00000
28.30000 10.49999 -12.50000
27.80000 10.49999 -13.00000
27.80000 10.99999 -12.50000
28.30000 10.49999 -11.50000
27.80000 10.99999 -9.50000
27.80000 10.99999 -8.50000
28.30000 10.49999 -8.50000
27.80000 10.49999 -8.00000
28.30000 9.49999 -14.50000
27.80000 9.49999 -15.00000
27.80000 9.99999 -14.50000
27.80000 9.99999 -13.50000
28.30000 9.49999 -13.50000
27.80000 9.99999 -7.50000
27.80000 9.99999 -6.50000
28.30000 9.49999 -6.50000
27.80000 9.49999 -6.00000
28.30000 8.49999 -15.50000
27.80000 8.49999 -16.00000
27.80000 8.99999 -15.50000
28.30000 8.49999 -14.50000
27.80000 8.99999 -5.50000
28.30000 8.49999 -5.50000
27.80000 8.49999 -5.00000
27.80000 7.99999 -15.50000
28.30000 7.49999 -14.50000
27.80000 7.49999 -15.00000
28.30000 7.49999 -5.50000
27.80000 7.99999 -4.50000
28.30000 7.49999 -4.50000
27.80000 7.49999 -4.00000
27.80000 6.99999 -14.50000
27.80000 6.99999 -13.50000
28.30000 6.49999 -12.50000
27.80000 6.49999 -13.00000
28.30000 6.49999 -5.50000
28.30000 6.49999 -4.50000
27.80000 6.49999 -4.00000
27.80000 5.99999 -12.50000
27.80000 5.99999 -11.50000
27.80000 5.99999 -10.50000
27.80000 5.49999 -10.00000
28.30000 5.49999 -7.50000
28.30000 5.49999 -6.50000
28.30000 5.49999 -5.50000
27.80000 5.49999 -5.00000
27.80000 5.99999 -4.50000
27.80000 4.99999 -9.50000
27.80000 4.99999 -8.50000
28.30000 4.49999 -7.50000
27.80000 4.49999 -8.00000
27.80000 4.49999 -7.00000
27.80000 4.99999 -6.50000
27.80000 4.99999 -5.50000
27.80000 3.99999 -7.50000
27.30000 11.49999 -12.50000
26.80000 11.49999 -13.00000
26.80000 11.99999 -12.50000
26.80000 11.99999 -11.50000
26.80000 11.99999 -10.50000
26.80000 11.99999 -9.50000
27.30000 11.49999 -9.50000
26.80000 11.49999 -9.00000
27.30000 10.49999 -14.50000
26.80000 10.49999 -15.00000
26.80000 10.99999 -14.50000
26.80000 10.99999 -13.50000
27.30000 10.49999 -13.50000
26.80000 10.99999 -8.50000
26.80000 10.99999 -7.50000
27.30000 10.49999 -7.50000
26.80000 10.49999 -7.00000
27.30000 9.49999 -16.50000
26.80000 9.49999 -17.00000
26.80000 9.99999 -16.50000
26.80000 9.99999 -15.50000
27.30000 9.49999 -15.50000
26.80000 9.99999 -6.50000
26.80000 9.49999 -6.00000
27.30000 8.49999 -16.50000
26.80000 8.49999 -17.00000
26.80000 8.99999 -5.50000
26.80000 8.49999 -5.00000
26.80000 7.99999 -16.50000
26.80000 7.99999 -15.50000
26.80000 7.49999 -15.00000
26.80000 7.99999 -4.50000
26.80000 7.49999 -4.00000
26.80000 6.99999 -14.50000
27.30000 6.49999 -13.50000
26.80000 6.49999 -14.00000
26.80000 6.99999 -3.50000
27.30000 6.49999 -3.50000
26.80000 6.49999 -3.00000
26.80000 5.99999 -13.50000
26.80000 5.99999 -12.50000
26.80000 5.99999 -11.50000
26.80000 5.99999 -10.50000
27.30000 5.49999 -9.50000
26.80000 5.99999 -9.50000
26.80000 5.49999 -9.00000
27.30000 5.49999 -4.50000
26.80000 5.49999 -4.00000
26.80000 5.99999 -3.50000
26.80000 4.99999 -8.50000
26.80000 4.49999 -8.00000
27.30000 4.49999 -6.50000
27.30000 4.49999 -5.50000
27.30000 4.49999 -4.50000
26.80000 4.49999 -4.00000
26.80000 3.99999 -7.50000
26.80000 3.99999 -6.50000
27.30000 3.49999 -5.50000
26.80000 3.49999 -6.00000
27.30000 3.49999 -4.50000
26.80000 3.99999 -3.50000
27.30000 3.49999 -3.50000
26.80000 3.49999 -3.00000
26.80000 2.99999 -5.50000
27.30000 2.49999 -4.50000
26.80000 2.49999 -5.00000
27.30000 2.49999 -3.50000
26.80000 2.99999 -2.50000
27.30000 2.49999 -2.50000
26.80000 2.49999 -2.00000
27.30000 1.49999 -4.50000
26.80000 1.49999 -5.00000
27.30000 1.49999 -3.50000
26.80000 1.49999 -3.00000
26.80000 1.99999 -2.50000
26.80000 0.99999 -4.50000
26.80000 0.99999 -3.50000
26.30000 11.49999 -13.50000
25.80000 11.49999 -14.00000
25.80000 11.99999 -13.50000
25.80000 11.99999 -12.50000
25.80000 11.99999 -11.50000
25.80000 11.99999 -10.50000
25.80000 11.99999 -9.50000
25.80000 11.99999 -8.50000
26.30000 11.49999 -8.50000
25.80000 11.49999 -8.00000
26.30000 10.49999 -15.50000
25.80000 10.49999 -16.00000
25.80000 10.99999 -15.50000
25.80000 10.99999 -14.50000
25.80000 10.99999 -7.50000
25.80000 10.99999 -6.50000
26.30000 10.49999 -6.50000
25.80000 10.49999 -6.00000
25.80000 9.49999 -17.00000
25.80000 9.99999 -16.50000
25.80000 9.99999 -5.50000
26.30000 9.49999 -5.50000
25.80000 9.49999 -5.00000
25.80000 8.49999 -17.00000
25.80000 8.99999 -4.50000
26.30000 8.49999 -4.50000
25.80000 8.49999 -4.00000
25.80000 7.99999 -16.50000
25.80000 7.99999 -15.50000
25.80000 7.49999 -15.00000
25.80000 7.99999 -3.50000
26.30000 7.49999 -3.50000
25.80000 7.49999 -3.00000
25.80000 6.99999 -14.50000
25.80000 6.49999 -14.00000
26.30000 6.49999 -12.50000
25.80000 6.99999 -12.50000
25.80000 6.49999 -13.00000
25.80000 6.49999 -12.00000
25.80000 6.49999 -3.00000
25.80000 5.99999 -13.50000
25.80000 5.99999 -11.50000
25.80000 5.99999 -10.50000
26.30000 5.49999 -9.50000
25.80000 5.49999 -10.00000
26.30000 5.49999 -3.50000
25.80000 5.99999 -2.50000
26.30000 5.49999 -2.50000
25.80000 5.49999 -2.00000
25.80000 4.99999 -9.50000
25.80000 4.99999 -8.50000
25.80000 4.49999 -8.00000
26.30000 4.49999 -3.50000
26.30000 4.49999 -2.50000
25.80000 4.49999 -2.00000
25.80000 3.99999 -7.50000
25.80000 3.99999 -6.50000
25.80000 3.49999 -6.00000
26.30000 3.49999 -2.50000
25.80000 3.49999 -2.00000
25.80000 2.99999 -5.50000
25.80000 2.49999 -5.00000
25.80000 2.99999 -1.50000
26.30000 2.49999 -1.50000
25.80000 2.49999 -1.00000
25.80000 1.49999 -5.00000
26.30000 1.49999 -2.50000
26.30000 1.49999 -1.50000
25.80000 1.49999 -1.00000
25.80000 0.99999 -4.50000
26.30000 0.49999 -3.50000
25.80000 0.49999 -4.00000
26.30000 0.49999 -2.50000
25.80000 0.49999 -2.00000
25.80000 0.99999 -1.50000
25.80000 -0.00001 -3.50000
25.80000 -0.00001 -2.50000
25.30000 12.49999 -13.50000
24.80000 12.49999 -14.00000
24.80000 12.99999 -13.50000
24.80000 12.99999 -12.50000
25.30000 12.49999 -12.50000
24.80000 12.99999 -11.50000
25.30000 12.49999 -11.50000
24.80000 12.99999 -10.50000
25.30000 12.49999 -10.50000
24.80000 12.99999 -9.50000
25.30000 12.49999 -9.50000
24.80000 12.49999 -9.00000
25.30000 11.49999 -14.50000
24.80000 11.49999 -15.00000
24.80000 11.99999 -14.50000
24.80000 11.99999 -8.50000
24.80000 11.99999 -7.50000
25.30000 11.49999 -7.50000
24.80000 11.49999 -7.00000
25.30000 10.49999 -16.50000
24.80000 10.49999 -17.00000
24.80000 10.99999 -16.50000
24.80000 10.99999 -15.50000
24.80000 10.99999 -6.50000
24.80000 10.99999 -5.50000
25.30000 10.49999 -5.50000
24.80000 10.49999 -5.00000
24.80000 9.49999 -17.00000
24.80000 9.99999 -4.50000
25.30000 9.49999 -4.50000
24.80000 9.49999 -4.00000
24.80000 8.49999 -17.00000
24.80000 8.99999 -3.50000
25.30000 8.49999 -3.50000
24.80000 8.49999 -3.00000
24.80000 7.99999 -16.50000
25.30000 7.49999 -15.50000
24.80000 7.49999 -16.00000
24.80000 7.99999 -2.50000
25.30000 7.49999 -2.50000
24.80000 7.49999 -2.00000
24.80000 6.99999 -15.50000
24.80000 6.99999 -14.50000
25.30000 6.49999 -13.50000
24.80000 6.99999 -13.50000
24.80000 6.99999 -12.50000
24.80000 6.49999 -12.00000
25.30000 6.49999 -2.50000
24.80000 6.49999 -2.00000
24.80000 5.99999 -11.50000
24.80000 5.99999 -10.50000
24.80000 5.49999 -10.00000
24.80000 5.49999 -2.00000
24.80000 4.99999 -9.50000
24.80000 4.99999 -8.50000
24.80000 4.49999 -8.00000
24.80000 4.49999 -2.00000
24.80000 3.99999 -7.50000
25.30000 3.49999 -6.50000
24.80000 3.49999 -7.00000
24.80000 3.99999 -1.50000
25.30000 3.49999 -1.50000
24.80000 3.49999 -1.00000
24.80000 2.99999 -6.50000
25.30000 2.49999 -5.50000
24.80000 2.49999 -6.00000
24.80000 2.49999 -1.00000
24.80000 1.99999 -5.50000
24.80000 1.49999 -5.00000
24.80000 1.49999 -1.00000
24.80000 0.99999 -4.50000
24.80000 0.49999 -4.00000
25.30000 0.49999 -1.50000
24.80000 0.49999 -1.00000
24.80000 -0.00001 -3.50000
24.80000 -0.00001 -2.50000
24.80000 -0.00001 -1.50000
23.80000 12.49999 -14.00000
23.80000 12.99999 -13.50000
23.80000 12.99999 -12.50000
23.80000 12.99999 -11.50000
23.80000 12.99999 -10.50000
23.80000 12.99999 -9.50000
23.80000 12.99999 -8.50000
24.30000 12.49999 -8.50000
23.80000 12.49999 -8.00000
24.30000 11.49999 -15.50000
23.80000 11.49999 -16.00000
23.80000 11.99999 -15.50000
23.80000 11.99999 -14.50000
23.80000 11.99999 -7.50000
23.80000 11.99999 -6.50000
24.30000 11.49999 -6.50000
23.80000 11.49999 -6.00000
23.80000 10.49999 -17.00000
23.80000 10.99999 -16.50000
23.80000 10.99999 -5.50000
23.80000 10.99999 -4.50000
24.30000 10.49999 -4.50000
23.80000 10.49999 -4.00000
23.80000 9.49999 -17.00000
23.80000 9.99999 -3.50000
24.30000 9.49999 -3.50000
23.80000 9.49999 -3.00000
24.30000 8.49999 -17.50000
23.80000 8.49999 -18.00000
23.80000 8.99999 -17.50000
23.80000 8.99999 -2.50000
24.30000 8.49999 -2.50000
23.80000 8.49999 -2.00000
23.80000 7.99999 -17.50000
23.80000 7.99999 -16.50000
23.80000 7.49999 -16.00000
23.80000 7.49999 -2.00000
23.80000 6.99999 -15.50000
23.80000 6.99999 -14.50000
23.80000 6.99999 -13.50000
23.80000 6.99999 -12.50000
23.80000 6.49999 -12.00000
23.80000 6.49999 -2.00000
23.80000 5.99999 -11.50000
23.80000 5.99999 -10.50000
23.80000 5.49999 -10.00000
23.80000 5.49999 -2.00000
23.80000 4.99999 -9.50000
24.30000 4.49999 -8.50000
23.80000 4.49999 -9.00000
23.80000 4.99999 -1.50000
24.30000 4.49999 -1.50000
23.80000 4.49999 -1.00000
23.80000 3.99999 -8.50000
24.30000 3.49999 -7.50000
23.80000 3.49999 -8.00000
23.80000 3.99999 -0.50000
24.30000 3.49999 -0.50000
23.80000 3.49999 0.00000
23.80000 2.99999 -7.50000
24.30000 2.49999 -6.50000
23.80000 2.49999 -7.00000
24.30000 2.49999 -0.50000
23.80000 2.49999 0.00000
23.80000 1.99999 -6.50000
23.80000 1.99999 -5.50000
23.80000 1.49999 -5.00000
24.30000 1.49999 -0.50000
23.80000 1.49999 0.00000
23.80000 0.99999 -4.50000
23.80000 0.49999 -4.00000
24.30000 0.49999 -0.50000
23.80000 0.49999 0.00000
23.80000 -0.00001 -3.50000
24.30000 -0.50001 -2.50000
23.80000 -0.50001 -3.00000
24.30000 -0.50001 -1.50000
23.80000 -0.50001 -1.00000
23.80000 -0.00001 -0.50000
23.80000 -1.00001 -2.50000
24.30000 -1.50001 -1.50000
23.80000 -1.50001 -2.00000
23.80000 -1.50001 -1.00000
23.80000 -2.00001 -1.50000
23.30000 13.49999 -13.50000
22.80000 13.49999 -14.00000
22.80000 13.99999 -13.50000
22.80000 13.99999 -12.50000
23.30000 13.49999 -12.50000
22.80000 13.49999 -12.00000
23.30000 12.49999 -14.50000
22.80000 12.49999 -15.00000
22.80000 12.99999 -14.50000
22.80000 12.99999 -11.50000
22.80000 12.99999 -10.50000
22.80000 12.99999 -9.50000
22.80000 12.99999 -8.50000
22.80000 12.99999 -7.50000
23.30000 12.49999 -7.50000
22.80000 12.49999 -7.00000
22.80000 11.49999 -16.00000
22.80000 11.99999 -15.50000
22.80000 11.99999 -6.50000
22.80000 11.49999 -6.00000
22.80000 10.49999 -17.00000
22.80000 10.99999 -16.50000
22.80000 10.99999 -5.50000
22.80000 10.99999 -4.50000
22.80000 10.49999 -4.00000
22.80000 9.49999 -17.00000
22.80000 9.99999 -3.50000
22.80000 9.49999 -3.00000
22.80000 8.49999 -18.00000
22.80000 8.99999 -17.50000
22.80000 8.99999 -2.50000
22.80000 8.49999 -2.00000
22.80000 7.99999 -17.50000
22.80000 7.99999 -16.50000
23.30000 7.49999 -15.50000
22.80000 7.99999 -15.50000
23.30000 7.49999 -14.50000
22.80000 7.99999 -14.50000
22.80000 7.49999 -14.00000
22.80000 7.49999 -2.00000
22.80000 6.99999 -13.50000
22.80000 6.99999 -12.50000
22.80000 6.49999 -12.00000
22.80000 6.49999 -2.00000
22.80000 5.99999 -11.50000
22.80000 5.99999 -10.50000
22.80000 5.49999 -10.00000
22.80000 5.99999 -1.50000
23.30000 5.49999 -1.50000
22.80000 5.49999 -1.00000
22.80000 4.99999 -9.50000
22.80000 4.49999 -9.00000
22.80000 4.99999 -0.50000
23.30000 4.49999 -0.50000
22.80000 4.49999 0.00000
22.80000 3.99999 -8.50000
22.80000 3.49999 -8.00000
22.80000 3.49999 0.00000
22.80000 2.99999 -7.50000
22.80000 2.49999 -7.00000
22.80000 2.49999 0.00000
22.80000 1.99999 -6.50000
22.80000 1.99999 -5.50000
22.80000 1.49999 -5.00000
22.80000 1.49999 0.00000
22.80000 0.99999 -4.50000
22.80000 0.49999 -4.00000
22.80000 0.49999 0.00000
22.80000 -0.00001 -3.50000
22.80000 -0.50001 -3.00000
23.30000 -0.50001 -0.50000
22.80000 -0.50001 0.00000
22.80000 -1.00001 -2.50000
22.80000 -1.50001 -2.00000
22.80000 -1.00001 -0.50000
22.80000 -1.50001 -1.00000
22.80000 -2.00001 -1.50000
22.30000 13.49999 -14.50000
21.80000 13.49999 -15.00000
21.80000 13.99999 -14.50000
21.80000 13.99999 -13.50000
21.80000 13.99999 -12.50000
21.80000 13.99999 -11.50000
22.30000 13.49999 -11.50000
21.80000 13.99999 -10.50000
22.30000 13.49999 -10.50000
21.80000 13.99999 -9.50000
22.30000 13.49999 -9.50000
21.80000 13.99999 -8.50000
22.30000 13.49999 -8.50000
21.80000 13.49999 -8.00000
22.30000 12.49999 -15.50000
21.80000 12.49999 -16.00000
21.80000 12.99999 -15.50000
21.80000 12.99999 -7.50000
21.80000 12.49999 -7.00000
21.80000 11.49999 -16.00000
21.80000 11.99999 -6.50000
21.80000 11.49999 -6.00000
21.80000 10.49999 -17.00000
21.80000 10.99999 -16.50000
21.80000 10.99999 -5.50000
21.80000 10.99999 -4.50000
21.80000 10.49999 -4.00000
21.80000 9.49999 -17.00000
21.80000 9.99999 -3.50000
21.80000 9.49999 -3.00000
21.80000 8.49999 -18.00000
21.80000 8.99999 -17.50000
21.80000 8.99999 -2.50000
21.80000 8.49999 -2.00000
21.80000 7.99999 -17.50000
21.80000 7.99999 -16.50000
21.80000 7.99999 -15.50000
21.80000 7.99999 -14.50000
22.30000 7.49999 -13.50000
21.80000 7.99999 -13.50000
21.80000 7.49999 -13.00000
21.80000 7.49999 -2.00000
21.80000 6.99999 -12.50000
22.30000 6.49999 -11.50000
21.80000 6.99999 -11.50000
21.80000 6.49999 -11.00000
21.80000 6.99999 -1.50000
22.30000 6.49999 -1.50000
21.80000 6.49999 -1.00000
21.80000 5.99999 -10.50000
21.80000 5.49999 -10.00000
21.80000 5.49999 -1.00000
21.80000 4.99999 -9.50000
21.80000 4.49999 -9.00000
21.80000 4.99999 -0.50000
21.80000 4.49999 0.00000
21.80000 3.99999 -8.50000
21.80000 3.49999 -8.00000
21.80000 3.49999 0.00000
21.80000 2.99999 -7.50000
21.80000 2.49999 -7.00000
21.80000 2.49999 0.00000
21.80000 1.99999 -6.50000
22.30000 1.49999 -5.50000
21.80000 1.49999 -6.00000
21.80000 1.49999 0.00000
21.80000 0.99999 -5.50000
21.80000 0.99999 -4.50000
21.80000 0.49999 -4.00000
21.80000 0.49999 0.00000
21.80000 -0.00001 -3.50000
21.80000 -0.50001 -3.00000
21.80000 -0.50001 0.00000
21.80000 -1.00001 -2.50000
21.80000 -1.50001 -2.00000
22.30000 -1.50001 -0.50000
21.80000 -1.50001 0.00000
21.80000 -2.00001 -1.50000
21.80000 -2.00001 -0.50000
21.30000 13.49999 -15.50000
20.80000 13.49999 -16.00000
20.80000 13.99999 -15.50000
20.80000 13.99999 -14.50000
20.80000 13.99999 -13.50000
20.80000 13.99999 -12.50000
20.80000 13.99999 -11.50000
20.80000 13.99999 -10.50000
20.80000 13.99999 -9.50000
20.80000 13.99999 -8.50000
20.80000 13.49999 -8.00000
20.80000 12.49999 -16.00000
20.80000 12.99999 -7.50000
20.80000 12.99999 -6.50000
21.30000 12.49999 -6.50000
20.80000 12.49999 -6.00000
20.80000 11.49999 -16.00000
20.80000 11.99999 -5.50000
21.30000 11.49999 -5.50000
20.80000 11.49999 -5.00000
20.80000 10.49999 -17.00000
20.80000 10.99999 -16.50000
20.80000 10.49999 -5.00000
21.30000 10.49999 -4.50000
20.80000 9.49999 -17.00000
20.80000 9.99999 -4.50000
20.80000 9.99999 -3.50000
20.80000 9.49999 -3.00000
21.30000 8.49999 -17.50000
20.80000 8.49999 -17.00000
20.80000 8.99999 -2.50000
20.80000 8.49999 -2.00000
20.80000 7.99999 -16.50000
20.80000 7.99999 -15.50000
20.80000 7.99999 -14.50000
20.80000 7.99999 -13.50000
20.80000 7.49999 -13.00000
20.80000 7.49999 -2.00000
20.80000 6.99999 -12.50000
20.80000 6.99999 -11.50000
20.80000 6.49999 -11.00000
20.80000 6.99999 -1.50000
20.80000 6.49999 -1.00000
20.80000 5.99999 -10.50000
20.80000 5.49999 -10.00000
20.80000 5.99999 -0.50000
21.30000 5.49999 -0.50000
20.80000 5.49999 0.00000
20.80000 4.99999 -9.50000
20.80000 4.49999 -9.00000
20.80000 4.49999 0.00000
20.80000 3.99999 -8.50000
20.80000 3.49999 -8.00000
20.80000 3.99999 0.50000
21.30000 3.49999 0.50000
20.80000 3.49999 1.00000
20.80000 2.99999 -7.50000
20.80000 2.49999 -7.00000
21.30000 2.49999 0.50000
20.80000 2.49999 1.00000
20.80000 1.99999 -6.50000
20.80000 1.49999 -6.00000
21.30000 1.49999 0.50000
20.80000 1.49999 1.00000
20.80000 0.99999 -5.50000
21.30000 0.49999 -4.50000
20.80000 0.49999 -5.00000
21.30000 0.49999 0.50000
20.80000 0.49999 1.00000
20.80000 -0.00001 -4.50000
20.80000 -0.00001 -3.50000
20.80000 -0.50001 -3.00000
20.80000 -0.00001 0.50000
20.80000 -0.50001 0.00000
20.80000 -1.00001 -2.50000
21.30000 -1.50001 -1.50000
20.80000 -1.00001 -1.50000
21.30000 -1.50001 -0.50000
20.80000 -1.00001 -0.50000
19.80000 13.49999 -16.00000
19.80000 13.99999 -15.50000
19.80000 13.99999 -14.50000
19.80000 13.99999 -13.50000
19.80000 13.99999 -12.50000
19.80000 13.99999 -11.50000
19.80000 13.99999 -10.50000
19.80000 13.99999 -9.50000
19.80000 13.99999 -8.50000
19.80000 13.99999 -7.50000
20.30000 13.49999 -7.50000
19.80000 13.49999 -7.00000
19.80000 12.49999 -16.00000
19.80000 12.99999 -6.50000
19.80000 12.49999 -6.00000
19.80000 11.49999 -16.00000
19.80000 11.99999 -5.50000
19.80000 11.49999 -5.00000
19.80000 10.49999 -17.00000
19.80000 10.99999 -16.50000
19.80000 10.49999 -5.00000
19.80000 9.49999 -17.00000
19.80000 9.99999 -4.50000
20.30000 9.49999 -3.50000
19.80000 9.49999 -4.00000
19.80000 8.49999 -17.00000
19.80000 8.99999 -3.50000
19.80000 8.99999 -2.50000
19.80000 8.49999 -2.00000
19.80000 7.99999 -16.50000
19.80000 7.99999 -15.50000
19.80000 7.99999 -14.50000
19.80000 7.99999 -13.50000
20.30000 7.49999 -12.50000
19.80000 7.99999 -12.50000
19.80000 7.49999 -12.00000
19.80000 7.99999 -1.50000
20.30000 7.49999 -1.50000
19.80000 7.49999 -1.00000
19.80000 6.99999 -11.50000
19.80000 6.49999 -11.00000
19.80000 6.49999 -1.00000
19.80000 5.99999 -10.50000
19.80000 5.49999 -10.00000
19.80000 5.99999 -0.50000
19.80000 5.49999 0.00000
19.80000 4.99999 -9.50000
19.80000 4.49999 -9.00000
19.80000 4.99999 0.50000
20.30000 4.49999 0.50000
19.80000 4.49999 1.00000
19.80000 3.99999 -8.50000
19.80000 3.49999 -8.00000
19.80000 3.49999 1.00000
19.80000 2.99999 -7.50000
19.80000 2.49999 -7.00000
19.80000 2.49999 1.00000
19.80000 1.99999 -6.50000
19.80000 1.49999 -6.00000
19.80000 1.49999 1.00000
19.80000 0.99999 -5.50000
19.80000 0.49999 -5.00000
20.30000 0.49999 0.50000
19.80000 0.99999 0.50000
19.80000 0.49999 0.00000
19.80000 -0.00001 -4.50000
19.80000 -0.00001 -3.50000
19.80000 -0.50001 -3.00000
20.30000 -0.50001 -0.50000
19.80000 -0.00001 -0.50000
19.80000 -0.50001 -1.00000
19.80000 -1.00001 -2.50000
19.80000 -1.00001 -1.50000
19.30000 13.49999 -15.50000
18.80000 13.49999 -15.00000
18.80000 13.99999 -14.50000
18.80000 13.99999 -13.50000
18.80000 13.99999 -12.50000
18.80000 13.99999 -11.50000
18.80000 13.99999 -10.50000
18.80000 13.99999 -9.50000
18.80000 13.99999 -8.50000
18.80000 13.99999 -7.50000
18.80000 13.49999 -7.00000
18.80000 12.49999 -16.00000
18.80000 12.99999 -15.50000
18.80000 12.99999 -6.50000
18.80000 12.49999 -6.00000
19.30000 11.49999 -16.50000
18.80000 11.49999 -17.00000
18.80000 11.99999 -16.50000
18.80000 11.99999 -5.50000
18.80000 11.49999 -5.00000
18.80000 10.49999 -17.00000
18.80000 10.49999 -5.00000
18.80000 9.49999 -17.00000
18.80000 9.99999 -4.50000
18.80000 9.49999 -4.00000
18.80000 8.49999 -17.00000
18.80000 8.99999 -3.50000
18.80000 8.99999 -2.50000
18.80000 8.49999 -2.00000
18.80000 7.99999 -16.50000
18.80000 7.99999 -15.50000
18.80000 7.99999 -14.50000
18.80000 7.99999 -13.50000
18.80000 7.99999 -12.50000
18.80000 7.49999 -12.00000
18.80000 7.99999 -1.50000
18.80000 7.49999 -1.00000
18.80000 6.99999 -11.50000
18.80000 6.49999 -11.00000
18.80000 6.99999 -0.50000
19.30000 6.49999 -0.50000
18.80000 6.49999 0.00000
18.80000 5.99999 -10.50000
18.80000 5.49999 -10.00000
18.80000 5.49999 0.00000
18.80000 4.99999 -9.50000
18.80000 4.49999 -9.00000
18.80000 4.99999 0.50000
18.80000 4.49999 1.00000
18.80000 3.99999 -8.50000
18.80000 3.49999 -8.00000
18.80000 3.49999 1.00000
18.80000 2.99999 -7.50000
18.80000 2.49999 -7.00000
18.80000 2.49999 1.00000
18.80000 1.99999 -6.50000
18.80000 1.49999 -6.00000
19.30000 1.49999 0.50000
18.80000 1.99999 0.50000
18.80000 1.49999 0.00000
18.80000 0.99999 -5.50000
19.30000 0.49999 -4.50000
18.80000 0.99999 -4.50000
18.80000 0.49999 -4.00000
19.30000 0.49999 -0.50000
18.80000 0.99999 -0.50000
18.80000 0.49999 -1.00000
18.80000 -0.00001 -3.50000
19.30000 -0.50001 -2.50000
18.80000 -0.00001 -2.50000
19.30000 -0.50001 -1.50000
18.80000 -0.00001 -1.50000
18.30000 14.49999 -9.50000
17.80000 14.49999 -10.00000
17.80000 14.99999 -9.50000
17.80000 14.49999 -9.00000
18.30000 13.49999 -14.50000
18.30000 13.49999 -13.50000
17.80000 13.49999 -13.00000
17.80000 13.99999 -12.50000
17.80000 13.99999 -11.50000
17.80000 13.99999 -10.50000
17.80000 13.99999 -8.50000
17.80000 13.99999 -7.50000
17.80000 13.49999 -7.00000
17.80000 12.49999 -16.00000
17.80000 12.99999 -15.50000
17.80000 12.99999 -14.50000
17.80000 12.99999 -13.50000
17.80000 12.99999 -6.50000
17.80000 12.49999 -6.00000
17.80000 11.49999 -17.00000
17.80000 11.99999 -16.50000
17.80000 11.99999 -5.50000
17.80000 11.49999 -5.00000
17.80000 10.49999 -17.00000
17.80000 10.99999 -4.50000
18.30000 10.49999 -4.50000
17.80000 10.49999 -4.00000
17.80000 9.49999 -17.00000
17.80000 9.49999 -4.00000
17.80000 8.49999 -17.00000
17.80000 8.99999 -3.50000
18.30000 8.49999 -2.50000
17.80000 8.49999 -3.00000
17.80000 7.99999 -16.50000
17.80000 7.99999 -15.50000
17.80000 7.99999 -14.50000
17.80000 7.99999 -13.50000
17.80000 7.99999 -12.50000
17.80000 7.49999 -12.00000
17.80000 7.99999 -2.50000
17.80000 7.99999 -1.50000
17.80000 7.49999 -1.00000
17.80000 6.99999 -11.50000
18.30000 6.49999 -10.50000
17.80000 6.99999 -10.50000
17.80000 6.49999 -10.00000
18.30000 6.49999 -0.50000
17.80000 6.49999 -1.00000
18.30000 5.49999 -9.50000
17.80000 5.99999 -9.50000
17.80000 5.49999 -9.00000
17.80000 5.99999 -0.50000
17.80000 5.49999 0.00000
18.30000 4.49999 -8.50000
17.80000 4.99999 -8.50000
17.80000 4.49999 -8.00000
18.30000 4.49999 0.50000
17.80000 4.49999 0.00000
17.80000 3.49999 -8.00000
17.80000 3.99999 0.50000
17.80000 3.49999 1.00000
17.80000 2.99999 -7.50000
17.80000 2.49999 -7.00000
18.30000 2.49999 0.50000
17.80000 2.99999 0.50000
17.80000 2.49999 0.00000
17.80000 1.99999 -6.50000
17.80000 1.49999 -6.00000
17.80000 1.49999 0.00000
17.80000 0.99999 -5.50000
17.80000 0.99999 -4.50000
17.80000 0.49999 -4.00000
17.80000 0.99999 -0.50000
17.80000 0.49999 -1.00000
17.80000 -0.00001 -3.50000
17.80000 -0.00001 -2.50000
17.80000 -0.00001 -1.50000
17.30000 14.49999 -10.50000
16.80000 14.49999 -11.00000
16.80000 14.99999 -10.50000
16.80000 14.99999 -9.50000
16.80000 14.49999 -9.00000
17.30000 13.49999 -12.50000
16.80000 13.49999 -12.00000
16.80000 13.99999 -11.50000
16.80000 13.99999 -8.50000
16.80000 13.99999 -7.50000
16.80000 13.49999 -7.00000
17.30000 12.49999 -15.50000
16.80000 12.49999 -15.00000
16.80000 12.99999 -14.50000
16.80000 12.99999 -13.50000
16.80000 12.99999 -12.50000
16.80000 12.99999 -6.50000
16.80000 12.49999 -6.00000
17.30000 11.49999 -16.50000
16.80000 11.49999 -16.00000
16.80000 11.99999 -15.50000
16.80000 11.99999 -5.50000
16.80000 11.49999 -5.00000
17.30000 10.49999 -16.50000
16.80000 10.49999 -16.00000
16.80000 10.99999 -4.50000
16.80000 10.49999 -4.00000
17.30000 9.49999 -16.50000
16.80000 9.49999 -16.00000
16.80000 9.49999 -4.00000
17.30000 8.49999 -16.50000
16.80000 8.49999 -16.00000
16.80000 8.99999 -3.50000
16.80000 8.49999 -3.00000
16.80000 7.99999 -15.50000
16.80000 7.99999 -14.50000
16.80000 7.99999 -13.50000
16.80000 7.99999 -12.50000
16.80000 7.49999 -12.00000
16.80000 7.99999 -2.50000
16.80000 7.99999 -1.50000
16.80000 7.49999 -1.00000
16.80000 6.99999 -11.50000
16.80000 6.99999 -10.50000
16.80000 6.49999 -10.00000
16.80000 6.49999 -1.00000
16.80000 5.99999 -9.50000
16.80000 5.49999 -9.00000
16.80000 5.99999 -0.50000
16.80000 5.49999 0.00000
16.80000 4.99999 -8.50000
16.80000 4.49999 -8.00000
16.80000 4.49999 0.00000
16.80000 3.49999 -8.00000
17.30000 3.49999 0.50000
16.80000 3.49999 0.00000
16.80000 2.99999 -7.50000
16.80000 2.49999 -7.00000
16.80000 2.49999 0.00000
16.80000 1.99999 -6.50000
16.80000 1.49999 -6.00000
17.30000 1.49999 -0.50000
16.80000 1.99999 -0.50000
16.80000 1.49999 -1.00000
16.80000 0.99999 -5.50000
16.80000 0.99999 -4.50000
16.80000 0.49999 -4.00000
16.80000 0.49999 -1.00000
16.80000 -0.00001 -3.50000
16.80000 -0.00001 -2.50000
16.80000 -0.00001 -1.50000
15.80000 14.49999 -11.00000
15.80000 14.99999 -10.50000
15.80000 14.99999 -9.50000
15.80000 14.49999 -9.00000
15.80000 13.49999 -12.00000
15.80000 13.99999 -11.50000
15.80000 13.99999 -8.50000
15.80000 13.99999 -7.50000
15.80000 13.49999 -7.00000
15.80000 12.49999 -15.00000
15.80000 12.99999 -14.50000
15.80000 12.99999 -13.50000
15.80000 12.99999 -12.50000
15.80000 12.99999 -6.50000
15.80000 12.49999 -6.00000
15.80000 11.49999 -16.00000
15.80000 11.99999 -15.50000
16.30000 11.49999 -5.50000
15.80000 11.49999 -6.00000
15.80000 10.49999 -16.00000
15.80000 10.99999 -5.50000
16.30000 10.49999 -4.50000
15.80000 10.49999 -5.00000
15.80000 9.49999 -16.00000
15.80000 9.99999 -4.50000
15.80000 9.49999 -4.00000
15.80000 8.99999 -15.50000
16.30000 8.49999 -15.50000
15.80000 8.49999 -15.00000
15.80000 8.99999 -3.50000
15.80000 8.49999 -3.00000
15.80000 7.99999 -14.50000
15.80000 7.99999 -13.50000
15.80000 7.99999 -12.50000
15.80000 7.49999 -12.00000
15.80000 7.99999 -2.50000
15.80000 7.99999 -1.50000
15.80000 7.49999 -1.00000
15.80000 6.99999 -11.50000
15.80000 6.99999 -10.50000
15.80000 6.49999 -10.00000
15.80000 6.49999 -1.00000
15.80000 5.99999 -9.50000
15.80000 5.49999 -9.00000
16.30000 5.49999 -0.50000
15.80000 5.49999 -1.00000
15.80000 4.99999 -8.50000
15.80000 4.49999 -8.00000
16.30000 4.49999 -0.50000
15.80000 4.49999 -1.00000
15.80000 3.99999 -7.50000
16.30000 3.49999 -7.50000
15.80000 3.49999 -7.00000
16.30000 3.49999 -0.50000
15.80000 3.49999 -1.00000
15.80000 2.49999 -7.00000
16.30000 2.49999 -0.50000
15.80000 2.49999 -1.00000
15.80000 1.99999 -6.50000
16.30000 1.49999 -5.50000
15.80000 1.99999 -5.50000
15.80000 1.49999 -5.00000
15.80000 1.49999 -1.00000
15.80000 0.99999 -4.50000
16.30000 0.49999 -3.50000
15.80000 0.99999 -3.50000
16.30000 0.49999 -2.50000
15.80000 0.99999 -2.50000
16.30000 0.49999 -1.50000
15.80000 0.99999 -1.50000
15.30000 14.49999 -10.50000
15.30000 14.49999 -9.50000
14.80000 13.49999 -12.00000
14.80000 13.99999 -11.50000
14.80000 13.99999 -10.50000
14.80000 13.99999 -9.50000
14.80000 13.99999 -8.50000
15.30000 13.49999 -7.50000
14.80000 13.49999 -8.00000
15.30000 12.49999 -14.50000
14.80000 12.49999 -14.00000
14.80000 12.99999 -13.50000
14.80000 12.99999 -12.50000
14.80000 12.99999 -7.50000
14.80000 12.99999 -6.50000
14.80000 12.49999 -6.00000
15.30000 11.49999 -15.50000
14.80000 11.49999 -15.00000
14.80000 11.99999 -14.50000
14.80000 11.49999 -6.00000
15.30000 10.49999 -15.50000
14.80000 10.49999 -15.00000
14.80000 10.99999 -5.50000
14.80000 10.49999 -5.00000
15.30000 9.49999 -15.50000
14.80000 9.49999 -15.00000
14.80000 9.99999 -4.50000
14.80000 9.49999 -4.00000
14.80000 8.49999 -15.00000
14.80000 8.99999 -3.50000
14.80000 8.49999 -3.00000
14.80000 7.99999 -14.50000
14.80000 7.99999 -13.50000
14.80000 7.99999 -12.50000
14.80000 7.49999 -12.00000
14.80000 7.99999 -2.50000
15.30000 7.49999 -1.50000
14.80000 7.49999 -2.00000
14.80000 6.99999 -11.50000
14.80000 6.99999 -10.50000
14.80000 6.49999 -10.00000
14.80000 6.99999 -1.50000
14.80000 6.49999 -1.00000
14.80000 5.99999 -9.50000
14.80000 5.49999 -9.00000
14.80000 5.49999 -1.00000
14.80000 4.99999 -8.50000
14.80000 4.49999 -8.00000
14.80000 4.49999 -1.00000
14.80000 3.99999 -7.50000
14.80000 3.49999 -7.00000
15.30000 3.49999 -1.50000
14.80000 3.99999 -1.50000
14.80000 3.49999 -2.00000
14.80000 2.99999 -6.50000
15.30000 2.49999 -6.50000
14.80000 2.49999 -6.00000
15.30000 2.49999 -1.50000
14.80000 2.49999 -2.00000
14.80000 1.99999 -5.50000
15.30000 1.49999 -4.50000
14.80000 1.99999 -4.50000
15.30000 1.49999 -3.50000
14.80000 1.99999 -3.50000
15.30000 1.49999 -2.50000
14.80000 1.99999 -2.50000
15.30000 1.49999 -1.50000
14.30000 13.49999 -11.50000
13.80000 13.49999 -11.00000
13.80000 13.99999 -10.50000
13.80000 13.99999 -9.50000
14.30000 13.49999 -8.50000
13.80000 13.49999 -9.00000
13.80000 12.49999 -14.00000
13.80000 12.99999 -13.50000
13.80000 12.99999 -12.50000
13.80000 12.99999 -11.50000
13.80000 12.99999 -8.50000
13.80000 12.99999 -7.50000
14.30000 12.49999 -6.50000
13.80000 12.49999 -7.00000
14.30000 11.49999 -14.50000
13.80000 11.49999 -14.00000
13.80000 11.99999 -6.50000
13.80000 11.49999 -6.00000
14.30000 10.49999 -14.50000
13.80000 10.49999 -14.00000
14.30000 10.49999 -5.50000
13.80000 10.49999 -6.00000
14.30000 9.49999 -14.50000
13.80000 9.49999 -14.00000
13.80000 9.99999 -5.50000
14.30000 9.49999 -4.50000
13.80000 9.49999 -5.00000
14.30000 8.49999 -14.50000
13.80000 8.49999 -14.00000
13.80000 8.99999 -4.50000
14.30000 8.49999 -3.50000
13.80000 8.49999 -4.00000
13.80000 7.99999 -13.50000
13.80000 7.99999 -12.50000
13.80000 7.49999 -12.00000
13.80000 7.99999 -3.50000
14.30000 7.49999 -2.50000
13.80000 7.49999 -3.00000
13.80000 6.99999 -11.50000
13.80000 6.99999 -10.50000
13.80000 6.49999 -10.00000
13.80000 6.99999 -2.50000
14.30000 6.49999 -1.50000
13.80000 6.49999 -2.00000
13.80000 5.99999 -9.50000
13.80000 5.49999 -9.00000
14.30000 5.49999 -1.50000
13.80000 5.49999 -2.00000
13.80000 4.99999 -8.50000
13.80000 4.49999 -8.00000
14.30000 4.49999 -1.50000
13.80000 4.49999 -2.00000
13.80000 3.99999 -7.50000
13.80000 3.49999 -7.00000
13.80000 3.49999 -2.00000
13.80000 2.99999 -6.50000
14.30000 2.49999 -5.50000
13.80000 2.99999 -5.50000
13.80000 2.49999 -5.00000
13.80000 2.49999 -2.00000
13.80000 1.99999 -4.50000
13.80000 1.99999 -3.50000
13.80000 1.99999 -2.50000
13.30000 13.49999 -10.50000
13.30000 13.49999 -9.50000
13.30000 12.49999 -13.50000
12.80000 12.49999 -13.00000
12.80000 12.99999 -12.50000
12.80000 12.99999 -11.50000
13.30000 12.49999 -10.50000
12.80000 12.49999 -11.00000
13.30000 12.49999 -9.50000
13.30000 12.49999 -8.50000
13.30000 12.49999 -7.50000
12.80000 11.49999 -14.00000
12.80000 11.99999 -13.50000
12.80000 11.99999 -10.50000
12.80000 11.99999 -9.50000
12.80000 11.99999 -8.50000
12.80000 11.49999 -8.00000
13.30000 11.49999 -7.50000
13.30000 11.49999 -6.50000
12.80000 10.49999 -14.00000
12.80000 10.99999 -7.50000
12.80000 10.49999 -7.00000
13.30000 10.49999 -6.50000
12.80000 9.99999 -13.50000
13.30000 9.49999 -13.50000
12.80000 9.49999 -13.00000
12.80000 9.99999 -6.50000
12.80000 9.99999 -5.50000
12.80000 9.49999 -5.00000
13.30000 8.49999 -13.50000
12.80000 8.49999 -13.00000
13.30000 8.49999 -4.50000
12.80000 8.49999 -5.00000
12.80000 7.99999 -12.50000
12.80000 7.49999 -12.00000
12.80000 7.99999 -4.50000
13.30000 7.49999 -3.50000
12.80000 7.49999 -4.00000
12.80000 6.99999 -11.50000
12.80000 6.99999 -10.50000
12.80000 6.49999 -10.00000
12.80000 6.99999 -3.50000
13.30000 6.49999 -2.50000
12.80000 6.49999 -3.00000
12.80000 5.99999 -9.50000
12.80000 5.49999 -9.00000
13.30000 5.49999 -2.50000
12.80000 5.49999 -3.00000
12.80000 4.99999 -8.50000
13.30000 4.49999 -7.50000
12.80000 4.99999 -7.50000
12.80000 4.49999 -7.00000
13.30000 4.49999 -2.50000
12.80000 4.49999 -3.00000
13.30000 3.49999 -6.50000
12.80000 3.99999 -6.50000
12.80000 3.49999 -6.00000
12.80000 3.99999 -2.50000
12.80000 3.49999 -2.00000
12.80000 2.99999 -5.50000
13.30000 2.49999 -4.50000
12.80000 2.99999 -4.50000
12.80000 2.49999 -4.00000
12.80000 2.49999 -2.00000
12.80000 1.99999 -3.50000
12.80000 1.99999 -2.50000
12.30000 12.49999 -12.50000
12.30000 12.49999 -11.50000
12.30000 11.49999 -13.50000
12.30000 11.49999 -12.50000
12.30000 11.49999 -11.50000
12.30000 11.49999 -10.50000
12.30000 11.49999 -9.50000
12.30000 11.49999 -8.50000
12.30000 10.49999 -13.50000
11.80000 10.49999 -13.00000
11.80000 10.99999 -12.50000
11.80000 10.49999 -12.00000
12.30000 10.49999 -11.50000
12.30000 10.49999 -10.50000
12.30000 10.49999 -9.50000
12.30000 10.49999 -8.50000
12.30000 10.49999 -7.50000
11.80000 9.49999 -13.00000
11.80000 9.99999 -11.50000
11.80000 9.99999 -10.50000
11.80000 9.99999 -9.50000
11.80000 9.99999 -8.50000
11.80000 9.99999 -7.50000
11.80000 9.99999 -6.50000
12.30000 9.49999 -5.50000
11.80000 9.49999 -6.00000
11.80000 8.49999 -13.00000
12.30000 8.49999 -5.50000
11.80000 8.49999 -6.00000
11.80000 7.99999 -12.50000
11.80000 7.49999 -12.00000
11.80000 7.99999 -5.50000
12.30000 7.49999 -4.50000
11.80000 7.49999 -5.00000
11.80000 6.99999 -11.50000
11.80000 6.99999 -10.50000
11.80000 6.49999 -10.00000
12.30000 6.49999 -4.50000
11.80000 6.49999 -5.00000
12.30000 6.49999 -3.50000
11.80000 5.99999 -9.50000
12.30000 5.49999 -8.50000
11.80000 5.99999 -8.50000
11.80000 5.49999 -8.00000
11.80000 5.99999 -4.50000
11.80000 5.99999 -3.50000
11.80000 5.49999 -3.00000
11.80000 4.99999 -7.50000
11.80000 4.49999 -7.00000
11.80000 4.49999 -3.00000
11.80000 3.99999 -6.50000
12.30000 3.49999 -5.50000
11.80000 3.99999 -5.50000
11.80000 3.49999 -5.00000
12.30000 3.49999 -2.50000
11.80000 3.49999 -3.00000
11.80000 2.99999 -4.50000
12.30000 2.49999 -3.50000
11.80000 2.99999 -3.50000
12.30000 2.49999 -2.50000
11.30000 10.49999 -12.50000
11.30000 9.49999 -12.50000
10.80000 9.99999 -11.50000
10.80000 9.49999 -12.00000
10.80000 9.99999 -10.50000
11.30000 9.49999 -9.50000
10.80000 9.49999 -10.00000
11.30000 9.49999 -8.50000
11.30000 9.49999 -7.50000
11.30000 9.49999 -6.50000
11.30000 8.49999 -12.50000
10.80000 8.49999 -12.00000
10.80000 8.99999 -9.50000
10.80000 8.99999 -8.50000
10.80000 8.99999 -7.50000
10.80000 8.49999 -7.00000
11.30000 8.49999 -6.50000
10.80000 7.49999 -12.00000
10.80000 7.99999 -6.50000
11.30000 7.49999 -5.50000
10.80000 7.49999 -6.00000
10.80000 6.99999 -11.50000
10.80000 6.99999 -10.50000
11.30000 6.49999 -9.50000
10.80000 6.99999 -9.50000
10.80000 6.49999 -9.00000
11.30000 6.49999 -5.50000
10.80000 6.49999 -6.00000
10.80000 5.99999 -8.50000
10.80000 5.49999 -8.00000
10.80000 5.99999 -5.50000
11.30000 5.49999 -4.50000
10.80000 5.49999 -5.00000
11.30000 5.49999 -3.50000
10.80000 4.99999 -7.50000
11.30000 4.49999 -6.50000
10.80000 4.99999 -6.50000
10.80000 4.49999 -6.00000
11.30000 4.49999 -4.50000
10.80000 4.49999 -5.00000
11.30000 4.49999 -3.50000
10.80000 3.99999 -5.50000
11.30000 3.49999 -4.50000
11.30000 3.49999 -3.50000
10.30000 9.49999 -11.50000
10.30000 9.49999 -10.50000
9.80000 8.49999 -12.00000
9.80000 8.99999 -11.50000
9.80000 8.99999 -10.50000
10.30000 8.49999 -9.50000
9.80000 8.49999 -10.00000
10.30000 8.49999 -8.50000
10.30000 8.49999 -7.50000
9.80000 7.49999 -12.00000
9.80000 7.99999 -9.50000
9.80000 7.99999 -8.50000
9.80000 7.99999 -7.50000
10.30000 7.49999 -6.50000
9.80000 7.49999 -7.00000
9.80000 6.99999 -11.50000
9.80000 6.99999 -10.50000
9.80000 6.99999 -9.50000
9.80000 6.49999 -9.00000
9.80000 6.99999 -6.50000
9.80000 6.49999 -6.00000
9.80000 5.99999 -8.50000
10.30000 5.49999 -7.50000
9.80000 5.99999 -7.50000
9.80000 5.49999 -7.00000
10.30000 5.49999 -5.50000
9.80000 5.49999 -6.00000
9.80000 4.99999 -6.50000
10.30000 4.49999 -5.50000
9.30000 8.49999 -11.50000
9.30000 8.49999 -10.50000
9.30000 7.49999 -11.50000
9.30000 7.49999 -10.50000
9.30000 7.49999 -9.50000
9.30000 7.49999 -8.50000
9.30000 7.49999 -7.50000
9.30000 6.49999 -8.50000
9.30000 6.49999 -7.50000
9.30000 6.49999 -6.50000
9.30000 5.49999 -6.50000
3 2 1 0
3 4 3 0
3 0 3 2
3 6 5 4
3 4 5 3
3 6 7 5
3 0 1 8
3 8 1 9
3 0 10 4
3 0 8 10
3 4 11 6
3 4 10 11
3 7 6 12
3 6 13 12
3 6 11 13
3 13 14 12
3 9 15 8
3 17 16 15
3 16 8 15
3 16 10 8
3 10 18 11
3 10 16 18
3 11 19 13
3 11 18 19
3 14 13 20
3 20 13 19
3 17 21 16
3 16 21 18
3 18 21 22
3 18 22 19
3 19 22 23
3 19 23 20
3 26 25 24
3 28 27 24
3 24 27 26
3 28 29 27
3 32 31 30
3 34 33 30
3 30 33 32
3 33 34 25
3 25 34 24
3 34 1 24
3 1 2 24
3 24 2 3
3 24 3 28
3 35 29 28
3 3 35 28
3 5 35 3
3 37 36 7
3 36 5 7
3 36 35 5
3 37 38 36
3 41 40 39
3 41 39 31
3 39 30 31
3 39 42 30
3 30 43 34
3 30 42 43
3 43 9 1
3 43 1 34
3 12 37 7
3 45 44 14
3 14 44 12
3 44 38 12
3 38 37 12
3 45 46 44
3 39 40 47
3 47 40 48
3 39 49 42
3 39 47 49
3 42 50 43
3 42 49 50
3 51 15 9
3 43 51 9
3 50 51 43
3 51 17 15
3 20 52 45
3 20 45 14
3 46 45 53
3 53 45 52
3 48 54 47
3 47 54 49
3 49 54 55
3 57 56 55
3 56 49 55
3 56 50 49
3 50 58 51
3 50 56 58
3 59 21 17
3 51 59 17
3 58 59 51
3 60 22 21
3 60 21 59
3 61 23 22
3 61 22 60
3 52 20 23
3 61 52 23
3 62 52 61
3 53 52 63
3 63 52 62
3 57 64 56
3 56 64 58
3 58 64 65
3 67 66 65
3 66 58 65
3 66 59 58
3 59 68 60
3 59 66 68
3 70 61 69
3 61 68 69
3 61 60 68
3 61 70 62
3 62 70 71
3 62 71 63
3 67 72 66
3 66 72 68
3 68 72 73
3 68 73 69
3 76 75 74
3 78 77 74
3 74 77 76
3 78 79 77
3 82 81 80
3 82 80 75
3 80 74 75
3 80 83 74
3 83 25 26
3 78 83 26
3 74 83 78
3 84 79 78
3 26 84 78
3 27 84 26
3 86 85 29
3 85 27 29
3 85 84 27
3 86 87 85
3 90 89 88
3 92 91 88
3 88 91 90
3 91 92 81
3 81 92 80
3 92 31 80
3 31 32 80
3 80 32 33
3 80 33 83
3 83 33 25
3 35 86 29
3 93 87 86
3 35 93 86
3 36 93 35
3 95 94 38
3 94 36 38
3 94 93 36
3 95 96 94
3 99 98 97
3 99 97 89
3 97 88 89
3 97 100 88
3 100 40 41
3 92 100 41
3 88 100 92
3 92 41 31
3 44 95 38
3 102 101 46
3 46 101 44
3 101 96 44
3 96 95 44
3 102 103 101
3 98 104 97
3 106 105 104
3 105 97 104
3 105 100 97
3 105 48 40
3 105 40 100
3 53 107 102
3 53 102 46
3 103 102 108
3 102 109 108
3 102 107 109
3 109 110 108
3 106 111 105
3 105 111 48
3 111 54 48
3 111 112 54
3 112 114 113
3 55 112 113
3 54 112 55
3 113 57 55
3 63 115 107
3 63 107 53
3 107 116 109
3 107 115 116
3 110 109 117
3 117 109 116
3 114 118 113
3 113 118 57
3 118 64 57
3 118 119 64
3 64 120 65
3 119 120 64
3 67 65 120
3 67 120 121
3 69 122 70
3 123 71 70
3 123 70 122
3 115 63 71
3 123 115 71
3 124 115 123
3 126 116 125
3 116 124 125
3 116 115 124
3 116 126 117
3 121 127 67
3 67 127 72
3 72 128 73
3 127 128 72
3 73 128 69
3 128 129 69
3 129 122 69
3 129 128 130
3 132 123 131
3 123 129 131
3 123 122 129
3 123 132 124
3 124 132 133
3 124 133 125
3 130 134 129
3 129 134 131
3 137 136 135
3 75 76 135
3 76 137 135
3 76 138 137
3 139 76 77
3 139 138 76
3 141 140 79
3 140 77 79
3 140 139 77
3 141 142 140
3 145 144 143
3 147 146 143
3 143 146 145
3 146 147 136
3 136 147 135
3 147 81 135
3 81 82 135
3 135 82 75
3 84 141 79
3 148 142 141
3 84 148 141
3 85 148 84
3 150 149 87
3 149 85 87
3 149 148 85
3 150 151 149
3 154 153 152
3 156 155 152
3 152 155 154
3 155 156 144
3 144 156 143
3 156 89 143
3 89 90 143
3 143 90 91
3 143 91 147
3 147 91 81
3 93 150 87
3 157 151 150
3 93 157 150
3 94 157 93
3 94 96 157
3 157 96 158
3 152 153 159
3 159 153 160
3 159 98 99
3 156 159 99
3 152 159 156
3 156 99 89
3 161 158 96
3 161 96 101
3 101 103 161
3 161 103 162
3 160 163 159
3 159 163 98
3 163 104 98
3 163 164 104
3 106 104 164
3 106 164 165
3 166 162 103
3 166 103 108
3 108 110 166
3 166 110 167
3 165 168 106
3 106 168 111
3 168 170 169
3 112 168 169
3 111 168 112
3 169 114 112
3 117 172 171
3 167 117 171
3 110 117 167
3 172 173 171
3 170 174 169
3 169 174 114
3 174 118 114
3 174 175 118
3 118 176 119
3 175 176 118
3 119 177 120
3 176 177 119
3 179 178 121
3 120 179 121
3 177 179 120
3 180 178 179
3 125 181 126
3 181 182 126
3 126 182 117
3 182 183 117
3 183 172 117
3 172 183 173
3 178 127 121
3 180 184 178
3 184 127 178
3 184 128 127
3 130 128 184
3 130 184 185
3 131 186 132
3 187 133 132
3 187 132 186
3 181 125 133
3 187 181 133
3 188 181 187
3 182 181 189
3 189 181 188
3 185 190 130
3 130 190 134
3 131 134 186
3 134 191 186
3 134 190 191
3 193 192 191
3 192 186 191
3 192 187 186
3 187 194 188
3 187 192 194
3 189 188 195
3 188 196 195
3 188 194 196
3 196 197 195
3 193 198 192
3 200 199 198
3 199 192 198
3 199 194 192
3 194 201 196
3 194 199 201
3 197 196 202
3 196 203 202
3 196 201 203
3 203 204 202
3 199 200 205
3 205 200 206
3 199 207 201
3 199 205 207
3 209 203 208
3 203 207 208
3 203 201 207
3 203 209 204
3 206 210 205
3 205 210 207
3 207 210 211
3 207 211 208
3 214 213 212
3 136 137 212
3 137 214 212
3 137 215 214
3 216 137 138
3 216 215 137
3 217 138 139
3 217 216 138
3 218 139 140
3 218 217 139
3 220 219 142
3 219 140 142
3 219 218 140
3 220 221 219
3 224 223 222
3 144 145 222
3 145 224 222
3 145 225 224
3 146 212 213
3 225 146 213
3 145 146 225
3 212 146 136
3 148 220 142
3 226 221 220
3 148 226 220
3 149 226 148
3 228 227 151
3 227 149 151
3 227 226 149
3 228 229 227
3 231 230 154
3 154 230 153
3 155 222 223
3 231 155 223
3 154 155 231
3 222 155 144
3 157 228 151
3 233 232 158
3 158 232 157
3 232 229 157
3 229 228 157
3 233 234 232
3 230 160 153
3 235 160 230
3 161 233 158
3 237 236 162
3 162 236 161
3 236 234 161
3 234 233 161
3 237 238 236
3 235 239 160
3 160 239 163
3 163 240 164
3 239 240 163
3 165 164 240
3 165 240 241
3 166 237 162
3 243 242 167
3 167 242 166
3 242 238 166
3 238 237 166
3 243 244 242
3 241 245 165
3 165 245 168
3 170 168 245
3 170 245 246
3 249 248 247
3 250 247 248
3 171 243 167
3 171 173 243
3 173 244 243
3 173 251 244
3 246 252 170
3 170 252 174
3 247 175 249
3 175 252 249
3 175 174 252
3 250 253 247
3 253 175 247
3 253 176 175
3 176 254 177
3 253 254 176
3 254 256 255
3 179 254 255
3 177 254 179
3 255 180 179
3 182 257 183
3 251 173 258
3 173 257 258
3 257 259 258
3 173 183 257
3 259 260 258
3 256 261 255
3 255 261 180
3 261 184 180
3 261 262 184
3 185 184 262
3 185 262 263
3 189 264 257
3 189 257 182
3 257 265 259
3 257 264 265
3 260 259 266
3 266 259 265
3 263 267 185
3 185 267 190
3 190 268 191
3 267 268 190
3 193 191 268
3 193 268 269
3 195 264 189
3 264 195 197
3 270 264 197
3 265 264 270
3 266 265 271
3 271 265 270
3 269 272 193
3 193 272 198
3 200 198 272
3 200 272 273
3 202 270 197
3 275 274 204
3 204 274 202
3 274 271 202
3 271 270 202
3 275 276 274
3 273 206 200
3 277 206 273
3 208 278 209
3 275 204 209
3 278 275 209
3 279 275 278
3 276 275 280
3 280 275 279
3 277 281 206
3 206 281 210
3 281 283 282
3 211 281 282
3 210 281 211
3 278 208 211
3 282 278 211
3 284 278 282
3 286 279 285
3 279 284 285
3 279 278 284
3 279 286 280
3 283 287 282
3 282 287 284
3 284 287 288
3 284 288 285
3 291 290 289
3 293 292 289
3 289 292 291
3 295 294 293
3 293 294 292
3 297 296 295
3 295 296 294
3 299 298 297
3 297 298 296
3 299 300 298
3 303 302 301
3 303 301 290
3 290 301 289
3 301 213 289
3 213 214 289
3 289 214 215
3 289 215 293
3 293 215 216
3 293 216 295
3 295 216 217
3 295 217 297
3 297 217 218
3 297 218 299
3 304 300 299
3 218 304 299
3 219 304 218
3 306 305 221
3 305 219 221
3 305 304 219
3 306 307 305
3 310 309 308
3 223 224 308
3 224 310 308
3 224 311 310
3 225 301 302
3 311 225 302
3 224 225 311
3 301 225 213
3 226 306 221
3 312 307 306
3 226 312 306
3 227 312 226
3 314 313 229
3 313 227 229
3 313 312 227
3 314 315 313
3 308 309 231
3 309 230 231
3 309 316 230
3 308 231 223
3 232 314 229
3 318 317 234
3 234 317 232
3 317 315 232
3 315 314 232
3 318 319 317
3 316 235 230
3 320 235 316
3 236 318 234
3 322 321 238
3 238 321 236
3 321 319 236
3 319 318 236
3 322 323 321
3 320 324 235
3 235 324 239
3 324 326 325
3 240 324 325
3 239 324 240
3 325 241 240
3 242 322 238
3 328 327 244
3 244 327 242
3 327 323 242
3 323 322 242
3 328 329 327
3 326 330 325
3 325 330 241
3 330 245 241
3 330 331 245
3 333 332 246
3 245 333 246
3 331 333 245
3 248 249 332
3 333 248 332
3 334 248 333
3 250 248 334
3 250 334 335
3 251 336 328
3 251 328 244
3 329 328 337
3 337 328 336
3 332 252 246
3 252 332 249
3 335 338 250
3 250 338 253
3 253 339 254
3 338 339 253
3 256 254 339
3 256 339 340
3 258 336 251
3 258 260 336
3 260 337 336
3 260 341 337
3 340 342 256
3 256 342 261
3 261 343 262
3 342 343 261
3 263 262 343
3 263 343 344
3 266 341 260
3 266 345 341
3 344 346 263
3 263 346 267
3 346 348 347
3 268 346 347
3 267 346 268
3 347 269 268
3 271 350 349
3 345 271 349
3 266 271 345
3 350 351 349
3 348 352 347
3 352 354 353
3 352 353 272
3 347 352 272
3 269 347 272
3 353 273 272
3 274 350 271
3 274 276 350
3 276 351 350
3 276 355 351
3 354 356 353
3 273 353 356
3 357 273 356
3 277 273 357
3 280 355 276
3 280 358 355
3 357 359 277
3 277 359 281
3 283 281 359
3 283 359 360
3 285 361 286
3 361 362 286
3 362 280 286
3 362 358 280
3 360 363 283
3 283 363 287
3 287 364 288
3 363 364 287
3 285 288 361
3 288 365 361
3 288 364 365
3 361 365 362
3 367 366 291
3 291 366 290
3 368 291 292
3 368 367 291
3 369 292 294
3 369 368 292
3 370 294 296
3 370 369 294
3 371 296 298
3 371 370 296
3 373 372 300
3 372 298 300
3 372 371 298
3 373 374 372
3 377 376 375
3 302 303 375
3 303 377 375
3 303 378 377
3 303 290 366
3 303 366 378
3 304 373 300
3 379 374 373
3 304 379 373
3 305 379 304
3 381 380 307
3 380 305 307
3 380 379 305
3 381 382 380
3 384 383 310
3 310 383 309
3 311 375 376
3 384 311 376
3 310 311 384
3 375 311 302
3 312 381 307
3 385 382 381
3 312 385 381
3 313 385 312
3 387 386 315
3 386 313 315
3 386 385 313
3 387 388 386
3 383 316 309
3 389 316 383
3 317 387 315
3 391 390 319
3 319 390 317
3 390 388 317
3 388 387 317
3 391 392 390
3 395 394 393
3 389 395 393
3 320 389 393
3 316 389 320
3 321 391 319
3 397 396 323
3 323 396 321
3 396 392 321
3 392 391 321
3 397 398 396
3 394 399 393
3 393 399 320
3 399 324 320
3 399 400 324
3 326 324 400
3 326 400 401
3 327 397 323
3 327 329 397
3 329 398 397
3 329 402 398
3 401 403 326
3 326 403 330
3 330 404 331
3 403 404 330
3 331 405 333
3 404 405 331
3 333 406 334
3 405 406 333
3 335 334 406
3 335 406 407
3 337 402 329
3 337 408 402
3 407 409 335
3 335 409 338
3 338 410 339
3 409 410 338
3 340 339 410
3 340 410 411
3 341 408 337
3 341 412 408
3 411 413 340
3 340 413 342
3 413 415 414
3 343 413 414
3 342 413 343
3 414 344 343
3 345 417 416
3 412 345 416
3 341 345 412
3 417 418 416
3 415 419 414
3 419 421 420
3 419 420 346
3 414 419 346
3 344 414 346
3 420 348 346
3 349 417 345
3 423 422 351
3 351 422 349
3 422 418 349
3 418 417 349
3 423 424 422
3 421 425 420
3 425 427 426
3 425 426 352
3 420 425 352
3 348 420 352
3 426 354 352
3 355 428 423
3 355 423 351
3 424 423 429
3 429 423 428
3 427 430 426
3 426 430 354
3 430 356 354
3 430 431 356
3 357 356 431
3 357 431 432
3 358 433 428
3 358 428 355
3 429 428 434
3 434 428 433
3 432 435 357
3 357 435 359
3 360 359 435
3 360 435 436
3 362 437 433
3 362 433 358
3 434 433 438
3 438 433 437
3 436 439 360
3 360 439 363
3 439 441 440
3 364 439 440
3 363 439 364
3 442 365 364
3 442 364 440
3 442 443 365
3 365 443 362
3 443 444 362
3 444 437 362
3 437 444 438
3 441 445 440
3 447 446 445
3 446 440 445
3 446 442 440
3 443 442 448
3 448 442 446
3 447 449 446
3 446 449 448
3 452 451 450
3 454 453 450
3 450 453 452
3 454 455 453
3 458 457 456
3 458 456 451
3 451 456 450
3 456 366 450
3 366 367 450
3 450 367 368
3 450 368 454
3 459 455 454
3 368 459 454
3 369 459 368
3 460 369 370
3 460 459 369
3 461 370 371
3 461 460 370
3 462 371 372
3 462 461 371
3 464 463 374
3 463 372 374
3 463 462 372
3 464 465 463
3 467 466 377
3 377 466 376
3 378 456 457
3 467 378 457
3 377 378 467
3 456 378 366
3 379 464 374
3 468 465 464
3 379 468 464
3 380 468 379
3 380 382 468
3 468 382 469
3 471 470 384
3 384 470 383
3 384 376 466
3 384 466 471
3 472 469 382
3 472 382 385
3 473 385 386
3 473 472 385
3 386 388 473
3 473 388 474
3 470 389 383
3 475 389 470
3 476 474 388
3 476 388 390
3 390 392 476
3 476 392 477
3 479 478 395
3 395 478 394
3 395 389 475
3 395 475 479
3 480 477 392
3 480 392 396
3 396 398 480
3 480 398 481
3 478 482 394
3 394 482 399
3 399 483 400
3 482 483 399
3 485 484 401
3 400 485 401
3 483 485 400
3 487 486 484
3 487 484 485
3 488 486 487
3 402 481 398
3 402 489 481
3 484 403 401
3 403 484 404
3 404 484 486
3 488 490 486
3 490 404 486
3 490 405 404
3 405 491 406
3 490 491 405
3 407 406 491
3 407 491 492
3 408 489 402
3 408 493 489
3 492 494 407
3 407 494 409
3 409 495 410
3 494 495 409
3 411 410 495
3 411 495 496
3 412 498 497
3 493 412 497
3 408 412 493
3 498 499 497
3 496 500 411
3 411 500 413
3 415 413 500
3 415 500 501
3 416 498 412
3 503 502 418
3 418 502 416
3 502 499 416
3 499 498 416
3 503 504 502
3 501 505 415
3 415 505 419
3 421 419 505
3 421 505 506
3 422 503 418
3 422 424 503
3 424 504 503
3 424 507 504
3 506 508 421
3 421 508 425
3 427 425 508
3 427 508 509
3 429 507 424
3 429 510 507
3 509 511 427
3 427 511 430
3 430 512 431
3 511 512 430
3 432 431 512
3 432 512 513
3 434 510 429
3 434 514 510
3 513 515 432
3 432 515 435
3 436 435 515
3 436 515 516
3 438 514 434
3 438 517 514
3 516 518 436
3 436 518 439
3 441 439 518
3 441 518 519
3 443 520 444
3 520 521 444
3 521 438 444
3 521 517 438
3 519 522 441
3 441 522 445
3 447 445 522
3 447 522 523
3 525 524 520
3 443 525 520
3 448 525 443
3 520 524 521
3 523 526 447
3 447 526 449
3 448 449 525
3 525 449 526
3 529 528 527
3 451 452 527
3 452 529 527
3 452 530 529
3 531 452 453
3 531 530 452
3 533 532 455
3 532 453 455
3 532 531 453
3 535 534 533
3 533 534 532
3 537 536 535
3 535 536 534
3 539 538 537
3 537 538 536
3 539 540 538
3 543 542 541
3 543 541 528
3 528 541 527
3 541 457 527
3 457 458 527
3 527 458 451
3 459 533 455
3 533 459 460
3 533 460 535
3 535 460 461
3 535 461 537
3 537 461 462
3 537 462 539
3 544 540 539
3 462 544 539
3 463 544 462
3 463 465 544
3 544 465 545
3 541 542 467
3 542 466 467
3 542 546 466
3 541 467 457
3 547 545 465
3 547 465 468
3 468 469 547
3 547 469 548
3 550 549 471
3 471 549 470
3 471 466 546
3 471 546 550
3 551 548 469
3 551 469 472
3 552 472 473
3 552 551 472
3 473 474 552
3 552 474 553
3 549 475 470
3 554 475 549
3 555 553 474
3 555 474 476
3 476 477 555
3 555 477 556
3 558 557 479
3 479 557 478
3 479 475 554
3 479 554 558
3 559 556 477
3 559 477 480
3 480 481 559
3 559 481 560
3 557 561 478
3 478 561 482
3 482 562 483
3 561 562 482
3 483 563 485
3 562 563 483
3 485 564 487
3 563 564 485
3 566 565 488
3 487 566 488
3 564 566 487
3 567 565 566
3 489 560 481
3 489 568 560
3 565 490 488
3 567 569 565
3 569 490 565
3 569 491 490
3 571 570 492
3 491 571 492
3 569 571 491
3 572 570 571
3 493 574 573
3 568 493 573
3 489 493 568
3 574 575 573
3 570 494 492
3 572 576 570
3 576 494 570
3 576 495 494
3 496 495 576
3 496 576 577
3 497 574 493
3 497 499 574
3 499 575 574
3 499 578 575
3 577 579 496
3 496 579 500
3 501 500 579
3 501 579 580
3 581 578 499
3 581 499 502
3 502 504 581
3 581 504 582
3 580 583 501
3 501 583 505
3 506 505 583
3 506 583 584
3 507 582 504
3 507 585 582
3 584 586 506
3 506 586 508
3 509 508 586
3 509 586 587
3 510 585 507
3 510 588 585
3 587 589 509
3 509 589 511
3 589 591 590
3 512 589 590
3 511 589 512
3 590 513 512
3 514 588 510
3 514 592 588
3 591 593 590
3 590 593 513
3 593 515 513
3 593 594 515
3 516 515 594
3 516 594 595
3 517 592 514
3 517 596 592
3 595 597 516
3 516 597 518
3 519 518 597
3 519 597 598
3 521 596 517
3 521 599 596
3 598 600 519
3 519 600 522
3 523 522 600
3 523 600 601
3 525 602 524
3 602 603 524
3 603 521 524
3 603 599 521
3 601 604 523
3 523 604 526
3 525 526 602
3 526 605 602
3 526 604 605
3 602 605 603
3 608 607 606
3 528 529 606
3 529 608 606
3 529 609 608
3 610 529 530
3 610 609 529
3 611 530 531
3 611 610 530
3 612 531 532
3 612 611 531
3 613 532 534
3 613 612 532
3 614 534 536
3 614 613 534
3 615 536 538
3 615 614 536
3 538 540 615
3 615 540 616
3 606 607 543
3 607 542 543
3 607 617 542
3 606 543 528
3 618 616 540
3 618 540 544
3 620 619 545
3 619 544 545
3 619 618 544
3 620 621 619
3 617 546 542
3 622 546 617
3 547 620 545
3 624 623 548
3 548 623 547
3 623 621 547
3 621 620 547
3 624 625 623
3 627 626 550
3 550 626 549
3 550 546 622
3 550 622 627
3 551 624 548
3 551 552 624
3 552 628 624
3 628 625 624
3 552 629 628
3 553 629 552
3 626 554 549
3 630 554 626
3 631 628 629
3 631 629 553
3 555 631 553
3 632 631 555
3 555 556 632
3 632 556 633
3 634 557 558
3 635 634 558
3 554 635 558
3 630 635 554
3 636 633 556
3 636 556 559
3 559 560 636
3 636 560 637
3 634 561 557
3 635 638 634
3 638 561 634
3 638 562 561
3 562 639 563
3 638 639 562
3 563 640 564
3 639 640 563
3 564 641 566
3 640 641 564
3 567 566 641
3 567 641 642
3 568 637 560
3 568 643 637
3 642 644 567
3 567 644 569
3 569 645 571
3 644 645 569
3 572 571 645
3 572 645 646
3 647 643 568
3 647 568 573
3 573 575 647
3 647 575 648
3 646 649 572
3 572 649 576
3 577 576 649
3 577 649 650
3 578 652 651
3 648 578 651
3 575 578 648
3 652 653 651
3 650 654 577
3 577 654 579
3 580 579 654
3 580 654 655
3 581 652 578
3 581 582 652
3 582 653 652
3 582 656 653
3 655 657 580
3 580 657 583
3 584 583 657
3 584 657 658
3 585 660 659
3 656 585 659
3 582 585 656
3 660 661 659
3 658 662 584
3 584 662 586
3 587 586 662
3 587 662 663
3 588 664 660
3 588 660 585
3 661 660 665
3 665 660 664
3 663 666 587
3 587 666 589
3 591 589 666
3 591 666 667
3 592 668 664
3 592 664 588
3 665 664 669
3 669 664 668
3 667 670 591
3 591 670 593
3 670 672 671
3 594 670 671
3 593 670 594
3 671 595 594
3 596 673 668
3 596 668 592
3 669 668 674
3 674 668 673
3 672 675 671
3 671 675 595
3 675 597 595
3 675 676 597
3 598 597 676
3 598 676 677
3 679 678 673
3 596 679 673
3 599 679 596
3 673 678 674
3 677 680 598
3 598 680 600
3 682 681 601
3 600 682 601
3 680 682 600
3 684 683 681
3 684 681 682
3 684 679 683
3 679 603 683
3 679 599 603
3 681 604 601
3 604 681 605
3 605 681 683
3 605 683 603
3 686 685 608
3 608 685 607
3 687 608 609
3 687 686 608
3 688 609 610
3 688 687 609
3 689 610 611
3 689 688 610
3 690 611 612
3 690 689 611
3 691 612 613
3 691 690 612
3 692 613 614
3 692 691 613
3 693 614 615
3 693 692 614
3 695 694 616
3 694 615 616
3 694 693 615
3 695 696 694
3 685 617 607
3 697 617 685
3 618 695 616
3 698 696 695
3 618 698 695
3 619 698 618
3 619 621 698
3 698 621 699
3 697 622 617
3 700 622 697
3 701 699 621
3 701 621 623
3 623 625 701
3 701 625 702
3 704 703 627
3 627 703 626
3 627 622 700
3 627 700 704
3 628 702 625
3 628 705 702
3 703 630 626
3 706 630 703
3 707 705 628
3 707 628 631
3 709 707 708
3 707 632 708
3 707 631 632
3 633 708 632
3 706 635 630
3 710 635 706
3 711 709 708
3 711 708 633
3 636 711 633
3 712 711 636
3 636 637 712
3 712 637 713
3 710 714 635
3 635 714 638
3 638 715 639
3 714 715 638
3 639 716 640
3 715 716 639
3 640 717 641
3 716 717 640
3 719 718 642
3 641 719 642
3 717 719 641
3 720 718 719
3 643 722 721
3 713 643 721
3 637 643 713
3 722 723 721
3 718 644 642
3 720 724 718
3 724 644 718
3 724 645 644
3 646 645 724
3 646 724 725
3 647 722 643
3 647 648 722
3 648 723 722
3 648 726 723
3 725 727 646
3 646 727 649
3 650 649 727
3 650 727 728
3 729 726 648
3 729 648 651
3 651 653 729
3 729 653 730
3 728 731 650
3 650 731 654
3 655 654 731
3 655 731 732
3 656 734 733
3 730 656 733
3 653 656 730
3 734 735 733
3 732 736 655
3 655 736 657
3 658 657 736
3 658 736 737
3 659 734 656
3 659 661 734
3 661 735 734
3 661 738 735
3 737 739 658
3 658 739 662
3 663 662 739
3 663 739 740
3 665 738 661
3 665 741 738
3 740 742 663
3 663 742 666
3 667 666 742
3 667 742 743
3 669 741 665
3 669 744 741
3 743 745 667
3 667 745 670
3 672 670 745
3 672 745 746
3 749 748 747
3 748 744 747
3 744 674 747
3 744 669 674
3 746 750 672
3 672 750 675
3 675 751 676
3 750 751 675
3 677 676 751
3 677 751 752
3 755 754 753
3 753 754 749
3 753 749 747
3 679 753 747
3 678 679 747
3 678 747 674
3 752 756 677
3 677 756 680
3 680 757 682
3 756 757 680
3 753 684 755
3 684 757 755
3 684 682 757
3 684 753 679
3 758 685 686
3 758 686 759
3 686 760 759
3 686 687 760
3 761 687 688
3 761 760 687
3 762 688 689
3 762 761 688
3 763 689 690
3 763 762 689
3 764 690 691
3 764 763 690
3 765 691 692
3 765 764 691
3 766 692 693
3 766 765 692
3 767 693 694
3 767 766 693
3 694 696 767
3 767 696 768
3 770 769 758
3 769 685 758
3 769 697 685
3 770 758 759
3 771 768 696
3 771 696 698
3 698 699 771
3 771 699 772
3 775 774 773
3 769 775 773
3 700 769 773
3 697 769 700
3 776 772 699
3 776 699 701
3 701 702 776
3 776 702 777
3 773 774 704
3 774 703 704
3 774 778 703
3 773 704 700
3 705 777 702
3 705 779 777
3 778 706 703
3 780 706 778
3 781 779 705
3 781 705 707
3 707 709 781
3 781 709 782
3 780 710 706
3 783 710 780
3 784 782 709
3 784 709 711
3 785 711 712
3 785 784 711
3 712 713 785
3 785 713 786
3 783 787 710
3 710 787 714
3 714 788 715
3 787 788 714
3 715 789 716
3 788 789 715
3 716 790 717
3 789 790 716
3 717 791 719
3 790 791 717
3 720 719 791
3 720 791 792
3 793 786 713
3 793 713 721
3 721 723 793
3 793 723 794
3 792 795 720
3 720 795 724
3 725 724 795
3 725 795 796
3 726 798 797
3 794 726 797
3 723 726 794
3 798 799 797
3 796 800 725
3 725 800 727
3 728 727 800
3 728 800 801
3 729 798 726
3 729 730 798
3 730 799 798
3 730 802 799
3 801 803 728
3 728 803 731
3 732 731 803
3 732 803 804
3 805 802 730
3 805 730 733
3 733 735 805
3 805 735 806
3 804 807 732
3 732 807 736
3 737 736 807
3 737 807 808
3 738 806 735
3 738 809 806
3 808 810 737
3 737 810 739
3 740 739 810
3 740 810 811
3 741 809 738
3 741 812 809
3 811 813 740
3 740 813 742
3 743 742 813
3 743 813 814
3 817 816 815
3 816 812 815
3 812 744 815
3 812 741 744
3 814 818 743
3 743 818 745
3 820 819 746
3 745 820 746
3 818 820 745
3 821 819 820
3 824 823 822
3 822 823 817
3 822 817 815
3 749 822 815
3 748 749 815
3 748 815 744
3 819 750 746
3 821 825 819
3 825 750 819
3 825 751 750
3 827 826 752
3 751 827 752
3 825 827 751
3 829 828 826
3 829 826 827
3 828 829 824
3 828 824 822
3 755 828 822
3 754 755 822
3 754 822 749
3 826 756 752
3 756 826 757
3 757 826 828
3 757 828 755
3 832 831 830
3 830 833 832
3 834 759 760
3 761 835 760
3 760 835 834
3 835 761 836
3 761 837 836
3 761 762 837
3 838 762 763
3 838 837 762
3 839 763 764
3 839 838 763
3 765 830 831
3 839 765 831
3 764 765 839
3 840 833 830
3 765 840 830
3 766 840 765
3 841 766 767
3 841 840 766
3 767 768 841
3 841 768 842
3 844 843 770
3 770 843 769
3 770 759 834
3 845 770 834
3 844 770 845
3 845 834 835
3 845 835 846
3 846 835 836
3 847 842 768
3 847 768 771
3 771 772 847
3 847 772 848
3 850 849 775
3 775 849 774
3 775 769 843
3 775 843 850
3 851 848 772
3 851 772 776
3 776 777 851
3 851 777 852
3 849 778 774
3 853 778 849
3 779 855 854
3 852 779 854
3 777 779 852
3 855 856 854
3 853 780 778
3 857 780 853
3 781 855 779
3 781 782 855
3 782 856 855
3 782 858 856
3 857 783 780
3 859 783 857
3 860 858 782
3 860 782 784
3 862 860 861
3 860 785 861
3 860 784 785
3 786 861 785
3 859 863 783
3 783 863 787
3 787 864 788
3 863 864 787
3 788 865 789
3 864 865 788
3 789 866 790
3 865 866 789
3 790 867 791
3 866 867 790
3 792 791 867
3 792 867 868
3 869 862 861
3 869 861 786
3 793 869 786
3 870 869 793
3 793 794 870
3 870 794 871
3 868 872 792
3 792 872 795
3 874 873 796
3 795 874 796
3 872 874 795
3 875 873 874
3 794 797 876
3 877 794 876
3 871 794 877
3 799 876 797
3 873 800 796
3 879 878 801
3 879 801 800
3 875 879 800
3 873 875 800
3 880 878 879
3 881 877 876
3 876 799 881
3 799 882 881
3 799 802 882
3 878 803 801
3 884 883 804
3 884 804 803
3 880 884 803
3 878 880 803
3 885 883 884
3 802 805 886
3 887 802 886
3 882 802 887
3 806 886 805
3 883 807 804
3 808 807 883
3 885 808 883
3 888 808 885
3 889 887 886
3 886 806 889
3 806 890 889
3 806 809 890
3 888 891 808
3 808 891 810
3 811 810 891
3 811 891 892
3 895 894 893
3 894 890 893
3 890 812 893
3 890 809 812
3 892 896 811
3 811 896 813
3 814 813 896
3 814 896 897
3 895 893 816
3 817 895 816
3 898 895 817
3 816 893 812
3 897 899 814
3 814 899 818
3 818 900 820
3 899 900 818
3 821 820 900
3 821 900 901
3 903 902 823
3 903 823 824
3 817 823 898
3 898 823 902
3 901 904 821
3 821 904 825
3 825 905 827
3 904 905 825
3 827 906 829
3 905 906 827
3 824 829 903
3 903 829 906
3 909 908 907
3 831 832 907
3 832 909 907
3 832 910 909
3 832 833 910
3 910 833 911
3 912 836 837
3 912 837 913
3 837 914 913
3 837 838 914
3 839 907 908
3 914 839 908
3 838 839 914
3 907 839 831
3 915 911 833
3 915 833 840
3 916 840 841
3 916 915 840
3 841 842 916
3 916 842 917
3 918 843 844
3 918 844 919
3 844 920 919
3 844 845 920
3 921 845 846
3 921 920 845
3 846 836 912
3 922 846 912
3 921 846 922
3 922 912 913
3 923 917 842
3 923 842 847
3 847 848 923
3 923 848 924
3 925 849 850
3 926 925 850
3 926 850 843
3 927 926 843
3 918 927 843
3 927 918 919
3 928 924 848
3 928 848 851
3 851 852 928
3 928 852 929
3 930 853 925
3 925 853 849
3 925 926 931
3 925 931 930
3 932 929 852
3 932 852 854
3 854 856 932
3 932 856 933
3 934 857 930
3 930 857 853
3 930 931 935
3 930 935 934
3 858 933 856
3 858 936 933
3 937 859 934
3 934 859 857
3 934 935 938
3 934 938 937
3 939 936 858
3 939 858 860
3 860 862 939
3 939 862 940
3 937 863 859
3 938 941 937
3 941 863 937
3 941 864 863
3 864 942 865
3 941 942 864
3 865 943 866
3 942 943 865
3 866 944 867
3 943 944 866
3 868 867 944
3 868 944 945
3 946 940 862
3 946 862 869
3 947 869 870
3 947 946 869
3 870 871 947
3 947 871 948
3 945 949 868
3 868 949 872
3 872 950 874
3 949 950 872
3 875 874 950
3 875 950 951
3 877 948 871
3 877 952 948
3 951 953 875
3 875 953 879
3 880 879 953
3 880 953 954
3 955 952 877
3 955 877 881
3 881 882 955
3 955 882 956
3 954 957 880
3 880 957 884
3 885 884 957
3 885 957 958
3 887 956 882
3 887 959 956
3 958 888 885
3 960 888 958
3 887 889 961
3 962 887 961
3 959 887 962
3 890 961 889
3 960 963 888
3 888 963 891
3 892 891 963
3 892 963 964
3 962 961 894
3 895 962 894
3 965 962 895
3 894 961 890
3 964 966 892
3 892 966 896
3 897 896 966
3 897 966 967
3 970 969 968
3 969 965 968
3 965 898 968
3 965 895 898
3 967 971 897
3 897 971 899
3 899 972 900
3 971 972 899
3 901 900 972
3 901 972 973
3 970 968 902
3 903 970 902
3 974 970 903
3 902 968 898
3 973 975 901
3 901 975 904
3 904 976 905
3 975 976 904
3 905 977 906
3 976 977 905
3 903 906 974
3 974 906 977
3 979 978 909
3 909 978 908
3 980 909 910
3 980 979 909
3 910 911 980
3 980 911 981
3 983 982 914
3 914 982 913
3 914 908 978
3 914 978 983
3 984 981 911
3 984 911 915
3 985 915 916
3 985 984 915
3 916 917 985
3 985 917 986
3 988 987 920
3 920 987 919
3 989 920 921
3 989 988 920
3 990 921 922
3 990 989 921
3 922 913 982
3 922 982 990
3 991 986 917
3 991 917 923
3 923 924 991
3 991 924 992
3 994 993 927
3 927 993 926
3 927 919 987
3 927 987 994
3 924 928 995
3 996 924 995
3 992 924 996
3 929 995 928
3 993 931 926
3 997 931 993
3 998 996 995
3 1000 998 999
3 999 998 932
3 998 995 932
3 995 929 932
3 933 999 932
3 997 935 931
3 1001 935 997
3 1002 1000 999
3 999 933 1002
3 933 1003 1002
3 933 936 1003
3 1005 938 1004
3 938 1001 1004
3 938 935 1001
3 1006 1005 1004
3 1007 1003 936
3 1007 936 939
3 939 940 1007
3 1007 940 1008
3 1005 941 938
3 1006 1009 1005
3 1009 941 1005
3 1009 942 941
3 942 1010 943
3 1009 1010 942
3 943 1011 944
3 1010 1011 943
3 945 944 1011
3 945 1011 1012
3 1013 1008 940
3 1013 940 946
3 1014 946 947
3 1014 1013 946
3 947 948 1014
3 1014 948 1015
3 1012 1016 945
3 945 1016 949
3 949 1017 950
3 1016 1017 949
3 951 950 1017
3 951 1017 1018
3 952 1015 948
3 952 1019 1015
3 1018 1020 951
3 951 1020 953
3 954 953 1020
3 954 1020 1021
3 952 955 1022
3 1023 952 1022
3 1019 952 1023
3 956 1022 955
3 1021 1024 954
3 954 1024 957
3 958 957 1024
3 958 1024 1025
3 1023 1022 1026
3 1023 1026 1027
3 959 1026 956
3 956 1026 1022
3 1029 960 1028
3 960 1025 1028
3 960 958 1025
3 1030 1029 1028
3 1027 1026 1031
3 1027 1031 1032
3 962 1031 959
3 959 1031 1026
3 1029 963 960
3 964 963 1029
3 1030 964 1029
3 1033 964 1030
3 1032 1031 1034
3 1032 1034 1035
3 965 1034 962
3 962 1034 1031
3 1033 1036 964
3 964 1036 966
3 1038 1037 967
3 966 1038 967
3 1036 1038 966
3 1039 1037 1038
3 1035 1034 969
3 970 1035 969
3 1040 1035 970
3 969 1034 965
3 1037 971 967
3 1039 1041 1037
3 1041 971 1037
3 1041 972 971
3 1043 1042 973
3 972 1043 973
3 1041 1043 972
3 1045 1044 1042
3 1045 1042 1043
3 1047 1046 1044
3 1047 1044 1045
3 1047 1040 1046
3 1040 974 1046
3 1040 970 974
3 1042 975 973
3 975 1042 976
3 976 1042 1044
3 976 1044 977
3 977 1044 1046
3 977 1046 974
3 1048 978 979
3 980 1049 979
3 979 1049 1048
3 981 1049 980
3 1051 1050 983
3 983 1050 982
3 983 978 1048
3 1052 983 1048
3 1051 983 1052
3 1052 1048 1049
3 1052 1049 1053
3 1053 1049 981
3 984 1053 981
3 1054 1053 984
3 1056 1054 1055
3 1054 985 1055
3 1054 984 985
3 986 1055 985
3 1057 987 988
3 1057 988 1058
3 988 1059 1058
3 988 989 1059
3 1060 989 990
3 1060 1059 989
3 990 982 1050
3 990 1050 1060
3 1061 1056 1055
3 1061 1055 986
3 991 1061 986
3 1062 1061 991
3 991 992 1062
3 1062 992 1063
3 1064 993 994
3 1065 1064 994
3 1065 994 987
3 1066 1065 987
3 1057 1066 987
3 1066 1057 1058
3 996 1063 992
3 996 1067 1063
3 1068 997 1064
3 1064 997 993
3 1064 1065 1069
3 1064 1069 1068
3 1070 1067 996
3 1070 996 998
3 998 1000 1070
3 1070 1000 1071
3 1072 1001 1068
3 1068 1001 997
3 1068 1069 1073
3 1068 1073 1072
3 1074 1071 1000
3 1074 1000 1002
3 1002 1003 1074
3 1074 1003 1075
3 1072 1004 1001
3 1006 1004 1072
3 1073 1006 1072
3 1076 1006 1073
3 1077 1075 1003
3 1077 1003 1007
3 1007 1008 1077
3 1077 1008 1078
3 1076 1079 1006
3 1006 1079 1009
3 1009 1080 1010
3 1079 1080 1009
3 1010 1081 1011
3 1080 1081 1010
3 1012 1011 1081
3 1012 1081 1082
3 1083 1078 1008
3 1083 1008 1013
3 1085 1083 1084
3 1083 1014 1084
3 1083 1013 1014
3 1015 1084 1014
3 1082 1086 1012
3 1012 1086 1016
3 1016 1087 1017
3 1086 1087 1016
3 1018 1017 1087
3 1018 1087 1088
3 1089 1085 1084
3 1084 1015 1089
3 1015 1090 1089
3 1015 1019 1090
3 1088 1091 1018
3 1018 1091 1020
3 1021 1020 1091
3 1021 1091 1092
3 1023 1090 1019
3 1023 1093 1090
3 1092 1094 1021
3 1021 1094 1024
3 1025 1024 1094
3 1025 1094 1095
3 1027 1093 1023
3 1027 1096 1093
3 1095 1097 1025
3 1025 1097 1028
3 1030 1028 1097
3 1030 1097 1098
3 1101 1100 1099
3 1100 1096 1099
3 1096 1032 1099
3 1096 1027 1032
3 1103 1033 1102
3 1033 1098 1102
3 1033 1030 1098
3 1104 1103 1102
3 1101 1099 1105
3 1101 1105 1106
3 1035 1105 1032
3 1032 1105 1099
3 1103 1036 1033
3 1104 1107 1103
3 1107 1036 1103
3 1107 1038 1036
3 1109 1108 1039
3 1038 1109 1039
3 1107 1109 1038
3 1111 1110 1108
3 1111 1108 1109
3 1113 1112 1110
3 1113 1110 1111
3 1112 1113 1106
3 1105 1112 1106
3 1114 1112 1105
3 1040 1114 1035
3 1035 1114 1105
3 1108 1041 1039
3 1041 1108 1043
3 1043 1108 1110
3 1043 1110 1045
3 1045 1110 1112
3 1045 1112 1047
3 1047 1112 1114
3 1047 1114 1040
3 1115 1050 1051
3 1115 1051 1116
3 1051 1117 1116
3 1051 1052 1117
3 1118 1052 1053
3 1118 1117 1052
3 1120 1118 1119
3 1118 1054 1119
3 1118 1053 1054
3 1056 1119 1054
3 1122 1121 1059
3 1059 1121 1058
3 1123 1059 1060
3 1123 1122 1059
3 1060 1050 1115
3 1124 1060 1115
3 1123 1060 1124
3 1124 1115 1116
3 1125 1120 1119
3 1125 1119 1056
3 1061 1125 1056
3 1126 1125 1061
3 1128 1126 1127
3 1126 1062 1127
3 1126 1061 1062
3 1063 1127 1062
3 1129 1065 1066
3 1130 1129 1066
3 1058 1130 1066
3 1121 1130 1058
3 1131 1128 1127
3 1127 1063 1131
3 1063 1132 1131
3 1063 1067 1132
3 1133 1069 1129
3 1129 1069 1065
3 1129 1130 1134
3 1129 1134 1133
3 1067 1070 1135
3 1136 1067 1135
3 1132 1067 1136
3 1071 1135 1070
3 1137 1073 1133
3 1133 1073 1069
3 1133 1134 1138
3 1133 1138 1137
3 1139 1136 1135
3 1141 1139 1140
3 1140 1139 1074
3 1139 1135 1074
3 1135 1071 1074
3 1075 1140 1074
3 1142 1076 1137
3 1137 1076 1073
3 1137 1138 1143
3 1137 1143 1142
3 1144 1141 1140
3 1146 1144 1145
3 1145 1144 1077
3 1144 1140 1077
3 1140 1075 1077
3 1078 1145 1077
3 1142 1079 1076
3 1143 1147 1142
3 1147 1079 1142
3 1147 1080 1079
3 1080 1148 1081
3 1147 1148 1080
3 1082 1081 1148
3 1082 1148 1149
3 1150 1146 1145
3 1152 1150 1151
3 1151 1150 1083
3 1150 1145 1083
3 1145 1078 1083
3 1085 1151 1083
3 1149 1153 1082
3 1082 1153 1086
3 1086 1154 1087
3 1153 1154 1086
3 1088 1087 1154
3 1088 1154 1155
3 1156 1152 1151
3 1158 1156 1157
3 1157 1156 1089
3 1156 1151 1089
3 1151 1085 1089
3 1090 1157 1089
3 1155 1159 1088
3 1088 1159 1091
3 1092 1091 1159
3 1092 1159 1160
3 1158 1157 1161
3 1158 1161 1162
3 1093 1161 1090
3 1090 1161 1157
3 1160 1163 1092
3 1092 1163 1094
3 1095 1094 1163
3 1095 1163 1164
3 1162 1161 1165
3 1162 1165 1166
3 1096 1165 1093
3 1093 1165 1161
3 1164 1167 1095
3 1095 1167 1097
3 1098 1097 1167
3 1098 1167 1168
3 1166 1165 1100
3 1101 1166 1100
3 1169 1166 1101
3 1100 1165 1096
3 1168 1170 1098
3 1098 1170 1102
3 1172 1171 1104
3 1102 1172 1104
3 1170 1172 1102
3 1173 1171 1172
3 1106 1169 1101
3 1106 1174 1169
3 1171 1107 1104
3 1173 1175 1171
3 1175 1107 1171
3 1175 1109 1107
3 1109 1176 1111
3 1175 1176 1109
3 1111 1177 1113
3 1176 1177 1111
3 1106 1113 1174
3 1174 1113 1177
3 1178 1116 1117
3 1118 1179 1117
3 1117 1179 1178
3 1120 1179 1118
3 1180 1121 1122
3 1180 1122 1181
3 1122 1182 1181
3 1122 1123 1182
3 1183 1123 1124
3 1183 1182 1123
3 1183 1124 1116
3 1184 1183 1116
3 1178 1184 1116
3 1183 1184 1185
3 1186 1178 1179
3 1184 1178 1186
3 1125 1187 1120
3 1187 1179 1120
3 1187 1186 1179
3 1126 1188 1125
3 1125 1188 1187
3 1128 1188 1126
3 1190 1189 1180
3 1189 1121 1180
3 1189 1130 1121
3 1190 1180 1181
3 1191 1185 1184
3 1191 1184 1186
3 1191 1186 1192
3 1192 1186 1187
3 1192 1187 1193
3 1195 1194 1193
3 1187 1195 1193
3 1188 1195 1187
3 1131 1196 1128
3 1196 1188 1128
3 1196 1195 1188
3 1132 1196 1131
3 1189 1134 1130
3 1197 1134 1189
3 1198 1194 1195
3 1200 1199 1198
3 1195 1200 1198
3 1196 1200 1195
3 1136 1200 1132
3 1132 1200 1196
3 1202 1138 1201
3 1138 1197 1201
3 1138 1134 1197
3 1203 1202 1201
3 1204 1199 1200
3 1204 1200 1136
3 1139 1204 1136
3 1205 1204 1139
3 1139 1141 1205
3 1205 1141 1206
3 1207 1143 1202
3 1202 1143 1138
3 1202 1203 1208
3 1202 1208 1207
3 1141 1144 1209
3 1210 1141 1209
3 1206 1141 1210
3 1146 1209 1144
3 1207 1147 1143
3 1208 1211 1207
3 1211 1147 1207
3 1211 1148 1147
3 1149 1148 1211
3 1149 1211 1212
3 1213 1210 1209
3 1215 1213 1214
3 1214 1213 1150
3 1213 1209 1150
3 1209 1146 1150
3 1152 1214 1150
3 1212 1216 1149
3 1149 1216 1153
3 1153 1217 1154
3 1216 1217 1153
3 1155 1154 1217
3 1155 1217 1218
3 1219 1215 1214
3 1221 1219 1220
3 1220 1219 1156
3 1219 1214 1156
3 1214 1152 1156
3 1158 1220 1156
3 1218 1222 1155
3 1155 1222 1159
3 1160 1159 1222
3 1160 1222 1223
3 1221 1220 1224
3 1221 1224 1225
3 1162 1224 1158
3 1158 1224 1220
3 1223 1226 1160
3 1160 1226 1163
3 1228 1227 1164
3 1163 1228 1164
3 1226 1228 1163
3 1229 1227 1228
3 1225 1224 1230
3 1225 1230 1231
3 1166 1230 1162
3 1162 1230 1224
3 1227 1167 1164
3 1233 1232 1168
3 1233 1168 1167
3 1229 1233 1167
3 1227 1229 1167
3 1234 1232 1233
3 1235 1231 1230
3 1230 1166 1235
3 1166 1236 1235
3 1166 1169 1236
3 1232 1170 1168
3 1234 1237 1232
3 1237 1170 1232
3 1237 1172 1170
3 1239 1238 1173
3 1172 1239 1173
3 1237 1239 1172
3 1240 1238 1239
3 1174 1236 1169
3 1174 1241 1236
3 1238 1175 1173
3 1240 1242 1238
3 1242 1175 1238
3 1242 1176 1175
3 1176 1243 1177
3 1242 1243 1176
3 1174 1177 1241
3 1241 1177 1243
3 1244 1181 1182
3 1183 1245 1182
3 1182 1245 1244
3 1185 1245 1183
3 1246 1189 1190
3 1181 1244 1190
3 1244 1246 1190
3 1244 1247 1246
3 1248 1244 1245
3 1247 1244 1248
3 1191 1249 1185
3 1249 1245 1185
3 1249 1248 1245
3 1192 1250 1191
3 1191 1250 1249
3 1193 1251 1192
3 1192 1251 1250
3 1194 1251 1193
3 1252 1197 1246
3 1246 1197 1189
3 1247 1254 1253
3 1252 1247 1253
3 1246 1247 1252
3 1256 1255 1254
3 1247 1256 1254
3 1248 1256 1247
3 1257 1248 1249
3 1256 1248 1257
3 1258 1249 1250
3 1257 1249 1258
3 1259 1250 1251
3 1258 1250 1259
3 1198 1260 1194
3 1260 1251 1194
3 1260 1259 1251
3 1199 1260 1198
3 1252 1201 1197
3 1203 1201 1252
3 1253 1203 1252
3 1261 1203 1253
3 1262 1255 1256
3 1262 1256 1257
3 1262 1257 1263
3 1263 1257 1258
3 1263 1258 1264
3 1264 1258 1259
3 1264 1259 1265
3 1265 1259 1260
3 1265 1260 1266
3 1266 1260 1199
3 1204 1266 1199
3 1267 1266 1204
3 1269 1267 1268
3 1267 1205 1268
3 1267 1204 1205
3 1206 1268 1205
3 1261 1208 1203
3 1270 1208 1261
3 1269 1268 1271
3 1269 1271 1272
3 1210 1271 1206
3 1206 1271 1268
3 1270 1273 1208
3 1208 1273 1211
3 1212 1211 1273
3 1212 1273 1274
3 1275 1272 1271
3 1277 1275 1276
3 1276 1275 1213
3 1275 1271 1213
3 1271 1210 1213
3 1215 1276 1213
3 1274 1278 1212
3 1212 1278 1216
3 1216 1279 1217
3 1278 1279 1216
3 1218 1217 1279
3 1218 1279 1280
3 1277 1276 1281
3 1277 1281 1282
3 1219 1283 1215
3 1283 1276 1215
3 1283 1281 1276
3 1221 1283 1219
3 1280 1284 1218
3 1218 1284 1222
3 1286 1285 1223
3 1222 1286 1223
3 1284 1286 1222
3 1287 1285 1286
3 1288 1282 1281
3 1288 1281 1283
3 1288 1283 1289
3 1283 1221 1289
3 1221 1290 1289
3 1221 1225 1290
3 1285 1226 1223
3 1287 1291 1285
3 1291 1226 1285
3 1291 1228 1226
3 1229 1228 1291
3 1229 1291 1292
3 1231 1290 1225
3 1231 1293 1290
3 1292 1294 1229
3 1229 1294 1233
3 1296 1295 1234
3 1233 1296 1234
3 1294 1296 1233
3 1297 1295 1296
3 1231 1235 1298
3 1299 1231 1298
3 1293 1231 1299
3 1236 1298 1235
3 1295 1237 1234
3 1297 1300 1295
3 1300 1237 1295
3 1300 1239 1237
3 1302 1301 1240
3 1239 1302 1240
3 1300 1302 1239
3 1301 1302 1299
3 1298 1301 1299
3 1303 1301 1298
3 1241 1303 1236
3 1236 1303 1298
3 1301 1242 1240
3 1242 1301 1243
3 1243 1301 1303
3 1243 1303 1241
3 1304 1253 1254
3 1255 1304 1254
3 1305 1261 1304
3 1304 1261 1253
3 1305 1304 1255
3 1306 1305 1255
3 1262 1306 1255
3 1307 1305 1306
3 1308 1262 1263
3 1308 1306 1262
3 1310 1308 1309
3 1308 1264 1309
3 1308 1263 1264
3 1265 1311 1264
3 1264 1311 1309
3 1266 1312 1265
3 1265 1312 1311
3 1267 1313 1266
3 1266 1313 1312
3 1269 1313 1267
3 1314 1270 1305
3 1305 1270 1261
3 1305 1307 1315
3 1305 1315 1314
3 1316 1310 1309
3 1316 1309 1311
3 1316 1311 1317
3 1317 1311 1312
3 1317 1312 1318
3 1320 1319 1318
3 1312 1320 1318
3 1313 1320 1312
3 1272 1320 1269
3 1269 1320 1313
3 1314 1273 1270
3 1274 1273 1314
3 1315 1274 1314
3 1321 1274 1315
3 1322 1319 1320
3 1324 1322 1323
3 1323 1322 1275
3 1322 1320 1275
3 1320 1272 1275
3 1277 1323 1275
3 1321 1325 1274
3 1274 1325 1278
3 1278 1326 1279
3 1325 1326 1278
3 1328 1327 1280
3 1279 1328 1280
3 1326 1328 1279
3 1329 1327 1328
3 1324 1323 1330
3 1324 1330 1331
3 1282 1330 1277
3 1277 1330 1323
3 1327 1284 1280
3 1329 1332 1327
3 1332 1284 1327
3 1332 1286 1284
3 1287 1286 1332
3 1287 1332 1333
3 1334 1331 1330
3 1336 1334 1335
3 1335 1334 1288
3 1334 1330 1288
3 1330 1282 1288
3 1289 1337 1288
3 1288 1337 1335
3 1290 1337 1289
3 1333 1338 1287
3 1287 1338 1291
3 1340 1339 1292
3 1291 1340 1292
3 1338 1340 1291
3 1341 1339 1340
3 1336 1335 1342
3 1336 1342 1343
3 1344 1335 1337
3 1342 1335 1344
3 1293 1344 1290
3 1290 1344 1337
3 1339 1294 1292
3 1341 1345 1339
3 1345 1294 1339
3 1345 1296 1294
3 1342 1346 1297
3 1345 1342 1297
3 1296 1345 1297
3 1343 1342 1345
3 1347 1342 1344
3 1346 1342 1347
3 1299 1347 1293
3 1293 1347 1344
3 1346 1300 1297
3 1300 1346 1302
3 1302 1346 1347
3 1302 1347 1299
3 1348 1307 1306
3 1308 1349 1306
3 1306 1349 1348
3 1310 1349 1308
3 1351 1350 1348
3 1350 1307 1348
3 1350 1315 1307
3 1351 1348 1349
3 1351 1349 1352
3 1354 1352 1353
3 1353 1352 1316
3 1352 1349 1316
3 1349 1310 1316
3 1317 1355 1316
3 1316 1355 1353
3 1318 1356 1317
3 1317 1356 1355
3 1319 1356 1318
3 1350 1321 1315
3 1357 1321 1350
3 1358 1354 1353
3 1358 1353 1355
3 1358 1355 1359
3 1359 1355 1356
3 1359 1356 1360
3 1362 1360 1361
3 1361 1360 1322
3 1360 1356 1322
3 1356 1319 1322
3 1324 1361 1322
3 1357 1363 1321
3 1321 1363 1325
3 1325 1364 1326
3 1363 1364 1325
3 1326 1365 1328
3 1364 1365 1326
3 1329 1328 1365
3 1329 1365 1366
3 1367 1362 1361
3 1361 1324 1367
3 1324 1368 1367
3 1324 1331 1368
3 1366 1369 1329
3 1329 1369 1332
3 1371 1370 1333
3 1332 1371 1333
3 1369 1371 1332
3 1372 1370 1371
3 1331 1334 1373
3 1374 1331 1373
3 1368 1331 1374
3 1336 1373 1334
3 1370 1338 1333
3 1372 1375 1370
3 1375 1338 1370
3 1375 1340 1338
3 1373 1376 1341
3 1375 1373 1341
3 1340 1375 1341
3 1374 1373 1375
3 1343 1376 1336
3 1336 1376 1373
3 1376 1345 1341
3 1345 1376 1343
3 1377 1350 1351
3 1352 1378 1351
3 1351 1378 1377
3 1354 1378 1352
3 1379 1357 1377
3 1377 1357 1350
3 1380 1377 1378
3 1379 1377 1380
3 1358 1381 1354
3 1381 1378 1354
3 1381 1380 1378
3 1359 1382 1358
3 1358 1382 1381
3 1360 1383 1359
3 1359 1383 1382
3 1362 1383 1360
3 1379 1363 1357
3 1363 1379 1364
3 1364 1379 1380
3 1364 1380 1365
3 1365 1380 1381
3 1365 1381 1366
3 1381 1384 1366
3 1381 1382 1384
3 1385 1382 1383
3 1384 1382 1385
3 1367 1386 1362
3 1386 1383 1362
3 1386 1385 1383
3 1368 1386 1367
3 1384 1369 1366
3 1369 1384 1371
3 1371 1384 1385
3 1371 1385 1372
3 1385 1387 1372
3 1385 1386 1387
3 1374 1387 1368
3 1368 1387 1386
3 1387 1375 1372
3 1375 1387 1374
