ply
format ascii 1.0
element vertex 1292
property float x
property float y
property float z
element face 2588
property list uchar int vertex_indices
end_header
-1.70000 74.49999 7.50000
-2.20000 74.49999 7.00000
-2.20000 74.99999 7.50000
-2.20000 74.49999 8.00000
-1.70000 73.49999 6.50000
-2.20000 73.49999 6.00000
-2.20000 73.99999 6.50000
-1.70000 73.49999 7.50000
-2.20000 73.99999 8.50000
-1.70000 73.49999 8.50000
-2.20000 73.49999 9.00000
-1.70000 72.49999 6.50000
-2.20000 72.49999 6.00000
-1.70000 72.49999 7.50000
-1.70000 72.49999 8.50000
-2.20000 72.49999 9.00000
-1.70000 71.49999 1.50000
-2.20000 71.49999 1.00000
-2.20000 71.99999 1.50000
-2.20000 71.49999 2.00000
-1.70000 71.49999 6.50000
-2.20000 71.49999 6.00000
-1.70000 71.49999 7.50000
-1.70000 71.49999 8.50000
-2.20000 71.49999 9.00000
-2.20000 70.99999 1.50000
-2.20000 70.99999 6.50000
-1.70000 70.49999 7.50000
-2.20000 70.49999 7.00000
-1.70000 70.49999 8.50000
-2.20000 70.49999 9.00000
-2.20000 69.99999 7.50000
-2.20000 69.99999 8.50000
-2.70000 75.49999 6.50000
-3.20000 75.49999 6.00000
-3.20000 75.99999 6.50000
-3.20000 75.99999 7.50000
-2.70000 75.49999 7.50000
-3.20000 75.99999 8.50000
-2.70000 75.49999 8.50000
-3.20000 75.49999 9.00000
-2.70000 74.49999 4.50000
-3.20000 74.49999 4.00000
-3.20000 74.99999 4.50000
-3.20000 74.99999 5.50000
-2.70000 74.49999 5.50000
-2.70000 74.49999 6.50000
-2.70000 74.49999 8.50000
-3.20000 74.99999 9.50000
-2.70000 74.49999 9.50000
-3.20000 74.49999 10.00000
-2.70000 73.49999 2.50000
-3.20000 73.49999 2.00000
-3.20000 73.99999 2.50000
-3.20000 73.99999 3.50000
-2.70000 73.49999 3.50000
-2.70000 73.49999 4.50000
-2.70000 73.49999 5.50000
-2.70000 73.49999 9.50000
-3.20000 73.49999 10.00000
-2.70000 73.49999 13.50000
-3.20000 73.49999 13.00000
-3.20000 73.99999 13.50000
-3.20000 73.99999 14.50000
-2.70000 73.49999 14.50000
-3.20000 73.99999 15.50000
-2.70000 73.49999 15.50000
-3.20000 73.49999 16.00000
-2.70000 72.49999 0.50000
-3.20000 72.49999 0.00000
-3.20000 72.99999 0.50000
-3.20000 72.99999 1.50000
-2.70000 72.49999 1.50000
-2.70000 72.49999 2.50000
-2.70000 72.49999 3.50000
-2.70000 72.49999 4.50000
-2.70000 72.49999 5.50000
-2.70000 72.49999 9.50000
-3.20000 72.49999 10.00000
-2.70000 72.49999 13.50000
-3.20000 72.49999 13.00000
-2.70000 72.49999 14.50000
-2.70000 72.49999 15.50000
-3.20000 72.49999 16.00000
-3.20000 71.99999 0.50000
-3.20000 71.49999 1.00000
-2.70000 71.49999 2.50000
-2.70000 71.49999 3.50000
-2.70000 71.49999 4.50000
-2.70000 71.49999 5.50000
-2.70000 71.49999 9.50000
-3.20000 71.49999 10.00000
-2.70000 71.49999 12.50000
-3.20000 71.49999 12.00000
-3.20000 71.99999 12.50000
-2.70000 71.49999 13.50000
-2.70000 71.49999 14.50000
-3.20000 71.49999 15.00000
-3.20000 71.99999 15.50000
-3.20000 70.99999 1.50000
-3.20000 70.99999 2.50000
-3.20000 70.99999 3.50000
-3.20000 70.99999 4.50000
-3.20000 70.99999 5.50000
-2.70000 70.49999 6.50000
-3.20000 70.49999 6.00000
-2.70000 70.49999 9.50000
-3.20000 70.49999 10.00000
-2.70000 70.49999 12.50000
-3.20000 70.49999 12.00000
-2.70000 70.49999 13.50000
-2.70000 70.49999 14.50000
-3.20000 70.49999 15.00000
-3.20000 69.99999 6.50000
-3.20000 69.99999 7.50000
-3.20000 69.99999 8.50000
-3.20000 69.99999 9.50000
-3.20000 69.99999 12.50000
-3.20000 69.99999 13.50000
-3.20000 69.99999 14.50000
-3.70000 76.49999 7.50000
-4.20000 76.49999 7.00000
-4.20000 76.99999 7.50000
-4.20000 76.49999 8.00000
-3.70000 75.49999 4.50000
-4.20000 75.49999 4.00000
-4.20000 75.99999 4.50000
-4.20000 75.99999 5.50000
-3.70000 75.49999 5.50000
-4.20000 75.99999 6.50000
-4.20000 75.99999 8.50000
-4.20000 75.99999 9.50000
-3.70000 75.49999 9.50000
-4.20000 75.49999 10.00000
-3.70000 75.49999 13.50000
-4.20000 75.49999 13.00000
-4.20000 75.99999 13.50000
-4.20000 75.49999 14.00000
-3.70000 74.49999 3.50000
-4.20000 74.49999 3.00000
-4.20000 74.99999 3.50000
-4.20000 74.49999 10.00000
-3.70000 74.49999 12.50000
-4.20000 74.49999 12.00000
-4.20000 74.99999 12.50000
-3.70000 74.49999 13.50000
-4.20000 74.99999 14.50000
-3.70000 74.49999 14.50000
-4.20000 74.99999 15.50000
-3.70000 74.49999 15.50000
-4.20000 74.49999 16.00000
-3.70000 73.49999 1.50000
-4.20000 73.49999 1.00000
-4.20000 73.99999 1.50000
-4.20000 73.99999 2.50000
-4.20000 73.99999 10.50000
-3.70000 73.49999 10.50000
-4.20000 73.99999 11.50000
-3.70000 73.49999 11.50000
-3.70000 73.49999 12.50000
-4.20000 73.99999 16.50000
-3.70000 73.49999 16.50000
-4.20000 73.49999 17.00000
-3.70000 72.49999 -0.50000
-4.20000 72.49999 -1.00000
-4.20000 72.99999 -0.50000
-4.20000 72.99999 0.50000
-3.70000 72.49999 10.50000
-3.70000 72.49999 11.50000
-3.70000 72.49999 12.50000
-3.70000 72.49999 16.50000
-4.20000 72.49999 17.00000
-4.20000 71.99999 -0.50000
-3.70000 71.49999 0.50000
-4.20000 71.49999 0.00000
-3.70000 71.49999 10.50000
-3.70000 71.49999 11.50000
-3.70000 71.49999 15.50000
-4.20000 71.49999 16.00000
-4.20000 71.99999 16.50000
-4.20000 70.99999 0.50000
-4.20000 70.99999 1.50000
-4.20000 70.99999 2.50000
-4.20000 70.99999 3.50000
-4.20000 70.99999 4.50000
-4.20000 70.99999 5.50000
-3.70000 70.49999 6.50000
-4.20000 70.99999 6.50000
-4.20000 70.49999 7.00000
-3.70000 70.49999 10.50000
-3.70000 70.49999 11.50000
-3.70000 70.49999 15.50000
-4.20000 70.49999 16.00000
-4.20000 69.99999 7.50000
-4.20000 69.99999 8.50000
-4.20000 69.99999 9.50000
-4.20000 69.99999 10.50000
-4.20000 69.99999 11.50000
-4.20000 69.99999 12.50000
-4.20000 69.99999 13.50000
-4.20000 69.99999 14.50000
-4.20000 69.99999 15.50000
-4.70000 76.49999 6.50000
-5.20000 76.49999 6.00000
-5.20000 76.99999 6.50000
-5.20000 76.99999 7.50000
-5.20000 76.99999 8.50000
-4.70000 76.49999 8.50000
-5.20000 76.99999 9.50000
-4.70000 76.49999 9.50000
-5.20000 76.99999 10.50000
-4.70000 76.49999 10.50000
-5.20000 76.99999 11.50000
-4.70000 76.49999 11.50000
-5.20000 76.99999 12.50000
-4.70000 76.49999 12.50000
-5.20000 76.99999 13.50000
-4.70000 76.49999 13.50000
-5.20000 76.49999 14.00000
-4.70000 75.49999 3.50000
-5.20000 75.49999 3.00000
-5.20000 75.99999 3.50000
-5.20000 75.99999 4.50000
-5.20000 75.99999 5.50000
-4.70000 75.49999 10.50000
-4.70000 75.49999 11.50000
-4.70000 75.49999 12.50000
-5.20000 75.99999 14.50000
-4.70000 75.49999 14.50000
-5.20000 75.49999 15.00000
-4.70000 74.49999 2.50000
-5.20000 74.49999 2.00000
-5.20000 74.99999 2.50000
-4.70000 74.49999 10.50000
-4.70000 74.49999 11.50000
-5.20000 74.99999 15.50000
-5.20000 74.99999 16.50000
-4.70000 74.49999 16.50000
-5.20000 74.49999 17.00000
-4.70000 73.49999 0.50000
-5.20000 73.49999 0.00000
-5.20000 73.99999 0.50000
-5.20000 73.99999 1.50000
-5.20000 73.99999 17.50000
-4.70000 73.49999 17.50000
-5.20000 73.49999 18.00000
-4.70000 72.49999 -1.50000
-5.20000 72.49999 -2.00000
-5.20000 72.99999 -1.50000
-5.20000 72.99999 -0.50000
-4.70000 72.49999 17.50000
-5.20000 72.49999 18.00000
-5.20000 71.99999 -1.50000
-5.20000 71.99999 -0.50000
-5.20000 71.49999 0.00000
-4.70000 71.49999 16.50000
-5.20000 71.49999 17.00000
-5.20000 71.99999 17.50000
-5.20000 70.99999 0.50000
-5.20000 70.99999 1.50000
-5.20000 70.99999 2.50000
-5.20000 70.99999 3.50000
-5.20000 70.99999 4.50000
-5.20000 70.99999 5.50000
-5.20000 70.99999 6.50000
-4.70000 70.49999 7.50000
-5.20000 70.99999 7.50000
-5.20000 70.49999 8.00000
-4.70000 70.49999 16.50000
-5.20000 70.49999 17.00000
-5.20000 69.99999 8.50000
-5.20000 69.99999 9.50000
-5.20000 69.99999 10.50000
-5.20000 69.99999 11.50000
-5.20000 69.99999 12.50000
-5.20000 69.99999 13.50000
-5.20000 69.99999 14.50000
-5.20000 69.99999 15.50000
-5.20000 69.99999 16.50000
-5.70000 77.49999 8.50000
-6.20000 77.49999 8.00000
-6.20000 77.99999 8.50000
-6.20000 77.99999 9.50000
-5.70000 77.49999 9.50000
-6.20000 77.99999 10.50000
-5.70000 77.49999 10.50000
-6.20000 77.99999 11.50000
-5.70000 77.49999 11.50000
-6.20000 77.49999 12.00000
-5.70000 76.49999 5.50000
-6.20000 76.49999 5.00000
-6.20000 76.99999 5.50000
-6.20000 76.99999 6.50000
-6.20000 76.99999 7.50000
-6.20000 76.99999 12.50000
-6.20000 76.99999 13.50000
-6.20000 76.99999 14.50000
-5.70000 76.49999 14.50000
-6.20000 76.49999 15.00000
-6.20000 75.49999 3.00000
-6.20000 75.99999 3.50000
-6.20000 75.99999 4.50000
-6.20000 75.99999 15.50000
-5.70000 75.49999 15.50000
-6.20000 75.49999 16.00000
-5.70000 74.49999 1.50000
-6.20000 74.49999 1.00000
-6.20000 74.99999 1.50000
-6.20000 74.99999 2.50000
-6.20000 74.99999 16.50000
-6.20000 74.99999 17.50000
-5.70000 74.49999 17.50000
-6.20000 74.99999 18.50000
-5.70000 74.49999 18.50000
-6.20000 74.49999 19.00000
-6.20000 73.49999 0.00000
-6.20000 73.99999 0.50000
-6.20000 73.99999 18.50000
-6.20000 73.49999 18.00000
-5.70000 72.49999 -2.50000
-6.20000 72.49999 -3.00000
-6.20000 72.99999 -2.50000
-6.20000 72.99999 -1.50000
-6.20000 72.99999 -0.50000
-5.70000 72.49999 6.50000
-6.20000 72.99999 6.50000
-6.20000 72.49999 6.00000
-5.70000 72.49999 7.50000
-6.20000 72.99999 7.50000
-6.20000 72.49999 8.00000
-5.70000 72.49999 13.50000
-6.20000 72.99999 13.50000
-6.20000 72.49999 13.00000
-6.20000 72.49999 14.00000
-6.20000 72.49999 18.00000
-6.20000 71.99999 -2.50000
-5.70000 71.49999 -1.50000
-6.20000 71.49999 -2.00000
-5.70000 71.49999 -0.50000
-5.70000 71.49999 6.50000
-6.20000 71.49999 6.00000
-5.70000 71.49999 7.50000
-6.20000 71.49999 8.00000
-5.70000 71.49999 13.50000
-6.20000 71.49999 13.00000
-6.20000 71.49999 14.00000
-6.20000 71.99999 17.50000
-6.20000 71.49999 17.00000
-6.20000 70.99999 -1.50000
-6.20000 70.99999 -0.50000
-5.70000 70.49999 0.50000
-6.20000 70.49999 0.00000
-5.70000 70.49999 1.50000
-5.70000 70.49999 2.50000
-6.20000 70.49999 3.00000
-6.20000 70.99999 3.50000
-6.20000 70.99999 4.50000
-6.20000 70.99999 5.50000
-5.70000 70.49999 8.50000
-6.20000 70.99999 8.50000
-6.20000 70.49999 9.00000
-5.70000 70.49999 10.50000
-6.20000 70.99999 10.50000
-6.20000 70.49999 10.00000
-5.70000 70.49999 11.50000
-6.20000 70.99999 11.50000
-5.70000 70.49999 12.50000
-6.20000 70.99999 12.50000
-5.70000 70.49999 13.50000
-6.20000 70.99999 14.50000
-5.70000 70.49999 14.50000
-5.70000 70.49999 15.50000
-6.20000 70.99999 15.50000
-5.70000 70.49999 16.50000
-6.20000 70.99999 16.50000
-6.20000 69.99999 0.50000
-6.20000 69.99999 1.50000
-6.20000 69.99999 2.50000
-6.20000 69.99999 9.50000
-6.70000 78.49999 9.50000
-7.20000 78.49999 9.00000
-7.20000 78.99999 9.50000
-7.20000 78.99999 10.50000
-6.70000 78.49999 10.50000
-7.20000 78.49999 11.00000
-6.70000 77.49999 7.50000
-7.20000 77.49999 7.00000
-7.20000 77.99999 7.50000
-7.20000 77.99999 8.50000
-7.20000 77.99999 11.50000
-7.20000 77.99999 12.50000
-6.70000 77.49999 12.50000
-7.20000 77.49999 13.00000
-6.70000 76.49999 4.50000
-7.20000 76.49999 4.00000
-7.20000 76.99999 4.50000
-7.20000 76.99999 5.50000
-7.20000 76.99999 6.50000
-7.20000 76.99999 13.50000
-7.20000 76.99999 14.50000
-7.20000 76.99999 15.50000
-6.70000 76.49999 15.50000
-7.20000 76.49999 16.00000
-6.70000 75.49999 2.50000
-7.20000 75.49999 2.00000
-7.20000 75.99999 2.50000
-7.20000 75.99999 3.50000
-7.20000 75.99999 16.50000
-6.70000 75.49999 16.50000
-7.20000 75.99999 17.50000
-6.70000 75.49999 17.50000
-7.20000 75.49999 18.00000
-7.20000 74.49999 1.00000
-7.20000 74.99999 1.50000
-7.20000 74.99999 18.50000
-7.20000 74.49999 19.00000
-6.70000 73.49999 -1.50000
-7.20000 73.49999 -2.00000
-7.20000 73.99999 -1.50000
-7.20000 73.99999 -0.50000
-6.70000 73.49999 -0.50000
-7.20000 73.99999 0.50000
-6.70000 73.49999 13.50000
-7.20000 73.99999 13.50000
-7.20000 73.49999 13.00000
-7.20000 73.49999 14.00000
-7.20000 73.99999 18.50000
-7.20000 73.49999 18.00000
-7.20000 72.49999 -3.00000
-7.20000 72.99999 -2.50000
-7.20000 72.99999 6.50000
-7.20000 72.49999 6.00000
-7.20000 72.99999 7.50000
-6.70000 72.49999 8.50000
-7.20000 72.99999 8.50000
-7.20000 72.49999 9.00000
-6.70000 72.49999 12.50000
-7.20000 72.99999 12.50000
-7.20000 72.49999 12.00000
-7.20000 72.49999 14.00000
-7.20000 72.49999 18.00000
-7.20000 71.99999 -2.50000
-7.20000 71.49999 -2.00000
-6.70000 71.49999 3.50000
-7.20000 71.99999 3.50000
-7.20000 71.49999 3.00000
-6.70000 71.49999 4.50000
-7.20000 71.99999 4.50000
-6.70000 71.49999 5.50000
-7.20000 71.99999 5.50000
-6.70000 71.49999 8.50000
-7.20000 71.49999 9.00000
-6.70000 71.49999 12.50000
-7.20000 71.49999 12.00000
-7.20000 71.49999 14.00000
-7.20000 71.99999 17.50000
-7.20000 71.49999 17.00000
-7.20000 70.99999 -1.50000
-6.70000 70.49999 -0.50000
-7.20000 70.49999 -1.00000
-7.20000 70.49999 3.00000
-6.70000 70.49999 9.50000
-7.20000 70.99999 9.50000
-7.20000 70.99999 10.50000
-6.70000 70.49999 11.50000
-7.20000 70.49999 11.00000
-7.20000 70.49999 12.00000
-7.20000 70.99999 14.50000
-7.20000 70.99999 15.50000
-7.20000 70.99999 16.50000
-7.20000 69.99999 -0.50000
-6.70000 69.49999 0.50000
-7.20000 69.49999 0.00000
-7.20000 69.49999 1.00000
-7.20000 69.99999 1.50000
-7.20000 69.99999 2.50000
-7.20000 69.99999 11.50000
-7.20000 68.99999 0.50000
-7.70000 78.49999 8.50000
-8.20000 78.49999 8.00000
-8.20000 78.99999 8.50000
-8.20000 78.99999 9.50000
-8.20000 78.99999 10.50000
-8.20000 78.99999 11.50000
-7.70000 78.49999 11.50000
-8.20000 78.49999 12.00000
-8.20000 77.49999 7.00000
-8.20000 77.99999 7.50000
-8.20000 77.99999 12.50000
-8.20000 77.49999 13.00000
-8.20000 76.49999 4.00000
-8.20000 76.99999 4.50000
-8.20000 76.99999 5.50000
-8.20000 76.99999 6.50000
-8.20000 76.99999 13.50000
-8.20000 76.99999 14.50000
-8.20000 76.99999 15.50000
-8.20000 76.99999 16.50000
-7.70000 76.49999 16.50000
-8.20000 76.49999 17.00000
-8.20000 75.49999 2.00000
-8.20000 75.99999 2.50000
-8.20000 75.99999 3.50000
-8.20000 75.99999 17.50000
-8.20000 75.99999 18.50000
-7.70000 75.49999 18.50000
-8.20000 75.49999 19.00000
-8.20000 74.49999 1.00000
-8.20000 74.99999 1.50000
-7.70000 74.49999 9.50000
-8.20000 74.99999 9.50000
-8.20000 74.49999 9.00000
-8.20000 74.49999 10.00000
-8.20000 74.49999 19.00000
-8.20000 73.49999 -2.00000
-8.20000 73.99999 -1.50000
-8.20000 73.99999 -0.50000
-8.20000 73.99999 0.50000
-7.70000 73.49999 9.50000
-8.20000 73.49999 9.00000
-8.20000 73.49999 10.00000
-8.20000 73.99999 13.50000
-8.20000 73.49999 13.00000
-8.20000 73.49999 14.00000
-8.20000 73.99999 18.50000
-8.20000 73.49999 18.00000
-7.70000 72.49999 -2.50000
-8.20000 72.49999 -2.00000
-7.70000 72.49999 6.50000
-7.70000 72.49999 7.50000
-8.20000 72.49999 8.00000
-8.20000 72.99999 8.50000
-7.70000 72.49999 9.50000
-8.20000 72.49999 10.00000
-8.20000 72.99999 12.50000
-8.20000 72.49999 12.00000
-8.20000 72.49999 14.00000
-8.20000 72.49999 18.00000
-7.70000 71.49999 -1.50000
-8.20000 71.99999 -1.50000
-8.20000 71.49999 -1.00000
-7.70000 71.49999 3.50000
-8.20000 71.49999 4.00000
-8.20000 71.99999 4.50000
-8.20000 71.99999 5.50000
-8.20000 71.99999 6.50000
-8.20000 71.99999 7.50000
-7.70000 71.49999 9.50000
-8.20000 71.99999 10.50000
-7.70000 71.49999 10.50000
-7.70000 71.49999 11.50000
-8.20000 71.99999 11.50000
-8.20000 71.49999 14.00000
-8.20000 71.99999 17.50000
-8.20000 71.49999 17.00000
-7.70000 70.49999 -0.50000
-8.20000 70.99999 -0.50000
-8.20000 70.49999 0.00000
-7.70000 70.49999 3.50000
-8.20000 70.49999 4.00000
-7.70000 70.49999 11.50000
-8.20000 70.99999 14.50000
-8.20000 70.99999 15.50000
-8.20000 70.99999 16.50000
-8.20000 69.49999 0.00000
-7.70000 69.49999 1.50000
-7.70000 69.49999 2.50000
-7.70000 69.49999 3.50000
-8.20000 69.49999 4.00000
-8.20000 68.99999 0.50000
-8.20000 68.99999 1.50000
-7.70000 68.49999 2.50000
-8.20000 68.49999 2.00000
-8.20000 68.49999 3.00000
-8.20000 68.99999 3.50000
-8.20000 67.99999 2.50000
-9.20000 78.49999 8.00000
-9.20000 78.99999 8.50000
-9.20000 78.99999 9.50000
-9.20000 78.99999 10.50000
-9.20000 78.99999 11.50000
-9.20000 78.49999 12.00000
-9.20000 77.49999 7.00000
-9.20000 77.99999 7.50000
-9.20000 77.99999 12.50000
-9.20000 77.49999 13.00000
-8.70000 76.49999 4.50000
-9.20000 76.49999 5.00000
-9.20000 76.99999 5.50000
-9.20000 76.99999 6.50000
-9.20000 76.99999 13.50000
-9.20000 76.99999 14.50000
-9.20000 76.99999 15.50000
-9.20000 76.99999 16.50000
-9.20000 76.99999 17.50000
-8.70000 76.49999 17.50000
-9.20000 76.49999 18.00000
-9.20000 75.49999 2.00000
-9.20000 75.99999 2.50000
-9.20000 75.99999 3.50000
-9.20000 75.99999 4.50000
-9.20000 75.99999 18.50000
-9.20000 75.49999 19.00000
-9.20000 74.49999 1.00000
-9.20000 74.99999 1.50000
-9.20000 74.99999 9.50000
-9.20000 74.49999 9.00000
-8.70000 74.49999 10.50000
-9.20000 74.99999 10.50000
-9.20000 74.49999 11.00000
-9.20000 74.49999 19.00000
-8.70000 73.49999 -1.50000
-8.70000 73.49999 -0.50000
-9.20000 73.49999 0.00000
-9.20000 73.99999 0.50000
-9.20000 73.49999 9.00000
-8.70000 73.49999 10.50000
-9.20000 73.49999 11.00000
-8.70000 73.49999 13.50000
-9.20000 73.99999 18.50000
-9.20000 73.49999 18.00000
-8.70000 72.49999 -1.50000
-9.20000 72.49999 -1.00000
-9.20000 72.99999 -0.50000
-8.70000 72.49999 8.50000
-9.20000 72.49999 9.00000
-8.70000 72.49999 10.50000
-9.20000 72.49999 11.00000
-8.70000 72.49999 12.50000
-9.20000 72.49999 13.00000
-9.20000 72.99999 13.50000
-9.20000 72.99999 14.50000
-8.70000 72.49999 14.50000
-9.20000 72.49999 15.00000
-9.20000 72.49999 18.00000
-9.20000 71.49999 -1.00000
-9.20000 71.99999 4.50000
-9.20000 71.49999 4.00000
-9.20000 71.99999 5.50000
-8.70000 71.49999 6.50000
-9.20000 71.49999 6.00000
-8.70000 71.49999 7.50000
-9.20000 71.49999 8.00000
-9.20000 71.99999 8.50000
-9.20000 71.99999 11.50000
-9.20000 71.99999 12.50000
-9.20000 71.49999 14.00000
-9.20000 71.99999 14.50000
-9.20000 71.99999 17.50000
-9.20000 71.49999 17.00000
-9.20000 70.99999 -0.50000
-9.20000 70.49999 0.00000
-9.20000 70.49999 4.00000
-9.20000 70.99999 6.50000
-9.20000 70.99999 7.50000
-9.20000 70.99999 14.50000
-9.20000 70.99999 15.50000
-9.20000 70.99999 16.50000
-9.20000 69.99999 0.50000
-8.70000 69.49999 0.50000
-9.20000 69.49999 1.00000
-9.20000 69.49999 4.00000
-9.20000 68.99999 1.50000
-9.20000 68.49999 2.00000
-8.70000 68.49999 3.50000
-9.20000 68.49999 4.00000
-8.70000 67.49999 2.50000
-9.20000 67.49999 2.00000
-8.70000 67.49999 3.50000
-9.20000 67.49999 4.00000
-9.20000 66.99999 2.50000
-9.20000 66.99999 3.50000
-10.20000 78.49999 8.00000
-10.20000 78.99999 8.50000
-10.20000 78.99999 9.50000
-10.20000 78.99999 10.50000
-10.20000 78.99999 11.50000
-10.20000 78.49999 12.00000
-10.20000 77.49999 7.00000
-10.20000 77.99999 7.50000
-9.70000 77.49999 12.50000
-10.20000 77.49999 12.00000
-9.70000 77.49999 15.50000
-10.20000 77.49999 15.00000
-10.20000 77.99999 15.50000
-10.20000 77.99999 16.50000
-9.70000 77.49999 16.50000
-10.20000 77.49999 17.00000
-9.70000 76.49999 5.50000
-10.20000 76.49999 6.00000
-10.20000 76.99999 6.50000
-10.20000 76.99999 12.50000
-10.20000 76.99999 13.50000
-10.20000 76.99999 14.50000
-10.20000 76.99999 17.50000
-10.20000 76.99999 18.50000
-9.70000 76.49999 18.50000
-10.20000 76.99999 19.50000
-9.70000 76.49999 19.50000
-10.20000 76.49999 20.00000
-9.70000 75.49999 2.50000
-10.20000 75.49999 3.00000
-10.20000 75.99999 3.50000
-10.20000 75.99999 4.50000
-10.20000 75.99999 5.50000
-10.20000 75.99999 19.50000
-10.20000 75.49999 19.00000
-9.70000 74.49999 1.50000
-10.20000 74.49999 2.00000
-10.20000 74.99999 2.50000
-10.20000 74.99999 9.50000
-10.20000 74.49999 9.00000
-9.70000 74.49999 10.50000
-10.20000 74.49999 10.00000
-10.20000 74.49999 19.00000
-9.70000 73.49999 0.50000
-10.20000 73.49999 1.00000
-10.20000 73.99999 1.50000
-10.20000 73.49999 9.00000
-9.70000 73.49999 10.50000
-10.20000 73.49999 10.00000
-9.70000 73.49999 15.50000
-10.20000 73.99999 15.50000
-10.20000 73.49999 15.00000
-9.70000 73.49999 16.50000
-10.20000 73.99999 16.50000
-10.20000 73.49999 17.00000
-10.20000 73.99999 18.50000
-10.20000 73.49999 18.00000
-9.70000 72.49999 -0.50000
-9.70000 72.49999 0.50000
-10.20000 72.49999 1.00000
-10.20000 72.49999 9.00000
-9.70000 72.49999 10.50000
-10.20000 72.49999 10.00000
-9.70000 72.49999 13.50000
-10.20000 72.49999 14.00000
-10.20000 72.99999 14.50000
-9.70000 72.49999 15.50000
-9.70000 72.49999 16.50000
-10.20000 72.99999 17.50000
-9.70000 72.49999 17.50000
-9.70000 71.49999 -0.50000
-10.20000 71.49999 0.00000
-10.20000 71.99999 0.50000
-9.70000 71.49999 4.50000
-9.70000 71.49999 5.50000
-10.20000 71.99999 8.50000
-10.20000 71.49999 8.00000
-9.70000 71.49999 10.50000
-10.20000 71.49999 10.00000
-9.70000 71.49999 11.50000
-9.70000 71.49999 12.50000
-10.20000 71.49999 13.00000
-10.20000 71.99999 13.50000
-9.70000 71.49999 14.50000
-9.70000 71.49999 15.50000
-9.70000 71.49999 16.50000
-9.70000 70.49999 0.50000
-10.20000 70.99999 0.50000
-10.20000 70.49999 1.00000
-10.20000 70.99999 4.50000
-10.20000 70.49999 4.00000
-10.20000 70.99999 5.50000
-10.20000 70.99999 6.50000
-10.20000 70.99999 7.50000
-10.20000 70.99999 10.50000
-10.20000 70.99999 11.50000
-10.20000 70.99999 12.50000
-9.70000 69.49999 1.50000
-10.20000 69.99999 1.50000
-10.20000 69.49999 2.00000
-10.20000 69.49999 4.00000
-9.70000 68.49999 2.50000
-10.20000 68.99999 2.50000
-10.20000 68.49999 3.00000
-10.20000 68.99999 4.50000
-9.70000 68.49999 4.50000
-10.20000 68.49999 5.00000
-9.70000 67.49999 2.50000
-10.20000 67.99999 3.50000
-9.70000 67.49999 3.50000
-10.20000 67.99999 4.50000
-10.70000 78.49999 8.50000
-11.20000 78.49999 9.00000
-11.20000 78.99999 9.50000
-11.20000 78.99999 10.50000
-10.70000 78.49999 11.50000
-11.20000 78.49999 11.00000
-11.20000 77.49999 7.00000
-11.20000 77.99999 7.50000
-11.20000 77.99999 8.50000
-11.20000 77.99999 11.50000
-11.20000 77.49999 12.00000
-10.70000 77.49999 14.50000
-11.20000 77.49999 14.00000
-11.20000 77.99999 14.50000
-11.20000 77.99999 15.50000
-11.20000 77.99999 16.50000
-11.20000 77.99999 17.50000
-10.70000 77.49999 17.50000
-11.20000 77.49999 18.00000
-10.70000 76.49999 6.50000
-11.20000 76.49999 7.00000
-10.70000 76.49999 12.50000
-11.20000 76.49999 12.00000
-11.20000 76.49999 13.00000
-11.20000 76.99999 13.50000
-11.20000 76.99999 18.50000
-11.20000 76.99999 19.50000
-11.20000 76.49999 20.00000
-10.70000 75.49999 3.50000
-10.70000 75.49999 4.50000
-10.70000 75.49999 5.50000
-10.70000 75.49999 6.50000
-11.20000 75.49999 7.00000
-11.20000 75.99999 12.50000
-11.20000 75.99999 19.50000
-11.20000 75.49999 19.00000
-11.20000 74.49999 2.00000
-11.20000 74.99999 2.50000
-11.20000 74.99999 3.50000
-11.20000 74.99999 4.50000
-11.20000 74.99999 5.50000
-11.20000 74.99999 6.50000
-10.70000 74.49999 9.50000
-11.20000 74.49999 19.00000
-10.70000 73.49999 1.50000
-11.20000 73.49999 2.00000
-10.70000 73.49999 9.50000
-11.20000 73.99999 15.50000
-11.20000 73.49999 15.00000
-11.20000 73.99999 16.50000
-11.20000 73.49999 17.00000
-11.20000 73.99999 18.50000
-11.20000 73.49999 18.00000
-11.20000 72.49999 1.00000
-11.20000 72.99999 1.50000
-10.70000 72.49999 9.50000
-11.20000 72.99999 14.50000
-11.20000 72.49999 14.00000
-11.20000 72.99999 17.50000
-10.70000 71.49999 0.50000
-11.20000 71.49999 1.00000
-10.70000 71.49999 8.50000
-10.70000 71.49999 9.50000
-10.70000 71.49999 13.50000
-11.20000 71.49999 14.00000
-10.70000 70.49999 1.50000
-11.20000 70.99999 1.50000
-11.20000 70.49999 2.00000
-10.70000 70.49999 4.50000
-11.20000 70.49999 5.00000
-11.20000 70.99999 5.50000
-11.20000 70.99999 6.50000
-11.20000 70.99999 7.50000
-11.20000 70.99999 8.50000
-11.20000 70.99999 9.50000
-10.70000 70.49999 10.50000
-11.20000 70.49999 10.00000
-10.70000 70.49999 11.50000
-10.70000 70.49999 12.50000
-11.20000 70.49999 13.00000
-11.20000 70.99999 13.50000
-10.70000 69.49999 2.50000
-11.20000 69.99999 2.50000
-11.20000 69.49999 3.00000
-10.70000 69.49999 4.50000
-11.20000 69.49999 5.00000
-10.70000 69.49999 10.50000
-11.20000 69.49999 10.00000
-10.70000 69.49999 11.50000
-11.20000 69.49999 12.00000
-11.20000 69.99999 12.50000
-10.70000 68.49999 3.50000
-11.20000 68.99999 3.50000
-10.70000 68.99999 4.00000
-11.20000 68.99999 4.50000
-10.70000 68.49999 4.50000
-11.20000 68.99999 10.50000
-11.20000 68.99999 11.50000
-12.20000 78.49999 9.00000
-12.20000 78.99999 9.50000
-12.20000 78.99999 10.50000
-12.20000 78.49999 11.00000
-12.20000 77.49999 7.00000
-12.20000 77.99999 7.50000
-12.20000 77.99999 8.50000
-12.20000 77.99999 11.50000
-12.20000 77.49999 12.00000
-12.20000 77.49999 14.00000
-12.20000 77.99999 14.50000
-12.20000 77.99999 15.50000
-12.20000 77.99999 16.50000
-12.20000 77.99999 17.50000
-12.20000 77.49999 18.00000
-12.20000 76.49999 7.00000
-12.20000 76.49999 12.00000
-12.20000 76.49999 13.00000
-12.20000 76.99999 13.50000
-12.20000 76.99999 18.50000
-11.70000 76.49999 19.50000
-12.20000 76.49999 19.00000
-12.20000 75.49999 7.00000
-12.20000 75.99999 12.50000
-12.20000 75.49999 19.00000
-11.70000 74.49999 2.50000
-12.20000 74.49999 3.00000
-12.20000 74.99999 3.50000
-12.20000 74.99999 4.50000
-11.70000 74.49999 5.50000
-12.20000 74.49999 5.00000
-11.70000 74.49999 6.50000
-12.20000 74.49999 7.00000
-12.20000 74.49999 19.00000
-12.20000 73.49999 2.00000
-12.20000 73.99999 2.50000
-12.20000 73.99999 5.50000
-12.20000 73.99999 6.50000
-12.20000 73.99999 15.50000
-12.20000 73.49999 15.00000
-12.20000 73.99999 16.50000
-12.20000 73.49999 17.00000
-12.20000 73.99999 18.50000
-12.20000 73.49999 18.00000
-11.70000 72.49999 1.50000
-12.20000 72.49999 2.00000
-12.20000 72.99999 14.50000
-12.20000 72.49999 14.00000
-12.20000 72.99999 17.50000
-11.70000 71.49999 1.50000
-12.20000 71.49999 2.00000
-12.20000 71.49999 14.00000
-12.20000 70.49999 2.00000
-12.20000 70.99999 5.50000
-12.20000 70.49999 5.00000
-12.20000 70.99999 6.50000
-12.20000 70.99999 7.50000
-12.20000 70.99999 8.50000
-11.70000 70.49999 9.50000
-12.20000 70.49999 9.00000
-12.20000 70.99999 13.50000
-12.20000 70.49999 13.00000
-12.20000 69.99999 2.50000
-11.70000 69.49999 3.50000
-12.20000 69.99999 3.50000
-12.20000 69.49999 4.00000
-12.20000 69.49999 5.00000
-12.20000 69.99999 9.50000
-12.20000 69.99999 10.50000
-11.70000 69.49999 10.50000
-11.70000 69.49999 11.50000
-12.20000 69.99999 11.50000
-11.70000 69.49999 12.50000
-12.20000 69.49999 12.00000
-12.20000 69.49999 13.00000
-12.20000 68.99999 4.50000
-12.20000 68.99999 12.50000
-12.70000 78.49999 9.50000
-12.70000 78.49999 10.50000
-12.70000 77.49999 7.50000
-13.20000 77.49999 8.00000
-13.20000 77.99999 8.50000
-13.20000 77.99999 9.50000
-13.20000 77.99999 10.50000
-12.70000 77.49999 11.50000
-13.20000 77.49999 11.00000
-13.20000 77.49999 14.00000
-13.20000 77.99999 14.50000
-13.20000 77.99999 15.50000
-13.20000 77.99999 16.50000
-12.70000 77.49999 17.50000
-13.20000 77.49999 17.00000
-13.20000 76.49999 7.00000
-13.20000 76.99999 7.50000
-13.20000 76.99999 11.50000
-13.20000 76.49999 12.00000
-13.20000 76.49999 13.00000
-13.20000 76.99999 13.50000
-13.20000 76.99999 17.50000
-13.20000 76.99999 18.50000
-13.20000 76.49999 19.00000
-13.20000 75.49999 7.00000
-13.20000 75.99999 12.50000
-13.20000 75.49999 19.00000
-12.70000 74.49999 3.50000
-13.20000 74.49999 4.00000
-13.20000 74.99999 4.50000
-13.20000 74.99999 5.50000
-12.70000 74.49999 5.50000
-13.20000 74.99999 6.50000
-12.70000 74.49999 6.50000
-12.70000 74.49999 18.50000
-13.20000 74.99999 18.50000
-13.20000 74.49999 18.00000
-13.20000 73.49999 2.00000
-13.20000 73.99999 2.50000
-13.20000 73.99999 3.50000
-13.20000 73.99999 15.50000
-13.20000 73.49999 15.00000
-12.70000 73.49999 16.50000
-13.20000 73.49999 16.00000
-13.20000 73.49999 18.00000
-13.20000 72.49999 2.00000
-13.20000 72.99999 14.50000
-13.20000 72.49999 14.00000
-13.20000 72.99999 16.50000
-13.20000 72.99999 17.50000
-13.20000 71.49999 2.00000
-13.20000 71.49999 14.00000
-13.20000 70.49999 2.00000
-13.20000 70.99999 5.50000
-13.20000 70.49999 5.00000
-13.20000 70.99999 6.50000
-13.20000 70.99999 7.50000
-13.20000 70.99999 8.50000
-12.70000 70.49999 9.50000
-13.20000 70.99999 9.50000
-12.70000 70.49999 10.50000
-13.20000 70.99999 10.50000
-13.20000 70.49999 11.00000
-12.70000 70.49999 13.50000
-13.20000 70.49999 14.00000
-13.20000 69.99999 2.50000
-13.20000 69.99999 3.50000
-12.70000 69.49999 4.50000
-13.20000 69.99999 4.50000
-13.20000 69.99999 11.50000
-12.70000 69.49999 12.50000
-13.20000 69.99999 12.50000
-13.20000 69.99999 13.50000
-13.70000 77.49999 8.50000
-14.20000 77.49999 9.00000
-14.20000 77.99999 9.50000
-13.70000 77.49999 10.50000
-14.20000 77.49999 10.00000
-13.70000 77.49999 14.50000
-14.20000 77.49999 15.00000
-14.20000 77.99999 15.50000
-13.70000 77.49999 16.50000
-14.20000 77.49999 16.00000
-14.20000 76.49999 7.00000
-14.20000 76.99999 7.50000
-14.20000 76.99999 8.50000
-14.20000 76.99999 10.50000
-13.70000 76.49999 11.50000
-14.20000 76.49999 11.00000
-14.20000 76.49999 13.00000
-14.20000 76.99999 13.50000
-14.20000 76.99999 14.50000
-14.20000 76.99999 16.50000
-14.20000 76.99999 17.50000
-13.70000 76.49999 18.50000
-14.20000 76.49999 18.00000
-13.70000 75.49999 5.50000
-14.20000 75.49999 5.00000
-14.20000 75.99999 5.50000
-14.20000 75.99999 6.50000
-13.70000 75.49999 6.50000
-14.20000 75.99999 11.50000
-14.20000 75.99999 12.50000
-13.70000 75.49999 18.50000
-14.20000 75.49999 18.00000
-14.20000 74.49999 4.00000
-14.20000 74.99999 4.50000
-14.20000 74.49999 18.00000
-13.70000 73.49999 2.50000
-14.20000 73.49999 3.00000
-14.20000 73.99999 3.50000
-13.70000 73.49999 15.50000
-13.70000 73.49999 17.50000
-14.20000 73.99999 17.50000
-14.20000 73.49999 17.00000
-14.20000 72.49999 2.00000
-14.20000 72.99999 2.50000
-13.70000 72.49999 5.50000
-14.20000 72.99999 5.50000
-14.20000 72.49999 5.00000
-14.20000 72.49999 6.00000
-13.70000 72.49999 11.50000
-14.20000 72.99999 11.50000
-14.20000 72.49999 11.00000
-14.20000 72.49999 12.00000
-14.20000 72.99999 14.50000
-14.20000 72.49999 14.00000
-14.20000 72.99999 15.50000
-14.20000 72.99999 16.50000
-14.20000 71.99999 2.50000
-13.70000 71.49999 2.50000
-14.20000 71.49999 3.00000
-13.70000 71.49999 4.50000
-14.20000 71.99999 4.50000
-14.20000 71.49999 4.00000
-13.70000 71.49999 5.50000
-14.20000 71.99999 6.50000
-13.70000 71.49999 6.50000
-13.70000 71.49999 7.50000
-14.20000 71.99999 7.50000
-13.70000 71.49999 8.50000
-14.20000 71.99999 8.50000
-13.70000 71.49999 9.50000
-14.20000 71.99999 9.50000
-13.70000 71.49999 10.50000
-14.20000 71.99999 10.50000
-13.70000 71.49999 11.50000
-14.20000 71.49999 12.00000
-14.20000 71.49999 14.00000
-13.70000 70.49999 2.50000
-14.20000 70.99999 3.50000
-13.70000 70.49999 3.50000
-13.70000 70.49999 4.50000
-13.70000 70.49999 11.50000
-14.20000 70.99999 12.50000
-13.70000 70.49999 12.50000
-14.20000 70.49999 13.00000
-14.20000 70.49999 14.00000
-14.20000 69.99999 13.50000
-14.70000 77.49999 9.50000
-14.70000 77.49999 15.50000
-14.70000 76.49999 6.50000
-15.20000 76.49999 6.00000
-15.20000 76.99999 6.50000
-15.20000 76.99999 7.50000
-15.20000 76.99999 8.50000
-15.20000 76.99999 9.50000
-15.20000 76.99999 10.50000
-15.20000 76.49999 11.00000
-14.70000 76.49999 13.50000
-15.20000 76.49999 14.00000
-15.20000 76.99999 14.50000
-15.20000 76.99999 15.50000
-15.20000 76.99999 16.50000
-14.70000 76.49999 17.50000
-15.20000 76.49999 17.00000
-15.20000 75.49999 5.00000
-15.20000 75.99999 5.50000
-14.70000 75.49999 11.50000
-15.20000 75.49999 11.00000
-14.70000 75.49999 12.50000
-15.20000 75.49999 13.00000
-15.20000 75.99999 13.50000
-14.70000 75.49999 17.50000
-15.20000 75.49999 17.00000
-15.20000 74.49999 4.00000
-15.20000 74.99999 4.50000
-15.20000 74.99999 11.50000
-15.20000 74.99999 12.50000
-14.70000 74.49999 17.50000
-15.20000 74.49999 17.00000
-14.70000 73.49999 3.50000
-15.20000 73.99999 4.50000
-14.70000 73.49999 4.50000
-14.70000 73.49999 5.50000
-15.20000 73.99999 5.50000
-14.70000 73.49999 6.50000
-15.20000 73.99999 6.50000
-15.20000 73.49999 7.00000
-14.70000 73.49999 9.50000
-15.20000 73.99999 9.50000
-15.20000 73.49999 9.00000
-15.20000 73.49999 10.00000
-15.20000 73.49999 17.00000
-14.70000 72.49999 2.50000
-14.70000 72.49999 3.50000
-14.70000 72.49999 4.50000
-14.70000 72.49999 6.50000
-15.20000 72.99999 7.50000
-14.70000 72.49999 7.50000
-14.70000 72.49999 8.50000
-15.20000 72.99999 8.50000
-14.70000 72.49999 9.50000
-15.20000 72.99999 10.50000
-14.70000 72.49999 10.50000
-15.20000 72.99999 11.50000
-15.20000 72.49999 12.00000
-14.70000 72.49999 14.50000
-14.70000 72.49999 15.50000
-15.20000 72.49999 16.00000
-15.20000 72.99999 16.50000
-14.70000 71.49999 3.50000
-15.20000 71.49999 12.00000
-15.20000 71.99999 14.50000
-15.20000 71.49999 14.00000
-15.20000 71.99999 15.50000
-15.20000 70.99999 12.50000
-14.70000 70.49999 13.50000
-15.20000 70.99999 13.50000
-16.20000 76.49999 6.00000
-16.20000 76.99999 6.50000
-16.20000 76.99999 7.50000
-16.20000 76.99999 8.50000
-16.20000 76.99999 9.50000
-15.70000 76.49999 10.50000
-16.20000 76.49999 10.00000
-16.20000 76.49999 14.00000
-16.20000 76.99999 14.50000
-16.20000 76.99999 15.50000
-15.70000 76.49999 16.50000
-16.20000 76.49999 16.00000
-16.20000 75.49999 5.00000
-16.20000 75.99999 5.50000
-16.20000 75.99999 10.50000
-16.20000 75.49999 11.00000
-16.20000 75.49999 13.00000
-16.20000 75.99999 13.50000
-16.20000 75.99999 16.50000
-16.20000 75.49999 17.00000
-15.70000 74.49999 4.50000
-16.20000 74.99999 5.50000
-15.70000 74.49999 5.50000
-15.70000 74.49999 6.50000
-16.20000 74.99999 6.50000
-15.70000 74.49999 7.50000
-16.20000 74.99999 7.50000
-15.70000 74.49999 8.50000
-16.20000 74.99999 8.50000
-15.70000 74.49999 9.50000
-16.20000 74.99999 9.50000
-15.70000 74.49999 10.50000
-16.20000 74.99999 10.50000
-15.70000 74.99999 11.00000
-16.20000 74.99999 11.50000
-16.20000 74.49999 11.00000
-16.20000 74.99999 12.50000
-16.20000 74.49999 17.00000
-15.70000 73.49999 7.50000
-15.70000 73.49999 8.50000
-15.70000 73.49999 10.50000
-16.20000 73.49999 11.00000
-16.20000 73.49999 17.00000
-16.20000 72.99999 11.50000
-16.20000 72.49999 12.00000
-16.20000 72.99999 16.50000
-16.20000 72.49999 16.00000
-16.20000 71.99999 12.50000
-15.70000 71.49999 12.50000
-15.70000 71.49999 13.50000
-16.20000 71.99999 13.50000
-16.20000 71.99999 14.50000
-16.20000 71.99999 15.50000
-16.70000 76.49999 6.50000
-16.70000 76.49999 7.50000
-16.70000 76.49999 8.50000
-16.70000 76.49999 9.50000
-16.70000 76.49999 14.50000
-16.70000 76.49999 15.50000
-16.70000 75.49999 5.50000
-16.70000 75.49999 6.50000
-16.70000 75.49999 7.50000
-16.70000 75.49999 8.50000
-16.70000 75.49999 9.50000
-16.70000 75.49999 10.50000
-17.20000 75.49999 13.00000
-17.20000 75.99999 13.50000
-17.20000 75.99999 14.50000
-17.20000 75.99999 15.50000
-16.70000 75.49999 16.50000
-17.20000 75.49999 16.00000
-16.70000 74.49999 11.50000
-16.70000 74.49999 12.50000
-17.20000 74.49999 13.00000
-17.20000 74.99999 16.50000
-17.20000 74.49999 17.00000
-16.70000 73.49999 11.50000
-17.20000 73.49999 12.00000
-17.20000 73.99999 12.50000
-17.20000 73.49999 17.00000
-16.70000 72.49999 12.50000
-17.20000 72.99999 12.50000
-16.70000 72.49999 13.50000
-17.20000 72.99999 13.50000
-16.70000 72.49999 14.50000
-17.20000 72.99999 14.50000
-16.70000 72.49999 15.50000
-17.20000 72.99999 15.50000
-17.20000 72.99999 16.50000
-17.70000 75.49999 13.50000
-17.70000 75.49999 14.50000
-17.70000 75.49999 15.50000
-17.70000 74.49999 13.50000
-18.20000 74.49999 14.00000
-18.20000 74.99999 14.50000
-18.20000 74.49999 15.00000
-17.70000 74.49999 15.50000
-17.70000 74.49999 16.50000
-17.70000 73.49999 12.50000
-17.70000 73.49999 13.50000
-18.20000 73.99999 14.50000
-17.70000 73.49999 14.50000
-17.70000 73.49999 15.50000
-17.70000 73.49999 16.50000
-18.70000 74.49999 14.50000
3 2 1 0
3 0 3 2
3 6 5 4
3 6 4 1
3 4 0 1
3 4 7 0
3 3 0 8
3 0 9 8
3 0 7 9
3 9 10 8
3 4 5 11
3 11 5 12
3 4 13 7
3 4 11 13
3 7 14 9
3 7 13 14
3 10 9 15
3 15 9 14
3 18 17 16
3 16 19 18
3 11 12 20
3 20 12 21
3 11 22 13
3 11 20 22
3 13 23 14
3 13 22 23
3 15 14 24
3 24 14 23
3 17 25 16
3 16 25 19
3 21 26 20
3 28 27 26
3 27 20 26
3 27 22 20
3 22 29 23
3 22 27 29
3 24 23 30
3 30 23 29
3 28 31 27
3 27 31 29
3 29 31 32
3 29 32 30
3 35 34 33
3 37 36 33
3 33 36 35
3 39 38 37
3 37 38 36
3 39 40 38
3 43 42 41
3 45 44 41
3 41 44 43
3 44 45 34
3 45 33 34
3 45 46 33
3 46 1 2
3 37 46 2
3 33 46 37
3 37 2 3
3 47 37 3
3 39 37 47
3 40 39 48
3 39 49 48
3 39 47 49
3 49 50 48
3 53 52 51
3 55 54 51
3 51 54 53
3 54 55 42
3 55 41 42
3 55 56 41
3 41 57 45
3 41 56 57
3 57 5 6
3 46 57 6
3 45 57 46
3 46 6 1
3 8 47 3
3 47 8 10
3 58 47 10
3 49 47 58
3 50 49 59
3 59 49 58
3 62 61 60
3 64 63 60
3 60 63 62
3 66 65 64
3 64 65 63
3 66 67 65
3 70 69 68
3 72 71 68
3 68 71 70
3 71 72 52
3 72 51 52
3 72 73 51
3 51 74 55
3 51 73 74
3 55 75 56
3 55 74 75
3 56 76 57
3 56 75 76
3 76 12 5
3 76 5 57
3 15 77 58
3 15 58 10
3 59 58 78
3 78 58 77
3 60 61 79
3 79 61 80
3 60 81 64
3 60 79 81
3 64 82 66
3 64 81 82
3 67 66 83
3 83 66 82
3 69 84 68
3 85 17 18
3 68 85 18
3 72 68 18
3 84 85 68
3 72 18 19
3 86 72 19
3 73 72 86
3 73 87 74
3 73 86 87
3 74 88 75
3 74 87 88
3 75 89 76
3 75 88 89
3 89 21 12
3 89 12 76
3 24 90 77
3 24 77 15
3 78 77 91
3 91 77 90
3 94 93 92
3 94 92 80
3 92 79 80
3 92 95 79
3 79 96 81
3 79 95 96
3 98 82 97
3 82 96 97
3 82 81 96
3 82 98 83
3 85 99 17
3 17 99 25
3 19 25 86
3 25 100 86
3 25 99 100
3 86 100 87
3 87 100 101
3 87 101 88
3 88 101 102
3 88 102 89
3 89 102 103
3 103 105 104
3 103 104 26
3 89 103 26
3 21 89 26
3 104 28 26
3 30 106 90
3 30 90 24
3 91 90 107
3 107 90 106
3 92 93 108
3 108 93 109
3 92 110 95
3 92 108 110
3 95 111 96
3 95 110 111
3 97 96 112
3 112 96 111
3 105 113 104
3 104 113 28
3 113 31 28
3 113 114 31
3 31 115 32
3 114 115 31
3 30 32 106
3 32 116 106
3 32 115 116
3 106 116 107
3 109 117 108
3 108 117 110
3 110 117 118
3 110 118 111
3 111 118 119
3 111 119 112
3 122 121 120
3 120 123 122
3 126 125 124
3 128 127 124
3 124 127 126
3 34 35 128
3 35 127 128
3 35 129 127
3 36 120 121
3 129 36 121
3 35 36 129
3 130 123 120
3 36 130 120
3 38 130 36
3 132 131 40
3 131 38 40
3 131 130 38
3 132 133 131
3 136 135 134
3 134 137 136
3 140 139 138
3 140 138 125
3 125 138 124
3 138 42 124
3 42 43 124
3 124 43 44
3 124 44 128
3 128 44 34
3 48 132 40
3 48 50 132
3 50 133 132
3 50 141 133
3 144 143 142
3 144 142 135
3 142 134 135
3 142 145 134
3 137 134 146
3 134 147 146
3 134 145 147
3 149 148 147
3 147 148 146
3 149 150 148
3 153 152 151
3 52 53 151
3 53 153 151
3 53 154 153
3 54 138 139
3 154 54 139
3 53 54 154
3 138 54 42
3 59 156 155
3 141 59 155
3 50 59 141
3 158 157 156
3 156 157 155
3 157 158 143
3 158 142 143
3 158 159 142
3 159 61 62
3 145 159 62
3 142 159 145
3 145 62 63
3 145 63 147
3 147 63 65
3 147 65 149
3 161 160 67
3 67 160 65
3 160 150 65
3 150 149 65
3 161 162 160
3 165 164 163
3 69 70 163
3 70 165 163
3 70 166 165
3 71 151 152
3 166 71 152
3 70 71 166
3 151 71 52
3 78 167 156
3 78 156 59
3 156 168 158
3 156 167 168
3 158 169 159
3 158 168 169
3 169 80 61
3 169 61 159
3 83 170 161
3 83 161 67
3 162 161 171
3 171 161 170
3 164 172 163
3 172 174 173
3 172 173 84
3 163 172 84
3 69 163 84
3 173 85 84
3 91 175 167
3 91 167 78
3 167 176 168
3 167 175 176
3 176 93 94
3 169 176 94
3 168 176 169
3 169 94 80
3 97 177 98
3 177 178 98
3 98 178 83
3 178 179 83
3 179 170 83
3 170 179 171
3 174 180 173
3 173 180 85
3 180 99 85
3 180 181 99
3 99 182 100
3 181 182 99
3 100 183 101
3 182 183 100
3 101 184 102
3 183 184 101
3 102 185 103
3 184 185 102
3 187 186 105
3 103 187 105
3 185 187 103
3 188 186 187
3 107 189 175
3 107 175 91
3 175 190 176
3 175 189 190
3 190 109 93
3 190 93 176
3 112 191 177
3 112 177 97
3 178 177 192
3 192 177 191
3 186 113 105
3 188 193 186
3 193 113 186
3 193 114 113
3 114 194 115
3 193 194 114
3 115 195 116
3 194 195 115
3 107 116 189
3 116 196 189
3 116 195 196
3 189 196 190
3 190 196 197
3 190 197 109
3 197 117 109
3 197 198 117
3 117 199 118
3 198 199 117
3 118 200 119
3 199 200 118
3 112 119 191
3 119 201 191
3 119 200 201
3 191 201 192
3 204 203 202
3 121 122 202
3 122 204 202
3 122 205 204
3 207 206 123
3 206 122 123
3 206 205 122
3 209 208 207
3 207 208 206
3 211 210 209
3 209 210 208
3 213 212 211
3 211 212 210
3 215 214 213
3 213 214 212
3 217 216 215
3 215 216 214
3 217 218 216
3 221 220 219
3 125 126 219
3 126 221 219
3 126 222 221
3 223 126 127
3 223 222 126
3 129 202 203
3 223 129 203
3 127 129 223
3 202 129 121
3 130 207 123
3 207 130 131
3 207 131 209
3 209 131 133
3 224 209 133
3 211 209 224
3 211 225 213
3 211 224 225
3 213 226 215
3 213 225 226
3 226 135 136
3 217 226 136
3 215 226 217
3 228 227 137
3 137 227 136
3 227 218 136
3 218 217 136
3 228 229 227
3 232 231 230
3 232 230 220
3 220 230 219
3 230 139 219
3 139 140 219
3 219 140 125
3 141 233 224
3 141 224 133
3 224 234 225
3 224 233 234
3 234 143 144
3 226 234 144
3 225 234 226
3 226 144 135
3 146 228 137
3 235 229 228
3 146 235 228
3 148 235 146
3 237 236 150
3 236 148 150
3 236 235 148
3 237 238 236
3 241 240 239
3 152 153 239
3 153 241 239
3 153 242 241
3 154 230 231
3 242 154 231
3 153 154 242
3 230 154 139
3 155 233 141
3 233 155 157
3 233 157 234
3 234 157 143
3 160 237 150
3 244 243 162
3 162 243 160
3 243 238 160
3 238 237 160
3 244 245 243
3 248 247 246
3 164 165 246
3 165 248 246
3 165 249 248
3 166 239 240
3 249 166 240
3 165 166 249
3 239 166 152
3 171 250 244
3 171 244 162
3 245 244 251
3 251 244 250
3 247 252 246
3 246 252 164
3 252 172 164
3 252 253 172
3 174 172 253
3 174 253 254
3 178 255 179
3 255 256 179
3 179 256 171
3 256 257 171
3 257 250 171
3 250 257 251
3 254 258 174
3 174 258 180
3 180 259 181
3 258 259 180
3 181 260 182
3 259 260 181
3 182 261 183
3 260 261 182
3 183 262 184
3 261 262 183
3 184 263 185
3 262 263 184
3 185 264 187
3 263 264 185
3 266 265 188
3 187 266 188
3 264 266 187
3 267 265 266
3 192 268 255
3 192 255 178
3 256 255 269
3 269 255 268
3 265 193 188
3 267 270 265
3 270 193 265
3 270 194 193
3 194 271 195
3 270 271 194
3 195 272 196
3 271 272 195
3 196 273 197
3 272 273 196
3 197 274 198
3 273 274 197
3 198 275 199
3 274 275 198
3 199 276 200
3 275 276 199
3 200 277 201
3 276 277 200
3 192 201 268
3 201 278 268
3 201 277 278
3 268 278 269
3 281 280 279
3 283 282 279
3 279 282 281
3 285 284 283
3 283 284 282
3 287 286 285
3 285 286 284
3 287 288 286
3 291 290 289
3 203 204 289
3 204 291 289
3 204 292 291
3 293 204 205
3 293 292 204
3 206 279 280
3 293 206 280
3 205 206 293
3 279 206 208
3 279 208 283
3 283 208 210
3 283 210 285
3 285 210 212
3 285 212 287
3 294 288 287
3 212 294 287
3 214 294 212
3 295 214 216
3 295 294 214
3 297 296 218
3 296 216 218
3 296 295 216
3 297 298 296
3 300 299 221
3 221 299 220
3 301 221 222
3 301 300 221
3 223 289 290
3 301 223 290
3 222 223 301
3 289 223 203
3 227 297 218
3 303 302 229
3 229 302 227
3 302 298 227
3 298 297 227
3 303 304 302
3 307 306 305
3 231 232 305
3 232 307 305
3 232 308 307
3 232 220 299
3 232 299 308
3 235 303 229
3 309 304 303
3 235 309 303
3 236 309 235
3 311 310 238
3 310 236 238
3 310 309 236
3 313 312 311
3 311 312 310
3 313 314 312
3 316 315 241
3 241 315 240
3 242 305 306
3 316 242 306
3 241 242 316
3 305 242 231
3 243 311 238
3 313 311 317
3 311 245 317
3 245 318 317
3 245 311 243
3 313 317 314
3 321 320 319
3 247 248 319
3 248 321 319
3 248 322 321
3 323 248 249
3 323 322 248
3 249 240 315
3 249 315 323
3 326 325 324
3 328 327 324
3 328 324 325
3 329 327 328
3 332 331 330
3 333 330 331
3 251 318 245
3 251 334 318
3 320 335 319
3 335 337 336
3 335 336 252
3 319 335 252
3 247 319 252
3 338 253 252
3 338 252 336
3 338 254 253
3 326 324 339
3 326 339 340
3 341 324 327
3 339 324 341
3 327 329 342
3 327 342 341
3 332 330 343
3 332 343 344
3 330 333 345
3 330 345 343
3 347 346 257
3 347 257 256
3 251 257 334
3 334 257 346
3 337 348 336
3 336 348 338
3 338 348 349
3 349 351 350
3 349 350 258
3 338 349 258
3 254 338 258
3 352 259 258
3 352 258 350
3 353 260 259
3 353 259 352
3 260 353 354
3 355 260 354
3 261 260 355
3 261 356 262
3 355 356 261
3 262 357 263
3 356 357 262
3 339 264 340
3 264 357 340
3 264 263 357
3 264 339 266
3 266 339 341
3 359 358 267
3 359 267 266
3 342 359 266
3 341 342 266
3 360 358 359
3 363 362 361
3 365 364 361
3 365 361 362
3 367 366 364
3 367 364 365
3 366 367 344
3 343 366 344
3 368 366 343
3 343 345 369
3 370 343 369
3 368 343 370
3 372 371 370
3 372 370 369
3 374 373 371
3 374 371 372
3 374 347 373
3 347 269 373
3 347 256 269
3 351 375 350
3 350 375 352
3 352 375 376
3 352 376 353
3 353 376 377
3 353 377 354
3 358 270 267
3 360 378 358
3 378 270 358
3 378 271 270
3 361 272 363
3 272 378 363
3 272 271 378
3 272 361 273
3 273 361 364
3 273 364 274
3 274 364 366
3 274 366 275
3 275 366 368
3 275 368 276
3 276 368 370
3 276 370 277
3 277 370 371
3 277 371 278
3 278 371 373
3 278 373 269
3 381 380 379
3 383 382 379
3 379 382 381
3 383 384 382
3 387 386 385
3 280 281 385
3 281 387 385
3 281 388 387
3 282 379 380
3 388 282 380
3 281 282 388
3 379 282 284
3 379 284 383
3 389 384 383
3 284 389 383
3 286 389 284
3 391 390 288
3 390 286 288
3 390 389 286
3 391 392 390
3 395 394 393
3 290 291 393
3 291 395 393
3 291 396 395
3 397 291 292
3 397 396 291
3 293 385 386
3 397 293 386
3 292 293 397
3 385 293 280
3 294 391 288
3 398 392 391
3 294 398 391
3 295 398 294
3 399 295 296
3 399 398 295
3 401 400 298
3 400 296 298
3 400 399 296
3 401 402 400
3 405 404 403
3 299 300 403
3 300 405 403
3 300 406 405
3 301 393 394
3 406 301 394
3 300 301 406
3 393 301 290
3 302 401 298
3 408 407 304
3 304 407 302
3 407 402 302
3 402 401 302
3 410 409 408
3 408 409 407
3 410 411 409
3 413 412 307
3 307 412 306
3 308 403 404
3 413 308 404
3 307 308 413
3 403 308 299
3 309 408 304
3 408 309 310
3 408 310 410
3 414 411 410
3 310 414 410
3 312 414 310
3 312 314 414
3 414 314 415
3 418 417 416
3 420 419 416
3 416 419 418
3 315 316 420
3 316 419 420
3 316 421 419
3 316 306 412
3 316 412 421
3 424 423 422
3 425 422 423
3 427 426 317
3 427 317 318
3 314 317 415
3 415 317 426
3 429 428 321
3 321 428 320
3 322 416 417
3 429 322 417
3 321 322 429
3 416 322 323
3 416 323 420
3 420 323 315
3 431 430 325
3 431 325 326
3 325 432 328
3 430 432 325
3 434 433 329
3 328 434 329
3 432 434 328
3 435 433 434
3 438 437 436
3 436 437 424
3 436 424 422
3 332 436 422
3 331 332 422
3 333 331 422
3 425 333 422
3 439 333 425
3 334 427 318
3 334 440 427
3 428 441 320
3 320 441 335
3 337 335 441
3 337 441 442
3 445 444 443
3 447 446 443
3 447 443 444
3 449 448 446
3 449 446 447
3 449 431 448
3 431 340 448
3 431 326 340
3 450 342 433
3 433 342 329
3 433 435 451
3 433 451 450
3 438 436 452
3 438 452 453
3 344 452 332
3 332 452 436
3 439 345 333
3 454 345 439
3 456 455 346
3 456 346 347
3 334 346 440
3 440 346 455
3 442 457 337
3 337 457 348
3 457 459 458
3 349 457 458
3 348 457 349
3 458 351 349
3 445 443 355
3 354 445 355
3 460 445 354
3 355 443 356
3 356 443 446
3 356 446 357
3 357 446 448
3 357 448 340
3 450 359 342
3 462 461 360
3 462 360 359
3 451 462 359
3 450 451 359
3 362 363 461
3 462 362 461
3 463 362 462
3 463 465 464
3 365 463 464
3 362 463 365
3 466 453 452
3 365 466 452
3 367 365 452
3 466 365 464
3 367 452 344
3 454 467 345
3 345 467 369
3 369 468 372
3 467 468 369
3 372 469 374
3 468 469 372
3 347 374 456
3 456 374 469
3 459 470 458
3 470 472 471
3 470 471 375
3 458 470 375
3 351 458 375
3 375 471 473
3 474 375 473
3 376 375 474
3 376 475 377
3 474 475 376
3 354 377 460
3 460 377 475
3 461 378 360
3 378 461 363
3 465 476 464
3 464 476 466
3 472 477 471
3 471 477 473
3 480 479 478
3 380 381 478
3 381 480 478
3 381 481 480
3 482 381 382
3 482 481 381
3 484 483 384
3 483 382 384
3 483 482 382
3 484 485 483
3 487 486 387
3 387 486 386
3 388 478 479
3 487 388 479
3 387 388 487
3 478 388 380
3 389 484 384
3 488 485 484
3 389 488 484
3 390 488 389
3 390 392 488
3 488 392 489
3 491 490 395
3 395 490 394
3 492 395 396
3 492 491 395
3 493 396 397
3 493 492 396
3 397 386 486
3 397 486 493
3 494 489 392
3 494 392 398
3 495 398 399
3 495 494 398
3 496 399 400
3 496 495 399
3 498 497 402
3 497 400 402
3 497 496 400
3 498 499 497
3 501 500 405
3 405 500 404
3 502 405 406
3 502 501 405
3 406 394 490
3 406 490 502
3 407 498 402
3 503 499 498
3 407 503 498
3 409 503 407
3 505 504 411
3 504 409 411
3 504 503 409
3 505 506 504
3 508 507 413
3 413 507 412
3 413 404 500
3 413 500 508
3 511 510 509
3 512 509 510
3 414 505 411
3 414 415 505
3 415 506 505
3 415 513 506
3 515 514 418
3 418 514 417
3 516 418 419
3 516 515 418
3 517 419 421
3 517 516 419
3 421 412 507
3 421 507 517
3 511 509 518
3 511 518 519
3 509 512 520
3 509 520 518
3 522 521 423
3 522 423 424
3 425 423 521
3 425 521 523
3 525 524 426
3 525 426 427
3 415 426 513
3 513 426 524
3 526 428 429
3 527 526 429
3 417 527 429
3 514 527 417
3 431 528 430
3 529 432 430
3 529 430 528
3 432 529 530
3 531 432 530
3 434 432 531
3 518 532 435
3 531 518 435
3 434 531 435
3 519 518 531
3 518 520 533
3 518 533 532
3 535 534 437
3 535 437 438
3 424 437 522
3 522 437 534
3 523 439 425
3 536 439 523
3 440 525 427
3 440 537 525
3 526 441 428
3 539 538 442
3 539 442 441
3 527 539 441
3 526 527 441
3 540 538 539
3 445 541 444
3 444 541 542
3 543 444 542
3 447 444 543
3 447 544 449
3 543 544 447
3 431 449 528
3 449 545 528
3 449 544 545
3 528 545 529
3 529 545 546
3 529 546 530
3 547 451 532
3 532 451 435
3 532 533 548
3 549 532 548
3 547 532 549
3 551 550 549
3 551 549 548
3 551 535 550
3 535 453 550
3 535 438 453
3 536 454 439
3 552 454 536
3 554 553 455
3 554 455 456
3 440 455 537
3 537 455 553
3 538 457 442
3 556 555 459
3 556 459 457
3 540 556 457
3 538 540 457
3 557 555 556
3 460 558 541
3 460 541 445
3 542 541 559
3 559 541 558
3 547 462 451
3 462 547 463
3 463 547 549
3 463 549 465
3 549 560 465
3 549 550 560
3 466 560 453
3 453 560 550
3 552 561 454
3 454 561 467
3 467 562 468
3 561 562 467
3 468 563 469
3 562 563 468
3 456 469 554
3 554 469 563
3 555 470 459
3 472 470 555
3 557 472 555
3 564 472 557
3 473 565 474
3 566 475 474
3 566 474 565
3 558 460 475
3 566 558 475
3 567 558 566
3 559 558 568
3 568 558 567
3 560 476 465
3 476 560 466
3 564 569 472
3 472 569 477
3 473 477 565
3 477 570 565
3 477 569 570
3 572 571 570
3 571 565 570
3 571 566 565
3 574 567 573
3 567 571 573
3 567 566 571
3 567 574 568
3 572 575 571
3 571 575 573
3 577 576 480
3 480 576 479
3 578 480 481
3 578 577 480
3 579 481 482
3 579 578 481
3 580 482 483
3 580 579 482
3 483 485 580
3 580 485 581
3 583 582 487
3 487 582 486
3 487 479 576
3 487 576 583
3 584 581 485
3 584 485 488
3 488 489 584
3 584 489 585
3 586 490 491
3 586 491 587
3 491 588 587
3 491 492 588
3 589 492 493
3 589 588 492
3 493 486 582
3 493 582 589
3 590 585 489
3 590 489 494
3 591 494 495
3 591 590 494
3 592 495 496
3 592 591 495
3 593 496 497
3 593 592 496
3 595 594 499
3 594 497 499
3 594 593 497
3 595 596 594
3 598 597 501
3 501 597 500
3 599 501 502
3 599 598 501
3 502 490 586
3 600 502 586
3 599 502 600
3 600 586 587
3 503 595 499
3 601 596 595
3 503 601 595
3 504 601 503
3 504 506 601
3 601 506 602
3 604 603 508
3 508 603 507
3 508 500 597
3 508 597 604
3 606 605 510
3 606 510 511
3 608 607 512
3 510 608 512
3 605 608 510
3 609 607 608
3 513 602 506
3 513 610 602
3 611 514 515
3 516 612 515
3 515 612 611
3 612 516 613
3 516 614 613
3 516 517 614
3 517 507 603
3 517 603 614
3 519 606 511
3 519 615 606
3 616 520 607
3 607 520 512
3 607 609 617
3 607 617 616
3 522 618 521
3 618 523 521
3 620 619 524
3 620 524 525
3 513 524 610
3 610 524 619
3 621 527 611
3 611 527 514
3 612 623 622
3 621 612 622
3 611 612 621
3 623 612 613
3 530 624 531
3 624 625 531
3 625 519 531
3 625 615 519
3 626 533 616
3 616 533 520
3 616 617 627
3 616 627 626
3 535 628 534
3 628 629 534
3 534 629 522
3 629 630 522
3 630 618 522
3 536 523 618
3 631 536 618
3 630 631 618
3 536 631 632
3 633 632 631
3 537 620 525
3 537 634 620
3 621 539 527
3 540 539 621
3 622 540 621
3 635 540 622
3 637 636 543
3 637 543 542
3 543 638 544
3 636 638 543
3 638 640 639
3 545 638 639
3 544 638 545
3 641 546 545
3 641 545 639
3 641 642 546
3 546 642 530
3 642 643 530
3 643 624 530
3 624 643 625
3 626 548 533
3 627 644 626
3 644 548 626
3 644 551 548
3 535 551 628
3 551 645 628
3 551 644 645
3 628 645 629
3 647 646 632
3 646 536 632
3 646 552 536
3 647 632 633
3 649 648 553
3 649 553 554
3 537 553 634
3 634 553 648
3 635 650 540
3 540 650 556
3 557 556 650
3 557 650 651
3 559 637 542
3 559 652 637
3 640 653 639
3 639 653 641
3 641 653 654
3 641 654 642
3 646 655 552
3 552 655 561
3 561 656 562
3 655 656 561
3 562 657 563
3 656 657 562
3 554 563 649
3 649 563 657
3 659 564 658
3 564 651 658
3 564 557 651
3 660 659 658
3 568 652 559
3 568 661 652
3 659 569 564
3 660 662 659
3 662 569 659
3 662 570 569
3 572 570 662
3 572 662 663
3 573 664 574
3 664 665 574
3 665 568 574
3 665 661 568
3 575 572 666
3 572 667 666
3 572 663 667
3 664 573 575
3 666 664 575
3 668 664 666
3 665 664 669
3 669 664 668
3 667 670 666
3 666 670 668
3 668 670 671
3 668 671 669
3 673 672 577
3 577 672 576
3 674 577 578
3 674 673 577
3 675 578 579
3 675 674 578
3 676 579 580
3 676 675 579
3 580 581 676
3 676 581 677
3 679 678 583
3 583 678 582
3 583 576 672
3 583 672 679
3 581 584 680
3 681 581 680
3 677 581 681
3 585 680 584
3 684 683 682
3 686 685 682
3 682 685 684
3 686 687 685
3 688 587 588
3 688 588 689
3 588 690 689
3 588 589 690
3 589 582 678
3 589 678 690
3 691 681 680
3 691 680 585
3 590 691 585
3 692 691 590
3 693 590 591
3 693 692 590
3 592 682 683
3 693 592 683
3 591 592 693
3 682 592 593
3 682 593 686
3 694 687 686
3 593 694 686
3 594 694 593
3 696 695 596
3 695 594 596
3 695 694 594
3 698 697 696
3 696 697 695
3 698 699 697
3 700 597 598
3 700 598 701
3 598 702 701
3 598 599 702
3 703 599 600
3 703 702 599
3 600 587 688
3 704 600 688
3 703 600 704
3 704 688 689
3 601 696 596
3 698 696 705
3 696 602 705
3 602 706 705
3 602 696 601
3 698 705 699
3 707 603 604
3 708 707 604
3 708 604 597
3 709 708 597
3 700 709 597
3 709 700 701
3 711 710 605
3 711 605 606
3 710 713 712
3 608 710 712
3 605 710 608
3 712 609 608
3 610 706 602
3 610 714 706
3 715 613 614
3 716 715 614
3 716 614 603
3 717 716 603
3 707 717 603
3 717 707 708
3 615 711 606
3 615 718 711
3 712 713 719
3 719 713 720
3 719 617 609
3 719 609 712
3 723 722 721
3 725 724 721
3 725 721 722
3 726 724 725
3 728 727 619
3 728 619 620
3 610 619 714
3 714 619 727
3 729 622 623
3 613 715 623
3 715 729 623
3 715 730 729
3 715 716 731
3 715 731 730
3 625 718 615
3 625 732 718
3 719 720 733
3 733 720 734
3 733 627 617
3 733 617 719
3 629 735 630
3 630 735 736
3 737 630 736
3 631 630 737
3 721 738 633
3 737 721 633
3 631 737 633
3 723 721 737
3 739 721 724
3 738 721 739
3 724 726 740
3 741 724 740
3 739 724 741
3 740 728 741
3 728 634 741
3 728 620 634
3 742 635 729
3 729 635 622
3 730 744 743
3 742 730 743
3 729 730 742
3 744 730 731
3 637 745 636
3 746 638 636
3 746 636 745
3 746 640 638
3 748 747 643
3 748 643 642
3 625 643 732
3 732 643 747
3 733 734 749
3 749 734 750
3 751 644 627
3 733 751 627
3 749 751 733
3 752 645 644
3 752 644 751
3 752 753 645
3 645 753 629
3 753 754 629
3 754 735 629
3 755 646 647
3 754 736 735
3 633 738 647
3 738 755 647
3 738 756 755
3 757 738 739
3 756 738 757
3 649 757 648
3 757 741 648
3 757 739 741
3 648 741 634
3 742 650 635
3 759 758 651
3 759 651 650
3 743 759 650
3 742 743 650
3 760 758 759
3 762 761 745
3 637 762 745
3 652 762 637
3 745 761 746
3 746 761 763
3 746 763 640
3 763 653 640
3 763 764 653
3 653 765 654
3 764 765 653
3 642 654 748
3 748 654 765
3 750 766 749
3 749 766 751
3 751 766 767
3 751 767 752
3 752 767 768
3 752 768 753
3 755 655 646
3 655 755 656
3 656 755 756
3 656 756 657
3 657 756 757
3 657 757 649
3 758 658 651
3 770 769 660
3 770 660 658
3 760 770 658
3 758 760 658
3 771 769 770
3 661 762 652
3 661 772 762
3 769 662 660
3 774 773 663
3 774 663 662
3 771 774 662
3 769 771 662
3 775 773 774
3 665 777 776
3 772 665 776
3 661 665 772
3 777 778 776
3 779 667 773
3 773 667 663
3 773 775 780
3 781 773 780
3 779 773 781
3 780 782 777
3 669 780 777
3 665 669 777
3 781 780 669
3 777 782 778
3 779 670 667
3 670 779 671
3 671 779 781
3 671 781 669
3 783 672 673
3 783 673 784
3 673 785 784
3 673 674 785
3 786 674 675
3 786 785 674
3 788 786 787
3 786 676 787
3 786 675 676
3 677 787 676
3 790 789 679
3 679 789 678
3 679 672 783
3 791 679 783
3 790 679 791
3 791 783 784
3 792 788 787
3 787 677 792
3 677 793 792
3 677 681 793
3 796 795 794
3 683 684 794
3 684 796 794
3 684 797 796
3 798 684 685
3 798 797 684
3 800 799 687
3 799 685 687
3 799 798 685
3 800 801 799
3 802 689 690
3 803 802 690
3 678 803 690
3 789 803 678
3 681 691 804
3 805 681 804
3 793 681 805
3 804 691 806
3 691 807 806
3 691 692 807
3 693 794 795
3 807 693 795
3 692 693 807
3 794 693 683
3 694 800 687
3 808 801 800
3 694 808 800
3 695 808 694
3 809 695 697
3 809 808 695
3 697 699 809
3 809 699 810
3 811 701 702
3 703 812 702
3 702 812 811
3 704 813 703
3 703 813 812
3 689 802 704
3 802 813 704
3 802 814 813
3 802 803 815
3 802 815 814
3 816 805 804
3 816 804 806
3 818 817 705
3 818 705 706
3 699 705 810
3 810 705 817
3 820 819 709
3 709 819 708
3 709 701 811
3 821 709 811
3 820 709 821
3 821 811 812
3 821 812 822
3 822 812 813
3 822 813 823
3 823 813 814
3 823 814 824
3 824 814 815
3 711 825 710
3 825 713 710
3 714 818 706
3 714 826 818
3 827 716 717
3 828 827 717
3 708 828 717
3 819 828 708
3 718 829 825
3 718 825 711
3 829 720 713
3 829 713 825
3 831 830 722
3 831 722 723
3 722 832 725
3 830 832 722
3 726 725 832
3 726 832 833
3 835 834 727
3 835 727 728
3 714 727 826
3 826 727 834
3 837 836 827
3 836 716 827
3 836 731 716
3 837 827 828
3 732 838 829
3 732 829 718
3 838 734 720
3 838 720 829
3 840 839 737
3 840 737 736
3 723 737 831
3 831 737 839
3 833 841 726
3 726 841 740
3 728 740 835
3 835 740 841
3 842 743 744
3 843 842 744
3 731 843 744
3 836 843 731
3 748 844 747
3 838 732 747
3 844 838 747
3 845 838 844
3 845 750 734
3 845 734 838
3 753 846 754
3 846 847 754
3 847 736 754
3 847 840 736
3 842 759 743
3 849 848 760
3 849 760 759
3 843 849 759
3 842 843 759
3 850 848 849
3 762 851 761
3 761 851 852
3 853 761 852
3 763 761 853
3 763 854 764
3 853 854 763
3 764 855 765
3 854 855 764
3 748 765 844
3 765 856 844
3 765 855 856
3 844 856 845
3 845 856 857
3 857 859 858
3 857 858 766
3 845 857 766
3 750 845 766
3 860 767 766
3 860 766 858
3 861 768 767
3 861 767 860
3 861 862 768
3 768 862 753
3 862 863 753
3 863 846 753
3 846 863 847
3 848 770 760
3 865 864 771
3 865 771 770
3 850 865 770
3 848 850 770
3 866 864 865
3 772 867 851
3 772 851 762
3 852 851 868
3 868 851 867
3 858 859 869
3 869 859 870
3 858 871 860
3 858 869 871
3 873 861 872
3 861 871 872
3 861 860 871
3 861 873 862
3 864 774 771
3 875 874 775
3 875 775 774
3 866 875 774
3 864 866 774
3 877 876 875
3 876 867 875
3 772 875 867
3 875 772 874
3 776 874 772
3 874 776 876
3 876 878 874
3 877 878 876
3 876 776 867
3 878 877 778
3 877 868 778
3 867 776 778
3 867 778 868
3 870 879 869
3 869 879 871
3 871 879 880
3 871 880 872
3 874 780 775
3 780 874 782
3 782 874 878
3 782 878 778
3 882 881 785
3 785 881 784
3 883 785 786
3 883 882 785
3 786 788 883
3 883 788 884
3 886 885 790
3 790 885 789
3 887 790 791
3 887 886 790
3 791 784 881
3 791 881 887
3 888 884 788
3 888 788 792
3 792 793 888
3 888 793 889
3 891 890 796
3 796 890 795
3 892 796 797
3 892 891 796
3 893 797 798
3 893 892 797
3 894 798 799
3 894 893 798
3 799 801 894
3 894 801 895
3 885 803 789
3 896 803 885
3 805 889 793
3 805 897 889
3 899 898 807
3 807 898 806
3 807 795 890
3 807 890 899
3 900 895 801
3 900 801 808
3 902 900 901
3 900 809 901
3 900 808 809
3 810 901 809
3 896 815 803
3 903 815 896
3 904 897 805
3 904 805 816
3 816 806 898
3 816 898 904
3 902 901 817
3 818 902 817
3 905 902 818
3 817 901 810
3 906 819 820
3 906 820 907
3 820 908 907
3 820 821 908
3 909 821 822
3 909 908 821
3 911 909 910
3 909 823 910
3 909 822 823
3 824 912 823
3 823 912 910
3 913 912 824
3 815 913 824
3 903 913 815
3 826 905 818
3 826 914 905
3 916 915 906
3 915 819 906
3 915 828 819
3 916 906 907
3 917 911 910
3 917 910 912
3 917 912 918
3 918 912 913
3 920 919 830
3 920 830 831
3 830 921 832
3 919 921 830
3 833 832 921
3 833 921 922
3 924 923 834
3 924 834 835
3 826 834 914
3 914 834 923
3 925 836 837
3 926 925 837
3 828 926 837
3 915 926 828
3 928 927 839
3 928 839 840
3 831 839 920
3 920 839 927
3 922 929 833
3 833 929 841
3 835 841 924
3 924 841 929
3 930 843 925
3 925 843 836
3 925 926 931
3 925 931 930
3 847 928 840
3 847 932 928
3 930 849 843
3 850 849 930
3 931 850 930
3 933 850 931
3 935 934 853
3 935 853 852
3 853 936 854
3 934 936 853
3 854 937 855
3 936 937 854
3 855 938 856
3 937 938 855
3 938 940 939
3 857 938 939
3 856 938 857
3 939 859 857
3 942 941 863
3 942 863 862
3 847 863 932
3 932 863 941
3 933 943 850
3 850 943 865
3 945 944 866
3 865 945 866
3 943 945 865
3 946 944 945
3 868 935 852
3 868 947 935
3 940 948 939
3 870 859 939
3 949 870 939
3 948 949 939
3 870 949 950
3 952 951 950
3 952 950 949
3 953 873 872
3 954 951 952
3 953 955 873
3 955 862 873
3 955 942 862
3 944 875 866
3 946 956 944
3 956 875 944
3 956 877 875
3 868 877 947
3 947 877 956
3 950 879 870
3 879 950 880
3 880 950 951
3 951 954 880
3 954 957 880
3 953 872 880
3 953 880 957
3 953 957 955
3 958 881 882
3 883 959 882
3 882 959 958
3 884 959 883
3 960 885 886
3 960 886 961
3 886 962 961
3 886 887 962
3 887 881 958
3 963 887 958
3 962 887 963
3 963 958 959
3 963 959 964
3 966 964 965
3 965 964 888
3 964 959 888
3 959 884 888
3 889 965 888
3 968 967 891
3 891 967 890
3 969 891 892
3 969 968 891
3 970 892 893
3 970 969 892
3 972 970 971
3 970 894 971
3 970 893 894
3 895 971 894
3 974 973 960
3 973 885 960
3 973 896 885
3 974 960 961
3 975 966 965
3 965 889 975
3 889 976 975
3 889 897 976
3 978 977 899
3 899 977 898
3 899 890 967
3 899 967 978
3 979 972 971
3 979 971 895
3 900 979 895
3 980 979 900
3 900 902 980
3 980 902 981
3 973 903 896
3 982 903 973
3 983 976 897
3 983 897 904
3 904 898 977
3 904 977 983
3 905 981 902
3 905 984 981
3 985 907 908
3 985 908 986
3 908 987 986
3 908 909 987
3 989 988 911
3 988 909 911
3 988 987 909
3 991 990 989
3 989 990 988
3 982 990 991
3 913 982 991
3 903 982 913
3 994 993 992
3 993 984 992
3 984 914 992
3 984 905 914
3 996 995 916
3 916 995 915
3 916 907 985
3 997 916 985
3 996 916 997
3 997 985 986
3 917 989 911
3 989 917 918
3 989 918 991
3 991 918 913
3 999 998 919
3 999 919 920
3 998 1001 1000
3 921 998 1000
3 919 998 921
3 1000 922 921
3 994 992 923
3 924 994 923
3 1002 994 924
3 923 992 914
3 995 926 915
3 1003 926 995
3 1005 1004 927
3 1005 927 928
3 920 927 999
3 999 927 1004
3 1001 1006 1000
3 1000 1006 922
3 1006 929 922
3 1006 1007 929
3 924 929 1002
3 1002 929 1007
3 1003 931 926
3 1008 931 1003
3 932 1005 928
3 932 1009 1005
3 1008 933 931
3 1010 933 1008
3 1012 1011 934
3 1012 934 935
3 934 1013 936
3 1011 1013 934
3 936 1014 937
3 1013 1014 936
3 937 1015 938
3 1014 1015 937
3 1017 1016 940
3 938 1017 940
3 1015 1017 938
3 1019 1018 1016
3 1019 1016 1017
3 1020 1018 1019
3 942 1021 941
3 1021 1022 941
3 1022 932 941
3 1022 1009 932
3 1010 1023 933
3 933 1023 943
3 943 1024 945
3 1023 1024 943
3 1026 1025 946
3 945 1026 946
3 1024 1026 945
3 1026 1012 1025
3 1012 947 1025
3 1012 935 947
3 1016 948 940
3 948 1016 949
3 949 1016 1018
3 1020 1027 1018
3 1027 949 1018
3 1027 952 949
3 1029 1028 954
3 952 1029 954
3 1027 1029 952
3 1029 1030 1021
3 955 1029 1021
3 942 955 1021
3 1028 1029 955
3 1021 1030 1022
3 1025 956 946
3 956 1025 947
3 1028 957 954
3 957 1028 955
3 1031 961 962
3 1031 962 1032
3 962 1033 1032
3 962 963 1033
3 1035 1033 1034
3 1033 964 1034
3 1033 963 964
3 966 1034 964
3 1036 967 968
3 1036 968 1037
3 968 1038 1037
3 968 969 1038
3 1040 1038 1039
3 1038 970 1039
3 1038 969 970
3 972 1039 970
3 1042 1041 974
3 974 1041 973
3 974 961 1031
3 1043 974 1031
3 1042 974 1043
3 1043 1031 1032
3 1044 1035 1034
3 1046 1044 1045
3 1045 1044 975
3 1044 1034 975
3 1034 966 975
3 976 1045 975
3 1048 1047 978
3 978 1047 977
3 978 967 1036
3 1049 978 1036
3 1048 978 1049
3 1049 1036 1037
3 1050 1040 1039
3 1050 1039 972
3 979 1050 972
3 1051 1050 979
3 1053 1051 1052
3 1051 980 1052
3 1051 979 980
3 981 1052 980
3 1056 1055 1054
3 1058 1057 1054
3 1054 1057 1056
3 1041 1057 1058
3 982 1041 1058
3 973 1041 982
3 1059 1046 1045
3 1059 1045 976
3 983 1059 976
3 1060 1059 983
3 983 977 1047
3 983 1047 1060
3 1053 1052 1061
3 1053 1061 1062
3 984 1061 981
3 981 1061 1052
3 1064 1063 987
3 987 1063 986
3 988 1054 1055
3 1064 988 1055
3 987 988 1064
3 1054 988 990
3 1054 990 1058
3 1058 990 982
3 1062 1061 993
3 994 1062 993
3 1065 1062 994
3 993 1061 984
3 1066 995 996
3 1066 996 1067
3 996 1068 1067
3 996 997 1068
3 997 986 1063
3 997 1063 1068
3 999 1069 998
3 1069 1001 998
3 1072 1071 1070
3 1071 1065 1070
3 1065 1002 1070
3 1065 994 1002
3 1074 1073 1066
3 1073 995 1066
3 1073 1003 995
3 1074 1066 1067
3 1077 1076 1075
3 1078 1075 1076
3 1081 1080 1079
3 1082 1079 1080
3 1084 1083 1004
3 1084 1004 1005
3 999 1004 1069
3 1004 1085 1069
3 1004 1083 1085
3 1069 1085 1001
3 1085 1006 1001
3 1085 1086 1006
3 1070 1007 1072
3 1007 1086 1072
3 1007 1006 1086
3 1007 1070 1002
3 1088 1008 1087
3 1008 1073 1087
3 1008 1003 1073
3 1089 1088 1087
3 1092 1091 1090
3 1090 1091 1077
3 1075 1090 1077
3 1093 1090 1075
3 1075 1078 1094
3 1095 1075 1094
3 1093 1075 1095
3 1097 1096 1095
3 1097 1095 1094
3 1099 1098 1096
3 1099 1096 1097
3 1101 1100 1098
3 1101 1098 1099
3 1103 1102 1100
3 1103 1100 1101
3 1102 1103 1081
3 1079 1102 1081
3 1104 1102 1079
3 1079 1082 1105
3 1079 1105 1104
3 1009 1084 1005
3 1009 1106 1084
3 1107 1010 1088
3 1088 1010 1008
3 1088 1089 1108
3 1109 1088 1108
3 1107 1088 1109
3 1109 1108 1092
3 1090 1109 1092
3 1110 1109 1090
3 1012 1110 1011
3 1110 1093 1011
3 1110 1090 1093
3 1011 1093 1013
3 1013 1093 1095
3 1013 1095 1014
3 1014 1095 1096
3 1014 1096 1015
3 1015 1096 1098
3 1015 1098 1017
3 1017 1098 1100
3 1017 1100 1019
3 1019 1100 1102
3 1019 1102 1020
3 1102 1111 1020
3 1102 1104 1111
3 1104 1105 1112
3 1113 1104 1112
3 1111 1104 1113
3 1114 1113 1112
3 1022 1106 1009
3 1022 1115 1106
3 1107 1023 1010
3 1023 1107 1024
3 1024 1107 1109
3 1024 1109 1026
3 1026 1109 1110
3 1026 1110 1012
3 1111 1027 1020
3 1027 1111 1029
3 1029 1111 1113
3 1114 1116 1113
3 1116 1029 1113
3 1116 1030 1029
3 1022 1030 1115
3 1115 1030 1116
3 1117 1032 1033
3 1035 1117 1033
3 1118 1037 1038
3 1040 1118 1038
3 1121 1120 1119
3 1041 1042 1119
3 1042 1121 1119
3 1042 1122 1121
3 1123 1042 1043
3 1123 1122 1042
3 1043 1032 1117
3 1124 1043 1117
3 1123 1043 1124
3 1124 1117 1035
3 1044 1124 1035
3 1125 1124 1044
3 1044 1046 1125
3 1125 1046 1126
3 1127 1047 1048
3 1127 1048 1128
3 1048 1129 1128
3 1048 1049 1129
3 1049 1037 1118
3 1130 1049 1118
3 1129 1049 1130
3 1130 1118 1040
3 1050 1130 1040
3 1131 1130 1050
3 1133 1131 1132
3 1131 1051 1132
3 1131 1050 1051
3 1053 1132 1051
3 1135 1134 1056
3 1056 1134 1055
3 1057 1119 1120
3 1135 1057 1120
3 1056 1057 1135
3 1119 1057 1041
3 1046 1059 1136
3 1137 1046 1136
3 1126 1046 1137
3 1060 1138 1059
3 1059 1138 1136
3 1139 1138 1060
3 1139 1060 1047
3 1140 1139 1047
3 1127 1140 1047
3 1140 1127 1128
3 1133 1132 1141
3 1133 1141 1142
3 1062 1141 1053
3 1053 1141 1132
3 1144 1143 1064
3 1064 1143 1063
3 1064 1055 1134
3 1064 1134 1144
3 1145 1137 1136
3 1145 1136 1138
3 1145 1138 1146
3 1146 1138 1139
3 1142 1141 1147
3 1142 1147 1148
3 1065 1147 1062
3 1062 1147 1141
3 1149 1067 1068
3 1063 1143 1150
3 1149 1063 1150
3 1151 1149 1150
3 1068 1063 1149
3 1153 1152 1151
3 1153 1151 1150
3 1155 1154 1152
3 1155 1152 1153
3 1156 1154 1155
3 1159 1158 1157
3 1160 1157 1158
3 1148 1147 1071
3 1072 1148 1071
3 1161 1148 1072
3 1071 1147 1065
3 1162 1073 1074
3 1067 1149 1074
3 1149 1162 1074
3 1149 1163 1162
3 1164 1149 1151
3 1163 1149 1164
3 1077 1164 1076
3 1164 1152 1076
3 1164 1151 1152
3 1076 1152 1078
3 1152 1165 1078
3 1152 1154 1165
3 1154 1156 1166
3 1167 1154 1166
3 1165 1154 1167
3 1169 1168 1167
3 1169 1167 1166
3 1168 1169 1159
3 1157 1168 1159
3 1170 1168 1157
3 1157 1160 1171
3 1172 1157 1171
3 1170 1157 1172
3 1080 1081 1172
3 1171 1080 1172
3 1173 1080 1171
3 1082 1080 1173
3 1082 1173 1174
3 1084 1175 1083
3 1176 1085 1083
3 1176 1083 1175
3 1085 1176 1177
3 1178 1085 1177
3 1086 1085 1178
3 1072 1086 1161
3 1161 1086 1178
3 1162 1087 1073
3 1087 1162 1089
3 1162 1179 1089
3 1162 1163 1179
3 1092 1179 1091
3 1179 1164 1091
3 1179 1163 1164
3 1091 1164 1077
3 1165 1094 1078
3 1094 1165 1097
3 1097 1165 1167
3 1097 1167 1099
3 1099 1167 1168
3 1099 1168 1101
3 1101 1168 1170
3 1101 1170 1103
3 1103 1170 1172
3 1103 1172 1081
3 1174 1105 1082
3 1180 1105 1174
3 1182 1181 1175
3 1084 1182 1175
3 1106 1182 1084
3 1175 1181 1176
3 1176 1181 1183
3 1176 1183 1177
3 1179 1108 1089
3 1108 1179 1092
3 1180 1184 1105
3 1105 1184 1112
3 1186 1185 1114
3 1112 1186 1114
3 1184 1186 1112
3 1186 1182 1185
3 1182 1115 1185
3 1182 1106 1115
3 1185 1116 1114
3 1116 1185 1115
3 1188 1187 1121
3 1121 1187 1120
3 1189 1121 1122
3 1189 1188 1121
3 1190 1122 1123
3 1190 1189 1122
3 1191 1123 1124
3 1191 1190 1123
3 1193 1191 1192
3 1191 1125 1192
3 1191 1124 1125
3 1126 1192 1125
3 1195 1194 1129
3 1129 1194 1128
3 1196 1129 1130
3 1196 1195 1129
3 1198 1196 1197
3 1196 1131 1197
3 1196 1130 1131
3 1133 1197 1131
3 1200 1199 1135
3 1135 1199 1134
3 1135 1120 1187
3 1135 1187 1200
3 1201 1193 1192
3 1192 1126 1201
3 1126 1202 1201
3 1126 1137 1202
3 1204 1203 1140
3 1140 1203 1139
3 1140 1128 1194
3 1140 1194 1204
3 1205 1198 1197
3 1197 1133 1205
3 1133 1206 1205
3 1133 1142 1206
3 1207 1143 1144
3 1134 1199 1208
3 1207 1134 1208
3 1209 1207 1208
3 1144 1134 1207
3 1211 1210 1209
3 1211 1209 1208
3 1213 1212 1210
3 1213 1210 1211
3 1215 1214 1212
3 1215 1212 1213
3 1217 1216 1214
3 1217 1214 1215
3 1219 1218 1216
3 1219 1216 1217
3 1221 1220 1145
3 1220 1222 1145
3 1218 1145 1222
3 1145 1218 1137
3 1219 1137 1218
3 1137 1219 1220
3 1220 1202 1137
3 1221 1202 1220
3 1220 1219 1222
3 1223 1145 1146
3 1223 1221 1145
3 1146 1139 1203
3 1146 1203 1223
3 1148 1206 1142
3 1148 1224 1206
3 1207 1150 1143
3 1150 1207 1153
3 1153 1207 1209
3 1153 1209 1155
3 1155 1209 1210
3 1155 1210 1156
3 1210 1225 1156
3 1210 1212 1225
3 1226 1212 1214
3 1225 1212 1226
3 1159 1226 1158
3 1226 1216 1158
3 1226 1214 1216
3 1158 1216 1160
3 1216 1227 1160
3 1216 1218 1227
3 1218 1222 1228
3 1218 1228 1227
3 1161 1224 1148
3 1161 1229 1224
3 1225 1166 1156
3 1166 1225 1169
3 1169 1225 1226
3 1169 1226 1159
3 1227 1171 1160
3 1228 1230 1227
3 1230 1171 1227
3 1230 1173 1171
3 1174 1173 1230
3 1174 1230 1231
3 1233 1232 1178
3 1233 1178 1177
3 1161 1178 1229
3 1229 1178 1232
3 1235 1180 1234
3 1180 1231 1234
3 1180 1174 1231
3 1237 1236 1235
3 1237 1235 1234
3 1181 1182 1236
3 1237 1181 1236
3 1238 1181 1237
3 1181 1239 1183
3 1238 1239 1181
3 1177 1183 1233
3 1233 1183 1239
3 1235 1184 1180
3 1184 1235 1186
3 1186 1235 1236
3 1186 1236 1182
3 1240 1187 1188
3 1189 1241 1188
3 1188 1241 1240
3 1190 1242 1189
3 1189 1242 1241
3 1191 1243 1190
3 1190 1243 1242
3 1193 1243 1191
3 1244 1194 1195
3 1196 1245 1195
3 1195 1245 1244
3 1198 1245 1196
3 1246 1199 1200
3 1187 1240 1200
3 1240 1246 1200
3 1240 1247 1246
3 1248 1240 1241
3 1247 1240 1248
3 1249 1241 1242
3 1248 1241 1249
3 1250 1242 1243
3 1249 1242 1250
3 1201 1251 1193
3 1251 1243 1193
3 1251 1250 1243
3 1202 1251 1201
3 1253 1252 1204
3 1204 1252 1203
3 1204 1194 1244
3 1254 1204 1244
3 1253 1204 1254
3 1254 1244 1245
3 1254 1245 1255
3 1257 1255 1256
3 1256 1255 1205
3 1255 1245 1205
3 1245 1198 1205
3 1206 1256 1205
3 1246 1208 1199
3 1208 1246 1211
3 1211 1246 1247
3 1211 1247 1213
3 1213 1247 1248
3 1213 1248 1215
3 1215 1248 1249
3 1215 1249 1217
3 1217 1249 1250
3 1217 1250 1219
3 1219 1250 1251
3 1222 1219 1258
3 1219 1251 1258
3 1202 1221 1258
3 1202 1258 1251
3 1223 1259 1221
3 1221 1259 1258
3 1260 1259 1223
3 1203 1260 1223
3 1252 1260 1203
3 1261 1257 1256
3 1256 1206 1261
3 1206 1262 1261
3 1206 1224 1262
3 1263 1228 1258
3 1258 1228 1222
3 1259 1265 1264
3 1263 1259 1264
3 1258 1259 1263
3 1265 1259 1260
3 1229 1262 1224
3 1229 1266 1262
3 1263 1230 1228
3 1268 1267 1231
3 1268 1231 1230
3 1264 1268 1230
3 1263 1264 1230
3 1270 1269 1267
3 1270 1267 1268
3 1272 1271 1269
3 1272 1269 1270
3 1274 1273 1271
3 1274 1271 1272
3 1232 1233 1273
3 1274 1232 1273
3 1275 1232 1274
3 1229 1232 1266
3 1266 1232 1275
3 1267 1234 1231
3 1234 1267 1237
3 1237 1267 1269
3 1237 1269 1238
3 1238 1269 1271
3 1238 1271 1239
3 1239 1271 1273
3 1239 1273 1233
3 1276 1252 1253
3 1254 1277 1253
3 1253 1277 1276
3 1255 1278 1254
3 1254 1278 1277
3 1257 1278 1255
3 1279 1260 1276
3 1276 1260 1252
3 1277 1281 1280
3 1279 1277 1280
3 1276 1277 1279
3 1283 1282 1281
3 1277 1283 1281
3 1278 1283 1277
3 1261 1284 1257
3 1284 1278 1257
3 1284 1283 1278
3 1262 1284 1261
3 1285 1264 1265
3 1260 1279 1265
3 1279 1285 1265
3 1279 1286 1285
3 1279 1280 1287
3 1288 1279 1287
3 1286 1279 1288
3 1288 1287 1282
3 1283 1288 1282
3 1289 1288 1283
3 1290 1283 1284
3 1289 1283 1290
3 1266 1290 1262
3 1262 1290 1284
3 1285 1268 1264
3 1268 1285 1270
3 1270 1285 1286
3 1270 1286 1272
3 1272 1286 1288
3 1272 1288 1274
3 1274 1288 1289
3 1274 1289 1275
3 1275 1289 1290
3 1275 1290 1266
3 1291 1280 1281
3 1282 1291 1281
3 1291 1287 1280
3 1287 1291 1282
