ply
format ascii 1.0
element vertex 1749
property float x
property float y
property float z
element face 3538
property list uchar int vertex_indices
end_header
18.30000 75.49999 9.50000
17.80000 75.49999 9.00000
17.80000 75.99999 9.50000
17.80000 75.99999 10.50000
18.30000 75.49999 10.50000
17.80000 75.99999 11.50000
18.30000 75.49999 11.50000
17.80000 75.99999 12.50000
18.30000 75.49999 12.50000
17.80000 75.99999 13.50000
18.30000 75.49999 13.50000
17.80000 75.49999 14.00000
18.30000 74.49999 9.50000
17.80000 74.49999 9.00000
18.30000 74.49999 10.50000
18.30000 74.49999 11.50000
18.30000 74.49999 12.50000
18.30000 74.49999 13.50000
17.80000 74.49999 14.00000
17.80000 73.99999 9.50000
17.80000 73.99999 10.50000
18.30000 73.49999 11.50000
17.80000 73.49999 11.00000
18.30000 73.49999 12.50000
17.80000 73.49999 13.00000
17.80000 73.99999 13.50000
17.80000 72.99999 11.50000
17.80000 72.99999 12.50000
17.30000 75.49999 8.50000
16.80000 75.49999 8.00000
16.80000 75.99999 8.50000
16.80000 75.99999 9.50000
16.80000 75.99999 10.50000
16.80000 75.99999 11.50000
17.30000 75.49999 12.50000
16.80000 75.49999 12.00000
17.30000 75.49999 13.50000
16.80000 75.99999 14.50000
16.80000 75.49999 14.00000
17.30000 75.49999 14.50000
16.80000 75.49999 15.00000
17.30000 74.49999 8.50000
16.80000 74.49999 8.00000
16.80000 74.99999 12.50000
16.80000 74.99999 13.50000
17.30000 74.99999 14.00000
17.30000 74.49999 14.50000
16.80000 74.49999 15.00000
16.80000 73.99999 8.50000
17.30000 73.49999 9.50000
16.80000 73.49999 9.00000
17.30000 73.49999 10.50000
17.30000 73.49999 13.50000
17.30000 73.49999 14.50000
16.80000 73.49999 15.00000
16.80000 72.99999 9.50000
16.80000 72.99999 10.50000
17.30000 72.49999 11.50000
16.80000 72.49999 11.00000
17.30000 72.49999 12.50000
17.30000 72.49999 13.50000
16.80000 72.49999 14.00000
16.80000 72.99999 14.50000
16.80000 71.99999 11.50000
17.30000 71.49999 12.50000
16.80000 71.49999 12.00000
16.80000 71.49999 13.00000
16.80000 71.99999 13.50000
16.80000 70.99999 12.50000
16.30000 76.49999 9.50000
15.80000 76.49999 9.00000
15.80000 76.99999 9.50000
15.80000 76.99999 10.50000
16.30000 76.49999 10.50000
15.80000 76.99999 11.50000
16.30000 76.49999 11.50000
15.80000 76.49999 12.00000
15.80000 75.49999 8.00000
15.80000 75.99999 8.50000
15.80000 75.49999 12.00000
16.30000 75.49999 14.50000
15.80000 75.99999 15.50000
15.80000 75.49999 15.00000
16.30000 75.49999 15.50000
15.80000 75.49999 16.00000
16.30000 74.49999 6.50000
15.80000 74.49999 6.00000
15.80000 74.99999 6.50000
15.80000 74.99999 7.50000
16.30000 74.49999 7.50000
15.80000 74.99999 12.50000
15.80000 74.99999 13.50000
15.80000 74.99999 14.50000
15.80000 74.49999 15.00000
15.80000 74.99999 15.50000
15.80000 73.99999 6.50000
16.30000 73.49999 7.50000
15.80000 73.49999 7.00000
16.30000 73.49999 8.50000
15.80000 73.49999 15.00000
15.80000 72.99999 7.50000
15.80000 72.99999 8.50000
16.30000 72.49999 9.50000
15.80000 72.49999 9.00000
15.80000 72.49999 10.00000
15.80000 72.99999 10.50000
15.80000 72.49999 11.00000
16.30000 72.49999 14.50000
15.80000 72.49999 15.00000
15.80000 71.99999 9.50000
16.30000 71.49999 11.50000
15.80000 71.49999 11.00000
16.30000 71.49999 13.50000
15.80000 71.49999 14.00000
15.80000 71.99999 14.50000
15.80000 70.99999 11.50000
15.80000 70.99999 12.50000
15.80000 70.99999 13.50000
15.30000 77.49999 10.50000
14.80000 77.49999 10.00000
14.80000 77.99999 10.50000
14.80000 77.49999 11.00000
15.30000 76.49999 8.50000
14.80000 76.49999 8.00000
14.80000 76.99999 8.50000
14.80000 76.99999 9.50000
14.80000 76.99999 11.50000
14.80000 76.49999 12.00000
15.30000 75.49999 7.50000
14.80000 75.49999 7.00000
14.80000 75.99999 7.50000
14.80000 75.99999 12.50000
15.30000 75.49999 12.50000
14.80000 75.49999 13.00000
15.30000 75.49999 15.50000
15.30000 74.49999 5.50000
14.80000 74.49999 5.00000
14.80000 74.99999 5.50000
14.80000 74.99999 6.50000
14.80000 74.49999 13.00000
15.30000 74.49999 13.50000
15.30000 74.49999 14.50000
15.30000 74.49999 15.50000
14.80000 74.99999 15.50000
14.80000 74.49999 15.00000
14.80000 74.49999 16.00000
15.30000 73.49999 5.50000
14.80000 73.49999 5.00000
15.30000 73.49999 6.50000
14.80000 73.99999 13.50000
14.80000 73.99999 14.50000
15.30000 73.99999 15.00000
15.30000 73.49999 15.50000
14.80000 73.49999 16.00000
14.80000 72.99999 5.50000
14.80000 72.99999 6.50000
14.80000 72.99999 7.50000
15.30000 72.49999 8.50000
14.80000 72.49999 8.00000
14.80000 72.99999 10.50000
14.80000 72.49999 10.00000
14.80000 72.49999 11.00000
14.80000 72.99999 15.50000
14.80000 72.49999 15.00000
14.80000 71.99999 8.50000
14.80000 71.99999 9.50000
14.80000 71.49999 11.00000
15.30000 71.49999 14.50000
14.80000 71.49999 15.00000
14.80000 70.99999 11.50000
15.30000 70.49999 12.50000
14.80000 70.49999 12.00000
15.30000 70.49999 13.50000
14.80000 70.49999 14.00000
14.80000 70.99999 14.50000
14.80000 69.99999 12.50000
14.80000 69.99999 13.50000
14.30000 77.49999 9.50000
13.80000 77.49999 9.00000
13.80000 77.99999 9.50000
13.80000 77.99999 10.50000
13.80000 77.99999 11.50000
14.30000 77.49999 11.50000
13.80000 77.49999 12.00000
13.80000 76.49999 8.00000
13.80000 76.99999 8.50000
13.80000 76.99999 12.50000
14.30000 76.49999 12.50000
13.80000 76.49999 13.00000
13.80000 75.49999 7.00000
13.80000 75.99999 7.50000
13.80000 75.49999 13.00000
14.30000 74.49999 5.50000
13.80000 74.49999 6.00000
13.80000 74.99999 6.50000
13.80000 74.49999 13.00000
13.80000 74.49999 15.00000
13.80000 74.99999 15.50000
13.80000 74.49999 16.00000
14.30000 73.49999 1.50000
13.80000 73.49999 1.00000
13.80000 73.99999 1.50000
13.80000 73.99999 2.50000
14.30000 73.49999 2.50000
13.80000 73.99999 3.50000
14.30000 73.49999 3.50000
13.80000 73.99999 4.50000
14.30000 73.49999 4.50000
13.80000 73.99999 5.50000
14.30000 73.49999 13.50000
13.80000 73.49999 13.00000
13.80000 73.49999 14.00000
13.80000 73.99999 14.50000
13.80000 73.49999 16.00000
14.30000 72.49999 0.50000
13.80000 72.49999 0.00000
13.80000 72.99999 0.50000
14.30000 72.49999 1.50000
13.80000 72.49999 2.00000
13.80000 72.99999 2.50000
14.30000 72.49999 3.50000
13.80000 72.49999 3.00000
14.30000 72.49999 4.50000
14.30000 72.49999 5.50000
14.30000 72.49999 6.50000
14.30000 72.49999 7.50000
13.80000 72.99999 10.50000
13.80000 72.49999 10.00000
13.80000 72.49999 11.00000
13.80000 72.99999 13.50000
14.30000 72.49999 15.50000
13.80000 72.49999 16.00000
14.30000 71.49999 -0.50000
13.80000 71.49999 -1.00000
13.80000 71.99999 -0.50000
13.80000 71.99999 0.50000
13.80000 71.49999 0.00000
13.80000 71.99999 1.50000
13.80000 71.99999 3.50000
13.80000 71.99999 4.50000
13.80000 71.99999 5.50000
13.80000 71.99999 6.50000
14.30000 71.49999 7.50000
13.80000 71.49999 7.00000
14.30000 71.49999 8.50000
14.30000 71.49999 9.50000
13.80000 71.49999 10.00000
13.80000 71.49999 11.00000
13.80000 71.99999 15.50000
13.80000 71.49999 15.00000
13.80000 70.99999 -0.50000
13.80000 70.99999 7.50000
13.80000 70.99999 8.50000
13.80000 70.99999 9.50000
13.80000 70.99999 11.50000
13.80000 70.49999 12.00000
14.30000 70.49999 14.50000
13.80000 70.49999 15.00000
13.80000 69.99999 12.50000
13.80000 69.99999 13.50000
13.80000 69.99999 14.50000
12.80000 77.49999 9.00000
12.80000 77.99999 9.50000
12.80000 77.99999 10.50000
12.80000 77.99999 11.50000
12.80000 77.49999 12.00000
12.80000 76.49999 8.00000
12.80000 76.99999 8.50000
12.80000 76.99999 12.50000
12.80000 76.49999 13.00000
12.80000 75.49999 7.00000
12.80000 75.99999 7.50000
12.80000 75.49999 13.00000
13.30000 75.49999 15.50000
12.80000 75.49999 15.00000
12.80000 75.99999 15.50000
12.80000 75.49999 16.00000
13.30000 74.49999 6.50000
12.80000 74.49999 7.00000
12.80000 74.49999 13.00000
12.80000 74.49999 15.00000
12.80000 74.49999 16.00000
13.30000 73.49999 0.50000
12.80000 73.49999 0.00000
12.80000 73.99999 0.50000
12.80000 73.99999 1.50000
12.80000 73.99999 2.50000
12.80000 73.99999 3.50000
12.80000 73.99999 4.50000
12.80000 73.99999 5.50000
13.30000 73.49999 6.50000
12.80000 73.49999 6.00000
12.80000 73.49999 7.00000
12.80000 73.49999 13.00000
12.80000 73.49999 14.00000
12.80000 73.99999 14.50000
12.80000 73.99999 16.50000
13.30000 73.49999 16.50000
12.80000 73.49999 17.00000
13.30000 72.49999 -0.50000
12.80000 72.49999 -1.00000
12.80000 72.99999 -0.50000
13.30000 72.49999 2.50000
13.30000 72.49999 6.50000
12.80000 72.49999 6.00000
12.80000 72.99999 7.50000
13.30000 72.49999 7.50000
12.80000 72.49999 8.00000
12.80000 72.99999 10.50000
12.80000 72.49999 10.00000
12.80000 72.49999 11.00000
12.80000 72.99999 13.50000
12.80000 72.99999 16.50000
12.80000 72.49999 16.00000
13.30000 71.49999 -1.50000
12.80000 71.49999 -2.00000
12.80000 71.99999 -1.50000
13.30000 71.49999 0.50000
13.30000 71.49999 1.50000
13.30000 71.49999 2.50000
13.30000 71.49999 3.50000
13.30000 71.49999 4.50000
13.30000 71.49999 5.50000
12.80000 71.49999 6.00000
13.30000 71.49999 7.50000
12.80000 71.49999 8.00000
12.80000 71.49999 10.00000
12.80000 71.49999 11.00000
12.80000 71.99999 15.50000
12.80000 71.49999 15.00000
12.80000 70.99999 -1.50000
13.30000 70.49999 -0.50000
12.80000 70.49999 -1.00000
13.30000 70.49999 0.50000
12.80000 70.49999 1.00000
12.80000 70.99999 1.50000
12.80000 70.99999 2.50000
13.30000 70.49999 3.50000
12.80000 70.49999 3.00000
13.30000 70.49999 4.50000
13.30000 70.49999 5.50000
12.80000 70.99999 6.50000
13.30000 70.49999 6.50000
12.80000 70.99999 7.50000
13.30000 70.49999 7.50000
13.30000 70.99999 8.00000
13.30000 70.49999 8.50000
13.30000 70.49999 9.50000
12.80000 70.49999 10.00000
12.80000 70.99999 11.50000
12.80000 70.49999 12.00000
13.30000 70.49999 14.50000
12.80000 70.99999 14.50000
12.80000 70.49999 14.00000
12.80000 69.99999 -0.50000
12.80000 69.99999 0.50000
12.80000 69.99999 3.50000
13.30000 69.49999 4.50000
12.80000 69.49999 4.00000
13.30000 69.49999 5.50000
12.80000 69.49999 6.00000
12.80000 69.99999 6.50000
12.80000 69.99999 7.50000
13.30000 69.49999 8.50000
12.80000 69.49999 8.00000
12.80000 69.49999 9.00000
12.80000 69.99999 9.50000
12.80000 69.99999 12.50000
12.80000 69.99999 13.50000
12.80000 68.99999 4.50000
12.80000 68.99999 5.50000
12.80000 68.99999 8.50000
12.30000 78.49999 10.50000
11.80000 78.49999 10.00000
11.80000 78.99999 10.50000
11.80000 78.99999 11.50000
12.30000 78.49999 11.50000
11.80000 78.49999 12.00000
12.30000 77.49999 8.50000
11.80000 77.49999 8.00000
11.80000 77.99999 8.50000
11.80000 77.99999 9.50000
11.80000 77.49999 12.00000
12.30000 77.49999 16.50000
11.80000 77.49999 16.00000
11.80000 77.99999 16.50000
11.80000 77.49999 17.00000
12.30000 76.49999 7.50000
11.80000 76.49999 7.00000
11.80000 76.99999 7.50000
11.80000 76.99999 12.50000
11.80000 76.49999 13.00000
12.30000 76.49999 15.50000
11.80000 76.49999 15.00000
11.80000 76.99999 15.50000
12.30000 76.49999 16.50000
11.80000 76.49999 17.00000
12.30000 75.49999 6.50000
11.80000 75.49999 6.00000
11.80000 75.99999 6.50000
11.80000 75.49999 13.00000
11.80000 75.49999 15.00000
12.30000 75.49999 16.50000
11.80000 75.49999 17.00000
12.30000 74.49999 2.50000
11.80000 74.49999 2.00000
11.80000 74.99999 2.50000
11.80000 74.49999 3.00000
12.30000 74.49999 6.50000
11.80000 74.49999 6.00000
11.80000 74.49999 13.00000
12.30000 74.49999 14.50000
11.80000 74.49999 14.00000
11.80000 74.99999 14.50000
12.30000 74.49999 16.50000
11.80000 74.49999 17.00000
12.30000 73.49999 -1.50000
11.80000 73.49999 -2.00000
11.80000 73.99999 -1.50000
11.80000 73.99999 -0.50000
12.30000 73.49999 -0.50000
11.80000 73.99999 0.50000
11.80000 73.99999 1.50000
11.80000 73.99999 3.50000
11.80000 73.99999 4.50000
12.30000 73.49999 5.50000
11.80000 73.49999 5.00000
11.80000 73.99999 6.50000
11.80000 73.49999 7.00000
11.80000 73.99999 13.50000
12.30000 73.49999 13.50000
11.80000 73.49999 17.00000
12.30000 72.49999 -1.50000
11.80000 72.49999 -2.00000
12.30000 72.49999 5.50000
11.80000 72.49999 5.00000
12.30000 72.49999 7.50000
11.80000 72.49999 7.00000
11.80000 72.99999 10.50000
11.80000 72.49999 10.00000
11.80000 72.49999 11.00000
11.80000 72.99999 16.50000
11.80000 72.49999 16.00000
11.80000 71.49999 -2.00000
11.80000 71.99999 5.50000
11.80000 71.49999 6.00000
12.30000 71.49999 7.50000
11.80000 71.49999 7.00000
11.80000 71.49999 10.00000
11.80000 71.49999 11.00000
11.80000 71.99999 15.50000
11.80000 71.49999 15.00000
12.30000 70.49999 -1.50000
11.80000 70.49999 -2.00000
12.30000 70.49999 1.50000
12.30000 70.49999 2.50000
11.80000 70.99999 6.50000
11.80000 70.49999 10.00000
11.80000 70.99999 11.50000
12.30000 70.49999 12.50000
11.80000 70.99999 12.50000
11.80000 70.49999 13.00000
11.80000 70.99999 14.50000
11.80000 70.49999 14.00000
11.80000 69.99999 -1.50000
11.80000 69.99999 -0.50000
11.80000 69.99999 0.50000
11.80000 69.99999 1.50000
11.80000 69.99999 2.50000
12.30000 69.49999 3.50000
11.80000 69.49999 3.00000
12.30000 69.49999 6.50000
12.30000 69.49999 7.50000
12.30000 69.49999 9.50000
11.80000 69.49999 10.00000
11.80000 69.99999 13.50000
11.80000 68.99999 3.50000
12.30000 68.49999 4.50000
11.80000 68.49999 4.00000
12.30000 68.49999 5.50000
12.30000 68.49999 6.50000
12.30000 68.49999 7.50000
12.30000 68.49999 8.50000
11.80000 68.49999 9.00000
11.80000 68.99999 9.50000
11.80000 67.99999 4.50000
12.30000 67.49999 5.50000
11.80000 67.49999 5.00000
11.80000 67.49999 6.00000
11.80000 67.99999 6.50000
11.80000 67.99999 7.50000
11.80000 67.99999 8.50000
11.80000 66.99999 5.50000
10.80000 78.49999 10.00000
10.80000 78.99999 10.50000
10.80000 78.99999 11.50000
10.80000 78.49999 12.00000
10.80000 77.49999 8.00000
10.80000 77.99999 8.50000
10.80000 77.99999 9.50000
10.80000 77.49999 12.00000
10.80000 77.49999 16.00000
10.80000 77.99999 16.50000
10.80000 77.99999 17.50000
11.30000 77.49999 17.50000
10.80000 77.49999 18.00000
10.80000 76.49999 7.00000
10.80000 76.99999 7.50000
10.80000 76.99999 12.50000
10.80000 76.49999 13.00000
10.80000 76.49999 15.00000
10.80000 76.99999 15.50000
10.80000 76.99999 17.50000
10.80000 76.49999 17.00000
10.80000 75.49999 6.00000
10.80000 75.99999 6.50000
10.80000 75.49999 13.00000
11.30000 75.49999 14.50000
10.80000 75.49999 14.00000
10.80000 75.99999 14.50000
10.80000 75.49999 17.00000
11.30000 74.49999 0.50000
10.80000 74.49999 0.00000
10.80000 74.99999 0.50000
10.80000 74.99999 1.50000
11.30000 74.49999 1.50000
10.80000 74.99999 2.50000
10.80000 74.49999 3.00000
10.80000 74.49999 6.00000
10.80000 74.99999 13.50000
11.30000 74.49999 13.50000
10.80000 74.49999 17.00000
10.80000 73.49999 -2.00000
10.80000 73.99999 -1.50000
10.80000 73.99999 -0.50000
10.80000 73.99999 3.50000
11.30000 73.49999 4.50000
10.80000 73.49999 4.00000
11.30000 73.49999 6.50000
10.80000 73.49999 6.00000
10.80000 73.49999 17.00000
11.30000 72.49999 -2.50000
10.80000 72.49999 -3.00000
10.80000 72.99999 -2.50000
10.80000 72.99999 4.50000
10.80000 72.49999 5.00000
10.80000 72.99999 6.50000
10.80000 72.49999 7.00000
11.30000 72.49999 9.50000
10.80000 72.99999 9.50000
10.80000 72.49999 9.00000
10.80000 72.99999 10.50000
10.80000 72.49999 11.00000
11.30000 72.49999 16.50000
10.80000 72.49999 17.00000
11.30000 71.49999 -2.50000
10.80000 71.49999 -3.00000
11.30000 71.49999 5.50000
10.80000 71.49999 5.00000
10.80000 71.99999 6.50000
10.80000 71.49999 6.00000
11.30000 71.49999 6.50000
11.30000 71.49999 9.50000
10.80000 71.49999 9.00000
10.80000 71.99999 11.50000
11.30000 71.49999 11.50000
10.80000 71.49999 12.00000
10.80000 71.99999 15.50000
10.80000 71.49999 15.00000
10.80000 71.99999 16.50000
11.30000 70.49999 -2.50000
10.80000 70.49999 -3.00000
11.30000 70.49999 1.50000
10.80000 70.99999 1.50000
10.80000 70.49999 1.00000
10.80000 70.49999 2.00000
10.80000 70.99999 5.50000
11.30000 70.49999 9.50000
10.80000 70.49999 9.00000
10.80000 70.99999 12.50000
11.30000 70.49999 13.50000
10.80000 70.99999 13.50000
10.80000 70.99999 14.50000
10.80000 69.99999 -2.50000
10.80000 69.99999 -1.50000
10.80000 69.99999 -0.50000
11.30000 69.49999 0.50000
10.80000 69.49999 0.00000
10.80000 69.49999 1.00000
10.80000 69.99999 2.50000
10.80000 69.49999 3.00000
11.30000 69.49999 9.50000
10.80000 69.49999 9.00000
10.80000 68.99999 0.50000
11.30000 68.49999 3.50000
10.80000 68.49999 3.00000
11.30000 68.49999 8.50000
10.80000 68.99999 8.50000
10.80000 68.49999 8.00000
10.80000 67.99999 3.50000
11.30000 67.49999 4.50000
10.80000 67.49999 4.00000
11.30000 67.49999 6.50000
10.80000 67.49999 7.00000
10.80000 67.99999 7.50000
10.80000 66.99999 4.50000
10.80000 66.99999 5.50000
10.80000 66.99999 6.50000
9.80000 78.49999 10.00000
9.80000 78.99999 10.50000
9.80000 78.99999 11.50000
9.80000 78.49999 12.00000
9.80000 77.49999 8.00000
9.80000 77.99999 8.50000
9.80000 77.99999 9.50000
9.80000 77.99999 12.50000
10.30000 77.49999 12.50000
9.80000 77.49999 13.00000
9.80000 77.49999 16.00000
9.80000 77.99999 16.50000
9.80000 77.99999 17.50000
9.80000 77.49999 18.00000
9.80000 76.49999 7.00000
9.80000 76.99999 7.50000
9.80000 76.49999 13.00000
9.80000 76.49999 15.00000
9.80000 76.99999 15.50000
10.30000 76.49999 17.50000
9.80000 76.49999 18.00000
9.80000 75.49999 6.00000
9.80000 75.99999 6.50000
9.80000 75.49999 13.00000
9.80000 75.49999 14.00000
9.80000 75.99999 14.50000
10.30000 75.49999 17.50000
9.80000 75.49999 18.00000
10.30000 74.49999 -1.50000
9.80000 74.49999 -2.00000
9.80000 74.99999 -1.50000
9.80000 74.99999 -0.50000
10.30000 74.49999 -0.50000
9.80000 74.99999 0.50000
9.80000 74.99999 1.50000
9.80000 74.99999 2.50000
9.80000 74.49999 3.00000
9.80000 74.49999 6.00000
9.80000 74.99999 13.50000
10.30000 74.49999 17.50000
9.80000 74.49999 18.00000
9.80000 73.49999 -2.00000
9.80000 73.99999 3.50000
9.80000 73.49999 4.00000
9.80000 73.49999 6.00000
10.30000 73.49999 9.50000
9.80000 73.99999 9.50000
9.80000 73.49999 9.00000
10.30000 73.49999 10.50000
9.80000 73.99999 10.50000
9.80000 73.49999 11.00000
9.80000 73.99999 17.50000
9.80000 73.49999 17.00000
9.80000 72.49999 -3.00000
9.80000 72.99999 -2.50000
10.30000 72.49999 4.50000
9.80000 72.49999 4.00000
10.30000 72.49999 6.50000
9.80000 72.49999 6.00000
9.80000 72.49999 9.00000
9.80000 72.49999 11.00000
9.80000 72.49999 17.00000
10.30000 71.49999 -3.50000
9.80000 71.49999 -4.00000
9.80000 71.99999 -3.50000
10.30000 71.49999 4.50000
9.80000 71.49999 4.00000
9.80000 71.49999 6.00000
9.80000 71.49999 9.00000
9.80000 71.99999 11.50000
9.80000 71.49999 12.00000
9.80000 71.99999 15.50000
9.80000 71.49999 15.00000
9.80000 71.99999 16.50000
10.30000 70.49999 -3.50000
9.80000 70.49999 -4.00000
10.30000 70.49999 0.50000
9.80000 70.99999 0.50000
9.80000 70.49999 0.00000
9.80000 70.99999 1.50000
9.80000 70.49999 2.00000
9.80000 70.99999 4.50000
9.80000 70.99999 5.50000
10.30000 70.49999 8.50000
9.80000 70.99999 8.50000
9.80000 70.49999 8.00000
9.80000 70.99999 12.50000
9.80000 70.99999 13.50000
9.80000 70.99999 14.50000
9.80000 69.99999 -3.50000
9.80000 69.99999 -2.50000
9.80000 69.99999 -1.50000
10.30000 69.49999 -0.50000
9.80000 69.49999 -1.00000
9.80000 69.99999 0.50000
9.80000 69.49999 1.00000
10.30000 69.49999 2.50000
9.80000 69.49999 2.00000
10.30000 69.49999 8.50000
9.80000 69.49999 8.00000
9.80000 68.99999 -0.50000
9.80000 68.99999 0.50000
9.80000 68.99999 2.50000
9.80000 68.49999 3.00000
10.30000 68.49999 7.50000
9.80000 68.99999 7.50000
9.80000 68.49999 7.00000
9.80000 67.99999 3.50000
9.80000 67.49999 4.00000
10.30000 67.49999 6.50000
9.80000 67.99999 6.50000
9.80000 67.49999 6.00000
9.80000 66.99999 4.50000
9.80000 66.99999 5.50000
8.80000 78.49999 10.00000
8.80000 78.99999 10.50000
8.80000 78.99999 11.50000
8.80000 78.49999 12.00000
8.80000 77.49999 8.00000
8.80000 77.99999 8.50000
8.80000 77.99999 9.50000
8.80000 77.99999 12.50000
8.80000 77.49999 13.00000
9.30000 77.49999 16.50000
8.80000 77.49999 17.00000
8.80000 77.99999 17.50000
8.80000 77.99999 18.50000
9.30000 77.49999 18.50000
8.80000 77.49999 19.00000
9.30000 76.49999 6.50000
8.80000 76.49999 6.00000
8.80000 76.99999 6.50000
8.80000 76.99999 7.50000
8.80000 76.49999 13.00000
8.80000 76.49999 15.00000
8.80000 76.99999 15.50000
8.80000 76.99999 16.50000
9.30000 76.49999 18.50000
8.80000 76.49999 19.00000
9.30000 75.49999 -0.50000
8.80000 75.49999 -1.00000
8.80000 75.99999 -0.50000
8.80000 75.99999 0.50000
9.30000 75.49999 0.50000
8.80000 75.99999 1.50000
9.30000 75.49999 1.50000
8.80000 75.49999 2.00000
8.80000 75.49999 6.00000
8.80000 75.99999 13.50000
9.30000 75.49999 13.50000
8.80000 75.99999 14.50000
9.30000 75.49999 18.50000
8.80000 75.49999 19.00000
8.80000 74.49999 -2.00000
8.80000 74.99999 -1.50000
8.80000 74.99999 2.50000
8.80000 74.49999 3.00000
9.30000 74.49999 5.50000
8.80000 74.49999 5.00000
8.80000 74.99999 5.50000
8.80000 74.99999 18.50000
8.80000 74.49999 18.00000
9.30000 73.49999 -2.50000
8.80000 73.49999 -3.00000
8.80000 73.99999 -2.50000
9.30000 73.49999 3.50000
8.80000 73.49999 3.00000
9.30000 73.49999 5.50000
8.80000 73.49999 5.00000
8.80000 73.99999 9.50000
8.80000 73.49999 9.00000
8.80000 73.99999 10.50000
8.80000 73.49999 11.00000
9.30000 73.49999 17.50000
8.80000 73.49999 18.00000
9.30000 72.49999 -3.50000
8.80000 72.49999 -4.00000
8.80000 72.99999 -3.50000
8.80000 72.99999 3.50000
8.80000 72.49999 4.00000
9.30000 72.49999 5.50000
8.80000 72.49999 5.00000
9.30000 72.49999 8.50000
8.80000 72.99999 8.50000
8.80000 72.49999 8.00000
8.80000 72.49999 11.00000
9.30000 72.49999 15.50000
8.80000 72.99999 15.50000
8.80000 72.49999 15.00000
9.30000 72.49999 16.50000
8.80000 72.99999 16.50000
9.30000 72.99999 17.00000
8.80000 72.49999 17.00000
9.30000 72.49999 17.50000
8.80000 72.49999 18.00000
8.80000 71.49999 -4.00000
8.80000 71.49999 4.00000
9.30000 71.49999 5.50000
8.80000 71.49999 5.00000
9.30000 71.49999 8.50000
8.80000 71.49999 8.00000
8.80000 71.99999 11.50000
8.80000 71.49999 12.00000
9.30000 71.49999 14.50000
8.80000 71.99999 14.50000
8.80000 71.49999 14.00000
9.30000 71.49999 16.50000
8.80000 71.49999 16.00000
8.80000 71.99999 16.50000
8.80000 71.99999 17.50000
8.80000 71.49999 17.00000
8.80000 70.49999 -4.00000
8.80000 70.99999 0.50000
8.80000 70.49999 0.00000
8.80000 70.99999 1.50000
8.80000 70.49999 2.00000
8.80000 70.99999 4.50000
8.80000 70.49999 8.00000
8.80000 70.99999 12.50000
8.80000 70.99999 13.50000
8.80000 70.99999 16.50000
8.80000 69.99999 -3.50000
9.30000 69.49999 -2.50000
8.80000 69.49999 -3.00000
9.30000 69.49999 -1.50000
9.30000 69.49999 0.50000
8.80000 69.49999 0.00000
8.80000 69.49999 2.00000
9.30000 69.49999 7.50000
8.80000 69.99999 7.50000
8.80000 69.49999 7.00000
8.80000 68.99999 -2.50000
8.80000 68.99999 -1.50000
8.80000 68.99999 -0.50000
8.80000 68.99999 2.50000
8.80000 68.49999 3.00000
9.30000 68.49999 6.50000
8.80000 68.99999 6.50000
8.80000 68.49999 6.00000
8.80000 67.99999 3.50000
9.30000 67.49999 4.50000
8.80000 67.99999 4.50000
9.30000 67.49999 5.50000
8.80000 67.99999 5.50000
8.30000 78.49999 10.50000
7.80000 78.49999 11.00000
7.80000 78.99999 11.50000
7.80000 78.49999 12.00000
8.30000 77.49999 8.50000
7.80000 77.49999 9.00000
7.80000 77.99999 9.50000
7.80000 77.99999 10.50000
7.80000 77.99999 12.50000
7.80000 77.49999 13.00000
8.30000 77.49999 17.50000
8.30000 77.49999 18.50000
7.80000 76.49999 6.00000
7.80000 76.99999 6.50000
7.80000 76.99999 7.50000
7.80000 76.99999 8.50000
7.80000 76.49999 13.00000
8.30000 76.49999 15.50000
7.80000 76.49999 16.00000
7.80000 76.99999 16.50000
7.80000 76.99999 17.50000
7.80000 76.99999 18.50000
7.80000 76.49999 19.00000
7.80000 75.49999 -1.00000
7.80000 75.99999 -0.50000
7.80000 75.99999 0.50000
7.80000 75.99999 1.50000
7.80000 75.49999 2.00000
8.30000 75.49999 5.50000
7.80000 75.49999 5.00000
7.80000 75.99999 5.50000
7.80000 75.99999 13.50000
7.80000 75.99999 14.50000
7.80000 75.99999 15.50000
7.80000 75.99999 19.50000
8.30000 75.49999 19.50000
7.80000 75.49999 20.00000
7.80000 74.49999 -2.00000
7.80000 74.99999 -1.50000
8.30000 74.49999 2.50000
7.80000 74.49999 2.00000
7.80000 74.49999 5.00000
8.30000 74.49999 18.50000
7.80000 74.49999 19.00000
7.80000 74.99999 19.50000
7.80000 73.49999 -3.00000
7.80000 73.99999 -2.50000
7.80000 73.99999 2.50000
7.80000 73.49999 3.00000
7.80000 73.49999 5.00000
8.30000 73.49999 8.50000
7.80000 73.99999 8.50000
7.80000 73.49999 8.00000
7.80000 73.99999 9.50000
7.80000 73.99999 10.50000
7.80000 73.49999 11.00000
8.30000 73.49999 18.50000
7.80000 73.49999 19.00000
7.80000 72.49999 -4.00000
7.80000 72.99999 -3.50000
8.30000 72.49999 3.50000
7.80000 72.49999 3.00000
7.80000 72.49999 5.00000
7.80000 72.49999 8.00000
7.80000 72.99999 11.50000
8.30000 72.49999 11.50000
7.80000 72.49999 12.00000
8.30000 72.49999 15.50000
8.30000 72.49999 16.50000
7.80000 72.99999 18.50000
7.80000 72.49999 18.00000
8.30000 71.49999 -4.50000
7.80000 71.49999 -5.00000
7.80000 71.99999 -4.50000
8.30000 71.49999 0.50000
7.80000 71.99999 0.50000
7.80000 71.49999 0.00000
7.80000 71.49999 1.00000
7.80000 71.99999 3.50000
7.80000 71.99999 4.50000
8.30000 71.49999 4.50000
8.30000 71.49999 7.50000
7.80000 71.99999 7.50000
7.80000 71.49999 7.00000
8.30000 71.49999 12.50000
7.80000 71.99999 12.50000
8.30000 71.49999 13.50000
7.80000 71.99999 13.50000
7.80000 71.99999 14.50000
7.80000 71.99999 15.50000
7.80000 71.49999 16.00000
8.30000 71.99999 17.00000
7.80000 71.49999 17.00000
7.80000 71.99999 17.50000
8.30000 70.49999 -4.50000
7.80000 70.49999 -5.00000
8.30000 70.49999 -0.50000
7.80000 70.99999 -0.50000
7.80000 70.49999 -1.00000
7.80000 70.99999 1.50000
7.80000 70.49999 2.00000
8.30000 70.49999 7.50000
7.80000 70.49999 7.00000
8.30000 70.49999 9.50000
7.80000 70.49999 9.00000
7.80000 70.99999 9.50000
7.80000 70.49999 10.00000
8.30000 70.49999 16.50000
7.80000 70.49999 16.00000
7.80000 70.49999 17.00000
7.80000 69.99999 -4.50000
7.80000 69.99999 -3.50000
7.80000 69.49999 -3.00000
8.30000 69.49999 -0.50000
7.80000 69.49999 -1.00000
7.80000 69.49999 2.00000
8.30000 69.49999 6.50000
7.80000 69.99999 6.50000
7.80000 69.49999 6.00000
7.80000 69.99999 9.50000
7.80000 69.99999 16.50000
7.80000 68.99999 -2.50000
7.80000 68.99999 -1.50000
7.80000 68.99999 2.50000
7.80000 68.49999 3.00000
7.80000 68.49999 6.00000
7.80000 67.99999 3.50000
7.80000 67.99999 4.50000
7.80000 67.99999 5.50000
7.30000 78.49999 11.50000
6.80000 77.49999 9.00000
6.80000 77.99999 9.50000
6.80000 77.99999 10.50000
6.80000 77.99999 11.50000
6.80000 77.99999 12.50000
6.80000 77.49999 13.00000
6.80000 76.49999 6.00000
6.80000 76.99999 6.50000
6.80000 76.99999 7.50000
6.80000 76.99999 8.50000
6.80000 76.99999 13.50000
7.30000 76.49999 13.50000
6.80000 76.49999 14.00000
7.30000 76.49999 16.50000
7.30000 76.49999 17.50000
7.30000 76.49999 18.50000
6.80000 75.49999 -1.00000
6.80000 75.99999 -0.50000
6.80000 75.99999 0.50000
6.80000 75.99999 1.50000
6.80000 75.49999 2.00000
6.80000 75.49999 5.00000
6.80000 75.99999 5.50000
6.80000 75.49999 14.00000
7.30000 75.49999 14.50000
6.80000 75.49999 15.00000
6.80000 75.99999 15.50000
6.80000 75.99999 16.50000
6.80000 75.99999 17.50000
6.80000 75.99999 18.50000
7.30000 75.49999 19.50000
6.80000 75.49999 19.00000
6.80000 74.49999 -2.00000
6.80000 74.99999 -1.50000
6.80000 74.49999 2.00000
7.30000 74.49999 4.50000
6.80000 74.49999 4.00000
6.80000 74.99999 4.50000
7.30000 74.49999 10.50000
6.80000 74.99999 10.50000
6.80000 74.49999 10.00000
6.80000 74.49999 11.00000
6.80000 74.99999 14.50000
6.80000 74.49999 19.00000
6.80000 73.49999 -3.00000
6.80000 73.99999 -2.50000
7.30000 73.49999 2.50000
6.80000 73.49999 2.00000
7.30000 73.49999 4.50000
6.80000 73.49999 4.00000
6.80000 73.99999 8.50000
6.80000 73.49999 8.00000
6.80000 73.99999 9.50000
7.30000 73.49999 11.50000
6.80000 73.99999 11.50000
6.80000 73.49999 12.00000
6.80000 73.49999 19.00000
6.80000 72.49999 -4.00000
6.80000 72.99999 -3.50000
6.80000 72.99999 2.50000
6.80000 72.99999 3.50000
7.30000 72.49999 3.50000
7.30000 72.49999 4.50000
7.30000 72.49999 7.50000
6.80000 72.99999 7.50000
6.80000 72.49999 7.00000
6.80000 72.49999 12.00000
7.30000 72.49999 18.50000
6.80000 72.49999 19.00000
6.80000 71.49999 -5.00000
6.80000 71.99999 -4.50000
7.30000 71.49999 -0.50000
6.80000 71.99999 -0.50000
6.80000 71.49999 -1.00000
7.30000 71.49999 0.50000
6.80000 71.49999 0.00000
7.30000 71.49999 6.50000
6.80000 71.99999 6.50000
6.80000 71.49999 6.00000
7.30000 71.49999 9.50000
6.80000 71.49999 9.00000
6.80000 71.99999 9.50000
6.80000 71.99999 10.50000
7.30000 71.49999 10.50000
6.80000 71.99999 11.50000
7.30000 71.49999 11.50000
6.80000 71.99999 12.50000
6.80000 71.49999 12.00000
6.80000 71.99999 13.50000
6.80000 71.99999 14.50000
6.80000 71.99999 15.50000
6.80000 71.49999 16.00000
7.30000 71.49999 17.50000
6.80000 71.49999 18.00000
6.80000 71.99999 18.50000
6.80000 70.49999 -5.00000
6.80000 70.49999 -1.00000
6.80000 70.99999 0.50000
6.80000 70.99999 1.50000
6.80000 70.49999 2.00000
7.30000 70.49999 6.50000
6.80000 70.49999 6.00000
7.30000 70.49999 8.50000
6.80000 70.49999 8.00000
6.80000 70.99999 8.50000
7.30000 70.49999 9.50000
6.80000 70.49999 9.00000
6.80000 70.99999 9.50000
6.80000 70.99999 10.50000
6.80000 70.99999 11.50000
6.80000 70.49999 16.00000
7.30000 70.49999 17.50000
6.80000 70.49999 18.00000
6.80000 69.99999 -4.50000
6.80000 69.99999 -3.50000
6.80000 69.49999 -3.00000
7.30000 69.49999 -1.50000
6.80000 69.99999 -1.50000
6.80000 69.49999 -2.00000
6.80000 69.49999 2.00000
6.80000 69.49999 6.00000
6.80000 69.99999 8.50000
6.80000 69.99999 16.50000
6.80000 69.99999 17.50000
6.80000 68.99999 -2.50000
6.80000 68.99999 2.50000
7.30000 68.49999 3.50000
6.80000 68.99999 3.50000
7.30000 68.49999 4.50000
6.80000 68.99999 4.50000
7.30000 68.49999 5.50000
6.80000 68.99999 5.50000
5.80000 77.49999 9.00000
5.80000 77.99999 9.50000
5.80000 77.99999 10.50000
5.80000 77.99999 11.50000
5.80000 77.99999 12.50000
5.80000 77.49999 13.00000
5.80000 76.49999 6.00000
5.80000 76.99999 6.50000
5.80000 76.99999 7.50000
5.80000 76.99999 8.50000
5.80000 76.99999 13.50000
5.80000 76.49999 14.00000
6.30000 75.49999 -0.50000
6.30000 75.49999 0.50000
6.30000 75.49999 1.50000
6.30000 75.49999 4.50000
5.80000 75.49999 4.00000
5.80000 75.99999 4.50000
5.80000 75.99999 5.50000
5.80000 75.49999 14.00000
6.30000 75.49999 15.50000
6.30000 75.49999 16.50000
6.30000 75.49999 17.50000
6.30000 75.49999 18.50000
5.80000 74.49999 -2.00000
5.80000 74.99999 -1.50000
5.80000 74.99999 -0.50000
5.80000 74.99999 0.50000
5.80000 74.49999 1.00000
6.30000 74.49999 1.50000
5.80000 74.49999 4.00000
6.30000 74.49999 10.50000
5.80000 74.99999 14.50000
5.80000 74.99999 15.50000
5.80000 74.99999 16.50000
5.80000 74.99999 17.50000
5.80000 74.99999 18.50000
5.80000 74.49999 19.00000
5.80000 73.49999 -3.00000
5.80000 73.99999 -2.50000
5.80000 73.99999 1.50000
5.80000 73.49999 2.00000
6.30000 73.49999 3.50000
5.80000 73.49999 3.00000
5.80000 73.99999 3.50000
6.30000 73.49999 7.50000
5.80000 73.99999 7.50000
5.80000 73.49999 7.00000
5.80000 73.99999 8.50000
5.80000 73.99999 9.50000
5.80000 73.99999 10.50000
5.80000 73.99999 11.50000
5.80000 73.49999 12.00000
5.80000 73.49999 19.00000
5.80000 72.49999 -4.00000
5.80000 72.99999 -3.50000
5.80000 72.99999 2.50000
6.30000 72.49999 6.50000
5.80000 72.99999 6.50000
5.80000 72.49999 6.00000
6.30000 72.49999 9.50000
5.80000 72.49999 9.00000
5.80000 72.99999 9.50000
5.80000 72.99999 10.50000
6.30000 72.49999 10.50000
5.80000 72.99999 11.50000
6.30000 72.49999 11.50000
5.80000 72.49999 19.00000
5.80000 71.49999 -5.00000
5.80000 71.99999 -4.50000
6.30000 71.49999 -0.50000
5.80000 71.49999 6.00000
6.30000 71.49999 8.50000
5.80000 71.49999 8.00000
5.80000 71.99999 8.50000
6.30000 71.49999 12.50000
5.80000 71.49999 13.00000
5.80000 71.99999 13.50000
5.80000 71.99999 14.50000
6.30000 71.49999 15.50000
5.80000 71.49999 15.00000
6.30000 71.49999 18.50000
5.80000 71.49999 19.00000
5.80000 70.49999 -5.00000
5.80000 70.99999 -0.50000
5.80000 70.49999 -1.00000
5.80000 70.99999 0.50000
5.80000 70.99999 1.50000
5.80000 70.49999 2.00000
6.30000 70.49999 5.50000
5.80000 70.99999 5.50000
5.80000 70.49999 5.00000
5.80000 70.49999 8.00000
6.30000 70.99999 9.00000
5.80000 70.49999 9.00000
5.80000 70.99999 9.50000
5.80000 70.99999 10.50000
5.80000 70.99999 11.50000
5.80000 70.99999 12.50000
5.80000 70.99999 15.50000
5.80000 70.49999 16.00000
5.80000 70.99999 18.50000
5.80000 70.49999 18.00000
5.80000 69.99999 -4.50000
6.30000 69.49999 -3.50000
5.80000 69.49999 -4.00000
6.30000 69.49999 -1.50000
5.80000 69.99999 -0.50000
6.30000 69.49999 -0.50000
5.80000 69.49999 0.00000
5.80000 69.99999 2.50000
6.30000 69.49999 2.50000
6.30000 69.49999 3.50000
5.80000 69.99999 3.50000
6.30000 69.49999 4.50000
5.80000 69.99999 4.50000
6.30000 69.49999 5.50000
5.80000 69.99999 8.50000
5.80000 69.99999 16.50000
5.80000 69.99999 17.50000
5.80000 68.99999 -3.50000
5.80000 68.99999 -2.50000
5.80000 68.99999 -1.50000
5.80000 68.99999 -0.50000
6.30000 68.49999 1.50000
5.80000 68.49999 1.00000
5.80000 68.99999 1.50000
5.80000 68.49999 2.00000
5.80000 67.99999 1.50000
4.80000 77.49999 9.00000
4.80000 77.99999 9.50000
4.80000 77.99999 10.50000
4.80000 77.99999 11.50000
4.80000 77.99999 12.50000
4.80000 77.49999 13.00000
4.80000 76.49999 6.00000
4.80000 76.99999 6.50000
4.80000 76.99999 7.50000
4.80000 76.99999 8.50000
4.80000 76.99999 13.50000
4.80000 76.49999 14.00000
4.80000 75.49999 4.00000
4.80000 75.99999 4.50000
4.80000 75.99999 5.50000
4.80000 75.99999 14.50000
5.30000 75.49999 14.50000
4.80000 75.49999 15.00000
4.80000 74.49999 -2.00000
4.80000 74.99999 -1.50000
4.80000 74.99999 -0.50000
4.80000 74.99999 0.50000
4.80000 74.49999 1.00000
5.30000 74.49999 3.50000
4.80000 74.49999 3.00000
4.80000 74.99999 3.50000
4.80000 74.99999 15.50000
5.30000 74.49999 16.50000
4.80000 74.49999 16.00000
5.30000 74.49999 17.50000
5.30000 74.49999 18.50000
4.80000 73.49999 -3.00000
4.80000 73.99999 -2.50000
4.80000 73.99999 1.50000
4.80000 73.99999 2.50000
5.30000 73.49999 2.50000
4.80000 73.99999 7.50000
4.80000 73.49999 7.00000
5.30000 73.49999 8.50000
4.80000 73.49999 8.00000
5.30000 73.49999 9.50000
5.30000 73.49999 10.50000
5.30000 73.49999 11.50000
4.80000 73.99999 16.50000
4.80000 73.99999 17.50000
4.80000 73.49999 18.00000
5.30000 73.49999 18.50000
4.80000 72.49999 -4.00000
4.80000 72.99999 -3.50000
4.80000 72.99999 6.50000
4.80000 72.49999 6.00000
5.30000 72.49999 8.50000
4.80000 72.49999 8.00000
4.80000 72.99999 18.50000
4.80000 72.49999 19.00000
4.80000 71.49999 -5.00000
4.80000 71.99999 -4.50000
5.30000 71.49999 5.50000
4.80000 71.99999 5.50000
4.80000 71.49999 5.00000
4.80000 71.49999 8.00000
5.30000 71.49999 13.50000
5.30000 71.49999 14.50000
4.80000 71.49999 19.00000
4.80000 70.49999 -5.00000
5.30000 70.49999 -0.50000
5.30000 70.49999 0.50000
5.30000 70.49999 1.50000
4.80000 70.99999 2.50000
4.80000 70.49999 2.00000
5.30000 70.49999 2.50000
5.30000 70.49999 3.50000
4.80000 70.99999 3.50000
5.30000 70.49999 4.50000
4.80000 70.99999 4.50000
4.80000 70.49999 8.00000
4.80000 70.99999 9.50000
4.80000 70.49999 9.00000
4.80000 70.99999 10.50000
4.80000 70.99999 11.50000
5.30000 70.49999 12.50000
4.80000 70.49999 12.00000
5.30000 70.49999 13.50000
5.30000 70.49999 14.50000
5.30000 70.49999 15.50000
4.80000 70.99999 18.50000
4.80000 70.49999 18.00000
4.80000 69.99999 -4.50000
4.80000 69.49999 -4.00000
5.30000 69.49999 0.50000
5.30000 69.49999 1.50000
4.80000 69.49999 2.00000
4.80000 69.99999 8.50000
4.80000 69.99999 12.50000
4.80000 69.99999 13.50000
4.80000 69.99999 14.50000
4.80000 69.99999 15.50000
4.80000 69.99999 16.50000
4.80000 69.99999 17.50000
4.80000 68.99999 -3.50000
4.80000 68.99999 -2.50000
4.80000 68.99999 -1.50000
4.80000 68.99999 -0.50000
4.80000 68.99999 0.50000
5.30000 68.49999 1.50000
4.80000 68.99999 1.50000
4.30000 77.49999 9.50000
3.80000 77.49999 10.00000
3.80000 77.99999 10.50000
3.80000 77.99999 11.50000
4.30000 77.49999 12.50000
3.80000 77.49999 12.00000
3.80000 76.49999 6.00000
3.80000 76.99999 6.50000
3.80000 76.99999 7.50000
3.80000 76.99999 8.50000
3.80000 76.99999 9.50000
3.80000 76.99999 12.50000
3.80000 76.99999 13.50000
3.80000 76.49999 14.00000
3.80000 75.49999 4.00000
3.80000 75.99999 4.50000
3.80000 75.99999 5.50000
3.80000 75.99999 14.50000
3.80000 75.49999 15.00000
4.30000 74.49999 -1.50000
3.80000 74.49999 -1.00000
3.80000 74.99999 -0.50000
4.30000 74.49999 0.50000
3.80000 74.49999 0.00000
4.30000 74.49999 2.50000
3.80000 74.49999 2.00000
3.80000 74.99999 2.50000
3.80000 74.99999 3.50000
4.30000 74.49999 15.50000
3.80000 74.49999 15.00000
3.80000 73.49999 -3.00000
3.80000 73.99999 -2.50000
3.80000 73.99999 -1.50000
3.80000 73.99999 0.50000
3.80000 73.99999 1.50000
4.30000 73.49999 7.50000
3.80000 73.99999 15.50000
3.80000 73.99999 16.50000
4.30000 73.49999 17.50000
3.80000 73.49999 17.00000
3.80000 72.49999 -4.00000
3.80000 72.99999 -3.50000
3.80000 72.99999 6.50000
3.80000 72.49999 6.00000
4.30000 72.49999 7.50000
3.80000 72.49999 7.00000
3.80000 72.99999 17.50000
4.30000 72.49999 18.50000
3.80000 72.49999 18.00000
4.30000 71.49999 -4.50000
3.80000 71.49999 -4.00000
4.30000 71.49999 4.50000
3.80000 71.99999 4.50000
3.80000 71.49999 4.00000
3.80000 71.99999 5.50000
4.30000 71.49999 7.50000
3.80000 71.49999 7.00000
4.30000 71.49999 18.50000
3.80000 71.49999 18.00000
4.30000 70.49999 -4.50000
3.80000 70.49999 -4.00000
3.80000 70.99999 2.50000
3.80000 70.49999 2.00000
3.80000 70.99999 3.50000
4.30000 70.49999 7.50000
3.80000 70.49999 7.00000
3.80000 70.99999 9.50000
3.80000 70.49999 9.00000
3.80000 70.99999 10.50000
4.30000 70.49999 11.50000
3.80000 70.49999 11.00000
3.80000 70.49999 18.00000
4.30000 69.49999 -3.50000
3.80000 69.99999 -3.50000
3.80000 69.49999 -3.00000
3.80000 69.49999 2.00000
4.30000 69.49999 6.50000
3.80000 69.49999 6.00000
3.80000 69.99999 6.50000
3.80000 69.99999 7.50000
3.80000 69.49999 7.00000
3.80000 69.99999 8.50000
3.80000 69.99999 11.50000
3.80000 69.99999 12.50000
3.80000 69.99999 13.50000
3.80000 69.99999 14.50000
3.80000 69.99999 15.50000
3.80000 69.99999 16.50000
3.80000 69.99999 17.50000
3.80000 68.99999 -2.50000
3.80000 68.99999 -1.50000
3.80000 68.99999 -0.50000
3.80000 68.99999 0.50000
3.80000 68.99999 1.50000
3.80000 68.99999 6.50000
3.30000 77.49999 10.50000
3.30000 77.49999 11.50000
3.30000 76.49999 6.50000
2.80000 76.49999 7.00000
2.80000 76.99999 7.50000
2.80000 76.99999 8.50000
2.80000 76.99999 9.50000
2.80000 76.99999 10.50000
2.80000 76.99999 11.50000
2.80000 76.99999 12.50000
3.30000 76.49999 13.50000
2.80000 76.49999 13.00000
2.80000 75.49999 4.00000
2.80000 75.99999 4.50000
2.80000 75.99999 5.50000
2.80000 75.99999 6.50000
2.80000 75.99999 13.50000
3.30000 75.49999 14.50000
2.80000 75.49999 14.00000
3.30000 74.49999 -0.50000
2.80000 74.49999 2.00000
2.80000 74.99999 2.50000
2.80000 74.99999 3.50000
2.80000 74.99999 14.50000
2.80000 74.49999 15.00000
2.80000 73.49999 -3.00000
2.80000 73.99999 -2.50000
2.80000 73.99999 -1.50000
2.80000 73.99999 -0.50000
2.80000 73.99999 0.50000
2.80000 73.99999 1.50000
2.80000 73.99999 15.50000
2.80000 73.99999 16.50000
2.80000 73.49999 17.00000
3.30000 72.49999 -3.50000
2.80000 72.49999 -3.00000
3.30000 72.49999 6.50000
3.30000 72.49999 17.50000
2.80000 72.49999 17.00000
2.80000 71.49999 -4.00000
2.80000 71.99999 -3.50000
3.30000 71.49999 4.50000
3.30000 71.49999 5.50000
3.30000 71.49999 6.50000
2.80000 71.99999 17.50000
2.80000 71.49999 18.00000
2.80000 70.49999 -4.00000
3.30000 70.49999 2.50000
3.30000 70.49999 3.50000
3.30000 70.49999 4.50000
3.30000 70.49999 5.50000
3.30000 70.49999 6.50000
3.30000 70.49999 9.50000
2.80000 70.49999 10.00000
2.80000 70.99999 10.50000
3.30000 70.49999 11.50000
2.80000 70.99999 11.50000
2.80000 70.49999 12.00000
2.80000 70.49999 18.00000
2.80000 69.99999 -3.50000
3.30000 69.49999 -2.50000
2.80000 69.99999 -2.50000
2.80000 69.49999 -2.00000
3.30000 69.49999 2.50000
3.30000 69.49999 3.50000
3.30000 69.49999 4.50000
3.30000 69.49999 5.50000
3.30000 69.99999 7.00000
2.80000 69.49999 7.00000
2.80000 69.99999 7.50000
2.80000 69.99999 8.50000
2.80000 69.99999 9.50000
2.80000 69.99999 12.50000
2.80000 69.99999 13.50000
2.80000 69.99999 14.50000
2.80000 69.99999 15.50000
3.30000 69.49999 16.50000
2.80000 69.49999 16.00000
2.80000 69.49999 17.00000
2.80000 69.99999 17.50000
2.80000 68.99999 -1.50000
2.80000 68.99999 -0.50000
2.80000 68.99999 0.50000
2.80000 68.99999 1.50000
2.80000 68.99999 2.50000
2.80000 68.99999 3.50000
2.80000 68.99999 4.50000
2.80000 68.99999 5.50000
2.80000 68.99999 6.50000
2.80000 68.99999 16.50000
2.30000 76.49999 7.50000
2.30000 76.49999 8.50000
2.30000 76.49999 9.50000
2.30000 76.49999 10.50000
2.30000 76.49999 11.50000
2.30000 76.49999 12.50000
2.30000 75.49999 4.50000
1.80000 75.49999 5.00000
1.80000 75.99999 5.50000
1.80000 75.99999 6.50000
1.80000 75.99999 7.50000
1.80000 75.99999 8.50000
1.80000 75.99999 9.50000
1.80000 75.99999 10.50000
1.80000 75.49999 11.00000
2.30000 75.49999 11.50000
2.30000 75.49999 12.50000
2.30000 75.49999 13.50000
1.80000 74.49999 2.00000
1.80000 74.99999 2.50000
1.80000 74.99999 3.50000
1.80000 74.99999 4.50000
1.80000 74.99999 11.50000
1.80000 74.99999 12.50000
1.80000 74.99999 13.50000
2.30000 74.49999 14.50000
1.80000 74.49999 14.00000
2.30000 73.49999 -2.50000
2.30000 73.49999 -1.50000
1.80000 73.49999 -1.00000
1.80000 73.99999 -0.50000
1.80000 73.99999 0.50000
1.80000 73.99999 1.50000
1.80000 73.99999 14.50000
1.80000 73.99999 15.50000
2.30000 73.49999 16.50000
1.80000 73.49999 16.00000
2.30000 72.49999 -2.50000
1.80000 72.49999 -2.00000
1.80000 72.99999 -1.50000
2.30000 72.49999 10.50000
1.80000 72.99999 10.50000
1.80000 72.49999 10.00000
2.30000 72.49999 11.50000
1.80000 72.99999 11.50000
1.80000 72.49999 12.00000
2.30000 72.49999 16.50000
1.80000 72.49999 16.00000
2.30000 71.49999 -3.50000
2.30000 71.49999 -2.50000
1.80000 71.49999 -2.00000
2.30000 71.49999 10.50000
1.80000 71.49999 10.00000
2.30000 71.49999 11.50000
1.80000 71.49999 12.00000
2.30000 71.49999 16.50000
1.80000 71.49999 16.00000
2.30000 71.49999 17.50000
2.30000 70.49999 -3.50000
2.30000 70.49999 -2.50000
1.80000 70.99999 -1.50000
2.30000 70.49999 -1.50000
1.80000 70.49999 -1.00000
2.30000 70.49999 9.50000
1.80000 70.99999 9.50000
1.80000 70.49999 9.00000
2.30000 70.49999 12.50000
1.80000 70.99999 12.50000
1.80000 70.49999 13.00000
2.30000 70.49999 15.50000
1.80000 70.99999 15.50000
1.80000 70.49999 15.00000
2.30000 70.49999 16.50000
2.30000 70.49999 17.50000
2.30000 69.49999 -1.50000
1.80000 69.49999 -1.00000
1.80000 69.99999 7.50000
1.80000 69.49999 7.00000
1.80000 69.99999 8.50000
1.80000 69.99999 13.50000
1.80000 69.99999 14.50000
2.30000 69.49999 16.50000
1.80000 68.99999 -0.50000
1.80000 68.99999 0.50000
1.80000 68.99999 1.50000
1.80000 68.99999 2.50000
1.80000 68.99999 3.50000
1.80000 68.99999 4.50000
1.80000 68.99999 5.50000
1.80000 68.99999 6.50000
1.30000 75.49999 5.50000
1.30000 75.49999 6.50000
1.30000 75.49999 7.50000
1.30000 75.49999 8.50000
1.30000 75.49999 9.50000
1.30000 75.49999 10.50000
1.30000 74.49999 2.50000
0.80000 74.49999 3.00000
0.80000 74.99999 3.50000
0.80000 74.99999 4.50000
1.30000 74.49999 5.50000
0.80000 74.49999 5.00000
1.30000 74.49999 6.50000
1.30000 74.49999 7.50000
1.30000 74.49999 8.50000
1.30000 74.49999 9.50000
1.30000 74.49999 10.50000
1.30000 74.49999 11.50000
1.30000 74.49999 12.50000
1.30000 74.49999 13.50000
1.30000 73.49999 -0.50000
1.30000 73.49999 0.50000
0.80000 73.49999 1.00000
0.80000 73.99999 1.50000
0.80000 73.99999 2.50000
0.80000 73.99999 5.50000
0.80000 73.99999 6.50000
0.80000 73.99999 7.50000
0.80000 73.49999 8.00000
1.30000 73.49999 8.50000
1.30000 73.49999 9.50000
1.30000 73.49999 10.50000
1.30000 73.49999 11.50000
1.30000 73.49999 12.50000
1.30000 73.49999 13.50000
1.30000 73.49999 14.50000
1.30000 73.49999 15.50000
1.30000 72.49999 -1.50000
1.30000 72.49999 -0.50000
0.80000 72.49999 0.00000
0.80000 72.99999 0.50000
1.30000 72.49999 8.50000
0.80000 72.49999 8.00000
1.30000 72.49999 9.50000
1.30000 72.49999 12.50000
1.30000 72.49999 13.50000
1.30000 72.49999 14.50000
1.30000 72.49999 15.50000
1.30000 71.49999 -1.50000
1.30000 71.49999 -0.50000
0.80000 71.49999 0.00000
1.30000 71.49999 8.50000
0.80000 71.49999 8.00000
1.30000 71.49999 9.50000
1.30000 71.49999 12.50000
1.30000 71.49999 13.50000
1.30000 71.49999 14.50000
1.30000 71.49999 15.50000
1.30000 70.49999 -0.50000
0.80000 70.49999 0.00000
1.30000 70.49999 8.50000
0.80000 70.49999 8.00000
1.30000 70.49999 13.50000
1.30000 70.49999 14.50000
1.30000 69.49999 -0.50000
0.80000 69.49999 0.00000
1.30000 69.49999 6.50000
0.80000 69.99999 6.50000
0.80000 69.49999 6.00000
0.80000 69.99999 7.50000
0.80000 68.99999 0.50000
1.30000 68.49999 1.50000
0.80000 68.49999 1.00000
0.80000 68.49999 2.00000
0.80000 68.99999 2.50000
0.80000 68.99999 3.50000
0.80000 68.99999 4.50000
0.80000 68.99999 5.50000
0.80000 67.99999 1.50000
0.30000 74.49999 3.50000
0.30000 74.49999 4.50000
0.30000 73.49999 1.50000
0.30000 73.49999 2.50000
0.30000 73.49999 3.50000
0.30000 73.49999 4.50000
0.30000 73.49999 5.50000
0.30000 73.49999 6.50000
0.30000 73.49999 7.50000
0.30000 72.49999 0.50000
0.30000 72.49999 1.50000
0.30000 72.49999 2.50000
0.30000 72.49999 3.50000
0.30000 72.49999 4.50000
0.30000 72.49999 5.50000
0.30000 72.49999 6.50000
0.30000 72.49999 7.50000
0.30000 71.49999 0.50000
0.30000 71.49999 1.50000
0.30000 71.49999 2.50000
-0.20000 71.49999 3.00000
-0.20000 71.99999 3.50000
-0.20000 71.49999 4.00000
0.30000 71.49999 4.50000
0.30000 71.49999 5.50000
0.30000 71.49999 6.50000
0.30000 71.49999 7.50000
0.30000 70.49999 0.50000
0.30000 70.49999 1.50000
0.30000 70.49999 2.50000
-0.20000 70.49999 3.00000
0.30000 70.49999 4.50000
-0.20000 70.49999 4.00000
0.30000 70.49999 5.50000
0.30000 70.49999 6.50000
0.30000 70.49999 7.50000
0.30000 69.49999 0.50000
0.30000 69.49999 1.50000
0.30000 69.49999 2.50000
-0.20000 69.99999 3.50000
0.30000 69.49999 3.50000
0.30000 69.49999 4.50000
0.30000 69.49999 5.50000
0.30000 68.49999 1.50000
-0.70000 71.49999 3.50000
-0.70000 70.49999 3.50000
3 2 1 0
3 4 3 0
3 0 3 2
3 6 5 4
3 4 5 3
3 8 7 6
3 6 7 5
3 10 9 8
3 8 9 7
3 10 11 9
3 0 1 12
3 12 1 13
3 0 14 4
3 0 12 14
3 4 15 6
3 4 14 15
3 6 16 8
3 6 15 16
3 8 17 10
3 8 16 17
3 11 10 18
3 18 10 17
3 13 19 12
3 12 19 14
3 14 19 20
3 22 21 20
3 21 14 20
3 21 15 14
3 15 23 16
3 15 21 23
3 25 17 24
3 17 23 24
3 17 16 23
3 17 25 18
3 22 26 21
3 21 26 23
3 23 26 27
3 23 27 24
3 30 29 28
3 1 2 28
3 2 30 28
3 2 31 30
3 32 2 3
3 32 31 2
3 33 3 5
3 33 32 3
3 35 33 34
3 33 7 34
3 33 5 7
3 9 36 7
3 7 36 34
3 38 36 37
3 36 9 37
3 11 39 37
3 11 37 9
3 39 40 37
3 28 29 41
3 41 29 42
3 41 13 1
3 41 1 28
3 43 35 34
3 43 34 36
3 43 36 44
3 18 45 11
3 18 36 45
3 36 18 44
3 46 44 18
3 44 46 38
3 45 38 46
3 46 39 45
3 45 39 11
3 36 38 45
3 40 39 47
3 47 39 46
3 42 48 41
3 48 50 49
3 48 49 19
3 41 48 19
3 13 41 19
3 51 20 19
3 51 19 49
3 51 22 20
3 24 52 25
3 46 18 25
3 52 46 25
3 53 46 52
3 47 46 54
3 54 46 53
3 50 55 49
3 49 55 51
3 51 55 56
3 56 58 57
3 56 57 26
3 51 56 26
3 22 51 26
3 59 27 26
3 59 26 57
3 52 24 27
3 59 52 27
3 60 52 59
3 62 53 61
3 53 60 61
3 53 52 60
3 53 62 54
3 58 63 57
3 65 64 63
3 64 57 63
3 64 59 57
3 67 60 66
3 60 64 66
3 60 59 64
3 60 67 61
3 65 68 64
3 64 68 66
3 71 70 69
3 73 72 69
3 69 72 71
3 75 74 73
3 73 74 72
3 75 76 74
3 78 77 30
3 30 77 29
3 31 69 70
3 78 31 70
3 30 31 78
3 69 31 32
3 69 32 73
3 73 32 33
3 73 33 75
3 33 35 75
3 35 76 75
3 35 79 76
3 80 38 37
3 82 80 81
3 80 37 81
3 40 83 81
3 40 81 37
3 83 84 81
3 87 86 85
3 89 88 85
3 85 88 87
3 77 88 89
3 42 77 89
3 29 77 42
3 90 79 35
3 90 35 43
3 91 43 44
3 91 90 43
3 44 38 80
3 92 44 80
3 91 44 92
3 82 92 80
3 94 83 93
3 40 93 83
3 93 40 47
3 83 94 84
3 86 95 85
3 97 96 95
3 96 85 95
3 96 89 85
3 98 48 42
3 89 98 42
3 96 98 89
3 98 50 48
3 54 93 47
3 54 99 93
3 97 100 96
3 96 100 98
3 98 100 101
3 101 103 102
3 101 102 55
3 98 101 55
3 50 98 55
3 55 102 104
3 105 55 104
3 56 55 105
3 58 56 105
3 58 105 106
3 61 107 62
3 107 108 62
3 108 54 62
3 108 99 54
3 103 109 102
3 102 109 104
3 63 58 110
3 58 111 110
3 58 106 111
3 110 65 63
3 66 112 67
3 112 113 67
3 67 113 61
3 113 114 61
3 114 107 61
3 107 114 108
3 111 115 110
3 110 115 65
3 115 68 65
3 115 116 68
3 66 68 112
3 68 117 112
3 68 116 117
3 112 117 113
3 120 119 118
3 118 121 120
3 124 123 122
3 70 71 122
3 71 124 122
3 71 125 124
3 72 118 119
3 125 72 119
3 71 72 125
3 126 121 118
3 72 126 118
3 74 126 72
3 74 76 126
3 126 76 127
3 130 129 128
3 130 128 123
3 123 128 122
3 128 77 122
3 77 78 122
3 122 78 70
3 79 132 131
3 127 79 131
3 76 79 127
3 132 133 131
3 134 82 81
3 84 134 81
3 137 136 135
3 86 87 135
3 87 137 135
3 87 138 137
3 88 128 129
3 138 88 129
3 87 88 138
3 128 88 77
3 90 132 79
3 90 91 132
3 91 139 132
3 139 133 132
3 91 140 139
3 92 141 91
3 91 141 140
3 134 143 142
3 144 142 143
3 142 144 141
3 142 141 93
3 92 93 141
3 93 92 94
3 82 94 92
3 94 82 134
3 94 134 142
3 143 134 145
3 134 84 145
3 94 142 145
3 94 145 84
3 135 136 146
3 146 136 147
3 148 95 86
3 135 148 86
3 146 148 135
3 148 97 95
3 149 139 140
3 149 140 141
3 149 141 150
3 99 151 93
3 99 141 151
3 141 99 150
3 152 150 99
3 150 152 144
3 151 144 152
3 152 142 151
3 151 142 93
3 141 144 151
3 145 142 153
3 153 142 152
3 147 154 146
3 146 154 148
3 148 154 155
3 148 155 97
3 155 100 97
3 155 156 100
3 156 158 157
3 101 156 157
3 100 156 101
3 157 103 101
3 160 159 105
3 160 105 104
3 106 105 159
3 106 159 161
3 163 162 152
3 99 163 152
3 108 163 99
3 152 162 153
3 158 164 157
3 157 164 103
3 164 109 103
3 164 165 109
3 104 109 160
3 160 109 165
3 161 111 106
3 166 111 161
3 113 167 114
3 167 168 114
3 168 108 114
3 168 163 108
3 166 169 111
3 111 169 115
3 169 171 170
3 116 169 170
3 115 169 116
3 172 117 116
3 172 116 170
3 172 173 117
3 117 173 113
3 173 174 113
3 174 167 113
3 167 174 168
3 171 175 170
3 170 175 172
3 172 175 176
3 172 176 173
3 179 178 177
3 119 120 177
3 120 179 177
3 120 180 179
3 182 181 121
3 181 120 121
3 181 180 120
3 182 183 181
3 185 184 124
3 124 184 123
3 125 177 178
3 185 125 178
3 124 125 185
3 177 125 119
3 126 182 121
3 187 186 127
3 127 186 126
3 186 183 126
3 183 182 126
3 187 188 186
3 190 189 130
3 130 189 129
3 130 123 184
3 130 184 190
3 131 187 127
3 131 133 187
3 133 188 187
3 133 191 188
3 192 136 137
3 192 137 193
3 137 194 193
3 137 138 194
3 138 129 189
3 138 189 194
3 139 191 133
3 139 195 191
3 197 196 143
3 143 196 144
3 143 145 197
3 197 145 198
3 201 200 199
3 203 202 199
3 199 202 201
3 205 204 203
3 203 204 202
3 207 206 205
3 205 206 204
3 208 206 192
3 206 147 192
3 147 136 192
3 206 207 147
3 208 192 193
3 139 149 209
3 210 139 209
3 195 139 210
3 209 149 211
3 149 212 211
3 149 150 212
3 150 144 196
3 150 196 212
3 153 198 145
3 153 213 198
3 216 215 214
3 216 214 200
3 214 199 200
3 214 217 199
3 219 203 218
3 203 217 218
3 203 199 217
3 221 220 219
3 220 203 219
3 220 205 203
3 205 222 207
3 205 220 222
3 223 154 147
3 207 223 147
3 222 223 207
3 224 155 154
3 224 154 223
3 225 156 155
3 225 155 224
3 225 158 156
3 227 226 159
3 227 159 160
3 161 159 226
3 161 226 228
3 229 210 209
3 229 209 211
3 163 230 162
3 230 231 162
3 231 153 162
3 231 213 153
3 234 233 232
3 236 235 232
3 235 214 232
3 215 234 232
3 215 232 214
3 214 235 217
3 217 235 237
3 217 237 218
3 221 238 220
3 220 238 222
3 222 238 239
3 222 239 223
3 223 239 240
3 223 240 224
3 224 240 241
3 243 242 241
3 242 224 241
3 242 225 224
3 244 164 158
3 225 244 158
3 242 244 225
3 245 165 164
3 245 164 244
3 245 246 165
3 246 160 165
3 246 227 160
3 228 166 161
3 247 166 228
3 249 248 230
3 163 249 230
3 168 249 163
3 230 248 231
3 233 250 232
3 232 250 236
3 243 251 242
3 242 251 244
3 244 251 252
3 244 252 245
3 245 252 253
3 245 253 246
3 247 254 166
3 166 254 169
3 171 169 254
3 171 254 255
3 173 256 174
3 256 257 174
3 257 168 174
3 257 249 168
3 255 258 171
3 171 258 175
3 175 259 176
3 258 259 175
3 173 176 256
3 176 260 256
3 176 259 260
3 256 260 257
3 262 261 179
3 179 261 178
3 263 179 180
3 263 262 179
3 264 180 181
3 264 263 180
3 181 183 264
3 264 183 265
3 267 266 185
3 185 266 184
3 185 178 261
3 185 261 267
3 268 265 183
3 268 183 186
3 186 188 268
3 268 188 269
3 271 270 190
3 190 270 189
3 190 184 266
3 190 266 271
3 191 269 188
3 191 272 269
3 275 274 273
3 273 276 275
3 277 193 194
3 278 277 194
3 189 278 194
3 270 278 189
3 195 272 191
3 195 279 272
3 273 274 197
3 274 196 197
3 274 280 196
3 197 198 273
3 198 276 273
3 198 281 276
3 284 283 282
3 200 201 282
3 201 284 282
3 201 285 284
3 286 201 202
3 286 285 201
3 287 202 204
3 287 286 202
3 288 204 206
3 288 287 204
3 289 206 208
3 289 288 206
3 289 208 193
3 290 289 193
3 277 290 193
3 289 290 291
3 277 278 292
3 277 292 290
3 210 279 195
3 210 293 279
3 295 294 212
3 212 294 211
3 212 196 280
3 212 280 295
3 213 297 296
3 281 213 296
3 198 213 281
3 297 298 296
3 301 300 299
3 301 299 283
3 283 299 282
3 299 215 282
3 215 216 282
3 282 216 200
3 218 302 219
3 302 221 219
3 291 290 303
3 291 303 304
3 290 292 305
3 306 290 305
3 303 290 306
3 307 306 305
3 309 308 226
3 309 226 227
3 228 226 308
3 228 308 310
3 311 293 210
3 311 210 229
3 229 211 294
3 229 294 311
3 313 312 297
3 213 313 297
3 231 313 213
3 297 312 298
3 316 315 314
3 316 314 300
3 300 314 299
3 314 233 299
3 233 234 299
3 215 299 234
3 235 236 317
3 318 237 235
3 318 235 317
3 302 218 237
3 318 302 237
3 319 302 318
3 320 238 221
3 302 320 221
3 319 320 302
3 321 239 238
3 321 238 320
3 322 240 239
3 322 239 321
3 323 304 303
3 240 323 303
3 241 240 303
3 323 240 322
3 241 303 243
3 303 324 243
3 303 306 324
3 306 307 325
3 306 325 324
3 246 309 227
3 246 326 309
3 310 247 228
3 327 247 310
3 329 328 248
3 329 248 249
3 231 248 313
3 313 248 328
3 315 330 314
3 330 332 331
3 330 331 250
3 314 330 250
3 233 314 250
3 317 236 250
3 331 317 250
3 333 317 331
3 335 318 334
3 318 333 334
3 318 317 333
3 318 335 319
3 319 335 336
3 338 337 336
3 337 319 336
3 337 320 319
3 320 339 321
3 320 337 339
3 321 340 322
3 321 339 340
3 323 322 341
3 322 342 341
3 322 340 342
3 341 324 343
3 324 341 243
3 342 243 341
3 243 342 251
3 344 251 342
3 251 345 252
3 345 324 252
3 325 252 324
3 252 325 346
3 343 346 325
3 346 343 345
3 345 344 346
3 251 344 345
3 345 343 324
3 347 253 252
3 347 252 346
3 347 348 253
3 348 246 253
3 348 326 246
3 327 349 247
3 247 349 254
3 255 254 349
3 255 349 350
3 353 352 351
3 352 329 351
3 329 257 351
3 329 249 257
3 332 354 331
3 331 354 333
3 333 354 355
3 333 355 334
3 338 356 337
3 358 357 356
3 357 337 356
3 357 339 337
3 339 359 340
3 339 357 359
3 361 342 360
3 342 359 360
3 342 340 359
3 342 361 344
3 344 361 362
3 364 363 362
3 363 344 362
3 363 346 344
3 366 347 365
3 347 363 365
3 347 346 363
3 347 366 348
3 350 367 255
3 255 367 258
3 258 368 259
3 367 368 258
3 351 260 353
3 260 368 353
3 260 259 368
3 260 351 257
3 358 369 357
3 357 369 359
3 359 369 370
3 359 370 360
3 364 371 363
3 363 371 365
3 374 373 372
3 376 375 372
3 372 375 374
3 376 377 375
3 380 379 378
3 261 262 378
3 262 380 378
3 262 381 380
3 263 372 373
3 381 263 373
3 262 263 381
3 372 263 264
3 372 264 376
3 264 265 376
3 265 377 376
3 265 382 377
3 385 384 383
3 383 386 385
3 389 388 387
3 389 387 379
3 379 387 378
3 387 266 378
3 266 267 378
3 378 267 261
3 390 382 265
3 390 265 268
3 268 269 390
3 390 269 391
3 394 393 392
3 394 392 384
3 392 383 384
3 392 395 383
3 386 383 396
3 396 383 395
3 399 398 397
3 399 397 388
3 388 397 387
3 397 270 387
3 270 271 387
3 387 271 266
3 272 391 269
3 272 400 391
3 392 393 275
3 393 274 275
3 393 401 274
3 392 275 276
3 402 392 276
3 395 392 402
3 396 395 403
3 403 395 402
3 406 405 404
3 404 407 406
3 397 398 408
3 408 398 409
3 408 278 270
3 408 270 397
3 279 400 272
3 279 410 400
3 413 412 411
3 401 413 411
3 280 401 411
3 274 401 280
3 281 414 402
3 281 402 276
3 403 402 415
3 415 402 414
3 418 417 416
3 420 419 416
3 416 419 418
3 283 284 420
3 284 419 420
3 284 421 419
3 422 284 285
3 422 421 284
3 286 404 405
3 422 286 405
3 285 286 422
3 423 407 404
3 286 423 404
3 287 423 286
3 424 287 288
3 424 423 287
3 426 424 425
3 424 289 425
3 424 288 289
3 409 427 408
3 425 289 291
3 278 408 427
3 428 278 427
3 292 278 428
3 293 430 429
3 410 293 429
3 279 293 410
3 429 430 412
3 412 430 411
3 430 294 411
3 294 295 411
3 411 295 280
3 296 414 281
3 296 298 414
3 298 415 414
3 298 431 415
3 416 417 432
3 432 417 433
3 432 300 301
3 420 432 301
3 416 432 420
3 420 301 283
3 426 425 434
3 426 434 435
3 304 434 291
3 291 434 425
3 305 292 436
3 292 437 436
3 292 428 437
3 436 307 305
3 439 438 308
3 439 308 309
3 310 308 438
3 310 438 440
3 311 430 293
3 430 311 294
3 442 441 312
3 442 312 313
3 298 312 431
3 431 312 441
3 432 433 316
3 433 315 316
3 433 443 315
3 432 316 300
3 444 435 434
3 434 304 444
3 304 445 444
3 304 323 445
3 436 437 446
3 446 437 447
3 446 325 307
3 446 307 436
3 326 439 309
3 326 448 439
3 440 327 310
3 449 327 440
3 451 450 328
3 451 328 329
3 313 328 442
3 442 328 450
3 330 315 452
3 315 453 452
3 315 443 453
3 452 332 330
3 334 454 335
3 455 336 335
3 455 335 454
3 455 338 336
3 456 445 323
3 456 323 341
3 343 446 447
3 456 343 447
3 341 343 456
3 446 343 325
3 348 448 326
3 348 457 448
3 449 458 327
3 327 458 349
3 460 459 350
3 349 460 350
3 458 460 349
3 461 459 460
3 463 462 352
3 463 352 353
3 329 352 451
3 451 352 462
3 453 464 452
3 452 464 332
3 464 354 332
3 464 465 354
3 354 466 355
3 465 466 354
3 334 355 454
3 355 467 454
3 355 466 467
3 454 467 455
3 455 467 468
3 468 470 469
3 468 469 356
3 455 468 356
3 338 455 356
3 469 358 356
3 360 471 361
3 472 362 361
3 472 361 471
3 472 364 362
3 365 473 366
3 473 474 366
3 474 348 366
3 474 457 348
3 459 367 350
3 461 475 459
3 475 367 459
3 475 368 367
3 353 368 463
3 463 368 475
3 470 476 469
3 476 478 477
3 476 477 369
3 469 476 369
3 358 469 369
3 479 370 369
3 479 369 477
3 471 360 370
3 479 471 370
3 480 471 479
3 471 481 472
3 471 480 481
3 482 371 364
3 472 482 364
3 481 482 472
3 482 483 371
3 371 483 365
3 483 484 365
3 484 473 365
3 473 484 474
3 478 485 477
3 487 486 485
3 486 477 485
3 486 479 477
3 489 480 488
3 480 486 488
3 480 479 486
3 480 489 481
3 481 489 490
3 481 490 482
3 482 490 491
3 482 491 483
3 487 492 486
3 486 492 488
3 494 493 374
3 374 493 373
3 495 374 375
3 495 494 374
3 375 377 495
3 495 377 496
3 498 497 380
3 380 497 379
3 499 380 381
3 499 498 380
3 381 373 493
3 381 493 499
3 382 496 377
3 382 500 496
3 502 501 385
3 385 501 384
3 504 503 386
3 503 385 386
3 503 502 385
3 504 505 503
3 507 506 389
3 389 506 388
3 389 379 497
3 389 497 507
3 508 500 382
3 508 382 390
3 390 391 508
3 508 391 509
3 511 510 394
3 394 510 393
3 394 384 501
3 394 501 511
3 513 512 504
3 386 513 504
3 396 513 386
3 504 512 505
3 515 514 399
3 399 514 398
3 399 388 506
3 399 506 515
3 400 509 391
3 400 516 509
3 519 518 517
3 510 519 517
3 401 510 517
3 393 510 401
3 403 513 396
3 403 520 513
3 523 522 521
3 525 524 521
3 521 524 523
3 405 406 525
3 406 524 525
3 406 526 524
3 406 407 526
3 526 407 527
3 514 409 398
3 528 409 514
3 410 530 529
3 516 410 529
3 400 410 516
3 529 530 518
3 518 530 517
3 530 412 517
3 412 413 517
3 517 413 401
3 415 520 403
3 415 531 520
3 533 532 418
3 418 532 417
3 534 418 419
3 534 533 418
3 421 521 522
3 534 421 522
3 419 421 534
3 521 421 422
3 521 422 525
3 525 422 405
3 535 527 407
3 535 407 423
3 537 535 536
3 535 424 536
3 535 423 424
3 426 536 424
3 427 409 538
3 409 539 538
3 409 528 539
3 538 428 427
3 429 530 410
3 530 429 412
3 431 531 415
3 431 540 531
3 543 542 541
3 532 543 541
3 433 532 541
3 417 532 433
3 544 537 536
3 536 426 544
3 426 545 544
3 426 435 545
3 539 546 538
3 428 538 546
3 547 428 546
3 437 428 547
3 550 549 548
3 438 439 548
3 549 438 548
3 551 438 549
3 440 438 551
3 440 551 552
3 442 553 441
3 553 554 441
3 554 431 441
3 554 540 431
3 541 542 555
3 555 542 556
3 555 443 433
3 555 433 541
3 435 444 557
3 558 435 557
3 545 435 558
3 560 557 559
3 557 444 559
3 445 561 559
3 445 559 444
3 547 559 561
3 447 547 561
3 437 547 447
3 550 548 562
3 550 562 563
3 448 562 439
3 439 562 548
3 565 449 564
3 449 552 564
3 449 440 552
3 566 565 564
3 568 567 450
3 568 450 451
3 442 450 553
3 450 569 553
3 450 567 569
3 553 569 554
3 555 556 570
3 570 556 571
3 570 453 443
3 570 443 555
3 574 573 572
3 575 572 573
3 576 558 557
3 445 456 561
3 557 560 576
3 561 456 447
3 563 562 577
3 563 577 578
3 457 577 448
3 448 577 562
3 565 458 449
3 566 579 565
3 579 458 565
3 579 460 458
3 581 580 461
3 460 581 461
3 579 581 460
3 462 463 580
3 581 462 580
3 582 462 581
3 451 462 568
3 568 462 582
3 571 583 570
3 570 583 453
3 583 464 453
3 583 584 464
3 464 585 465
3 584 585 464
3 585 587 586
3 466 585 586
3 465 585 466
3 588 574 572
3 466 588 572
3 467 466 572
3 588 466 586
3 575 589 572
3 589 467 572
3 589 468 467
3 470 468 589
3 470 589 590
3 578 577 591
3 578 591 592
3 474 591 457
3 457 591 577
3 580 475 461
3 475 580 463
3 587 593 586
3 586 593 588
3 476 470 594
3 470 595 594
3 470 590 595
3 594 478 476
3 598 597 596
3 596 597 592
3 596 592 591
3 483 596 591
3 484 483 591
3 484 591 474
3 595 599 594
3 599 601 600
3 599 600 485
3 594 599 485
3 478 594 485
3 600 487 485
3 488 602 489
3 489 602 603
3 604 489 603
3 490 489 604
3 596 491 598
3 491 604 598
3 491 490 604
3 491 596 483
3 601 605 600
3 600 605 487
3 605 492 487
3 605 606 492
3 488 492 602
3 492 607 602
3 492 606 607
3 602 607 603
3 609 608 494
3 494 608 493
3 610 494 495
3 610 609 494
3 495 496 610
3 610 496 611
3 613 612 498
3 498 612 497
3 614 498 499
3 614 613 498
3 499 493 608
3 499 608 614
3 500 616 615
3 611 500 615
3 496 500 611
3 616 617 615
3 619 618 502
3 502 618 501
3 620 502 503
3 620 619 502
3 503 505 620
3 620 505 621
3 623 622 507
3 507 622 506
3 507 497 612
3 507 612 623
3 508 616 500
3 508 509 616
3 509 617 616
3 509 624 617
3 626 625 511
3 511 625 510
3 511 501 618
3 511 618 626
3 513 627 512
3 627 628 512
3 628 505 512
3 628 621 505
3 630 629 515
3 515 629 514
3 515 506 622
3 515 622 630
3 516 624 509
3 516 631 624
3 633 632 519
3 519 632 518
3 519 510 625
3 519 625 633
3 520 634 627
3 520 627 513
3 628 627 635
3 635 627 634
3 638 637 636
3 640 639 636
3 636 639 638
3 522 523 640
3 523 639 640
3 523 641 639
3 642 523 524
3 642 641 523
3 643 524 526
3 643 642 524
3 526 527 643
3 643 527 644
3 629 528 514
3 645 528 629
3 646 631 516
3 646 516 529
3 529 518 632
3 529 632 646
3 531 647 634
3 531 634 520
3 635 634 648
3 648 634 647
3 636 637 533
3 637 532 533
3 637 649 532
3 636 533 534
3 636 534 640
3 640 534 522
3 650 644 527
3 650 527 535
3 535 537 650
3 650 537 651
3 645 539 528
3 652 539 645
3 655 654 653
3 657 656 653
3 657 653 654
3 658 656 657
3 660 659 647
3 531 660 647
3 540 660 531
3 647 659 648
3 662 661 543
3 543 661 542
3 543 532 649
3 543 649 662
3 537 544 663
3 664 537 663
3 651 537 664
3 545 663 544
3 546 539 665
3 539 666 665
3 539 652 666
3 665 547 546
3 655 653 549
3 550 655 549
3 667 655 550
3 549 653 551
3 551 653 656
3 552 551 656
3 658 552 656
3 668 552 658
3 554 660 540
3 554 669 660
3 672 671 670
3 661 672 670
3 556 661 670
3 542 661 556
3 664 663 673
3 664 673 674
3 558 673 545
3 545 673 663
3 665 666 559
3 666 560 559
3 666 675 560
3 665 559 547
3 563 667 550
3 563 676 667
3 668 677 552
3 552 677 564
3 566 564 677
3 566 677 678
3 680 679 567
3 680 567 568
3 567 681 569
3 679 681 567
3 554 569 669
3 669 569 681
3 670 671 682
3 682 671 683
3 682 571 556
3 682 556 670
3 686 685 684
3 573 574 684
3 685 573 684
3 687 573 685
3 575 573 687
3 575 687 688
3 689 674 673
3 689 673 558
3 576 689 558
3 690 689 576
3 576 560 675
3 576 675 690
3 693 692 691
3 692 676 691
3 676 578 691
3 676 563 578
3 678 694 566
3 566 694 579
3 579 695 581
3 694 695 579
3 581 696 582
3 695 696 581
3 568 582 680
3 680 582 696
3 683 697 682
3 682 697 571
3 697 583 571
3 697 698 583
3 583 699 584
3 698 699 583
3 699 701 700
3 585 699 700
3 584 699 585
3 684 702 686
3 587 585 700
3 684 574 702
3 574 703 702
3 574 588 703
3 589 575 704
3 575 705 704
3 575 688 705
3 704 590 589
3 693 691 706
3 693 706 707
3 592 706 578
3 578 706 691
3 701 708 700
3 700 708 587
3 708 593 587
3 708 709 593
3 588 593 703
3 703 593 709
3 705 710 704
3 590 704 710
3 711 590 710
3 595 590 711
3 714 713 712
3 712 713 707
3 712 707 706
3 598 712 706
3 597 598 706
3 597 706 592
3 711 715 595
3 595 715 599
3 601 599 715
3 601 715 716
3 719 718 717
3 717 718 714
3 717 714 712
3 603 717 712
3 604 603 712
3 604 712 598
3 716 720 601
3 601 720 605
3 605 721 606
3 720 721 605
3 717 607 719
3 607 721 719
3 607 606 721
3 607 717 603
3 723 722 609
3 609 722 608
3 724 609 610
3 724 723 609
3 610 611 724
3 724 611 725
3 727 726 613
3 613 726 612
3 728 613 614
3 728 727 613
3 614 608 722
3 614 722 728
3 729 725 611
3 729 611 615
3 615 617 729
3 729 617 730
3 731 618 619
3 731 619 732
3 619 733 732
3 619 620 733
3 735 734 621
3 734 620 621
3 734 733 620
3 735 736 734
3 739 738 737
3 622 623 737
3 623 739 737
3 623 740 739
3 623 612 726
3 623 726 740
3 624 730 617
3 624 741 730
3 743 742 626
3 626 742 625
3 626 618 731
3 744 626 731
3 743 626 744
3 744 731 732
3 628 745 735
3 628 735 621
3 736 735 746
3 746 735 745
3 749 748 747
3 751 750 747
3 747 750 749
3 753 752 751
3 751 752 750
3 753 754 752
3 737 738 630
3 738 629 630
3 738 755 629
3 737 630 622
3 631 757 756
3 741 631 756
3 624 631 741
3 632 633 757
3 633 756 757
3 633 758 756
3 633 625 742
3 633 742 758
3 635 759 745
3 635 745 628
3 746 745 760
3 760 745 759
3 762 761 638
3 638 761 637
3 639 747 748
3 762 639 748
3 638 639 762
3 747 639 641
3 747 641 751
3 751 641 642
3 751 642 753
3 763 754 753
3 642 763 753
3 643 763 642
3 643 644 763
3 763 644 764
3 767 766 765
3 755 767 765
3 645 755 765
3 629 755 645
3 646 757 631
3 757 646 632
3 769 768 759
3 635 769 759
3 648 769 635
3 759 768 760
3 772 771 770
3 761 772 770
3 649 761 770
3 637 761 649
3 644 650 773
3 774 644 773
3 764 644 774
3 651 773 650
3 765 766 775
3 775 766 776
3 775 652 645
3 775 645 765
3 778 777 654
3 778 654 655
3 654 779 657
3 777 779 654
3 658 657 779
3 658 779 780
3 660 781 659
3 781 782 659
3 782 648 659
3 782 769 648
3 785 784 783
3 785 783 771
3 771 783 770
3 783 661 770
3 661 662 770
3 770 662 649
3 786 774 773
3 773 651 786
3 651 787 786
3 651 664 787
3 775 776 788
3 788 776 789
3 788 666 652
3 788 652 775
3 792 791 790
3 791 778 790
3 778 667 790
3 778 655 667
3 780 668 658
3 793 668 780
3 796 795 794
3 798 797 794
3 798 794 795
3 669 799 660
3 799 797 660
3 798 660 797
3 660 798 781
3 800 781 798
3 781 800 799
3 799 801 781
3 669 801 799
3 799 800 797
3 782 781 802
3 802 781 801
3 783 784 672
3 784 671 672
3 784 803 671
3 783 672 661
3 674 787 664
3 674 804 787
3 788 789 805
3 805 789 806
3 805 675 666
3 805 666 788
3 792 790 807
3 792 807 808
3 676 807 667
3 667 807 790
3 793 809 668
3 668 809 677
3 678 677 809
3 678 809 810
3 813 812 811
3 811 812 796
3 811 796 794
3 680 811 794
3 679 680 794
3 679 814 681
3 814 679 815
3 794 815 679
3 815 794 816
3 797 816 794
3 797 681 814
3 681 797 669
3 801 669 797
3 800 801 797
3 801 800 817
3 816 817 800
3 817 816 818
3 814 818 816
3 797 814 816
3 801 817 802
3 803 683 671
3 819 683 803
3 821 820 685
3 821 685 686
3 685 822 687
3 820 822 685
3 688 687 822
3 688 822 823
3 824 804 674
3 824 674 689
3 690 805 806
3 824 690 806
3 689 690 824
3 805 690 675
3 808 807 692
3 693 808 692
3 825 808 693
3 692 807 676
3 810 826 678
3 678 826 694
3 694 827 695
3 826 827 694
3 811 696 813
3 696 827 813
3 696 695 827
3 696 811 680
3 815 828 814
3 814 828 818
3 819 829 683
3 683 829 697
3 829 831 830
3 698 829 830
3 697 829 698
3 832 699 698
3 832 698 830
3 832 701 699
3 686 702 833
3 834 686 833
3 821 686 834
3 703 833 702
3 823 705 688
3 835 705 823
3 838 837 836
3 837 825 836
3 825 707 836
3 825 693 707
3 831 839 830
3 830 839 832
3 832 839 840
3 832 840 701
3 840 708 701
3 840 841 708
3 833 709 834
3 709 841 834
3 709 708 841
3 709 833 703
3 835 842 705
3 705 842 710
3 711 710 842
3 711 842 843
3 846 845 844
3 844 845 838
3 844 838 836
3 714 844 836
3 713 714 836
3 713 836 707
3 843 847 711
3 711 847 715
3 849 848 716
3 715 849 716
3 847 849 715
3 851 850 848
3 851 848 849
3 850 851 846
3 850 846 844
3 719 850 844
3 718 719 844
3 718 844 714
3 848 720 716
3 720 848 721
3 721 848 850
3 721 850 719
3 852 722 723
3 852 723 853
3 723 854 853
3 723 724 854
3 724 725 854
3 854 725 855
3 856 726 727
3 856 727 857
3 727 858 857
3 727 728 858
3 728 722 852
3 859 728 852
3 858 728 859
3 859 852 853
3 860 855 725
3 860 725 729
3 729 730 860
3 860 730 861
3 862 732 733
3 734 863 733
3 733 863 862
3 736 863 734
3 865 864 739
3 739 864 738
3 866 739 740
3 866 865 739
3 740 726 856
3 867 740 856
3 866 740 867
3 867 856 857
3 741 861 730
3 741 868 861
3 869 742 743
3 869 743 870
3 743 871 870
3 743 744 871
3 744 732 862
3 872 744 862
3 871 744 872
3 872 862 863
3 872 863 873
3 863 736 873
3 736 874 873
3 736 746 874
3 876 875 749
3 749 875 748
3 877 749 750
3 877 876 749
3 878 750 752
3 878 877 750
3 752 754 878
3 878 754 879
3 882 881 880
3 864 882 880
3 755 864 880
3 738 864 755
3 883 868 741
3 883 741 756
3 884 756 758
3 884 883 756
3 758 742 869
3 885 758 869
3 884 758 885
3 885 869 870
3 760 887 886
3 874 760 886
3 746 760 874
3 887 888 886
3 890 889 762
3 762 889 761
3 762 748 875
3 762 875 890
3 754 763 891
3 892 754 891
3 879 754 892
3 764 891 763
3 880 881 767
3 881 766 767
3 881 893 766
3 880 767 755
3 769 894 768
3 894 895 768
3 768 895 760
3 895 896 760
3 896 887 760
3 887 896 888
3 898 897 772
3 772 897 771
3 772 761 889
3 772 889 898
3 899 892 891
3 891 764 899
3 764 900 899
3 764 774 900
3 893 776 766
3 901 776 893
3 904 903 902
3 777 778 902
3 903 777 902
3 905 777 903
3 777 906 779
3 905 906 777
3 780 779 906
3 780 906 907
3 782 908 894
3 782 894 769
3 895 894 909
3 909 894 908
3 911 910 785
3 785 910 784
3 785 771 897
3 785 897 911
3 774 786 912
3 913 774 912
3 900 774 913
3 787 912 786
3 901 789 776
3 914 789 901
3 904 902 791
3 792 904 791
3 915 904 792
3 791 902 778
3 917 793 916
3 793 907 916
3 793 780 907
3 918 917 916
3 796 919 795
3 920 798 795
3 920 795 919
3 920 800 798
3 922 921 908
3 782 922 908
3 802 922 782
3 908 921 909
3 925 924 923
3 910 925 923
3 803 910 923
3 784 910 803
3 928 927 926
3 929 926 927
3 930 913 912
3 787 804 912
3 804 931 912
3 931 930 912
3 931 804 932
3 914 931 932
3 806 914 932
3 789 914 806
3 935 934 933
3 934 915 933
3 915 808 933
3 915 792 808
3 917 809 793
3 937 936 810
3 937 810 809
3 918 937 809
3 917 918 809
3 939 938 936
3 939 936 937
3 812 813 938
3 939 812 938
3 940 812 939
3 796 812 919
3 812 941 919
3 812 940 941
3 942 815 816
3 919 942 816
3 920 919 816
3 941 942 919
3 944 943 818
3 944 816 943
3 816 944 920
3 945 920 944
3 920 945 800
3 943 800 945
3 945 817 943
3 943 817 818
3 816 800 943
3 802 817 922
3 922 817 945
3 923 924 946
3 946 924 947
3 946 819 803
3 946 803 923
3 950 949 948
3 948 949 928
3 948 928 926
3 821 948 926
3 820 821 926
3 929 951 926
3 951 820 926
3 951 822 820
3 823 822 951
3 823 951 952
3 824 932 804
3 932 824 806
3 935 933 953
3 935 953 954
3 825 953 808
3 808 953 933
3 957 956 955
3 955 958 957
3 936 826 810
3 826 936 827
3 827 936 938
3 827 938 813
3 828 815 959
3 815 960 959
3 815 942 960
3 959 961 828
3 961 818 828
3 961 944 818
3 947 962 946
3 946 962 819
3 962 829 819
3 962 963 829
3 831 829 963
3 831 963 964
3 950 948 965
3 950 965 966
3 834 965 821
3 821 965 948
3 952 835 823
3 967 835 952
3 970 969 968
3 968 969 954
3 968 954 953
3 838 968 953
3 837 838 953
3 837 953 825
3 956 971 955
3 955 971 958
3 960 972 959
3 959 972 961
3 964 973 831
3 831 973 839
3 839 974 840
3 973 974 839
3 965 841 966
3 841 974 966
3 841 840 974
3 841 965 834
3 967 975 835
3 835 975 842
3 843 842 975
3 843 975 976
3 970 968 845
3 846 970 845
3 977 970 846
3 845 968 838
3 976 978 843
3 843 978 847
3 847 979 849
3 978 979 847
3 849 980 851
3 979 980 849
3 846 851 977
3 977 851 980
3 981 853 854
3 855 981 854
3 983 982 858
3 858 982 857
3 984 858 859
3 984 983 858
3 859 853 981
3 985 859 981
3 984 859 985
3 985 981 855
3 860 985 855
3 986 985 860
3 860 861 986
3 986 861 987
3 989 988 865
3 865 988 864
3 990 865 866
3 990 989 865
3 991 866 867
3 991 990 866
3 867 857 982
3 867 982 991
3 868 993 992
3 987 868 992
3 861 868 987
3 993 994 992
3 995 870 871
3 872 996 871
3 871 996 995
3 873 997 872
3 872 997 996
3 874 997 873
3 999 998 876
3 876 998 875
3 1000 876 877
3 1000 999 876
3 1001 877 878
3 1001 1000 877
3 878 879 1001
3 1001 879 1002
3 1004 1003 882
3 882 1003 881
3 882 864 988
3 882 988 1004
3 883 993 868
3 883 884 993
3 884 1005 993
3 1005 994 993
3 884 1006 1005
3 1006 884 1007
3 884 1008 1007
3 884 885 1008
3 885 870 995
3 1009 885 995
3 1008 885 1009
3 1009 995 996
3 1009 996 1010
3 1010 996 997
3 1010 997 1011
3 1013 1011 1012
3 1012 1011 886
3 1011 997 886
3 997 874 886
3 888 1012 886
3 1015 1014 890
3 890 1014 889
3 890 875 998
3 890 998 1015
3 892 1002 879
3 892 1016 1002
3 1019 1018 1017
3 1003 1019 1017
3 893 1003 1017
3 881 1003 893
3 1022 1021 1020
3 1023 1020 1021
3 1024 1005 1006
3 1024 1006 1007
3 1013 1012 896
3 895 1013 896
3 1025 1013 895
3 896 1012 888
3 1027 1026 898
3 898 1026 897
3 898 889 1014
3 898 1014 1027
3 892 899 1028
3 1029 892 1028
3 1016 892 1029
3 900 1028 899
3 1017 1018 1030
3 1030 1018 1031
3 1030 901 893
3 1030 893 1017
3 1033 1032 903
3 1033 903 904
3 903 1034 905
3 1032 1034 903
3 1020 906 1022
3 906 1034 1022
3 906 905 1034
3 1036 1035 907
3 1036 907 906
3 1023 1036 906
3 1020 1023 906
3 1037 1035 1036
3 909 1025 895
3 909 1038 1025
3 1040 1039 911
3 911 1039 910
3 911 897 1026
3 911 1026 1040
3 1041 1029 1028
3 900 913 1028
3 913 1042 1028
3 1042 1041 1028
3 1042 913 1043
3 1042 1043 1031
3 1043 1030 1031
3 1043 1044 1030
3 1044 914 901
3 1044 901 1030
3 1047 1046 1045
3 1046 1033 1045
3 1033 915 1045
3 1033 904 915
3 1035 916 907
3 918 916 1035
3 1037 918 1035
3 1048 918 1037
3 922 1049 921
3 1049 1050 921
3 1050 909 921
3 1050 1038 909
3 1052 1051 925
3 925 1051 924
3 925 910 1039
3 925 1039 1052
3 1055 1054 1053
3 1056 927 928
3 1057 1053 1054
3 1056 929 927
3 930 1043 913
3 1043 930 931
3 1043 931 1044
3 1044 931 914
3 1060 1059 1058
3 1058 1059 1047
3 1058 1047 1045
3 935 1058 1045
3 934 935 1045
3 934 1045 915
3 1063 1062 1061
3 1065 1064 1061
3 1061 1064 1063
3 1067 1066 1065
3 1065 1066 1064
3 937 1069 1068
3 1069 937 1067
3 918 1067 937
3 1067 918 1066
3 1048 1066 918
3 937 1070 939
3 1068 1070 937
3 939 1071 940
3 1070 1071 939
3 940 1072 941
3 1071 1072 940
3 942 941 1072
3 942 1072 1073
3 944 1074 945
3 1074 1075 945
3 945 1075 922
3 1075 1076 922
3 1076 1049 922
3 1049 1076 1050
3 1051 947 924
3 1077 947 1051
3 1055 1053 949
3 950 1055 949
3 1078 1055 950
3 1053 1057 949
3 1057 1079 949
3 1056 928 949
3 1056 949 1079
3 1056 1079 929
3 1079 951 929
3 1079 1080 951
3 952 951 1080
3 952 1080 1081
3 1060 1058 1082
3 1060 1082 1083
3 954 1082 935
3 935 1082 1058
3 1086 1085 1084
3 1087 957 1061
3 957 1087 956
3 1084 956 1087
3 1088 1084 1087
3 1084 1088 1086
3 1089 1086 1088
3 1086 1089 1062
3 1061 1062 1089
3 1087 1061 1089
3 1090 1087 1089
3 1087 1090 958
3 1065 958 1090
3 958 1065 957
3 1061 957 1065
3 1065 1090 1067
3 1067 1090 1091
3 1067 1091 1069
3 1073 960 942
3 1092 960 1073
3 961 1093 1074
3 961 1074 944
3 1075 1074 1094
3 1094 1074 1093
3 1077 1095 947
3 947 1095 962
3 962 1096 963
3 1095 1096 962
3 964 963 1096
3 964 1096 1097
3 1100 1099 1098
3 1099 1078 1098
3 1078 966 1098
3 1078 950 966
3 1081 967 952
3 1101 967 1081
3 1083 1082 969
3 970 1083 969
3 1102 1083 970
3 969 1082 954
3 1085 1103 1084
3 1088 1087 1103
3 1087 971 1103
3 956 1084 1103
3 956 1103 971
3 971 1087 958
3 1092 1104 960
3 960 1104 972
3 961 972 1093
3 972 1105 1093
3 972 1104 1105
3 1093 1105 1094
3 1097 1106 964
3 964 1106 973
3 1098 974 1100
3 974 1106 1100
3 974 973 1106
3 974 1098 966
3 1101 1107 967
3 967 1107 975
3 1109 1108 976
3 975 1109 976
3 1107 1109 975
3 1111 1110 1108
3 1111 1108 1109
3 1113 1112 1110
3 1113 1110 1111
3 1113 1102 1112
3 1102 977 1112
3 1102 970 977
3 1108 978 976
3 978 1108 979
3 979 1108 1110
3 979 1110 980
3 980 1110 1112
3 980 1112 977
3 1115 1114 983
3 983 1114 982
3 1116 983 984
3 1116 1115 983
3 1117 984 985
3 1117 1116 984
3 1118 985 986
3 1118 1117 985
3 986 987 1118
3 1118 987 1119
3 1121 1120 989
3 989 1120 988
3 1122 989 990
3 1122 1121 989
3 1123 990 991
3 1123 1122 990
3 991 982 1114
3 991 1114 1123
3 1124 1119 987
3 1124 987 992
3 992 994 1124
3 1124 994 1125
3 1126 998 999
3 1000 1127 999
3 999 1127 1126
3 1001 1128 1000
3 1000 1128 1127
3 1002 1128 1001
3 1131 1130 1129
3 1003 1004 1129
3 1004 1131 1129
3 1004 1132 1131
3 1004 988 1120
3 1004 1120 1132
3 1005 1125 994
3 1005 1133 1125
3 1134 1007 1008
3 1009 1135 1008
3 1008 1135 1134
3 1010 1136 1009
3 1009 1136 1135
3 1011 1137 1010
3 1010 1137 1136
3 1013 1137 1011
3 1139 1138 1015
3 1015 1138 1014
3 1015 998 1126
3 1140 1015 1126
3 1139 1015 1140
3 1140 1126 1127
3 1140 1127 1141
3 1143 1142 1141
3 1127 1143 1141
3 1128 1143 1127
3 1016 1143 1002
3 1002 1143 1128
3 1129 1130 1019
3 1130 1018 1019
3 1130 1144 1018
3 1129 1019 1003
3 1022 1145 1021
3 1145 1023 1021
3 1146 1133 1005
3 1146 1005 1024
3 1024 1007 1134
3 1147 1024 1134
3 1146 1024 1147
3 1147 1134 1135
3 1147 1135 1148
3 1148 1135 1136
3 1148 1136 1149
3 1149 1136 1137
3 1149 1137 1150
3 1137 1013 1150
3 1013 1151 1150
3 1013 1025 1151
3 1153 1152 1027
3 1027 1152 1026
3 1027 1014 1138
3 1027 1138 1153
3 1154 1142 1143
3 1143 1016 1154
3 1016 1155 1154
3 1016 1029 1155
3 1158 1157 1156
3 1144 1158 1156
3 1031 1144 1156
3 1018 1144 1031
3 1161 1160 1159
3 1032 1033 1159
3 1160 1032 1159
3 1162 1032 1160
3 1032 1163 1034
3 1162 1163 1032
3 1022 1034 1145
3 1034 1164 1145
3 1034 1163 1164
3 1145 1164 1023
3 1164 1036 1023
3 1164 1165 1036
3 1037 1036 1165
3 1037 1165 1166
3 1038 1151 1025
3 1038 1167 1151
3 1169 1168 1040
3 1040 1168 1039
3 1040 1026 1152
3 1040 1152 1169
3 1170 1155 1029
3 1170 1029 1041
3 1042 1156 1157
3 1170 1042 1157
3 1041 1042 1170
3 1156 1042 1031
3 1173 1172 1171
3 1171 1172 1161
3 1171 1161 1159
3 1047 1171 1159
3 1046 1047 1159
3 1046 1159 1033
3 1176 1175 1174
3 1178 1177 1174
3 1174 1177 1176
3 1180 1179 1178
3 1178 1179 1177
3 1166 1179 1180
3 1048 1166 1180
3 1037 1166 1048
3 1050 1167 1038
3 1050 1181 1167
3 1183 1182 1052
3 1052 1182 1051
3 1052 1039 1168
3 1052 1168 1183
3 1055 1184 1054
3 1184 1057 1054
3 1173 1171 1059
3 1060 1173 1059
3 1185 1173 1060
3 1059 1171 1047
3 1188 1187 1186
3 1188 1186 1175
3 1175 1186 1174
3 1186 1062 1174
3 1062 1063 1174
3 1174 1063 1064
3 1174 1064 1178
3 1178 1064 1066
3 1178 1066 1180
3 1048 1180 1066
3 1068 1069 1189
3 1068 1189 1190
3 1191 1068 1190
3 1070 1068 1191
3 1070 1192 1071
3 1191 1192 1070
3 1192 1194 1193
3 1072 1192 1193
3 1071 1192 1072
3 1193 1073 1072
3 1075 1195 1076
3 1195 1196 1076
3 1196 1050 1076
3 1196 1181 1050
3 1182 1077 1051
3 1197 1077 1182
3 1199 1198 1184
3 1055 1199 1184
3 1078 1199 1055
3 1184 1198 1057
3 1198 1079 1057
3 1198 1200 1079
3 1079 1201 1080
3 1200 1201 1079
3 1081 1080 1201
3 1081 1201 1202
3 1205 1204 1203
3 1204 1185 1203
3 1185 1083 1203
3 1185 1060 1083
3 1186 1187 1086
3 1187 1085 1086
3 1187 1206 1085
3 1208 1207 1088
3 1208 1086 1207
3 1086 1208 1186
3 1209 1186 1208
3 1186 1209 1062
3 1207 1062 1209
3 1209 1089 1207
3 1207 1089 1088
3 1086 1062 1207
3 1089 1210 1090
3 1209 1210 1089
3 1090 1211 1091
3 1210 1211 1090
3 1069 1091 1189
3 1091 1212 1189
3 1091 1211 1212
3 1189 1212 1190
3 1194 1213 1193
3 1073 1193 1213
3 1214 1073 1213
3 1092 1073 1214
3 1216 1215 1195
3 1075 1216 1195
3 1094 1216 1075
3 1195 1215 1196
3 1197 1217 1077
3 1077 1217 1095
3 1217 1219 1218
3 1096 1217 1218
3 1095 1217 1096
3 1218 1097 1096
3 1100 1220 1099
3 1199 1078 1221
3 1078 1220 1221
3 1220 1222 1221
3 1078 1099 1220
3 1222 1223 1221
3 1225 1101 1224
3 1101 1202 1224
3 1101 1081 1202
3 1227 1226 1225
3 1227 1225 1224
3 1229 1228 1226
3 1229 1226 1227
3 1228 1229 1205
3 1203 1228 1205
3 1230 1228 1203
3 1102 1230 1083
3 1083 1230 1203
3 1206 1231 1085
3 1085 1231 1103
3 1088 1103 1208
3 1208 1103 1231
3 1214 1232 1092
3 1092 1232 1104
3 1104 1233 1105
3 1232 1233 1104
3 1094 1105 1216
3 1216 1105 1233
3 1219 1234 1218
3 1218 1234 1097
3 1234 1106 1097
3 1234 1235 1106
3 1100 1106 1220
3 1106 1236 1220
3 1106 1235 1236
3 1220 1236 1222
3 1222 1236 1237
3 1222 1237 1223
3 1240 1239 1238
3 1225 1107 1101
3 1241 1240 1238
3 1107 1225 1109
3 1109 1225 1226
3 1109 1226 1111
3 1111 1226 1228
3 1111 1228 1113
3 1113 1228 1230
3 1113 1230 1102
3 1239 1242 1238
3 1238 1242 1241
3 1244 1243 1115
3 1115 1243 1114
3 1245 1115 1116
3 1245 1244 1115
3 1246 1116 1117
3 1246 1245 1116
3 1247 1117 1118
3 1247 1246 1117
3 1118 1119 1247
3 1247 1119 1248
3 1250 1249 1121
3 1121 1249 1120
3 1251 1121 1122
3 1251 1250 1121
3 1252 1122 1123
3 1252 1251 1122
3 1123 1114 1243
3 1123 1243 1252
3 1253 1248 1119
3 1253 1119 1124
3 1124 1125 1253
3 1253 1125 1254
3 1256 1255 1131
3 1131 1255 1130
3 1257 1131 1132
3 1257 1256 1131
3 1132 1120 1249
3 1132 1249 1257
3 1133 1259 1258
3 1254 1133 1258
3 1125 1133 1254
3 1259 1260 1258
3 1262 1261 1139
3 1139 1261 1138
3 1263 1139 1140
3 1263 1262 1139
3 1264 1140 1141
3 1264 1263 1140
3 1141 1142 1264
3 1264 1142 1265
3 1268 1267 1266
3 1255 1268 1266
3 1144 1255 1266
3 1130 1255 1144
3 1146 1259 1133
3 1269 1260 1259
3 1146 1269 1259
3 1147 1269 1146
3 1271 1269 1270
3 1269 1148 1270
3 1269 1147 1148
3 1149 1272 1148
3 1148 1272 1270
3 1150 1273 1149
3 1149 1273 1272
3 1151 1273 1150
3 1275 1274 1153
3 1153 1274 1152
3 1153 1138 1261
3 1153 1261 1275
3 1276 1265 1142
3 1276 1142 1154
3 1278 1277 1155
3 1277 1154 1155
3 1277 1276 1154
3 1277 1278 1267
3 1267 1278 1266
3 1278 1157 1266
3 1157 1158 1266
3 1266 1158 1144
3 1280 1279 1160
3 1280 1160 1161
3 1279 1282 1281
3 1162 1279 1281
3 1160 1279 1162
3 1283 1163 1162
3 1283 1162 1281
3 1284 1164 1163
3 1284 1163 1283
3 1285 1165 1164
3 1285 1164 1284
3 1285 1166 1165
3 1286 1271 1270
3 1286 1270 1272
3 1286 1272 1287
3 1289 1288 1287
3 1272 1289 1287
3 1273 1289 1272
3 1167 1289 1151
3 1151 1289 1273
3 1291 1290 1169
3 1169 1290 1168
3 1169 1152 1274
3 1169 1274 1291
3 1170 1278 1155
3 1278 1170 1157
3 1293 1292 1172
3 1293 1172 1173
3 1161 1172 1280
3 1280 1172 1292
3 1281 1282 1294
3 1294 1282 1295
3 1294 1175 1176
3 1283 1294 1176
3 1281 1294 1283
3 1283 1176 1177
3 1283 1177 1284
3 1284 1177 1179
3 1284 1179 1285
3 1285 1179 1166
3 1296 1288 1289
3 1289 1167 1296
3 1167 1297 1296
3 1167 1181 1297
3 1299 1298 1183
3 1183 1298 1182
3 1183 1168 1290
3 1183 1290 1299
3 1302 1301 1300
3 1301 1293 1300
3 1293 1185 1300
3 1293 1173 1185
3 1294 1295 1188
3 1295 1187 1188
3 1295 1303 1187
3 1294 1188 1175
3 1190 1304 1191
3 1305 1192 1191
3 1305 1191 1304
3 1305 1194 1192
3 1196 1297 1181
3 1196 1306 1297
3 1298 1197 1182
3 1307 1197 1298
3 1199 1308 1198
3 1309 1200 1198
3 1309 1198 1308
3 1310 1201 1200
3 1310 1200 1309
3 1202 1201 1310
3 1313 1312 1311
3 1315 1314 1313
3 1315 1313 1311
3 1317 1316 1314
3 1317 1314 1315
3 1316 1317 1302
3 1316 1302 1300
3 1205 1316 1300
3 1204 1205 1300
3 1204 1300 1185
3 1303 1206 1187
3 1318 1206 1303
3 1320 1319 1209
3 1320 1209 1208
3 1209 1321 1210
3 1319 1321 1209
3 1210 1322 1211
3 1321 1322 1210
3 1322 1324 1323
3 1212 1322 1323
3 1211 1322 1212
3 1304 1190 1212
3 1323 1304 1212
3 1325 1304 1323
3 1304 1326 1305
3 1304 1325 1326
3 1327 1213 1194
3 1305 1327 1194
3 1326 1327 1305
3 1327 1214 1213
3 1329 1328 1215
3 1329 1215 1216
3 1196 1215 1306
3 1306 1215 1328
3 1307 1330 1197
3 1197 1330 1217
3 1219 1217 1330
3 1219 1330 1331
3 1221 1308 1199
3 1308 1221 1223
3 1332 1308 1223
3 1309 1308 1332
3 1309 1333 1310
3 1309 1332 1333
3 1312 1313 1334
3 1224 1334 1313
3 1334 1224 1333
3 1202 1333 1224
3 1333 1202 1310
3 1224 1313 1227
3 1227 1313 1314
3 1227 1314 1229
3 1229 1314 1316
3 1229 1316 1205
3 1318 1335 1206
3 1206 1335 1231
3 1208 1231 1320
3 1320 1231 1335
3 1324 1336 1323
3 1323 1336 1325
3 1325 1336 1337
3 1325 1337 1326
3 1326 1337 1338
3 1326 1338 1327
3 1327 1338 1339
3 1327 1339 1214
3 1339 1232 1214
3 1339 1340 1232
3 1232 1341 1233
3 1340 1341 1232
3 1216 1233 1329
3 1329 1233 1341
3 1331 1342 1219
3 1219 1342 1234
3 1234 1343 1235
3 1342 1343 1234
3 1235 1344 1236
3 1343 1344 1235
3 1236 1345 1237
3 1344 1345 1236
3 1223 1237 1332
3 1237 1346 1332
3 1237 1345 1346
3 1348 1347 1346
3 1239 1346 1347
3 1346 1239 1332
3 1240 1332 1239
3 1332 1240 1333
3 1347 1348 1241
3 1348 1334 1241
3 1333 1240 1241
3 1333 1241 1334
3 1347 1242 1239
3 1242 1347 1241
3 1349 1243 1244
3 1349 1244 1350
3 1244 1351 1350
3 1244 1245 1351
3 1352 1245 1246
3 1352 1351 1245
3 1354 1352 1353
3 1352 1247 1353
3 1352 1246 1247
3 1248 1353 1247
3 1356 1355 1250
3 1250 1355 1249
3 1357 1250 1251
3 1357 1356 1250
3 1358 1251 1252
3 1358 1357 1251
3 1252 1243 1349
3 1359 1252 1349
3 1358 1252 1359
3 1359 1349 1350
3 1360 1354 1353
3 1360 1353 1248
3 1253 1360 1248
3 1361 1360 1253
3 1253 1254 1361
3 1361 1254 1362
3 1364 1363 1256
3 1256 1363 1255
3 1365 1256 1257
3 1365 1364 1256
3 1257 1249 1355
3 1257 1355 1365
3 1366 1362 1254
3 1366 1254 1258
3 1258 1260 1366
3 1366 1260 1367
3 1368 1261 1262
3 1368 1262 1369
3 1262 1370 1369
3 1262 1263 1370
3 1372 1370 1371
3 1370 1264 1371
3 1370 1263 1264
3 1265 1371 1264
3 1375 1374 1373
3 1267 1268 1373
3 1268 1375 1373
3 1268 1376 1375
3 1268 1255 1363
3 1268 1363 1376
3 1260 1269 1377
3 1378 1260 1377
3 1367 1260 1378
3 1271 1377 1269
3 1380 1379 1275
3 1275 1379 1274
3 1275 1261 1368
3 1381 1275 1368
3 1380 1275 1381
3 1381 1368 1369
3 1382 1372 1371
3 1382 1371 1265
3 1276 1382 1265
3 1383 1382 1276
3 1277 1373 1374
3 1383 1277 1374
3 1276 1277 1383
3 1373 1277 1267
3 1280 1384 1279
3 1384 1282 1279
3 1385 1378 1377
3 1385 1377 1271
3 1286 1385 1271
3 1386 1385 1286
3 1388 1386 1387
3 1386 1287 1387
3 1386 1286 1287
3 1288 1387 1287
3 1390 1389 1291
3 1291 1389 1290
3 1291 1274 1379
3 1291 1379 1390
3 1392 1391 1292
3 1392 1292 1293
3 1292 1391 1280
3 1391 1393 1280
3 1393 1384 1280
3 1393 1391 1394
3 1393 1295 1282
3 1393 1282 1384
3 1395 1388 1387
3 1397 1395 1396
3 1396 1395 1296
3 1395 1387 1296
3 1387 1288 1296
3 1297 1396 1296
3 1398 1298 1299
3 1399 1398 1299
3 1290 1399 1299
3 1389 1399 1290
3 1402 1401 1400
3 1301 1302 1400
3 1401 1301 1400
3 1403 1301 1401
3 1293 1301 1392
3 1392 1301 1403
3 1393 1394 1404
3 1404 1394 1405
3 1404 1303 1295
3 1404 1295 1393
3 1397 1396 1406
3 1397 1406 1407
3 1306 1406 1297
3 1297 1406 1396
3 1408 1307 1398
3 1398 1307 1298
3 1398 1399 1409
3 1398 1409 1408
3 1411 1410 1311
3 1411 1311 1312
3 1311 1412 1315
3 1410 1412 1311
3 1400 1317 1402
3 1317 1412 1402
3 1317 1315 1412
3 1317 1400 1302
3 1404 1405 1413
3 1413 1405 1414
3 1413 1318 1303
3 1413 1303 1404
3 1416 1415 1319
3 1416 1319 1320
3 1319 1417 1321
3 1415 1417 1319
3 1417 1419 1418
3 1322 1417 1418
3 1321 1417 1322
3 1418 1324 1322
3 1407 1406 1328
3 1329 1407 1328
3 1420 1407 1329
3 1328 1406 1306
3 1408 1330 1307
3 1422 1421 1331
3 1422 1331 1330
3 1409 1422 1330
3 1408 1409 1330
3 1423 1421 1422
3 1334 1411 1312
3 1334 1424 1411
3 1427 1426 1425
3 1429 1428 1425
3 1428 1413 1425
3 1414 1427 1425
3 1414 1425 1413
3 1413 1428 1318
3 1428 1335 1318
3 1428 1430 1335
3 1320 1335 1416
3 1416 1335 1430
3 1419 1431 1418
3 1418 1431 1324
3 1431 1336 1324
3 1431 1432 1336
3 1336 1433 1337
3 1432 1433 1336
3 1337 1434 1338
3 1433 1434 1337
3 1338 1435 1339
3 1434 1435 1338
3 1339 1436 1340
3 1435 1436 1339
3 1340 1437 1341
3 1436 1437 1340
3 1329 1341 1420
3 1420 1341 1437
3 1421 1342 1331
3 1423 1438 1421
3 1438 1342 1421
3 1438 1343 1342
3 1343 1439 1344
3 1438 1439 1343
3 1344 1440 1345
3 1439 1440 1344
3 1345 1441 1346
3 1440 1441 1345
3 1346 1442 1348
3 1441 1442 1346
3 1334 1348 1424
3 1424 1348 1442
3 1426 1443 1425
3 1425 1443 1429
3 1444 1350 1351
3 1352 1445 1351
3 1351 1445 1444
3 1354 1445 1352
3 1446 1355 1356
3 1446 1356 1447
3 1356 1448 1447
3 1356 1357 1448
3 1449 1357 1358
3 1449 1448 1357
3 1450 1358 1359
3 1450 1449 1358
3 1359 1350 1444
3 1451 1359 1444
3 1450 1359 1451
3 1451 1444 1445
3 1451 1445 1452
3 1452 1445 1354
3 1360 1452 1354
3 1453 1452 1360
3 1455 1453 1454
3 1453 1361 1454
3 1453 1360 1361
3 1362 1454 1361
3 1457 1456 1364
3 1364 1456 1363
3 1458 1364 1365
3 1458 1457 1364
3 1365 1355 1446
3 1459 1365 1446
3 1458 1365 1459
3 1459 1446 1447
3 1460 1455 1454
3 1462 1460 1461
3 1461 1460 1366
3 1460 1454 1366
3 1454 1362 1366
3 1367 1461 1366
3 1463 1369 1370
3 1372 1463 1370
3 1465 1464 1375
3 1375 1464 1374
3 1466 1375 1376
3 1466 1465 1375
3 1376 1363 1456
3 1376 1456 1466
3 1467 1462 1461
3 1461 1367 1467
3 1367 1468 1467
3 1367 1378 1468
3 1470 1469 1380
3 1380 1469 1379
3 1471 1380 1381
3 1471 1470 1380
3 1381 1369 1463
3 1472 1381 1463
3 1471 1381 1472
3 1472 1463 1372
3 1382 1472 1372
3 1473 1472 1382
3 1474 1382 1383
3 1474 1473 1382
3 1383 1374 1464
3 1383 1464 1474
3 1475 1468 1378
3 1475 1378 1385
3 1476 1385 1386
3 1476 1475 1385
3 1386 1388 1476
3 1476 1388 1477
3 1478 1389 1390
3 1479 1478 1390
3 1379 1479 1390
3 1469 1479 1379
3 1392 1480 1391
3 1480 1394 1391
3 1388 1395 1481
3 1482 1388 1481
3 1477 1388 1482
3 1397 1481 1395
3 1484 1483 1478
3 1483 1389 1478
3 1483 1399 1389
3 1484 1478 1479
3 1402 1485 1401
3 1486 1403 1401
3 1486 1401 1485
3 1480 1392 1403
3 1486 1480 1403
3 1487 1480 1486
3 1487 1405 1394
3 1487 1394 1480
3 1488 1482 1481
3 1481 1397 1488
3 1397 1489 1488
3 1397 1407 1489
3 1483 1409 1399
3 1490 1409 1483
3 1411 1491 1410
3 1492 1412 1410
3 1492 1410 1491
3 1485 1402 1412
3 1492 1485 1412
3 1493 1485 1492
3 1485 1494 1486
3 1485 1493 1494
3 1486 1495 1487
3 1486 1494 1495
3 1495 1414 1405
3 1495 1405 1487
3 1416 1496 1415
3 1415 1496 1497
3 1498 1415 1497
3 1417 1415 1498
3 1500 1499 1419
3 1417 1500 1419
3 1498 1500 1417
3 1501 1499 1500
3 1420 1489 1407
3 1420 1502 1489
3 1490 1503 1409
3 1409 1503 1422
3 1505 1504 1423
3 1422 1505 1423
3 1503 1505 1422
3 1506 1504 1505
3 1424 1507 1491
3 1424 1491 1411
3 1491 1508 1492
3 1491 1507 1508
3 1492 1509 1493
3 1492 1508 1509
3 1493 1510 1494
3 1493 1509 1510
3 1510 1426 1427
3 1495 1510 1427
3 1494 1510 1495
3 1512 1511 1429
3 1512 1427 1511
3 1427 1512 1495
3 1513 1495 1512
3 1495 1513 1414
3 1511 1414 1513
3 1513 1428 1511
3 1511 1428 1429
3 1427 1414 1511
3 1428 1514 1430
3 1513 1514 1428
3 1416 1430 1496
3 1430 1515 1496
3 1430 1514 1515
3 1496 1515 1497
3 1499 1431 1419
3 1501 1516 1499
3 1516 1431 1499
3 1516 1432 1431
3 1432 1517 1433
3 1516 1517 1432
3 1433 1518 1434
3 1517 1518 1433
3 1434 1519 1435
3 1518 1519 1434
3 1519 1521 1520
3 1436 1519 1520
3 1435 1519 1436
3 1436 1520 1522
3 1523 1436 1522
3 1437 1436 1523
3 1420 1437 1502
3 1502 1437 1523
3 1504 1438 1423
3 1506 1524 1504
3 1524 1438 1504
3 1524 1439 1438
3 1439 1525 1440
3 1524 1525 1439
3 1440 1526 1441
3 1525 1526 1440
3 1441 1527 1442
3 1526 1527 1441
3 1424 1442 1507
3 1442 1528 1507
3 1442 1527 1528
3 1507 1528 1508
3 1508 1528 1529
3 1508 1529 1509
3 1509 1529 1530
3 1509 1530 1510
3 1510 1530 1531
3 1510 1531 1426
3 1531 1443 1426
3 1531 1532 1443
3 1429 1443 1512
3 1512 1443 1532
3 1521 1533 1520
3 1520 1533 1522
3 1534 1447 1448
3 1449 1535 1448
3 1448 1535 1534
3 1450 1536 1449
3 1449 1536 1535
3 1451 1537 1450
3 1450 1537 1536
3 1452 1538 1451
3 1451 1538 1537
3 1453 1539 1452
3 1452 1539 1538
3 1455 1539 1453
3 1540 1456 1457
3 1540 1457 1541
3 1457 1542 1541
3 1457 1458 1542
3 1543 1458 1459
3 1543 1542 1458
3 1459 1447 1534
3 1544 1459 1534
3 1543 1459 1544
3 1544 1534 1535
3 1544 1535 1545
3 1545 1535 1536
3 1545 1536 1546
3 1546 1536 1537
3 1546 1537 1547
3 1549 1548 1547
3 1537 1549 1547
3 1538 1549 1537
3 1550 1538 1539
3 1549 1538 1550
3 1460 1551 1455
3 1551 1539 1455
3 1551 1550 1539
3 1462 1551 1460
3 1553 1552 1465
3 1465 1552 1464
3 1554 1465 1466
3 1554 1553 1465
3 1466 1456 1540
3 1555 1466 1540
3 1554 1466 1555
3 1555 1540 1541
3 1556 1548 1549
3 1556 1549 1550
3 1556 1550 1557
3 1557 1550 1551
3 1557 1551 1558
3 1560 1558 1559
3 1559 1558 1467
3 1558 1551 1467
3 1551 1462 1467
3 1468 1559 1467
3 1561 1469 1470
3 1471 1562 1470
3 1470 1562 1561
3 1562 1471 1563
3 1471 1564 1563
3 1471 1472 1564
3 1565 1472 1473
3 1565 1564 1472
3 1566 1473 1474
3 1566 1565 1473
3 1474 1464 1552
3 1474 1552 1566
3 1567 1560 1559
3 1567 1559 1468
3 1475 1567 1468
3 1568 1567 1475
3 1570 1568 1569
3 1568 1476 1569
3 1568 1475 1476
3 1477 1569 1476
3 1571 1479 1561
3 1561 1479 1469
3 1562 1573 1572
3 1571 1562 1572
3 1561 1562 1571
3 1573 1562 1563
3 1576 1575 1574
3 1578 1577 1574
3 1578 1574 1575
3 1579 1577 1578
3 1570 1569 1580
3 1570 1580 1581
3 1482 1580 1477
3 1477 1580 1569
3 1582 1483 1484
3 1479 1571 1484
3 1571 1582 1484
3 1571 1583 1582
3 1571 1572 1584
3 1571 1584 1583
3 1576 1574 1585
3 1576 1585 1586
3 1587 1574 1577
3 1585 1574 1587
3 1577 1579 1588
3 1577 1588 1587
3 1581 1580 1589
3 1581 1589 1590
3 1488 1591 1482
3 1591 1580 1482
3 1591 1589 1580
3 1489 1591 1488
3 1592 1490 1582
3 1582 1490 1483
3 1593 1582 1583
3 1592 1582 1593
3 1583 1584 1594
3 1595 1583 1594
3 1593 1583 1595
3 1596 1595 1594
3 1599 1598 1597
3 1597 1598 1586
3 1597 1586 1585
3 1497 1597 1585
3 1498 1497 1585
3 1498 1585 1500
3 1500 1585 1587
3 1601 1600 1501
3 1601 1501 1500
3 1588 1601 1500
3 1587 1588 1500
3 1602 1600 1601
3 1605 1604 1603
3 1603 1604 1590
3 1589 1603 1590
3 1606 1603 1589
3 1607 1589 1591
3 1606 1589 1607
3 1502 1607 1489
3 1489 1607 1591
3 1592 1503 1490
3 1503 1592 1505
3 1505 1592 1593
3 1505 1593 1506
3 1593 1608 1506
3 1593 1595 1608
3 1595 1596 1609
3 1595 1609 1608
3 1611 1610 1513
3 1611 1513 1512
3 1513 1612 1514
3 1610 1612 1513
3 1597 1515 1599
3 1515 1612 1599
3 1515 1514 1612
3 1515 1597 1497
3 1600 1516 1501
3 1602 1613 1600
3 1613 1516 1600
3 1613 1517 1516
3 1517 1614 1518
3 1613 1614 1517
3 1603 1519 1605
3 1519 1614 1605
3 1519 1518 1614
3 1519 1603 1521
3 1603 1615 1521
3 1603 1606 1615
3 1522 1615 1523
3 1615 1607 1523
3 1615 1606 1607
3 1523 1607 1502
3 1608 1524 1506
3 1609 1616 1608
3 1616 1524 1608
3 1616 1525 1524
3 1525 1617 1526
3 1616 1617 1525
3 1526 1618 1527
3 1617 1618 1526
3 1527 1619 1528
3 1618 1619 1527
3 1528 1620 1529
3 1619 1620 1528
3 1529 1621 1530
3 1620 1621 1529
3 1530 1622 1531
3 1621 1622 1530
3 1531 1623 1532
3 1622 1623 1531
3 1512 1532 1611
3 1611 1532 1623
3 1615 1533 1521
3 1533 1615 1522
3 1624 1541 1542
3 1543 1625 1542
3 1542 1625 1624
3 1544 1626 1543
3 1543 1626 1625
3 1545 1627 1544
3 1544 1627 1626
3 1546 1628 1545
3 1545 1628 1627
3 1547 1629 1546
3 1546 1629 1628
3 1548 1629 1547
3 1630 1552 1553
3 1630 1553 1631
3 1553 1632 1631
3 1553 1554 1632
3 1633 1554 1555
3 1633 1632 1554
3 1633 1555 1541
3 1634 1633 1541
3 1624 1634 1541
3 1633 1634 1635
3 1636 1624 1625
3 1634 1624 1636
3 1637 1625 1626
3 1636 1625 1637
3 1638 1626 1627
3 1637 1626 1638
3 1639 1627 1628
3 1638 1627 1639
3 1640 1628 1629
3 1639 1628 1640
3 1556 1641 1548
3 1641 1629 1548
3 1641 1640 1629
3 1557 1642 1556
3 1556 1642 1641
3 1558 1643 1557
3 1557 1643 1642
3 1560 1643 1558
3 1644 1563 1564
3 1565 1645 1564
3 1564 1645 1644
3 1645 1565 1646
3 1565 1647 1646
3 1565 1566 1647
3 1566 1552 1630
3 1648 1566 1630
3 1647 1566 1648
3 1648 1630 1631
3 1649 1635 1634
3 1649 1634 1636
3 1649 1636 1650
3 1650 1636 1637
3 1650 1637 1651
3 1653 1652 1651
3 1637 1653 1651
3 1638 1653 1637
3 1654 1638 1639
3 1653 1638 1654
3 1655 1639 1640
3 1654 1639 1655
3 1656 1640 1641
3 1655 1640 1656
3 1657 1641 1642
3 1656 1641 1657
3 1658 1642 1643
3 1657 1642 1658
3 1567 1659 1560
3 1659 1643 1560
3 1659 1658 1643
3 1568 1660 1567
3 1567 1660 1659
3 1570 1660 1568
3 1661 1572 1573
3 1563 1644 1573
3 1644 1661 1573
3 1644 1662 1661
3 1645 1664 1663
3 1662 1645 1663
3 1644 1645 1662
3 1664 1645 1646
3 1652 1653 1665
3 1652 1665 1666
3 1667 1653 1654
3 1665 1653 1667
3 1576 1667 1575
3 1667 1655 1575
3 1667 1654 1655
3 1575 1655 1578
3 1578 1655 1656
3 1578 1656 1579
3 1656 1668 1579
3 1656 1657 1668
3 1669 1657 1658
3 1668 1657 1669
3 1670 1658 1659
3 1669 1658 1670
3 1671 1659 1660
3 1670 1659 1671
3 1581 1671 1570
3 1570 1671 1660
3 1672 1584 1661
3 1661 1584 1572
3 1673 1661 1662
3 1672 1661 1673
3 1662 1663 1674
3 1662 1674 1673
3 1666 1665 1675
3 1666 1675 1676
3 1677 1665 1667
3 1675 1665 1677
3 1586 1677 1576
3 1576 1677 1667
3 1678 1588 1668
3 1668 1588 1579
3 1679 1668 1669
3 1678 1668 1679
3 1680 1669 1670
3 1679 1669 1680
3 1681 1670 1671
3 1680 1670 1681
3 1590 1681 1581
3 1581 1681 1671
3 1672 1594 1584
3 1594 1672 1596
3 1672 1682 1596
3 1672 1673 1682
3 1673 1674 1683
3 1673 1683 1682
3 1676 1675 1684
3 1676 1684 1685
3 1599 1684 1598
3 1684 1677 1598
3 1684 1675 1677
3 1598 1677 1586
3 1678 1601 1588
3 1601 1678 1602
3 1678 1686 1602
3 1678 1679 1686
3 1687 1679 1680
3 1686 1679 1687
3 1605 1687 1604
3 1687 1681 1604
3 1687 1680 1681
3 1604 1681 1590
3 1688 1609 1682
3 1682 1609 1596
3 1682 1683 1689
3 1682 1689 1688
3 1692 1691 1690
3 1610 1611 1690
3 1691 1610 1690
3 1693 1610 1691
3 1684 1612 1685
3 1612 1693 1685
3 1612 1610 1693
3 1612 1684 1599
3 1686 1613 1602
3 1613 1686 1614
3 1614 1686 1687
3 1614 1687 1605
3 1688 1616 1609
3 1689 1694 1688
3 1694 1616 1688
3 1694 1617 1616
3 1694 1696 1695
3 1618 1694 1695
3 1617 1694 1618
3 1618 1695 1697
3 1698 1618 1697
3 1619 1618 1698
3 1619 1699 1620
3 1698 1699 1619
3 1620 1700 1621
3 1699 1700 1620
3 1621 1701 1622
3 1700 1701 1621
3 1690 1623 1692
3 1623 1701 1692
3 1623 1622 1701
3 1623 1690 1611
3 1696 1702 1695
3 1695 1702 1697
3 1703 1631 1632
3 1633 1704 1632
3 1632 1704 1703
3 1635 1704 1633
3 1705 1646 1647
3 1648 1706 1647
3 1647 1706 1705
3 1631 1703 1648
3 1703 1706 1648
3 1703 1707 1706
3 1708 1703 1704
3 1707 1703 1708
3 1649 1709 1635
3 1709 1704 1635
3 1709 1708 1704
3 1650 1710 1649
3 1649 1710 1709
3 1651 1711 1650
3 1650 1711 1710
3 1652 1711 1651
3 1712 1663 1664
3 1646 1705 1664
3 1705 1712 1664
3 1705 1713 1712
3 1714 1705 1706
3 1713 1705 1714
3 1715 1706 1707
3 1714 1706 1715
3 1716 1707 1708
3 1715 1707 1716
3 1717 1708 1709
3 1716 1708 1717
3 1718 1709 1710
3 1717 1709 1718
3 1719 1710 1711
3 1718 1710 1719
3 1666 1719 1652
3 1652 1719 1711
3 1720 1674 1712
3 1712 1674 1663
3 1721 1712 1713
3 1720 1712 1721
3 1722 1713 1714
3 1721 1713 1722
3 1715 1724 1723
3 1722 1715 1723
3 1714 1715 1722
3 1726 1725 1724
3 1715 1726 1724
3 1716 1726 1715
3 1727 1716 1717
3 1726 1716 1727
3 1728 1717 1718
3 1727 1717 1728
3 1729 1718 1719
3 1728 1718 1729
3 1676 1729 1666
3 1666 1729 1719
3 1730 1683 1720
3 1720 1683 1674
3 1731 1720 1721
3 1730 1720 1731
3 1732 1721 1722
3 1731 1721 1732
3 1722 1723 1733
3 1722 1733 1732
3 1725 1726 1734
3 1725 1734 1735
3 1736 1726 1727
3 1734 1726 1736
3 1737 1727 1728
3 1736 1727 1737
3 1738 1728 1729
3 1737 1728 1738
3 1685 1738 1676
3 1676 1738 1729
3 1739 1689 1730
3 1730 1689 1683
3 1740 1730 1731
3 1739 1730 1740
3 1741 1731 1732
3 1740 1731 1741
3 1732 1733 1742
3 1743 1732 1742
3 1741 1732 1743
3 1743 1742 1735
3 1734 1743 1735
3 1744 1743 1734
3 1745 1734 1736
3 1744 1734 1745
3 1692 1745 1691
3 1745 1737 1691
3 1745 1736 1737
3 1691 1737 1693
3 1693 1737 1738
3 1693 1738 1685
3 1739 1694 1689
3 1694 1739 1696
3 1739 1746 1696
3 1739 1740 1746
3 1697 1746 1698
3 1746 1741 1698
3 1746 1740 1741
3 1698 1741 1699
3 1699 1741 1743
3 1699 1743 1700
3 1700 1743 1744
3 1700 1744 1701
3 1701 1744 1745
3 1701 1745 1692
3 1746 1702 1696
3 1702 1746 1697
3 1747 1723 1724
3 1725 1747 1724
3 1748 1733 1747
3 1747 1733 1723
3 1735 1748 1725
3 1725 1748 1747
3 1748 1742 1733
3 1742 1748 1735
